<svg width="57" height="29" viewBox="0 0 57 29" fill="none" xmlns="http://www.w3.org/2000/svg">
<g id="Amazon_Web_Services-Logo.wine 1">
<g id="g1865">
<path id="path1857" d="M19.2533 9.53653C19.2533 10.0579 19.3096 10.4805 19.4083 10.7905C19.521 11.1005 19.6619 11.4386 19.8591 11.805C19.9296 11.9177 19.9578 12.0304 19.9578 12.129C19.9578 12.2699 19.8732 12.4108 19.6901 12.5517L18.8024 13.1435C18.6756 13.228 18.5488 13.2703 18.4361 13.2703C18.2952 13.2703 18.1543 13.1999 18.0134 13.0731C17.8161 12.8617 17.6471 12.6363 17.5062 12.4108C17.3653 12.1713 17.2244 11.9036 17.0694 11.5795C15.9704 12.8758 14.5896 13.5239 12.927 13.5239C11.7435 13.5239 10.7994 13.1858 10.109 12.5095C9.41865 11.8332 9.06641 10.9314 9.06641 9.80424C9.06641 8.60661 9.4891 7.63442 10.3486 6.90175C11.208 6.16909 12.3493 5.80275 13.8006 5.80275C14.2796 5.80275 14.7727 5.84502 15.2941 5.91547C15.8154 5.98592 16.3508 6.09864 16.9144 6.22544V5.19689C16.9144 4.12607 16.6889 3.37932 16.2522 2.94254C15.8013 2.50576 15.0405 2.29441 13.9555 2.29441C13.4624 2.29441 12.9552 2.35077 12.4339 2.47758C11.9125 2.60438 11.4053 2.75937 10.9122 2.95663C10.6867 3.05526 10.5176 3.11161 10.419 3.13979C10.3204 3.16797 10.2499 3.18206 10.1936 3.18206C9.99633 3.18206 9.8977 3.04117 9.8977 2.74528V2.05488C9.8977 1.82945 9.92588 1.66037 9.99633 1.56174C10.0668 1.46312 10.1936 1.36449 10.3908 1.26586C10.884 1.01224 11.4757 0.800899 12.1661 0.631822C12.8565 0.448655 13.5892 0.364117 14.3641 0.364117C16.0408 0.364117 17.2666 0.74454 18.0557 1.50538C18.8306 2.26623 19.2251 3.42159 19.2251 4.97146V9.53653H19.2533ZM13.5329 11.6782C13.9978 11.6782 14.4769 11.5936 14.9841 11.4246C15.4913 11.2555 15.9422 10.9455 16.3226 10.5228C16.5481 10.2551 16.7171 9.95922 16.8017 9.62107C16.8862 9.28292 16.9426 8.87431 16.9426 8.39526V7.80349C16.534 7.70487 16.0972 7.62033 15.6463 7.56397C15.1954 7.50761 14.7587 7.47943 14.3219 7.47943C13.3779 7.47943 12.6875 7.6626 12.2225 8.04302C11.7575 8.42344 11.5321 8.95885 11.5321 9.66334C11.5321 10.3256 11.7012 10.8187 12.0534 11.1568C12.3916 11.5091 12.8847 11.6782 13.5329 11.6782ZM24.8469 13.1999C24.5933 13.1999 24.4242 13.1576 24.3115 13.059C24.1988 12.9744 24.1001 12.7772 24.0156 12.5095L20.7045 1.6181C20.62 1.33631 20.5777 1.15314 20.5777 1.05451C20.5777 0.829078 20.6904 0.70227 20.9159 0.70227H22.2967C22.5644 0.70227 22.7475 0.74454 22.8462 0.843168C22.9589 0.927706 23.0434 1.12496 23.128 1.39267L25.495 10.7201L27.693 1.39267C27.7635 1.11087 27.848 0.927706 27.9607 0.843168C28.0735 0.758629 28.2707 0.70227 28.5243 0.70227H29.6515C29.9192 0.70227 30.1024 0.74454 30.2151 0.843168C30.3278 0.927706 30.4264 1.12496 30.4828 1.39267L32.709 10.8328L35.1465 1.39267C35.231 1.11087 35.3297 0.927706 35.4283 0.843168C35.541 0.758629 35.7242 0.70227 35.9778 0.70227H37.2881C37.5136 0.70227 37.6404 0.814988 37.6404 1.05451C37.6404 1.12496 37.6263 1.19541 37.6122 1.27995C37.5981 1.36449 37.5699 1.47721 37.5136 1.63219L34.1179 12.5236C34.0334 12.8053 33.9348 12.9885 33.8221 13.0731C33.7093 13.1576 33.5262 13.214 33.2866 13.214H32.0749C31.8072 13.214 31.6241 13.1717 31.5113 13.0731C31.3986 12.9744 31.3 12.7913 31.2436 12.5095L29.0597 3.42159L26.8899 12.4954C26.8195 12.7772 26.7349 12.9603 26.6222 13.059C26.5095 13.1576 26.3122 13.1999 26.0586 13.1999H24.8469ZM42.9522 13.5803C42.2195 13.5803 41.4869 13.4957 40.7824 13.3267C40.0779 13.1576 39.5284 12.9744 39.1621 12.7631C38.9366 12.6363 38.7816 12.4954 38.7253 12.3686C38.6689 12.2418 38.6407 12.1009 38.6407 11.9741V11.2555C38.6407 10.9596 38.7535 10.8187 38.9648 10.8187C39.0493 10.8187 39.1339 10.8328 39.2184 10.861C39.303 10.8891 39.4298 10.9455 39.5707 11.0019C40.0497 11.2132 40.571 11.3823 41.1205 11.495C41.6841 11.6077 42.2336 11.6641 42.7972 11.6641C43.6849 11.6641 44.3753 11.5091 44.8543 11.1991C45.3334 10.8891 45.587 10.4383 45.587 9.86059C45.587 9.46608 45.4602 9.14202 45.2066 8.87431C44.9529 8.60661 44.4739 8.36708 43.7835 8.14165L41.7405 7.50761C40.7119 7.18355 39.9511 6.70449 39.4861 6.07046C39.0212 5.45051 38.7816 4.76011 38.7816 4.02745C38.7816 3.43568 38.9085 2.91436 39.1621 2.46349C39.4157 2.01262 39.7538 1.6181 40.1765 1.30813C40.5992 0.984065 41.0783 0.74454 41.6419 0.575463C42.2054 0.406386 42.7972 0.335938 43.4172 0.335938C43.7271 0.335938 44.0512 0.350027 44.3612 0.392296C44.6852 0.434566 44.9811 0.490925 45.277 0.547283C45.5588 0.617732 45.8265 0.688181 46.0801 0.772719C46.3337 0.857257 46.531 0.941796 46.6719 1.02633C46.8691 1.13905 47.01 1.25177 47.0946 1.37858C47.1791 1.4913 47.2214 1.64628 47.2214 1.84354V2.50576C47.2214 2.80164 47.1087 2.95663 46.8973 2.95663C46.7846 2.95663 46.6014 2.90027 46.3619 2.78755C45.5588 2.42122 44.6571 2.23805 43.6567 2.23805C42.8536 2.23805 42.2195 2.36486 41.7828 2.63256C41.346 2.90027 41.1205 3.30887 41.1205 3.88655C41.1205 4.28106 41.2614 4.61922 41.5432 4.88692C41.825 5.15463 42.3463 5.42233 43.0931 5.66186L45.0938 6.29589C46.1083 6.61996 46.841 7.07083 47.2777 7.64851C47.7145 8.22619 47.9259 8.8884 47.9259 9.62107C47.9259 10.2269 47.7991 10.7764 47.5595 11.2555C47.3059 11.7345 46.9678 12.1572 46.531 12.4954C46.0942 12.8476 45.5729 13.1012 44.967 13.2844C44.333 13.4817 43.6708 13.5803 42.9522 13.5803Z" fill="#252F3E"/>
<g id="g1863">
<path id="path1859" fill-rule="evenodd" clip-rule="evenodd" d="M45.6168 20.4288C40.9813 23.8526 34.2464 25.6701 28.4555 25.6701C20.3398 25.6701 13.0273 22.669 7.50408 17.6813C7.0673 17.2868 7.46181 16.7514 7.98313 17.0613C13.9572 20.5274 21.3261 22.6268 28.9487 22.6268C34.0914 22.6268 39.7414 21.556 44.9405 19.358C45.7154 19.0057 46.3776 19.8652 45.6168 20.4288Z" fill="#FF9900"/>
<path id="path1861" fill-rule="evenodd" clip-rule="evenodd" d="M47.549 18.2333C46.9573 17.4724 43.6321 17.8669 42.1245 18.0501C41.6736 18.1065 41.6032 17.712 42.0118 17.4161C44.6606 15.5562 49.0144 16.0916 49.5216 16.7116C50.0288 17.3456 49.3807 21.6993 46.9009 23.7846C46.5205 24.1087 46.1542 23.9396 46.3232 23.5169C46.8868 22.122 48.1408 18.98 47.549 18.2333Z" fill="#FF9900"/>
</g>
</g>
</g>
</svg>
