<svg width="54" height="54" viewBox="0 0 54 54" fill="none" xmlns="http://www.w3.org/2000/svg">
<g id="google_bigquery-icon 1">
<path id="Vector" d="M12.2175 49.1022L0.470813 28.756C-0.156937 27.6693 -0.156937 26.3294 0.470813 25.2427L12.2175 4.89731C12.8444 3.81141 14.002 3.14231 15.255 3.14062H38.7593C40.0081 3.14653 41.1598 3.81562 41.7842 4.89731L53.5292 25.2427C54.1569 26.3294 54.1569 27.6693 53.5292 28.756L41.7825 49.1022C41.1556 50.1881 39.998 50.8572 38.745 50.8589H15.2466C13.9953 50.8547 12.8419 50.1856 12.215 49.1022H12.2175Z" fill="#4386FA"/>
<path id="Vector_2" opacity="0.1" d="M34.3376 20.4453C34.3376 20.4453 37.6029 28.2778 33.1513 32.7177C28.6997 37.1575 20.5938 34.3157 20.5938 34.3157L37.0823 50.8498H38.7563C40.0101 50.8482 41.1677 50.1782 41.7938 49.0932L49.5698 35.6286L34.3376 20.4453Z" fill="black"/>
<path id="Vector_3" d="M38.196 36.4779L34.5957 32.8692C34.5565 32.829 34.5116 32.7949 34.4624 32.7679C35.9938 30.7953 36.7155 28.3131 36.4805 25.8269C36.2455 23.3407 35.0715 21.0377 33.1976 19.387C31.3237 17.7363 28.891 16.8621 26.395 16.9426C23.8991 17.0231 21.5277 18.0521 19.764 19.8201C18.0004 21.5881 16.9771 23.962 16.9028 26.4582C16.8284 28.9543 17.7086 31.3849 19.3639 33.2547C21.0192 35.1246 23.3251 36.2929 25.8119 36.5218C28.2986 36.7507 30.7791 36.0229 32.7479 34.4866C32.7736 34.5331 32.8057 34.5757 32.8432 34.6132L36.4519 38.2219C36.5579 38.3278 36.7016 38.3873 36.8515 38.3873C37.0013 38.3873 37.145 38.3278 37.251 38.2219L38.196 37.2769C38.3018 37.1709 38.3613 37.0272 38.3613 36.8774C38.3613 36.7276 38.3018 36.5839 38.196 36.4779ZM26.6982 34.1441C25.2379 34.1442 23.8104 33.7114 22.5962 32.9002C21.382 32.089 20.4356 30.936 19.8767 29.5869C19.3178 28.2379 19.1715 26.7533 19.4563 25.3211C19.7412 23.8889 20.4444 22.5734 21.4769 21.5408C22.5095 20.5083 23.825 19.8051 25.2572 19.5203C26.6894 19.2354 28.1739 19.3817 29.523 19.9406C30.8721 20.4995 32.0251 21.4459 32.8363 22.6601C33.6474 23.8743 34.0803 25.3018 34.0802 26.7621C34.0799 28.7198 33.3021 30.5974 31.9178 31.9817C30.5334 33.366 28.6559 34.1438 26.6982 34.1441ZM21.9791 26.3681V29.4191C22.4491 30.2485 23.1291 30.9403 23.9518 31.423V26.3495L21.9791 26.3681ZM25.6705 23.8385V32.0836C26.3226 32.2038 26.9911 32.2038 27.6432 32.0836V23.8385H25.6705ZM31.3776 29.4123V27.605H29.4066V31.4019C30.2281 30.9205 30.9085 30.2314 31.3793 29.4039L31.3776 29.4123Z" fill="white"/>
</g>
</svg>
