<svg width="52" height="21" viewBox="0 0 52 21" fill="none" xmlns="http://www.w3.org/2000/svg">
<g id="clevertap-logo@logotyp.us 1">
<path id="Vector" d="M10.4539 20.9174C9.6712 20.9174 8.8885 20.8273 8.1359 20.6472C5.51687 20.0466 3.22897 18.4251 1.81409 16.1429C-1.13608 11.3984 0.308901 5.15242 5.06531 2.20962C5.45666 1.96939 5.93832 2.0895 6.17915 2.47987C6.41998 2.87024 6.29957 3.3507 5.90822 3.59093C1.9044 6.0833 0.70025 11.3083 3.16877 15.3021C4.37292 17.2239 6.26946 18.5752 8.46705 19.0857C10.6646 19.5962 12.9826 19.2358 14.9093 18.0347C15.3006 17.7945 15.7823 17.9146 16.0231 18.3049C16.2639 18.6953 16.1435 19.1758 15.7522 19.416C14.1868 20.4069 12.3203 20.9174 10.4539 20.9174Z" fill="#F04444"/>
<path id="Vector_2" d="M17.5226 18.3066C17.9881 18.3066 18.3655 17.9302 18.3655 17.4658C18.3655 17.0014 17.9881 16.625 17.5226 16.625C17.0571 16.625 16.6797 17.0014 16.6797 17.4658C16.6797 17.9302 17.0571 18.3066 17.5226 18.3066Z" fill="#F04444"/>
<g id="Group">
<path id="Vector_3" d="M7.52229 10.4387C7.46208 8.57697 8.93717 7.04551 10.8036 6.98545H10.9842C12.1583 6.95542 13.2119 7.55599 13.8441 8.54694L12.7303 9.20757C12.369 8.607 11.7067 8.24665 11.0143 8.27668C9.87039 8.21662 8.90707 9.08745 8.84686 10.2285V10.4387C8.78665 11.5798 9.65967 12.5407 10.7735 12.6008H10.9842C11.6766 12.6308 12.3389 12.2705 12.7002 11.6699L13.814 12.3305C13.2119 13.3215 12.1282 13.9221 10.9541 13.892C9.08769 13.9521 7.5524 12.4807 7.49219 10.6189C7.52229 10.5288 7.52229 10.4988 7.52229 10.4387Z" fill="black"/>
<path id="Vector_4" d="M14.6562 6.83594H15.8905V13.7425H14.6562V6.83594Z" fill="black"/>
<path id="Vector_5" d="M19.352 12.7487C19.7734 12.7787 20.1648 12.5985 20.4056 12.2682L21.399 12.8388C20.9174 13.4994 20.1347 13.8898 19.3219 13.8597C17.7264 13.8597 16.7329 12.7787 16.7329 11.3674C16.6727 10.0461 17.7264 8.90503 19.081 8.875H19.2617C20.6765 8.875 21.67 9.98606 21.67 11.3674C21.67 11.5475 21.6399 11.6977 21.6098 11.8779H18.0274C18.208 12.5085 18.7198 12.7487 19.352 12.7487ZM20.4357 10.9169C20.3454 10.3464 19.8336 9.95603 19.2617 9.95603C18.6596 9.926 18.1177 10.3164 18.0274 10.9169H20.4357Z" fill="black"/>
<path id="Vector_6" d="M26.7902 9L24.984 13.7445H23.5992L21.793 9.03003H23.1476L24.2916 12.3332L25.4355 9.03003H26.7902V9Z" fill="black"/>
<path id="Vector_7" d="M29.5277 12.7487C29.9492 12.7787 30.3405 12.5985 30.5814 12.2682L31.5748 12.8388C31.0931 13.4994 30.3104 13.8898 29.4976 13.8597C27.9021 13.8597 26.9087 12.7787 26.9087 11.3674C26.8485 10.0461 27.9021 8.90503 29.2568 8.875H29.4374C30.8523 8.875 31.8457 9.98606 31.8457 11.3674C31.8457 11.5475 31.8156 11.6977 31.7855 11.8779H28.2032C28.3838 12.5085 28.8956 12.7487 29.5277 12.7487ZM30.6115 10.9169C30.5212 10.3464 30.0094 9.95603 29.4374 9.95603C28.8354 9.926 28.2935 10.3164 28.2032 10.9169H30.6115Z" fill="black"/>
<path id="Vector_8" d="M40.8768 8.37058H39.0706V13.7457H37.7761V8.37058H36V7.10938H40.8768V8.37058Z" fill="black"/>
<path id="Vector_9" d="M45.5133 8.99738V13.7419H44.2791V13.1714C43.8877 13.6218 43.3158 13.892 42.7438 13.862C41.4794 13.862 40.4258 12.781 40.4258 11.3696C40.4258 9.9583 41.4794 8.87727 42.7438 8.87727C43.3459 8.84724 43.9178 9.1175 44.2791 9.56792V8.99738H45.5133ZM44.3092 11.3696C44.3393 10.679 43.7974 10.0784 43.105 10.0484H42.9846C42.2922 10.0184 41.6901 10.5889 41.6901 11.2796V11.3696C41.66 12.0603 42.2019 12.6609 42.8943 12.6909H42.9846C43.677 12.7209 44.2791 12.1804 44.3092 11.4597V11.3696Z" fill="black"/>
<path id="Vector_10" d="M51.7165 11.3709C51.7165 12.7822 50.6628 13.8632 49.3985 13.8632C48.7964 13.8933 48.2244 13.623 47.8632 13.1726V15.6349H46.6289V9.02863H47.8632V9.59917C48.2244 9.14875 48.7964 8.87849 49.3985 8.90852C50.6628 8.87849 51.7165 9.95952 51.7165 11.3709ZM50.4822 11.3709C50.5123 10.6802 49.9704 10.0796 49.278 10.0496H49.1576C48.4652 10.0196 47.8632 10.5901 47.8632 11.2808V11.3709C47.8331 12.0615 48.3749 12.6621 49.0673 12.6921H49.1576C49.85 12.7221 50.4521 12.1816 50.4822 11.4609V11.3709Z" fill="black"/>
<path id="Vector_11" d="M33.9218 13.7429H32.6875V8.87824H34.3733C35.4571 8.81819 36.3903 9.59893 36.4806 10.68L35.2764 10.8601C35.1861 10.1394 34.6744 10.0794 34.4636 10.1094H33.9218V13.7429Z" fill="black"/>
</g>
</g>
</svg>
