<svg width="46" height="46" viewBox="0 0 46 46" fill="none" xmlns="http://www.w3.org/2000/svg">
<g id="freshdesk-icon (4) 1" clip-path="url(#clip0_697_6994)">
<path id="Vector" d="M22.5579 0.000183042H39.5547C40.3058 -0.00586026 41.0506 0.137797 41.7456 0.422773C42.4405 0.70775 43.0719 1.12834 43.6027 1.66001C44.1335 2.19168 44.5532 2.82378 44.8372 3.51944C45.1213 4.2151 45.264 4.96039 45.2571 5.71183V22.7109C45.2571 35.1785 35.1606 45.2802 22.6993 45.2802H22.5706C19.6074 45.2828 16.6728 44.7011 13.9345 43.5684C11.1962 42.4356 8.70786 40.7741 6.61172 38.6786C4.51558 36.5832 2.85275 34.095 1.71827 31.3563C0.583786 28.6175 -9.40482e-05 25.6819 1.13625e-08 22.7173C1.13625e-08 10.2144 10.0796 0.128948 22.5579 0.000183042Z" fill="#25C16F"/>
<path id="Vector_2" d="M22.5578 10.0859C16.8349 10.0859 12.1953 14.7271 12.1953 20.4536V27.5032C12.2363 29.3901 13.7553 30.9098 15.6412 30.9508H18.5723V22.8528H14.6123V20.5888C14.8528 16.3254 18.3793 12.9902 22.6483 12.9902C26.9173 12.9902 30.4354 16.319 30.6758 20.5888V22.8528H26.6592V30.9565H29.3075V31.0852C29.2792 32.8356 27.8684 34.2478 26.1253 34.269H22.9623C22.7049 34.269 22.422 34.3978 22.422 34.6546C22.4282 34.7959 22.4872 34.9298 22.5872 35.0299C22.6872 35.1299 22.821 35.1889 22.9623 35.1951H26.1444C28.4108 35.181 30.2444 33.3464 30.2586 31.0789V30.8213C31.0156 30.6507 31.6913 30.2258 32.1732 29.6172C32.6551 29.0087 32.914 28.2533 32.9068 27.477V20.5888C33.0355 14.7491 28.4066 10.0923 22.5443 10.0923L22.5578 10.0859Z" fill="white"/>
</g>
<defs>
<clipPath id="clip0_697_6994">
<rect width="45.2571" height="45.28" fill="white"/>
</clipPath>
</defs>
</svg>
