<svg width="34" height="47" viewBox="0 0 34 47" fill="none" xmlns="http://www.w3.org/2000/svg">
<g id="Google_Sheets_Logo 1" clip-path="url(#clip0_697_6957)">
<g id="Mask group">
<mask id="mask0_697_6957" style="mask-type:alpha" maskUnits="userSpaceOnUse" x="0" y="0" width="34" height="47">
<g id="Group">
<path id="Vector" d="M20.8574 0.671875H3.61338C1.93969 0.671875 0.570312 2.07267 0.570312 3.78475V43.2145C0.570312 44.9266 1.93969 46.3274 3.61338 46.3274H29.9866C31.6603 46.3274 33.0296 44.9266 33.0296 43.2145V13.1234L20.8574 0.671875Z" fill="white"/>
</g>
</mask>
<g mask="url(#mask0_697_6957)">
<g id="Group_2">
<path id="Vector_2" d="M20.8574 0.671875H3.61338C1.93969 0.671875 0.570312 2.07267 0.570312 3.78475V43.2145C0.570312 44.9266 1.93969 46.3274 3.61338 46.3274H29.9866C31.6603 46.3274 33.0296 44.9266 33.0296 43.2145V13.1234L25.9291 7.93523L20.8574 0.671875Z" fill="#0F9D58"/>
</g>
</g>
</g>
<g id="Mask group_2">
<mask id="mask1_697_6957" style="mask-type:alpha" maskUnits="userSpaceOnUse" x="0" y="0" width="34" height="47">
<g id="Group_3">
<path id="Vector_3" d="M20.8574 0.671875H3.61338C1.93969 0.671875 0.570312 2.07267 0.570312 3.78475V43.2145C0.570312 44.9266 1.93969 46.3274 3.61338 46.3274H29.9866C31.6603 46.3274 33.0296 44.9266 33.0296 43.2145V13.1234L20.8574 0.671875Z" fill="white"/>
</g>
</mask>
<g mask="url(#mask1_697_6957)">
<g id="Group_4">
<path id="Vector_4" d="M8.68359 22.9844V38.0299H24.9133V22.9844H8.68359ZM15.7841 35.9547H10.7123V33.3606H15.7841V35.9547ZM15.7841 31.8042H10.7123V29.2101H15.7841V31.8042ZM15.7841 27.6537H10.7123V25.0596H15.7841V27.6537ZM22.8846 35.9547H17.8128V33.3606H22.8846V35.9547ZM22.8846 31.8042H17.8128V29.2101H22.8846V31.8042ZM22.8846 27.6537H17.8128V25.0596H22.8846V27.6537Z" fill="#F1F1F1"/>
</g>
</g>
</g>
<g id="Mask group_3">
<mask id="mask2_697_6957" style="mask-type:alpha" maskUnits="userSpaceOnUse" x="0" y="0" width="34" height="47">
<g id="Group_5">
<path id="Vector_5" d="M20.8574 0.671875H3.61338C1.93969 0.671875 0.570312 2.07267 0.570312 3.78475V43.2145C0.570312 44.9266 1.93969 46.3274 3.61338 46.3274H29.9866C31.6603 46.3274 33.0296 44.9266 33.0296 43.2145V13.1234L20.8574 0.671875Z" fill="white"/>
</g>
</mask>
<g mask="url(#mask2_697_6957)">
<g id="Group_6">
<path id="Vector_6" d="M21.7461 12.2109L33.0283 23.7493V13.1215L21.7461 12.2109Z" fill="url(#paint0_linear_697_6957)"/>
</g>
</g>
</g>
<g id="Mask group_4">
<mask id="mask3_697_6957" style="mask-type:alpha" maskUnits="userSpaceOnUse" x="0" y="0" width="34" height="47">
<g id="Group_7">
<path id="Vector_7" d="M20.8574 0.671875H3.61338C1.93969 0.671875 0.570312 2.07267 0.570312 3.78475V43.2145C0.570312 44.9266 1.93969 46.3274 3.61338 46.3274H29.9866C31.6603 46.3274 33.0296 44.9266 33.0296 43.2145V13.1234L20.8574 0.671875Z" fill="white"/>
</g>
</mask>
<g mask="url(#mask3_697_6957)">
<g id="Group_8">
<path id="Vector_8" d="M20.8555 0.671875V10.0105C20.8555 11.7303 22.2172 13.1234 23.8985 13.1234H33.0277L20.8555 0.671875Z" fill="#87CEAC"/>
</g>
</g>
</g>
<g id="Mask group_5">
<mask id="mask4_697_6957" style="mask-type:alpha" maskUnits="userSpaceOnUse" x="0" y="0" width="34" height="47">
<g id="Group_9">
<path id="Vector_9" d="M20.8574 0.671875H3.61338C1.93969 0.671875 0.570312 2.07267 0.570312 3.78475V43.2145C0.570312 44.9266 1.93969 46.3274 3.61338 46.3274H29.9866C31.6603 46.3274 33.0296 44.9266 33.0296 43.2145V13.1234L20.8574 0.671875Z" fill="white"/>
</g>
</mask>
<g mask="url(#mask4_697_6957)">
<g id="Group_10">
<path id="Vector_10" d="M3.61338 0.671875C1.93969 0.671875 0.570312 2.07267 0.570312 3.78475V4.04415C0.570312 2.33207 1.93969 0.931282 3.61338 0.931282H20.8574V0.671875H3.61338Z" fill="white" fill-opacity="0.2"/>
</g>
</g>
</g>
<g id="Mask group_6">
<mask id="mask5_697_6957" style="mask-type:alpha" maskUnits="userSpaceOnUse" x="0" y="0" width="34" height="47">
<g id="Group_11">
<path id="Vector_11" d="M20.8574 0.671875H3.61338C1.93969 0.671875 0.570312 2.07267 0.570312 3.78475V43.2145C0.570312 44.9266 1.93969 46.3274 3.61338 46.3274H29.9866C31.6603 46.3274 33.0296 44.9266 33.0296 43.2145V13.1234L20.8574 0.671875Z" fill="white"/>
</g>
</mask>
<g mask="url(#mask5_697_6957)">
<g id="Group_12">
<path id="Vector_12" d="M29.9866 46.066H3.61338C1.93969 46.066 0.570312 44.6652 0.570312 42.9531V43.2125C0.570312 44.9246 1.93969 46.3254 3.61338 46.3254H29.9866C31.6603 46.3254 33.0296 44.9246 33.0296 43.2125V42.9531C33.0296 44.6652 31.6603 46.066 29.9866 46.066Z" fill="#263238" fill-opacity="0.2"/>
</g>
</g>
</g>
<g id="Mask group_7">
<mask id="mask6_697_6957" style="mask-type:alpha" maskUnits="userSpaceOnUse" x="0" y="0" width="34" height="47">
<g id="Group_13">
<path id="Vector_13" d="M20.8574 0.671875H3.61338C1.93969 0.671875 0.570312 2.07267 0.570312 3.78475V43.2145C0.570312 44.9266 1.93969 46.3274 3.61338 46.3274H29.9866C31.6603 46.3274 33.0296 44.9266 33.0296 43.2145V13.1234L20.8574 0.671875Z" fill="white"/>
</g>
</mask>
<g mask="url(#mask6_697_6957)">
<g id="Group_14">
<path id="Vector_14" d="M23.8985 13.1207C22.2172 13.1207 20.8555 11.7276 20.8555 10.0078V10.2672C20.8555 11.9871 22.2172 13.3801 23.8985 13.3801H33.0277V13.1207H23.8985Z" fill="#263238" fill-opacity="0.1"/>
</g>
</g>
</g>
<path id="Vector_15" d="M20.8574 0.671875H3.61338C1.93969 0.671875 0.570312 2.07267 0.570312 3.78475V43.2145C0.570312 44.9266 1.93969 46.3274 3.61338 46.3274H29.9866C31.6603 46.3274 33.0296 44.9266 33.0296 43.2145V13.1234L20.8574 0.671875Z" fill="url(#paint1_radial_697_6957)"/>
</g>
<defs>
<linearGradient id="paint0_linear_697_6957" x1="27.3878" y1="13.2017" x2="27.3878" y2="23.7509" gradientUnits="userSpaceOnUse">
<stop stop-color="#263238" stop-opacity="0.2"/>
<stop offset="1" stop-color="#263238" stop-opacity="0.02"/>
</linearGradient>
<radialGradient id="paint1_radial_697_6957" cx="0" cy="0" r="1" gradientUnits="userSpaceOnUse" gradientTransform="translate(1.59864 1.57937) scale(52.3403 53.541)">
<stop stop-color="white" stop-opacity="0.1"/>
<stop offset="1" stop-color="white" stop-opacity="0"/>
</radialGradient>
<clipPath id="clip0_697_6957">
<rect width="34" height="47" fill="white"/>
</clipPath>
</defs>
</svg>
