<svg width="93" height="62" viewBox="0 0 93 62" fill="none" xmlns="http://www.w3.org/2000/svg">
<g id="Google_Storage-Logo.wine 2">
<g id="Group">
<path id="Vector" d="M33.3634 49.584L23.8402 33.0886C23.474 32.4545 23.2812 31.7351 23.2812 31.0028C23.2812 30.2705 23.474 29.5511 23.8402 28.9169L33.3634 12.422C33.7296 11.7877 34.2563 11.261 34.8906 10.8948C35.5249 10.5286 36.2444 10.3359 36.9768 10.3359H56.0232C56.7555 10.336 57.475 10.5287 58.1092 10.8949C58.7434 11.2611 59.2701 11.7878 59.6362 12.422L69.1595 28.9169C69.5257 29.5512 69.7185 30.2706 69.7185 31.003C69.7185 31.7353 69.5257 32.4548 69.1595 33.089L59.6362 49.5836C59.2701 50.2178 58.7434 50.7445 58.1092 51.1107C57.475 51.4768 56.7555 51.6696 56.0232 51.6696H36.9768C36.2444 51.6697 35.5248 51.477 34.8905 51.1108C34.2563 50.7446 33.7295 50.2183 33.3634 49.584Z" fill="url(#paint0_linear_697_6997)"/>
</g>
<g id="Group_2">
<g id="Clip path group">
<mask id="mask0_697_6997" style="mask-type:luminance" maskUnits="userSpaceOnUse" x="23" y="10" width="47" height="42">
<g id="c">
<path id="Vector_2" d="M33.3634 49.584L23.8402 33.0886C23.474 32.4545 23.2812 31.7351 23.2812 31.0028C23.2812 30.2705 23.474 29.5511 23.8402 28.9169L33.3634 12.422C33.7295 11.7877 34.2562 11.261 34.8904 10.8949C35.5246 10.5287 36.2441 10.3359 36.9764 10.3359H56.0228C56.7552 10.3359 57.4747 10.5286 58.109 10.8948C58.7433 11.261 59.27 11.7877 59.6362 12.422L69.1595 28.9169C69.5257 29.5512 69.7185 30.2706 69.7185 31.003C69.7185 31.7353 69.5257 32.4548 69.1595 33.089L59.6362 49.5836C59.2701 50.2179 58.7434 50.7446 58.1091 51.1108C57.4748 51.477 56.7552 51.6697 56.0228 51.6696H36.9764C36.2441 51.6697 35.5246 51.4769 34.8904 51.1107C34.2562 50.7445 33.7295 50.2178 33.3634 49.5836V49.584Z" fill="white"/>
</g>
</mask>
<g mask="url(#mask0_697_6997)">
<path id="Vector_3" opacity="0.07" d="M41.1721 27.3313L38.6289 29.8672L40.79 32.0287L38.6503 35.8293L54.8434 52.0227L58.7673 52.0235L66.4305 38.2603L54.2963 26.125L41.1721 27.3313Z" fill="black"/>
</g>
</g>
</g>
<path id="Vector_4" d="M54.0113 26.016H38.9788C38.7368 26.016 38.5391 26.2141 38.5391 26.4564V29.5641C38.5391 29.8057 38.7371 30.0038 38.9788 30.0038H54.0113C54.2533 30.0038 54.4514 29.8057 54.4514 29.5641V26.4557C54.4514 26.2141 54.2537 26.0156 54.0117 26.0156M51.684 28.9092C51.4457 28.9086 51.2174 28.8135 51.0489 28.6449C50.8805 28.4763 50.7858 28.2478 50.7854 28.0095C50.7853 27.8915 50.8085 27.7746 50.8536 27.6655C50.8987 27.5564 50.9649 27.4573 51.0484 27.3739C51.1318 27.2904 51.2309 27.2242 51.34 27.1791C51.4491 27.134 51.566 27.1108 51.684 27.1109C52.181 27.1109 52.5837 27.511 52.5837 28.0095C52.5837 28.1277 52.5605 28.2447 52.5152 28.3538C52.47 28.463 52.4038 28.5622 52.3202 28.6457C52.2367 28.7293 52.1375 28.7955 52.0283 28.8407C51.9192 28.886 51.8022 28.9092 51.684 28.9092ZM54.0113 31.9897L38.9788 31.9904C38.7368 31.9904 38.5391 32.1885 38.5391 32.4308V35.5381C38.5391 35.7797 38.7371 35.9782 38.9788 35.9782H54.0113C54.2533 35.9782 54.4514 35.7797 54.4514 35.5381V32.4301C54.4514 32.1885 54.2533 31.9897 54.0113 31.9897ZM51.684 34.8833C51.4457 34.8827 51.2173 34.7877 51.0488 34.6191C50.8804 34.4504 50.7857 34.2219 50.7854 33.9836C50.7853 33.8655 50.8085 33.7486 50.8536 33.6396C50.8987 33.5305 50.9649 33.4314 51.0484 33.3479C51.1318 33.2645 51.2309 33.1983 51.34 33.1532C51.4491 33.108 51.566 33.0848 51.684 33.0849C51.8051 33.0801 51.9259 33.0997 52.0393 33.1427C52.1526 33.1857 52.256 33.2511 52.3434 33.3351C52.4308 33.419 52.5004 33.5198 52.5479 33.6313C52.5954 33.7428 52.6199 33.8627 52.6199 33.9839C52.6199 34.1051 52.5954 34.2251 52.5479 34.3366C52.5004 34.4481 52.4308 34.5488 52.3434 34.6328C52.256 34.7167 52.1526 34.7822 52.0393 34.8252C51.9259 34.8681 51.8051 34.8882 51.684 34.8833Z" fill="white"/>
</g>
<defs>
<linearGradient id="paint0_linear_697_6997" x1="46.5" y1="10.3363" x2="46.5" y2="51.6054" gradientUnits="userSpaceOnUse">
<stop stop-color="#4387FD"/>
<stop offset="1" stop-color="#4683EA"/>
</linearGradient>
</defs>
</svg>
