<svg width="45" height="37" viewBox="0 0 45 37" fill="none" xmlns="http://www.w3.org/2000/svg">
<g id="https___mariadb.com_wp-content_uploads_2019_11_mariadb-logo-vertical_blue 1" clip-path="url(#clip0_697_7022)">
<path id="Vector" d="M8.15541 30.5312L9.79056 36.9073H8.55621L7.46708 32.3145L5.41371 36.9073H4.37105L2.32929 32.3408L1.20821 36.9073H0L1.62063 30.5312H2.68943L4.89673 35.4681L7.09533 30.5312H8.15541Z" fill="#003545"/>
<path id="Vector_2" d="M14.4516 32.9913V32.249H15.6438V36.9032H14.4516V36.1536C14.1365 36.6924 13.4888 37.0013 12.7003 37.0013C11.052 37.0013 10.1328 35.8301 10.1328 34.4831C10.1328 33.1845 11.0041 32.1406 12.5245 32.1406C13.3915 32.1509 14.1103 32.4437 14.4516 32.9913ZM11.402 34.5461C11.402 35.4026 11.9364 36.1361 12.9704 36.1361C13.968 36.1361 14.5111 35.4201 14.5111 34.5724C14.5111 33.7247 13.9506 33 12.9137 33C11.9204 33 11.4035 33.7233 11.4035 34.5461H11.402Z" fill="#003545"/>
<path id="Vector_3" d="M18.3353 36.901H17.1445V32.2467H18.3353V33.2892C18.4715 32.9557 18.7018 32.6698 18.9976 32.4671C19.2935 32.2643 19.6418 32.1536 19.9995 32.1486C20.2531 32.1451 20.5053 32.1868 20.7445 32.2716L20.4903 33.1501C20.2846 33.095 20.0729 33.0655 19.8601 33.0622C19.0004 33.0622 18.3353 33.7152 18.3353 34.6727V36.901Z" fill="#003545"/>
<path id="Vector_4" d="M21.3402 31.0182C21.3378 30.9338 21.3529 30.8498 21.3844 30.7715C21.4159 30.6932 21.4632 30.6224 21.5232 30.5635C21.5833 30.5046 21.6548 30.4589 21.7333 30.4293C21.8118 30.3997 21.8955 30.3869 21.9791 30.3916C22.0644 30.3888 22.1493 30.4035 22.2287 30.4348C22.3082 30.4662 22.3804 30.5135 22.4412 30.5739C22.5019 30.6343 22.5498 30.7065 22.5819 30.7862C22.6141 30.8658 22.6299 30.9512 22.6282 31.0372C22.6299 31.122 22.614 31.2061 22.5814 31.2843C22.5489 31.3625 22.5005 31.4329 22.4394 31.4911C22.3783 31.5493 22.3057 31.5939 22.2265 31.6222C22.1472 31.6504 22.0629 31.6616 21.9791 31.6551C21.8948 31.6587 21.8107 31.6448 21.7321 31.6142C21.6534 31.5836 21.5818 31.5369 21.5218 31.4772C21.4618 31.4174 21.4147 31.3458 21.3835 31.2668C21.3522 31.1878 21.3375 31.1032 21.3402 31.0182ZM21.3924 32.2465H22.5847V35.6476C22.5847 35.8584 22.6282 36.0092 22.8025 36.0092C22.8791 36.0073 22.9554 35.9985 23.0305 35.9829L23.2149 36.8613C22.9639 36.9611 22.6961 37.0108 22.4264 37.0077C21.9268 37.0077 21.3924 36.8613 21.3924 35.7179V32.2465Z" fill="#003545"/>
<path id="Vector_5" d="M27.9082 32.9913V32.249H29.1048V36.9032H27.9125V36.1536C27.5974 36.6924 26.9497 37.0013 26.1612 37.0013C24.5144 37.0013 23.5938 35.8301 23.5938 34.4831C23.5938 33.1845 24.4651 32.1406 25.9855 32.1406C26.8481 32.1509 27.5669 32.4437 27.9082 32.9913ZM24.8586 34.5461C24.8586 35.4026 25.393 36.1361 26.4269 36.1361C27.426 36.1361 27.9692 35.4201 27.9692 34.5724C27.9692 33.7247 27.4072 33 26.3718 33C25.377 33 24.86 33.7233 24.86 34.5461H24.8586Z" fill="#003545"/>
<path id="Vector_6" d="M30.9297 30.5312H33.7861C36.1866 30.5312 37.3861 31.865 37.3686 33.7185C37.3861 35.6452 36.0617 36.9073 33.9967 36.9073H30.9297V30.5312ZM31.7182 31.0964V36.3509H33.8965C35.8061 36.3509 36.5336 35.0523 36.5336 33.701C36.5336 32.1739 35.6231 31.0964 33.8965 31.0964H31.7182Z" fill="#003545"/>
<path id="Vector_7" d="M42.2398 36.9073H38.6094V30.5312H41.884C43.1358 30.5312 44.328 30.7684 44.3106 32.1827C44.3106 33.1798 43.6963 33.455 43.0487 33.5604C43.9679 33.6395 44.5212 34.231 44.5212 35.1855C44.527 36.6159 43.2825 36.9073 42.2398 36.9073ZM41.9683 33.313C43.2215 33.313 43.5018 32.8269 43.5018 32.2091C43.5018 31.2809 42.9412 31.07 41.9683 31.07H39.366V33.313H41.9683ZM42.0031 33.8518H39.366V36.3685H42.1164C42.8875 36.3685 43.7021 36.1123 43.7021 35.1328C43.7021 34.0026 42.7655 33.8518 42.0031 33.8518Z" fill="#003545"/>
<path id="Vector_8" d="M44.801 0.139667C44.6853 0.0435442 44.5384 -0.00600025 44.3886 0.000580666C43.9777 0.000580666 43.4462 0.281682 43.1601 0.432482L43.0468 0.491044C42.5669 0.725256 42.0445 0.857799 41.5119 0.880487C40.9658 0.898056 40.4953 0.930266 39.8825 0.994685C36.2521 1.37095 34.6329 4.17611 33.0733 6.88903C32.2238 8.36482 31.3466 9.8977 30.1442 11.069C29.8955 11.3122 29.6311 11.5386 29.3528 11.7468C28.1083 12.6794 26.5458 13.3456 25.3303 13.817C24.1598 14.268 22.8819 14.6735 21.6476 15.0659C20.5163 15.4246 19.449 15.7642 18.4673 16.1317C18.0244 16.2972 17.6483 16.4245 17.3157 16.5358C16.4212 16.8286 15.7764 17.0526 14.834 17.7071C14.4666 17.9603 14.0977 18.2341 13.8479 18.4391C13.0998 19.0409 12.4377 19.7439 11.8802 20.5283C11.4009 21.2519 10.8469 21.9222 10.2277 22.5282C10.0287 22.7244 9.67584 22.8211 9.14725 22.8211C8.52862 22.8211 7.77784 22.6922 6.98351 22.5561C6.16448 22.4097 5.31786 22.2706 4.59177 22.2706C4.00219 22.2706 3.55056 22.3672 3.21366 22.5634C3.21366 22.5634 2.64586 22.8972 2.40625 23.3291L2.6415 23.436C3.00631 23.6354 3.34407 23.8814 3.64641 24.168C3.96185 24.4617 4.31321 24.7136 4.69197 24.9176C4.81288 24.9623 4.92283 25.0327 5.01436 25.124C4.91561 25.2704 4.77039 25.4593 4.61791 25.6614C3.78001 26.7667 3.29062 27.4651 3.57089 27.8457C3.70522 27.9161 3.85526 27.9504 4.00655 27.9453C5.83338 27.9453 6.81505 27.4666 8.05666 26.8604C8.4168 26.6847 8.78275 26.5047 9.2184 26.3187C9.94449 26.001 10.7258 25.4944 11.555 24.9586C12.6397 24.2456 13.7739 23.5136 14.8746 23.1607C15.7793 22.8826 16.7215 22.7492 17.6672 22.7654C18.8289 22.7654 20.0516 22.9221 21.2308 23.0743C22.1094 23.1885 23.0199 23.3057 23.913 23.3598C24.26 23.3803 24.581 23.3906 24.8932 23.3906C25.3108 23.3918 25.7282 23.3698 26.1435 23.3247L26.2437 23.2896C26.8696 22.9016 27.1629 22.0685 27.4476 21.2633C27.6305 20.745 27.7845 20.2794 28.0284 19.9837C28.0428 19.9692 28.0584 19.956 28.0749 19.9442C28.0863 19.9377 28.0996 19.9354 28.1125 19.9375C28.1254 19.9397 28.1372 19.9461 28.1461 19.9559C28.1461 19.9559 28.1461 19.9632 28.1461 19.9793C28.0008 23.1285 26.7432 25.1284 25.4711 26.9058L24.6216 27.8238C24.6216 27.8238 25.811 27.8238 26.4877 27.5603C28.9564 26.8165 30.8195 25.1767 32.1758 22.5619C32.5103 21.8907 32.8094 21.2021 33.0718 20.499C33.0951 20.4405 33.3085 20.3321 33.2882 20.6352C33.2809 20.7245 33.2751 20.8241 33.2679 20.928C33.2679 20.9895 33.2679 21.0525 33.2563 21.1154C33.2214 21.5546 33.1183 22.4829 33.1183 22.4829L33.8807 22.0714C35.7191 20.9002 37.1365 18.5372 38.2111 14.8609C38.6583 13.3295 38.9865 11.8083 39.2755 10.4687C39.6211 8.85821 39.9188 7.47759 40.2601 6.94174C40.7959 6.10136 41.6135 5.5333 42.405 4.98135C42.5124 4.90668 42.6213 4.83494 42.7273 4.75588C43.7221 4.05166 44.711 3.23911 44.9288 1.72379V1.69012C45.0871 0.559856 44.9535 0.271434 44.801 0.139667Z" fill="#003545"/>
</g>
<defs>
<clipPath id="clip0_697_7022">
<rect width="45" height="37" fill="white"/>
</clipPath>
</defs>
</svg>
