<svg width="39" height="39" viewBox="0 0 39 39" fill="none" xmlns="http://www.w3.org/2000/svg">
<g id="mongodb-icon (1) 3" clip-path="url(#clip0_697_6878)">
<path id="Vector" d="M19.3774 0.109375L20.4182 2.06425C20.6522 2.425 20.9057 2.74431 21.2043 3.04169C22.0757 3.91309 22.9032 4.82594 23.6466 5.80337C25.4102 8.119 26.5997 10.6906 27.4491 13.4717C27.9586 15.1707 28.2352 16.9135 28.256 18.6758C28.3413 23.9445 26.5351 28.4685 22.8935 32.2283C22.2987 32.8231 21.6625 33.3739 20.98 33.8639C20.6193 33.8639 20.4486 33.5872 20.3 33.3325C20.0233 32.8657 19.8539 32.3331 19.7686 31.803C19.6406 31.1656 19.5565 30.5282 19.598 29.87V29.5727C19.5687 29.5093 19.2506 0.259281 19.3774 0.109375Z" fill="#599636"/>
<path id="Vector_2" d="M19.3796 0.0419287C19.3369 -0.0433838 19.2943 0.0212099 19.2516 0.0626474C19.2723 0.48921 19.1236 0.86946 18.8908 1.23265C18.6349 1.5934 18.2961 1.87005 17.9561 2.16743C16.067 3.80299 14.5801 5.77858 13.3894 7.98818C11.805 10.9619 10.9885 14.149 10.7569 17.5042C10.6509 18.7144 11.1396 22.9849 11.5211 24.2171C12.5619 27.4882 14.4314 30.2291 16.8531 32.6081C17.4478 33.181 18.084 33.7123 18.7422 34.223C18.9335 34.223 18.9542 34.0524 18.9981 33.9256C19.082 33.6544 19.1459 33.3774 19.1894 33.0969L19.616 29.9111L19.3796 0.0419287Z" fill="#6CAC48"/>
<path id="Vector_3" d="M20.4204 35.1528C20.4631 34.6652 20.6971 34.2606 20.9518 33.8572C20.6958 33.7512 20.5057 33.5403 20.357 33.3051C20.2291 33.0931 20.123 32.8383 20.0402 32.6043C19.7428 31.7122 19.6794 30.7762 19.5941 29.8646V29.3125C19.4881 29.3978 19.4661 30.1193 19.4661 30.2266C19.4041 31.1901 19.2762 32.1482 19.0834 33.0943C19.0201 33.477 18.9774 33.8584 18.7422 34.1985C18.7422 34.2411 18.7422 34.2838 18.7629 34.3472C19.1456 35.4733 19.2504 36.6201 19.315 37.7889V38.2155C19.315 38.7249 19.2943 38.6177 19.7172 38.7883C19.8878 38.8517 20.0779 38.8736 20.2486 39.0003C20.3765 39.0003 20.3973 38.8943 20.3973 38.809L20.3339 38.1082V36.1533C20.3132 35.8121 20.3765 35.4733 20.4192 35.154L20.4204 35.1528Z" fill="#C2BFBF"/>
</g>
<defs>
<clipPath id="clip0_697_6878">
<rect width="39" height="39" fill="white"/>
</clipPath>
</defs>
</svg>
