<svg width="39" height="41" viewBox="0 0 39 41" fill="none" xmlns="http://www.w3.org/2000/svg">
<g id="Group">
<path id="Vector" d="M24.41 19.1719L16.2122 21.8488L9.08015 24.9965L7.08487 25.5232C6.57672 26.0066 6.0439 26.4961 5.46763 26.9918C4.8356 27.5371 4.24695 28.0329 3.79454 28.3922C3.29267 28.7888 2.5491 29.5323 2.17115 30.0032C1.60725 30.7096 1.16112 31.4593 0.969021 32.0356C0.628192 33.0767 0.795576 34.13 1.45237 35.1029C2.29507 36.3421 3.97433 37.6062 5.93232 38.4675C6.93 38.9075 8.6092 39.4713 9.87322 39.7873C11.9737 40.3202 16.0386 40.8965 18.2755 40.9833C18.7277 41.0019 19.335 41.0019 19.3598 40.9833C19.4094 40.9522 19.7564 40.2893 20.1592 39.4652C21.5348 36.6582 22.5262 34.0247 23.0653 31.7754C23.3875 30.4123 23.6415 28.5967 23.8087 26.4467C23.8522 25.8456 23.8707 23.8318 23.8335 23.1501C23.7777 22.0348 23.6786 21.1302 23.5238 20.2441C23.499 20.1139 23.4927 19.9961 23.5052 19.99C23.5299 19.9714 23.6042 19.9466 24.6143 19.6553L24.4099 19.1721V19.1719H24.41V19.1719ZM22.5387 20.2687C22.613 20.2687 22.8112 22.171 22.8608 23.3731C22.8733 23.6272 22.867 23.7945 22.8546 23.7945C22.8051 23.7945 21.8074 23.2059 21.095 22.7597C20.4753 22.3693 19.298 21.5886 19.1121 21.4399C19.05 21.3965 19.0562 21.3903 19.5644 21.2168C20.4256 20.9255 22.4705 20.2687 22.5387 20.2687ZM18.3623 21.6443C18.4181 21.6443 18.5605 21.7248 18.9014 21.9355C20.1778 22.7349 21.9128 23.7015 22.6564 24.0238C22.8856 24.1229 22.9103 24.0857 22.3837 24.4451C21.256 25.2135 19.8493 25.9694 18.1267 26.7316C17.8231 26.8679 17.5691 26.9732 17.5629 26.9732C17.5506 26.9732 17.5877 26.8184 17.6372 26.6324C18.0524 25.0894 18.2879 23.528 18.3003 22.2763C18.3065 21.6566 18.3065 21.6566 18.3623 21.6381C18.3498 21.6443 18.356 21.6443 18.3623 21.6443ZM17.501 21.9727C17.5381 22.0098 17.5134 23.3979 17.4638 23.7758C17.3522 24.6805 17.1787 25.5232 16.8938 26.4713C16.8256 26.7004 16.7636 26.8927 16.7513 26.905C16.7264 26.936 15.8775 26.1057 15.5987 25.7835C15.1153 25.2258 14.7374 24.6681 14.4586 24.1228C14.3161 23.844 14.093 23.2988 14.1116 23.2801C14.2107 23.212 17.4762 21.948 17.501 21.9727ZM13.4485 23.5652C13.4547 23.5652 13.4609 23.5652 13.4672 23.5713C13.4795 23.5837 13.523 23.6829 13.5601 23.7944C13.7583 24.3335 14.2044 25.1266 14.5887 25.6348C15.0101 26.1925 15.5616 26.7873 16.02 27.1776C16.1688 27.3016 16.305 27.4192 16.3236 27.4379C16.3608 27.4751 16.3732 27.4688 15.3631 27.8531C14.1922 28.2992 12.9156 28.7453 11.4532 29.2162C11.1039 29.3288 10.7549 29.4424 10.4062 29.557C10.3503 29.5757 10.369 29.5446 10.5301 29.2906C11.255 28.1567 12.3579 25.9322 12.9776 24.3583C13.083 24.0856 13.1883 23.813 13.2069 23.7511C13.2317 23.6643 13.2626 23.6333 13.3432 23.5899C13.3865 23.5776 13.43 23.5652 13.4485 23.5652ZM12.2094 24.0795C12.2279 24.0919 11.9119 24.7549 11.6021 25.3621C11.001 26.5332 10.3442 27.6858 9.4643 29.0862C9.3156 29.3278 9.17313 29.5509 9.1545 29.5757C9.12356 29.6191 9.1111 29.6066 9.01198 29.4146C8.8013 28.9994 8.62775 28.4665 8.53482 27.977C8.44185 27.4936 8.46048 26.651 8.56586 26.1305C8.64632 25.7463 8.6402 25.7525 8.82608 25.6596C9.6192 25.2568 12.1846 24.0547 12.2094 24.0795ZM22.8981 24.5133V24.7735C22.8981 26.1553 22.7494 28.0514 22.5324 29.4332C22.4952 29.6748 22.4641 29.8731 22.458 29.8793C22.458 29.8793 22.2784 29.8298 22.0677 29.7678C21.1383 29.4765 20.1283 29.049 19.2173 28.5471C18.6162 28.2187 17.7426 27.6796 17.7674 27.6548C17.7735 27.6486 18.0338 27.5123 18.3374 27.3512C19.552 26.7192 20.7168 26.0376 21.7269 25.3622C22.1049 25.1081 22.6748 24.6992 22.7989 24.5876L22.8981 24.5133ZM7.531 26.3473C7.55577 26.3473 7.54957 26.3969 7.51239 26.6199C7.48759 26.7811 7.45665 27.0785 7.44433 27.2829C7.39464 28.1876 7.54346 28.8569 7.98958 29.7739C8.1135 30.028 8.21271 30.2386 8.20642 30.2448C8.16302 30.282 4.06111 31.4842 2.77217 31.8373C2.38802 31.9426 2.05348 32.0356 2.02857 32.0417C1.98528 32.0542 1.97905 32.048 1.99762 31.9425C2.14012 31.0318 2.83415 29.842 3.80074 28.8382C4.4452 28.169 4.95953 27.7787 5.8394 27.2767C6.47142 26.9174 7.44425 26.3783 7.5186 26.3535C7.51865 26.3473 7.52482 26.3473 7.531 26.3473ZM17.1974 28.0761C17.2035 28.0699 17.3522 28.1505 17.5319 28.2558C18.858 29.0242 20.7045 29.7368 22.2783 30.1023L22.4209 30.1334L22.2225 30.2448C21.3985 30.7034 18.6906 31.831 15.9209 32.8659C15.5181 33.0145 15.1216 33.1633 15.0471 33.1943C14.9728 33.2252 14.9046 33.2439 14.9046 33.2377C14.9046 33.2314 15.0162 33.0145 15.1586 32.7482C15.9332 31.2982 16.714 29.5323 17.1105 28.3054C17.1602 28.1876 17.1911 28.0823 17.1974 28.0761ZM16.2122 28.3983C16.2184 28.4046 16.1688 28.5347 16.1068 28.6834C15.5678 29.9908 14.8613 31.416 13.9566 33.0147C13.7274 33.4237 13.5353 33.7521 13.529 33.7521C13.5229 33.7521 13.337 33.6405 13.1139 33.5042C11.8002 32.6986 10.6353 31.7072 9.87325 30.7468L9.76167 30.6105L10.3255 30.4555C12.3455 29.9041 14.0619 29.3093 15.7659 28.5781C16.0076 28.4789 16.206 28.3983 16.2122 28.3983ZM22.3342 30.5361C22.3403 30.6786 22.0243 31.9551 21.764 32.8783C21.5472 33.6528 21.3612 34.2601 21.0205 35.332C20.8718 35.803 20.7418 36.1933 20.7355 36.1933C20.7293 36.1933 20.6921 36.1871 20.655 36.1748C18.8147 35.8401 17.1664 35.3754 15.6173 34.7558C15.1835 34.5823 14.5639 34.3034 14.5267 34.2725C14.5144 34.2599 14.8862 34.0866 15.3571 33.8821C18.1764 32.649 21.1011 31.2486 22.1049 30.6476C22.2226 30.5732 22.3155 30.5361 22.3342 30.5361ZM8.20025 31.0194C8.21265 31.0318 7.4257 32.1658 6.3227 33.7086C5.93855 34.2477 5.49243 34.8797 5.32516 35.1152C5.15783 35.3507 4.90381 35.7225 4.76128 35.9455L4.50091 36.3483L4.22206 36.1129C3.89364 35.8402 3.32365 35.2577 3.0696 34.9355C2.53667 34.2726 2.17735 33.5724 2.03482 32.9342C1.96665 32.6367 1.96665 32.4879 2.02854 32.4694C2.12146 32.4447 3.77591 32.0543 5.3251 31.6948C6.1864 31.4966 7.18394 31.2611 7.54334 31.1744C7.90277 31.0875 8.19408 31.0194 8.20025 31.0194ZM8.99335 31.3231L9.19156 31.5461C10.084 32.5437 10.9948 33.2812 12.0977 33.9255C12.2961 34.0371 12.4448 34.1362 12.4323 34.1425C12.389 34.1734 8.60294 35.5179 6.8494 36.1252C5.86423 36.4722 5.05245 36.751 5.04633 36.751C5.04016 36.751 4.98436 36.7139 4.92229 36.6705L4.81083 36.5899L4.9905 36.3297C5.57292 35.487 6.30421 34.5638 7.89666 32.6429L8.99335 31.3231ZM13.9381 34.8611C13.9442 34.855 14.2169 34.9541 14.5514 35.0781C15.3571 35.3817 15.9952 35.5737 16.8504 35.7906C17.9038 36.0571 19.428 36.3174 20.3266 36.3917C20.4629 36.404 20.5373 36.4165 20.5125 36.4351C20.469 36.4599 19.5582 36.7635 18.889 36.9742C17.8231 37.3087 14.5701 38.2692 11.9181 39.0314C11.4286 39.1739 11.0072 39.2916 10.9824 39.2978C10.9205 39.3102 10.7159 39.2544 10.7159 39.2296C10.7159 39.2173 10.8646 39.0252 11.0444 38.8145C11.9366 37.7487 12.8228 36.559 13.5601 35.4313C13.7645 35.1214 13.9381 34.8673 13.9381 34.8611ZM12.8475 34.8922C12.8536 34.8984 12.4137 35.6047 11.6455 36.8192C11.317 37.3335 10.9514 37.9159 10.8212 38.1204C10.6973 38.3187 10.5114 38.6286 10.4062 38.802L10.2264 39.1181L10.1335 39.0933C9.91037 39.0313 8.34272 38.4798 7.92754 38.3125C7.41322 38.108 6.88034 37.8602 6.48374 37.6495C5.9881 37.3831 5.3685 36.9865 5.41802 36.9741C5.43039 36.968 6.27932 36.7386 7.30166 36.4598C10.0157 35.7224 11.5214 35.2949 12.5067 34.9851C12.6864 34.9293 12.8413 34.8859 12.8475 34.8922ZM20.562 36.7014H20.5681C20.5929 36.7635 19.5892 39.5518 19.2235 40.4317C19.143 40.6299 19.1121 40.6796 19.0687 40.6733C18.9633 40.6672 17.5072 40.4627 16.621 40.3325C15.0782 40.0971 12.4881 39.6447 11.8375 39.496L11.6888 39.4651L12.612 39.2543C14.5949 38.8081 15.5491 38.5665 16.5157 38.2691C17.7364 37.8973 18.9448 37.4326 20.1654 36.8626C20.3575 36.7758 20.5186 36.7076 20.562 36.7014Z" fill="url(#paint0_linear_697_6927)"/>
<path id="Vector_2" d="M15.9593 0.0628174C15.823 0.0443301 13.6232 0.837453 12.2043 1.41364C10.2895 2.19448 8.8025 2.93809 7.88539 3.58237C7.54465 3.82413 7.11701 4.25163 7.04895 4.4189C7.02418 4.48087 7.01172 4.55522 7.01172 4.62957L7.84207 5.41652L9.81867 6.04855L14.5217 6.89127L19.9001 7.81455L19.9559 7.34983C19.9374 7.34983 19.9249 7.34365 19.9065 7.34365L19.1999 7.23207L19.0575 6.97805C18.3263 5.68917 17.5208 4.0905 17.0499 3.01232C16.6844 2.17579 16.3373 1.20926 16.1452 0.515226C16.0398 0.0938769 16.0275 0.0691035 15.9594 0.0629316V0.0627886H15.9593V0.0628174ZM15.86 0.37893H15.8664C15.8725 0.385044 15.8973 0.558659 15.9221 0.763019C16.0274 1.63063 16.2196 2.46702 16.5232 3.37172C16.7524 4.05335 16.7524 4.01621 16.486 3.9356C15.854 3.76216 13.0223 3.27263 10.9713 2.9876C10.6428 2.9442 10.364 2.90085 10.364 2.89468C10.3392 2.86991 11.8449 2.0829 12.5079 1.77316C13.3568 1.3827 15.6866 0.409875 15.86 0.37893ZM9.88676 3.15488L10.1285 3.23534C11.4421 3.68155 14.7447 4.3136 16.5665 4.4623C16.7709 4.4809 16.9445 4.49953 16.9506 4.49953C16.9568 4.5057 16.7834 4.59865 16.5602 4.70395C15.6804 5.1439 14.7138 5.683 14.0445 6.09818C13.8463 6.22205 13.6665 6.32126 13.6418 6.32126C13.617 6.32126 13.4869 6.29645 13.3506 6.27785L13.1028 6.24062L12.4832 5.63334C11.3926 4.57382 10.5375 3.75593 10.2091 3.44604L9.88676 3.15488ZM9.639 3.34692L10.5127 4.43753C10.9897 5.03858 11.4731 5.6272 11.5785 5.75726C11.6837 5.88748 11.7705 5.99286 11.7644 5.99903C11.7396 6.0176 10.5004 5.7759 9.84347 5.62725C9.16807 5.4723 8.88925 5.39795 8.4741 5.26788L8.13327 5.1563V5.06949C8.13944 4.65432 8.6662 4.03472 9.55845 3.40275L9.639 3.34692ZM17.0622 4.83407C17.087 4.83407 17.1179 4.88982 17.1923 5.05712C17.403 5.52182 18.0599 6.77355 18.2209 7.01517C18.2706 7.09581 18.3572 7.10198 17.4836 6.95945C15.3831 6.61857 14.7076 6.50716 14.7076 6.49475C14.7076 6.48858 14.7696 6.44518 14.8501 6.40178C15.5008 6.04246 16.1575 5.58388 16.74 5.09435C16.8826 4.9766 17.0127 4.86508 17.0374 4.84645C17.0436 4.83407 17.056 4.8279 17.0622 4.83407Z" fill="url(#paint1_linear_697_6927)"/>
<path id="Vector_3" d="M7.08972 4.32812C7.08972 4.32812 6.95348 4.54509 7.08358 4.86731C7.16421 5.06553 7.39963 5.30715 7.66602 5.55506C7.66602 5.55506 10.4234 8.24425 10.758 8.62848C12.2823 10.3882 12.9453 12.1232 13.0073 14.515C13.0445 16.0517 12.7532 17.4025 12.0282 18.9702C10.7394 21.7834 8.01914 24.8878 3.82422 28.333L4.43776 28.1285C4.8343 27.831 5.3734 27.5151 6.63742 26.8211C9.55587 25.2223 12.84 23.7538 16.8677 22.2419C22.6673 20.0607 32.2036 17.5078 37.6316 16.6776L38.1955 16.5908L38.1087 16.4544C37.6131 15.686 37.2722 15.209 36.8632 14.7009C35.6736 13.2261 34.2299 12.0303 32.4638 11.0388C30.0349 9.68189 26.8932 8.62231 22.9152 7.83536C22.1655 7.68658 20.5172 7.40158 19.1788 7.19711C16.3409 6.75727 14.5067 6.45359 12.4868 6.10659C11.7619 5.98261 10.6774 5.79676 9.95862 5.64189C9.58684 5.56126 8.87433 5.39399 8.31665 5.20191C7.87053 5.02833 7.22604 4.85483 7.08972 4.32812ZM8.68848 5.87728C8.6946 5.87117 8.79372 5.90823 8.92393 5.95163C9.15938 6.0321 9.46298 6.12507 9.82246 6.22428C10.0944 6.29909 10.3671 6.37137 10.6404 6.44113C11.0121 6.53402 11.3219 6.6208 11.3281 6.6208C11.3715 6.66421 11.9974 8.66549 12.2081 9.43387C12.2885 9.72518 12.3506 9.97297 12.3444 9.97297C12.338 9.97926 12.27 9.87385 12.1894 9.73135C11.4644 8.45487 10.3181 7.15985 8.99205 6.11882C8.81864 5.99501 8.68848 5.88346 8.68848 5.87728ZM11.7371 6.71998C11.7681 6.71998 11.9044 6.73858 12.0716 6.77573C13.125 7.01118 15.015 7.37058 16.2232 7.57508C16.4277 7.60603 16.5889 7.64329 16.5889 7.6556C16.5889 7.66806 16.5144 7.71135 16.4214 7.76098C16.2171 7.86628 15.3929 8.35575 15.1203 8.54168C14.4324 9.0002 13.8129 9.4959 13.3667 9.94202C13.187 10.1218 13.032 10.2705 13.032 10.2705C13.032 10.2705 12.995 10.1652 12.9639 10.0349C12.7409 9.17364 12.2761 7.89717 11.8548 6.99875C11.7866 6.85628 11.7308 6.72613 11.7308 6.71378C11.7308 6.72615 11.7308 6.71998 11.7371 6.71998ZM17.1031 7.74238C17.1403 7.75473 17.2023 7.96543 17.3261 8.43012C17.5555 9.32866 17.6608 10.3325 17.6236 11.2681C17.6112 11.5284 17.5988 11.77 17.5864 11.801L17.5678 11.8629L17.2456 11.7576C16.5826 11.547 15.5045 11.2309 14.5813 10.9707C14.0545 10.8282 13.627 10.698 13.627 10.6857C13.627 10.6484 14.3954 9.8801 14.7238 9.58891C15.3495 9.03735 17.0473 7.72375 17.1031 7.74238ZM17.5307 7.80427C17.5493 7.78579 20.096 8.22562 21.2547 8.44873C22.1161 8.616 23.3677 8.87628 23.442 8.90731C23.4792 8.91965 23.349 8.994 22.9338 9.17987C21.298 9.91731 20.0835 10.5802 18.8753 11.3858C18.5593 11.5965 18.2928 11.77 18.2867 11.77C18.2805 11.77 18.2743 11.5903 18.2743 11.3734C18.2743 10.1962 18.0388 9.00643 17.605 8.00263C17.5616 7.90348 17.5245 7.81056 17.5307 7.80427ZM24.1174 9.10558C24.136 9.12415 24.0554 9.62611 23.981 9.92348C23.758 10.8468 23.157 12.2162 22.4197 13.505C22.2894 13.7343 22.1718 13.9202 22.1593 13.9264C22.147 13.9325 21.9797 13.8395 21.7875 13.728C21.0688 13.3067 20.2509 12.9101 19.3586 12.5383C19.1108 12.433 18.8939 12.3462 18.8877 12.3339C18.8442 12.2967 20.8395 10.9769 21.8929 10.3448C22.7294 9.83676 24.0926 9.08075 24.1174 9.10558ZM24.5883 9.1799C24.6441 9.1799 25.7718 9.48976 26.3604 9.66326C27.8166 10.097 29.4896 10.7104 30.5801 11.2061L31.0324 11.4107L30.7165 11.485C28.0521 12.0984 25.7718 12.8049 23.5721 13.6971C23.3924 13.7715 23.2312 13.8334 23.219 13.8334C23.2065 13.8334 23.2685 13.6909 23.3491 13.5174C24.0121 12.1108 24.4396 10.6423 24.5449 9.39055C24.5512 9.2728 24.5696 9.1799 24.5883 9.1799ZM13.3605 11.7576C13.3791 11.739 14.2404 11.9435 14.7051 12.0735C15.4115 12.2719 16.911 12.7737 16.911 12.811C16.911 12.8171 16.7437 12.9597 16.5455 13.1332C15.7338 13.8086 14.953 14.5211 14.0173 15.4258C13.7384 15.6924 13.503 15.9092 13.4907 15.9092C13.4782 15.9092 13.4721 15.8719 13.4782 15.8224C13.6207 14.7814 13.5898 13.443 13.3915 12.086C13.3729 11.9124 13.3543 11.7638 13.3605 11.7576ZM31.4601 11.7763C31.4724 11.7886 31.0635 12.433 30.8033 12.7985C30.4316 13.3314 29.8861 14.0379 28.653 15.587C28.0026 16.4049 27.2713 17.3282 27.0297 17.638C26.7817 17.9478 26.5773 18.208 26.5711 18.208C26.5649 18.208 26.4845 18.0965 26.3976 17.9602C25.7036 16.9192 24.8733 16.0083 23.888 15.1904C23.7022 15.0354 23.4978 14.8681 23.4296 14.8186C23.3614 14.769 23.3056 14.7195 23.3056 14.7133C23.3056 14.6947 24.3589 14.2423 25.1584 13.9202C26.5588 13.3501 28.4671 12.6685 29.8985 12.2285C30.6483 11.9931 31.4477 11.7638 31.4601 11.7763ZM31.9372 11.9001C31.9619 11.894 32.1107 11.9683 32.2904 12.0735C33.7962 12.9348 35.2708 14.0441 36.4358 15.1842C36.7642 15.5065 37.5759 16.3492 37.5634 16.3553C37.5634 16.3553 37.2784 16.3801 36.9439 16.4049C34.3352 16.6032 30.9954 17.1546 27.7857 17.9291C27.5688 17.9786 27.3768 18.022 27.3643 18.022C27.352 18.022 27.5936 17.7804 27.8973 17.4892C29.7809 15.6737 30.6423 14.5274 31.6584 12.4825C31.8009 12.179 31.9249 11.9187 31.9372 11.9001C31.931 11.9001 31.931 11.9001 31.9372 11.9001ZM18.1379 13.313C18.2247 13.3314 19.0302 13.7096 19.6374 14.0131C20.1951 14.2918 21.0317 14.7381 21.075 14.7752C21.0812 14.7814 20.7837 14.9363 20.4183 15.116C19.2533 15.6985 18.2557 16.2499 17.2146 16.8819C16.9172 17.0617 16.6694 17.2105 16.6632 17.2105C16.6384 17.2105 16.6446 17.1855 16.8119 16.8819C17.3696 15.8658 17.8157 14.6513 18.0698 13.4678C18.0945 13.3749 18.1193 13.313 18.1379 13.313ZM17.3323 13.4616C17.3509 13.4802 17.1403 14.2423 17.0102 14.6575C16.7561 15.4445 16.3285 16.4297 15.9135 17.1732C15.8142 17.3466 15.6655 17.6007 15.585 17.7432L15.4301 17.9911L15.0831 17.6566C14.6804 17.2661 14.3519 17.0245 13.9306 16.8076C13.7632 16.7209 13.6332 16.6465 13.6332 16.6342C13.6332 16.5846 14.6927 15.6242 15.5045 14.9302C16.0869 14.4282 17.3138 13.443 17.3323 13.4616ZM22.2586 15.4879L22.5622 15.6861C23.256 16.1385 24.0739 16.7395 24.6999 17.2661C25.053 17.5573 25.7346 18.1709 25.871 18.3196L25.9452 18.4002L25.4435 18.5427C22.6055 19.3295 20.412 20.0297 17.8528 20.9716C17.5678 21.0769 17.3261 21.1637 17.3075 21.1637C17.2705 21.1637 17.2394 21.1946 17.8777 20.6059C19.5136 19.1004 20.9634 17.4396 22.0416 15.8224L22.2586 15.4879ZM20.9635 15.8101C20.9758 15.8224 20.127 17.0183 19.6188 17.6937C19.0116 18.4993 17.9334 19.85 17.1898 20.7298C16.8801 21.0955 16.6137 21.3991 16.6012 21.4053C16.5826 21.4115 16.5764 21.3186 16.5764 21.176C16.5764 20.4262 16.3844 19.6269 16.0497 18.9453C15.9072 18.6603 15.8824 18.5921 15.9135 18.5612C16.0312 18.4558 17.8343 17.4272 18.9744 16.8138C19.7427 16.4049 20.9447 15.7977 20.9635 15.8101ZM13.1312 17.7309C13.1498 17.7309 13.2924 17.8052 13.4535 17.892C13.85 18.1089 14.2032 18.3505 14.5192 18.6108C14.5316 18.6232 14.3705 18.7534 14.1599 18.9082C13.5712 19.3295 12.6789 20.005 12.1585 20.4202C11.6131 20.8539 11.5946 20.8663 11.6565 20.7734C12.0655 20.1475 12.2699 19.7943 12.4869 19.342C12.6789 18.9393 12.871 18.4621 13.0073 18.047C13.0568 17.8673 13.1189 17.7309 13.1312 17.7309ZM15.2195 19.3667C15.2503 19.3606 15.2876 19.4163 15.4548 19.6642C15.8081 20.1908 16.0807 20.8973 16.149 21.4673L16.1612 21.5913L15.3124 21.9197C13.7942 22.5083 12.3939 23.0908 11.4458 23.5245C11.1794 23.6485 10.7147 23.8715 10.4111 24.0203C10.1074 24.1751 9.85958 24.2929 9.85958 24.2867C9.85958 24.2805 10.0516 24.138 10.2871 23.9645C12.1399 22.6199 13.7447 21.1451 14.9468 19.6704C15.0769 19.5155 15.1947 19.3729 15.207 19.3668L15.2195 19.3667ZM14.259 19.6022C14.2838 19.627 13.5775 20.4263 13.0941 20.9158C11.8982 22.1366 10.7147 23.0908 9.24613 24.0203C9.06026 24.138 8.89299 24.2433 8.87436 24.2558C8.83095 24.2805 8.8867 24.2185 9.53115 23.5183C9.94016 23.0784 10.2499 22.7066 10.6031 22.2481C10.8386 21.9446 10.882 21.9012 11.2228 21.6594C12.1337 21.0026 14.2342 19.5774 14.259 19.6022Z" fill="url(#paint2_radial_697_6927)"/>
</g>
<defs>
<linearGradient id="paint0_linear_697_6927" x1="6.96441" y1="36.9479" x2="9.92874" y2="35.1963" gradientUnits="userSpaceOnUse">
<stop stop-color="#909CA9"/>
<stop offset="1" stop-color="#EDEDEE"/>
</linearGradient>
<linearGradient id="paint1_linear_697_6927" x1="7.03346" y1="3.92656" x2="9.41863" y2="3.92656" gradientUnits="userSpaceOnUse">
<stop stop-color="#939FAB"/>
<stop offset="1" stop-color="#DCDEE1"/>
</linearGradient>
<radialGradient id="paint2_radial_697_6927" cx="0" cy="0" r="1" gradientUnits="userSpaceOnUse" gradientTransform="translate(19.0666 14.8617) rotate(-171.457) scale(3.07515 6.15182)">
<stop stop-color="#EE352C"/>
<stop offset="1" stop-color="#A91D22"/>
</radialGradient>
</defs>
</svg>
