<svg width="42" height="42" viewBox="0 0 42 42" fill="none" xmlns="http://www.w3.org/2000/svg">
<g clip-path="url(#clip0_697_6925)">
<path fill-rule="evenodd" clip-rule="evenodd" d="M38.6877 32.7119C36.4034 32.6483 34.6313 32.8825 33.146 33.5073C32.7183 33.679 32.032 33.679 31.9756 34.2173C32.2042 34.4432 32.2317 34.8128 32.4321 35.1259C32.7746 35.694 33.3752 36.4595 33.9174 36.8565L35.7452 38.1627C36.8592 38.8435 38.116 39.2411 39.2012 39.9226C39.8298 40.3202 40.4579 40.8311 41.0866 41.2574C41.4067 41.4846 41.6007 41.8542 42.0008 41.9955V41.9096C41.8011 41.6551 41.7435 41.2861 41.5443 41.001L40.6865 40.1783C39.8587 39.0713 38.8298 38.1054 37.7158 37.3114C36.8016 36.6866 34.8028 35.8353 34.4315 34.7855L34.3752 34.7219C35.0026 34.6582 35.7452 34.4375 36.3458 34.2669C37.3176 34.0124 38.2024 34.0684 39.2012 33.8133L40.5731 33.4156V33.1611C40.059 32.6502 39.6877 31.9688 39.1455 31.4865C37.6889 30.2376 36.0884 29.0166 34.4315 27.9948C33.5461 27.4272 32.4033 27.0576 31.4609 26.5759C31.1171 26.4054 30.5467 26.3202 30.3469 26.0364C29.8315 25.4129 29.5466 24.5889 29.1753 23.8502L26.8334 18.911C26.3193 17.8039 26.0043 16.6969 25.3769 15.6751C22.4344 10.8491 19.2346 7.92552 14.3216 5.05794C13.2652 4.46177 12.0085 4.20536 10.6723 3.8936L8.53015 3.77907C8.07239 3.58056 7.61592 3.04102 7.21578 2.78525C5.5877 1.76343 1.38851 -0.450725 0.188095 2.46712C-0.583369 4.31225 1.33088 6.12875 1.98071 7.06594C2.46727 7.71874 3.09469 8.45679 3.43849 9.19484C3.63055 9.67712 3.69458 10.1887 3.89497 10.6996C4.35144 11.9485 4.78039 13.34 5.38028 14.5044C5.70039 15.1005 6.0365 15.726 6.43664 16.2649C6.6652 16.583 7.06533 16.7191 7.15048 17.2301C6.75034 17.7982 6.72281 18.6489 6.49426 19.3596C5.46542 22.5676 5.86556 26.5416 7.32206 28.9033C7.77982 29.6128 8.85859 31.1748 10.3221 30.578C11.6077 30.067 11.3209 28.4491 11.6922 27.0296C11.7786 26.6892 11.721 26.4621 11.8919 26.2343V26.2979L13.0635 28.6539C13.949 30.0448 15.4919 31.4929 16.7768 32.4587C17.4619 32.9696 18.0048 33.8502 18.8614 34.162V34.0761H18.805C18.6335 33.8216 18.3761 33.707 18.1475 33.5085C17.6334 32.9976 17.0624 32.3728 16.6622 31.8053C15.4631 30.2159 14.4067 28.4554 13.4637 26.6389C13.0059 25.759 12.6058 24.7938 12.2357 23.9139C12.0629 23.5728 12.0629 23.0613 11.778 22.892C11.349 23.5156 10.7216 24.0564 10.406 24.8224C9.86309 26.0428 9.80675 27.5475 9.607 29.1089C9.49176 29.1375 9.54298 29.1089 9.49177 29.1725C8.57881 28.946 8.26382 28.0081 7.92131 27.2141C7.06469 25.1985 6.92128 21.9625 7.66393 19.6344C7.86368 19.0383 8.72158 17.1645 8.37906 16.597C8.2062 16.0574 7.6364 15.7457 7.32141 15.3194C6.95009 14.7799 6.55123 14.0991 6.29386 13.5029C5.60883 11.9123 5.26631 10.153 4.52302 8.56304C4.17922 7.82499 3.57998 7.05831 3.09405 6.37752C2.55115 5.61084 1.95254 5.0713 1.52359 4.16337C1.38082 3.84524 1.18107 3.34006 1.40963 2.99903C1.46597 2.77189 1.58121 2.6809 1.80849 2.63C2.17982 2.31188 3.23746 2.71526 3.60878 2.8845C4.66515 3.31079 5.55057 3.70781 6.43599 4.30334C6.83613 4.58711 7.26508 5.12665 7.77918 5.26917H8.3797C9.29393 5.46768 10.3215 5.3328 11.1775 5.5873C12.6916 6.07085 14.0623 6.77963 15.2915 7.54695C19.033 9.90299 22.1188 13.2528 24.2034 17.2561C24.5459 17.9089 24.6887 18.5051 25.0036 19.1865C25.6042 20.578 26.3468 21.9968 26.9454 23.3603C27.546 24.6945 28.117 26.058 28.9736 27.1651C29.4026 27.7613 31.1158 28.073 31.8866 28.3854C32.4584 28.6399 33.3431 28.869 33.8585 29.1807C34.8291 29.7769 35.8003 30.4583 36.7139 31.1111C37.1704 31.4509 38.5993 32.161 38.6845 32.7272L38.6877 32.7119ZM9.55771 8.04322C9.16305 8.03975 8.76963 8.08745 8.38739 8.18511V8.24873H8.44372C8.67228 8.70302 9.07242 9.01542 9.35796 9.41307L10.0155 10.7759L10.0718 10.7123C10.4719 10.4285 10.6723 9.97425 10.6723 9.29346C10.5007 9.09495 10.4726 8.8958 10.3298 8.69729C10.1582 8.41352 9.78691 8.271 9.55771 8.0445V8.04322Z" fill="#00678C"/>
</g>
<defs>
<clipPath id="clip0_697_6925">
<rect width="42" height="42" fill="white"/>
</clipPath>
</defs>
</svg>
