<svg width="23" height="23" viewBox="0 0 23 23" fill="none" xmlns="http://www.w3.org/2000/svg">
<circle cx="11.5" cy="11.5" r="11.5" fill="white"/>
<path d="M13.3143 15.3737C13.2116 15.3737 13.1089 15.3359 13.0278 15.2548C12.871 15.098 12.871 14.8384 13.0278 14.6816L16.0232 11.6862L13.0278 8.69074C12.871 8.53394 12.871 8.2744 13.0278 8.1176C13.1846 7.9608 13.4441 7.9608 13.6009 8.1176L16.8829 11.3996C17.0397 11.5564 17.0397 11.8159 16.8829 11.9728L13.6009 15.2548C13.5198 15.3359 13.4171 15.3737 13.3143 15.3737Z" fill="#132255"/>
<path d="M16.5054 12.0923H7.40552C7.18384 12.0923 7 11.9085 7 11.6868C7 11.4651 7.18384 11.2812 7.40552 11.2812H16.5054C16.7271 11.2812 16.911 11.4651 16.911 11.6868C16.911 11.9085 16.7271 12.0923 16.5054 12.0923Z" fill="#132255"/>
</svg>
