<svg width="55" height="19" viewBox="0 0 55 19" fill="none" xmlns="http://www.w3.org/2000/svg">
<g id="oracle-1 1" clip-path="url(#clip0_697_6931)">
<g id="Group">
<path id="Vector" fill-rule="evenodd" clip-rule="evenodd" d="M0 -18H55V37H0V-18Z" fill="white"/>
<path id="Vector_2" fill-rule="evenodd" clip-rule="evenodd" d="M39.2803 6.19851H38.1875V12.8893H43.3218L44.0174 11.7962H39.2803V6.19851ZM24.2936 6.52978L20.2858 12.8896H21.6109L22.8199 10.9685H25.4036L26.0827 9.87562H23.499L24.9068 7.67283L28.2027 12.8899H29.5275L25.4863 6.51295C25.2378 6.09893 24.5753 6.09893 24.2936 6.52978ZM32.061 7.28963H36.6569L37.3346 6.19737L32.0274 6.20051C30.181 6.20051 28.9657 7.69737 28.9657 9.54377C28.9657 11.3907 30.1812 12.8876 32.0274 12.8876L36.5168 12.8822L37.2196 11.7982H32.0607C30.8158 11.7982 30.0879 10.789 30.0879 9.54377C30.0882 8.29886 30.8161 7.28963 32.061 7.28963ZM8.60737 6.20051H3.87052C2.02412 6.20051 0.808594 7.69737 0.808594 9.54406C0.808594 11.3907 2.02412 12.8876 3.87052 12.8876H8.60737C10.4538 12.8876 11.6693 11.3907 11.6693 9.54406C11.6693 7.69737 10.4538 6.20051 8.60737 6.20051ZM8.60737 11.7982H3.87052C2.62561 11.7982 1.89772 10.789 1.89772 9.54406C1.89772 8.29914 2.62561 7.28963 3.87052 7.28963H8.60737C9.85228 7.28963 10.5802 8.29914 10.5802 9.54406C10.5802 10.789 9.85228 11.7982 8.60737 11.7982ZM47.1415 7.28963H51.7374L52.4157 6.19737L47.1084 6.20051C45.2615 6.20051 44.0462 7.69737 44.0462 9.54377C44.0462 11.3907 45.2618 12.8876 47.1084 12.8876L51.5973 12.8822L52.3001 11.7982H47.1413C46.0784 11.7982 45.3982 11.0635 45.2204 10.0739H51.0084L51.7041 8.98081H45.2204C45.4099 8.01209 46.0938 7.28963 47.1415 7.28963ZM17.8984 10.1709C18.4249 10.1709 18.9298 9.9618 19.3021 9.58952C19.6744 9.21725 19.8835 8.71234 19.8835 8.18586C19.8835 7.65939 19.6744 7.15448 19.3021 6.78221C18.9298 6.40993 18.4249 6.20079 17.8984 6.20079L12.3253 6.19851V12.8893H13.5508V7.28991H17.8984C18.1361 7.28991 18.3639 7.38431 18.532 7.55233C18.7 7.72036 18.7944 7.94824 18.7944 8.18586C18.7944 8.42349 18.7 8.65137 18.532 8.8194C18.3639 8.98742 18.1361 9.08182 17.8984 9.08182H14.4122L18.345 12.8819H19.9272L17.1118 10.1735L17.8984 10.1709ZM53.5878 6.11719C53.2591 6.11719 52.9815 6.36999 52.9815 6.71268C52.9815 7.05851 53.2591 7.3116 53.5878 7.3116C53.9134 7.3116 54.1913 7.05879 54.1913 6.71268C54.1913 6.36971 53.9131 6.11719 53.5878 6.11719ZM53.5878 7.21173C53.3148 7.21173 53.1013 7.00001 53.1013 6.7124C53.1013 6.42963 53.3148 6.21648 53.5878 6.21648C53.858 6.21648 54.0709 6.42991 54.0709 6.7124C54.0709 7.00001 53.858 7.21173 53.5878 7.21173Z" fill="#CF402D"/>
<path id="Vector_3" fill-rule="evenodd" clip-rule="evenodd" d="M53.6827 6.75296C53.7838 6.7404 53.8611 6.68648 53.8611 6.56321C53.8611 6.42739 53.7809 6.36719 53.618 6.36719H53.3555V7.05598H53.4596V6.75752H53.58L53.7618 7.05598H53.8782L53.6827 6.75296ZM53.4596 6.66907V6.45564H53.6023C53.6748 6.45564 53.7521 6.47133 53.7521 6.55665C53.7521 6.66251 53.673 6.66879 53.5843 6.66879L53.4596 6.66907Z" fill="#CF402D"/>
</g>
</g>
<defs>
<clipPath id="clip0_697_6931">
<rect width="55" height="19" fill="white"/>
</clipPath>
</defs>
</svg>
