<svg width="37" height="37" viewBox="0 0 37 37" fill="none" xmlns="http://www.w3.org/2000/svg">
<g clip-path="url(#clip0_697_6910)">
<path d="M27.4349 26.9289C27.6705 24.9676 27.5996 24.6814 29.0594 24.998L29.4309 25.0312C30.5539 25.0818 32.0223 24.8506 32.8996 24.4502C34.7568 23.5888 35.8582 22.1493 34.027 22.5279C29.85 23.3893 29.5465 21.9744 29.5465 21.9744C33.959 15.4271 35.8047 7.11657 34.2105 5.08301C29.8688 -0.466987 22.3517 2.1577 22.226 2.22708L22.1855 2.2343C21.3617 2.06087 20.4511 1.95969 19.3961 1.94524C17.5056 1.91633 16.0718 2.44098 14.9821 3.26626C14.9821 3.26626 1.5739 -2.25773 2.19683 10.2139C2.3298 12.8675 5.99801 30.3037 10.3773 25.0283C11.9802 23.1003 13.5266 21.4714 13.5266 21.4714C14.2927 21.9816 15.2133 22.2418 16.1773 22.1478L16.2525 22.0842C16.2303 22.334 16.2405 22.5857 16.2828 22.8329C15.1555 24.0932 15.4879 24.3143 13.2332 24.7783C10.9525 25.248 12.2938 26.0849 13.1668 26.3045C14.2276 26.5705 16.6818 26.9463 18.341 24.6251L18.2745 24.8896C18.7168 25.2437 18.6864 27.4333 18.7514 28.9972C18.8165 30.561 18.9191 32.0222 19.2385 32.8822C19.5579 33.7421 19.9323 35.9607 22.8952 35.3392C25.371 34.8088 27.2643 34.0442 27.4378 26.9419" fill="black"/>
<path d="M27.4349 26.9289C27.6705 24.9676 27.5996 24.6815 29.0594 24.998L29.4309 25.0312C30.5539 25.0818 32.0223 24.8506 32.8996 24.4502C34.7568 23.5888 35.8582 22.1493 34.027 22.5279C29.85 23.3893 29.5465 21.9744 29.5465 21.9744C33.959 15.4271 35.8047 7.11657 34.2105 5.08301C29.8688 -0.466987 22.3517 2.1577 22.226 2.22708L22.1855 2.2343C21.3617 2.06087 20.4511 1.95969 19.3961 1.94524C17.5056 1.91633 16.0718 2.44098 14.9821 3.26626C14.9821 3.26626 1.5739 -2.25773 2.19683 10.2139C2.3298 12.8675 5.99801 30.3037 10.3773 25.0283C11.9802 23.1003 13.5266 21.4714 13.5266 21.4714C14.2927 21.9816 15.2133 22.2418 16.1773 22.1478L16.2525 22.0842C16.2303 22.334 16.2405 22.5857 16.2828 22.8329C15.1555 24.0932 15.4879 24.3143 13.2332 24.7783C10.9525 25.248 12.2938 26.0849 13.1668 26.3045C14.2276 26.5705 16.6818 26.9463 18.341 24.6251L18.2745 24.8896C18.7168 25.2437 18.6864 27.4333 18.7514 28.9972C18.8165 30.561 18.9191 32.0222 19.2385 32.8822C19.5579 33.7421 19.9323 35.9607 22.8952 35.3392C25.371 34.8088 27.2643 34.0442 27.4378 26.9419" stroke="black" stroke-width="5.3725"/>
<path d="M34.0163 22.543C29.8394 23.4044 29.5359 21.9895 29.5359 21.9895C33.9484 15.4422 35.7941 7.13164 34.2013 5.09809C29.8596 -0.451915 22.3426 2.17422 22.2168 2.24215L22.1763 2.24937C21.2582 2.06515 20.3247 1.96788 19.3883 1.95887C17.4979 1.92996 16.0641 2.45461 14.9743 3.27988C14.9743 3.27988 1.56474 -2.2441 2.18912 10.2275C2.32208 12.8811 5.99029 30.3173 10.3696 25.042C11.9826 23.1023 13.529 21.4735 13.529 21.4735C14.2951 21.9837 15.2157 22.2438 16.1797 22.1499L16.2549 22.0863C16.2328 22.3361 16.243 22.5877 16.2852 22.835C15.1579 24.0953 15.4903 24.3164 13.2356 24.7804C10.9549 25.2501 12.2962 26.0869 13.1692 26.3066C14.23 26.5725 16.6842 26.9483 18.3434 24.6271L18.2769 24.8916C18.7192 25.2457 19.0285 27.194 18.9764 28.9602C18.9244 30.7264 18.8897 31.9375 19.2366 32.8857C19.5835 33.8338 19.9303 35.9642 22.8932 35.3427C25.369 34.8123 26.651 33.4349 26.8317 31.1426C26.9589 29.5123 27.2451 29.7522 27.2653 28.2954L27.4965 27.6045C27.761 25.3932 27.5399 24.6806 29.0647 25.013L29.4361 25.0463C30.5592 25.0969 32.029 24.8656 32.8904 24.4653C34.7477 23.6039 35.8476 22.1643 34.0163 22.543Z" fill="#336791"/>
<path d="M18.52 23.7976C18.4043 27.9109 18.5489 32.0532 18.9507 33.0476C19.3525 34.0419 20.2153 36.0105 23.1796 35.3774C25.6555 34.847 26.5573 33.8194 26.9476 31.5517L27.8625 24.3005M14.9674 3.1773C14.9674 3.1773 1.5491 -2.30911 2.17348 10.1625C2.30645 12.8161 5.97465 30.2523 10.3539 24.9769C11.9525 23.0503 13.3978 21.5429 13.3978 21.5429M22.2142 2.1757C21.7517 2.32023 29.6778 -0.722154 34.1843 5.03453C35.7741 7.06808 33.9313 15.3786 29.5188 21.9259" stroke="white" stroke-width="1.79" stroke-linecap="round" stroke-linejoin="round"/>
<path d="M29.5202 21.9222C29.5202 21.9222 29.8093 23.3387 34.0007 22.4744C35.8319 22.0957 34.7291 23.5352 32.8734 24.3966C31.35 25.1048 27.9333 25.2855 27.8769 24.3099C27.7324 21.7878 29.6749 22.5539 29.5347 21.9222C29.4075 21.3528 28.5374 20.7949 27.9651 19.4016C27.4636 18.1876 21.0854 8.8653 29.7341 10.2485C30.0521 10.1834 27.4795 2.01018 19.3857 1.89166C11.292 1.77315 11.5478 11.8426 11.5478 11.8426" stroke="white" stroke-width="1.79" stroke-linecap="round" stroke-linejoin="bevel"/>
<path d="M16.2555 22.7898C15.1282 24.0501 15.4606 24.2712 13.2059 24.7352C10.9252 25.2049 12.2665 26.0418 13.1394 26.2614C14.2003 26.5274 16.6544 26.9032 18.3137 24.5805C18.8195 23.8723 18.3108 22.745 17.617 22.4588C17.2817 22.3201 16.8337 22.1466 16.2584 22.7912L16.2555 22.7898Z" stroke="white" stroke-width="1.79" stroke-linejoin="round"/>
<path d="M16.1833 22.7671C16.0677 22.0257 16.4262 21.1455 16.8092 20.1135C17.3844 18.5671 18.7112 17.0206 17.6503 12.1108C16.8598 8.4542 11.5511 11.3492 11.5511 11.8449C11.5511 12.3406 11.791 14.3597 11.4644 16.7084C11.0351 19.7753 13.4156 22.3682 16.1559 22.1037" stroke="white" stroke-width="1.79" stroke-linecap="round" stroke-linejoin="round"/>
<path d="M14.9192 11.7703C14.8947 11.9394 15.23 12.3918 15.665 12.4525C16.1001 12.5132 16.4715 12.1605 16.4961 11.99C16.5206 11.8194 16.1853 11.6344 15.7503 11.5737C15.3153 11.513 14.9409 11.6026 14.9192 11.7703Z" fill="white" stroke="white" stroke-width="0.5975"/>
<path d="M28.1638 11.4265C28.1869 11.5956 27.853 12.048 27.418 12.1087C26.983 12.1694 26.6086 11.8168 26.5869 11.6462C26.5653 11.4757 26.8977 11.2907 27.3327 11.23C27.7678 11.1693 28.1421 11.2589 28.1638 11.4265Z" fill="white" stroke="white" stroke-width="0.2975"/>
<path d="M29.7184 10.25C29.7907 11.5797 29.4322 12.483 29.386 13.898C29.3195 15.9532 30.3659 18.3062 28.7891 20.662" stroke="white" stroke-width="1.79" stroke-linecap="round" stroke-linejoin="round"/>
</g>
<defs>
<clipPath id="clip0_697_6910">
<rect width="37" height="37" fill="white"/>
</clipPath>
</defs>
</svg>
