<svg width="34" height="34" viewBox="0 0 34 34" fill="none" xmlns="http://www.w3.org/2000/svg">
<g id="scylladb-icon (1) 1" clip-path="url(#clip0_697_6936)">
<g id="Group">
<g id="Group_2">
<g id="Vector">
<path d="M10.8148 31.3786C11.0127 32.4174 10.3696 33.4068 9.33075 33.6541C8.29192 33.852 7.30256 33.2089 7.05521 32.17C7.05521 32.17 3.54297 15.6971 3.54297 12.3333C3.54297 5.30879 9.13288 0.3125 16.9983 0.3125C24.8638 0.3125 30.4537 5.25932 30.4537 12.2838C30.4537 15.6477 26.9415 32.1206 26.9415 32.1206C26.7436 33.1594 25.7542 33.852 24.7154 33.6541C23.6765 33.4562 22.984 32.4669 23.1819 31.428" fill="#57D1E5"/>
<path d="M10.8148 31.3786C11.0127 32.4174 10.3696 33.4068 9.33075 33.6541C8.29192 33.852 7.30256 33.2089 7.05521 32.17C7.05521 32.17 3.54297 15.6971 3.54297 12.3333C3.54297 5.30879 9.13288 0.3125 16.9983 0.3125C24.8638 0.3125 30.4537 5.25932 30.4537 12.2838C30.4537 15.6477 26.9415 32.1206 26.9415 32.1206C26.7436 33.1594 25.7542 33.852 24.7154 33.6541C23.6765 33.4562 22.984 32.4669 23.1819 31.428" stroke="#3B2D55" stroke-width="1.17327" stroke-linecap="round" stroke-linejoin="round"/>
</g>
<path id="Vector_2" d="M26.0999 26.6797L25.16 32.0223C25.0116 33.0611 24.0222 33.8031 22.9834 33.6547C21.9446 33.5063 21.2025 32.5169 21.3509 31.4781" fill="#57D1E5"/>
</g>
<path id="Vector_3" d="M26.2976 26.6797L25.8524 29.4994L25.605 30.8845L25.5061 31.6265L25.3577 32.3685C25.0114 33.5558 23.7747 34.1989 22.5875 33.8526C22.0928 33.7042 21.697 33.4074 21.4002 33.0116C21.1034 32.5664 20.955 31.9728 21.054 31.4287C21.054 31.2802 21.2518 31.1318 21.4002 31.1813C21.5486 31.1813 21.697 31.3792 21.6476 31.5276C21.5486 32.3685 22.0928 33.1106 22.9338 33.259C23.7252 33.4074 24.5662 32.9622 24.8135 32.1707C24.863 32.0223 24.9125 31.7255 24.962 31.5276L25.1104 30.835L25.3577 29.4499L25.9018 26.6797C25.925 26.6343 25.9605 26.5963 26.0042 26.57C26.048 26.5438 26.0982 26.5304 26.1492 26.5313C26.2481 26.5313 26.2976 26.6302 26.2976 26.6797Z" fill="#3B2D55"/>
<path id="Vector_4" d="M12.4466 17.0338C15.7524 17.0338 18.4323 14.3539 18.4323 11.0482C18.4323 7.74237 15.7524 5.0625 12.4466 5.0625C9.14081 5.0625 6.46094 7.74237 6.46094 11.0482C6.46094 14.3539 9.14081 17.0338 12.4466 17.0338Z" fill="white" stroke="#3B2D55" stroke-width="1.17327" stroke-linejoin="round"/>
<path id="Vector_5" d="M13.6837 7.08918C12.6449 7.28706 12.447 9.5626 13.0406 10.2057C13.4364 10.6014 14.2773 10.7498 14.2773 11.0466C14.2773 11.3435 13.4364 11.4919 13.0406 11.8876C12.3976 12.5307 12.6449 14.8062 13.6837 15.0041C14.9204 15.2514 16.8002 13.7674 16.8002 11.0466C16.8002 8.32589 14.9204 6.84184 13.6837 7.08918Z" fill="#3B2D55"/>
<g id="Group_3">
<g id="Vector_6">
<path d="M9.57812 19.1094C9.776 19.7525 10.4191 20.7418 11.26 20.544C11.6558 20.445 11.9031 19.9009 11.9031 19.1094" fill="white"/>
<path d="M9.57812 19.1094C9.776 19.7525 10.4191 20.7418 11.26 20.544C11.6558 20.445 11.9031 19.9009 11.9031 19.1094" stroke="#3B2D55" stroke-width="0.977725" stroke-linecap="round" stroke-linejoin="round"/>
</g>
<g id="Vector_7">
<path d="M14.9219 18.716C15.1197 19.5569 15.3176 20.1505 15.9607 20.1505C16.6038 20.1505 17.3953 19.3096 17.1974 17.875" fill="white"/>
<path d="M14.9219 18.716C15.1197 19.5569 15.3176 20.1505 15.9607 20.1505C16.6038 20.1505 17.3953 19.3096 17.1974 17.875" stroke="#3B2D55" stroke-width="1.17327" stroke-linecap="round" stroke-linejoin="round"/>
</g>
</g>
<path id="Vector_8" d="M8.34011 18.6685C12.347 19.2621 16.4034 18.2728 19.7178 15.9972C19.8662 15.9478 20.0641 15.9972 20.1136 16.1456C20.163 16.2446 20.163 16.393 20.0641 16.4919C16.6013 18.8664 12.3965 19.8063 8.24117 19.2127C8.09277 19.1632 8.0433 19.0148 8.09277 18.8664C8.19171 18.718 8.24117 18.6685 8.34011 18.6685ZM20.2125 16.9371C20.1561 16.6664 20.0158 16.4203 19.8115 16.2338C19.6073 16.0473 19.3495 15.9299 19.0747 15.8983C18.9263 15.9478 18.7284 15.8488 18.7284 15.651C18.679 15.5026 18.7779 15.3047 18.9758 15.3047H19.1737C19.9651 15.4531 20.5588 16.0962 20.6577 16.8877C20.6577 16.9866 20.5588 17.0855 20.4598 17.0855C20.3114 17.135 20.2125 17.0361 20.2125 16.9371Z" fill="#3B2D55"/>
<path id="Vector_9" d="M12.6448 31.4781C12.7932 32.5169 12.1006 33.5063 11.0123 33.6547C9.97351 33.8031 8.98415 33.1106 8.83574 32.0223L7.94531 26.6797" fill="#57D1E5"/>
<path id="Vector_10" d="M12.9923 31.4312C13.1407 32.6679 12.2503 33.7562 11.0631 33.9046C9.97476 34.053 8.98539 33.3605 8.68858 32.3711L8.54018 31.6291L8.24337 29.5514C7.99603 28.562 7.84762 27.6221 7.69922 26.6822C7.69922 26.5833 7.79816 26.4844 7.89709 26.4844C7.99603 26.4844 8.09496 26.5338 8.09496 26.6328L8.63912 29.403L9.08433 31.4807L9.23273 32.1238C9.48008 32.9152 10.2716 33.4099 11.1125 33.2121C11.904 33.0142 12.4482 32.2722 12.3492 31.4807C12.3492 31.3323 12.4482 31.1344 12.5966 31.1344C12.7944 31.0849 12.9429 31.2333 12.9923 31.4312Z" fill="#3B2D55"/>
<path id="Vector_11" d="M15.4144 31.5744C15.4639 32.6133 14.6724 33.5531 13.5841 33.6026C12.5947 33.6521 11.7043 32.9101 11.6053 31.9207L11.0117 26.5781" fill="#57D1E5"/>
<path id="Vector_12" d="M15.7632 31.577C15.8127 32.8137 14.8728 33.8525 13.6361 33.902C12.5478 33.9515 11.6079 33.2589 11.3606 32.2201C11.3111 31.9727 11.2616 31.7254 11.2616 31.478L11.2122 30.7855L11.0637 29.4004L10.8164 26.5807C10.8164 26.4817 10.9153 26.3828 11.0143 26.3828C11.1132 26.3828 11.2122 26.4323 11.2122 26.5312L11.8058 30.736L11.9047 31.4286C11.9542 31.6759 11.9542 31.9233 12.0036 32.0717C12.2015 32.8632 12.993 33.4073 13.7845 33.2589C14.1757 33.1848 14.5285 32.976 14.7815 32.6687C15.0346 32.3614 15.1719 31.9751 15.1696 31.577C15.1696 31.4286 15.318 31.2802 15.5159 31.2802C15.6148 31.3296 15.7138 31.4286 15.7632 31.577Z" fill="#3B2D55"/>
<path id="Vector_13" d="M22.9853 26.5312L22.3916 31.9233C22.2927 32.9621 21.4023 33.7536 20.314 33.6547C19.2751 33.5557 18.4836 32.6653 18.5826 31.577" fill="#57D1E5"/>
<path id="Vector_14" d="M23.232 26.5287L22.9846 29.3484L22.8362 30.7336L22.7868 31.4261C22.7868 31.6734 22.7373 31.9208 22.6878 32.1681C22.5394 32.7123 22.2426 33.1575 21.7479 33.5038C20.7091 34.1963 19.3735 33.949 18.6809 32.9102C18.3841 32.5144 18.2852 32.0197 18.2852 31.525C18.3346 31.3766 18.483 31.2282 18.6314 31.2777C18.7798 31.2777 18.8788 31.4261 18.8788 31.5745C18.8293 32.4155 19.4229 33.108 20.2639 33.2564C21.0554 33.3554 21.8469 32.8607 22.0447 32.0692L22.1437 31.4261L22.4405 29.3484L22.8362 26.5287C22.8857 26.4298 22.9846 26.3309 23.0836 26.3803C23.133 26.3803 23.1825 26.4298 23.232 26.5287Z" fill="#3B2D55"/>
<path id="Vector_15" d="M19.0772 26.3359L18.9288 31.728C18.9288 32.7668 18.0878 33.6572 16.9995 33.6572C15.9607 33.6572 15.0703 32.8163 15.0703 31.728L14.9219 26.3359" fill="#57D1E5"/>
<path id="Vector_16" d="M19.2737 26.3802L19.2243 30.5355V31.5743C19.2243 31.9701 19.1748 32.3658 18.9769 32.7121C18.4328 33.8004 17.0477 34.2456 15.9594 33.652C15.3657 33.3552 14.9205 32.7616 14.8216 32.1185C14.7721 31.9206 14.7721 31.7227 14.7721 31.5249V30.486L14.7227 26.3307C14.7227 26.2317 14.8216 26.1328 14.9205 26.1328C15.0195 26.1328 15.1184 26.2317 15.1184 26.3307L15.3657 31.5249C15.3657 31.6733 15.3657 31.8217 15.4152 31.9701L15.5636 32.3658C16.0088 33.1573 16.9487 33.4541 17.7402 33.0089C18.037 32.8605 18.2349 32.6132 18.3833 32.3658L18.5317 31.9701C18.5812 31.8217 18.5812 31.6733 18.5812 31.5249L18.8285 26.3307C18.8285 26.2317 18.9275 26.1328 19.0264 26.1328C19.2243 26.1328 19.2737 26.2317 19.2737 26.3802Z" fill="#3B2D55"/>
</g>
</g>
<defs>
<clipPath id="clip0_697_6936">
<rect width="34" height="34" fill="white"/>
</clipPath>
</defs>
</svg>
