<svg width="109" height="34" viewBox="0 0 109 34" fill="none" xmlns="http://www.w3.org/2000/svg">
<g clip-path="url(#clip0_561_3550)">
<path d="M14.29 12.1669V15.7725H22.9913C22.7603 17.7671 22.0673 19.3014 20.9892 20.2987C19.7572 21.5261 17.7551 22.907 14.29 22.907C8.97677 22.907 4.81861 18.611 4.81861 13.3176C4.81861 8.02431 8.89977 3.72828 14.29 3.72828C17.1391 3.72828 19.2952 4.879 20.8352 6.33659L23.3763 3.805C21.2203 1.73369 18.2941 0.122681 14.29 0.122681C6.97469 0.122681 0.814453 6.02973 0.814453 13.3176C0.814453 20.6056 6.97469 26.5126 14.29 26.5126C18.2171 26.5126 21.2203 25.2084 23.5303 22.8303C25.9174 20.4521 26.6875 17.0767 26.6875 14.3916C26.6875 13.5478 26.6105 12.7806 26.5335 12.1669H14.29Z" fill="white"/>
<path d="M37.47 9.17542C32.7729 9.17542 28.8457 12.781 28.8457 17.6908C28.8457 22.6005 32.6959 26.2061 37.47 26.2061C42.2442 26.2061 46.0944 22.6772 46.0944 17.7675C46.0944 12.781 42.2442 9.17542 37.47 9.17542ZM37.47 22.9074C34.8519 22.9074 32.6188 20.7594 32.6188 17.7675C32.6188 14.6989 34.8519 12.6276 37.47 12.6276C40.0881 12.6276 42.3212 14.6989 42.3212 17.7675C42.3212 20.7594 40.0881 22.9074 37.47 22.9074Z" fill="white"/>
<path d="M79.5864 11.0933H79.4323C78.5853 10.096 76.9682 9.17542 74.8892 9.17542C70.577 9.17542 66.8809 12.8577 66.8809 17.6908C66.8809 22.4471 70.577 26.2061 74.8892 26.2061C76.9682 26.2061 78.5853 25.2855 79.4323 24.2882H79.5864V25.5157C79.5864 28.7377 77.8153 30.5021 75.0432 30.5021C72.7331 30.5021 71.347 28.8911 70.731 27.4336L67.4969 28.8144C68.4209 31.0392 70.962 33.8776 75.1202 33.8776C79.5093 33.8776 83.2825 31.2693 83.2825 24.9787V9.6357H79.7404V11.0933H79.5864ZM75.2742 22.9074C72.6561 22.9074 70.731 20.6826 70.731 17.7675C70.731 14.7756 72.7331 12.6276 75.2742 12.6276C77.8153 12.6276 79.8174 14.8523 79.8174 17.8442C79.8944 20.7594 77.8923 22.9074 75.2742 22.9074Z" fill="white"/>
<path d="M56.6419 9.17542C51.9447 9.17542 48.0176 12.781 48.0176 17.6908C48.0176 22.6005 51.8677 26.2061 56.6419 26.2061C61.4161 26.2061 65.2662 22.6772 65.2662 17.7675C65.2662 12.781 61.4161 9.17542 56.6419 9.17542ZM56.6419 22.9074C54.0238 22.9074 51.7907 20.7594 51.7907 17.7675C51.7907 14.6989 54.0238 12.6276 56.6419 12.6276C59.26 12.6276 61.4931 14.6989 61.4931 17.7675C61.4931 20.7594 59.26 22.9074 56.6419 22.9074Z" fill="white"/>
<path d="M86.1348 0.507446H89.8309V26.2836H86.1348V0.507446Z" fill="white"/>
<path d="M101.226 22.9074C99.3011 22.9074 97.9921 22.0635 97.068 20.2991L108.541 15.6195L108.156 14.6222C107.463 12.7043 105.23 9.17542 100.841 9.17542C96.452 9.17542 92.7559 12.6276 92.7559 17.6908C92.7559 22.4471 96.375 26.2061 101.226 26.2061C105.153 26.2061 107.386 23.828 108.387 22.4471L105.461 20.5292C104.46 21.9868 103.151 22.9074 101.226 22.9074ZM100.995 12.3974C102.535 12.3974 103.844 13.1646 104.229 14.2386L96.529 17.4606C96.452 13.9317 99.0701 12.3974 100.995 12.3974Z" fill="white"/>
</g>
<defs>
<clipPath id="clip0_561_3550">
<rect width="107.727" height="33.7546" fill="white" transform="translate(0.818359 0.122681)"/>
</clipPath>
</defs>
</svg>
