<svg width="109" height="28" viewBox="0 0 109 28" fill="none" xmlns="http://www.w3.org/2000/svg">
<g clip-path="url(#clip0_561_3558)">
<path d="M42.979 10.3207H46.3816V21.0234H42.979V10.3207Z" fill="white"/>
<mask id="mask0_561_3558" style="mask-type:luminance" maskUnits="userSpaceOnUse" x="0" y="0" width="109" height="28">
<path d="M0.537598 0.818356H108.265V27.1816H0.537598V0.818356Z" fill="white"/>
</mask>
<g mask="url(#mask0_561_3558)">
<path d="M47.0845 10.3207H50.3618V11.784H50.4243C51.2176 10.6342 52.2404 10.0072 53.7226 10.0072C56.0605 10.0072 57.4382 11.6794 57.4382 14.0625V21.0234H54.0357V14.7524C54.0357 13.6235 53.4721 12.85 52.3657 12.85C51.2386 12.85 50.487 13.7907 50.487 15.1076V21.0234H47.0845V10.3207Z" fill="white"/>
<path d="M46.7173 7.45621C46.7173 6.32734 45.8035 5.41232 44.6763 5.41232C43.5491 5.41232 42.6353 6.32734 42.6353 7.45621C42.6353 8.58498 43.5491 9.5 44.6763 9.5C45.8035 9.5 46.7173 8.58498 46.7173 7.45621Z" fill="white"/>
<path d="M81.3716 10.1662C81.2745 10.1574 81.1632 10.1535 81.0329 10.1535C79.7387 10.1535 78.8621 10.7179 78.1105 11.9931H78.048V10.3208H74.7915V21.0234H78.194V16.2156C78.194 13.9879 79.426 12.9556 81.3716 13.1358V10.1662Z" fill="white"/>
<path d="M98.068 14.269C96.7111 14.0183 95.5005 13.9137 95.5005 13.1612C95.5005 12.4922 96.1477 12.1787 96.9825 12.1787C97.9218 12.1787 98.569 12.4714 98.6943 13.433H101.826C101.658 11.3217 100.03 10.0047 97.0036 10.0047C94.4776 10.0047 92.3902 11.1753 92.3902 13.433C92.3902 15.9413 94.3733 16.443 96.2312 16.7567C97.6506 17.0075 98.9448 17.112 98.9448 18.0736C98.9448 18.7634 98.2977 19.1397 97.2748 19.1397C96.2486 19.1397 95.57 18.7049 95.3619 17.8228H92.1196C92.3583 20.023 94.2868 21.3555 97.2957 21.3555C100.093 21.3555 102.159 20.1431 102.159 17.8019C102.159 15.0634 99.9468 14.5826 98.068 14.269Z" fill="white"/>
<path d="M86.6488 12.4308C87.7552 12.4308 88.5483 13.2461 88.6736 14.5213H84.457C84.6866 13.2461 85.3546 12.4308 86.6488 12.4308ZM86.8367 18.8901C85.438 18.8901 84.6449 17.9913 84.4361 16.5489H92.118C92.1388 14.375 91.5127 12.5145 90.2392 11.3439C89.3207 10.5078 88.11 10.0061 86.5861 10.0061C83.3297 10.0061 81.0962 12.4517 81.0962 15.6501C81.0962 18.8901 83.2672 21.3359 86.7949 21.3359C88.1516 21.3359 89.2372 20.9806 90.1349 20.3534C91.0742 19.7054 91.7004 18.7857 91.93 17.8241H88.611C88.3187 18.493 87.7343 18.8901 86.8367 18.8901Z" fill="white"/>
<path d="M108.151 18.4992C107.993 18.5055 107.781 18.5146 107.587 18.5146C106.856 18.5146 106.397 18.3055 106.397 17.4694V12.4525H108.151V10.3203H106.397V6.93388H103.078V10.3203H102.034V12.4525H103.078V18.201C103.078 20.5005 104.498 21.1484 106.481 21.1484C107.237 21.1484 107.809 21.0917 108.151 21.025V18.4992Z" fill="white"/>
<path d="M63.5178 18.5041C63.3821 18.5094 63.2254 18.5146 63.079 18.5146C62.3485 18.5146 61.8891 18.3055 61.8891 17.4694V12.4525H63.5178V10.3203H61.8891V6.93388H58.5701V10.3203H57.4634V12.4525H58.5701V18.201C58.5701 20.5005 59.9895 21.1484 61.9727 21.1484C62.6437 21.1484 63.169 21.1037 63.5178 21.0471V18.5041Z" fill="white"/>
<path d="M70.9314 14.5213C70.8062 13.2462 70.0129 12.4308 68.9065 12.4308C67.6123 12.4308 66.9444 13.2462 66.7147 14.5213H70.9314ZM63.354 15.6501C63.354 12.4518 65.5875 10.0062 68.844 10.0062C70.3677 10.0062 71.5785 10.5078 72.497 11.3439C73.7704 12.5146 74.3965 14.375 74.3757 16.549H66.694C66.9026 17.9913 67.6958 18.8902 69.0945 18.8902C69.992 18.8902 70.5766 18.493 70.8687 17.8241H74.1878C73.9581 18.7857 73.332 19.7054 72.3926 20.3535C71.495 20.9806 70.4096 21.3359 69.0527 21.3359C65.5249 21.3359 63.354 18.8902 63.354 15.6501Z" fill="white"/>
<path d="M37.0645 13.101C38.4005 13.101 39.1519 12.3066 39.1519 11.115C39.1519 9.92355 38.3795 9.19191 37.0645 9.19191H34.455V13.101H37.0645ZM31.0103 6.07725H36.9189C38.7349 6.07725 40.0709 6.57889 40.9894 7.45689C41.9497 8.35567 42.4924 9.63091 42.4924 11.1359C42.4924 13.9997 40.5093 16.0275 37.4407 16.0275H34.455V21.0234H31.0103V6.07725Z" fill="white"/>
<path d="M26.3398 13.9988C26.3398 21.1036 20.5882 26.8633 13.4934 26.8633C6.39853 26.8633 0.646973 21.1036 0.646973 13.9988C0.646973 6.89394 6.39853 1.13441 13.4934 1.13441C20.5882 1.13441 26.3398 6.89394 26.3398 13.9988Z" fill="white"/>
<path d="M13.4934 1.13441C6.39853 1.13441 0.646973 6.89404 0.646973 13.9988C0.646973 19.4489 4.03306 24.1079 8.81181 25.9823C8.69955 24.9645 8.59804 23.3991 8.85635 22.288C9.08981 21.284 10.3627 15.8935 10.3627 15.8935C10.3627 15.8935 9.97849 15.1229 9.97849 13.9836C9.97849 12.1948 11.0138 10.8593 12.303 10.8593C13.399 10.8593 13.9284 11.6833 13.9284 12.6714C13.9284 13.7752 13.2266 15.4254 12.8645 16.9547C12.5618 18.2351 13.5057 19.2793 14.7668 19.2793C17.05 19.2793 18.8052 16.8684 18.8052 13.3884C18.8052 10.3082 16.595 8.15463 13.4391 8.15463C9.78388 8.15463 7.63839 10.9001 7.63839 13.7374C7.63839 14.8431 8.06372 16.0287 8.59446 16.6732C8.69945 16.8006 8.71482 16.9122 8.68355 17.0422C8.58604 17.4485 8.36932 18.3223 8.32677 18.5012C8.27075 18.7366 8.14059 18.7866 7.89713 18.6732C6.2927 17.9253 5.28956 15.5762 5.28956 13.6894C5.28956 9.6314 8.23389 5.90458 13.7777 5.90458C18.2341 5.90458 21.6973 9.08462 21.6973 13.3345C21.6973 17.7681 18.9057 21.3362 15.0311 21.3362C13.7294 21.3362 12.5056 20.6589 12.0867 19.859C12.0867 19.859 11.4425 22.3152 11.2864 22.9171C10.9964 24.0345 10.2134 25.4351 9.68974 26.2896C10.8917 26.6623 12.169 26.8633 13.4934 26.8633C20.5883 26.8633 26.3399 21.1036 26.3399 13.9988C26.3399 6.89404 20.5883 1.13441 13.4934 1.13441Z" fill="white"/>
</g>
</g>
<defs>
<clipPath id="clip0_561_3558">
<rect width="107.727" height="26.3633" fill="white" transform="translate(0.54541 0.818359)"/>
</clipPath>
</defs>
</svg>
