<svg width="108" height="52" viewBox="0 0 108 52" fill="none" xmlns="http://www.w3.org/2000/svg">
<path d="M89.1576 23.2145C90.2112 23.2145 91.0653 22.3612 91.0653 21.3086C91.0653 20.256 90.2112 19.4027 89.1576 19.4027C88.1041 19.4027 87.25 20.256 87.25 21.3086C87.25 22.3612 88.1041 23.2145 89.1576 23.2145Z" fill="white"/>
<path d="M61.9112 29.4342C62.847 29.4342 63.3869 28.733 63.3509 28.0497C63.3329 27.6901 63.2969 27.4564 63.2609 27.2766C62.6851 24.7953 60.6694 22.9613 58.2759 22.9613C55.4325 22.9613 53.1289 25.5325 53.1289 28.697C53.1289 31.8615 55.4325 34.4327 58.2759 34.4327C60.0576 34.4327 61.3353 33.7854 62.2531 32.7605C62.7031 32.2571 62.6131 31.4839 62.0732 31.1063C61.6233 30.8007 61.0654 30.9086 60.6515 31.2502C60.2555 31.5918 59.4997 32.2751 58.2759 32.2751C56.8362 32.2751 55.6124 31.0344 55.3425 29.3982H61.9112V29.4342ZM58.2579 25.1369C59.5537 25.1369 60.6694 26.1438 61.0834 27.5283H55.4325C55.8464 26.1258 56.9622 25.1369 58.2579 25.1369Z" fill="white"/>
<path d="M53.2357 24.0952C53.2357 23.5558 52.8398 23.1242 52.3359 23.0343C50.7702 22.8006 49.2945 23.376 48.4486 24.4368V24.2929C48.4486 23.6277 47.9087 23.2141 47.3689 23.2141C46.775 23.2141 46.2891 23.6996 46.2891 24.2929V33.1033C46.2891 33.6786 46.721 34.1821 47.2969 34.218C47.9267 34.254 48.4486 33.7685 48.4486 33.1392V28.5902C48.4486 26.5764 49.9604 24.9223 52.048 25.156C52.1199 25.156 52.1919 25.156 52.2639 25.156C52.8038 25.12 53.2357 24.6526 53.2357 24.0952Z" fill="white"/>
<path d="M90.2377 25.2471C90.2377 24.6538 89.7518 24.1683 89.1579 24.1683C88.564 24.1683 88.0781 24.6538 88.0781 25.2471C88.0781 25.2831 88.0781 32.7988 88.0781 33.1405C88.0781 33.7338 88.564 34.2193 89.1579 34.2193C89.7518 34.2193 90.2377 33.7338 90.2377 33.1405C90.2377 32.8168 90.2377 25.3011 90.2377 25.2471Z" fill="white"/>
<path d="M74.1812 19.2764C74.1812 18.6831 73.6953 18.1976 73.1014 18.1976C72.5075 18.1976 72.0216 18.6831 72.0216 19.2764V24.0772C71.2837 23.34 70.3659 22.9804 69.2681 22.9804C66.4247 22.9804 64.1211 25.5515 64.1211 28.7161C64.1211 31.8806 66.4247 34.4518 69.2681 34.4518C70.3659 34.4518 71.3017 34.0742 72.0396 33.337C72.1295 33.8404 72.5795 34.218 73.1014 34.218C73.6953 34.218 74.1812 33.7326 74.1812 33.1392V19.2764ZM69.2861 32.3121C67.6304 32.3121 66.2987 30.7119 66.2987 28.7161C66.2987 26.7382 67.6304 25.12 69.2861 25.12C70.9418 25.12 72.2735 26.7203 72.2735 28.7161C72.2735 30.7119 70.9238 32.3121 69.2861 32.3121Z" fill="white"/>
<path d="M85.4507 19.2764C85.4507 18.6831 84.9648 18.1976 84.3709 18.1976C83.777 18.1976 83.2911 18.6831 83.2911 19.2764V24.0772C82.5532 23.34 81.6354 22.9804 80.5376 22.9804C77.6942 22.9804 75.3906 25.5515 75.3906 28.7161C75.3906 31.8806 77.6942 34.4518 80.5376 34.4518C81.6354 34.4518 82.5712 34.0742 83.3091 33.337C83.3991 33.8404 83.849 34.218 84.3709 34.218C84.9648 34.218 85.4507 33.7326 85.4507 33.1392V19.2764ZM80.5376 32.3121C78.882 32.3121 77.5502 30.7119 77.5502 28.7161C77.5502 26.7382 78.882 25.12 80.5376 25.12C82.1933 25.12 83.5251 26.7203 83.5251 28.7161C83.5251 30.7119 82.1933 32.3121 80.5376 32.3121Z" fill="white"/>
<path d="M95.7075 33.1564V25.1372H96.6613C97.1652 25.1372 97.6151 24.7596 97.6511 24.2382C97.6871 23.6808 97.2372 23.2133 96.6973 23.2133H95.7075V21.703C95.7075 21.1276 95.2756 20.6241 94.6997 20.5882C94.0698 20.5522 93.5479 21.0377 93.5479 21.667V23.2313H92.6481C92.1442 23.2313 91.6943 23.6089 91.6583 24.1303C91.6223 24.6877 92.0722 25.1552 92.6121 25.1552H93.5299V33.1743C93.5299 33.7677 94.0158 34.2532 94.6097 34.2532C95.2396 34.2172 95.7075 33.7497 95.7075 33.1564Z" fill="white"/>
<path fill-rule="evenodd" clip-rule="evenodd" d="M40.2403 26.0014C40.2403 34.3229 33.4883 41.0688 25.1592 41.0688C16.8302 41.0688 10.0781 34.3229 10.0781 26.0014C10.0781 17.6799 16.8302 10.934 25.1592 10.934C33.4883 10.934 40.2403 17.6799 40.2403 26.0014ZM33.0253 23.8071C34.231 23.8071 35.2208 24.7781 35.2208 26.0007C35.2208 26.8997 34.6809 27.6729 33.9251 28.0145C33.9611 28.2303 33.9791 28.464 33.9791 28.6798C33.9791 32.078 30.0378 34.811 25.1788 34.811C20.3197 34.811 16.3785 32.06 16.3785 28.6798C16.3785 28.446 16.3965 28.2303 16.4325 28.0145C15.6766 27.6729 15.1367 26.9177 15.1367 26.0187C15.1367 24.814 16.1085 23.8251 17.3323 23.8251C17.9262 23.8251 18.4661 24.0588 18.862 24.4364C20.3917 23.3396 22.4973 22.6384 24.8368 22.5665L25.9526 17.3163C25.9706 17.2084 26.0246 17.1185 26.1146 17.0645C26.1866 17.0106 26.2946 16.9926 26.4025 17.0106L30.0558 17.7837C30.3078 17.2623 30.8477 16.9027 31.4596 16.9027C32.3234 16.9027 33.0253 17.6039 33.0253 18.467C33.0253 19.33 32.3234 20.0313 31.4596 20.0313C30.6137 20.0313 29.9299 19.366 29.8939 18.5389L26.6185 17.8377L25.6107 22.5485C27.9143 22.6384 29.9839 23.3396 31.4956 24.4184C31.8915 24.0409 32.4314 23.8071 33.0253 23.8071ZM21.7055 26.0007C20.8416 26.0007 20.1398 26.7019 20.1398 27.565C20.1398 28.428 20.8416 29.1472 21.7055 29.1293C22.5693 29.1293 23.2712 28.428 23.2712 27.565C23.2712 26.7019 22.5693 26.0007 21.7055 26.0007ZM25.1788 32.8692C25.7727 32.8692 27.8243 32.7972 28.9041 31.7184C29.048 31.5566 29.048 31.3049 28.9041 31.1431C28.7421 30.9812 28.4901 30.9812 28.3282 31.1431C27.6623 31.8263 26.2046 32.06 25.1788 32.06C24.153 32.06 22.7133 31.8263 22.0294 31.1431C21.8674 30.9812 21.6155 30.9812 21.4535 31.1431C21.2915 31.3049 21.2915 31.5566 21.4535 31.7184C22.5153 32.7793 24.5669 32.8692 25.1788 32.8692ZM27.0504 27.583C27.0504 28.446 27.7523 29.1472 28.6161 29.1472C29.48 29.1472 30.1818 28.428 30.1818 27.583C30.1818 26.7199 29.48 26.0187 28.6161 26.0187C27.7523 26.0187 27.0504 26.7199 27.0504 27.583Z" fill="white"/>
</svg>
