<svg width="108" height="34" viewBox="0 0 108 34" fill="none" xmlns="http://www.w3.org/2000/svg">
<g clip-path="url(#clip0_561_3538)">
<path d="M26.2255 15.1919C21.0961 12.1424 12.6354 11.862 7.73879 13.3498C6.95244 13.5885 6.12096 13.1442 5.88269 12.357C5.64443 11.5694 6.08786 10.7376 6.87472 10.4983C12.4957 8.79 21.8397 9.12005 27.7447 12.6292C28.4521 13.0494 28.6842 13.9639 28.2648 14.6709C27.8452 15.3789 26.931 15.6123 26.2255 15.1919ZM26.0575 19.7088C25.6978 20.2934 24.9343 20.4766 24.3512 20.1178C20.0748 17.4863 13.5539 16.7239 8.49463 18.2613C7.83855 18.4598 7.14557 18.0895 6.94636 17.4339C6.74861 16.7771 7.11871 16.0846 7.7736 15.8848C13.5531 14.1292 20.7378 14.9795 25.6494 18.0013C26.2325 18.3608 26.4161 19.1256 26.0575 19.7088ZM24.1104 24.0466C23.8246 24.5159 23.2139 24.6631 22.7468 24.377C19.01 22.0907 14.3067 21.5742 8.76763 22.8409C8.23379 22.9635 7.70189 22.6285 7.58009 22.0943C7.45785 21.5599 7.79105 21.0275 8.32607 20.9056C14.3876 19.5183 19.5872 20.1154 23.7815 22.6812C24.2491 22.967 24.3964 23.5787 24.1104 24.0466ZM16.8127 1.06933C8.02449 1.06933 0.899902 8.20143 0.899902 16.9995C0.899902 25.7983 8.02449 32.9302 16.8127 32.9302C25.6013 32.9302 32.7255 25.7983 32.7255 16.9995C32.7255 8.20143 25.6013 1.06933 16.8127 1.06933Z" fill="white"/>
<path d="M44.1913 15.7757C41.4438 15.1198 40.9545 14.6594 40.9545 13.6923C40.9545 12.7783 41.8142 12.1634 43.0923 12.1634C44.3312 12.1634 45.5595 12.6304 46.8476 13.5919C46.8865 13.621 46.9354 13.6326 46.9835 13.625C47.0315 13.6177 47.0739 13.5915 47.1022 13.5515L48.4437 11.6584C48.4989 11.5806 48.4838 11.4729 48.4095 11.4134C46.8767 10.182 45.1505 9.58334 43.1329 9.58334C40.1664 9.58334 38.0942 11.3654 38.0942 13.9156C38.0942 16.6503 39.8817 17.6184 42.9706 18.3658C45.5997 18.9721 46.0434 19.4799 46.0434 20.3881C46.0434 21.3941 45.1462 22.0196 43.7022 22.0196C42.0986 22.0196 40.7904 21.4788 39.327 20.2102C39.2907 20.179 39.241 20.1645 39.195 20.1671C39.1467 20.1712 39.1024 20.1936 39.0717 20.2307L37.5675 22.0228C37.5044 22.0972 37.5124 22.2083 37.5851 22.2726C39.2879 23.7943 41.3817 24.5981 43.6414 24.5981C46.8381 24.5981 48.9038 22.8494 48.9038 20.143C48.9038 17.8557 47.5387 16.5907 44.1913 15.7757Z" fill="white"/>
<path d="M58.4603 18.8415C58.4603 20.773 57.2719 22.1207 55.5703 22.1207C53.8881 22.1207 52.6191 20.7117 52.6191 18.8415C52.6191 16.9716 53.8881 15.5624 55.5703 15.5624C57.2446 15.5624 58.4603 16.9412 58.4603 18.8415ZM56.1398 13.0633C54.7542 13.0633 53.6177 13.6097 52.6805 14.7292V13.4691C52.6805 13.3696 52.6 13.2885 52.5006 13.2885H50.0406C49.9412 13.2885 49.8608 13.3696 49.8608 13.4691V27.4704C49.8608 27.5699 49.9412 27.6509 50.0406 27.6509H52.5006C52.6 27.6509 52.6805 27.5699 52.6805 27.4704V23.051C53.6179 24.1041 54.7546 24.6184 56.1398 24.6184C58.7144 24.6184 61.3207 22.6343 61.3207 18.8415C61.3207 15.0479 58.7144 13.0633 56.1398 13.0633Z" fill="white"/>
<path d="M67.9967 22.142C66.2331 22.142 64.9036 20.7235 64.9036 18.8427C64.9036 16.954 66.1871 15.5833 67.956 15.5833C69.731 15.5833 71.0695 17.0018 71.0695 18.8839C71.0695 20.7724 69.7772 22.142 67.9967 22.142ZM67.9967 13.0644C64.681 13.0644 62.0835 15.6204 62.0835 18.8839C62.0835 22.112 64.6632 24.6411 67.956 24.6411C71.2834 24.6411 73.889 22.0937 73.889 18.8427C73.889 15.6025 71.3013 13.0644 67.9967 13.0644Z" fill="white"/>
<path d="M80.9726 13.2885H78.2654V10.5176C78.2654 10.4181 78.1852 10.3373 78.0859 10.3373H75.6261C75.5265 10.3373 75.4456 10.4181 75.4456 10.5176V13.2885H74.2627C74.1635 13.2885 74.0835 13.3695 74.0835 13.469V15.5856C74.0835 15.6851 74.1635 15.7661 74.2627 15.7661H75.4456V21.2431C75.4456 23.4565 76.5459 24.5786 78.7161 24.5786C79.5986 24.5786 80.3307 24.3962 81.0207 24.0045C81.0768 23.9731 81.1117 23.9127 81.1117 23.8483V21.8327C81.1117 21.7704 81.0792 21.7119 81.0262 21.6792C80.9726 21.6455 80.9059 21.6438 80.851 21.671C80.3771 21.9097 79.919 22.0199 79.4069 22.0199C78.6177 22.0199 78.2654 21.6613 78.2654 20.8572V15.7661H80.9726C81.072 15.7661 81.152 15.6851 81.152 15.5856V13.469C81.152 13.3695 81.072 13.2885 80.9726 13.2885Z" fill="white"/>
<path d="M90.4046 13.2985V12.9582C90.4046 11.957 90.7881 11.5105 91.6481 11.5105C92.161 11.5105 92.5729 11.6125 93.0343 11.7666C93.0911 11.7844 93.1504 11.7755 93.1966 11.7414C93.2441 11.7074 93.2709 11.6528 93.2709 11.595V9.51956C93.2709 9.44023 93.22 9.37004 93.1438 9.34683C92.6564 9.20168 92.0327 9.05254 91.099 9.05254C88.8265 9.05254 87.6256 10.3336 87.6256 12.7557V13.277H86.4437C86.3445 13.277 86.2632 13.3578 86.2632 13.4573V15.5848C86.2632 15.6842 86.3445 15.7652 86.4437 15.7652H87.6256V24.2133C87.6256 24.3128 87.7058 24.3936 87.805 24.3936H90.265C90.3644 24.3936 90.4453 24.3128 90.4453 24.2133V15.7652H92.7422L96.2608 24.211C95.8614 25.0984 95.4686 25.275 94.9324 25.275C94.499 25.275 94.0425 25.1454 93.5759 24.8898C93.532 24.8655 93.4801 24.8616 93.4326 24.8763C93.3857 24.893 93.3461 24.9278 93.3262 24.9737L92.4924 26.805C92.4527 26.8915 92.4865 26.9932 92.5697 27.038C93.4402 27.51 94.2261 27.7114 95.1971 27.7114C97.0137 27.7114 98.0177 26.8642 98.903 24.5852L103.171 13.5442C103.192 13.4887 103.186 13.4261 103.152 13.3767C103.118 13.328 103.064 13.2985 103.004 13.2985H100.443C100.366 13.2985 100.298 13.3472 100.272 13.4193L97.6489 20.9216L94.7753 13.4143C94.749 13.3445 94.682 13.2985 94.6073 13.2985H90.4046Z" fill="white"/>
<path d="M84.9347 13.289H82.4746C82.3752 13.289 82.2944 13.3701 82.2944 13.4695V24.2147C82.2944 24.3142 82.3752 24.395 82.4746 24.395H84.9347C85.0339 24.395 85.1149 24.3142 85.1149 24.2147V13.4695C85.1149 13.3701 85.0339 13.289 84.9347 13.289Z" fill="white"/>
<path d="M83.7201 8.39565C82.7456 8.39565 81.9546 9.18568 81.9546 10.1612C81.9546 11.1374 82.7456 11.9282 83.7201 11.9282C84.6943 11.9282 85.4844 11.1374 85.4844 10.1612C85.4844 9.18568 84.6943 8.39565 83.7201 8.39565Z" fill="white"/>
<path d="M105.372 14.3568H104.922V14.9322H105.372C105.597 14.9322 105.732 14.822 105.732 14.6443C105.732 14.4572 105.597 14.3568 105.372 14.3568ZM105.665 15.1777L106.154 15.8641H105.742L105.301 15.2345H104.922V15.8641H104.576V14.0447H105.387C105.809 14.0447 106.086 14.261 106.086 14.625C106.086 14.9232 105.914 15.1055 105.665 15.1777ZM105.281 13.4394C104.394 13.4394 103.723 14.1449 103.723 15.0093C103.723 15.873 104.389 16.5693 105.272 16.5693C106.158 16.5693 106.83 15.8641 106.83 14.9994C106.83 14.1356 106.163 13.4394 105.281 13.4394ZM105.272 16.7427C104.298 16.7427 103.541 15.9598 103.541 15.0093C103.541 14.0586 104.308 13.2668 105.281 13.2668C106.254 13.2668 107.012 14.0496 107.012 14.9994C107.012 15.9501 106.245 16.7427 105.272 16.7427Z" fill="white"/>
</g>
<defs>
<clipPath id="clip0_561_3538">
<rect width="107.727" height="32.3467" fill="white" transform="translate(0.0913086 0.82666)"/>
</clipPath>
</defs>
</svg>
