<svg width="108" height="52" viewBox="0 0 108 52" fill="none" xmlns="http://www.w3.org/2000/svg">
<path fill-rule="evenodd" clip-rule="evenodd" d="M95.5711 26.4965C95.5711 20.5884 92.7168 15.9265 87.2614 15.9265C81.7829 15.9265 78.4683 20.5884 78.4683 26.4504C78.4683 33.3971 82.3814 36.905 87.998 36.905C90.7372 36.905 92.8089 36.2819 94.3741 35.4049V30.7892C92.8089 31.5738 91.0134 32.0585 88.7346 32.0585C86.5018 32.0585 84.5222 31.2738 84.269 28.5505H95.5251C95.5251 28.2505 95.5711 27.0504 95.5711 26.4965ZM84.1999 24.3041C84.1999 21.6962 85.7882 20.6115 87.2384 20.6115C88.6425 20.6115 90.1387 21.6962 90.1387 24.3041H84.1999Z" fill="white"/>
<path fill-rule="evenodd" clip-rule="evenodd" d="M69.5854 15.9265C67.3296 15.9265 65.8794 16.9881 65.0738 17.7266L64.7745 16.2958H59.7104V43.2055L65.4651 41.9823L65.4881 35.4511C66.3168 36.0511 67.5368 36.905 69.5624 36.905C73.6828 36.905 77.4348 33.5817 77.4348 26.2658C77.4118 19.5729 73.6137 15.9265 69.5854 15.9265ZM68.2043 31.8277C66.8462 31.8277 66.0406 31.3431 65.4881 30.743L65.4651 22.1808C66.0636 21.5115 66.8923 21.05 68.2043 21.05C70.299 21.05 71.7492 23.404 71.7492 26.4273C71.7492 29.5198 70.322 31.8277 68.2043 31.8277Z" fill="white"/>
<path fill-rule="evenodd" clip-rule="evenodd" d="M51.7925 14.5648L57.5702 13.3185V8.63354L51.7925 9.85671V14.5648Z" fill="white"/>
<path d="M57.5702 16.3191H51.7925V36.5129H57.5702V16.3191Z" fill="white"/>
<path fill-rule="evenodd" clip-rule="evenodd" d="M45.5976 18.0252L45.2294 16.3174H40.2573V36.5112H46.012V22.8256C47.3701 21.0485 49.6719 21.3716 50.3855 21.6255V16.3174C49.6489 16.0405 46.9557 15.5327 45.5976 18.0252Z" fill="white"/>
<path fill-rule="evenodd" clip-rule="evenodd" d="M34.0922 11.3093L28.4757 12.5094L28.4526 30.9954C28.4526 34.4111 31.0077 36.9266 34.4145 36.9266C36.302 36.9266 37.6831 36.5805 38.4427 36.165V31.4801C37.7061 31.7801 34.0692 32.8417 34.0692 29.4261V21.2331H38.4427V16.3174H34.0692L34.0922 11.3093Z" fill="white"/>
<path fill-rule="evenodd" clip-rule="evenodd" d="M18.5303 22.1806C18.5303 21.2805 19.2669 20.9343 20.4868 20.9343C22.2363 20.9343 24.446 21.4651 26.1955 22.4114V16.9879C24.2849 16.2263 22.3974 15.9263 20.4868 15.9263C15.8141 15.9263 12.7065 18.3726 12.7065 22.4575C12.7065 28.8272 21.4536 27.8118 21.4536 30.5581C21.4536 31.6198 20.5329 31.9659 19.2438 31.9659C17.3333 31.9659 14.8933 31.1813 12.9597 30.1196V35.6124C15.1005 36.5355 17.2642 36.9278 19.2438 36.9278C24.0317 36.9278 27.3234 34.5507 27.3234 30.4197C27.3004 23.5422 18.5303 24.7654 18.5303 22.1806Z" fill="white"/>
</svg>
