<svg width="224" height="48" viewBox="0 0 224 48" fill="none" xmlns="http://www.w3.org/2000/svg">
<path d="M45.2801 47.385H0V2.09375H45.2801V47.385Z" fill="#ED1C24"/>
<path d="M11.0437 23.746H15.6108C16.9284 23.746 18.0116 22.7856 18.0116 21.468V20.0833C18.0116 20.0536 18.0116 20.0238 18.0116 19.994C18.2573 19.994 18.5066 19.994 18.7598 19.994V28.514C18.5029 28.514 18.2573 28.514 18.0116 28.514C18.0116 28.3726 18.0116 28.2312 18.0116 28.0897V27.0401C18.0116 25.7224 16.9284 24.8179 15.6108 24.8179H14.3825H12.7745H10.6864V29.6865H10.6976V33.4496C10.7087 33.9856 10.7757 34.0638 10.8427 34.2201C11.0214 34.5998 12.2497 34.8008 12.6517 34.8231C14.4272 34.9124 16.2473 35.0018 17.9893 34.5774C18.5476 34.4434 19.0836 34.2536 19.5972 34.008C21.2275 33.2151 22.4 32.2213 22.601 30.1109H22.9919V35.7276H4.26566V35.3591C4.86865 35.3591 6.74462 35.4373 7.15778 34.6333C7.23222 34.4844 7.26944 34.0898 7.26944 33.4496V15.9964C7.26944 15.3339 7.2285 14.9244 7.14661 14.7681C7.10194 14.6713 6.9605 14.5783 6.72228 14.4889C6.05229 14.2321 4.99148 14.0869 4.26566 14.0869V13.752C16.5116 13.752 28.7612 13.752 41.0146 13.752V19.793V19.8935H40.5679C40.5605 19.8637 40.553 19.8302 40.5456 19.793C40.2776 17.9617 40.1101 16.6999 38.8036 15.7061C37.7316 14.8798 35.6658 14.6006 34.0578 14.6006C33.6335 14.6006 33.399 14.6229 33.3543 14.6676C33.265 14.7346 33.198 14.7681 33.198 15.2929V33.4496C33.198 34.1122 33.2427 34.5328 33.332 34.7114C33.3692 34.8082 33.5181 34.905 33.7787 35.0018C34.5157 35.2921 35.9003 35.3591 36.6931 35.3591V35.7276H26.2525V35.3591C27.0453 35.3591 28.4076 35.2921 29.1334 35.0018C29.394 34.905 29.5615 34.7822 29.6359 34.6333C29.7104 34.4844 29.7476 34.0898 29.7476 33.4496V15.3264C29.7476 14.7346 29.7141 14.6788 29.5801 14.6341C29.5131 14.6118 29.286 14.6006 28.8989 14.6006C27.4919 14.6006 25.549 14.8798 24.544 15.6838C23.3715 16.5994 22.9919 18.3637 22.7909 19.793H22.333C22.2102 18.9332 22.132 18.1962 22.0315 17.5709C21.663 15.3599 20.2672 15.1031 18.1568 14.7904C16.828 14.5894 15.2981 14.5894 13.813 14.5894C12.8639 14.6006 11.9259 14.6676 11.2112 14.9244C11.0102 14.9914 10.8874 15.1254 10.8092 15.2818C10.7422 15.4269 10.6976 15.5944 10.6976 16.2532V18.8215H10.6864V23.746" fill="white"/>
<path d="M89.647 28.0897C89.647 34.663 88.3889 39.446 85.8728 42.4386C83.3566 45.4312 79.72 46.9275 74.9631 46.9275C69.5585 46.9275 64.9989 45.2935 61.2842 42.0254C56.8399 38.1321 54.6178 32.5339 54.6178 25.2311C54.6178 18.1068 56.866 12.2779 61.3623 7.74434C65.2259 3.84351 69.3612 1.8931 73.7683 1.8931C75.9011 1.8931 77.7659 2.28393 79.3627 3.05441C81.4024 4.05195 83.2635 5.68226 84.9459 7.94533L88.2847 1.55811H88.6309V21.2781L88.0837 20.9431C88.0837 15.1142 86.472 10.4355 83.2486 6.90685C80.5612 3.97379 77.7398 2.50726 74.7844 2.50726C70.8315 2.50726 67.9878 4.33111 66.2532 7.97883C64.5262 11.6191 63.6626 17.1093 63.6626 24.4494C63.6626 31.6481 64.5969 37.0936 66.4654 40.786C68.3265 44.4709 71.1665 46.3134 74.9854 46.3134C79.3031 46.3134 82.6233 45.0441 84.9459 42.5056C87.7227 39.513 89.111 34.7077 89.111 28.0897H89.647Z" fill="#1A1A1A"/>
<path fill-rule="evenodd" clip-rule="evenodd" d="M74.9641 47.307C69.4925 47.307 64.8138 45.6208 61.0395 42.3044C56.5283 38.3514 54.2391 32.6119 54.2391 25.2308C54.2391 18.0396 56.5506 12.0655 61.1065 7.48729C65.0148 3.52318 69.2804 1.51322 73.7693 1.51322C75.9468 1.51322 77.8897 1.92638 79.5201 2.7192C81.463 3.65718 83.272 5.18699 84.8911 7.25279L88.0624 1.17822H89.0116V21.9591L87.7163 21.1439V20.9429C87.7163 15.2368 86.1194 10.6027 82.9705 7.16346C80.3687 4.32717 77.6106 2.8867 74.7855 2.8867C70.9554 2.8867 68.2754 4.59517 66.6004 8.13494C64.9031 11.7194 64.0433 17.2021 64.0433 24.4492C64.0433 31.5511 64.9701 36.9891 66.8014 40.6071C68.6104 44.1915 71.2904 45.9447 74.9865 45.9447C79.1739 45.9447 82.4345 44.7052 84.679 42.2486C87.3701 39.3453 88.7324 34.5772 88.7324 28.0895V27.7098H90.0277V28.0895C90.0277 34.7223 88.7324 39.6244 86.1641 42.684C83.5847 45.7437 79.8104 47.307 74.9641 47.307ZM72.742 2.30604C68.8337 2.59637 65.1041 4.50583 61.6313 8.01211C57.2318 12.4564 54.9985 18.2406 54.9985 25.2308C54.9985 32.3885 57.1983 37.9383 61.5308 41.7461C64.6351 44.4707 68.3759 46.0452 72.6973 46.4472C69.861 45.8218 67.6612 43.9794 66.1314 40.9532C64.2443 37.2236 63.2952 31.6627 63.2952 24.4492C63.2952 17.0905 64.1773 11.4961 65.9193 7.81111C67.3933 4.69566 69.6824 2.8532 72.742 2.30604ZM85.0475 8.5816C86.7559 11.0829 87.8391 14.0643 88.2522 17.4813V2.42887L85.0475 8.5816Z" fill="#1A1A1A"/>
<path fill-rule="evenodd" clip-rule="evenodd" d="M74.964 47.363C69.4812 47.363 64.7802 45.6768 60.9947 42.3604C56.4723 38.3851 54.1832 32.6232 54.1832 25.231C54.1832 18.0175 56.4946 12.0322 61.0617 7.44279C64.9812 3.46752 69.2691 1.45755 73.7692 1.45755C75.9578 1.45755 77.9008 1.85955 79.5534 2.66353C81.4852 3.60152 83.2719 5.10899 84.8798 7.14129L88.0288 1.12256H89.0673V22.0709L87.6491 21.1776V20.9431C87.6491 15.2482 86.0635 10.6364 82.9257 7.20829C80.3351 4.38317 77.5993 2.9427 74.7853 2.9427C70.9776 2.9427 68.3199 4.65117 66.6561 8.15744C64.9588 11.7307 64.099 17.2135 64.099 24.4493C64.099 31.5401 65.0258 36.967 66.8571 40.5849C68.6549 44.147 71.3126 45.8778 74.9863 45.8778C79.1626 45.8778 82.4009 44.6495 84.623 42.2152C87.3141 39.3119 88.6764 34.5662 88.6764 28.0896V27.6541H90.0834V28.0896C90.0834 34.7337 88.7881 39.6581 86.2086 42.7177C83.618 45.7997 79.8326 47.363 74.964 47.363ZM71.7145 2.48487C68.1971 2.99853 64.8248 4.8745 61.6759 8.05695C57.2874 12.4789 55.0542 18.2631 55.0542 25.231C55.0542 32.3664 57.254 37.905 61.5754 41.7016C64.4675 44.2364 67.9179 45.7773 71.8709 46.291C69.4142 45.5093 67.4713 43.7339 66.0755 40.9757C64.1883 37.235 63.228 31.6741 63.228 24.4493C63.228 17.0795 64.1102 11.4739 65.8633 7.78895C67.181 5.0085 69.1463 3.23302 71.7145 2.48487ZM85.1143 8.5706C86.6776 10.8597 87.7049 13.5509 88.1963 16.5993V2.68587L85.1143 8.5706Z" fill="#1A1A1A"/>
<path fill-rule="evenodd" clip-rule="evenodd" d="M74.965 47.7424C69.3817 47.7424 64.6025 46.0228 60.7501 42.6393C56.1495 38.5971 53.8045 32.7347 53.8045 25.2308C53.8045 17.9167 56.1606 11.8422 60.7947 7.17457C64.7923 3.1323 69.1584 1.07767 73.7702 1.07767C76.0146 1.07767 78.0134 1.502 79.7107 2.32832C81.5421 3.21047 83.2617 4.60628 84.8138 6.45992L87.7953 0.742676H89.4479V22.7518L87.2816 21.3895V20.9428C87.2816 15.3484 85.7183 10.8148 82.6475 7.4649C80.1351 4.70678 77.4886 3.32213 74.7863 3.32213C71.1349 3.32213 68.5889 4.95244 66.9921 8.32472C65.3283 11.8422 64.4797 17.2691 64.4797 24.4491C64.4797 31.4728 65.3953 36.8551 67.1931 40.4172C68.9239 43.8453 71.4699 45.4979 74.9873 45.4979C79.0519 45.4979 82.2009 44.3143 84.356 41.9582C86.969 39.133 88.2978 34.4655 88.2978 28.0894V27.2742H90.4641V28.0894C90.4641 34.8228 89.1353 39.8254 86.5 42.9632C83.8312 46.1344 79.9452 47.7424 74.965 47.7424ZM73.7702 1.83699C69.3706 1.83699 65.1832 3.80229 61.3195 7.6994C56.8306 12.233 54.5527 18.1289 54.5527 25.2308C54.5527 32.5113 56.8083 38.1839 61.2414 42.081C64.9598 45.3416 69.5716 46.9831 74.965 46.9831C79.7219 46.9831 83.4069 45.4756 85.9305 42.483C88.4429 39.4904 89.7159 34.6441 89.7159 28.0894V28.0224H89.0459V28.0894C89.0459 34.6553 87.6501 39.4904 84.9032 42.4607C82.6029 44.9843 79.2641 46.2573 74.9873 46.2573C71.1572 46.2573 68.3879 44.4595 66.5231 40.7522C64.6695 37.0784 63.7315 31.5957 63.7315 24.4491C63.7315 17.1574 64.6025 11.63 66.311 8.00089C68.0529 4.34945 70.8222 2.56281 74.7863 2.56281C77.7119 2.56281 80.5371 4.04796 83.1947 6.95124C86.3995 10.4575 88.0298 15.1586 88.0298 20.9428V20.9763L88.6886 21.3895V1.49083H88.5658V16.5991L87.8288 16.6549C87.3486 13.6735 86.3325 11.0158 84.8027 8.78255L84.6798 8.59271L88.3983 1.49083H88.2531L84.9478 7.82223L84.5905 7.37557C83.0049 5.37677 81.2629 3.90279 79.3869 2.99831C77.7901 2.22782 75.903 1.83699 73.7702 1.83699ZM85.5508 8.54805C86.5111 9.99969 87.2705 11.6077 87.8176 13.3608V4.21545L85.5508 8.54805ZM71.8272 46.6593C67.8073 46.1344 64.2675 44.56 61.3307 41.9805C56.92 38.1057 54.6867 32.4667 54.6867 25.2196C54.6867 18.1512 56.9535 12.2888 61.42 7.78873C64.6137 4.55045 68.0641 2.64098 71.6709 2.10499L71.8272 2.83081C69.3706 3.55663 67.4723 5.27627 66.2105 7.94506C64.4797 11.5853 63.6087 17.1351 63.6087 24.438C63.6087 31.618 64.5467 37.1231 66.4115 40.808C67.7514 43.4545 69.6274 45.1853 71.9947 45.9334L71.8272 46.6593ZM68.4326 3.77996C66.1881 4.69561 64.0218 6.21425 61.9449 8.31355C57.6234 12.6685 55.4348 18.3634 55.4348 25.2196C55.4348 32.2433 57.5788 37.6926 61.822 41.411C63.9772 43.2981 66.4561 44.6381 69.2254 45.3863C67.8296 44.3925 66.6571 42.9743 65.7415 41.143C63.8208 37.3464 62.8494 31.7297 62.8494 24.438C62.8494 17.0234 63.7538 11.362 65.5293 7.62123C66.2886 6.01326 67.2601 4.72911 68.4326 3.77996Z" fill="#1A1A1A"/>
<path d="M110.127 6.74001V41.8139C110.127 43.1316 110.216 43.9728 110.395 44.3376C110.491 44.5237 110.763 44.7061 111.21 44.8847C112.527 45.3835 115.23 45.6329 119.317 45.6329V46.314H92.5059V45.6329C94.4563 45.6329 96.1461 45.5659 97.5754 45.4319C99.0048 45.2979 99.9762 45.1192 100.501 44.9182C101.022 44.7172 101.361 44.4678 101.517 44.1701C101.681 43.8723 101.763 43.0869 101.763 41.8139V6.74001C101.763 5.46704 101.67 4.67049 101.484 4.35039C101.394 4.17172 101.104 3.98189 100.602 3.80323C99.2839 3.30446 96.5853 3.05507 92.5059 3.05507V2.44092H119.372V3.05507C117.429 3.05507 115.743 3.12207 114.314 3.25607C112.885 3.39007 111.876 3.57245 111.288 3.80323L110.607 4.07122C110.287 4.34666 110.127 5.23626 110.127 6.74001Z" fill="#1A1A1A"/>
<path fill-rule="evenodd" clip-rule="evenodd" d="M119.685 46.6935H92.1377V45.2642H92.5062C94.438 45.2642 96.1353 45.1972 97.5423 45.0632C99.2619 44.8957 100.021 44.7058 100.367 44.5718C100.803 44.4044 101.082 44.2034 101.194 43.9912C101.25 43.8795 101.384 43.4552 101.384 41.8137V6.73979C101.384 5.09832 101.227 4.65166 101.16 4.52883C101.149 4.51766 101.06 4.3725 100.479 4.14917C99.2061 3.66901 96.5261 3.42335 92.5062 3.42335H92.1377V2.06104H119.752V3.42335H119.384C117.452 3.42335 115.755 3.50151 114.348 3.63551C112.952 3.75834 111.969 3.937 111.422 4.14917L110.819 4.39483C110.73 4.51766 110.507 4.99782 110.507 6.73979V41.8137C110.507 43.4664 110.652 44.0024 110.73 44.1699C110.741 44.181 110.819 44.3262 111.355 44.5383C112.617 45.0185 115.297 45.2642 119.317 45.2642H119.685V46.6935ZM95.644 45.9342H115.956C113.644 45.8337 112.036 45.5992 111.076 45.2307C110.518 45.0073 110.205 44.7728 110.06 44.5048C109.937 44.2369 109.747 43.6674 109.747 41.8137V6.73979C109.747 4.58466 110.082 4.02634 110.361 3.79184L110.462 3.72484L111.143 3.44568C111.768 3.21118 112.796 3.02135 114.281 2.88736C114.541 2.85758 114.817 2.83152 115.107 2.80919H97.0175C98.7148 2.94319 99.9431 3.14418 100.736 3.44568C101.339 3.66901 101.685 3.90351 101.819 4.1715C101.953 4.406 102.132 4.93082 102.132 6.73979V41.8137C102.132 43.5892 101.987 44.1029 101.853 44.3485C101.652 44.7282 101.25 45.0297 100.635 45.2642C100.066 45.4875 99.0832 45.6662 97.6093 45.8002C97.0063 45.8597 96.3512 45.9044 95.644 45.9342Z" fill="#1A1A1A"/>
<path fill-rule="evenodd" clip-rule="evenodd" d="M119.751 46.749H92.0693V45.1968H92.5048C94.4366 45.1968 96.1228 45.1298 97.5409 44.9958C99.2494 44.8395 100.009 44.6385 100.344 44.5157C100.757 44.3482 101.025 44.1584 101.137 43.9574C101.181 43.8792 101.326 43.4884 101.326 41.8134V6.73947C101.326 5.12033 101.17 4.67367 101.103 4.56201C101.103 4.55084 101.003 4.41684 100.455 4.21585C99.1935 3.73569 96.5136 3.49002 92.5048 3.49002H92.0693V2.00488H119.818V3.49002H119.383C117.451 3.49002 115.765 3.55702 114.358 3.69102C112.962 3.82502 111.99 4.00368 111.443 4.20468L110.851 4.43918C110.773 4.56201 110.561 5.04217 110.561 6.73947V41.8134C110.561 43.4437 110.706 43.9797 110.784 44.136C110.796 44.1472 110.874 44.2812 111.376 44.4822C112.627 44.9512 115.296 45.1968 119.316 45.1968H119.751V46.749ZM97.4739 45.878H114.123C112.761 45.744 111.745 45.5542 111.064 45.2862C110.483 45.0628 110.148 44.8284 110.003 44.5269C109.869 44.2589 109.69 43.6782 109.69 41.8134V6.73947C109.69 4.56201 110.025 3.99252 110.315 3.74685L110.438 3.66869L111.119 3.40069C111.678 3.17736 112.538 3.00987 113.732 2.87587H98.3337C99.3834 2.9987 100.187 3.17736 100.757 3.38953C101.382 3.62402 101.728 3.84735 101.874 4.14885C102.019 4.40568 102.197 4.94167 102.197 6.73947V41.8134C102.197 43.6112 102.041 44.1249 101.907 44.3705C101.695 44.7725 101.282 45.074 100.656 45.3197C100.087 45.5542 99.093 45.7328 97.6191 45.8668C97.5744 45.8668 97.526 45.8706 97.4739 45.878Z" fill="#1A1A1A"/>
<path fill-rule="evenodd" clip-rule="evenodd" d="M120.12 47.1284H91.7012V44.8281H92.5052C94.4258 44.8281 96.1008 44.7611 97.4966 44.6271C99.2497 44.4596 99.9421 44.2698 100.21 44.1581C100.579 44.0241 100.757 43.8678 100.813 43.7785C100.813 43.7785 100.947 43.4435 100.947 41.8132V6.73925C100.947 5.25411 100.813 4.84095 100.791 4.76278C100.791 4.75162 100.679 4.69578 100.322 4.56179C99.0934 4.09279 96.4693 3.86946 92.5052 3.86946H91.7012V1.625H120.187V3.86946H119.383C117.462 3.86946 115.787 3.9253 114.392 4.05929C113.029 4.19329 112.091 4.36079 111.578 4.56179L111.131 4.72928C111.064 4.91911 110.941 5.43277 110.941 6.73925V41.8132C110.941 43.3988 111.075 43.8455 111.12 43.946C111.109 43.9236 111.22 44.013 111.511 44.1246C112.717 44.5936 115.341 44.8281 119.316 44.8281H120.12V47.1284ZM92.4494 46.3691H119.372V45.5763H119.316C115.251 45.5763 112.538 45.3195 111.243 44.817C110.807 44.6495 110.539 44.4708 110.461 44.3033C110.282 43.9571 110.193 43.1197 110.193 41.8132V6.72808C110.193 5.4216 110.305 4.58412 110.539 4.22679L110.606 4.13746L111.298 3.8583C111.89 3.63497 112.873 3.4563 114.313 3.31114C115.743 3.17714 117.44 3.11014 119.383 3.11014H119.439V2.37315H92.4494V3.11014H92.5052C96.5586 3.11014 99.2721 3.35581 100.579 3.8583C101.036 4.02579 101.304 4.18213 101.416 4.34962C101.606 4.68462 101.695 5.47744 101.695 6.72808V41.8132C101.695 43.075 101.617 43.8566 101.472 44.1358C101.316 44.415 100.981 44.6606 100.478 44.8616C99.9532 45.0626 98.9706 45.2301 97.5748 45.3641C96.1455 45.4981 94.4482 45.5763 92.5052 45.5763H92.4494V46.3691ZM114.124 46.2463H97.4743L97.4408 45.4981L97.5078 45.4869C98.9929 45.3418 99.9867 45.1743 100.523 44.9621C101.059 44.75 101.405 44.4931 101.584 44.1805C101.74 43.879 101.818 43.0973 101.818 41.802V6.72808C101.818 5.44394 101.729 4.63995 101.55 4.31612C101.438 4.10396 101.137 3.91413 100.634 3.7243C100.087 3.5233 99.2944 3.35581 98.2894 3.23297L98.3341 2.48482H113.733L113.777 3.23297C112.605 3.36697 111.79 3.53447 111.254 3.73547L110.506 4.04813C110.226 4.29379 110.07 5.20944 110.07 6.72808V41.802C110.07 43.1308 110.159 43.9795 110.338 44.348C110.439 44.549 110.718 44.7388 111.198 44.9286C111.846 45.1743 112.839 45.3641 114.157 45.4981L114.124 46.2463ZM101.182 45.4869H110.606C110.126 45.2636 109.824 44.9956 109.668 44.683C109.512 44.3591 109.311 43.7226 109.311 41.802V6.72808C109.311 4.40545 109.702 3.76897 110.07 3.44514L110.483 3.24414H101.383C101.807 3.44514 102.064 3.67963 102.209 3.9588C102.388 4.27146 102.566 4.85211 102.566 6.72808V41.802C102.566 43.6556 102.41 44.214 102.242 44.5378C102.03 44.9286 101.684 45.2413 101.182 45.4869Z" fill="#1A1A1A"/>
<path fill-rule="evenodd" clip-rule="evenodd" d="M163.188 24.3367C163.188 31.0068 160.944 36.5417 156.455 40.9413C152.368 44.9314 147.763 46.9265 142.642 46.9265C137.423 46.9265 132.819 45.0208 128.829 41.2093C124.34 36.9065 122.095 31.2823 122.095 24.3367C122.095 17.6741 124.34 12.1653 128.829 7.81033C132.916 3.86483 137.52 1.89209 142.642 1.89209C147.86 1.89209 152.464 3.7755 156.455 7.54233C160.944 11.8079 163.188 17.4061 163.188 24.3367ZM154.132 24.3702C154.132 17.2237 153.172 11.793 151.251 8.07832C149.33 4.36361 146.449 2.50625 142.608 2.50625C138.812 2.50625 135.953 4.35988 134.032 8.07832C132.104 11.793 131.14 17.2237 131.14 24.3702C131.14 31.4386 132.101 36.8655 134.032 40.6398C135.953 44.4252 138.812 46.3124 142.608 46.3124C146.36 46.3124 149.219 44.4215 151.184 40.6398C153.149 36.8655 154.132 31.4386 154.132 24.3702Z" fill="#1A1A1A"/>
<path fill-rule="evenodd" clip-rule="evenodd" d="M142.642 47.306C137.349 47.306 132.614 45.3407 128.572 41.4882C124.027 37.1221 121.727 31.3491 121.727 24.3365C121.727 17.6031 124.027 11.9529 128.572 7.54211C132.704 3.54451 137.438 1.51221 142.642 1.51221C147.935 1.51221 152.669 3.45518 156.712 7.26295C161.256 11.5844 163.557 17.3351 163.557 24.3365C163.557 31.0811 161.256 36.7536 156.712 41.2091C152.58 45.2513 147.845 47.306 142.642 47.306ZM139.951 2.46136C135.998 3.04202 132.358 4.92915 129.097 8.0781C124.697 12.3437 122.475 17.8153 122.475 24.3365C122.475 31.1481 124.697 36.7313 129.097 40.9411C132.335 44.0342 136.02 45.8543 140.096 46.3903C137.382 45.698 135.227 43.8332 133.698 40.8182C131.755 36.9993 130.772 31.4719 130.772 24.37C130.772 17.19 131.755 11.6514 133.698 7.89944C135.205 4.98498 137.304 3.16485 139.951 2.46136ZM145.132 2.41669C147.879 3.09785 150.045 4.92915 151.586 7.89944C153.529 11.6514 154.512 17.19 154.512 24.37C154.512 31.4719 153.507 36.9993 151.519 40.8182C149.945 43.8332 147.801 45.698 145.099 46.3903C149.141 45.8432 152.87 43.9225 156.187 40.6731C160.586 36.3628 162.809 30.8689 162.809 24.3365C162.809 17.5473 160.586 11.9864 156.198 7.8101C152.937 4.73932 149.23 2.94152 145.132 2.41669ZM142.608 2.88568C138.923 2.88568 136.232 4.63882 134.356 8.2456C132.48 11.8859 131.52 17.3128 131.52 24.37C131.52 31.3491 132.48 36.7648 134.356 40.4721C136.232 44.157 138.935 45.9436 142.608 45.9436C146.249 45.9436 148.94 44.157 150.86 40.4721C152.781 36.7648 153.764 31.3491 153.764 24.37C153.764 17.3128 152.803 11.8859 150.927 8.2456C149.051 4.63882 146.338 2.88568 142.608 2.88568Z" fill="#1A1A1A"/>
<path fill-rule="evenodd" clip-rule="evenodd" d="M142.643 47.3624C137.339 47.3624 132.593 45.3971 128.528 41.5335C123.973 37.1563 121.661 31.372 121.661 24.3372C121.661 17.5814 123.973 11.92 128.528 7.4981C132.682 3.48933 137.428 1.45703 142.643 1.45703C147.947 1.45703 152.693 3.4 156.757 7.21894C161.313 11.5515 163.625 17.3134 163.625 24.3372C163.625 31.104 161.313 36.7878 156.757 41.2544C152.615 45.3078 147.858 47.3624 142.643 47.3624ZM139.07 2.67418C135.474 3.4 132.146 5.22014 129.143 8.12342C124.754 12.3779 122.532 17.8271 122.532 24.3372C122.532 31.1264 124.754 36.6985 129.143 40.8971C132.135 43.7557 135.519 45.5311 139.237 46.2011C136.903 45.3525 135.027 43.5658 133.643 40.8412C131.7 37.0223 130.706 31.4837 130.706 24.3707C130.706 17.1906 131.7 11.6297 133.643 7.87776C134.994 5.2648 136.814 3.534 139.07 2.67418ZM146.015 2.61835C148.371 3.44467 150.258 5.1978 151.643 7.87776C153.586 11.6297 154.58 17.1906 154.58 24.3707C154.58 31.4837 153.564 37.0223 151.576 40.8412C150.169 43.5547 148.293 45.3413 145.971 46.1788C149.667 45.4976 153.072 43.6328 156.143 40.6291C160.532 36.3411 162.754 30.8584 162.754 24.3372C162.754 17.5591 160.532 12.0205 156.154 7.85543C153.151 5.01914 149.745 3.266 146.015 2.61835ZM142.609 2.94217C138.958 2.94217 136.278 4.68415 134.413 8.27975C132.537 11.9089 131.588 17.3246 131.588 24.3707C131.588 31.3385 132.537 36.7431 134.424 40.4504C136.278 44.1018 138.958 45.8773 142.609 45.8773C146.216 45.8773 148.896 44.1018 150.806 40.4392C152.726 36.7431 153.698 31.3385 153.698 24.3707C153.698 17.3246 152.749 11.9089 150.873 8.27975C149.008 4.68415 146.306 2.94217 142.609 2.94217Z" fill="#1A1A1A"/>
<path fill-rule="evenodd" clip-rule="evenodd" d="M142.644 47.7424C137.239 47.7424 132.404 45.7436 128.273 41.8018C123.639 37.3575 121.283 31.484 121.283 24.3374C121.283 17.4812 123.639 11.7193 128.273 7.23037C132.494 3.1546 137.329 1.07764 142.644 1.07764C148.049 1.07764 152.884 3.0541 157.015 6.95121C161.649 11.362 164.005 17.202 164.005 24.3374C164.005 31.2048 161.649 36.989 157.015 41.5226C152.806 45.6431 147.97 47.7424 142.644 47.7424ZM142.644 1.83696C137.53 1.83696 132.862 3.82459 128.798 7.76636C124.309 12.1101 122.042 17.6934 122.042 24.3374C122.042 31.2718 124.309 36.9556 128.798 41.2658C132.773 45.0624 137.44 46.9831 142.644 46.9831C147.769 46.9831 152.426 44.9731 156.502 40.9867C160.979 36.5982 163.246 30.9926 163.246 24.3374C163.246 17.4254 160.979 11.7528 156.49 7.49837C152.515 3.73526 147.848 1.83696 142.644 1.83696ZM139.182 46.5587C135.386 45.8887 131.924 44.0798 128.876 41.1653C124.42 36.8997 122.165 31.2271 122.165 24.3374C122.165 17.7269 124.42 12.1771 128.876 7.85569C131.935 4.90774 135.33 3.04294 139.004 2.30595L139.205 3.03177C137.038 3.84693 135.274 5.53306 133.979 8.04552C132.058 11.7528 131.087 17.2467 131.087 24.3709C131.087 31.417 132.058 36.8997 133.979 40.674C135.308 43.2981 137.128 45.0401 139.372 45.8441L139.182 46.5587ZM136.29 3.86926C133.845 4.81841 131.533 6.32589 129.401 8.39169C125.101 12.5568 122.913 17.9279 122.913 24.3374C122.913 31.015 125.101 36.4977 129.401 40.6182C131.567 42.684 133.945 44.1803 136.514 45.0848C135.252 44.0798 134.18 42.7175 133.309 41.009C131.344 37.1342 130.339 31.5286 130.339 24.3709C130.339 17.1127 131.344 11.5071 133.309 7.69936C134.135 6.11372 135.129 4.82958 136.29 3.86926ZM146.05 46.5476L145.849 45.8217C148.071 45.0178 149.891 43.2758 151.253 40.6628C153.208 36.8997 154.201 31.417 154.201 24.3709C154.201 17.2355 153.23 11.7416 151.32 8.04552C149.98 5.46607 148.16 3.75759 145.893 2.96477L146.083 2.23895C149.88 2.90894 153.364 4.69558 156.412 7.57653C160.868 11.8086 163.135 17.4477 163.135 24.3374C163.135 30.948 160.868 36.5201 156.412 40.8862C153.297 43.9346 149.813 45.8441 146.05 46.5476ZM148.808 3.72409C150.059 4.69558 151.119 6.02439 151.979 7.69936C153.956 11.5071 154.949 17.1127 154.949 24.3709C154.949 31.5398 153.933 37.1342 151.912 41.009C151.041 42.684 149.992 44.0239 148.774 45.0066C151.309 44.0686 153.688 42.5053 155.887 40.3502C160.198 36.1292 162.375 30.747 162.375 24.3374C162.375 17.6599 160.198 12.2106 155.899 8.12369C153.743 6.08022 151.365 4.61741 148.808 3.72409ZM142.611 46.2461C138.803 46.2461 136.022 44.4036 134.09 40.607C132.181 36.8551 131.21 31.3946 131.21 24.3709C131.21 17.2579 132.181 11.7863 134.09 8.10136C136.022 4.37175 138.803 2.56278 142.611 2.56278C146.463 2.56278 149.277 4.37175 151.209 8.10136C153.118 11.7863 154.079 17.2579 154.079 24.3709C154.079 31.3946 153.085 36.8551 151.142 40.607C149.165 44.4036 146.374 46.2461 142.611 46.2461ZM142.611 3.31093C139.115 3.31093 136.547 4.98591 134.749 8.44752C132.907 12.0208 131.958 17.3807 131.958 24.3709C131.958 31.2718 132.907 36.6206 134.76 40.272C136.547 43.7894 139.115 45.4979 142.611 45.4979C146.072 45.4979 148.64 43.7894 150.472 40.2608C152.37 36.6206 153.33 31.2718 153.33 24.3709C153.33 17.3807 152.392 12.0208 150.539 8.44752C148.752 4.98591 146.161 3.31093 142.611 3.31093Z" fill="#1A1A1A"/>
<path d="M168.029 43.6001C168.647 43.6001 169.124 43.7713 169.459 44.1138C169.794 44.4636 169.961 44.9029 169.961 45.4314C169.961 45.9451 169.794 46.3731 169.459 46.7155C169.124 47.058 168.647 47.2292 168.029 47.2292C167.441 47.2292 166.976 47.0617 166.634 46.7267C166.291 46.3917 166.12 45.9599 166.12 45.4314C166.12 44.9029 166.287 44.4636 166.622 44.1138C166.957 43.7713 167.426 43.6001 168.029 43.6001Z" fill="#1A1A1A"/>
<path d="M179.23 44.7056C180.057 44.7056 180.742 44.4674 181.285 43.9909C181.829 43.5071 182.119 42.9152 182.156 42.2155H185.272C185.234 43.1311 184.948 43.9835 184.412 44.7726C183.876 45.5617 183.15 46.187 182.234 46.6486C181.319 47.1176 180.332 47.352 179.275 47.352C177.221 47.352 175.59 46.6858 174.384 45.3532C173.178 44.0207 172.575 42.182 172.575 39.837V39.4908C172.575 37.2575 173.175 35.4672 174.373 34.1198C175.564 32.7723 177.194 32.0986 179.264 32.0986C181.013 32.0986 182.439 32.6086 183.541 33.6284C184.635 34.6483 185.212 35.9883 185.272 37.6484H182.156C182.119 36.7997 181.832 36.1037 181.296 35.5602C180.753 35.0168 180.064 34.7451 179.23 34.7451C178.166 34.7451 177.343 35.1322 176.763 35.9064C176.182 36.6806 175.888 37.8568 175.881 39.435V39.971C175.881 41.5641 176.167 42.7515 176.74 43.5331C177.314 44.3222 178.144 44.713 179.23 44.7056Z" fill="#1A1A1A"/>
<path fill-rule="evenodd" clip-rule="evenodd" d="M186.589 39.5913C186.589 38.1471 186.871 36.8481 187.437 35.6942C188.01 34.5404 188.814 33.6508 189.849 33.0255C190.884 32.4076 192.071 32.0986 193.411 32.0986C195.391 32.0986 196.999 32.7388 198.235 34.0193C199.478 35.2922 200.148 36.9858 200.245 39.1L200.256 39.8705C200.256 41.3221 199.977 42.6175 199.419 43.7564C198.861 44.9029 198.064 45.7887 197.029 46.4141C195.994 47.0394 194.796 47.352 193.434 47.352C191.364 47.352 189.704 46.6597 188.453 45.2751C187.21 43.8904 186.589 42.048 186.589 39.7477V39.5913ZM189.894 39.8817C189.894 41.3929 190.207 42.5765 190.832 43.4326C191.45 44.2887 192.317 44.7168 193.434 44.7168C194.55 44.7168 195.418 44.2813 196.035 43.4103C196.661 42.5393 196.973 41.2663 196.973 39.5913C196.973 38.1099 196.653 36.9337 196.013 36.0627C195.373 35.1917 194.506 34.7563 193.411 34.7563C192.332 34.7563 191.476 35.1843 190.843 36.0404C190.21 36.8965 189.894 38.1769 189.894 39.8817Z" fill="#1A1A1A"/>
<path d="M205.605 32.3666L205.694 33.9076C206.729 32.7016 208.143 32.0986 209.937 32.0986C211.903 32.0986 213.246 32.8505 213.969 34.3543C215.041 32.8505 216.544 32.0986 218.48 32.0986C220.103 32.0986 221.312 32.549 222.109 33.4498C222.898 34.3431 223.304 35.6645 223.326 37.4139V47.0729H220.021V37.5032C220.021 36.5727 219.816 35.8915 219.407 35.4597C218.997 35.0205 218.323 34.8009 217.386 34.8009C216.634 34.8009 216.019 35.0019 215.543 35.4039C215.067 35.8134 214.735 36.3419 214.549 36.9896L214.56 47.0729H211.255V37.4027C211.21 35.6682 210.328 34.8009 208.609 34.8009C207.284 34.8009 206.346 35.3406 205.795 36.4201V47.0729H202.489V32.3666H205.605Z" fill="#1A1A1A"/>
</svg>
