<svg width="31" height="31" viewBox="0 0 31 31" fill="none" xmlns="http://www.w3.org/2000/svg">
<path d="M30.1867 30.5887H0V0.394531H30.1867V30.5887Z" fill="#ED1C24"/>
<path d="M7.36244 14.8306H10.4072C11.2856 14.8306 12.0077 14.1904 12.0077 13.312V12.3888C12.0077 12.369 12.0077 12.3492 12.0077 12.3293C12.1715 12.3293 12.3377 12.3293 12.5065 12.3293V18.0093C12.3352 18.0093 12.1715 18.0093 12.0077 18.0093C12.0077 17.915 12.0077 17.8208 12.0077 17.7264V17.0267C12.0077 16.1482 11.2856 15.5452 10.4072 15.5452H9.58831H8.51631H7.12424V18.791H7.13171V21.2997C7.13911 21.657 7.18378 21.7092 7.22844 21.8134C7.34758 22.0665 8.16644 22.2005 8.43444 22.2154C9.61811 22.2749 10.8315 22.3345 11.9928 22.0516C12.365 21.9622 12.7224 21.8357 13.0648 21.672C14.1516 21.1434 14.9333 20.4808 15.0673 19.0739H15.3279V22.8184H2.84375V22.5727C3.24574 22.5727 4.49639 22.6248 4.77183 22.0888C4.82146 21.9896 4.84627 21.7265 4.84627 21.2997V9.66424C4.84627 9.22257 4.81898 8.94957 4.76438 8.84537C4.7346 8.78084 4.64031 8.71884 4.4815 8.65924C4.03484 8.48804 3.32763 8.39124 2.84375 8.39124V8.16797C11.0077 8.16797 19.1741 8.16797 27.343 8.16797V12.1953V12.2623H27.0452C27.0403 12.2424 27.0353 12.2201 27.0304 12.1953C26.8517 10.9744 26.74 10.1332 25.869 9.4707C25.1544 8.91984 23.7772 8.7337 22.7052 8.7337C22.4223 8.7337 22.266 8.74857 22.2362 8.77837C22.1766 8.82304 22.132 8.84537 22.132 9.19524V21.2997C22.132 21.7414 22.1618 22.0218 22.2213 22.1409C22.2461 22.2054 22.3454 22.27 22.5191 22.3345C23.0104 22.528 23.9335 22.5727 24.462 22.5727V22.8184H17.5016V22.5727C18.0302 22.5727 18.9384 22.528 19.4222 22.3345C19.596 22.27 19.7076 22.1881 19.7572 22.0888C19.8069 21.9896 19.8317 21.7265 19.8317 21.2997V9.21757C19.8317 8.82304 19.8094 8.78584 19.72 8.75604C19.6754 8.74117 19.524 8.7337 19.2659 8.7337C18.3279 8.7337 17.0326 8.91984 16.3626 9.45584C15.581 10.0662 15.3279 11.2424 15.1939 12.1953H14.8886C14.8068 11.6221 14.7546 11.1308 14.6876 10.7139C14.442 9.2399 13.5114 9.0687 12.1045 8.86024C11.2186 8.72624 10.1987 8.72624 9.20864 8.72624C8.57591 8.7337 7.95058 8.77837 7.47411 8.94957C7.34011 8.99424 7.25824 9.08357 7.20611 9.18784C7.16144 9.28457 7.13171 9.39624 7.13171 9.83544V11.5476H7.12424V14.8306" fill="white"/>
</svg>
