<?xml version="1.0" encoding="UTF-8"?><svg xmlns="http://www.w3.org/2000/svg" viewBox="0 0 500 368.76"><defs><style>.h,.i,.j,.k,.l,.m,.n,.o,.p,.q,.r,.s,.t,.u,.v,.w,.x,.y,.z,.aa,.ab,.ac{stroke-width:0px;}.h,.ad,.q{opacity:.6;}.i{opacity:.7;}.i,.j,.k,.l,.n,.q,.r,.v{fill:#fff;}.j,.m,.ac{opacity:.2;}.k{opacity:.1;}.l{opacity:.9;}.m{isolation:isolate;}.n{opacity:.5;}.o,.ae{opacity:.4;}.af,.r{opacity:.3;}.ag{opacity:.8;}.s{fill:#263238;}.t{fill:#407bff;}.u{fill:#e0e0e0;}.w{fill:#ffb573;}.x{fill:#ebebeb;}.y{fill:#ed893e;}.z{fill:#f0f0f0;}.aa{fill:#e6e6e6;}.ab{fill:#f5f5f5;}</style></defs><g id="a"><rect class="x" x="50.1" y="343.54" width="33.12" height=".25"/><rect class="x" x="168.78" y="346.26" width="8.69" height=".25"/><rect class="x" x="84.22" y="334.26" width="19.19" height=".25"/><rect class="x" x="404.35" y="335.94" width="43.19" height=".25"/><rect class="x" x="389.11" y="335.94" width="6.33" height=".25"/><rect class="x" x="274.85" y="340.16" width="93.68" height=".25"/><path class="x" d="m257.28,277.14V5.71C257.28,2.56,259.84,0,262.99,0h193.1c3.15,0,5.71,2.56,5.71,5.71v271.43c0,3.15-2.56,5.71-5.71,5.71h-193.1c-3.15,0-5.71-2.56-5.71-5.71ZM262.99.25c-3.01,0-5.46,2.45-5.46,5.46v271.43c0,3.01,2.45,5.46,5.46,5.46h193.1c3.01,0,5.46-2.45,5.46-5.46V5.71c0-3.01-2.45-5.46-5.46-5.46h-193.1Z"/><path class="x" d="m40.98,277.14V5.71c0-3.15,2.56-5.71,5.71-5.71h193.1c3.15,0,5.71,2.56,5.71,5.71v271.43c0,3.15-2.56,5.71-5.71,5.71H46.69c-3.15,0-5.71-2.56-5.71-5.71ZM46.69.25c-3.01,0-5.46,2.45-5.46,5.46v271.43c0,3.01,2.45,5.46,5.46,5.46h193.1c3.01,0,5.46-2.45,5.46-5.46V5.71c0-3.01-2.45-5.46-5.46-5.46H46.69Z"/><rect class="x" x="0" y="327.45" width="500" height=".25"/><path class="z" d="m402.32,118.93s0-.08,0-.12c0-2.37-.54-4.61-1.49-6.63,3.02-2.85,4.92-6.88,4.92-11.36,0-8.63-6.99-15.62-15.62-15.62-1.56,0-3.07.24-4.49.66-1.92-1.96-4.36-3.39-7.09-4.13.24-1.08.37-2.2.37-3.36,0-8.63-6.99-15.62-15.62-15.62-5.16,0-9.72,2.51-12.56,6.36-2.7-2.22-6.15-3.55-9.92-3.55-1.5,0-2.94.22-4.31.62.25-1.1.39-2.25.39-3.42,0-8.63-6.99-15.62-15.62-15.62-1.07,0-2.1.11-3.11.31-2.85-3.81-7.38-6.3-12.51-6.3-7.95,0-14.5,5.95-15.48,13.63-6.18,2.08-10.63,7.91-10.63,14.79,0,3,.86,5.8,2.33,8.18-11.12,3.27-19.45,13.01-20.62,24.88-4.95,2.62-8.32,7.82-8.32,13.81,0,.4.03.79.06,1.18-12.02,3.51-20.81,14.6-20.81,27.75,0,15.98,12.95,28.93,28.93,28.93,3.13,0,6.14-.51,8.97-1.43,4.86,3.69,10.9,5.91,17.47,5.91,11.96,0,22.22-7.26,26.63-17.61,3.4,1.4,7.12,2.19,11.03,2.19.89,0,1.77-.05,2.65-.13,4.57,9.96,14.6,16.9,26.28,16.9,10.18,0,19.11-5.27,24.26-13.21,5.3,5.97,13.01,9.75,21.62,9.75,15.98,0,28.93-12.95,28.93-28.93s-11.73-27.63-26.62-28.81Z"/><path class="u" d="m428.94,147.75c0-5.32-1.46-10.28-3.96-14.56-1.46,1.11-2.65,2.55-3.42,4.24-1.8-.7-3.75-1.1-5.8-1.1-8.48,0-15.4,6.62-15.91,14.97-1.62-.91-3.48-1.43-5.46-1.43-2.27,0-4.38.68-6.14,1.84-.76-5.44-5.41-9.63-11.06-9.63-1.33,0-2.6.24-3.78.67-3.78-3.95-9.09-6.42-14.98-6.42-3.07,0-5.97.68-8.59,1.88-3.06-7.65-10.52-13.06-19.26-13.06s-15.87,5.16-19.05,12.53c-2.28-.86-4.74-1.35-7.31-1.35-5.17,0-9.88,1.9-13.51,5.02-1.95-1.66-4.47-2.67-7.24-2.67-5.78,0-10.53,4.38-11.12,10-1.97-1.73-4.54-2.79-7.37-2.79-5.44,0-9.97,3.89-10.97,9.03-2-3.05-5.44-5.07-9.35-5.07-4.57,0-8.49,2.74-10.23,6.67,4.37,10.44,14.67,17.78,26.7,17.78,3.13,0,6.14-.51,8.97-1.43,4.86,3.69,10.9,5.91,17.47,5.91,11.96,0,22.22-7.26,26.63-17.61,3.4,1.4,7.12,2.19,11.03,2.19.89,0,1.77-.05,2.65-.13,4.57,9.96,14.6,16.9,26.28,16.9,10.18,0,19.11-5.27,24.26-13.21,5.3,5.97,13.01,9.75,21.62,9.75,15.98,0,28.93-12.95,28.93-28.93Z"/><path class="x" d="m376.53,153.55l-3.02-.92-18.02,23.24,1.67-27.19-2.85-1.35s-1.65,24.43-4.16,32.14c-2.23,6.85-13.8,25.28-13.8,25.28,0,0-10.33-12.89-11.09-18.16-1.53-10.53,10.91-41.16,10.91-41.16l-4.14.22-13.06,31.76s-6.07-8.36-6.92-12.42c-1.12-5.4,3.06-21.84,3.06-21.84l-3.92-1.26-4.44,21.17-25.95-12.55-2.47,1.97s21,11.78,26.49,17.51c8.52,8.9,19.28,32.11,21.92,44.15,6.04,27.55-3.32,112.76-3.32,112.76h27.52s-10.06-87.67-5.41-116.44c1.17-7.21,10.49-27.29,10.49-27.29l20.5-29.64Z"/><path class="z" d="m152.01,317.91c-2.45-4.16-2.28-8.94.65-11.36,1.2-.99,2.72-1.43,4.33-1.41-.17-4.04,1.15-7.72,4.01-10.08,3.97-3.27,9.86-3.15,15.21-.24,6.16-8.87,16.26-12.7,23.46-8.54,2.47,1.43,4.29,3.63,5.44,6.29,10.32-3.67,20.92-.78,24.29,6.92.89,2.02,1.18,4.19.97,6.37,3.02-.64,5.92.04,7.64,2.12,2.13,2.58,1.79,6.55-.5,9.94h-85.5Z"/><path class="aa" d="m50.29,317.91c-3.31-6.21-2.41-13.46,2.48-17.11.71-.53,1.46-.95,2.25-1.28-.2-2.89.66-5.49,2.69-7,1.24-.93,2.75-1.33,4.36-1.27-1.63-8.3,1.31-16.01,7.31-18.05,6.78-2.31,14.89,3.48,18.11,12.94,0,0,0,.01,0,.02,1.35-.54,2.76-.7,4.13-.36,1.41.35,2.62,1.17,3.57,2.33,4.85-3.64,10.62-4.38,14.26-1.39,3.21,2.64,3.89,7.47,2.2,12.33,1.63.36,3.16,1.08,4.49,2.17,4.58,3.76,5.24,10.75,1.98,16.69H50.29Z"/><path class="z" d="m436.45,317.91c3.31-6.21,2.41-13.46-2.48-17.11-.71-.53-1.46-.95-2.25-1.28.2-2.89-.66-5.49-2.69-7-1.24-.93-2.75-1.33-4.36-1.27,1.64-8.3-1.31-16.01-7.31-18.05-6.78-2.31-14.89,3.48-18.11,12.93,0,0,0,.01,0,.02-1.35-.54-2.76-.7-4.13-.36-1.41.35-2.62,1.17-3.57,2.33-4.85-3.64-10.62-4.38-14.26-1.39-3.21,2.64-3.89,7.47-2.2,12.33-1.63.36-3.16,1.08-4.49,2.17-4.58,3.76-5.24,10.75-1.98,16.69h67.84Z"/><path class="ab" d="m419.77,317.73h41.71v4.45c0,2.82-2.29,5.11-5.11,5.11h-31.48c-2.82,0-5.11-2.29-5.11-5.11v-4.45h0Z" transform="translate(881.24 645.02) rotate(-180)"/><path class="aa" d="m381.64,317.73h41.71v4.45c0,2.82-2.29,5.11-5.11,5.11h-31.48c-2.82,0-5.11-2.29-5.11-5.11v-4.45h0Z" transform="translate(804.99 645.02) rotate(-180)"/><path class="ab" d="m343.52,317.73h41.71v4.45c0,2.82-2.29,5.11-5.11,5.11h-31.48c-2.82,0-5.11-2.29-5.11-5.11v-4.45h0Z" transform="translate(728.75 645.02) rotate(-180)"/><path class="aa" d="m305.39,317.73h41.71v4.45c0,2.82-2.29,5.11-5.11,5.11h-31.48c-2.82,0-5.11-2.29-5.11-5.11v-4.45h0Z" transform="translate(652.5 645.02) rotate(-180)"/><path class="ab" d="m267.27,317.73h41.71v4.45c0,2.82-2.29,5.11-5.11,5.11h-31.48c-2.82,0-5.11-2.29-5.11-5.11v-4.45h0Z" transform="translate(576.25 645.02) rotate(-180)"/><path class="aa" d="m229.15,317.73h41.71v4.45c0,2.82-2.29,5.11-5.11,5.11h-31.48c-2.82,0-5.11-2.29-5.11-5.11v-4.45h0Z" transform="translate(500 645.02) rotate(-180)"/><path class="ab" d="m191.02,317.73h41.71v4.45c0,2.82-2.29,5.11-5.11,5.11h-31.48c-2.82,0-5.11-2.29-5.11-5.11v-4.45h0Z" transform="translate(423.75 645.02) rotate(-180)"/><path class="aa" d="m152.9,317.73h41.71v4.45c0,2.82-2.29,5.11-5.11,5.11h-31.48c-2.82,0-5.11-2.29-5.11-5.11v-4.45h0Z" transform="translate(347.5 645.02) rotate(-180)"/><path class="ab" d="m114.77,317.73h41.71v4.45c0,2.82-2.29,5.11-5.11,5.11h-31.48c-2.82,0-5.11-2.29-5.11-5.11v-4.45h0Z" transform="translate(271.25 645.02) rotate(-180)"/><path class="aa" d="m76.65,317.73h41.71v4.45c0,2.82-2.29,5.11-5.11,5.11h-31.48c-2.82,0-5.11-2.29-5.11-5.11v-4.45h0Z" transform="translate(195.01 645.02) rotate(-180)"/><path class="ab" d="m38.52,317.73h41.71v4.45c0,2.82-2.29,5.11-5.11,5.11h-31.48c-2.82,0-5.11-2.29-5.11-5.11v-4.45h0Z" transform="translate(118.76 645.02) rotate(-180)"/><path class="ab" d="m74.67,50.17c1.91,0,3.66.62,5.1,1.65-.53-1.42-.83-2.94-.83-4.54,0-7.18,5.82-13,13-13,2.21,0,4.28.55,6.1,1.52,1.85-4.92,6.59-8.43,12.16-8.43,7.18,0,13,5.82,13,13,0,.59-.05,1.16-.13,1.73,1.09-.3,2.23-.47,3.42-.47,7.18,0,13,5.82,13,13s-5.82,13-13,13-46.98,0-51.81,0-8.73-3.91-8.73-8.73,3.91-8.73,8.73-8.73Z"/><path class="ab" d="m389.07,54.58c1.04,0,2,.34,2.78.9-.29-.77-.45-1.6-.45-2.47,0-3.91,3.17-7.08,7.08-7.08,1.2,0,2.33.3,3.32.83,1.01-2.68,3.59-4.59,6.62-4.59,3.91,0,7.08,3.17,7.08,7.08,0,.32-.03.63-.07.94.59-.16,1.22-.26,1.86-.26,3.91,0,7.08,3.17,7.08,7.08s-3.17,7.08-7.08,7.08h-28.22c-2.63,0-4.76-2.13-4.76-4.76s2.13-4.76,4.76-4.76Z"/><path class="ab" d="m213.36,40.95c1.78,0,3.42.58,4.75,1.54-.49-1.32-.78-2.74-.78-4.23,0-6.69,5.42-12.12,12.12-12.12,2.06,0,3.99.52,5.69,1.42,1.72-4.59,6.14-7.86,11.33-7.86,6.69,0,12.12,5.42,12.12,12.12,0,.55-.05,1.08-.12,1.61,1.02-.28,2.08-.44,3.18-.44,6.69,0,12.12,5.42,12.12,12.12s-5.42,12.12-12.12,12.12-43.8,0-48.29,0-8.14-3.64-8.14-8.14,3.64-8.14,8.14-8.14Z"/></g><g id="b"><ellipse id="c" class="ab" cx="254.82" cy="357.44" rx="193.89" ry="11.32"/></g><g id="d"><path class="t" d="m399.41,326.41c4.5-.96,5.91,3.5,6.35,6.39.89-2.71,2.01-5.55,3.37-8.38-2.19-2.26-8.59-9.18-3.82-8.64,3.81.43,4.53,4.45,4.6,7.08,1.34-2.57,2.91-5.1,4.74-7.48-1.33-1.74-6.76-9.08-2.68-8.51,3.66.51,3.39,5.77,3.11,7.94.89-1.12,1.83-2.19,2.84-3.22.5-.51,1.32-.49,1.82,0,2.4-2.17,8.4-6.89,10.69-2.04,2.36,4.97-6.84,3.85-10.38,3.25-.06.22-.15.43-.32.6-1.92,1.95-3.6,4.11-5.07,6.38,2.77-1.28,9.13-3.66,10.72.65,1.76,4.78-8.46,1.32-11.3.27-1.67,2.71-3.07,5.55-4.23,8.41,3.15-1.13,10.85-3.39,11.02,1.57.18,5.21-8.53.99-11.43-.55-.88,2.28-1.62,4.56-2.24,6.76,2.79-.18,9.3-.04,9.54,5.13.25,5.39-7.14-1.39-9.84-4.04-2.56,9.66-2.79,17.61-2.8,17.76l-2.58-.06c0-.3.19-7.41,2.39-16.54.34-1.42.75-2.93,1.22-4.5-2.72-1.62-11.33-7.06-5.76-8.24Z"/><path class="ac" d="m399.41,326.41c4.5-.96,5.91,3.5,6.35,6.39.89-2.71,2.01-5.55,3.37-8.38-2.19-2.26-8.59-9.18-3.82-8.64,3.81.43,4.53,4.45,4.6,7.08,1.34-2.57,2.91-5.1,4.74-7.48-1.33-1.74-6.76-9.08-2.68-8.51,3.66.51,3.39,5.77,3.11,7.94.89-1.12,1.83-2.19,2.84-3.22.5-.51,1.32-.49,1.82,0,2.4-2.17,8.4-6.89,10.69-2.04,2.36,4.97-6.84,3.85-10.38,3.25-.06.22-.15.43-.32.6-1.92,1.95-3.6,4.11-5.07,6.38,2.77-1.28,9.13-3.66,10.72.65,1.76,4.78-8.46,1.32-11.3.27-1.67,2.71-3.07,5.55-4.23,8.41,3.15-1.13,10.85-3.39,11.02,1.57.18,5.21-8.53.99-11.43-.55-.88,2.28-1.62,4.56-2.24,6.76,2.79-.18,9.3-.04,9.54,5.13.25,5.39-7.14-1.39-9.84-4.04-2.56,9.66-2.79,17.61-2.8,17.76l-2.58-.06c0-.3.19-7.41,2.39-16.54.34-1.42.75-2.93,1.22-4.5-2.72-1.62-11.33-7.06-5.76-8.24Z"/><path class="t" d="m403.27,358.05s26.78-2.88,13.92-7.73,21.51-4.22,13.71-8.22c-7.8-4.01,11.3-6.84,4.22-11.39-5.9-3.8-14.28,10.36-18.34,5.48-4.22-5.06-5.9,11.41-9.28,6.34-5.06-7.61-12.86,6.8-4.22,15.52Z"/><path class="t" d="m403.87,358.05s-30.32-8.3-15.45-12.31c14.87-4.01-20.69-8.57-11.46-12.35,9.22-3.78-9.27-11.01-2.4-15.06,7.48-4.41,15.17,17.1,20.35,12.33,7.81-7.2,2.86,14.56,7.02,9.25,3.99-5.09,12.97,8.56,1.94,18.14Z"/><path class="r" d="m403.87,358.05s-30.32-8.3-15.45-12.31c14.87-4.01-20.69-8.57-11.46-12.35,9.22-3.78-9.27-11.01-2.4-15.06,7.48-4.41,15.17,17.1,20.35,12.33,7.81-7.2,2.86,14.56,7.02,9.25,3.99-5.09,12.97,8.56,1.94,18.14Z"/></g><g id="e"><path class="t" d="m113.38,322.51h96.29c10.83,0,18.85-8.78,17.9-19.61l-20.14-230.15c-.95-10.83-10.5-19.61-21.33-19.61h-96.29c-10.83,0-18.85,8.78-17.9,19.61l20.14,230.15c.95,10.83,10.5,19.61,21.33,19.61Z"/><path class="s" d="m118.38,322.51h96.29c10.83,0,18.85-8.78,17.9-19.61l-20.14-230.15c-.95-10.83-10.5-19.61-21.33-19.61h-96.29c-10.83,0-18.85,8.78-17.9,19.61l20.14,230.15c.95,10.83,10.5,19.61,21.33,19.61Z"/><path class="t" d="m95.2,57.63h25.03c1.64,0,3.13,1.22,3.48,2.84l.17.78c.85,3.97,4.49,6.95,8.5,6.95h23.79c4,0,7.12-2.98,7.28-6.95l.03-.78c.07-1.63,1.34-2.84,2.98-2.84h25.03c8.35,0,15.71,6.77,16.44,15.11l20.14,230.15c.73,8.35-5.44,15.11-13.79,15.11h-96.29c-8.35,0-15.71-6.77-16.44-15.11l-20.14-230.15c-.73-8.35,5.44-15.11,13.79-15.11Z"/><path class="l" d="m95.2,57.63h25.03c1.64,0,3.13,1.22,3.48,2.84l.17.78c.85,3.97,4.49,6.95,8.5,6.95h23.79c4,0,7.12-2.98,7.28-6.95l.03-.78c.07-1.63,1.34-2.84,2.98-2.84h25.03c8.35,0,15.71,6.77,16.44,15.11l20.14,230.15c.73,8.35-5.44,15.11-13.79,15.11h-96.29c-8.35,0-15.71-6.77-16.44-15.11l-20.14-230.15c-.73-8.35,5.44-15.11,13.79-15.11Z"/><g class="ag"><path class="p" d="m149.4,60.18c.09,1.06,1.02,1.91,2.08,1.91s1.84-.86,1.75-1.91c-.09-1.06-1.02-1.91-2.08-1.91s-1.84.86-1.75,1.91Z"/><path class="p" d="m135.67,58.27h6.56c1.06,0,1.99.86,2.08,1.91s-.69,1.91-1.75,1.91h-6.56c-1.06,0-1.99-.86-2.08-1.91s.69-1.91,1.75-1.91Z"/></g><polygon class="t" points="197.05 68.17 195.02 68.17 194.85 66.14 196.87 66.14 197.05 68.17"/><polygon class="t" points="192.82 66.14 193 68.17 190.97 68.17 190.8 66.14 190.62 64.12 192.65 64.12 192.82 66.14"/><polygon class="t" points="188.42 62.09 188.6 64.12 188.77 66.14 188.95 68.17 186.92 68.17 186.75 66.14 186.57 64.12 186.39 62.09 188.42 62.09"/><path class="t" d="m92.44,62.23l.52,5.94h8.91s-.13-1.48-.13-1.48h.99s-.26-2.97-.26-2.97h-.99l-.13-1.49h-8.91Zm5.08,1.49h2.97s.26,2.97.26,2.97h-2.97s-.26-2.97-.26-2.97Z"/><path class="s" d="m160.56,99.38h34.15c1.8,0,3.13-1.46,2.98-3.26l-.54-6.15c-.16-1.8-1.75-3.26-3.55-3.26h-34.15c-1.8,0-3.13,1.46-2.98,3.26l.54,6.15c.16,1.8,1.75,3.26,3.55,3.26Z"/><path class="r" d="m160.56,99.38h34.15c1.8,0,3.13-1.46,2.98-3.26l-.54-6.15c-.16-1.8-1.75-3.26-3.55-3.26h-34.15c-1.8,0-3.13,1.46-2.98,3.26l.54,6.15c.16,1.8,1.75,3.26,3.55,3.26Z"/><polygon class="ac" points="86.11 128.05 212.63 128.05 210.76 106.71 84.24 106.71 86.11 128.05"/><path class="t" d="m93.81,89.05h10.66c.64,0,1.12-.52,1.06-1.17h0c-.06-.64-.62-1.17-1.27-1.17h-10.66c-.64,0-1.12.52-1.06,1.17h0c.06.64.62,1.17,1.27,1.17Z"/><path class="t" d="m94.72,99.38h10.66c.64,0,1.12-.52,1.06-1.17h0c-.06-.64-.62-1.17-1.27-1.17h-10.66c-.64,0-1.12.52-1.06,1.17h0c.06.64.62,1.17,1.27,1.17Z"/><path class="t" d="m94.27,94.21h10.66c.64,0,1.12-.52,1.06-1.17h0c-.06-.64-.62-1.17-1.27-1.17h-10.66c-.64,0-1.12.52-1.06,1.17h0c.06.64.62,1.17,1.27,1.17Z"/><path class="l" d="m102.11,123.71h91.42c3.59,0,6.25-2.91,5.93-6.5h0c-.31-3.59-3.48-6.5-7.07-6.5h-91.42c-3.59,0-6.25,2.91-5.93,6.5h0c.31,3.59,3.48,6.5,7.07,6.5Z"/><path class="t" d="m147.65,118.55c.05.17.13.33.27.45l3.36,3.09c.38.35.96.35,1.28,0,.32-.35.27-.93-.11-1.28l-3.36-3.09c-.14-.13-.3-.19-.47-.23.76-1.37.45-3.21-.86-4.4-1.5-1.38-3.73-1.38-4.99,0-1.26,1.38-1.06,3.61.44,4.99,1.3,1.2,3.15,1.35,4.44.47Zm-3.78-1.2c-1.06-.97-1.2-2.55-.31-3.53.89-.97,2.47-.97,3.53,0,1.06.97,1.2,2.55.31,3.53-.89.97-2.47.97-3.53,0Z"/><path class="s" d="m181.24,142.8h17.62c1.56,0,2.72-1.27,2.59-2.83h0c-.14-1.56-1.52-2.83-3.08-2.83h-17.62c-1.56,0-2.72,1.27-2.59,2.83h0c.14,1.56,1.52,2.83,3.08,2.83Z"/><path class="s" d="m135.49,142.8h36.26c1.56,0,2.72-1.27,2.59-2.83h0c-.14-1.56-1.52-2.83-3.08-2.83h-36.26c-1.56,0-2.72,1.27-2.59,2.83h0c.14,1.56,1.52,2.83,3.08,2.83Z"/><path class="s" d="m100.11,142.8h25.89c1.56,0,2.72-1.27,2.59-2.83h0c-.14-1.56-1.52-2.83-3.08-2.83h-25.89c-1.56,0-2.72,1.27-2.59,2.83h0c.14,1.56,1.52,2.83,3.08,2.83Z"/><path class="s" d="m163.3,154.96h36.62c1.56,0,2.72-1.27,2.59-2.83h0c-.14-1.56-1.52-2.83-3.08-2.83h-36.62c-1.56,0-2.72,1.27-2.59,2.83h0c.14,1.56,1.52,2.83,3.08,2.83Z"/><path class="s" d="m130.39,154.96h23.43c1.56,0,2.72-1.27,2.59-2.83h0c-.14-1.56-1.52-2.83-3.08-2.83h-23.43c-1.56,0-2.72,1.27-2.59,2.83h0c.14,1.56,1.52,2.83,3.08,2.83Z"/><path class="s" d="m108.23,154.96h12.67c1.56,0,2.72-1.27,2.59-2.83h0c-.14-1.56-1.52-2.83-3.08-2.83h-12.67c-1.56,0-2.72,1.27-2.59,2.83h0c.14,1.56,1.52,2.83,3.08,2.83Z"/><path class="s" d="m176.48,167.13h24.52c1.56,0,2.72-1.27,2.59-2.83h0c-.14-1.56-1.52-2.83-3.08-2.83h-24.52c-1.56,0-2.72,1.27-2.59,2.83h0c.14,1.56,1.52,2.83,3.08,2.83Z"/><path class="s" d="m135.71,167.13h31.28c1.56,0,2.72-1.27,2.59-2.83h0c-.14-1.56-1.52-2.83-3.08-2.83h-31.28c-1.56,0-2.72,1.27-2.59,2.83h0c.14,1.56,1.52,2.83,3.08,2.83Z"/><path class="s" d="m102.24,167.13h23.98c1.56,0,2.72-1.27,2.59-2.83h0c-.14-1.56-1.52-2.83-3.08-2.83h-23.98c-1.56,0-2.72,1.27-2.59,2.83h0c.14,1.56,1.52,2.83,3.08,2.83Z"/><path class="s" d="m167.34,179.3h34.71c1.56,0,2.72-1.27,2.59-2.83h0c-.14-1.56-1.52-2.83-3.08-2.83h-34.71c-1.56,0-2.72,1.27-2.59,2.83h0c.14,1.56,1.52,2.83,3.08,2.83Z"/><path class="s" d="m132.51,179.3h25.34c1.56,0,2.72-1.27,2.59-2.83h0c-.14-1.56-1.52-2.83-3.08-2.83h-25.34c-1.56,0-2.72,1.27-2.59,2.83h0c.14,1.56,1.52,2.83,3.08,2.83Z"/><path class="s" d="m107.36,179.3h15.67c1.56,0,2.72-1.27,2.59-2.83h0c-.14-1.56-1.52-2.83-3.08-2.83h-15.67c-1.56,0-2.72,1.27-2.59,2.83h0c.14,1.56,1.52,2.83,3.08,2.83Z"/><path class="s" d="m173.09,191.46h30.03c1.56,0,2.72-1.27,2.59-2.83h0c-.14-1.56-1.52-2.83-3.08-2.83h-30.03c-1.56,0-2.72,1.27-2.59,2.83h0c.14,1.56,1.52,2.83,3.08,2.83Z"/><path class="s" d="m139.75,191.46h23.86c1.56,0,2.72-1.27,2.59-2.83h0c-.14-1.56-1.52-2.83-3.08-2.83h-23.86c-1.56,0-2.72,1.27-2.59,2.83h0c.14,1.56,1.52,2.83,3.08,2.83Z"/><path class="s" d="m108.43,191.46h21.83c1.56,0,2.72-1.27,2.59-2.83h0c-.14-1.56-1.52-2.83-3.08-2.83h-21.83c-1.56,0-2.72,1.27-2.59,2.83h0c.14,1.56,1.52,2.83,3.08,2.83Z"/><path class="s" d="m184.65,203.63h19.53c1.56,0,2.72-1.27,2.59-2.83h0c-.14-1.56-1.52-2.83-3.08-2.83h-19.53c-1.56,0-2.72,1.27-2.59,2.83h0c.14,1.56,1.52,2.83,3.08,2.83Z"/><path class="s" d="m148.24,203.63h26.93c1.56,0,2.72-1.27,2.59-2.83h0c-.14-1.56-1.52-2.83-3.08-2.83h-26.93c-1.56,0-2.72,1.27-2.59,2.83h0c.14,1.56,1.52,2.83,3.08,2.83Z"/><path class="s" d="m107.24,203.63h31.51c1.56,0,2.72-1.27,2.59-2.83h0c-.14-1.56-1.52-2.83-3.08-2.83h-31.51c-1.56,0-2.72,1.27-2.59,2.83h0c.14,1.56,1.52,2.83,3.08,2.83Z"/><path class="s" d="m175.22,215.8h30.03c1.56,0,2.72-1.27,2.59-2.83h0c-.14-1.56-1.52-2.83-3.08-2.83h-30.03c-1.56,0-2.72,1.27-2.59,2.83h0c.14,1.56,1.52,2.83,3.08,2.83Z"/><path class="s" d="m149.3,215.8h16.43c1.56,0,2.72-1.27,2.59-2.83h0c-.14-1.56-1.52-2.83-3.08-2.83h-16.43c-1.56,0-2.72,1.27-2.59,2.83h0c.14,1.56,1.52,2.83,3.08,2.83Z"/><path class="s" d="m106.5,215.8h33.32c1.56,0,2.72-1.27,2.59-2.83h0c-.14-1.56-1.52-2.83-3.08-2.83h-33.32c-1.56,0-2.72,1.27-2.59,2.83h0c.14,1.56,1.52,2.83,3.08,2.83Z"/><path class="s" d="m167.78,227.96h38.53c1.56,0,2.72-1.27,2.59-2.83h0c-.14-1.56-1.52-2.83-3.08-2.83h-38.53c-1.56,0-2.72,1.27-2.59,2.83h0c.14,1.56,1.52,2.83,3.08,2.83Z"/><path class="s" d="m139.12,227.96h19.17c1.56,0,2.72-1.27,2.59-2.83h0c-.14-1.56-1.52-2.83-3.08-2.83h-19.17c-1.56,0-2.72,1.27-2.59,2.83h0c.14,1.56,1.52,2.83,3.08,2.83Z"/><path class="s" d="m111.62,227.96h18.01c1.56,0,2.72-1.27,2.59-2.83h0c-.14-1.56-1.52-2.83-3.08-2.83h-18.01c-1.56,0-2.72,1.27-2.59,2.83h0c.14,1.56,1.52,2.83,3.08,2.83Z"/><path class="s" d="m182.86,240.13h24.52c1.56,0,2.72-1.27,2.59-2.83h0c-.14-1.56-1.52-2.83-3.08-2.83h-24.52c-1.56,0-2.72,1.27-2.59,2.83h0c.14,1.56,1.52,2.83,3.08,2.83Z"/><path class="s" d="m137.84,240.13h35.54c1.56,0,2.72-1.27,2.59-2.83h0c-.14-1.56-1.52-2.83-3.08-2.83h-35.54c-1.56,0-2.72,1.27-2.59,2.83h0c.14,1.56,1.52,2.83,3.08,2.83Z"/><path class="s" d="m114.24,240.13h14.11c1.56,0,2.72-1.27,2.59-2.83h0c-.14-1.56-1.52-2.83-3.08-2.83h-14.11c-1.56,0-2.72,1.27-2.59,2.83h0c.14,1.56,1.52,2.83,3.08,2.83Z"/><path class="s" d="m175.64,252.3h32.8c1.56,0,2.72-1.27,2.59-2.83h0c-.14-1.56-1.52-2.83-3.08-2.83h-32.8c-1.56,0-2.72,1.27-2.59,2.83h0c.14,1.56,1.52,2.83,3.08,2.83Z"/><path class="s" d="m135.08,252.3h31.07c1.56,0,2.72-1.27,2.59-2.83h0c-.14-1.56-1.52-2.83-3.08-2.83h-31.07c-1.56,0-2.72,1.27-2.59,2.83h0c.14,1.56,1.52,2.83,3.08,2.83Z"/><path class="s" d="m109.69,252.3h15.9c1.56,0,2.72-1.27,2.59-2.83h0c-.14-1.56-1.52-2.83-3.08-2.83h-15.9c-1.56,0-2.72,1.27-2.59,2.83h0c.14,1.56,1.52,2.83,3.08,2.83Z"/><path class="s" d="m179.48,264.46h30.03c1.56,0,2.72-1.27,2.59-2.83h0c-.14-1.56-1.52-2.83-3.08-2.83h-30.03c-1.56,0-2.72,1.27-2.59,2.83h0c.14,1.56,1.52,2.83,3.08,2.83Z"/><path class="s" d="m139.97,264.46h30.03c1.56,0,2.72-1.27,2.59-2.83h0c-.14-1.56-1.52-2.83-3.08-2.83h-30.03c-1.56,0-2.72,1.27-2.59,2.83h0c.14,1.56,1.52,2.83,3.08,2.83Z"/><path class="s" d="m114.81,264.46h15.67c1.56,0,2.72-1.27,2.59-2.83h0c-.14-1.56-1.52-2.83-3.08-2.83h-15.67c-1.56,0-2.72,1.27-2.59,2.83h0c.14,1.56,1.52,2.83,3.08,2.83Z"/><path class="s" d="m189.13,276.63h21.44c1.56,0,2.72-1.27,2.59-2.83h0c-.14-1.56-1.52-2.83-3.08-2.83h-21.44c-1.56,0-2.72,1.27-2.59,2.83h0c.14,1.56,1.52,2.83,3.08,2.83Z"/><path class="s" d="m149.11,276.63h30.53c1.56,0,2.72-1.27,2.59-2.83h0c-.14-1.56-1.52-2.83-3.08-2.83h-30.53c-1.56,0-2.72,1.27-2.59,2.83h0c.14,1.56,1.52,2.83,3.08,2.83Z"/><path class="s" d="m111.82,276.63h27.8c1.56,0,2.72-1.27,2.59-2.83h0c-.14-1.56-1.52-2.83-3.08-2.83h-27.8c-1.56,0-2.72,1.27-2.59,2.83h0c.14,1.56,1.52,2.83,3.08,2.83Z"/><path class="s" d="m187.12,288.8h24.52c1.56,0,2.72-1.27,2.59-2.83h0c-.14-1.56-1.52-2.83-3.08-2.83h-24.52c-1.56,0-2.72,1.27-2.59,2.83h0c.14,1.56,1.52,2.83,3.08,2.83Z"/><path class="s" d="m157.6,288.8h20.03c1.56,0,2.72-1.27,2.59-2.83h0c-.14-1.56-1.52-2.83-3.08-2.83h-20.03c-1.56,0-2.72,1.27-2.59,2.83h0c.14,1.56,1.52,2.83,3.08,2.83Z"/><path class="s" d="m118.5,288.8h29.61c1.56,0,2.72-1.27,2.59-2.83h0c-.14-1.56-1.52-2.83-3.08-2.83h-29.61c-1.56,0-2.72,1.27-2.59,2.83h0c.14,1.56,1.52,2.83,3.08,2.83Z"/><path class="s" d="m182.67,300.96h30.03c1.56,0,2.72-1.27,2.59-2.83h0c-.14-1.56-1.52-2.83-3.08-2.83h-30.03c-1.56,0-2.72,1.27-2.59,2.83h0c.14,1.56,1.52,2.83,3.08,2.83Z"/><path class="s" d="m143.16,300.96h30.03c1.56,0,2.72-1.27,2.59-2.83h0c-.14-1.56-1.52-2.83-3.08-2.83h-30.03c-1.56,0-2.72,1.27-2.59,2.83h0c.14,1.56,1.52,2.83,3.08,2.83Z"/><path class="s" d="m118.01,300.96h15.67c1.56,0,2.72-1.27,2.59-2.83h0c-.14-1.56-1.52-2.83-3.08-2.83h-15.67c-1.56,0-2.72,1.27-2.59,2.83h0c.14,1.56,1.52,2.83,3.08,2.83Z"/><path class="s" d="m181.24,142.8h17.62c1.56,0,2.72-1.27,2.59-2.83h0c-.14-1.56-1.52-2.83-3.08-2.83h-17.62c-1.56,0-2.72,1.27-2.59,2.83h0c.14,1.56,1.52,2.83,3.08,2.83Z"/><path class="s" d="m135.49,142.8h36.26c1.56,0,2.72-1.27,2.59-2.83h0c-.14-1.56-1.52-2.83-3.08-2.83h-36.26c-1.56,0-2.72,1.27-2.59,2.83h0c.14,1.56,1.52,2.83,3.08,2.83Z"/><path class="s" d="m100.11,142.8h25.89c1.56,0,2.72-1.27,2.59-2.83h0c-.14-1.56-1.52-2.83-3.08-2.83h-25.89c-1.56,0-2.72,1.27-2.59,2.83h0c.14,1.56,1.52,2.83,3.08,2.83Z"/><path class="s" d="m163.3,154.96h36.62c1.56,0,2.72-1.27,2.59-2.83h0c-.14-1.56-1.52-2.83-3.08-2.83h-36.62c-1.56,0-2.72,1.27-2.59,2.83h0c.14,1.56,1.52,2.83,3.08,2.83Z"/><path class="s" d="m130.39,154.96h23.43c1.56,0,2.72-1.27,2.59-2.83h0c-.14-1.56-1.52-2.83-3.08-2.83h-23.43c-1.56,0-2.72,1.27-2.59,2.83h0c.14,1.56,1.52,2.83,3.08,2.83Z"/><path class="s" d="m108.23,154.96h12.67c1.56,0,2.72-1.27,2.59-2.83h0c-.14-1.56-1.52-2.83-3.08-2.83h-12.67c-1.56,0-2.72,1.27-2.59,2.83h0c.14,1.56,1.52,2.83,3.08,2.83Z"/><path class="s" d="m176.48,167.13h24.52c1.56,0,2.72-1.27,2.59-2.83h0c-.14-1.56-1.52-2.83-3.08-2.83h-24.52c-1.56,0-2.72,1.27-2.59,2.83h0c.14,1.56,1.52,2.83,3.08,2.83Z"/><path class="s" d="m135.71,167.13h31.28c1.56,0,2.72-1.27,2.59-2.83h0c-.14-1.56-1.52-2.83-3.08-2.83h-31.28c-1.56,0-2.72,1.27-2.59,2.83h0c.14,1.56,1.52,2.83,3.08,2.83Z"/><path class="s" d="m102.24,167.13h23.98c1.56,0,2.72-1.27,2.59-2.83h0c-.14-1.56-1.52-2.83-3.08-2.83h-23.98c-1.56,0-2.72,1.27-2.59,2.83h0c.14,1.56,1.52,2.83,3.08,2.83Z"/><path class="s" d="m167.34,179.3h34.71c1.56,0,2.72-1.27,2.59-2.83h0c-.14-1.56-1.52-2.83-3.08-2.83h-34.71c-1.56,0-2.72,1.27-2.59,2.83h0c.14,1.56,1.52,2.83,3.08,2.83Z"/><path class="s" d="m132.51,179.3h25.34c1.56,0,2.72-1.27,2.59-2.83h0c-.14-1.56-1.52-2.83-3.08-2.83h-25.34c-1.56,0-2.72,1.27-2.59,2.83h0c.14,1.56,1.52,2.83,3.08,2.83Z"/><path class="s" d="m107.36,179.3h15.67c1.56,0,2.72-1.27,2.59-2.83h0c-.14-1.56-1.52-2.83-3.08-2.83h-15.67c-1.56,0-2.72,1.27-2.59,2.83h0c.14,1.56,1.52,2.83,3.08,2.83Z"/><path class="s" d="m173.09,191.46h30.03c1.56,0,2.72-1.27,2.59-2.83h0c-.14-1.56-1.52-2.83-3.08-2.83h-30.03c-1.56,0-2.72,1.27-2.59,2.83h0c.14,1.56,1.52,2.83,3.08,2.83Z"/><path class="s" d="m139.75,191.46h23.86c1.56,0,2.72-1.27,2.59-2.83h0c-.14-1.56-1.52-2.83-3.08-2.83h-23.86c-1.56,0-2.72,1.27-2.59,2.83h0c.14,1.56,1.52,2.83,3.08,2.83Z"/><path class="s" d="m108.43,191.46h21.83c1.56,0,2.72-1.27,2.59-2.83h0c-.14-1.56-1.52-2.83-3.08-2.83h-21.83c-1.56,0-2.72,1.27-2.59,2.83h0c.14,1.56,1.52,2.83,3.08,2.83Z"/><path class="s" d="m184.65,203.63h19.53c1.56,0,2.72-1.27,2.59-2.83h0c-.14-1.56-1.52-2.83-3.08-2.83h-19.53c-1.56,0-2.72,1.27-2.59,2.83h0c.14,1.56,1.52,2.83,3.08,2.83Z"/><path class="s" d="m148.24,203.63h26.93c1.56,0,2.72-1.27,2.59-2.83h0c-.14-1.56-1.52-2.83-3.08-2.83h-26.93c-1.56,0-2.72,1.27-2.59,2.83h0c.14,1.56,1.52,2.83,3.08,2.83Z"/><path class="s" d="m107.24,203.63h31.51c1.56,0,2.72-1.27,2.59-2.83h0c-.14-1.56-1.52-2.83-3.08-2.83h-31.51c-1.56,0-2.72,1.27-2.59,2.83h0c.14,1.56,1.52,2.83,3.08,2.83Z"/><path class="s" d="m175.22,215.8h30.03c1.56,0,2.72-1.27,2.59-2.83h0c-.14-1.56-1.52-2.83-3.08-2.83h-30.03c-1.56,0-2.72,1.27-2.59,2.83h0c.14,1.56,1.52,2.83,3.08,2.83Z"/><path class="s" d="m149.3,215.8h16.43c1.56,0,2.72-1.27,2.59-2.83h0c-.14-1.56-1.52-2.83-3.08-2.83h-16.43c-1.56,0-2.72,1.27-2.59,2.83h0c.14,1.56,1.52,2.83,3.08,2.83Z"/><path class="s" d="m106.5,215.8h33.32c1.56,0,2.72-1.27,2.59-2.83h0c-.14-1.56-1.52-2.83-3.08-2.83h-33.32c-1.56,0-2.72,1.27-2.59,2.83h0c.14,1.56,1.52,2.83,3.08,2.83Z"/><path class="s" d="m167.78,227.96h38.53c1.56,0,2.72-1.27,2.59-2.83h0c-.14-1.56-1.52-2.83-3.08-2.83h-38.53c-1.56,0-2.72,1.27-2.59,2.83h0c.14,1.56,1.52,2.83,3.08,2.83Z"/><path class="s" d="m139.12,227.96h19.17c1.56,0,2.72-1.27,2.59-2.83h0c-.14-1.56-1.52-2.83-3.08-2.83h-19.17c-1.56,0-2.72,1.27-2.59,2.83h0c.14,1.56,1.52,2.83,3.08,2.83Z"/><path class="s" d="m111.62,227.96h18.01c1.56,0,2.72-1.27,2.59-2.83h0c-.14-1.56-1.52-2.83-3.08-2.83h-18.01c-1.56,0-2.72,1.27-2.59,2.83h0c.14,1.56,1.52,2.83,3.08,2.83Z"/><path class="s" d="m182.86,240.13h24.52c1.56,0,2.72-1.27,2.59-2.83h0c-.14-1.56-1.52-2.83-3.08-2.83h-24.52c-1.56,0-2.72,1.27-2.59,2.83h0c.14,1.56,1.52,2.83,3.08,2.83Z"/><path class="s" d="m137.84,240.13h35.54c1.56,0,2.72-1.27,2.59-2.83h0c-.14-1.56-1.52-2.83-3.08-2.83h-35.54c-1.56,0-2.72,1.27-2.59,2.83h0c.14,1.56,1.52,2.83,3.08,2.83Z"/><path class="s" d="m114.24,240.13h14.11c1.56,0,2.72-1.27,2.59-2.83h0c-.14-1.56-1.52-2.83-3.08-2.83h-14.11c-1.56,0-2.72,1.27-2.59,2.83h0c.14,1.56,1.52,2.83,3.08,2.83Z"/><path class="s" d="m175.64,252.3h32.8c1.56,0,2.72-1.27,2.59-2.83h0c-.14-1.56-1.52-2.83-3.08-2.83h-32.8c-1.56,0-2.72,1.27-2.59,2.83h0c.14,1.56,1.52,2.83,3.08,2.83Z"/><path class="s" d="m135.08,252.3h31.07c1.56,0,2.72-1.27,2.59-2.83h0c-.14-1.56-1.52-2.83-3.08-2.83h-31.07c-1.56,0-2.72,1.27-2.59,2.83h0c.14,1.56,1.52,2.83,3.08,2.83Z"/><path class="s" d="m109.69,252.3h15.9c1.56,0,2.72-1.27,2.59-2.83h0c-.14-1.56-1.52-2.83-3.08-2.83h-15.9c-1.56,0-2.72,1.27-2.59,2.83h0c.14,1.56,1.52,2.83,3.08,2.83Z"/><path class="s" d="m179.48,264.46h30.03c1.56,0,2.72-1.27,2.59-2.83h0c-.14-1.56-1.52-2.83-3.08-2.83h-30.03c-1.56,0-2.72,1.27-2.59,2.83h0c.14,1.56,1.52,2.83,3.08,2.83Z"/><path class="s" d="m139.97,264.46h30.03c1.56,0,2.72-1.27,2.59-2.83h0c-.14-1.56-1.52-2.83-3.08-2.83h-30.03c-1.56,0-2.72,1.27-2.59,2.83h0c.14,1.56,1.52,2.83,3.08,2.83Z"/><path class="s" d="m114.81,264.46h15.67c1.56,0,2.72-1.27,2.59-2.83h0c-.14-1.56-1.52-2.83-3.08-2.83h-15.67c-1.56,0-2.72,1.27-2.59,2.83h0c.14,1.56,1.52,2.83,3.08,2.83Z"/><path class="s" d="m189.13,276.63h21.44c1.56,0,2.72-1.27,2.59-2.83h0c-.14-1.56-1.52-2.83-3.08-2.83h-21.44c-1.56,0-2.72,1.27-2.59,2.83h0c.14,1.56,1.52,2.83,3.08,2.83Z"/><path class="s" d="m149.11,276.63h30.53c1.56,0,2.72-1.27,2.59-2.83h0c-.14-1.56-1.52-2.83-3.08-2.83h-30.53c-1.56,0-2.72,1.27-2.59,2.83h0c.14,1.56,1.52,2.83,3.08,2.83Z"/><path class="s" d="m111.82,276.63h27.8c1.56,0,2.72-1.27,2.59-2.83h0c-.14-1.56-1.52-2.83-3.08-2.83h-27.8c-1.56,0-2.72,1.27-2.59,2.83h0c.14,1.56,1.52,2.83,3.08,2.83Z"/><path class="s" d="m187.12,288.8h24.52c1.56,0,2.72-1.27,2.59-2.83h0c-.14-1.56-1.52-2.83-3.08-2.83h-24.52c-1.56,0-2.72,1.27-2.59,2.83h0c.14,1.56,1.52,2.83,3.08,2.83Z"/><path class="s" d="m157.6,288.8h20.03c1.56,0,2.72-1.27,2.59-2.83h0c-.14-1.56-1.52-2.83-3.08-2.83h-20.03c-1.56,0-2.72,1.27-2.59,2.83h0c.14,1.56,1.52,2.83,3.08,2.83Z"/><path class="s" d="m118.5,288.8h29.61c1.56,0,2.72-1.27,2.59-2.83h0c-.14-1.56-1.52-2.83-3.08-2.83h-29.61c-1.56,0-2.72,1.27-2.59,2.83h0c.14,1.56,1.52,2.83,3.08,2.83Z"/><path class="s" d="m182.67,300.96h30.03c1.56,0,2.72-1.27,2.59-2.83h0c-.14-1.56-1.52-2.83-3.08-2.83h-30.03c-1.56,0-2.72,1.27-2.59,2.83h0c.14,1.56,1.52,2.83,3.08,2.83Z"/><path class="s" d="m143.16,300.96h30.03c1.56,0,2.72-1.27,2.59-2.83h0c-.14-1.56-1.52-2.83-3.08-2.83h-30.03c-1.56,0-2.72,1.27-2.59,2.83h0c.14,1.56,1.52,2.83,3.08,2.83Z"/><path class="s" d="m118.01,300.96h15.67c1.56,0,2.72-1.27,2.59-2.83h0c-.14-1.56-1.52-2.83-3.08-2.83h-15.67c-1.56,0-2.72,1.27-2.59,2.83h0c.14,1.56,1.52,2.83,3.08,2.83Z"/><g class="ad"><path class="v" d="m181.24,142.8h17.62c1.56,0,2.72-1.27,2.59-2.83h0c-.14-1.56-1.52-2.83-3.08-2.83h-17.62c-1.56,0-2.72,1.27-2.59,2.83h0c.14,1.56,1.52,2.83,3.08,2.83Z"/><path class="v" d="m135.49,142.8h36.26c1.56,0,2.72-1.27,2.59-2.83h0c-.14-1.56-1.52-2.83-3.08-2.83h-36.26c-1.56,0-2.72,1.27-2.59,2.83h0c.14,1.56,1.52,2.83,3.08,2.83Z"/><path class="v" d="m100.11,142.8h25.89c1.56,0,2.72-1.27,2.59-2.83h0c-.14-1.56-1.52-2.83-3.08-2.83h-25.89c-1.56,0-2.72,1.27-2.59,2.83h0c.14,1.56,1.52,2.83,3.08,2.83Z"/><path class="v" d="m163.3,154.96h36.62c1.56,0,2.72-1.27,2.59-2.83h0c-.14-1.56-1.52-2.83-3.08-2.83h-36.62c-1.56,0-2.72,1.27-2.59,2.83h0c.14,1.56,1.52,2.83,3.08,2.83Z"/><path class="v" d="m130.39,154.96h23.43c1.56,0,2.72-1.27,2.59-2.83h0c-.14-1.56-1.52-2.83-3.08-2.83h-23.43c-1.56,0-2.72,1.27-2.59,2.83h0c.14,1.56,1.52,2.83,3.08,2.83Z"/><path class="v" d="m108.23,154.96h12.67c1.56,0,2.72-1.27,2.59-2.83h0c-.14-1.56-1.52-2.83-3.08-2.83h-12.67c-1.56,0-2.72,1.27-2.59,2.83h0c.14,1.56,1.52,2.83,3.08,2.83Z"/><path class="v" d="m176.48,167.13h24.52c1.56,0,2.72-1.27,2.59-2.83h0c-.14-1.56-1.52-2.83-3.08-2.83h-24.52c-1.56,0-2.72,1.27-2.59,2.83h0c.14,1.56,1.52,2.83,3.08,2.83Z"/><path class="v" d="m135.71,167.13h31.28c1.56,0,2.72-1.27,2.59-2.83h0c-.14-1.56-1.52-2.83-3.08-2.83h-31.28c-1.56,0-2.72,1.27-2.59,2.83h0c.14,1.56,1.52,2.83,3.08,2.83Z"/><path class="v" d="m102.24,167.13h23.98c1.56,0,2.72-1.27,2.59-2.83h0c-.14-1.56-1.52-2.83-3.08-2.83h-23.98c-1.56,0-2.72,1.27-2.59,2.83h0c.14,1.56,1.52,2.83,3.08,2.83Z"/><path class="v" d="m167.34,179.3h34.71c1.56,0,2.72-1.27,2.59-2.83h0c-.14-1.56-1.52-2.83-3.08-2.83h-34.71c-1.56,0-2.72,1.27-2.59,2.83h0c.14,1.56,1.52,2.83,3.08,2.83Z"/><path class="v" d="m132.51,179.3h25.34c1.56,0,2.72-1.27,2.59-2.83h0c-.14-1.56-1.52-2.83-3.08-2.83h-25.34c-1.56,0-2.72,1.27-2.59,2.83h0c.14,1.56,1.52,2.83,3.08,2.83Z"/><path class="v" d="m107.36,179.3h15.67c1.56,0,2.72-1.27,2.59-2.83h0c-.14-1.56-1.52-2.83-3.08-2.83h-15.67c-1.56,0-2.72,1.27-2.59,2.83h0c.14,1.56,1.52,2.83,3.08,2.83Z"/><path class="v" d="m173.09,191.46h30.03c1.56,0,2.72-1.27,2.59-2.83h0c-.14-1.56-1.52-2.83-3.08-2.83h-30.03c-1.56,0-2.72,1.27-2.59,2.83h0c.14,1.56,1.52,2.83,3.08,2.83Z"/><path class="v" d="m139.75,191.46h23.86c1.56,0,2.72-1.27,2.59-2.83h0c-.14-1.56-1.52-2.83-3.08-2.83h-23.86c-1.56,0-2.72,1.27-2.59,2.83h0c.14,1.56,1.52,2.83,3.08,2.83Z"/><path class="v" d="m108.43,191.46h21.83c1.56,0,2.72-1.27,2.59-2.83h0c-.14-1.56-1.52-2.83-3.08-2.83h-21.83c-1.56,0-2.72,1.27-2.59,2.83h0c.14,1.56,1.52,2.83,3.08,2.83Z"/><path class="v" d="m184.65,203.63h19.53c1.56,0,2.72-1.27,2.59-2.83h0c-.14-1.56-1.52-2.83-3.08-2.83h-19.53c-1.56,0-2.72,1.27-2.59,2.83h0c.14,1.56,1.52,2.83,3.08,2.83Z"/><path class="v" d="m148.24,203.63h26.93c1.56,0,2.72-1.27,2.59-2.83h0c-.14-1.56-1.52-2.83-3.08-2.83h-26.93c-1.56,0-2.72,1.27-2.59,2.83h0c.14,1.56,1.52,2.83,3.08,2.83Z"/><path class="v" d="m107.24,203.63h31.51c1.56,0,2.72-1.27,2.59-2.83h0c-.14-1.56-1.52-2.83-3.08-2.83h-31.51c-1.56,0-2.72,1.27-2.59,2.83h0c.14,1.56,1.52,2.83,3.08,2.83Z"/><path class="v" d="m175.22,215.8h30.03c1.56,0,2.72-1.27,2.59-2.83h0c-.14-1.56-1.52-2.83-3.08-2.83h-30.03c-1.56,0-2.72,1.27-2.59,2.83h0c.14,1.56,1.52,2.83,3.08,2.83Z"/><path class="v" d="m149.3,215.8h16.43c1.56,0,2.72-1.27,2.59-2.83h0c-.14-1.56-1.52-2.83-3.08-2.83h-16.43c-1.56,0-2.72,1.27-2.59,2.83h0c.14,1.56,1.52,2.83,3.08,2.83Z"/><path class="v" d="m106.5,215.8h33.32c1.56,0,2.72-1.27,2.59-2.83h0c-.14-1.56-1.52-2.83-3.08-2.83h-33.32c-1.56,0-2.72,1.27-2.59,2.83h0c.14,1.56,1.52,2.83,3.08,2.83Z"/><path class="v" d="m167.78,227.96h38.53c1.56,0,2.72-1.27,2.59-2.83h0c-.14-1.56-1.52-2.83-3.08-2.83h-38.53c-1.56,0-2.72,1.27-2.59,2.83h0c.14,1.56,1.52,2.83,3.08,2.83Z"/><path class="v" d="m139.12,227.96h19.17c1.56,0,2.72-1.27,2.59-2.83h0c-.14-1.56-1.52-2.83-3.08-2.83h-19.17c-1.56,0-2.72,1.27-2.59,2.83h0c.14,1.56,1.52,2.83,3.08,2.83Z"/><path class="v" d="m111.62,227.96h18.01c1.56,0,2.72-1.27,2.59-2.83h0c-.14-1.56-1.52-2.83-3.08-2.83h-18.01c-1.56,0-2.72,1.27-2.59,2.83h0c.14,1.56,1.52,2.83,3.08,2.83Z"/><path class="v" d="m182.86,240.13h24.52c1.56,0,2.72-1.27,2.59-2.83h0c-.14-1.56-1.52-2.83-3.08-2.83h-24.52c-1.56,0-2.72,1.27-2.59,2.83h0c.14,1.56,1.52,2.83,3.08,2.83Z"/><path class="v" d="m137.84,240.13h35.54c1.56,0,2.72-1.27,2.59-2.83h0c-.14-1.56-1.52-2.83-3.08-2.83h-35.54c-1.56,0-2.72,1.27-2.59,2.83h0c.14,1.56,1.52,2.83,3.08,2.83Z"/><path class="v" d="m114.24,240.13h14.11c1.56,0,2.72-1.27,2.59-2.83h0c-.14-1.56-1.52-2.83-3.08-2.83h-14.11c-1.56,0-2.72,1.27-2.59,2.83h0c.14,1.56,1.52,2.83,3.08,2.83Z"/><path class="v" d="m175.64,252.3h32.8c1.56,0,2.72-1.27,2.59-2.83h0c-.14-1.56-1.52-2.83-3.08-2.83h-32.8c-1.56,0-2.72,1.27-2.59,2.83h0c.14,1.56,1.52,2.83,3.08,2.83Z"/><path class="v" d="m135.08,252.3h31.07c1.56,0,2.72-1.27,2.59-2.83h0c-.14-1.56-1.52-2.83-3.08-2.83h-31.07c-1.56,0-2.72,1.27-2.59,2.83h0c.14,1.56,1.52,2.83,3.08,2.83Z"/><path class="v" d="m109.69,252.3h15.9c1.56,0,2.72-1.27,2.59-2.83h0c-.14-1.56-1.52-2.83-3.08-2.83h-15.9c-1.56,0-2.72,1.27-2.59,2.83h0c.14,1.56,1.52,2.83,3.08,2.83Z"/><path class="v" d="m179.48,264.46h30.03c1.56,0,2.72-1.27,2.59-2.83h0c-.14-1.56-1.52-2.83-3.08-2.83h-30.03c-1.56,0-2.72,1.27-2.59,2.83h0c.14,1.56,1.52,2.83,3.08,2.83Z"/><path class="v" d="m139.97,264.46h30.03c1.56,0,2.72-1.27,2.59-2.83h0c-.14-1.56-1.52-2.83-3.08-2.83h-30.03c-1.56,0-2.72,1.27-2.59,2.83h0c.14,1.56,1.52,2.83,3.08,2.83Z"/><path class="v" d="m114.81,264.46h15.67c1.56,0,2.72-1.27,2.59-2.83h0c-.14-1.56-1.52-2.83-3.08-2.83h-15.67c-1.56,0-2.72,1.27-2.59,2.83h0c.14,1.56,1.52,2.83,3.08,2.83Z"/><path class="v" d="m189.13,276.63h21.44c1.56,0,2.72-1.27,2.59-2.83h0c-.14-1.56-1.52-2.83-3.08-2.83h-21.44c-1.56,0-2.72,1.27-2.59,2.83h0c.14,1.56,1.52,2.83,3.08,2.83Z"/><path class="v" d="m149.11,276.63h30.53c1.56,0,2.72-1.27,2.59-2.83h0c-.14-1.56-1.52-2.83-3.08-2.83h-30.53c-1.56,0-2.72,1.27-2.59,2.83h0c.14,1.56,1.52,2.83,3.08,2.83Z"/><path class="v" d="m111.82,276.63h27.8c1.56,0,2.72-1.27,2.59-2.83h0c-.14-1.56-1.52-2.83-3.08-2.83h-27.8c-1.56,0-2.72,1.27-2.59,2.83h0c.14,1.56,1.52,2.83,3.08,2.83Z"/><path class="v" d="m187.12,288.8h24.52c1.56,0,2.72-1.27,2.59-2.83h0c-.14-1.56-1.52-2.83-3.08-2.83h-24.52c-1.56,0-2.72,1.27-2.59,2.83h0c.14,1.56,1.52,2.83,3.08,2.83Z"/><path class="v" d="m157.6,288.8h20.03c1.56,0,2.72-1.27,2.59-2.83h0c-.14-1.56-1.52-2.83-3.08-2.83h-20.03c-1.56,0-2.72,1.27-2.59,2.83h0c.14,1.56,1.52,2.83,3.08,2.83Z"/><path class="v" d="m118.5,288.8h29.61c1.56,0,2.72-1.27,2.59-2.83h0c-.14-1.56-1.52-2.83-3.08-2.83h-29.61c-1.56,0-2.72,1.27-2.59,2.83h0c.14,1.56,1.52,2.83,3.08,2.83Z"/><path class="v" d="m182.67,300.96h30.03c1.56,0,2.72-1.27,2.59-2.83h0c-.14-1.56-1.52-2.83-3.08-2.83h-30.03c-1.56,0-2.72,1.27-2.59,2.83h0c.14,1.56,1.52,2.83,3.08,2.83Z"/><path class="v" d="m143.16,300.96h30.03c1.56,0,2.72-1.27,2.59-2.83h0c-.14-1.56-1.52-2.83-3.08-2.83h-30.03c-1.56,0-2.72,1.27-2.59,2.83h0c.14,1.56,1.52,2.83,3.08,2.83Z"/><path class="v" d="m118.01,300.96h15.67c1.56,0,2.72-1.27,2.59-2.83h0c-.14-1.56-1.52-2.83-3.08-2.83h-15.67c-1.56,0-2.72,1.27-2.59,2.83h0c.14,1.56,1.52,2.83,3.08,2.83Z"/></g><path class="r" d="m222.94,315.08c-2.34,1.83-5.32,2.93-8.66,2.93h-96.29c-8.35,0-15.71-6.77-16.44-15.11l-20.14-230.15c-.31-3.55.64-6.81,2.46-9.39l139.06,251.72Z"/></g><g id="f"><polygon class="s" points="400.48 204.96 408.1 204.96 394.89 279.91 387.26 279.91 400.48 204.96"/><polygon class="j" points="400.48 204.96 408.1 204.96 394.89 279.91 387.26 279.91 400.48 204.96"/><polygon class="s" points="392.73 204.96 404.75 204.96 391.54 279.91 379.51 279.91 392.73 204.96"/><polygon class="r" points="392.73 204.96 404.75 204.96 391.54 279.91 379.51 279.91 392.73 204.96"/><polygon class="s" points="315.74 204.96 323.36 204.96 310.15 279.91 302.52 279.91 315.74 204.96"/><polygon class="j" points="315.74 204.96 323.36 204.96 310.15 279.91 302.52 279.91 315.74 204.96"/><polygon class="s" points="307.99 204.96 320.01 204.96 306.8 279.91 294.77 279.91 307.99 204.96"/><polygon class="r" points="307.99 204.96 320.01 204.96 306.8 279.91 294.77 279.91 307.99 204.96"/><polygon class="t" points="409.51 215.38 417.74 215.38 420.09 202.05 411.86 202.05 409.51 215.38"/><polygon class="r" points="409.51 215.38 417.74 215.38 420.09 202.05 411.86 202.05 409.51 215.38"/><path class="s" d="m277.67,328.46c.27-6.39-4.83-11.72-11.23-11.72s-11.5,5.33-11.23,11.72l1.28,29.9h-18.4s7.94-69.65,7.94-69.65h40.83s7.94,69.65,7.94,69.65h-18.4s1.28-29.9,1.28-29.9Z"/><path class="r" d="m277.67,328.46c.27-6.39-4.83-11.72-11.23-11.72s-11.5,5.33-11.23,11.72l1.28,29.9h-18.4s7.94-69.65,7.94-69.65h40.83s7.94,69.65,7.94,69.65h-18.4s1.28-29.9,1.28-29.9Z"/><path class="s" d="m282.05,328.46c.27-6.39-4.83-11.72-11.23-11.72s-11.5,5.33-11.23,11.72l1.28,29.9h-18.4s7.94-69.65,7.94-69.65h40.83s7.94,69.65,7.94,69.65h-18.4s1.28-29.9,1.28-29.9Z"/><path class="n" d="m282.05,328.46c.27-6.39-4.83-11.72-11.23-11.72s-11.5,5.33-11.23,11.72l1.28,29.9h-18.4s7.94-69.65,7.94-69.65h40.83s7.94,69.65,7.94,69.65h-18.4s1.28-29.9,1.28-29.9Z"/><rect class="t" x="232.72" y="277.75" width="112.58" height="10.96" transform="translate(578.01 566.47) rotate(-180)"/><rect class="r" x="232.72" y="277.75" width="112.58" height="10.96" transform="translate(578.01 566.47) rotate(-180)"/><path class="s" d="m382.57,328.46c.27-6.39-4.83-11.72-11.23-11.72s-11.5,5.33-11.23,11.72l1.28,29.9h-18.4s7.94-69.65,7.94-69.65h40.83s7.94,69.65,7.94,69.65h-18.4s1.28-29.9,1.28-29.9Z"/><path class="r" d="m382.57,328.46c.27-6.39-4.83-11.72-11.23-11.72s-11.5,5.33-11.23,11.72l1.28,29.9h-18.4s7.94-69.65,7.94-69.65h40.83s7.94,69.65,7.94,69.65h-18.4s1.28-29.9,1.28-29.9Z"/><path class="s" d="m386.95,328.46c.27-6.39-4.83-11.72-11.23-11.72s-11.5,5.33-11.23,11.72l1.28,29.9h-18.4s7.94-69.65,7.94-69.65h40.83s7.94,69.65,7.94,69.65h-18.4s1.28-29.9,1.28-29.9Z"/><path class="n" d="m386.95,328.46c.27-6.39-4.83-11.72-11.23-11.72s-11.5,5.33-11.23,11.72l1.28,29.9h-18.4s7.94-69.65,7.94-69.65h40.83s7.94,69.65,7.94,69.65h-18.4s1.28-29.9,1.28-29.9Z"/><polygon class="t" points="298.12 215.38 413.2 215.38 415.55 202.05 300.47 202.05 298.12 215.38"/><polygon class="q" points="298.12 215.38 413.2 215.38 415.55 202.05 300.47 202.05 298.12 215.38"/><polygon class="t" points="406.16 234.38 414.39 234.38 416.74 221.05 408.51 221.05 406.16 234.38"/><polygon class="r" points="406.16 234.38 414.39 234.38 416.74 221.05 408.51 221.05 406.16 234.38"/><polygon class="t" points="294.77 234.38 409.85 234.38 412.2 221.05 297.12 221.05 294.77 234.38"/><polygon class="q" points="294.77 234.38 409.85 234.38 412.2 221.05 297.12 221.05 294.77 234.38"/><polygon class="t" points="402.81 253.37 411.04 253.37 413.39 240.05 405.16 240.05 402.81 253.37"/><polygon class="r" points="402.81 253.37 411.04 253.37 413.39 240.05 405.16 240.05 402.81 253.37"/><polygon class="t" points="291.42 253.37 406.5 253.37 408.85 240.05 293.77 240.05 291.42 253.37"/><polygon class="q" points="291.42 253.37 406.5 253.37 408.85 240.05 293.77 240.05 291.42 253.37"/><polygon class="t" points="399.47 272.37 407.69 272.37 410.04 259.04 401.82 259.04 399.47 272.37"/><polygon class="r" points="399.47 272.37 407.69 272.37 410.04 259.04 401.82 259.04 399.47 272.37"/><polygon class="t" points="288.07 272.37 403.15 272.37 405.5 259.04 290.42 259.04 288.07 272.37"/><polygon class="q" points="288.07 272.37 403.15 272.37 405.5 259.04 290.42 259.04 288.07 272.37"/><rect class="t" x="342.99" y="277.75" width="66.17" height="10.96" transform="translate(752.15 566.47) rotate(-180)"/><rect class="q" x="342.99" y="277.75" width="66.17" height="10.96" transform="translate(752.15 566.47) rotate(-180)"/><polygon class="w" points="258.36 329.65 248.06 349.4 240.22 346.47 246.64 325.77 258.36 329.65"/><path class="t" d="m234.79,345.05c-1.27-.27-2.52-.79-2.82-1.42-.15-.37-.05-.78.24-1.04.23-.24.55-.39.88-.4,1.8-.1,4.91,2.7,5.05,2.82.08.07.1.18.06.28-.04.09-.13.16-.24.16-1.07-.04-2.13-.16-3.18-.38Zm-1.19-2.33c-.16-.04-.31-.05-.47-.04-.21,0-.41.08-.55.23-.24.26-.21.42-.16.52.33.76,2.89,1.34,4.84,1.51-1.07-.97-2.31-1.72-3.66-2.22Z"/><path class="t" d="m237.93,345.43s-.07,0-.1-.03c-1.1-.8-3.07-3.54-2.6-4.64.08-.27.36-.56,1.04-.48.5.05.95.31,1.25.7,1.07,1.35.74,4.15.73,4.28-.01.09-.07.16-.16.19-.06.01-.12,0-.17-.03Zm-1.6-4.66l-.14-.04c-.44-.06-.51.11-.54.17-.21.68,1.02,2.75,2.12,3.77.13-1.18-.11-2.37-.68-3.41-.19-.25-.46-.42-.77-.48h0Z"/><path class="s" d="m239.32,344.24l11.11,2.4c.42.09.72.46.72.89l.06,9.47c.01.84-.66,1.53-1.5,1.54-.11,0-.22,0-.32-.03-3.99-.94-7.5-1.92-12.49-3-5.88-1.27-4.54-.24-11.48-1.64-4.18-.85-3.92-5.75-2.1-5.6,8.31.73,9.68-1.53,13.42-3.75.8-.41,1.72-.51,2.59-.29Z"/><path class="t" d="m341.72,241.71s36.1,35.72-7.37,35.72c-19.03,0-50.47-6.24-50.47-6.24,0,0-2.52,7.97-6.8,21.83-4.28,13.86-22.11,45.5-22.11,45.5l-12.05-4.39s17.44-66.77,25.52-78.25c8.08-11.48,56.7-13.04,56.7-13.04l16.59-1.13Z"/><path class="ac" d="m341.72,241.71s36.1,35.72-7.37,35.72c-19.03,0-50.47-6.24-50.47-6.24,0,0-2.52,7.97-6.8,21.83-4.28,13.86-22.11,45.5-22.11,45.5l-12.05-4.39s17.44-66.77,25.52-78.25c8.08-11.48,56.7-13.04,56.7-13.04l16.59-1.13Z"/><polygon class="t" points="257.03 338.65 254.84 342.62 240.22 337.22 241.46 332.56 257.03 338.65"/><polygon class="ac" points="257.03 338.65 254.84 342.62 240.22 337.22 241.46 332.56 257.03 338.65"/><polygon class="w" points="274.73 331.8 271.76 353.98 280.69 356.18 287.63 335.7 274.73 331.8"/><path class="t" d="m267.49,351.02c-1.27-.27-2.52-.79-2.82-1.42-.15-.37-.05-.78.25-1.04.23-.24.55-.39.88-.4,1.8-.1,4.91,2.7,5.05,2.82.08.07.1.18.06.28-.04.09-.13.16-.24.16-1.07-.04-2.13-.16-3.18-.38Zm-1.19-2.33c-.16-.04-.31-.05-.47-.04-.21,0-.41.08-.55.23-.24.26-.21.42-.16.52.33.76,2.89,1.34,4.84,1.51-1.07-.96-2.31-1.72-3.66-2.22Z"/><path class="t" d="m270.63,351.39s-.07,0-.1-.03c-1.1-.8-3.07-3.54-2.6-4.64.08-.27.36-.56,1.04-.48.5.05.95.31,1.25.7,1.07,1.35.74,4.15.73,4.28-.01.09-.07.16-.16.19-.06.01-.12,0-.17-.03Zm-1.6-4.66l-.14-.04c-.44-.06-.51.11-.54.17-.21.68,1.02,2.75,2.12,3.77.13-1.18-.11-2.37-.68-3.41-.19-.25-.46-.42-.77-.48h0Z"/><path class="s" d="m272.01,350.21l11.11,2.4c.42.09.72.46.72.89l.06,9.47c.01.84-.66,1.53-1.5,1.54-.11,0-.22,0-.32-.03-3.99-.94-7.5-1.92-12.49-2.99-5.88-1.27-4.54-.24-11.48-1.64-4.18-.85-3.92-5.75-2.1-5.6,8.31.73,9.68-1.53,13.42-3.75.8-.41,1.72-.51,2.59-.29Z"/><path class="t" d="m369.78,243.98s6.24,35.72-12.76,34.59c-19-1.13-50.75-6.24-50.75-6.24,0,0-.85,10.06-4.54,24.1-3.69,14.03-16.44,50.04-16.44,50.04l-13.18-4.39s8.36-76.97,16.44-88.46c8.08-11.48,64.64-8.51,64.64-8.51l16.59-1.13Z"/><polygon class="t" points="287.63 344.56 285.79 348.6 270.55 343.57 270.94 338.88 287.63 344.56"/><path class="t" d="m296.97,169.41h3.78c.79,0,1.49.52,1.71,1.28l4.74,16.21c.28.96-.44,1.92-1.44,1.92h-3.12s-5.67-19.41-5.67-19.41Z"/><path class="o" d="m296.97,169.41h3.78c.79,0,1.49.52,1.71,1.28l4.74,16.21c.28.96-.44,1.92-1.44,1.92h-3.12s-5.67-19.41-5.67-19.41Z"/><path class="t" d="m296.16,188.82h7.72c1,0,1.72-.96,1.44-1.92l-4.74-16.21c-.22-.76-.92-1.28-1.71-1.28h-7.72c-1,0-1.72.96-1.44,1.92l4.74,16.21c.22.76.92,1.28,1.71,1.28Z"/><path class="r" d="m298.04,174.25h1.27c.16,0,.28-.16.24-.31l-.78-2.66c-.04-.12-.15-.21-.28-.21h-1.27c-.16,0-.28.16-.24.31l.78,2.66c.04.12.15.21.28.21Z"/><path class="w" d="m321.44,190.39s-6,16.63-9.4,17.01c-3.4.38-4.2-15.91-6.43-20.79-1.1-2.4-7.34-7.6-7.34-7.6-1.79-1.86-4.83-1.65-6.35.43h0c-.78,1.06-1.01,2.43-.62,3.69l.69,2.24c.37,1.21,1.27,2.18,2.45,2.65l7.18,2.85s-1.1,29.2,8.92,29.96c10.02.76,20.04-25.14,20.04-25.14l-9.13-5.29Z"/><path class="s" d="m333.04,177.61c-3.14,1.34-10.49,5.75-15.7,19.01,0,0,5.1.14,11.62,5.39,0,0,5.69-12.11,5.65-23.34,0-.82-.82-1.37-1.57-1.06Z"/><path class="ac" d="m333.04,179.11l1.47,2.1c-.7,10.44-5.56,20.8-5.56,20.8-.29-.24-.58-.45-.87-.67-.98,2.07-2.22,4.5-3.63,6.93,1.27-21.57,8.59-29.16,8.59-29.16Z"/><path class="w" d="m384.81,183.45s19.85,12.47,19,18.43c-.85,5.95-16.3,29.49-16.3,29.49l-2,10.46c-.33,1.72-1.77,3-3.51,3.13h0c-1.33.1-2.63-.5-3.41-1.58l-2.16-2.97c-1.07-1.47-.97-3.48.24-4.84l5.63-7.6s10.42-18.94,8.32-25.37c-1.68-5.18-15.88-12.05-15.88-12.05l10.06-7.09Z"/><path class="s" d="m376.83,175.92c.59.3.91.95.78,1.6-.99,5.1-5.21,27.33-6.43,40.83-1.22,13.44-.54,26.9-.54,26.9,0,0-23.96,3.26-45.5-2.41,0,0,2.74-13.65,3.16-28.59.49-17.35-4.15-33.08,9.84-38.94,19.18-8.03,34.72-1.41,38.7.6Z"/><path class="ac" d="m336.23,188.93c-1.88-.46.21-8.96,1.44-13.4.15-.07.29-.14.45-.21,9.29-3.89,17.72-4.34,24.4-3.54-.37,3.59-2.13,17.99-6.35,18.04-4.82.06-11.24-3.04-11.24-3.04,0,0-6.16,2.77-8.7,2.15Z"/><path class="s" d="m340.76,165.41c26.85,2.49,28.65-1.68,27.59-9.19-.88-6.26-1.86-2.6-1.77-5.98.09-3.38-.17-9.06-3.9-11.93-2.66-11.7-10.29-11.73-18.83-11.65-8.54.09-6.24,2.42-13.42,4.23s-1.99,9.5,0,12.01c0,0-6.9,20.93,10.32,22.53Z"/><path class="w" d="m353.15,155.19c-.57,5.26.68,13.84,4.7,16.58,0,0-3.92,7.72-12.39,12.44-6.16-4.26-5.35-10.5-5.35-10.5,5.65-1.91,5.24-6.43,3.93-10.37l9.1-8.15Z"/><path class="m" d="m350.9,161.11c-.03,2.69-3.36,5.29-6.01,6.21-.05-1.3-.4-2.66-.84-3.98l6.2-5.63c.38,1.1.6,2.24.65,3.4Z"/><path class="w" d="m358.92,145.86c-2.2,8.41-2.95,12.02-8.11,15.54-7.76,5.3-17.61.77-17.97-8.14-.33-8.01,3.32-20.41,12.32-22.17,6.42-1.28,12.67,2.88,13.95,9.3.36,1.81.3,3.68-.19,5.46Z"/><path class="w" d="m359.61,152.99c-.78,1.49-2.13,2.6-3.73,3.1-2.13.64-3.24-1.25-2.69-3.29.5-1.83,2.21-4.37,4.37-4.13,1.57.23,2.66,1.69,2.43,3.26-.05.37-.18.74-.38,1.06Z"/><path class="s" d="m354.96,128.97c1.5,2.58-2.25,7.37-10.14,6.91-5.94-.34-13.4,6.04-12.8-.86.51-6.28,15.45-9.28,22.93-6.05Z"/><path class="s" d="m350.64,130.86c-4.12,3.15-1.38,8.9.6,11.49,1.98,2.58,5.03,5.01,2.67,8.83-2.36,3.83-3.98,14.36,3.56,12.51,7.54-1.85,7.2-14.42,5.01-20.23-2.19-5.81-6.94-16.34-11.84-12.6Z"/><path class="y" d="m339.21,147.89c-.46,1.67-1.15,3.27-2.04,4.75.78.45,1.71.53,2.55.22l-.51-4.97Z"/><path class="s" d="m347.77,142.27c.06-.02.11-.05.15-.1.13-.14.12-.36-.02-.49,0,0,0,0,0,0-.95-.9-2.29-1.28-3.57-1.02-.18.05-.29.24-.24.42.05.18.23.29.41.24,1.07-.2,2.16.12,2.95.87.09.08.22.11.33.07Z"/><path class="s" d="m332.88,143.92c.06-.02.11-.05.15-.1.73-.8,1.79-1.2,2.86-1.08.19.04.37-.08.41-.27,0,0,0,0,0,0,.03-.19-.1-.37-.28-.4-1.3-.16-2.6.32-3.49,1.29-.14.13-.14.35,0,.49.09.1.24.13.36.08h0Z"/><path class="s" d="m344.05,146.22c.07.7-.24,1.3-.71,1.36s-.89-.48-.95-1.19c-.07-.71.24-1.3.7-1.35.46-.05.89.48.96,1.19Z"/><path class="s" d="m336.11,147.04c.07.7-.24,1.3-.7,1.35-.46.05-.89-.48-.96-1.19-.08-.71.24-1.3.7-1.35.46-.05.9.48.96,1.19Z"/><path class="s" d="m335.35,145.87l-1.74-.31s1,1.22,1.74.31Z"/><path class="s" d="m343.3,145.05l-1.74-.31s1,1.22,1.74.31Z"/><path class="h" d="m373.47,200.95c-7.77-10.99-2.71-18.95-2.71-18.95l5.85.8c-.86,4.65-2.06,11.32-3.14,18.15Z"/><path class="s" d="m349.3,134.16s-2.34,2.17-6.64,2.82c-.76.12-.89,1.15-.17,1.43,2.16.83,5.32.96,6.81-4.25Z"/><path class="s" d="m341.16,156.35c-.36,0-.73-.03-1.08-.09-.1-.02-.17-.11-.16-.22,0,0,0,0,0,0,.02-.1.11-.17.22-.15,1.6.31,3.26-.15,4.46-1.25.07-.08.19-.08.27-.01.08.07.08.19.01.27-1.01.95-2.34,1.47-3.72,1.46Z"/><path class="s" d="m384.37,198.14s-26.26-11.2-8.1-21.46c.72-.4,1.61-.36,2.27.12l16.13,11.77s-6.03,2.35-10.31,9.57Z"/><path class="s" d="m357.97,170.41l-12.47,13.04-3.59-10.77-3.02,1.42s-4.18,12.38-.57,12.38,6.66-1.11,6.66-1.11c0,0,3.4,1.42,9,1.42,5.6,0,7.16-15.81,7.16-15.81l-3.17-.57Z"/><path class="k" d="m357.97,170.41l-12.47,13.04-3.59-10.77-3.02,1.42s-4.18,12.38-.57,12.38,6.66-1.11,6.66-1.11c0,0,3.4,1.42,9,1.42,5.6,0,7.16-15.81,7.16-15.81l-3.17-.57Z"/></g><g id="g"><path class="t" d="m148.38,266.52h115.87c3.33,0,5.79-2.7,5.5-6.02l-12.08-138.05c-.29-3.33-3.22-6.02-6.55-6.02h-115.87c-3.33,0-5.79,2.7-5.5,6.02l12.08,138.05c.29,3.33,3.22,6.02,6.55,6.02Z"/><g class="af"><path class="v" d="m148.38,266.52h115.87c3.33,0,5.79-2.7,5.5-6.02l-12.08-138.05c-.29-3.33-3.22-6.02-6.55-6.02h-115.87c-3.33,0-5.79,2.7-5.5,6.02l12.08,138.05c.29,3.33,3.22,6.02,6.55,6.02Z"/></g><path class="t" d="m150.33,266.52h115.87c3.33,0,5.79-2.7,5.5-6.02l-12.08-138.05c-.29-3.33-3.22-6.02-6.55-6.02h-115.87c-3.33,0-5.79,2.7-5.5,6.02l12.08,138.05c.29,3.33,3.22,6.02,6.55,6.02Z"/><path class="i" d="m150.33,266.52h115.87c3.33,0,5.79-2.7,5.5-6.02l-12.08-138.05c-.29-3.33-3.22-6.02-6.55-6.02h-115.87c-3.33,0-5.79,2.7-5.5,6.02l12.08,138.05c.29,3.33,3.22,6.02,6.55,6.02Z"/><path class="t" d="m137.2,116.42h115.87c3.33,0,6.26,2.7,6.55,6.02l.95,10.87h-127.92s-.95-10.87-.95-10.87c-.29-3.33,2.17-6.02,5.5-6.02Z"/><path class="l" d="m234.17,151.32c.43,4.97,4.82,9,9.79,9s8.65-4.03,8.21-9c-.43-4.97-4.82-9-9.79-9s-8.65,4.03-8.21,9Z"/><polygon class="l" points="143.74 157.82 228.24 157.82 227.1 144.82 142.6 144.82 143.74 157.82"/><polygon class="l" points="149.34 221.82 233.84 221.82 229.02 166.82 144.52 166.82 149.34 221.82"/><polygon class="t" points="196.6 207.7 227.6 207.7 225.41 182.7 194.41 182.7 196.6 207.7"/><path class="s" d="m183.1,185.62h6.94c.62,0,1.07-.5,1.02-1.12h0c-.05-.62-.6-1.12-1.21-1.12h-6.94c-.62,0-1.07.5-1.02,1.12h0c.05.62.6,1.12,1.21,1.12Z"/><path class="s" d="m165.09,185.62h14.28c.62,0,1.07-.5,1.02-1.12h0c-.05-.62-.6-1.12-1.21-1.12h-14.28c-.62,0-1.07.5-1.02,1.12h0c.05.62.6,1.12,1.21,1.12Z"/><path class="s" d="m151.16,185.62h10.19c.62,0,1.07-.5,1.02-1.12h0c-.05-.62-.6-1.12-1.21-1.12h-10.19c-.62,0-1.07.5-1.02,1.12h0c.05.62.6,1.12,1.21,1.12Z"/><path class="s" d="m176.04,190.41h14.42c.62,0,1.07-.5,1.02-1.12h0c-.05-.62-.6-1.12-1.21-1.12h-14.42c-.62,0-1.07.5-1.02,1.12h0c.05.62.6,1.12,1.21,1.12Z"/><path class="s" d="m163.08,190.41h9.22c.62,0,1.07-.5,1.02-1.12h0c-.05-.62-.6-1.12-1.21-1.12h-9.22c-.62,0-1.07.5-1.02,1.12h0c.05.62.6,1.12,1.21,1.12Z"/><path class="s" d="m154.36,190.41h4.99c.62,0,1.07-.5,1.02-1.12h0c-.05-.62-.6-1.12-1.21-1.12h-4.99c-.62,0-1.07.5-1.02,1.12h0c.05.62.6,1.12,1.21,1.12Z"/><path class="s" d="m181.22,195.2h9.65c.62,0,1.07-.5,1.02-1.12h0c-.05-.62-.6-1.12-1.21-1.12h-9.65c-.62,0-1.07.5-1.02,1.12h0c.05.62.6,1.12,1.21,1.12Z"/><path class="s" d="m165.18,195.2h12.31c.62,0,1.07-.5,1.02-1.12h0c-.05-.62-.6-1.12-1.21-1.12h-12.31c-.62,0-1.07.5-1.02,1.12h0c.05.62.6,1.12,1.21,1.12Z"/><path class="s" d="m152,195.2h9.44c.62,0,1.07-.5,1.02-1.12h0c-.05-.62-.6-1.12-1.21-1.12h-9.44c-.62,0-1.07.5-1.02,1.12h0c.05.62.6,1.12,1.21,1.12Z"/><path class="s" d="m177.63,199.99h13.67c.62,0,1.07-.5,1.02-1.12h0c-.05-.62-.6-1.12-1.21-1.12h-13.67c-.62,0-1.07.5-1.02,1.12h0c.05.62.6,1.12,1.21,1.12Z"/><path class="s" d="m163.92,199.99h9.98c.62,0,1.07-.5,1.02-1.12h0c-.05-.62-.6-1.12-1.21-1.12h-9.98c-.62,0-1.07.5-1.02,1.12h0c.05.62.6,1.12,1.21,1.12Z"/><path class="s" d="m154.02,199.99h6.17c.62,0,1.07-.5,1.02-1.12h0c-.05-.62-.6-1.12-1.21-1.12h-6.17c-.62,0-1.07.5-1.02,1.12h0c.05.62.6,1.12,1.21,1.12Z"/><path class="s" d="m179.89,204.78h11.82c.62,0,1.07-.5,1.02-1.12h0c-.05-.62-.6-1.12-1.21-1.12h-11.82c-.62,0-1.07.5-1.02,1.12h0c.05.62.6,1.12,1.21,1.12Z"/><path class="s" d="m166.77,204.78h9.39c.62,0,1.07-.5,1.02-1.12h0c-.05-.62-.6-1.12-1.21-1.12h-9.39c-.62,0-1.07.5-1.02,1.12h0c.05.62.6,1.12,1.21,1.12Z"/><path class="s" d="m154.44,204.78h8.6c.62,0,1.07-.5,1.02-1.12h0c-.05-.62-.6-1.12-1.21-1.12h-8.6c-.62,0-1.07.5-1.02,1.12h0c.05.62.6,1.12,1.21,1.12Z"/><path class="s" d="m184.44,209.57h7.69c.62,0,1.07-.5,1.02-1.12h0c-.05-.62-.6-1.12-1.21-1.12h-7.69c-.62,0-1.07.5-1.02,1.12h0c.05.62.6,1.12,1.21,1.12Z"/><path class="s" d="m170.11,209.57h10.6c.62,0,1.07-.5,1.02-1.12h0c-.05-.62-.6-1.12-1.21-1.12h-10.6c-.62,0-1.07.5-1.02,1.12h0c.05.62.6,1.12,1.21,1.12Z"/><path class="s" d="m153.97,209.57h12.4c.62,0,1.07-.5,1.02-1.12h0c-.05-.62-.6-1.12-1.21-1.12h-12.4c-.62,0-1.07.5-1.02,1.12h0c.05.62.6,1.12,1.21,1.12Z"/><path class="s" d="m180.73,214.36h11.82c.62,0,1.07-.5,1.02-1.12h0c-.05-.62-.6-1.12-1.21-1.12h-11.82c-.62,0-1.07.5-1.02,1.12h0c.05.62.6,1.12,1.21,1.12Z"/><path class="s" d="m170.53,214.36h6.47c.62,0,1.07-.5,1.02-1.12h0c-.05-.62-.6-1.12-1.21-1.12h-6.47c-.62,0-1.07.5-1.02,1.12h0c.05.62.6,1.12,1.21,1.12Z"/><path class="s" d="m153.68,214.36h13.12c.62,0,1.07-.5,1.02-1.12h0c-.05-.62-.6-1.12-1.21-1.12h-13.12c-.62,0-1.07.5-1.02,1.12h0c.05.62.6,1.12,1.21,1.12Z"/><path class="s" d="m177.8,219.15h15.17c.62,0,1.07-.5,1.02-1.12h0c-.05-.62-.6-1.12-1.21-1.12h-15.17c-.62,0-1.07.5-1.02,1.12h0c.05.62.6,1.12,1.21,1.12Z"/><path class="s" d="m166.52,219.15h7.55c.62,0,1.07-.5,1.02-1.12h0c-.05-.62-.6-1.12-1.21-1.12h-7.55c-.62,0-1.07.5-1.02,1.12h0c.05.62.6,1.12,1.21,1.12Z"/><path class="s" d="m155.69,219.15h7.09c.62,0,1.07-.5,1.02-1.12h0c-.05-.62-.6-1.12-1.21-1.12h-7.09c-.62,0-1.07.5-1.02,1.12h0c.05.62.6,1.12,1.21,1.12Z"/><g class="ae"><path class="v" d="m183.1,185.62h6.94c.62,0,1.07-.5,1.02-1.12h0c-.05-.62-.6-1.12-1.21-1.12h-6.94c-.62,0-1.07.5-1.02,1.12h0c.05.62.6,1.12,1.21,1.12Z"/><path class="v" d="m165.09,185.62h14.28c.62,0,1.07-.5,1.02-1.12h0c-.05-.62-.6-1.12-1.21-1.12h-14.28c-.62,0-1.07.5-1.02,1.12h0c.05.62.6,1.12,1.21,1.12Z"/><path class="v" d="m151.16,185.62h10.19c.62,0,1.07-.5,1.02-1.12h0c-.05-.62-.6-1.12-1.21-1.12h-10.19c-.62,0-1.07.5-1.02,1.12h0c.05.62.6,1.12,1.21,1.12Z"/><path class="v" d="m176.04,190.41h14.42c.62,0,1.07-.5,1.02-1.12h0c-.05-.62-.6-1.12-1.21-1.12h-14.42c-.62,0-1.07.5-1.02,1.12h0c.05.62.6,1.12,1.21,1.12Z"/><path class="v" d="m163.08,190.41h9.22c.62,0,1.07-.5,1.02-1.12h0c-.05-.62-.6-1.12-1.21-1.12h-9.22c-.62,0-1.07.5-1.02,1.12h0c.05.62.6,1.12,1.21,1.12Z"/><path class="v" d="m154.36,190.41h4.99c.62,0,1.07-.5,1.02-1.12h0c-.05-.62-.6-1.12-1.21-1.12h-4.99c-.62,0-1.07.5-1.02,1.12h0c.05.62.6,1.12,1.21,1.12Z"/><path class="v" d="m181.22,195.2h9.65c.62,0,1.07-.5,1.02-1.12h0c-.05-.62-.6-1.12-1.21-1.12h-9.65c-.62,0-1.07.5-1.02,1.12h0c.05.62.6,1.12,1.21,1.12Z"/><path class="v" d="m165.18,195.2h12.31c.62,0,1.07-.5,1.02-1.12h0c-.05-.62-.6-1.12-1.21-1.12h-12.31c-.62,0-1.07.5-1.02,1.12h0c.05.62.6,1.12,1.21,1.12Z"/><path class="v" d="m152,195.2h9.44c.62,0,1.07-.5,1.02-1.12h0c-.05-.62-.6-1.12-1.21-1.12h-9.44c-.62,0-1.07.5-1.02,1.12h0c.05.62.6,1.12,1.21,1.12Z"/><path class="v" d="m177.63,199.99h13.67c.62,0,1.07-.5,1.02-1.12h0c-.05-.62-.6-1.12-1.21-1.12h-13.67c-.62,0-1.07.5-1.02,1.12h0c.05.62.6,1.12,1.21,1.12Z"/><path class="v" d="m163.92,199.99h9.98c.62,0,1.07-.5,1.02-1.12h0c-.05-.62-.6-1.12-1.21-1.12h-9.98c-.62,0-1.07.5-1.02,1.12h0c.05.62.6,1.12,1.21,1.12Z"/><path class="v" d="m154.02,199.99h6.17c.62,0,1.07-.5,1.02-1.12h0c-.05-.62-.6-1.12-1.21-1.12h-6.17c-.62,0-1.07.5-1.02,1.12h0c.05.62.6,1.12,1.21,1.12Z"/><path class="v" d="m179.89,204.78h11.82c.62,0,1.07-.5,1.02-1.12h0c-.05-.62-.6-1.12-1.21-1.12h-11.82c-.62,0-1.07.5-1.02,1.12h0c.05.62.6,1.12,1.21,1.12Z"/><path class="v" d="m166.77,204.78h9.39c.62,0,1.07-.5,1.02-1.12h0c-.05-.62-.6-1.12-1.21-1.12h-9.39c-.62,0-1.07.5-1.02,1.12h0c.05.62.6,1.12,1.21,1.12Z"/><path class="v" d="m154.44,204.78h8.6c.62,0,1.07-.5,1.02-1.12h0c-.05-.62-.6-1.12-1.21-1.12h-8.6c-.62,0-1.07.5-1.02,1.12h0c.05.62.6,1.12,1.21,1.12Z"/><path class="v" d="m184.44,209.57h7.69c.62,0,1.07-.5,1.02-1.12h0c-.05-.62-.6-1.12-1.21-1.12h-7.69c-.62,0-1.07.5-1.02,1.12h0c.05.62.6,1.12,1.21,1.12Z"/><path class="v" d="m170.11,209.57h10.6c.62,0,1.07-.5,1.02-1.12h0c-.05-.62-.6-1.12-1.21-1.12h-10.6c-.62,0-1.07.5-1.02,1.12h0c.05.62.6,1.12,1.21,1.12Z"/><path class="v" d="m153.97,209.57h12.4c.62,0,1.07-.5,1.02-1.12h0c-.05-.62-.6-1.12-1.21-1.12h-12.4c-.62,0-1.07.5-1.02,1.12h0c.05.62.6,1.12,1.21,1.12Z"/><path class="v" d="m180.73,214.36h11.82c.62,0,1.07-.5,1.02-1.12h0c-.05-.62-.6-1.12-1.21-1.12h-11.82c-.62,0-1.07.5-1.02,1.12h0c.05.62.6,1.12,1.21,1.12Z"/><path class="v" d="m170.53,214.36h6.47c.62,0,1.07-.5,1.02-1.12h0c-.05-.62-.6-1.12-1.21-1.12h-6.47c-.62,0-1.07.5-1.02,1.12h0c.05.62.6,1.12,1.21,1.12Z"/><path class="v" d="m153.68,214.36h13.12c.62,0,1.07-.5,1.02-1.12h0c-.05-.62-.6-1.12-1.21-1.12h-13.12c-.62,0-1.07.5-1.02,1.12h0c.05.62.6,1.12,1.21,1.12Z"/><path class="v" d="m177.8,219.15h15.17c.62,0,1.07-.5,1.02-1.12h0c-.05-.62-.6-1.12-1.21-1.12h-15.17c-.62,0-1.07.5-1.02,1.12h0c.05.62.6,1.12,1.21,1.12Z"/><path class="v" d="m166.52,219.15h7.55c.62,0,1.07-.5,1.02-1.12h0c-.05-.62-.6-1.12-1.21-1.12h-7.55c-.62,0-1.07.5-1.02,1.12h0c.05.62.6,1.12,1.21,1.12Z"/><path class="v" d="m155.69,219.15h7.09c.62,0,1.07-.5,1.02-1.12h0c-.05-.62-.6-1.12-1.21-1.12h-7.09c-.62,0-1.07.5-1.02,1.12h0c.05.62.6,1.12,1.21,1.12Z"/></g><path class="s" d="m174.43,176.19h-2.6l-.6,1.2h-1.33l2.99-5.6h1.28l2.01,5.6h-1.36l-.39-1.2Zm-.32-.98l-.7-2.14-1.08,2.14h1.78Z"/><path class="s" d="m180.33,177.39l-.94-1.56h-1.19l-.14,1.56h-1.3l.49-5.6h2.42c.5,0,.92.08,1.27.25.35.17.61.4.78.7.17.3.24.66.2,1.08-.04.42-.17.77-.39,1.08-.23.3-.53.53-.91.69l1.1,1.8h-1.39Zm.05-4.29c-.19-.17-.48-.25-.87-.25h-1.06l-.17,1.95h1.06c.39,0,.69-.09.91-.26.22-.17.34-.41.37-.72.03-.31-.05-.56-.24-.72Z"/><path class="s" d="m184.12,172.85h-1.79l.09-1.06h4.88l-.09,1.06h-1.79l-.4,4.54h-1.3l.4-4.54Z"/><path class="s" d="m188,171.79h1.3l-.49,5.6h-1.3l.49-5.6Z"/><path class="s" d="m191.29,177.11c-.44-.25-.77-.59-1-1.03-.23-.44-.31-.94-.27-1.49s.22-1.05.53-1.49c.3-.44.7-.78,1.18-1.03.48-.25,1.01-.37,1.59-.37.49,0,.92.08,1.29.26.38.17.68.42.92.74l-.9.77c-.34-.44-.79-.66-1.35-.66-.35,0-.66.08-.95.23-.29.15-.52.36-.69.64-.18.27-.28.58-.31.93s.02.66.15.93c.13.27.32.48.58.64.26.15.56.23.91.23.56,0,1.05-.22,1.47-.66l.76.77c-.3.33-.65.57-1.06.74-.41.17-.86.26-1.34.26-.57,0-1.08-.12-1.52-.37Z"/><path class="s" d="m196.49,171.79h1.3l-.4,4.54h2.81l-.09,1.06h-4.1s.49-5.6.49-5.6Z"/><path class="s" d="m205.26,176.35l-.09,1.04h-4.34l.49-5.6h4.23l-.09,1.04h-2.94l-.11,1.22h2.6l-.09,1.01h-2.6s-.11,1.3-.11,1.3h3.05Z"/><path class="t" d="m217.44,255.82h39.41c2.46,0,4.28-2,4.07-4.46l-.99-11.29c-.22-2.46-2.39-4.46-4.85-4.46h-39.41c-2.46,0-4.28,2-4.07,4.46l.99,11.29c.22,2.46,2.39,4.46,4.85,4.46Z"/><path class="v" d="m156.77,255.82h39.41c2.46,0,4.28-2,4.07-4.46l-.99-11.29c-.22-2.46-2.39-4.46-4.85-4.46h-39.41c-2.46,0-4.28,2-4.07,4.46l.99,11.29c.22,2.46,2.39,4.46,4.85,4.46Z"/><path class="v" d="m222.99,248.65c-.4-.12-.72-.28-.96-.47l.53-.98c.22.18.5.32.82.42.32.11.65.16.98.16.37,0,.64-.05.83-.16.19-.11.29-.25.3-.44.01-.13-.03-.24-.13-.33s-.22-.16-.38-.21c-.16-.05-.37-.11-.64-.18-.42-.1-.76-.2-1.02-.3-.26-.1-.48-.26-.66-.49-.18-.22-.25-.52-.21-.9.03-.33.14-.62.34-.88.2-.26.48-.47.85-.63.37-.15.81-.23,1.32-.23.36,0,.7.04,1.04.13.33.09.62.21.86.37l-.49.98c-.49-.29-1-.44-1.51-.44-.36,0-.64.06-.82.18s-.28.27-.3.46c-.02.19.07.33.26.43.19.09.49.19.89.28.42.1.76.2,1.02.3.26.1.48.26.66.48.18.22.25.51.21.89-.03.32-.14.61-.34.88-.2.26-.49.47-.86.63-.37.15-.81.23-1.32.23-.44,0-.87-.06-1.27-.18Z"/><path class="v" d="m233.16,243.13l-.49,5.6h-1.3l.2-2.3h-2.54l-.2,2.3h-1.3l.49-5.6h1.3l-.19,2.21h2.54l.19-2.21h1.3Z"/><path class="v" d="m237.79,247.53h-2.6l-.6,1.2h-1.33l2.99-5.6h1.28l2.01,5.6h-1.36l-.39-1.2Zm-.32-.98l-.7-2.14-1.08,2.14h1.78Z"/><path class="v" d="m243.69,248.73l-.94-1.56h-1.19l-.14,1.56h-1.3l.49-5.6h2.42c.5,0,.92.08,1.27.25.35.17.61.4.78.7.17.3.24.66.2,1.08-.04.42-.17.77-.39,1.08-.23.3-.53.53-.91.69l1.1,1.8h-1.39Zm.05-4.29c-.19-.17-.48-.25-.87-.25h-1.06l-.17,1.95h1.06c.39,0,.69-.09.91-.26.22-.17.34-.41.37-.72.03-.31-.05-.56-.24-.72Z"/><path class="v" d="m250.43,247.69l-.09,1.04h-4.34l.49-5.6h4.23l-.09,1.04h-2.94l-.11,1.22h2.6l-.09,1.01h-2.6s-.11,1.3-.11,1.3h3.05Z"/><path class="s" d="m159.77,248.46c-.44-.25-.77-.59-1-1.03-.23-.44-.31-.94-.27-1.49s.22-1.05.53-1.49c.3-.44.7-.78,1.18-1.03.48-.25,1.01-.37,1.59-.37.49,0,.92.08,1.29.26.38.17.68.42.92.74l-.9.77c-.34-.44-.79-.66-1.35-.66-.35,0-.66.08-.95.23-.29.15-.52.36-.69.64-.18.27-.28.58-.31.93s.02.66.15.93c.13.27.32.48.58.64.26.15.56.23.91.23.56,0,1.05-.22,1.47-.66l.76.77c-.3.33-.65.57-1.06.74-.41.17-.86.26-1.34.26-.57,0-1.08-.12-1.52-.37Z"/><path class="s" d="m168.16,247.53h-2.6l-.6,1.2h-1.33s2.99-5.6,2.99-5.6h1.28l2.01,5.6h-1.36l-.39-1.2Zm-.32-.98l-.7-2.14-1.08,2.14h1.78Z"/><path class="s" d="m176.12,243.13l-.49,5.6h-1.06l-2.49-3.4-.3,3.4h-1.28l.49-5.6h1.07l2.49,3.4.3-3.4h1.28Z"/><path class="s" d="m178.12,248.46c-.44-.25-.77-.59-1-1.03-.23-.44-.31-.94-.27-1.49.05-.55.22-1.05.53-1.49.3-.44.7-.78,1.18-1.03.48-.25,1.01-.37,1.59-.37.49,0,.92.08,1.29.26.38.17.68.42.92.74l-.9.77c-.34-.44-.79-.66-1.35-.66-.35,0-.66.08-.95.23-.29.15-.52.36-.69.64-.18.27-.28.58-.31.93-.03.35.02.66.15.93.13.27.32.48.58.64.26.15.56.23.91.23.56,0,1.05-.22,1.47-.66l.76.77c-.3.33-.65.57-1.06.74-.41.17-.86.26-1.34.26-.57,0-1.08-.12-1.52-.37Z"/><path class="s" d="m187.25,247.69l-.09,1.04h-4.34l.49-5.6h4.23l-.09,1.04h-2.94l-.11,1.22h2.6l-.09,1.01h-2.6l-.11,1.3h3.05Z"/><path class="s" d="m188.68,243.13h1.3l-.4,4.54h2.81s-.09,1.06-.09,1.06h-4.1l.49-5.6Z"/><polygon class="n" points="196.6 207.7 196.02 201.04 201.97 194.52 212.62 204.32 216.75 199.79 225.35 207.7 196.6 207.7"/><path class="n" d="m207.42,192.2c.16,1.84,1.78,3.32,3.61,3.32s3.19-1.49,3.03-3.32c-.16-1.84-1.78-3.32-3.61-3.32s-3.19,1.49-3.03,3.32Z"/></g></svg>