<svg width="26" height="15" viewBox="0 0 26 15" fill="none" xmlns="http://www.w3.org/2000/svg">
<path d="M5.36244 6.83064H8.40718C9.28558 6.83064 10.0077 6.19037 10.0077 5.31197V4.38884C10.0077 4.36904 10.0077 4.34917 10.0077 4.3293C10.1715 4.3293 10.3377 4.3293 10.5065 4.3293V10.0093C10.3352 10.0093 10.1715 10.0093 10.0077 10.0093C10.0077 9.91504 10.0077 9.82077 10.0077 9.72644V9.0267C10.0077 8.14824 9.28558 7.54524 8.40718 7.54524H7.58831H6.51631H5.12424V10.791H5.13171V13.2997C5.13911 13.657 5.18378 13.7092 5.22844 13.8134C5.34758 14.0665 6.16644 14.2005 6.43444 14.2154C7.61811 14.2749 8.83151 14.3345 9.99284 14.0516C10.365 13.9622 10.7224 13.8357 11.0648 13.672C12.1516 13.1434 12.9333 12.4808 13.0673 11.0739H13.3279V14.8184H0.84375V14.5727C1.24574 14.5727 2.49639 14.6248 2.77183 14.0888C2.82146 13.9896 2.84627 13.7265 2.84627 13.2997V1.66424C2.84627 1.22257 2.81898 0.949569 2.76438 0.845369C2.7346 0.780835 2.64031 0.718836 2.4815 0.659236C2.03484 0.488036 1.32763 0.391235 0.84375 0.391235V0.167969C9.00771 0.167969 17.1741 0.167969 25.343 0.167969V4.1953V4.2623H25.0452C25.0403 4.24244 25.0353 4.2201 25.0304 4.1953C24.8517 2.97444 24.74 2.13324 23.869 1.4707C23.1544 0.919836 21.7772 0.733702 20.7052 0.733702C20.4223 0.733702 20.266 0.748569 20.2362 0.778369C20.1766 0.823035 20.132 0.845369 20.132 1.19524V13.2997C20.132 13.7414 20.1618 14.0218 20.2213 14.1409C20.2461 14.2054 20.3454 14.27 20.5191 14.3345C21.0104 14.528 21.9335 14.5727 22.462 14.5727V14.8184H15.5016V14.5727C16.0302 14.5727 16.9384 14.528 17.4222 14.3345C17.596 14.27 17.7076 14.1881 17.7572 14.0888C17.8069 13.9896 17.8317 13.7265 17.8317 13.2997V1.21757C17.8317 0.823035 17.8094 0.785836 17.72 0.756036C17.6754 0.741169 17.524 0.733702 17.2659 0.733702C16.3279 0.733702 15.0326 0.919835 14.3626 1.45584C13.581 2.06624 13.3279 3.24244 13.1939 4.1953H12.8886C12.8068 3.6221 12.7546 3.13077 12.6876 2.7139C12.442 1.2399 11.5114 1.0687 10.1045 0.860235C9.21864 0.726235 8.19871 0.726236 7.20864 0.726236C6.57591 0.733702 5.95058 0.778369 5.47411 0.949569C5.34011 0.994236 5.25824 1.08357 5.20611 1.18784C5.16144 1.28457 5.13171 1.39624 5.13171 1.83544V3.54764H5.12424V6.83064" fill="white"/>
</svg>
