<svg width="26" height="38" viewBox="0 0 26 38" fill="none" xmlns="http://www.w3.org/2000/svg">
<g opacity="0.32">
<path d="M13.2996 0.199951C13.3996 0.199951 13.5996 0.199951 13.6996 0.199951C13.7996 0.199951 13.8996 0.299927 13.9996 0.299927C17.5996 1.49993 21.0996 2.69996 24.4996 3.89996C24.9996 4.09996 25.2996 4.39995 25.2996 5.19995C25.4996 7.89995 25.5996 10.6 25.5996 13.4C25.5996 16 25.3996 18.6 24.8996 21.2C24.5996 23.1 24.0996 25 23.2996 26.7C21.1996 31.2 18.2996 34.5 14.6996 36.7C13.4996 37.4 13.4996 37.3999 12.2996 36.9999C12.1996 36.9999 12.1996 37 12.0996 36.9C9.39957 35.8 7.09957 33.9999 5.09957 31.4999C3.39957 29.3999 2.19957 26.8999 1.59957 23.7999C1.09957 21.2999 0.799611 18.6999 0.699611 16.0999C0.599611 12.7999 0.699599 9.49995 0.999599 6.19995C1.0996 5.49995 1.29962 5.09996 1.89962 4.89996C4.99962 3.69996 7.9996 2.49993 10.9996 1.29993C11.7996 0.899927 12.5996 0.599951 13.2996 0.199951ZM12.4996 19.2C12.3996 19 12.2996 18.8999 12.2996 18.7999C11.3996 17.5999 10.3996 16.4 9.39962 15.2C8.89962 14.6 8.39962 14.5999 7.89962 15.2999C7.59962 15.6999 7.29957 16.0999 7.09957 16.4999C6.69957 17.0999 6.69957 17.7999 7.09957 18.2999C8.69957 20.2999 10.2996 22.2 11.7996 24.2C12.1996 24.7 12.6996 24.6999 13.1996 24.0999C15.6996 20.5999 18.1996 17.0999 20.5996 13.5999C20.9996 12.9999 20.9996 12.2999 20.5996 11.7999C20.3996 11.4999 20.0996 11.2 19.8996 10.9C19.3996 10.2 18.8996 10.1999 18.2996 10.9999C16.3996 13.5999 14.5996 16.2 12.6996 18.9C12.5996 18.9 12.5996 19 12.4996 19.2Z" fill="#FAC1DD"/>
</g>
</svg>
