<svg width="27" height="32" viewBox="0 0 27 32" fill="none" xmlns="http://www.w3.org/2000/svg">
<g opacity="0.32">
<path d="M26.6003 13.5001C26.6003 13.8001 26.5003 14.0001 26.5003 14.3001C26.0003 16.3001 24.9004 17.7001 23.4004 18.2001C21.9004 18.7001 20.7004 18.1001 19.9004 16.5001C19.4004 15.6001 18.8004 15.2001 17.9004 15.4001C17.4004 15.5001 16.9004 15.6001 16.4004 15.6001C15.5004 15.8001 14.8004 16.3001 14.4004 17.4001C13.6004 19.2001 12.1003 20.4001 10.7003 20.4001C9.00035 20.4001 7.80032 19.2001 7.30032 17.4001C6.80032 15.2001 7.80031 12.6001 9.60031 11.4001C11.4003 10.2001 13.4004 10.7001 14.4004 12.6001C14.9004 13.6001 15.6003 14.0001 16.6003 13.8001C17.2003 13.7001 17.9003 13.6001 18.5003 13.4001C19.1003 13.2001 19.6004 12.7001 19.9004 11.9001C20.7004 10.0001 22.2003 8.80008 23.8003 9.00008C25.3003 9.10008 26.5003 10.5001 26.8003 12.4001C26.8003 12.5001 26.8003 12.5001 26.8003 12.6001C26.6003 12.9001 26.6003 13.2001 26.6003 13.5001ZM11.7003 16.3001C11.7003 15.7001 11.7003 15.0001 11.7003 14.4001C11.2003 14.5001 10.7003 14.6001 10.2003 14.6001C10.2003 15.2001 10.2003 15.9001 10.2003 16.5001C10.7003 16.5001 11.2003 16.4001 11.7003 16.3001Z" fill="#BEFAEE"/>
<path d="M0.599976 6.70009C0.599976 6.50009 0.700012 6.30005 0.700012 6.10005C1.10001 4.20005 2.5 2.50005 4 2.10005C5.7 1.60005 7.2 2.3001 8 3.9001C8.5 4.8001 9.19998 5.20005 10.1 5.10005C10.6 5.00005 11.2 5.0001 11.7 4.9001C12.6 4.8001 13.3 4.20009 13.7 3.20009C14.4 1.50009 16 0.300103 17.4 0.400103C19 0.500103 20.1 1.5001 20.6 3.4001C21.1 5.6001 20.2 8.10007 18.5 9.30007C16.8 10.5001 14.8 10.0001 13.8 8.10005C13.3 7.10005 12.6 6.7001 11.6 6.9001C10.9 7.0001 10.3 7.10009 9.59998 7.20009C8.89998 7.40009 8.4 7.90007 8 8.80007C7.1 10.7001 5.49999 11.9001 3.79999 11.8001C2.09999 11.7001 0.8 10.2001 0.5 8.20009V8.10005C0.6 7.50005 0.599976 7.10009 0.599976 6.70009ZM17.8 5.9001C17.8 5.3001 17.8 4.70005 17.8 4.10005C17.3 4.20005 16.8 4.20007 16.3 4.30007C16.3 4.90007 16.3 5.50009 16.3 6.20009C16.8 6.00009 17.3 6.0001 17.8 5.9001Z" fill="#BEFAEE"/>
<path d="M0.599976 26.4C0.599976 26.2 0.700012 26 0.700012 25.7C1.10001 23.7 2.5 22 4 21.5C5.7 20.9 7.2 21.6 8 23.2C8.5 24.1 9.19998 24.4 10.1 24.3C10.6 24.2 11.2 24.1 11.7 24C12.6 23.8 13.3 23.3 13.7 22.2C14.4 20.4 16 19.2 17.4 19.3C19 19.3 20.1 20.3 20.6 22.2C21.1 24.3 20.2 26.9 18.5 28.2C16.8 29.5 14.8 29.1 13.8 27.2C13.3 26.2 12.6 25.9 11.6 26.1C10.9 26.2 10.3 26.3 9.59998 26.5C8.89998 26.7 8.4 27.3 8 28.1C7.1 30.1 5.49999 31.3 3.79999 31.3C2.09999 31.2 0.8 29.9 0.5 27.8V27.7C0.6 27.2 0.599976 26.8 0.599976 26.4ZM17.8 24.8C17.8 24.2 17.8 23.6 17.8 22.9C17.3 23 16.8 23.1 16.3 23.2C16.3 23.8 16.3 24.4 16.3 25.1C16.8 24.9 17.3 24.9 17.8 24.8Z" fill="#BEFAEE"/>
</g>
</svg>
