<svg width="39" height="48" viewBox="0 0 39 48" fill="none" xmlns="http://www.w3.org/2000/svg">
<g opacity="0.32">
<path d="M19.7999 48C19.2999 47.8 18.9 47.4 19 46.6C17.3 46.5 15.9 45.6 15 44C14.2 42.6 14.1 40.9 14.2 39.1C18.2 38.4 22.1 37.7 25.9 37C26.4 40.6 24.8 44.5 21.2 46.3C21.2 47 20.9 47.6 20.4 48C20.2 47.9 19.9999 47.9 19.7999 48Z" fill="#C3BCFA"/>
<path d="M7.5003 3.90015C8.3003 4.30015 8.9003 5.10011 9.5003 5.80011C9.9003 6.20011 9.70028 7.00012 9.30028 7.50012C8.90028 8.00012 8.30032 8.20011 7.90032 7.80011C7.30032 7.30011 6.80028 6.7001 6.30028 6.1001C5.80028 5.5001 6.10031 4.5001 6.70031 4.1001C6.80031 4.0001 6.9003 4.00015 7.0003 3.90015C7.1003 4.00015 7.3003 3.90015 7.5003 3.90015Z" fill="#C3BCFA"/>
<path d="M0.5 21.5C0.8 20.6 1.29998 20.3 2.09998 20.2C2.59998 20.2 3.1 20 3.5 20C4.3 19.9 4.80001 20.4 4.70001 21.2C4.70001 22 4.20002 22.6 3.40002 22.7C2.90002 22.8 2.4 22.8 2 22.9C1.3 23.1 0.8 22.8 0.5 22.1C0.5 21.9 0.5 21.7 0.5 21.5Z" fill="#C3BCFA"/>
<path d="M38.5998 16.4002C38.3998 17.2002 37.8998 17.5001 37.2998 17.6001C36.7998 17.6001 36.3998 17.7001 35.8998 17.8001C35.2998 17.9001 34.7998 17.4002 34.7998 16.7002C34.7998 16.0002 35.1998 15.3002 35.8998 15.2002C36.3998 15.1002 36.9998 15.0002 37.4998 15.0002C38.0998 14.9002 38.3998 15.2001 38.5998 15.8001C38.5998 16.0001 38.5998 16.2002 38.5998 16.4002Z" fill="#C3BCFA"/>
<path d="M32.7998 0.800049C32.9998 1.00005 33.1998 1.10005 33.3998 1.30005C33.6998 1.70005 33.6998 2.40009 33.3998 2.90009C32.9998 3.60009 32.4998 4.20005 31.9998 4.80005C31.5998 5.30005 30.9997 5.30009 30.5997 4.90009C30.1997 4.50009 30.0998 3.80005 30.4998 3.30005C31.0998 2.50005 31.6998 1.70006 32.3998 1.00006C32.4998 0.800061 32.6998 0.800049 32.7998 0.800049Z" fill="#C3BCFA"/>
<path d="M32.3004 15.7001C32.2004 15.7001 32.0004 15.7001 31.9004 15.8001C29.7004 16.1001 27.5004 16.5001 25.2004 16.8001C24.7004 16.9001 24.2004 17.1001 23.9004 17.7001C23.3004 18.6001 22.6004 19.5001 21.9004 20.4001C21.8004 20.6001 21.6004 20.6001 21.5004 20.6001C20.1004 20.2001 18.6003 20.8001 17.6003 22.2001C16.6003 23.6001 16.4004 25.4001 16.9004 26.8001C17.5004 28.3001 18.8004 29.1001 20.3004 28.8001C22.6004 28.4001 24.3004 25.1001 23.4004 22.7001C23.3004 22.4001 23.3004 22.2001 23.5004 21.9001C24.1004 21.2001 24.6003 20.4001 25.1003 19.7001C25.2003 19.6001 25.4004 19.4001 25.5004 19.4001C27.7004 19.1001 29.9003 18.7001 32.1003 18.4001C32.1003 18.4001 32.2004 18.4001 32.3004 18.4001C32.2004 19.6001 32.0004 20.7001 31.7004 21.9001C31.0004 24.3001 30.0004 26.5001 28.5004 28.4001C27.2004 30.0001 26.4003 31.9001 26.1003 34.0001C26.1003 34.3001 26.0004 34.3001 25.8004 34.4001C22.0004 35.1001 18.3004 35.7001 14.4004 36.4001C14.2004 36.4001 14.1003 36.4001 14.1003 36.1001C13.8003 34.1001 12.9003 32.5001 11.6003 31.3001C9.50034 29.4001 8.20038 26.9001 7.70038 23.7001C7.60038 23.2001 7.60037 22.7001 7.50037 22.2001C7.70037 22.2001 7.80037 22.1001 8.00037 22.1001C10.4004 21.7001 12.7003 21.4001 15.1003 21.0001C15.6003 20.9001 16.1004 20.7001 16.4004 20.1001C17.0004 19.2001 17.7004 18.3001 18.4004 17.4001C18.6004 17.2001 18.7004 17.1001 18.9004 17.2001C20.4004 17.7001 22.1004 16.9001 23.0004 15.2001C23.9004 13.6001 23.9004 11.6001 23.0004 10.2001C22.1004 8.80009 20.4004 8.5001 18.9004 9.4001C17.4004 10.3001 16.5004 12.3001 16.7004 14.1001C16.7004 14.5001 16.8004 14.8001 16.9004 15.1001C17.0004 15.3001 17.0004 15.5001 16.8004 15.7001C16.2004 16.5001 15.6004 17.3001 15.0004 18.0001C14.9004 18.1001 14.8003 18.2001 14.6003 18.3001C12.3003 18.7001 9.90037 19.0001 7.50037 19.3001C7.50037 19.3001 7.50039 19.3001 7.40039 19.3001C7.80039 12.4001 12.2004 5.40005 19.3004 4.10005C26.5004 2.80005 31.7004 7.90009 32.3004 15.7001Z" fill="#C3BCFA"/>
<path d="M6 36.3001C6.1 36.1001 6.19999 35.8001 6.29999 35.5001C6.69999 34.9001 7.19998 34.3001 7.59998 33.7001C8.09998 33.0001 8.80001 32.9002 9.20001 33.4002C9.70001 33.9002 9.70001 34.6001 9.20001 35.3001C8.80001 35.9001 8.30002 36.5001 7.90002 37.1001C7.50002 37.6001 7.09998 37.7001 6.59998 37.6001C6.29998 37.4001 6.1 37.0001 6 36.3001Z" fill="#C3BCFA"/>
<path d="M33.7004 31.5C33.7004 32.2 33.5003 32.6 33.1003 33C32.7003 33.3 32.3004 33.3 32.0004 33C31.5004 32.6 31.1003 32.1 30.6003 31.6C30.2003 31.1 30.3004 30.4 30.7004 29.8C31.1004 29.2 31.7003 29.1 32.1003 29.5C32.6003 29.9 33.0004 30.4 33.5004 30.9C33.6004 31.1 33.6004 31.4 33.7004 31.5Z" fill="#C3BCFA"/>
<path d="M20.0998 14.7001C19.3998 14.8001 18.7998 14.2001 18.7998 13.4001C18.7998 12.5001 19.3998 11.8001 20.0998 11.7001C20.7998 11.6001 21.2998 12.2 21.2998 13.1C21.3998 13.8 20.8998 14.6001 20.0998 14.7001Z" fill="#C3BCFA"/>
<path d="M18.9004 24.8C18.9004 24 19.5004 23.2 20.2004 23.1C20.9004 23 21.5004 23.6001 21.5004 24.4001C21.5004 25.2001 20.9004 26 20.2004 26.1C19.5004 26.2 18.9004 25.6 18.9004 24.8Z" fill="#C3BCFA"/>
</g>
</svg>
