<svg width="31" height="39" viewBox="0 0 31 39" fill="none" xmlns="http://www.w3.org/2000/svg">
<g opacity="0.32">
<path d="M15.5999 1.00006C16.0999 0.900061 16.4999 0.900049 16.9999 0.800049C17.6999 0.800049 18.3999 0.800085 19.0999 0.900085C22.7999 1.30009 25.7999 3.10004 27.8999 6.60004C29.9999 10 30.8999 14 30.6999 18.6C30.4999 21.7 29.7999 24.6001 28.4999 27.4001C26.6999 31.3001 24.0999 34.1 20.9999 36.1C20.9999 36.1 20.8999 36.1001 20.7999 36.2001C20.7999 36.1001 20.7999 36.0001 20.7999 35.9001C20.7999 32.3001 20.7999 28.7001 20.7999 25.2001C20.7999 25.1001 20.8999 24.9001 20.8999 24.7001C21.5999 23.6001 22.3999 22.6001 23.0999 21.5001C23.1999 21.3001 23.2999 21.3001 23.3999 21.4001C23.6999 21.5001 23.9999 21.5001 24.2999 21.5001C25.4999 21.4001 26.5999 20.3 26.8999 18.8C27.2999 17.3 26.8999 15.8 25.8999 15.1C24.9999 14.4 23.6999 14.6 22.6999 15.6C21.6999 16.7 21.3999 18.3001 21.7999 19.7001C21.8999 19.9001 21.7999 20.0001 21.6999 20.2001C20.8999 21.4001 20.0999 22.5001 19.1999 23.7001C18.8999 24.1001 18.7999 24.5 18.7999 25.1C18.7999 29 18.7999 32.8001 18.7999 36.7001C18.7999 36.9001 18.7999 37.0001 18.7999 37.2001C18.1999 37.4001 17.6999 37.6 17.1999 37.8C17.0999 37.8 16.8999 37.9001 16.7999 37.9001C16.7999 31.0001 16.7999 24.1 16.7999 17.1C16.7999 16.8 16.7999 16.7 17.0999 16.6C18.2999 15.7 18.8999 14.1001 18.5999 12.5001C18.2999 11.0001 17.2999 10.0001 15.9999 10.2001C14.6999 10.4001 13.5999 11.6001 13.2999 13.2001C12.9999 14.9001 13.5999 16.4001 14.7999 16.9001C14.9999 17.0001 15.0999 17.1001 15.0999 17.4001C15.0999 24.3001 15.0999 31.3001 15.0999 38.2001C14.9999 38.2001 14.7999 38.3 14.6999 38.3C14.1999 38.3 13.6999 38.3 13.0999 38.3C13.0999 38.1 13.0999 38 13.0999 37.8C13.0999 33.9 13.0999 30 13.0999 26.1C13.0999 25.6 12.9999 25.2001 12.6999 24.9001C11.8999 24.0001 10.9999 23.1001 10.1999 22.2001C10.0999 22.1001 9.99989 21.9001 10.0999 21.7001C10.5999 20.1001 10.0999 18.5001 8.99991 17.7001C7.89991 17.0001 6.39991 17.4001 5.49991 18.7001C4.59991 20.0001 4.39989 21.9 5.09989 23.1C5.79989 24.4 7.29991 24.7001 8.49991 23.9001C8.69991 23.8001 8.79994 23.8001 8.89994 23.9001C9.69994 24.7001 10.3999 25.5001 11.1999 26.4001C11.2999 26.5001 11.3999 26.7001 11.3999 26.9001C11.3999 30.5001 11.3999 34 11.3999 37.6C11.3999 37.7 11.3999 37.9 11.3999 38.1C10.6999 37.9 10.0999 37.7001 9.39994 37.4001C6.69994 36.3001 4.59991 34.4001 2.99991 31.5001C0.899912 27.5001 0.299924 22.9001 1.19992 17.9001C2.49992 9.90009 7.29991 3.70006 13.4999 1.50006C14.3999 1.30006 14.9999 1.10006 15.5999 1.00006Z" fill="#B7D8FA"/>
<path d="M8.7998 20.7001C8.7998 21.4001 8.3998 22 7.7998 22.1C7.1998 22.2 6.7998 21.7 6.7998 21C6.7998 20.3 7.2998 19.7 7.7998 19.6C8.3998 19.5 8.7998 20.0001 8.7998 20.7001Z" fill="#B7D8FA"/>
<path d="M24.7002 19.4001C24.1002 19.5001 23.7002 19.1001 23.7002 18.4001C23.7002 17.7001 24.1002 17.1 24.7002 17C25.2002 16.9 25.6002 17.4 25.7002 18.1C25.6002 18.6 25.2002 19.3001 24.7002 19.4001Z" fill="#B7D8FA"/>
<path d="M17.2998 13.5C17.2998 14.2 16.8998 14.8 16.2998 14.9C15.6998 15 15.2998 14.5 15.2998 13.8C15.2998 13.1 15.6998 12.5 16.2998 12.5C16.8998 12.3 17.2998 12.8 17.2998 13.5Z" fill="#B7D8FA"/>
</g>
</svg>
