<svg width="34" height="44" viewBox="0 0 34 44" fill="none" xmlns="http://www.w3.org/2000/svg">
<g opacity="0.32">
<path d="M24.3004 42.2C24.1004 42.2 23.9004 42.2 23.7004 42.3C22.7004 41.9 22.4004 41 22.4004 39.7C22.4004 39.2 22.4004 38.8 22.4004 38.3C21.3004 38.4 20.2004 38.5 19.1004 38.6C19.1004 39.4 19.1004 40.2 19.1004 41C19.1004 41.8 18.7004 42.4 18.1004 42.7C18.0004 42.7 18.0004 42.8 17.9004 42.8C17.7004 42.8 17.4004 42.8 17.2004 42.9C16.2004 42.6 15.8004 41.7 15.9004 40.3C15.9004 39.8 15.9004 39.3 15.9004 38.8C14.8004 38.9 13.7004 39 12.5004 39.1C12.5004 39.9 12.5004 40.6 12.5004 41.3C12.5004 42 12.2004 42.6 11.7004 43C11.5004 43.1 11.3004 43.2 11.2004 43.3C11.0004 43.3 10.8004 43.3 10.5004 43.4C9.40038 42.9 9.10039 42.4 9.10039 40.9C9.10039 40.4 9.10039 39.9 9.10039 39.3C8.50039 39.3 8.00038 39.4 7.40038 39.4C6.30038 39.5 5.40039 39 4.70039 38C4.10039 37.2 3.90038 36.3 3.90038 35.2C3.90038 34.5 3.90038 33.9 3.90038 33.2C3.30038 33.2 2.70039 33.3 2.10039 33.3C0.800389 33.3 0.000382662 31.7 0.500383 30.3C0.800383 29.5 1.30038 29.1 2.00038 29.1C2.60038 29 3.30038 29 3.90038 29C3.90038 27.5 3.90038 26.1 3.90038 24.6C3.20038 24.6 2.60038 24.7 1.90038 24.7C1.00038 24.7 0.30037 23.7 0.30037 22.6C0.30037 21.4 0.900377 20.6 1.90038 20.4C2.40038 20.3 2.90038 20.3 3.40038 20.3C3.50038 20.3 3.70037 20.3 3.80037 20.3C3.80037 18.8 3.80037 17.4 3.80037 16C3.20037 16 2.60039 16 2.10039 16C0.700389 16 -0.0996174 14.3 0.500383 12.8C0.800383 12 1.40039 11.7 2.10039 11.7C2.70039 11.7 3.30038 11.7 3.90038 11.7C3.90038 11 3.90038 10.3 3.90038 9.59996C3.90038 7.89996 4.60037 6.59999 5.80037 5.69999C6.30037 5.29999 6.90038 5.19999 7.50038 5.19999C8.00038 5.19999 8.50039 5.19999 9.10039 5.19999C9.10039 4.39999 9.10039 3.7 9.10039 2.9C9.10039 1.6 10.0004 0.800005 11.0004 0.900005C11.8004 1 12.5004 1.9 12.5004 2.9C12.5004 3.6 12.5004 4.29996 12.5004 5.09996C13.7004 5.09996 14.7004 5.09996 15.9004 5.09996C15.9004 4.29996 15.9004 3.49997 15.9004 2.79997C16.0004 1.29997 17.2004 0.499993 18.3004 1.19999C18.9004 1.59999 19.2004 2.39999 19.2004 3.19999C19.2004 3.79999 19.2004 4.39996 19.2004 5.09996C20.3004 5.09996 21.4004 5.09996 22.5004 5.09996C22.5004 4.39996 22.5004 3.69998 22.5004 2.99998C22.5004 1.59998 23.6004 0.699993 24.6004 1.19999C25.2004 1.49999 25.7004 2.19999 25.7004 3.19999C25.7004 3.89999 25.7004 4.49999 25.7004 5.19999C26.2004 5.19999 26.7004 5.19999 27.2004 5.19999C29.0004 5.19999 30.4004 6.99997 30.4004 9.29997C30.4004 9.79997 30.4004 10.4 30.4004 10.9C30.4004 11 30.4004 11.1 30.4004 11.2C30.9004 11.2 31.4004 11.2 31.9004 11.2C32.5004 11.2 32.9004 11.5 33.2004 12.2C33.3004 12.4 33.4004 12.6 33.4004 12.9C33.4004 13.2 33.4004 13.4 33.4004 13.7C33.3004 14.1 33.1004 14.4 33.0004 14.7C32.7004 15.1 32.3004 15.3 31.9004 15.3C31.4004 15.3 30.9004 15.3 30.4004 15.3C30.4004 16.7 30.4004 18 30.4004 19.3C30.9004 19.3 31.3004 19.3 31.8004 19.2C32.2004 19.2 32.7004 19.3 33.0004 19.7C33.2004 20 33.3004 20.4 33.5004 20.8C33.5004 21.1 33.5004 21.4 33.5004 21.7C33.5004 21.8 33.4004 21.9 33.4004 21.9C33.2004 22.7 32.8004 23.1 32.2004 23.2C31.9004 23.2 31.7004 23.3 31.4004 23.3C31.1004 23.3 30.7004 23.3 30.4004 23.3C30.4004 24.7 30.4004 26 30.4004 27.3C30.5004 27.3 30.6004 27.3 30.7004 27.3C31.1004 27.3 31.5004 27.2 31.9004 27.2C32.7004 27.2 33.2004 27.8 33.4004 28.8C33.4004 29.1 33.4004 29.3 33.4004 29.6C33.1004 30.9 32.5004 31.3 31.5004 31.3C31.1004 31.3 30.7004 31.3 30.3004 31.4C30.3004 32.1 30.3004 32.7 30.3004 33.4C30.3004 35.6 29.1004 37.4 27.4004 37.7C26.9004 37.8 26.4004 37.8 25.9004 37.9C25.8004 37.9 25.7004 37.9 25.5004 37.9C25.5004 38.6 25.5004 39.3 25.5004 39.9C25.5004 40.7 25.2004 41.3 24.7004 41.7C24.7004 41.9 24.5004 42 24.3004 42.2ZM7.40038 35.2C7.60038 35.2 7.70037 35.2 7.80037 35.2C14.4004 34.7 20.7004 34.2 26.9004 33.8C27.2004 33.8 27.3004 33.7 27.3004 33.3C27.3004 25.4 27.3004 17.6 27.3004 9.69999C27.3004 9.29999 27.2004 9.19999 26.9004 9.19999C20.7004 9.29999 14.4004 9.39998 7.80037 9.49998C7.70037 9.49998 7.50038 9.49998 7.40038 9.49998C7.40038 18.1 7.40038 26.6 7.40038 35.2Z" fill="#DAD2FD"/>
<path d="M10.8008 13.8C15.3008 13.7 19.7008 13.6 24.0008 13.5C24.0008 19 24.0008 24.4 24.0008 29.9C19.7008 30.2 15.3008 30.5 10.8008 30.7C10.8008 25 10.8008 19.4 10.8008 13.8Z" fill="#DAD2FD"/>
</g>
</svg>
