<?xml version="1.0" encoding="utf-8"?>
<!-- Generator: Adobe Illustrator 27.7.0, SVG Export Plug-In . SVG Version: 6.00 Build 0)  -->
<svg version="1.1" id="Layer_1" xmlns="http://www.w3.org/2000/svg" xmlns:xlink="http://www.w3.org/1999/xlink" x="0px" y="0px"
	 viewBox="0 0 100 88" style="enable-background:new 0 0 100 88;" xml:space="preserve">
<style type="text/css">
	.st0{fill:#FFFFFF;}
	.st1{opacity:0.84;fill:url(#SVGID_1_);enable-background:new    ;}
</style>
<path class="st0" d="M7.8,52.9l37.1,21.4c3.2,1.8,7.1,1.8,10.3,0l37-21.4c2.9-1.7,2.9-5.8,0-7.4l-37-21.4c-3.2-1.8-7.1-1.8-10.3,0
	L7.8,45.5C4.8,47.2,4.8,51.3,7.8,52.9z"/>
<linearGradient id="SVGID_1_" gradientUnits="userSpaceOnUse" x1="-83.7652" y1="226.9318" x2="-40.9146" y2="215.1414" gradientTransform="matrix(1.6667 0 0 -1.6667 164.6667 410.1497)">
	<stop  offset="0" style="stop-color:#5B7FFF"/>
	<stop  offset="1" style="stop-color:#9DB2FF"/>
</linearGradient>
<path class="st1" d="M7.8,42.5l37.1,21.4c3.2,1.8,7.1,1.8,10.3,0l37.1-21.4c2.9-1.7,2.9-5.8,0-7.4L55.2,13.7
	c-3.2-1.8-7.1-1.8-10.3,0L7.8,35.1C4.8,36.7,4.8,40.8,7.8,42.5z"/>
</svg>
