<svg width="1440" height="1634" viewBox="0 0 1440 1634" fill="none" xmlns="http://www.w3.org/2000/svg">
<mask id="mask0_83_8345" style="mask-type:alpha" maskUnits="userSpaceOnUse" x="0" y="802" width="1440" height="832">
<rect y="802" width="1440" height="832" fill="white"/>
</mask>
<g mask="url(#mask0_83_8345)">
<line x1="0.210937" y1="881.5" x2="1440.21" y2="881.5" stroke="white" stroke-opacity="0.08"/>
<line x1="0.210937" y1="961.5" x2="1440.21" y2="961.5" stroke="white" stroke-opacity="0.08"/>
<line x1="0.210937" y1="1041.5" x2="1440.21" y2="1041.5" stroke="white" stroke-opacity="0.08"/>
<line x1="0.210937" y1="1121.5" x2="1440.21" y2="1121.5" stroke="white" stroke-opacity="0.08"/>
<line x1="0.210937" y1="1201.5" x2="1440.21" y2="1201.5" stroke="white" stroke-opacity="0.08"/>
<line x1="0.210937" y1="1281.5" x2="1440.21" y2="1281.5" stroke="white" stroke-opacity="0.08"/>
<line x1="0.210937" y1="1361.5" x2="1440.21" y2="1361.5" stroke="white" stroke-opacity="0.08"/>
<line x1="0.210937" y1="1441.5" x2="1440.21" y2="1441.5" stroke="white" stroke-opacity="0.08"/>
<line x1="0.210937" y1="1521.5" x2="1440.21" y2="1521.5" stroke="white" stroke-opacity="0.08"/>
<line x1="0.210937" y1="1601.5" x2="1440.21" y2="1601.5" stroke="white" stroke-opacity="0.08"/>
<line x1="0.710938" y1="802" x2="0.710897" y2="1738" stroke="white" stroke-opacity="0.08"/>
<line x1="80.7109" y1="802" x2="80.7109" y2="1738" stroke="white" stroke-opacity="0.08"/>
<line x1="160.711" y1="802" x2="160.711" y2="1738" stroke="white" stroke-opacity="0.08"/>
<line x1="240.711" y1="802" x2="240.711" y2="1738" stroke="white" stroke-opacity="0.08"/>
<line x1="320.711" y1="802" x2="320.711" y2="1738" stroke="white" stroke-opacity="0.08"/>
<line x1="400.711" y1="802" x2="400.711" y2="1738" stroke="white" stroke-opacity="0.08"/>
<line x1="480.711" y1="802" x2="480.711" y2="1738" stroke="white" stroke-opacity="0.08"/>
<line x1="560.711" y1="802" x2="560.711" y2="1738" stroke="white" stroke-opacity="0.08"/>
<line x1="640.711" y1="802" x2="640.711" y2="1738" stroke="white" stroke-opacity="0.08"/>
<line x1="720.711" y1="802" x2="720.711" y2="1738" stroke="white" stroke-opacity="0.08"/>
<line x1="800.711" y1="802" x2="800.711" y2="1738" stroke="white" stroke-opacity="0.08"/>
<line x1="880.711" y1="802" x2="880.711" y2="1738" stroke="white" stroke-opacity="0.08"/>
<line x1="960.711" y1="802" x2="960.711" y2="1738" stroke="white" stroke-opacity="0.08"/>
<line x1="1040.71" y1="802" x2="1040.71" y2="1738" stroke="white" stroke-opacity="0.08"/>
<line x1="1120.71" y1="802" x2="1120.71" y2="1738" stroke="white" stroke-opacity="0.08"/>
<line x1="1200.71" y1="802" x2="1200.71" y2="1738" stroke="white" stroke-opacity="0.08"/>
<line x1="1280.71" y1="802" x2="1280.71" y2="1738" stroke="white" stroke-opacity="0.08"/>
<line x1="1360.71" y1="802" x2="1360.71" y2="1738" stroke="white" stroke-opacity="0.08"/>
</g>
<mask id="mask1_83_8345" style="mask-type:alpha" maskUnits="userSpaceOnUse" x="0" y="0" width="1440" height="832">
<rect width="1440" height="832" fill="white"/>
</mask>
<g mask="url(#mask1_83_8345)">
<line x1="0.210937" y1="79.5" x2="1440.21" y2="79.4999" stroke="white" stroke-opacity="0.08"/>
<line x1="0.210937" y1="159.5" x2="1440.21" y2="159.5" stroke="white" stroke-opacity="0.08"/>
<line x1="0.210937" y1="239.501" x2="1440.21" y2="239.501" stroke="white" stroke-opacity="0.08"/>
<line x1="0.210937" y1="319.501" x2="1440.21" y2="319.501" stroke="white" stroke-opacity="0.08"/>
<line x1="0.210937" y1="399.501" x2="1440.21" y2="399.501" stroke="white" stroke-opacity="0.08"/>
<line x1="0.210937" y1="479.501" x2="1440.21" y2="479.501" stroke="white" stroke-opacity="0.08"/>
<line x1="0.210937" y1="559.501" x2="1440.21" y2="559.501" stroke="white" stroke-opacity="0.08"/>
<line x1="0.210937" y1="639.501" x2="1440.21" y2="639.501" stroke="white" stroke-opacity="0.08"/>
<line x1="0.210937" y1="719.501" x2="1440.21" y2="719.501" stroke="white" stroke-opacity="0.08"/>
<line x1="0.210937" y1="799.501" x2="1440.21" y2="799.501" stroke="white" stroke-opacity="0.08"/>
<line x1="0.710938" y1="2.18557e-08" x2="0.710897" y2="936" stroke="white" stroke-opacity="0.08"/>
<line x1="80.7109" y1="2.18557e-08" x2="80.7109" y2="936" stroke="white" stroke-opacity="0.08"/>
<line x1="160.711" y1="2.18557e-08" x2="160.711" y2="936" stroke="white" stroke-opacity="0.08"/>
<line x1="240.711" y1="2.18557e-08" x2="240.711" y2="936" stroke="white" stroke-opacity="0.08"/>
<line x1="320.711" y1="2.18557e-08" x2="320.711" y2="936" stroke="white" stroke-opacity="0.08"/>
<line x1="400.711" y1="2.18557e-08" x2="400.711" y2="936" stroke="white" stroke-opacity="0.08"/>
<line x1="480.711" y1="2.18557e-08" x2="480.711" y2="936" stroke="white" stroke-opacity="0.08"/>
<line x1="560.711" y1="2.18557e-08" x2="560.711" y2="936" stroke="white" stroke-opacity="0.08"/>
<line x1="640.711" y1="2.18557e-08" x2="640.711" y2="936" stroke="white" stroke-opacity="0.08"/>
<line x1="720.711" y1="2.18557e-08" x2="720.711" y2="936" stroke="white" stroke-opacity="0.08"/>
<line x1="800.711" y1="2.18557e-08" x2="800.711" y2="936" stroke="white" stroke-opacity="0.08"/>
<line x1="880.711" y1="2.18557e-08" x2="880.711" y2="936" stroke="white" stroke-opacity="0.08"/>
<line x1="960.711" y1="2.18557e-08" x2="960.711" y2="936" stroke="white" stroke-opacity="0.08"/>
<line x1="1040.71" y1="2.18557e-08" x2="1040.71" y2="936" stroke="white" stroke-opacity="0.08"/>
<line x1="1120.71" y1="2.18557e-08" x2="1120.71" y2="936" stroke="white" stroke-opacity="0.08"/>
<line x1="1200.71" y1="2.18557e-08" x2="1200.71" y2="936" stroke="white" stroke-opacity="0.08"/>
<line x1="1280.71" y1="2.18557e-08" x2="1280.71" y2="936" stroke="white" stroke-opacity="0.08"/>
<line x1="1360.71" y1="2.18557e-08" x2="1360.71" y2="936" stroke="white" stroke-opacity="0.08"/>
</g>
</svg>
