<svg width="1423" height="832" viewBox="0 0 1423 832" fill="none" xmlns="http://www.w3.org/2000/svg"
style="
display: flex;
height: 58.5rem;
align-items: center;
gap: 5rem;
"
>
<mask id="mask0_1_817" style="mask-type:alpha" maskUnits="userSpaceOnUse" x="-17" y="0" width="1440" height="832">
<rect x="-17" width="1640" height="832" fill="white"/>
</mask>
<g mask="url(#mask0_1_817)">
<line x1="-16.7891" y1="79.5005" x2="1423.21" y2="79.5004" stroke="white" stroke-opacity="0.08"/>
<line x1="-16.7891" y1="159.5" x2="1423.21" y2="159.5" stroke="white" stroke-opacity="0.08"/>
<line x1="-16.7891" y1="239.5" x2="1423.21" y2="239.5" stroke="white" stroke-opacity="0.08"/>
<line x1="-16.7891" y1="319.5" x2="1423.21" y2="319.5" stroke="white" stroke-opacity="0.08"/>
<line x1="-16.7891" y1="399.501" x2="1423.21" y2="399.501" stroke="white" stroke-opacity="0.08"/>
<line x1="-16.7891" y1="479.501" x2="1423.21" y2="479.501" stroke="white" stroke-opacity="0.08"/>
<line x1="-16.7891" y1="559.501" x2="1423.21" y2="559.501" stroke="white" stroke-opacity="0.08"/>
<line x1="-16.7891" y1="639.501" x2="1423.21" y2="639.501" stroke="white" stroke-opacity="0.08"/>
<line x1="-16.7891" y1="719.501" x2="1423.21" y2="719.501" stroke="white" stroke-opacity="0.08"/>
<line x1="-16.7891" y1="799.501" x2="1423.21" y2="799.501" stroke="white" stroke-opacity="0.08"/>
<line x1="63.7109" y1="2.18557e-08" x2="63.7109" y2="936" stroke="white" stroke-opacity="0.08"/>
<line x1="143.711" y1="2.18557e-08" x2="143.711" y2="936" stroke="white" stroke-opacity="0.08"/>
<line x1="223.711" y1="2.18557e-08" x2="223.711" y2="936" stroke="white" stroke-opacity="0.08"/>
<line x1="303.711" y1="2.18557e-08" x2="303.711" y2="936" stroke="white" stroke-opacity="0.08"/>
<line x1="383.711" y1="2.18557e-08" x2="383.711" y2="936" stroke="white" stroke-opacity="0.08"/>
<line x1="463.711" y1="2.18557e-08" x2="463.711" y2="936" stroke="white" stroke-opacity="0.08"/>
<line x1="543.711" y1="2.18557e-08" x2="543.711" y2="936" stroke="white" stroke-opacity="0.08"/>
<line x1="623.711" y1="2.18557e-08" x2="623.711" y2="936" stroke="white" stroke-opacity="0.08"/>
<line x1="703.711" y1="2.18557e-08" x2="703.711" y2="936" stroke="white" stroke-opacity="0.08"/>
<line x1="783.711" y1="2.18557e-08" x2="783.711" y2="936" stroke="white" stroke-opacity="0.08"/>
<line x1="863.712" y1="2.18557e-08" x2="863.712" y2="936" stroke="white" stroke-opacity="0.08"/>
<line x1="943.712" y1="2.18557e-08" x2="943.712" y2="936" stroke="white" stroke-opacity="0.08"/>
<line x1="1023.71" y1="2.18557e-08" x2="1023.71" y2="936" stroke="white" stroke-opacity="0.08"/>
<line x1="1103.71" y1="2.18557e-08" x2="1103.71" y2="936" stroke="white" stroke-opacity="0.08"/>
<line x1="1183.71" y1="2.18557e-08" x2="1183.71" y2="936" stroke="white" stroke-opacity="0.08"/>
<line x1="1263.71" y1="2.18557e-08" x2="1263.71" y2="936" stroke="white" stroke-opacity="0.08"/>
<line x1="1343.71" y1="2.18557e-08" x2="1343.71" y2="936" stroke="white" stroke-opacity="0.08"/>
</g>
</svg>
