<svg width="96" height="96" viewBox="0 0 96 96" fill="none" xmlns="http://www.w3.org/2000/svg">
<path d="M8 68C8 60.456 8 56.688 10.344 54.344C12.688 52 16.456 52 24 52H72C79.544 52 83.312 52 85.656 54.344C88 56.688 88 60.456 88 68C88 75.544 88 79.312 85.656 81.656C83.312 84 79.544 84 72 84H24C16.456 84 12.688 84 10.344 81.656C8 79.312 8 75.544 8 68ZM8 24C8 16.456 8 12.688 10.344 10.344C12.688 8 16.456 8 24 8H72C79.544 8 83.312 8 85.656 10.344C88 12.688 88 16.456 88 24C88 31.544 88 35.312 85.656 37.656C83.312 40 79.544 40 72 40H24C16.456 40 12.688 40 10.344 37.656C8 35.312 8 31.544 8 24Z" stroke="url(#paint0_linear_561_4544)" stroke-width="1.5"/>
<path d="M44 24H72M24 24H32M44 68H72M24 68H32" stroke="url(#paint1_linear_561_4544)" stroke-width="1.5" stroke-linecap="round"/>
<defs>
<linearGradient id="paint0_linear_561_4544" x1="30.3946" y1="8.00001" x2="109.228" y2="22.539" gradientUnits="userSpaceOnUse">
<stop stop-color="#FF9F9D"/>
<stop offset="1" stop-color="#FFD18B"/>
</linearGradient>
<linearGradient id="paint1_linear_561_4544" x1="37.4368" y1="24" x2="84.6217" y2="33.0187" gradientUnits="userSpaceOnUse">
<stop stop-color="#FF9F9D"/>
<stop offset="1" stop-color="#FFD18B"/>
</linearGradient>
</defs>
</svg>
