<?xml version="1.0" encoding="UTF-8"?>
<svg id="a" xmlns="http://www.w3.org/2000/svg" xmlns:xlink="http://www.w3.org/1999/xlink" viewBox="0 0 919.78 1176.61">
    <defs>
        <style>
            .bi {
                animation: up-down linear infinite 20s;
                animation-iteration-count: infinite;
                transform-origin: 50% 50%;
                -webkit-animation: up-down linear 4s;
                -webkit-animation-iteration-count: infinite;
                -webkit-transform-origin: 50% 50%;
                -moz-animation: up-down linear 4s;
                -moz-animation-iteration-count: infinite;
                -moz-transform-origin: 50% 50%;
                -o-animation: up-down linear 4s;
                -o-animation-iteration-count: infinite;
                -o-transform-origin: 50% 50%;
                -ms-animation: up-down linear 4s;
                -ms-animation-iteration-count: infinite;
                -ms-transform-origin: 50% 50%;
            }

            @keyframes up-down {
                0% {
                    transform: translate(1px, 0px);
                }

                24% {
                    transform: translate(1px, -5px);
                }

                50% {
                    transform: translate(1px, 0px);
                }

                74% {
                    transform: translate(1px, -5px);
                }

                100% {
                    transform: translate(1px, 0px);
                }
            }

            .af {
                fill: url(#ad);
            }

            .ag {
                fill: url(#ac);
            }

            .ah {
                fill: url(#aa);
            }

            .ai {
                fill: url(#ab);
            }

            .aj {
                fill: url(#ae);
            }

            .ak {
                fill: url(#u);
            }

            .al {
                fill: url(#t);
            }

            .am {
                fill: url(#w);
            }

            .an {
                fill: url(#x);
            }

            .ao {
                fill: url(#z);
            }

            .ap {
                fill: url(#j);
            }

            .aq {
                fill: url(#g);
            }

            .ar {
                fill: url(#m);
            }

            .as {
                fill: url(#h);
            }

            .at {
                fill: url(#i);
            }

            .au {
                fill: url(#q);
            }

            .av {
                fill: url(#r);
            }

            .aw {
                fill: url(#o);
            }

            .ax {
                fill: url(#p);
            }

            .ay {
                fill: url(#k);
            }

            .az {
                fill: url(#n);
            }

            .ba {
                fill: url(#l);
            }

            .bb {
                fill: url(#f);
            }

            .bc {
                fill: url(#d);
            }

            .bd {
                fill: url(#s);
            }

            .be {
                fill: url(#e);
            }

            .bf {
                fill: url(#c);
            }

            .bg {
                fill: url(#b);
            }

            .bh {
                fill: url(#v);
            }

            .bi {
                opacity: .62;
            }

            .bi,
            .bj,
            .bk,
            .bl,
            .bm {
                fill: none;
            }

            .bj {
                stroke-linecap: round;
                stroke-linejoin: round;
                stroke-width: 2.5px;
            }

            @keyframes moveDottedLine {
                0% {
                    stroke-dashoffset: 0;
                }

                100% {
                    stroke-dashoffset: 250;
                }
            }

            .bj,
            .bk,
            .bl,
            .bm {
                stroke: #fff;
            }

            .bn {
                fill: #000307;
            }

            .bo {
                fill: #fff;
            }

            .bp {
                fill: #00a1e0;
            }

            .bq {
                fill: #041527;
            }

            .br {
                fill: #b8c4c2;
            }

            .bs {
                fill: #336791;
            }

            .bt {
                fill: #12924f;
            }

            .bu {
                fill: #10aa50;
            }

            .bk {
                stroke-dasharray: 0 0 3.9 3.9;
                animation: moveDottedLine 12s linear infinite !important;
            }

            .bk,
            .bl,
            .bm {
                stroke-miterlimit: 10;
            }

            .bl {
                stroke-dasharray: 0 0 3.67 3.67;
                animation: moveDottedLine 12s linear infinite !important;
            }
        </style>
        <linearGradient id="b" x1="223.35" y1="407.3" x2="919.78" y2="407.3" gradientUnits="userSpaceOnUse">
            <stop offset=".02" stop-color="#2666c4" />
            <stop offset="1" stop-color="#203567" />
        </linearGradient>
        <linearGradient id="c" x1="224.06" y1="791.76" x2="571.57" y2="791.76" xlink:href="#b" />
        <linearGradient id="d" x1="571.13" y1="639.96" x2="918.63" y2="639.96" xlink:href="#b" />
        <linearGradient id="e" x1="571.13" y1="943.46" x2="918.63" y2="943.46" xlink:href="#b" />
        <linearGradient id="f" x1="115.4" y1="676.79" x2="310.8" y2="676.79" xlink:href="#b" />
        <linearGradient id="g" x1="158.4" y1="741.59" x2="310.8" y2="741.59" xlink:href="#b" />
        <linearGradient id="h" x1="0" y1="823.96" x2="88" y2="823.96" xlink:href="#b" />
        <linearGradient id="i" x1="87.9" y1="823.78" x2="175.9" y2="823.78" xlink:href="#b" />
        <linearGradient id="j" x1="0" y1="743.03" x2="175.51" y2="743.03" xlink:href="#b" />
        <linearGradient id="k" x1="226.54" y1="745.95" x2="421.94" y2="745.95" xlink:href="#b" />
        <linearGradient id="l" x1="269.54" y1="810.75" x2="421.94" y2="810.75" xlink:href="#b" />
        <linearGradient id="m" x1="111.15" y1="893.11" x2="199.15" y2="893.11" xlink:href="#b" />
        <linearGradient id="n" x1="199.05" y1="892.31" x2="287.05" y2="892.31" xlink:href="#b" />
        <linearGradient id="o" x1="110.65" y1="812.56" x2="287.05" y2="812.56" xlink:href="#b" />
        <linearGradient id="p" x1="558.8" y1="325.79" x2="724.31" y2="325.79" xlink:href="#b" />
        <linearGradient id="q" x1="393.1" y1="327.1" x2="558.61" y2="327.1" xlink:href="#b" />
        <linearGradient id="r" x1="392.16" y1="157.92" x2="724.31" y2="157.92" xlink:href="#b" />
        <linearGradient id="s" x1="633.7" y1="267.11" x2="671.45" y2="430.68" gradientUnits="userSpaceOnUse">
            <stop offset="0" stop-color="#0e20d5" />
            <stop offset="1" stop-color="#fff" />
        </linearGradient>
        <linearGradient id="t" x1="335.84" y1="807.99" x2="531.24" y2="807.99" xlink:href="#b" />
        <linearGradient id="u" x1="378.84" y1="872.79" x2="531.24" y2="872.79" xlink:href="#b" />
        <linearGradient id="v" x1="220.45" y1="955.15" x2="308.45" y2="955.15" xlink:href="#b" />
        <linearGradient id="w" x1="308.35" y1="954.35" x2="396.35" y2="954.35" xlink:href="#b" />
        <linearGradient id="x" x1="220.05" y1="874.6" x2="396.35" y2="874.6" xlink:href="#b" />
        <linearGradient id="z" x1="-1600.08" y1="-557.68" x2="-1270.3" y2="-557.68"
            gradientTransform="translate(-880.27 700) rotate(-180) scale(1 -1)" gradientUnits="userSpaceOnUse">
            <stop offset="0" stop-color="#3a2aa4" />
            <stop offset=".22" stop-color="#5c32b6" />
            <stop offset=".57" stop-color="#7533b4" />
            <stop offset="1" stop-color="#81d9bf" />
        </linearGradient>
        <linearGradient id="aa" x1="-1600.08" y1="-585.33" x2="-1270.3" y2="-585.33" xlink:href="#z" />
        <linearGradient id="ab" x1="-1603.04" y1="-543.12" x2="-1272.71" y2="-543.12" xlink:href="#z" />
        <linearGradient id="ac" x1="-1634.43" y1="-345.67" x2="-1302.37" y2="-777.75"
            gradientTransform="translate(-880.27 700) rotate(-180) scale(1 -1)" gradientUnits="userSpaceOnUse">
            <stop offset="0" stop-color="#fff" stop-opacity="0" />
            <stop offset="1" stop-color="#f6f6f6" />
        </linearGradient>
        <linearGradient id="ad" x1="-1535.58" y1="-498.52" x2="-1499.61" y2="-568.86"
            gradientTransform="translate(-880.27 700) rotate(-180) scale(1 -1)" gradientUnits="userSpaceOnUse">
            <stop offset=".2" stop-color="#fff" stop-opacity="0" />
            <stop offset="1" stop-color="#f6f6f6" />
        </linearGradient>
        <linearGradient id="ae" x1="-1337.99" y1="-508.55" x2="-1365.62" y2="-555.49" xlink:href="#ad" />
    </defs>
    <polyline class="bg" points="919.78 406.88 570.83 608.35 223.35 407.73 572.31 206.26 919.54 407.75" />
    <polygon class="bf" points="571.57 1176.1 224.06 975.47 224.06 407.43 571.57 608.06 571.57 1176.1" />
    <polyline class="bc"
        points="571.13 732.61 571.13 607.93 918.63 407.3 918.63 531.98 918.63 547.3 918.63 671.98 571.13 872.61 571.13 747.93" />
    <polyline class="be"
        points="571.13 1035.61 571.13 910.93 918.63 710.3 918.63 834.98 918.63 851.3 918.63 975.98 571.13 1176.61 571.13 1051.93" />
    <path class="bo"
        d="m772.51,626.24c.87,1.35,1.31,3.22,1.32,5.62,0,1.8-.24,3.6-.74,5.4-.5,1.81-1.2,3.53-2.1,5.16-.91,1.64-1.98,3.12-3.22,4.46-1.24,1.32-2.59,2.41-4.05,3.26s-2.84,1.33-4.07,1.43c-1.23.1-2.31-.15-3.22-.75-.91-.6-1.62-1.51-2.12-2.73-.51-1.22-.76-2.73-.77-4.54,0-2.38.42-4.74,1.28-7.09s2.06-4.49,3.59-6.42c1.52-1.92,3.26-3.45,5.22-4.58s3.76-1.65,5.28-1.49c1.54.16,2.73.92,3.61,2.27Zm-2.13,12.73c.65-1.89.97-3.81.96-5.74s-.33-3.42-.98-4.51c-.64-1.1-1.55-1.72-2.7-1.88-1.15-.17-2.5.2-4.04,1.09s-2.88,2.07-4.03,3.57c-1.14,1.48-2.02,3.13-2.65,4.96-.63,1.82-.94,3.7-.93,5.63s.33,3.51.97,4.64c.65,1.12,1.55,1.79,2.69,1.99,1.15.2,2.48-.15,4-1.02s2.85-2.07,4.01-3.6c1.15-1.53,2.05-3.23,2.7-5.11" />
    <polygon class="bo"
        points="780.25 616.18 780.31 637.81 791.26 631.49 791.27 633.89 779.13 640.9 777.89 641.61 777.82 617.59 780.25 616.18" />
    <path class="bo"
        d="m804.63,602.11l8.3,19.28-2.49,1.44-2.46-5.9-9.71,5.61-2.42,8.72-2.34,1.35,8.16-28.78,2.13-1.23.83-.48Zm-5.57,17.56l8.11-4.68-4.09-9.81-4.02,14.49" />
    <path class="bo"
        d="m831.26,589.97c.56.72.85,1.82.85,3.28s-.27,2.9-.83,4.28c-.56,1.38-1.37,2.66-2.43,3.86-1.06,1.2-2.35,2.23-3.87,3.1l-6.04,3.49.03,9.91-2.43,1.4-.07-24.03,8.47-4.89c1.52-.88,2.81-1.34,3.88-1.4,1.07-.06,1.88.27,2.45.99Zm-2.79,8.89c.82-1.29,1.22-2.68,1.22-4.2s-.41-2.42-1.22-2.73c-.81-.31-2.01,0-3.61.92l-5.95,3.44.03,9.31,5.95-3.44c1.58-.91,2.78-2.01,3.59-3.29" />
    <path class="bo"
        d="m777.6,895.68c.92,1.26,1.39,3.09,1.4,5.5s-.45,4.77-1.37,7.13c-.92,2.35-2.21,4.5-3.85,6.46-1.64,1.96-3.57,3.58-5.78,4.86l-5.74,3.31-1.45.84-.07-24.03,2.43-1.4,4.73-2.73c2.23-1.29,4.18-1.91,5.84-1.88,1.66.04,2.95.68,3.87,1.94Zm-2.11,12.57c.69-1.87,1.03-3.77,1.03-5.7s-.35-3.39-1.05-4.41c-.69-1.03-1.67-1.56-2.95-1.6-1.27-.04-2.81.45-4.61,1.49l-4.73,2.73.05,19.22,4.73-2.73c1.78-1.03,3.31-2.32,4.59-3.87,1.28-1.56,2.26-3.26,2.95-5.13" />
    <path class="bo"
        d="m794.06,902.92c.06.49.14.99.24,1.51l-2.28,1.32c-.08-.33-.14-.73-.17-1.2-.02-.34-.04-.76-.04-1.25-.35,1.02-.88,1.98-1.61,2.9-.92,1.15-2.03,2.12-3.36,2.88-1.56.9-2.8,1.18-3.72.86-.92-.33-1.38-1.24-1.39-2.73s.45-2.91,1.36-4.26c.9-1.35,2.22-2.69,3.96-4.03l4.58-3.52v-.77c0-1.29-.27-2.09-.8-2.4-.53-.31-1.37-.13-2.53.54s-2.06,1.45-2.74,2.37c-.68.91-1.06,1.87-1.13,2.88l-2.28,1.32c.09-1.71.7-3.35,1.82-4.93,1.12-1.58,2.59-2.9,4.41-3.95s3.26-1.38,4.17-.9c.92.47,1.37,1.71,1.38,3.72l.02,8.17c0,.49.03.98.09,1.47Zm-2.41-2.57v-2.75s-4.24,3.19-4.24,3.19c-1.1.84-1.94,1.66-2.51,2.46-.57.79-.85,1.64-.85,2.53s.27,1.37.79,1.51c.52.15,1.3-.08,2.33-.67,1.32-.76,2.4-1.72,3.23-2.88.83-1.17,1.25-2.29,1.25-3.38" />
    <path class="bo"
        d="m801.67,878.16v4.97s4.52-2.6,4.52-2.6v2.27s-4.49,2.6-4.49,2.6l.03,10.01c0,.96.22,1.53.66,1.73.44.2,1.14,0,2.13-.56.4-.23.73-.45,1.02-.67.28-.22.52-.43.7-.62v2.27c-.19.2-.47.44-.84.71-.37.27-.78.53-1.23.79-1.67.97-2.89,1.24-3.66.82-.76-.42-1.15-1.44-1.15-3.06l-.03-10.04-3.1,1.79v-2.27s3.1-1.79,3.1-1.79v-3.97s2.35-2.37,2.35-2.37Z" />
    <path class="bo"
        d="m820.58,887.61c.06.49.14.99.24,1.51l-2.28,1.32c-.08-.33-.14-.73-.17-1.2-.02-.34-.04-.75-.04-1.24-.35,1.02-.89,1.98-1.61,2.89-.92,1.15-2.03,2.12-3.36,2.88-1.56.9-2.8,1.18-3.72.86-.92-.33-1.38-1.24-1.39-2.73s.45-2.91,1.36-4.26c.9-1.35,2.22-2.69,3.96-4.03l4.58-3.52v-.77c0-1.29-.27-2.09-.8-2.4-.53-.31-1.37-.13-2.53.54s-2.06,1.45-2.74,2.37c-.68.91-1.06,1.87-1.13,2.88l-2.28,1.32c.09-1.71.7-3.35,1.82-4.93,1.12-1.58,2.59-2.9,4.41-3.95s3.26-1.38,4.18-.91c.91.47,1.37,1.72,1.37,3.72l.02,8.17c0,.49.03.98.09,1.47Zm-2.41-2.57v-2.75s-4.24,3.19-4.24,3.19c-1.1.84-1.94,1.66-2.51,2.46-.57.79-.85,1.64-.85,2.53s.27,1.37.79,1.51c.52.15,1.3-.08,2.33-.67,1.32-.76,2.4-1.72,3.23-2.88.84-1.17,1.25-2.29,1.25-3.38" />
    <polygon class="bo"
        points="763.28 938.4 763.34 960.02 774.29 953.7 774.29 956.11 762.16 963.11 760.92 963.83 760.85 939.8 763.28 938.4" />
    <path class="bo"
        d="m788.7,946.13c.06.49.14.99.24,1.51l-2.28,1.32c-.08-.34-.13-.74-.16-1.21-.02-.34-.04-.75-.05-1.24-.35,1.02-.88,1.99-1.61,2.9-.91,1.15-2.03,2.11-3.36,2.87-1.56.9-2.8,1.19-3.72.86-.92-.33-1.38-1.24-1.38-2.73s.45-2.91,1.35-4.26,2.22-2.69,3.96-4.02l4.59-3.53v-.76c0-1.29-.27-2.09-.8-2.4-.53-.31-1.37-.13-2.53.54s-2.06,1.45-2.74,2.37c-.68.92-1.06,1.87-1.14,2.88l-2.27,1.31c.09-1.7.7-3.34,1.82-4.93,1.12-1.58,2.59-2.9,4.4-3.94s3.27-1.38,4.18-.91c.91.47,1.37,1.72,1.37,3.72l.02,8.18c0,.48.03.97.09,1.47Zm-2.41-2.58v-2.75s-4.24,3.2-4.24,3.2c-1.1.84-1.95,1.65-2.51,2.45-.57.8-.85,1.64-.85,2.53s.26,1.37.78,1.52c.52.15,1.3-.08,2.33-.67,1.32-.76,2.4-1.72,3.24-2.89.83-1.16,1.25-2.29,1.25-3.38" />
    <polygon class="bo"
        points="795.47 919.14 795.52 934.42 802.68 922.67 805.94 920.79 798.11 933.42 806.28 937.64 803.03 939.51 795.52 935.58 795.54 943.84 793.17 945.21 793.1 920.51 795.47 919.14" />
    <path class="bo"
        d="m820.37,916.06c.57.92.86,2.22.86,3.91,0,.23,0,.44-.02.65,0,.2-.03.44-.07.71l-11.78,6.8c.12,1.54.58,2.6,1.36,3.18.92.68,2.15.58,3.69-.31.96-.56,1.81-1.29,2.55-2.19.73-.9,1.25-1.89,1.59-2.98l2.25-1.3c-.49,1.85-1.31,3.55-2.46,5.12-1.15,1.57-2.5,2.8-4.04,3.68-1.44.83-2.71,1.19-3.82,1.05-1.11-.13-1.98-.68-2.61-1.65-.64-.97-.96-2.32-.96-4.05s.3-3.45.92-5.13c.62-1.68,1.49-3.21,2.61-4.6,1.13-1.39,2.42-2.5,3.88-3.34s2.62-1.17,3.65-1.07c1.04.09,1.84.6,2.4,1.52Zm-10.96,9.81l9.46-5.46c-.14-1.38-.52-2.32-1.16-2.82-.8-.64-1.93-.54-3.39.3s-2.71,2.14-3.62,3.85c-.7,1.3-1.13,2.67-1.29,4.13" />
    <ellipse class="bn" cx="286.05" cy="587.24" rx="8" ry="18" transform="translate(-320.54 344.91) rotate(-42.25)" />
    <ellipse class="bn" cx="396.65" cy="655.91" rx="8" ry="18" transform="translate(-337.98 437.11) rotate(-42.25)" />
    <polygon class="bb" points="267.8 620.39 310.8 645.19 158.4 733.19 115.4 708.39 267.8 620.39" />
    <polyline class="aq" points="158.4 733.19 158.4 837.99 310.8 750.09 310.8 645.19 158.4 733.19" />
    <line class="bm" x1="286.3" y1="587.39" x2="286.3" y2="589.39" />
    <line class="bl" x1="286.3" y1="592.99" x2="286.3" y2="627.89" />
    <polyline class="bm" points="286.3 629.69 286.3 631.69 284.6 632.69" />
    <line class="bk" x1="281.2" y1="634.59" x2="130.17" y2="720.59" />
    <line class="bm" x1="159.2" y1="704.09" x2="157.5" y2="705.09" />
    <polygon class="as" points="87.9 904.51 0 855.01 0 743.41 88 793.41 87.9 904.51" />
    <polygon class="at" points="87.9 904.51 175.9 852.01 175.51 743.06 88 793.41 87.9 904.51" />
    <polygon class="ap" points="87.9 794.36 175.51 743.06 87.9 691.71 0 743.41 87.9 794.36" />
    <polygon class="ay" points="378.94 689.55 421.94 714.35 269.54 802.35 226.54 777.55 378.94 689.55" />
    <polyline class="ba" points="269.54 802.35 269.54 907.15 421.94 819.25 421.94 714.35 269.54 802.35" />
    <line class="bm" x1="397.44" y1="656.55" x2="397.44" y2="658.55" />
    <line class="bl" x1="397.44" y1="662.15" x2="397.44" y2="697.05" />
    <polyline class="bm" points="397.44 698.85 397.44 700.85 395.74 701.85" />
    <line class="bk" x1="392.34" y1="703.75" x2="250.35" y2="784.6" />
    <line class="bm" x1="270.34" y1="773.25" x2="268.64" y2="774.25" />
    <polygon class="ar" points="199.05 973.66 111.15 924.16 111.15 812.56 199.15 862.56 199.05 973.66" />
    <polygon class="az" points="199.05 973.66 287.05 921.16 287.05 810.96 199.15 862.56 199.05 973.66" />
    <polygon class="aw" points="199.05 863.31 287.05 810.96 199.05 761.81 110.65 812.31 199.05 863.31" />
    <path class="bn"
        d="m262.25,937.5l2.7,1.4c1.6.8,2.8,3.1,2.8,5.2s-1.3,3.2-2.8,2.4-2.7-3.1-2.7-5.2v-3.8Zm-1.4,12.4c0,2.1-1.1,3.1-2.6,2.3-1.4-.8-2.6-3.1-2.6-5.1v-9.2c0-2.1,1.2-3.1,2.6-2.4,1.4.8,2.6,3,2.6,5.1v9.3Z" />
    <path class="bn"
        d="m248.15,928.7l-2.4-1.2c-1.3-.7-2.4-2.8-2.4-4.7,0-1.9,1.1-3,2.4-2.4,1.3.6,2.4,2.7,2.4,4.7v3.6Zm1.2-12.1c0-2,1.1-3.1,2.5-2.5s2.5,2.8,2.5,4.8v9.2c0,2-1.1,3.1-2.5,2.4s-2.5-2.8-2.5-4.8v-9.1Z" />
    <polygon class="ax" points="558.8 496.29 724.31 403.08 724.31 155.28 558.8 251.12 558.8 496.29" />
    <polygon class="au" points="558.61 496.29 393.1 403.08 393.1 157.92 558.61 251.12 558.61 496.29" />
    <polygon class="av" points="558.61 253.48 392.16 157.82 558.61 62.36 724.31 155.28 558.61 253.48" />
    <path class="bq"
        d="m686.95,401.08l-80.97,43.09c-14,7.41-25.25-2.47-25.25-22.23v-119.94c0-19.76,11.53-40.62,25.25-46.93l80.97-35.96c12.63-5.76,22.78,4.94,22.78,23.33v112.81c0,18.66-10.16,38.97-22.78,45.84Z" />
    <path class="bo"
        d="m605.43,361.83l36.78,11.8c3.02,1.1,6.86-.82,10.16-5.21l35.13-47.21c2.74-3.57,2.74-9.33,0-10.16l-35.13-12.63c-3.02-1.1-6.86.55-10.16,4.67l-36.78,48.03c-3.02,4.12-3.02,9.88,0,10.7Z" />
    <path class="bd"
        d="m605.43,347.01l36.78,12.08c3.02,1.1,6.86-.82,10.16-4.94l35.13-46.93c2.74-3.57,2.74-9.33,0-10.16l-35.13-12.9c-3.02-1.1-6.86.55-10.16,4.67l-36.78,47.76c-3.02,3.57-3.02,9.61,0,10.43Z" />
    <ellipse class="bn" cx="507.71" cy="719.11" rx="8" ry="18" transform="translate(-351.62 528.21) rotate(-42.25)" />
    <polygon class="al" points="488.24 751.59 531.24 776.39 378.84 864.39 335.84 839.59 488.24 751.59" />
    <polyline class="ak" points="378.84 864.39 378.84 969.19 531.24 881.29 531.24 776.39 378.84 864.39" />
    <line class="bm" x1="506.74" y1="718.59" x2="506.74" y2="720.59" />
    <line class="bl" x1="506.74" y1="724.19" x2="506.74" y2="759.09" />
    <polyline class="bm" points="506.74 760.89 506.74 762.89 505.04 763.89" />
    <line class="bk" x1="501.64" y1="765.79" x2="358.76" y2="847.15" />
    <line class="bm" x1="379.64" y1="835.29" x2="377.94" y2="836.29" />
    <polygon class="bh" points="308.35 1035.7 220.45 986.2 220.45 874.6 308.45 924.6 308.35 1035.7" />
    <polygon class="am" points="308.35 1035.7 396.35 983.2 396.35 873 308.45 924.6 308.35 1035.7" />
    <polygon class="an" points="308.45 925.35 396.35 873 308.45 823.85 220.05 874.35 308.45 925.35" />
    <polygon class="bq" points="880.17 694.54 918.63 710.3 571.13 910.93 571.13 872.61 880.17 694.54" />
    <path class="bu"
        d="m54.09,822.94c-3.69-23.85-11.39-34.07-13.35-39.29-.81-2.27-1.53-4.55-2.15-6.84-.1,1.87-.29,2.97-1.52,3.73-2.47,1.51-12.96,6.85-13.84,31.01-.82,22.53,12.68,44.51,14.47,47.01,1.37,1.69,3.04,1.78,3.86,1.42,6.51-2.2,15.41-12.95,12.54-37.03" />
    <path class="br"
        d="m39.15,847.15c-.34,5.5-.58,8.67-1.45,11.42,0,0,.57,5.75.96,11.72l1.41.81c.34-3.85.85-7.57,1.54-11.13-1.82-2.25-2.39-7.78-2.46-12.82Z" />
    <path class="bt"
        d="m41.61,859.97h0c-1.84-2.2-2.38-7.82-2.46-12.82.46-7.9.59-16.02.4-24.32-.1-4.35.05-39.76-.79-45.44.57,2.09,1.24,4.18,1.98,6.25,1.96,5.22,9.66,15.45,13.35,39.29,2.87,24.06-5.97,34.79-12.48,37.03Z" />
    <g id="y">
        <path
            d="m272.89,979.36c.36-3.76.25-4.4,2.46-2.48l.56.39c1.7,1.09,3.93,1.9,5.24,1.85,2.82-.12,4.49-2.06,1.71-2.9-6.34-1.92-6.77-5.03-6.77-5.03,6.69-9.37,9.49-24.56,7.07-30.07-6.58-15.02-17.98-16.29-18.17-16.27l-.06-.02c-1.25-1.07-2.65-2.08-4.23-3.03-2.87-1.72-5.04-1.91-6.69-1.19,0,0-20.33-22.91-19.39,2.85.2,5.48,5.77,43.92,12.4,37.11,2.43-2.49,4.77-4.43,4.77-4.43,1.16,1.7,2.56,3.03,4.02,3.69l.11-.06c-.04.46-.02.94.05,1.54-1.71,1.56-1.21,2.3-4.63,1.26-3.46-1.05-1.43,1.82-.1,3.03,1.61,1.46,5.33,4.37,7.84,1.13l-.1.48c.67,1.1.63,5.5.72,8.72.1,3.22.25,6.26.74,8.28.48,2.02,1.05,6.83,5.55,8.14,3.76,1.1,6.63,1.21,6.89-13.01" />
        <path
            d="m264.54,994.88c-1.4-.81-2.93-2.18-4.19-4.49-1.22-2.24-1.7-4.47-1.98-5.81-.04-.21-.09-.41-.12-.54-.57-2.4-.77-5.46-.88-9.33-.02-.57-.03-1.18-.04-1.8,0-.38-.02-.82-.03-1.29-1.93.01-4.19-1.09-6.61-3.29-.67-.61-1.34-1.38-1.89-2.15-.43-.61-.76-1.19-1-1.73-1.93,1.03-3.76-.34-4.77-1.37-1.8-1.84-3.4-4.99-4.9-9.64-1.06-3.28-2.08-7.34-3.03-12.07-1.67-8.24-2.72-16.52-2.82-19.09-.3-8.11,1.31-12.87,4.79-14.13,2.87-1.05,6.79.39,11.66,4.26,2.07,1.65,3.86,3.39,4.98,4.54,2.02-.43,4.38.16,7.05,1.75,1.43.85,2.78,1.8,4.05,2.83,1.36.22,3.95.94,6.92,2.7,5.55,3.29,10.16,8.84,13.31,16.04,1.19,2.72,2.21,7.8.3,16.55-1.18,5.41-3.23,10.7-5.75,14.92.67.36,1.58.76,2.82,1.13.71.21,1.31.52,1.83.92,1.11.86,1.96,2.28,2.29,3.78.95,4.4-3.1,4.91-4.36,4.97-1.6.07-4.21-.84-6.34-2.19l-.1-.07-.38-.27c-.01.12-.02.25-.03.37-.02.18-.03.37-.05.56-.14,7.24-.93,11.43-2.56,13.58-1.72,2.27-4.1,1.81-6.19,1.2-.59-.17-1.26-.43-1.96-.84Zm-4.07-29.26c1.34,2.21,1.46,4.89,1.56,9.84.01.59.02,1.18.04,1.72.05,1.62.16,5.43.59,7.23.06.27.12.53.18.81.49,2.28.69,3.22,2.67,3.79,1.74.51,2.63.58,3.32-.32,1.03-1.36,1.6-4.98,1.71-10.76l2.35,1.44-2.34-1.72c.02-.24.04-.47.06-.68.2-2.22.37-3.98,1.62-4.45.79-.3,1.68.12,2.45.66-.64-1.23-.84-2.24-.9-2.68l-.2-1.4.55-.77c2.92-4.09,5.33-9.8,6.61-15.66,1.44-6.57.81-10.08.56-10.66-5.24-11.94-14.35-13.56-15.35-13.7l-.17.02-.88-.29-.45-.39c-1.15-.98-2.42-1.89-3.79-2.71-2.12-1.27-3.83-1.59-5.23-.99l-1.07.47-1.25-1.4c-2.44-2.74-9.59-9.54-13.34-8.17-2.07.76-3.01,4.07-2.79,9.83.07,2,1.07,9.91,2.71,17.91,2.26,11,4.25,14.84,4.81,15.38.07,0,.32-.03.72-.44,2.45-2.51,4.78-4.44,4.87-4.52l1.36-1.13,1.65,2.41c.57.83,1.19,1.48,1.83,1.92l3.91-2.2-.57,7.42c-.01.14-.02.34.03.75l.17,1.57-.74.68s-.01.01-.02.02l1.83,2.18.93-1.01Z" />
        <path class="bs"
            d="m282.87,976.22c-6.34-1.92-6.77-5.03-6.77-5.03,6.69-9.37,9.49-24.56,7.07-30.07-6.58-15.02-17.98-16.29-18.17-16.27l-.06-.02c-1.25-1.07-2.65-2.08-4.23-3.03-2.87-1.72-5.04-1.91-6.69-1.19,0,0-20.33-22.91-19.39,2.85.2,5.48,5.77,43.92,12.4,37.11,2.43-2.49,4.77-4.43,4.77-4.43,1.16,1.7,2.56,3.03,4.02,3.69l.11-.06c-.04.46-.02.94.05,1.54-1.71,1.56-1.21,2.3-4.63,1.26-3.46-1.05-1.43,1.82-.1,3.03,1.61,1.46,5.33,4.37,7.84,1.13l-.1.48c.67,1.1,1.14,5.31,1.06,8.84-.08,3.53-.13,5.95.4,8.17.53,2.22,1.05,6.83,5.55,8.14,3.76,1.1,5.7-.56,5.97-5.04.19-3.19.63-2.45.65-5.38l.35-1.19c.4-4.24.06-5.87,2.38-3.87l.56.39c1.7,1.09,3.93,1.9,5.24,1.85,2.82-.12,4.49-2.06,1.71-2.9h0Z" />
        <path class="bo"
            d="m264.76,993.07c-3.78-2.18-4.98-6.86-5.47-8.78-.72-2.81-.87-11.84-.71-19.55.01-.57.38-.81.81-.55.43.27.78.95.76,1.52-.18,8.59.07,16.61.6,18.65.81,3.17,2.04,6.25,5.52,7.26,3.35.98,4.55.06,5.1-3.94.43-3.05,1.27-11.97,1.38-13.77.03-.56.41-.77.84-.48.43.29.76.98.72,1.54-.11,1.87-.95,10.78-1.4,13.95-.66,4.74-2.38,6.08-6.32,4.93-.67-.2-1.28-.46-1.84-.78Z" />
        <path class="bo"
            d="m244.46,962.03c-.36-.21-.7-.49-.98-.78-2.45-2.51-4.78-9.15-6.93-19.76-1.63-8.06-2.66-16.08-2.75-18.55-.27-7.33,1.12-11.61,4.13-12.72,2.52-.93,6.06.39,10.5,3.91,3.24,2.57,5.74,5.36,5.85,5.48.4.45.59,1.17.43,1.61-.16.44-.62.43-1.02-.02-.11-.13-9.62-10.68-14.85-8.76-2.54.94-3.71,4.73-3.47,11.29.08,2.07,1.04,9.86,2.68,18,1.9,9.41,4.06,15.9,5.92,17.8.28.29,1.15,1.18,2.41-.11,2.42-2.48,4.63-4.29,4.66-4.31.3-.24.8.03,1.11.61.31.58.32,1.25.02,1.49-.02.02-2.2,1.8-4.58,4.24-1.14,1.17-2.24,1.07-3.13.56Z" />
        <path class="bo"
            d="m276.05,972.11c-.15-.09-.3-.23-.44-.43-.36-.53-.45-1.24-.21-1.58,6.75-9.46,9.13-24.2,7.11-28.82-2.55-5.81-6.14-10.15-10.69-12.91-3.37-2.04-6.05-2.45-6.49-2.5-.04,0-.08,0-.12,0-.48-.08-.84-.64-.98-1.12-.16-.58-.03-1.07.31-1.15.29-.07,3.39.39,7.08,2.57,5.07,3,9.26,8.03,12.12,14.54.71,1.62,1.05,3.79,1.02,6.46-.03,2.43-.37,5.24-1,8.11-1.37,6.27-3.94,12.37-7.06,16.74-.15.21-.4.23-.65.09Z" />
        <path class="bo"
            d="m276.4,978.5c-1.17-.67-2.21-1.5-2.84-2.36-.66-.91-.79-1.7-.8-2.09-.17-4.11,1.44-3.98,2.33-3.81-.11-.28-.26-.62-.42-.96-.5-1.13-1.19-2.67-1.72-4.7-.08-.31-.34-1.08-.64-1.97-1.63-4.85-5.04-14.95-2.84-17.87,1.01-1.34,3-.96,5.93,1.13-.39-1.77-1.37-5.19-3.17-9.08-2.09-4.51-5.8-10.6-11.58-14.07-2.94-1.76-5.34-1.95-7.15-.56-4.05,3.11-3.92,13.11-3.92,13.21.01.58-.33.87-.76.63-.43-.24-.79-.9-.8-1.48,0-.45-.16-10.99,4.36-14.47,2.12-1.63,4.92-1.43,8.3.6,6.31,3.78,10.37,10.4,12.66,15.29,2.5,5.33,3.73,10.32,3.83,11.82.08,1.2-.58,1.03-.66,1.01l-.28-.15c-3.58-2.83-4.95-2.61-5.47-1.92-1.63,2.17,1.56,11.65,2.92,15.7.35,1.04.6,1.79.72,2.24.45,1.7,1.03,3.01,1.5,4.06.42.94.78,1.75.91,2.54.07.19.94,2.27,5.86,3.76,1.29.39,2.07,1.15,2.31,2.27.47,2.15-2.11,2.83-3.53,2.89-1.27.05-3.29-.62-5.05-1.63Zm-2.08-3.75c.19.32,1,1.12,2.6,1.94,1.44.74,2.96,1.2,3.87,1.16,1.06-.04,1.8-.34,2.24-.63-.01,0-.02,0-.04-.01-3.23-.97-5.51-2.42-6.79-4.28-.08-.12-.15-.23-.22-.34-.11-.01-.22-.03-.33-.06-.73-.15-1.41-.29-1.32,2.22Z" />
        <path class="bo"
            d="m253.52,968.26c-.8-.46-1.63-1.09-2.5-1.88-.25-.23-2.44-2.27-2.41-4.12.03-1.69,1.85-1.14,2.54-.93,2.42.73,2.57.56,3.32-.28.22-.25.5-.56.88-.9,1.26-1.15,2.44.19,2.95.76.79.9,1.46,2.34,1.73,3.76.25,1.29.13,2.32-.33,2.91-1.49,1.93-3.63,2.14-6.17.67Zm-3.17-4.89c.23.34.62.81,1.05,1.21,2.1,1.91,5.01,3.64,7.01,1.06.24-.31.16-.92.1-1.25-.14-.71-.47-1.49-.82-1.88-.43-.48-.66-.75-1.17-.28,0,0,0,0,0,0-.34.31-.59.59-.81.84-.96,1.07-1.4,1.37-4.24.51-.59-.18-.93-.21-1.12-.2Zm5.58-2.18h0s0,0,0,0Z" />
        <path class="bo"
            d="m255.82,962.13c-.38-.22-.72-.78-.78-1.34-.02-.15-.03-.29-.03-.44-1.85-1.13-3.62-3.22-4.97-5.88-1.73-3.4-2.51-7.17-2.15-10.37.38-3.43.24-6.74.16-8.52-.02-.5-.04-.86-.04-1.1,0-.32,0-1.16,2.07-1.37.73-.07,2.19-.09,3.78.61,2.66,1.17,4.42,3.77,4.94,7.31,1.4,9.47.11,12.55-.83,14.81-.17.42-.34.81-.47,1.21l-.12.35c-.49,1.48-.92,2.76-.79,3.96.07.61-.23.97-.66.81-.04-.01-.08-.03-.12-.06Zm-6.23-26.43c0,.18.02.41.03.66.08,1.85.23,5.3-.18,8.93-.29,2.59.34,5.65,1.73,8.38,1.09,2.15,2.53,3.83,4.01,4.68.17-.83.44-1.65.74-2.54l.12-.35c.15-.45.33-.87.51-1.31.9-2.15,2.03-4.83.73-13.56-.25-1.69-.85-2.93-1.84-3.8-2.16-1.91-5.2-1.49-5.85-1.1Z" />
        <path class="bo"
            d="m253.91,937.75c-.04.32.47,1.53,1.13,2.03.66.5,1.22.11,1.26-.21.04-.32-.47-.99-1.13-1.5-.66-.5-1.22-.65-1.26-.33h0Z" />
        <path class="bo"
            d="m255.19,940.23c-.06-.04-.12-.08-.19-.12-.41-.32-.83-.91-1.12-1.58-.1-.24-.27-.68-.23-.97.01-.11.06-.26.21-.32.26-.11.78.09,1.35.52.35.27.68.59.92.91.42.56.46.93.44,1.11-.04.32-.29.52-.51.59-.27.09-.57.04-.86-.13Zm-1.02-2.26c.04.26.42,1.12.9,1.49.49.37.9.09.96-.06-.06-.14-.36-.58-.9-.99-.53-.41-.88-.47-.96-.44Z" />
        <path class="bo"
            d="m273.99,948.64c.04.36-.47.98-1.13.73-.66-.26-1.22-1.3-1.26-1.66-.03-.36.47-.45,1.13-.19s1.22.76,1.26,1.13h0Z" />
        <path class="bo"
            d="m272.71,949.47c-.65-.38-1.2-1.38-1.24-1.81-.05-.55.58-.58,1.24-.32.66.26,1.35.81,1.41,1.36h0c.02.25-.11.53-.34.72-.15.12-.47.31-.9.14-.06-.02-.11-.05-.17-.08Zm.43-1.58c-.12-.07-.25-.13-.39-.19-.69-.27-1.03-.1-1.02.06.02.25.52,1.2,1.11,1.43.36.14.62-.02.75-.12.2-.16.28-.38.27-.47-.01-.13-.27-.44-.72-.7Z" />
        <path class="bo"
            d="m274.94,968.92c-.15-.09-.3-.23-.44-.43-.36-.53-.46-1.24-.22-1.58,1.53-2.17,1.25-5.46.98-8.64-.12-1.36-.24-2.77-.21-4.05.03-1.31.16-2.33.28-3.31.14-1.16.28-2.26.22-3.68-.02-.59.31-.89.74-.67.43.22.8.88.83,1.47.07,1.65-.09,2.9-.24,4.11-.11.93-.23,1.89-.26,3.07-.03,1.12.08,2.38.2,3.72.29,3.41.62,7.28-1.23,9.9-.15.21-.4.23-.65.09Z" />
    </g>
    <path class="bp"
        d="m144.91,862.27c1.73-1.41,4.15-1.51,6.82.03,3.55,2.05,6.65,6.48,8.3,11.35,1.43-.03,3.02.41,4.69,1.38,6.4,3.7,11.59,13.67,11.59,22.28,0,8.61-5.19,12.6-11.59,8.9-.77-.44-1.53-.99-2.28-1.62-1.45,2.62-4.22,3.35-7.4,1.52-1.33-.77-2.59-1.9-3.71-3.28-1.47,3.77-4.9,5.02-8.9,2.72s-7.71-7.96-9.07-13.68c-.6-.18-1.21-.44-1.84-.81-4.96-2.86-8.97-10.59-8.97-17.27,0-4.48,1.81-7.34,4.49-7.88-.55-2.01-.86-4.06-.86-6.03,0-7.68,4.68-11.21,10.44-7.88,3.39,1.96,6.4,5.84,8.3,10.27" />
    <path class="bo"
        d="m130.32,874.4c-.03.1.01.15.02.18.1.16.2.29.31.42.55.7,1.07,1.12,1.61,1.43,1.1.64,1.79.25,1.79-1.01v-.02c0-1.16-.77-2.03-1.5-2.76l-.09-.1c-.55-.55-1.02-1.03-1.02-1.51v-.03c0-.41.28-.55.7-.31.47.27,1.04.81,1.4,1.29,0,0,.11.15.15.04.02-.06.21-.61.22-.68.02-.07-.02-.14-.05-.2-.41-.58-.99-1.14-1.58-1.48l-.11-.06c-1.01-.58-1.71-.18-1.71.99v.02c0,1.23.78,2.08,1.51,2.77l.12.12c.53.52.99.97.99,1.47v.02c0,.46-.3.62-.78.35-.19-.11-.78-.46-1.42-1.37-.08-.1-.12-.17-.18-.26-.03-.04-.11-.14-.14-.02l-.22.68h0Zm16.15,9.32c-.03.1.01.15.02.18.1.16.2.29.31.42.55.7,1.07,1.12,1.61,1.43,1.1.64,1.79.25,1.79-1.01v-.02c0-1.16-.77-2.03-1.5-2.76l-.09-.1c-.55-.55-1.02-1.03-1.02-1.51v-.03c0-.41.28-.55.7-.31.47.27,1.04.81,1.4,1.29,0,0,.11.15.15.04.02-.06.21-.61.22-.68.02-.07-.02-.14-.05-.2-.41-.58-.99-1.14-1.58-1.48l-.11-.06c-1.01-.58-1.71-.18-1.71.99v.02c0,1.23.78,2.08,1.51,2.77l.12.12c.53.52.99.98.99,1.47v.02c0,.46-.3.62-.78.35-.19-.11-.78-.46-1.42-1.37-.08-.1-.12-.17-.18-.26-.02-.03-.11-.13-.15-.02l-.22.68h0Zm11.02,3.9c0,.71-.1,1.21-.3,1.5-.19.28-.49.3-.9.07s-.7-.6-.89-1.1c-.19-.51-.29-1.12-.29-1.84,0-.71.1-1.21.29-1.49.19-.28.48-.3.89-.06s.7.59.9,1.09c.2.5.29,1.12.29,1.83m.92-.79c-.09-.46-.23-.9-.42-1.31-.19-.41-.43-.79-.71-1.13-.28-.34-.61-.62-.99-.83s-.71-.32-.99-.31c-.28.01-.52.12-.71.31-.19.19-.33.47-.42.82-.09.35-.13.77-.13,1.24s.05.94.13,1.4c.09.46.23.9.42,1.31.19.41.43.79.71,1.12.28.33.61.61.99.83s.7.32.99.31c.28,0,.52-.11.71-.3.19-.19.33-.47.42-.82.09-.35.14-.77.14-1.24s-.05-.94-.14-1.4m7.56,7.75c-.03-.14-.12-.14-.12-.14-.13,0-.28-.03-.43-.08-.15-.06-.32-.14-.5-.24-.45-.26-.8-.64-1.05-1.13-.25-.5-.4-1.14-.4-1.91,0-.69.13-1.15.35-1.41.22-.27.57-.27,1.02,0,.38.22.67.44.97.75,0,0,.07.08.11-.02.08-.25.14-.43.23-.71.02-.08-.04-.15-.06-.18-.12-.13-.4-.4-.61-.56-.2-.16-.43-.31-.69-.46-.39-.22-.73-.33-1.03-.33-.29,0-.54.1-.74.29-.2.19-.35.46-.45.81-.1.35-.15.76-.15,1.23,0,1.02.21,1.96.61,2.8.41.84,1.02,1.5,1.82,1.96.47.27.96.42,1.3.44,0,0,.07,0,.04-.12l-.23-.96h0Zm1.61-1.81c.04-.37.13-.65.25-.83.19-.28.48-.32.89-.09s.68.61.87,1.11c.13.33.18.71.21,1.1l-2.22-1.28h0Zm3.1.92c-.08-.44-.27-.95-.4-1.2-.2-.4-.4-.72-.59-.94-.25-.29-.56-.56-.89-.76-.39-.22-.74-.34-1.03-.33-.29.01-.53.12-.72.32-.19.2-.33.48-.42.83-.09.36-.14.78-.14,1.25,0,.48.05.95.14,1.41.09.46.25.9.45,1.32.2.42.47.8.78,1.14.31.34.69.65,1.13.9.9.52,1.37.52,1.57.49.03,0,.07-.03.03-.18l-.2-.88c-.03-.13-.12-.14-.12-.14-.22-.02-.54,0-1.28-.43-.48-.28-.84-.68-1.07-1.1-.23-.44-.34-.95-.36-1.59l3.12,1.8s.08.05.09-.06c0-.04.11-.79-.09-1.84m-28.06-15.33c.04-.37.13-.65.25-.83.19-.28.48-.32.89-.09s.68.61.87,1.11c.13.33.18.71.21,1.1l-2.22-1.28Zm3.1.92c-.08-.44-.27-.95-.4-1.2-.2-.4-.4-.72-.59-.94-.25-.29-.56-.56-.89-.76-.39-.22-.74-.34-1.03-.33-.29.01-.53.12-.72.32-.19.2-.33.48-.42.83-.09.36-.14.78-.14,1.25,0,.48.05.95.14,1.41.09.46.25.9.45,1.32.2.42.47.8.78,1.14.31.34.69.65,1.13.9.9.52,1.37.52,1.57.49.03,0,.07-.03.03-.18l-.2-.88c-.03-.13-.12-.14-.12-.14-.22-.02-.54,0-1.28-.43-.48-.28-.84-.68-1.07-1.1-.23-.44-.34-.95-.36-1.59l3.12,1.8s.08.05.09-.06c0-.04.11-.79-.09-1.84m-9.84-2.09c-.12-.2-.14-.24-.18-.35-.06-.16-.09-.36-.09-.59,0-.37.09-.58.28-.64,0,0,.27-.16.9.22.45.27.85.58.85.58v1.89h0s-.4-.11-.84-.34c-.63-.32-.92-.77-.91-.77m1.24-2.2c-.13-.09-.29-.19-.49-.3-.27-.15-.53-.26-.77-.31-.24-.05-.46-.04-.65.03-.19.07-.34.22-.45.42-.11.21-.17.5-.17.86,0,.37.05.71.14,1.03.09.32.23.61.41.88.17.27.39.52.63.73.24.22.52.41.82.59.32.18.64.33.95.44.31.11.68.22.79.25.07.02.15.04.22.05.08.02.07-.09.07-.09v-3.8c0-.83-.17-1.55-.5-2.12-.33-.57-.81-1.04-1.43-1.4-.23-.13-.61-.31-.83-.38,0,0-.68-.22-.96-.09,0,0-.06.02-.03.15l.22.92c.03.12.1.13.1.13,0,0,.02,0,.05,0,.6-.09,1.36.36,1.36.36.34.19.6.43.77.71.17.27.26.58.26,1.14v.18c-.27-.21-.51-.38-.51-.38m25.14,12.37c.02-.08-.03-.15-.05-.18-.05-.06-.32-.29-.52-.42-.39-.26-.61-.3-.8-.29-.19,0-.41.07-.53.21v-.51c0-.07-.04-.15-.09-.18l-.8-.46c-.05-.03-.09,0-.09.07v6.2c0,.07.04.15.09.18l.82.47c.05.03.09,0,.09-.07v-3.1c0-.42.03-.81.1-1.03.07-.22.16-.37.27-.45.11-.08.24-.11.39-.09.14.02.3.1.42.16.16.09.34.25.34.25.06.04.09.01.11-.05.05-.16.21-.64.23-.74" />
    <path class="bo"
        d="m154.58,880.05c-.1-.1-.19-.18-.31-.28-.12-.1-.26-.19-.42-.29-.56-.33-1.01-.37-1.32-.13-.31.24-.52.75-.63,1.52l-.04.26-.71-.41s-.09-.05-.1.06l-.12.8c0,.08.02.14.1.19l.69.4-.7,4.8c-.05.39-.12.7-.19.92-.07.22-.13.37-.22.47-.08.09-.15.15-.28.13-.11-.01-.23-.06-.37-.14-.08-.04-.18-.12-.25-.18-.07-.06-.11-.11-.17-.17,0,0-.08-.09-.11,0-.03.07-.21.64-.23.71-.02.07,0,.15.05.19.09.1.16.16.28.28.17.15.32.24.46.32.29.17.55.26.77.28.22.02.41-.05.58-.2.18-.16.3-.38.4-.7.11-.32.2-.73.27-1.24l.7-4.89,1.03.59s.09.05.1-.06l.12-.8c0-.08-.02-.14-.1-.19l-1-.58s.05-.47.16-.84c.05-.16.14-.26.22-.32.08-.06.16-.08.26-.07.1.01.21.06.33.13.09.05.19.12.26.18.1.08.13.12.16.14.1.1.12.07.14.01l.24-.73c.02-.08-.04-.15-.06-.18m-13.92.95c0,.07-.04.1-.09.07l-.83-.48c-.05-.03-.09-.11-.09-.18v-8.87c0-.07.04-.1.09-.07l.83.48c.05.03.09.11.09.18v8.87Z" />
    <path class="bj"
        d="m716.28,706.93l-39.32,22.7c-4.67,2.7-8.46-.17-8.46-6.39v-52.42c0-6.23,3.79-13.46,8.46-16.16l39.32-22.7c4.67-2.7,8.46.17,8.46,6.39v52.42c0,6.23-3.79,13.46-8.46,16.16Z" />
    <path class="bo"
        d="m695.95,689c-1.43-.21-2.78-.41-4.13-.61-.53-.08-1.07-.13-1.58-.25-.14-.03-.29-.23-.29-.44-.02-2.87-.01-5.76-.01-8.73.14,0,.28.01.42.03,1.72.25,3.44.52,5.17.75.33.04.44.24.44.73-.02,2.8,0,5.59,0,8.5Z" />
    <path class="bo"
        d="m689.97,690.11c.94.14,1.8.26,2.66.39,1,.15,2,.28,3,.46.15.03.33.18.33.37.02,2.89.01,5.8.01,8.76-.14.01-.25.04-.34.02-1.77-.26-3.53-.52-5.29-.8-.15-.02-.35-.15-.36-.34-.02-2.89-.02-5.8-.02-8.86Z" />
    <path class="bo"
        d="m697.31,699.24c0-1.3,0-2.53,0-3.75,0-1.59-.02-3.17,0-4.77,0-.26.12-.71.28-.91,1.81-2.4,3.64-4.78,5.47-7.16.06-.07.12-.13.22-.23.01.15.04.26.04.39,0,2.71.02,5.41,0,8.13,0,.25-.14.69-.29.89-1.78,2.37-3.58,4.7-5.38,7.05-.08.11-.18.2-.33.36Z" />
    <path class="bo"
        d="m697.25,688.19c0-.76,0-1.41,0-2.05,0-2.17-.02-4.33-.01-6.51,0-.24.1-.65.24-.83,1.83-2.42,3.67-4.81,5.51-7.21.05-.07.12-.13.22-.25.01.27.03.48.03.69.02,2.54.02,5.09.06,7.62,0,.52-.12.86-.47,1.31-1.69,2.17-3.36,4.37-5.04,6.56-.14.19-.29.36-.55.67Z" />
    <path class="bo"
        d="m703.34,693.49c0,1.61,0,3.15,0,4.68,0,1.3.02,2.59,0,3.9,0,.22-.11.61-.24.78-1.85,2.43-3.71,4.84-5.57,7.25-.04.05-.09.07-.2.15,0-.55,0-1.08,0-1.61,0-2.28-.01-4.56,0-6.85,0-.25.14-.69.29-.9,1.78-2.36,3.58-4.7,5.38-7.04.08-.11.18-.2.33-.37Z" />
    <path class="bo"
        d="m696,711.08c-.5-.06-.95-.12-1.4-.18-1.42-.2-2.83-.4-4.24-.62-.15-.02-.36-.15-.36-.33-.02-2.85-.02-5.71-.02-8.65.19,0,.34,0,.48.02,1.72.25,3.45.5,5.16.78.17.03.35.24.36.48.04,2.66.05,5.34.07,8.01,0,.13-.03.27-.05.49Z" />
    <path class="bo"
        d="m683.6,678.02c.73.11,1.41.21,2.1.31.85.13,1.71.23,2.55.4.15.03.32.24.32.46.02,2.85.01,5.72.01,8.67-.15,0-.28.02-.4,0-1.4-.2-2.8-.41-4.19-.64-.17-.03-.38-.17-.38-.37-.02-2.89-.02-5.8-.02-8.83Z" />
    <path class="bo"
        d="m704.58,678.58c0-2.94,0-5.84,0-8.75,0-.15.07-.4.16-.52,1.58-2.08,3.16-4.14,4.83-6.32,0,.57,0,1.03,0,1.49,0,2.37.01,4.73,0,7.11,0,.24-.09.66-.23.84-1.5,2-3.02,3.97-4.53,5.94-.05.07-.12.11-.23.21Z" />
    <path class="bo"
        d="m683.65,689.17c.78.11,1.51.22,2.24.32.8.12,1.6.22,2.38.37.15.03.32.23.33.45.03,2.78.02,5.58.03,8.38,0,.08-.02.17-.04.36-.51-.08-.97-.15-1.44-.21-1.06-.16-2.13-.29-3.18-.48-.15-.03-.33-.23-.33-.44-.03-2.76-.02-5.54-.02-8.32,0-.1.02-.22.04-.43Z" />
    <path class="bo"
        d="m710.95,692.66c0-.39,0-.63,0-.87,0-2.57-.02-5.13,0-7.72,0-.26.11-.7.26-.9,1.44-1.92,2.91-3.81,4.36-5.71.07-.09.15-.16.32-.34,0,.68,0,1.27,0,1.87,0,2.23.02,4.46.01,6.71,0,.23-.08.61-.21.78-1.54,2.03-3.09,4.03-4.75,6.19Z" />
    <path class="bo"
        d="m709.62,685.23c.02.31.03.49.03.69,0,2.61.02,5.22,0,7.85,0,.26-.11.71-.26.91-1.49,1.98-3,3.92-4.5,5.87-.04.05-.09.09-.19.17-.01-.19-.03-.37-.03-.56,0-2.59,0-5.19-.03-7.77,0-.49.11-.82.44-1.25,1.49-1.92,2.97-3.87,4.54-5.91Z" />
    <path class="bo"
        d="m677.32,677.09c.88.13,1.73.25,2.58.37.69.1,1.39.2,2.07.33.12.02.28.14.28.3.02,2.91.01,5.84.01,8.83-.16,0-.28.02-.39,0-1.4-.21-2.8-.4-4.18-.64-.17-.03-.34-.26-.34-.5-.02-2.85-.02-5.71-.02-8.69Z" />
    <path class="bo"
        d="m709.62,674.22c0,2.9,0,5.76,0,8.63,0,.19-.1.51-.21.66-1.52,2.01-3.06,4-4.59,5.99-.02.03-.06.04-.2.12,0-.64,0-1.28,0-1.92,0-2.19-.02-4.38-.01-6.57,0-.22.1-.6.23-.77,1.52-2.01,3.05-4,4.59-6,.03-.03.06-.04.2-.14Z" />
    <path class="bo"
        d="m688.63,710.04c-1.62-.23-3.2-.46-4.77-.7-.1-.02-.21-.19-.21-.35-.01-2.83,0-5.68,0-8.52,0-.01.02-.04.08-.14.65.1,1.32.19,1.99.29.85.13,1.71.23,2.56.39.16.03.34.21.34.43.04,2.75.05,5.52.07,8.29,0,.06-.03.14-.06.32Z" />
    <path class="bo"
        d="m691,677.12c1.85-2.41,3.61-4.68,5.36-6.95.1-.13.27-.25.37-.24,1.81.21,3.61.45,5.48.69-1.29,1.69-2.51,3.28-3.73,4.87-.09.12-.18.23-.27.34-.55.7-1.1,1.69-1.64,2-.55.31-1.1-.05-1.64-.13-1.28-.19-2.56-.38-3.94-.58Z" />
    <path class="bo"
        d="m682.31,709.14c-1.38-.2-2.7-.46-4.07-.55-.69-.04-.91-.45-.89-1.48.06-2.56.02-5.07.02-7.65.12-.02.22-.05.3-.04,1.44.21,2.89.42,4.32.66.14.02.29.23.29.43.02,2.83.01,5.68.01,8.62Z" />
    <path class="bo"
        d="m682.27,698.11c-.6-.08-1.12-.15-1.65-.23-.97-.14-1.95-.27-2.91-.45-.16-.03-.34-.22-.34-.43-.03-2.78-.03-5.57-.04-8.37,0-.08.02-.18.05-.38.56.08,1.08.14,1.61.22.99.14,1.97.28,2.95.45.14.02.31.16.31.34.02,2.89.01,5.8.01,8.85Z" />
    <path class="bo"
        d="m715.83,654.87c0,3,0,5.89,0,8.78,0,.15-.06.42-.15.53-1.55,2.04-3.11,4.07-4.72,6.17-.02-.27-.04-.45-.04-.64-.01-2.56-.02-5.14-.04-7.69,0-.5.1-.86.45-1.31,1.37-1.74,2.71-3.52,4.06-5.29.11-.15.23-.29.44-.54Z" />
    <path class="bo"
        d="m710.93,681.5c0-.38,0-.66,0-.94,0-2.53,0-5.06-.02-7.57,0-.44.1-.74.39-1.11,1.48-1.9,2.94-3.83,4.5-5.86.01.28.03.48.03.68,0,2.59,0,5.18.03,7.77,0,.45-.09.78-.41,1.18-1.36,1.75-2.71,3.52-4.06,5.29-.13.17-.26.32-.46.57Z" />
    <path class="bo"
        d="m709.01,661.74c-.75.98-1.49,1.95-2.24,2.93-.96,1.25-1.91,2.51-2.87,3.74-.14.18-.38.39-.5.38-1.8-.2-3.59-.44-5.45-.68.93-1.21,1.79-2.33,2.66-3.46.86-1.11,1.71-2.23,2.57-3.32.15-.19.4-.37.55-.36,1.74.19,3.47.43,5.21.65.03,0,.04.05.08.12Z" />
    <path class="bo"
        d="m691,667.21c.94-1.22,1.77-2.3,2.61-3.39.88-1.15,1.76-2.3,2.66-3.43.14-.17.36-.34.49-.32,1.75.2,3.49.44,5.29.67-.14.2-.23.36-.34.5-1.6,2.09-3.21,4.18-4.82,6.25-.15.2-.41.4-.55.39-1.75-.19-3.5-.43-5.35-.66Z" />
    <path class="bo"
        d="m684.15,676.11c1.42-1.84,2.79-3.49,4.05-5.3,1.01-1.45,1.83-1.96,2.85-1.66,1.15.33,2.41.35,3.63.51.14.02.28.05.49.09-1.1,1.43-2.14,2.79-3.19,4.14-.66.86-1.32,1.73-1.99,2.58-.16.2-.41.43-.55.41-1.73-.22-3.45-.49-5.28-.76Z" />
    <path class="bo"
        d="m684.72,666.32c1.52-2.01,3.04-3.95,4.5-5.97.66-.92,1.17-1.21,1.82-1.07,1.17.25,2.39.33,3.59.49.14.02.28.06.48.11-.88,1.15-1.7,2.22-2.52,3.28-.88,1.15-1.77,2.31-2.66,3.44-.15.19-.4.4-.54.38-1.5-.16-3-.37-4.49-.57-.05,0-.1-.05-.18-.1Z" />
    <path class="bo"
        d="m697.92,658.23c1.64-2.12,3.17-4.12,4.71-6.09.12-.16.34-.29.46-.27,1.69.25,3.38.54,5.06.82.02,0,.03.05.07.12-1.04,1.36-2.08,2.72-3.13,4.07-.53.69-1.07,1.64-1.61,1.95-.54.31-1.08-.01-1.61-.08-1.29-.16-2.57-.33-3.95-.51Z" />
    <path class="bo"
        d="m688.23,668.82c-1.37,1.78-2.7,3.36-3.91,5.13-1.09,1.58-1.98,2.14-3.06,1.77-1-.35-2.13-.36-3.26-.53,1.41-1.86,2.8-3.57,4.08-5.42.89-1.28,1.58-1.7,2.47-1.46,1.14.31,2.38.35,3.68.52Z" />
    <path class="bo"
        d="m715.1,653.79c-1.55,2.02-3.02,3.94-4.49,5.84-.08.11-.23.19-.32.18-1.79-.22-3.58-.45-5.44-.68,1.58-2.05,3.08-4,4.59-5.93.12-.15.33-.25.46-.23,1.71.26,3.4.54,5.2.83Z" />
    <path class="bo"
        d="m691.54,657.33c.75-.99,1.46-1.93,2.18-2.87.81-1.06,1.6-2.14,2.42-3.18.17-.21.45-.45.59-.43,1.56.21,3.11.48,4.72.74-.14.22-.24.38-.34.52-1.41,1.84-2.83,3.68-4.25,5.5-.16.21-.43.41-.59.39-1.52-.16-3.03-.37-4.53-.57-.05,0-.1-.05-.19-.1Z" />
    <ellipse class="bj" cx="687.92" cy="958.31" rx="22.66" ry="8.34"
        transform="translate(-428.73 577.93) rotate(-35.52)" />
    <path class="bj" d="m687.92,985.4c-10.53,6.08-19.07,6.57-19.07,1.1" />
    <path class="bj" d="m687.92,1002.58c-10.53,6.08-19.07,6.57-19.07,1.1" />
    <line class="bj" x1="706.99" y1="958.14" x2="706.99" y2="947.3" />
    <path class="bj" d="m668.85,969.32v50.65c0,5.47,8.54,4.98,19.07-1.1,10.53-6.08,19.07-15.44,19.07-20.91" />
    <path class="bj"
        d="m691.55,972.2l2.64,3.49c.58.77,1.82.02,2.37-1.43l1.57-4.15c.55-1.44,1.77-2.19,2.36-1.45l1.9,2.39c.59.74,1.8,0,2.35-1.42l1.63-4.2c.57-1.47,1.83-2.19,2.39-1.36l1.51,2.24c.55.82,1.8.12,2.38-1.33l1.73-4.37c.56-1.41,1.76-2.12,2.34-1.39l1.93,2.43c.59.74,1.8,0,2.35-1.42l2.84-7.31" />
    <path class="bj"
        d="m691.55,983.36l2.64,3.49c.58.77,1.82.02,2.37-1.43l1.57-4.15c.55-1.44,1.77-2.19,2.36-1.45l1.9,2.39c.59.74,1.8,0,2.35-1.42l1.63-4.2c.57-1.47,1.83-2.19,2.39-1.36l1.51,2.24c.55.82,1.8.12,2.38-1.33l1.73-4.37c.56-1.41,1.76-2.12,2.34-1.39l1.93,2.43c.59.74,1.8,0,2.35-1.42l2.84-7.31" />
    <path class="bj"
        d="m691.55,994.52l2.64,3.49c.58.77,1.82.02,2.37-1.43l1.57-4.15c.55-1.44,1.77-2.19,2.36-1.45l1.9,2.39c.59.74,1.8,0,2.35-1.42l1.63-4.2c.57-1.47,1.83-2.19,2.39-1.36l1.51,2.24c.55.82,1.8.12,2.38-1.33l1.73-4.37c.56-1.41,1.76-2.12,2.34-1.39l1.93,2.43c.59.74,1.8,0,2.35-1.42l2.84-7.31" />
    <g class="bi">
        <polygon class="ao" points="553.92 236.1 719.81 143.01 554.92 48.53 390.03 142.61 553.92 236.1" />
        <polygon class="ah" points="553.92 208.45 719.81 115.36 554.92 20.88 390.03 114.97 553.92 208.45" />
        <polygon class="ai" points="557.95 253.48 722.77 156.93 557.88 60.28 392.44 157.58 557.95 253.48" />
        <polygon class="ag" points="554.92 190.15 390.03 95.08 554.72 0 719.81 95.08 554.92 190.15" />
        <polygon class="af" points="719.81 95.08 719.81 143.01 554.92 237.69 554.92 190.15 719.81 95.08" />
        <polygon class="aj" points="554.92 190.15 390.03 95.08 390.03 142.61 554.92 237.69 554.92 190.15" />
    </g>
</svg>