<?xml version="1.0" encoding="utf-8"?>
<!-- Generator: Adobe Illustrator 27.9.0, SVG Export Plug-In . SVG Version: 6.00 Build 0)  -->
<svg version="1.1" id="a" xmlns="http://www.w3.org/2000/svg" xmlns:xlink="http://www.w3.org/1999/xlink" x="0px" y="0px"
	 viewBox="0 0 680 423" style="enable-background:new 0 0 680 423;" xml:space="preserve">
<style type="text/css">
	.st0{opacity:0.66;}
	.st1{fill:url(#SVGID_1_);}
	.st2{fill:url(#SVGID_00000168100418630196233390000002624711203489362359_);}
	.st3{fill:url(#SVGID_00000126310579549122769950000007582129635526610050_);}
	.st4{fill:url(#SVGID_00000073688948829110521090000012327150707154898622_);}
	.st5{enable-background:new    ;}
	.st6{fill:#FFFFFF;}
	
		.st7{fill:none;stroke:url(#ab_00000039836551641388289690000015500643595244462984_);stroke-miterlimit:10;stroke-dasharray:0,0,3.9,3.9;}
	
		.st8{fill:none;stroke:url(#ab_00000058588409685471541620000012331084545906540463_);stroke-miterlimit:10;stroke-dasharray:0,0,3.9,3.9;}
	
		.st9{fill:none;stroke:url(#af_00000102526327115794744490000001710829620161427618_);stroke-miterlimit:10;stroke-dasharray:0,0,3.9,3.9;}
	
		.st10{fill:none;stroke:url(#ac_00000058566309221024728360000017787267918957543814_);stroke-miterlimit:10;stroke-dasharray:0,0,3.9,3.9;}
	.st11{fill:url(#SVGID_00000141436449334504461250000004290206940943290264_);}
	.st12{fill:#E7E7E7;}
	.st13{fill:url(#SVGID_00000126319636525731895140000012228594182103695013_);}
	.st14{fill:url(#SVGID_00000143594373414493438650000002134470210019344295_);}
	.st15{opacity:0.81;fill:url(#SVGID_00000011020291600166060350000011502856663272465080_);enable-background:new    ;}
	.st16{opacity:0.81;fill:url(#SVGID_00000083769017730794692610000010191141747855671462_);enable-background:new    ;}
	.st17{opacity:0.81;fill:url(#SVGID_00000125578176414194041690000005454971551087091606_);enable-background:new    ;}
</style>
<g class="st0">
	
		<image style="overflow:visible;enable-background:new    ;" width="1788" height="1954" xlink:href="BE0FF5C3AD36AC54.png"  transform="matrix(0.24 0 0 0.24 273.75 -20.9409)">
	</image>
</g>
<linearGradient id="SVGID_1_" gradientUnits="userSpaceOnUse" x1="187.6355" y1="312.2089" x2="616.7454" y2="405.8289" gradientTransform="matrix(0.9926 -0.1217 -0.1217 -0.9926 56.824 485.1842)">
	<stop  offset="2.000000e-02" style="stop-color:#2666C4"/>
	<stop  offset="1" style="stop-color:#203567"/>
</linearGradient>
<path class="st1" d="M406.5,133.4c20.5-15.9,45.2-22.7,69.1-21.1c7.9,0.5,15.1-4.6,17.3-12.3l17.8-61.4c2.9-9.9-3.7-20-13.9-21.5
	c-51.4-7.4-105.5,5.4-149.8,39.7c-9.2,7.2-17.6,15-25.2,23.3c-7,7.7-5.6,19.7,2.9,25.5l53,36c6.5,4.4,15.3,3.8,21-1.6
	C401.2,137.7,403.8,135.5,406.5,133.4L406.5,133.4z"/>
<linearGradient id="SVGID_00000100378363561876867010000004160896685817146040_" gradientUnits="userSpaceOnUse" x1="208.1164" y1="220.5847" x2="651.1864" y2="317.2547" gradientTransform="matrix(0.9926 -0.1217 -0.1217 -0.9926 56.824 485.1842)">
	<stop  offset="2.000000e-02" style="stop-color:#2666C4"/>
	<stop  offset="1" style="stop-color:#203567"/>
</linearGradient>
<path style="fill:url(#SVGID_00000100378363561876867010000004160896685817146040_);" d="M548.9,151.3c8.9,11.4,14.9,24.1,18.2,37.3
	c2,7.7,8.9,13.1,16.8,12.8l64.2-2c10.3-0.3,17.9-9.7,16.2-19.8c-5.3-31-18.2-61.1-38.8-87.7c-20.6-26.6-46.7-46.5-75.4-59.4
	c-9.4-4.2-20.3,0.8-23.2,10.7L509,104.9c-2.2,7.6,1.3,15.7,8.3,19.5C529.2,130.9,540,139.9,548.9,151.3L548.9,151.3z"/>
<linearGradient id="SVGID_00000018934180040543513950000006983904848314848681_" gradientUnits="userSpaceOnUse" x1="235.3446" y1="51.2226" x2="680.7446" y2="148.4026" gradientTransform="matrix(0.9926 -0.1217 -0.1217 -0.9926 56.824 485.1842)">
	<stop  offset="2.000000e-02" style="stop-color:#2666C4"/>
	<stop  offset="1" style="stop-color:#203567"/>
</linearGradient>
<path style="fill:url(#SVGID_00000018934180040543513950000006983904848314848681_);" d="M382.5,291.1l-50.6,39.2
	c-8.2,6.3-8.8,18.4-1.4,25.6c48,46.8,115.5,65,178.7,51.9c10.1-2.1,16-12.6,12.5-22.3L500,325.3c-2.7-7.5-10.3-12-18.3-11
	c-27.6,3.5-56-4.3-78-22.7C397.6,286.4,388.8,286.2,382.5,291.1L382.5,291.1z"/>
<linearGradient id="SVGID_00000131332333766623595990000007698364496949502364_" gradientUnits="userSpaceOnUse" x1="235.7012" y1="52.4626" x2="681.5212" y2="149.7326" gradientTransform="matrix(0.9926 -0.1217 -0.1217 -0.9926 56.824 485.1842)">
	<stop  offset="2.000000e-02" style="stop-color:#2666C4"/>
	<stop  offset="1" style="stop-color:#203567"/>
</linearGradient>
<path style="fill:url(#SVGID_00000131332333766623595990000007698364496949502364_);" d="M530.9,293.7c-2.7,2.1-5.5,4-8.3,5.8
	c-6.7,4.2-9.5,12.5-6.8,20l21.7,60.2c3.5,9.7,14.8,14,24,9.2c10-5.3,19.6-11.5,28.8-18.7c44.3-34.4,70-83.6,75.6-135.2
	c1.1-10.2-7.1-19.1-17.4-18.8l-63.9,2c-7.9,0.2-14.7,5.9-16.2,13.7C564.2,255.7,551.4,277.8,530.9,293.7L530.9,293.7z"/>
<g>
	<g class="st5">
		<path class="st6" d="M378.6,94.4c-1.1,0.9-2.3,1.3-3.4,1.2c-1.1-0.1-2.1-0.6-3-1.5l1.1-0.8c0.7,0.7,1.4,1,2.1,1.1
			c0.8,0,1.6-0.3,2.4-0.9c0.7-0.5,1.1-1.1,1.3-1.6c0.2-0.5,0-1.1-0.3-1.6c-0.3-0.4-0.7-0.7-1.2-0.8c-0.4-0.1-1,0-1.6,0.2l-2.1,0.7
			c-1.1,0.3-1.9,0.5-2.6,0.3c-0.7-0.1-1.3-0.5-1.8-1.1c-0.4-0.5-0.6-1.1-0.6-1.7c0-0.6,0.1-1.2,0.4-1.7c0.3-0.6,0.8-1.1,1.4-1.6
			c1-0.7,2-1.1,2.9-1c1,0.1,1.9,0.5,2.7,1.4l-1.1,0.8c-0.6-0.6-1.2-0.9-1.9-0.9c-0.6,0-1.3,0.2-1.9,0.7c-0.7,0.5-1.1,1-1.2,1.5
			c-0.2,0.5-0.1,1,0.3,1.5c0.3,0.4,0.7,0.6,1.1,0.7s1,0,1.7-0.3l2.2-0.7c1-0.3,1.8-0.4,2.5-0.2c0.7,0.2,1.3,0.6,1.9,1.3
			c0.6,0.8,0.8,1.7,0.6,2.5S379.6,93.6,378.6,94.4z"/>
	</g>
</g>
<g>
	<g class="st5">
		<path class="st6" d="M385.2,89.8c-0.7,0.5-1.4,0.7-2.2,0.7c-0.7,0-1.5-0.1-2.1-0.5c-0.7-0.4-1.3-0.9-1.8-1.7
			c-0.5-0.7-0.8-1.5-0.8-2.2c-0.1-0.8,0.1-1.5,0.4-2.1c0.3-0.7,0.8-1.2,1.5-1.7c0.7-0.4,1.4-0.7,2-0.7c0.7,0,1.3,0.1,2,0.5
			c0.6,0.3,1.2,0.9,1.6,1.6c0.1,0.1,0.1,0.2,0.2,0.3c0.1,0.1,0.1,0.2,0.2,0.3l-6,4l-0.6-0.9l5.3-3.5l0,0.8c-0.6-0.9-1.2-1.4-1.9-1.6
			c-0.7-0.2-1.4-0.1-2.1,0.4c-0.7,0.5-1.1,1.1-1.2,1.9c-0.1,0.8,0.1,1.6,0.7,2.4c0.6,0.9,1.2,1.4,2,1.6c0.8,0.2,1.5,0.1,2.3-0.4
			c0.5-0.3,0.8-0.7,1-1.1c0.2-0.4,0.3-0.9,0.2-1.4l1.1-0.7c0.2,0.8,0.2,1.6-0.1,2.4C386.5,88.7,386,89.3,385.2,89.8z"/>
	</g>
</g>
<g>
	<g class="st5">
		<path class="st6" d="M392.6,85.2c-0.7,0.4-1.4,0.6-2.1,0.6c-0.7,0-1.4-0.2-2.1-0.7c-0.7-0.4-1.2-1-1.6-1.7
			c-0.4-0.8-0.7-1.5-0.7-2.3c0-0.8,0.1-1.5,0.5-2.1s0.8-1.2,1.5-1.6c0.6-0.3,1.1-0.5,1.7-0.6c0.6,0,1.1,0,1.6,0.3
			c0.5,0.2,1,0.6,1.4,1.1l-1.1,0.6c-0.4-0.4-0.8-0.7-1.4-0.8c-0.5-0.1-1.1,0-1.6,0.3c-0.5,0.3-0.8,0.6-1,1.1
			c-0.2,0.4-0.3,0.9-0.2,1.5c0.1,0.5,0.3,1.1,0.6,1.7c0.3,0.6,0.7,1,1.2,1.4c0.5,0.3,0.9,0.5,1.4,0.5c0.5,0,1-0.1,1.5-0.4
			c0.5-0.3,0.9-0.7,1.1-1.2c0.2-0.5,0.2-1,0-1.6l1.1-0.6c0.2,0.6,0.3,1.1,0.2,1.7c-0.1,0.6-0.3,1.1-0.6,1.6
			C393.6,84.5,393.2,84.9,392.6,85.2z"/>
	</g>
</g>
<g>
	<g class="st5">
		<path class="st6" d="M399,81.7c-0.5,0.3-1,0.4-1.5,0.4c-0.5,0-1-0.1-1.4-0.4c-0.4-0.3-0.8-0.6-1-1.1l-2.8-5.4l1.2-0.6l2.6,5.1
			c0.3,0.6,0.7,1,1.1,1.1c0.4,0.1,0.9,0.1,1.5-0.2c0.5-0.2,0.9-0.6,1.1-1c0.3-0.4,0.4-0.9,0.4-1.4c0-0.5-0.1-1-0.4-1.5l1.1,1.7
			c0,0.7-0.1,1.4-0.5,2C400.2,80.9,399.6,81.3,399,81.7z M401.8,80.1l-0.9-1.8l-0.1,0l-3-5.9l1.2-0.6l4,7.7L401.8,80.1z"/>
	</g>
</g>
<g>
	<g class="st5">
		<path class="st6" d="M405.1,78.5l-3.6-7.9l1.2-0.5l0.9,2l0.1,0l2.6,5.9L405.1,78.5z M404.5,73.8l-1-1.8c-0.1-0.8,0-1.4,0.3-2
			c0.3-0.6,0.8-1,1.4-1.3c0.3-0.1,0.4-0.2,0.6-0.2l0.5,1.2c-0.1,0-0.1,0-0.2,0.1c-0.1,0-0.2,0.1-0.3,0.1c-0.8,0.4-1.3,0.9-1.5,1.5
			C404,72.1,404.1,72.9,404.5,73.8z"/>
	</g>
</g>
<g>
	<g class="st5">
		<path class="st6" d="M406.4,66.3l-0.6-1.5l1.4-0.6l0.6,1.5L406.4,66.3z M410.5,76.1l-3.3-8l1.3-0.5l3.3,8L410.5,76.1z"/>
	</g>
</g>
<g>
	<g class="st5">
		<path class="st6" d="M410.7,67.9l-0.4-1.1l5.4-2l0.4,1.1L410.7,67.9z M417.6,73.5c-0.9,0.3-1.6,0.4-2.2,0.1
			c-0.6-0.3-1-0.8-1.3-1.5l-2.9-7.8l1.1-1l3.1,8.2c0.2,0.5,0.4,0.7,0.7,0.9c0.3,0.1,0.7,0.1,1.3-0.1c0.2-0.1,0.4-0.2,0.5-0.2
			c0.1-0.1,0.3-0.2,0.3-0.2l0.4,1.1c-0.1,0.1-0.2,0.2-0.4,0.3C418.1,73.3,417.9,73.4,417.6,73.5z"/>
	</g>
</g>
<g>
	<g class="st5">
		<path class="st6" d="M422.7,71.8l-6.4-7.2l1.4-0.5l5.6,6.5L422.7,71.8z M421.7,75.6l0.5-4.9l0.1-0.5l0.5-7.7l1.3-0.4l-1.1,13.1
			L421.7,75.6z"/>
	</g>
</g>
<g>
	<g class="st5">
		<path class="st6" d="M431.6,69.1l-2.7-11.9l4.7-1.1c0.8-0.2,1.6-0.2,2.3-0.1c0.7,0.1,1.2,0.4,1.6,0.9c0.4,0.4,0.7,1,0.9,1.8
			s0.2,1.4,0,2c-0.2,0.6-0.6,1.1-1.1,1.5c-0.5,0.4-1.2,0.7-2.1,0.9l-3.7,0.9l-0.3-1.2l3.7-0.8c0.9-0.2,1.5-0.6,1.9-1.1
			c0.4-0.5,0.5-1.1,0.3-1.9c-0.2-0.8-0.5-1.3-1.1-1.6c-0.5-0.3-1.3-0.3-2.2-0.1l-3.3,0.8l2.4,10.7L431.6,69.1z"/>
	</g>
</g>
<g>
	<g class="st5">
		<path class="st6" d="M443.8,66.8c-0.8,0.1-1.6,0.1-2.3-0.2c-0.7-0.3-1.3-0.7-1.7-1.4c-0.5-0.6-0.8-1.4-0.9-2.2
			c-0.1-0.9-0.1-1.7,0.2-2.4c0.2-0.7,0.7-1.3,1.2-1.8c0.6-0.5,1.3-0.8,2.1-0.9c0.9-0.1,1.6-0.1,2.3,0.2c0.7,0.3,1.3,0.7,1.7,1.3
			c0.5,0.6,0.8,1.3,0.9,2.2c0.1,0.8,0.1,1.6-0.2,2.4c-0.2,0.7-0.6,1.4-1.2,1.8C445.4,66.3,444.7,66.6,443.8,66.8z M443.6,65.6
			c0.6-0.1,1.1-0.3,1.4-0.7c0.4-0.4,0.6-0.8,0.8-1.3c0.2-0.5,0.2-1.1,0.1-1.8c-0.2-1-0.6-1.7-1.2-2.2c-0.6-0.5-1.4-0.7-2.2-0.5
			c-0.8,0.1-1.5,0.5-1.9,1.2s-0.6,1.5-0.4,2.5c0.1,0.7,0.3,1.2,0.6,1.7c0.3,0.5,0.7,0.8,1.2,1C442.5,65.7,443,65.7,443.6,65.6z"/>
	</g>
</g>
<g>
	<g class="st5">
		<path class="st6" d="M449.8,65.7l-1.4-12.2l1.4-0.2l1.4,12.2L449.8,65.7z"/>
	</g>
</g>
<g>
	<g class="st5">
		<path class="st6" d="M452.9,54.7l-0.1-1.6l1.6-0.1l0.1,1.6L452.9,54.7z M454,65.3l-0.8-8.6l1.4-0.1l0.8,8.6L454,65.3z"/>
	</g>
</g>
<g>
	<g class="st5">
		<path class="st6" d="M461.5,64.9c-0.8,0-1.5-0.1-2.1-0.5c-0.6-0.4-1.1-0.9-1.5-1.5s-0.6-1.4-0.7-2.3c0-0.9,0.1-1.6,0.4-2.3
			c0.3-0.7,0.8-1.2,1.4-1.7c0.6-0.4,1.3-0.6,2.1-0.7c0.6,0,1.2,0.1,1.8,0.3c0.5,0.2,1,0.6,1.3,1c0.4,0.4,0.6,1,0.7,1.6l-1.3,0.1
			c-0.1-0.5-0.4-1-0.8-1.3c-0.4-0.3-1-0.5-1.6-0.4c-0.6,0-1,0.2-1.4,0.5c-0.4,0.3-0.7,0.7-0.9,1.2c-0.2,0.5-0.3,1.1-0.3,1.8
			c0,0.7,0.2,1.3,0.4,1.8c0.3,0.5,0.6,0.9,1,1.1c0.4,0.3,0.9,0.4,1.5,0.4c0.6,0,1.1-0.2,1.5-0.6c0.4-0.4,0.6-0.8,0.7-1.4l1.3-0.1
			c-0.1,0.6-0.3,1.1-0.6,1.6c-0.3,0.5-0.7,0.9-1.2,1.1S462.1,64.9,461.5,64.9z"/>
	</g>
</g>
<g>
	<g class="st5">
		<path class="st6" d="M469.1,64.7l-3.8-8.8l1.5,0l3.3,7.9L469.1,64.7z M467,68.1l2-4.5l0.3-0.5l2.9-7.2l1.4,0l-5.1,12.1L467,68.1z"
			/>
	</g>
</g>
<g>
	<g class="st5">
		<path class="st6" d="M540.5,82.8l6.2-10.6l1.2,0.7l-6.2,10.6L540.5,82.8z M541.2,83.2l0.6-1.1l2.8,1.7c0.9,0.5,1.7,0.8,2.6,0.8
			c0.8,0,1.6-0.2,2.3-0.6c0.7-0.4,1.3-1.1,1.8-1.9c0.5-0.8,0.7-1.7,0.8-2.5c0-0.8-0.2-1.6-0.6-2.3c-0.4-0.7-1.1-1.3-2-1.8l-2.8-1.7
			l0.6-1.1l2.8,1.7c1.1,0.6,1.9,1.4,2.5,2.3c0.6,0.9,0.8,1.9,0.8,3c0,1.1-0.3,2.1-0.9,3.2c-0.6,1.1-1.4,1.8-2.3,2.4s-1.9,0.8-3,0.7
			c-1.1,0-2.2-0.4-3.3-1L541.2,83.2z"/>
	</g>
</g>
<g>
	<g class="st5">
		<path class="st6" d="M552.4,90.3c-0.7-0.5-1.2-1.1-1.4-1.7c-0.2-0.7-0.1-1.3,0.4-1.9c0.4-0.6,1-1,1.6-1c0.7-0.1,1.5,0.1,2.4,0.5
			l2.8,1.3l-0.6,0.9l-2.6-1.2c-0.6-0.3-1.1-0.4-1.5-0.4c-0.4,0-0.7,0.2-1,0.6c-0.2,0.4-0.3,0.7-0.2,1.1c0.1,0.4,0.4,0.7,0.9,1
			c0.6,0.4,1.2,0.6,1.8,0.6c0.6,0,1-0.3,1.4-0.7l-0.5,1.1c-0.5,0.4-1,0.5-1.6,0.5C553.6,91,553,90.7,552.4,90.3z M554.9,91.8
			c0.1-0.2,0.2-0.4,0.3-0.6s0.3-0.5,0.5-0.8l-0.1,0l2.3-3.4c0.4-0.5,0.5-1,0.4-1.5c-0.1-0.4-0.4-0.8-0.9-1.2
			c-0.5-0.4-1.1-0.6-1.5-0.6c-0.5,0-0.9,0.2-1.2,0.6l-1.1-0.7c0.5-0.7,1.2-1,2-1c0.8,0,1.6,0.2,2.5,0.8c0.9,0.6,1.4,1.3,1.6,2
			c0.1,0.7-0.1,1.5-0.6,2.3l-2.3,3.4c-0.1,0.2-0.3,0.4-0.4,0.7c-0.1,0.2-0.2,0.5-0.4,0.8L554.9,91.8z"/>
	</g>
</g>
<g>
	<g class="st5">
		<path class="st6" d="M560.2,95.9c-0.8-0.6-1.2-1.2-1.3-1.8s0.1-1.2,0.6-1.9l5-6.6l1.4,0.4l-5.3,7c-0.3,0.4-0.4,0.8-0.3,1.1
			c0.1,0.3,0.3,0.7,0.8,1c0.2,0.1,0.3,0.2,0.5,0.3c0.1,0.1,0.3,0.1,0.4,0.2l-0.7,0.9c-0.1,0-0.3-0.1-0.5-0.2
			C560.6,96.1,560.4,96,560.2,95.9z M561.1,87l0.7-0.9l4.6,3.4l-0.7,0.9L561.1,87z"/>
	</g>
</g>
<g>
	<g class="st5">
		<path class="st6" d="M563.8,98.8c-0.7-0.6-1.1-1.2-1.2-1.9c-0.1-0.7,0-1.3,0.5-1.9c0.5-0.6,1.1-0.9,1.7-0.9c0.7,0,1.4,0.3,2.3,0.8
			l2.7,1.5l-0.7,0.9l-2.5-1.5c-0.6-0.3-1-0.5-1.4-0.5c-0.4,0-0.8,0.1-1,0.5c-0.3,0.3-0.4,0.7-0.3,1.1c0.1,0.4,0.4,0.7,0.8,1.1
			c0.6,0.5,1.2,0.7,1.8,0.8c0.6,0,1.1-0.2,1.4-0.6l-0.6,1.1c-0.5,0.3-1.1,0.5-1.7,0.4S564.4,99.3,563.8,98.8z M566.2,100.5
			c0.1-0.2,0.2-0.4,0.3-0.6c0.1-0.2,0.3-0.5,0.6-0.8l-0.1-0.1l2.6-3.2c0.4-0.5,0.6-1,0.6-1.4c0-0.4-0.3-0.9-0.8-1.3
			c-0.5-0.4-1-0.7-1.5-0.7s-0.9,0.1-1.2,0.5l-1-0.8c0.6-0.6,1.3-0.9,2.1-0.9c0.8,0,1.6,0.4,2.4,1.1c0.8,0.7,1.3,1.4,1.4,2.1
			c0.1,0.7-0.2,1.5-0.9,2.3l-2.6,3.2c-0.2,0.2-0.3,0.4-0.5,0.6c-0.1,0.2-0.3,0.5-0.4,0.7L566.2,100.5z"/>
	</g>
</g>
<g>
	<g class="st5">
		<path class="st6" d="M575.3,109.2c-0.9-0.9-1.5-1.8-1.8-2.8c-0.3-1-0.3-2,0-3s0.9-2,1.8-2.9c0.9-0.9,1.8-1.5,2.9-1.8
			c1-0.3,2-0.4,3-0.2c1,0.2,1.9,0.7,2.7,1.6c0.6,0.6,1.1,1.3,1.4,2.1c0.3,0.8,0.4,1.5,0.3,2.3c-0.1,0.8-0.4,1.5-0.9,2.1l-1-1
			c0.5-0.7,0.7-1.4,0.6-2.2c-0.1-0.8-0.5-1.6-1.2-2.3c-0.6-0.6-1.3-1-2.1-1.2c-0.8-0.2-1.6-0.1-2.4,0.2c-0.8,0.3-1.6,0.8-2.3,1.5
			c-0.7,0.7-1.2,1.5-1.5,2.3c-0.3,0.8-0.3,1.6,0,2.4c0.2,0.8,0.7,1.5,1.4,2.2c0.5,0.5,1,0.8,1.5,1.1c0.5,0.2,1.1,0.4,1.7,0.4
			l0.6,1.3c-0.9,0-1.8-0.1-2.6-0.5C576.7,110.4,576,109.9,575.3,109.2z M579.1,110.2l2.8-2.8l0,0.7l-2.8-2.7l0.9-0.9l3.4,3.3
			l-3.3,3.3L579.1,110.2z"/>
	</g>
</g>
<g>
	<g class="st5">
		<path class="st6" d="M581.8,116.1c-0.6-0.6-0.9-1.3-1-2.1c-0.1-0.7-0.1-1.5,0.2-2.2c0.3-0.7,0.7-1.4,1.4-1.9
			c0.7-0.6,1.4-0.9,2.1-1.1c0.7-0.2,1.5-0.1,2.2,0.1c0.7,0.2,1.3,0.7,1.9,1.3c0.6,0.6,0.9,1.3,1.1,2.1c0.1,0.7,0.1,1.5-0.2,2.2
			c-0.3,0.7-0.7,1.4-1.4,1.9c-0.6,0.6-1.3,0.9-2.1,1.1c-0.8,0.2-1.5,0.2-2.2-0.1C583,117.2,582.3,116.7,581.8,116.1z M582.6,115.3
			c0.4,0.4,0.8,0.7,1.3,0.9c0.5,0.1,1,0.1,1.6,0s1.1-0.5,1.6-0.9c0.7-0.7,1.2-1.4,1.3-2.2c0.1-0.8-0.1-1.5-0.7-2.2
			c-0.6-0.6-1.3-1-2.1-1s-1.6,0.3-2.3,1c-0.5,0.4-0.9,0.9-1.1,1.4c-0.2,0.5-0.3,1-0.2,1.6C582,114.4,582.2,114.9,582.6,115.3z"/>
	</g>
</g>
<g>
	<g class="st5">
		<path class="st6" d="M587.3,122.5l4.6-8.2l0.9,1.2l-4.3,7.1l-0.3-0.4l7.9-2.4l0.9,1.1l-9,2.5L587.3,122.5z"/>
	</g>
</g>
<g>
	<g class="st5">
		<path class="st6" d="M592.7,130.1c-0.5-0.7-0.7-1.4-0.8-2.1c0-0.7,0.1-1.5,0.5-2.1c0.4-0.7,0.9-1.3,1.6-1.8s1.5-0.8,2.2-0.9
			s1.5,0,2.2,0.3c0.7,0.3,1.3,0.8,1.7,1.5c0.5,0.7,0.7,1.3,0.8,2c0.1,0.7-0.1,1.3-0.4,2c-0.3,0.6-0.9,1.2-1.6,1.7
			c-0.1,0.1-0.2,0.1-0.3,0.2c-0.1,0.1-0.2,0.1-0.3,0.2l-4.1-5.9l0.9-0.6l3.6,5.2l-0.8,0c0.9-0.6,1.4-1.2,1.6-1.9
			c0.2-0.7,0.1-1.4-0.4-2.1c-0.5-0.7-1.1-1.1-1.9-1.2c-0.8-0.1-1.6,0.1-2.4,0.7c-0.8,0.6-1.4,1.3-1.6,2.1c-0.2,0.8-0.1,1.5,0.4,2.3
			c0.3,0.5,0.7,0.8,1.1,1c0.4,0.2,0.9,0.3,1.4,0.2l0.7,1.1c-0.8,0.2-1.6,0.2-2.4-0.1C593.8,131.4,593.2,130.9,592.7,130.1z"/>
	</g>
</g>
<g>
	<g class="st5">
		<path class="st6" d="M595.8,134.5l7.4-4.6l0.7,1.1l-1.9,1.2l0,0.1l-5.5,3.4L595.8,134.5z M600.3,133.2l1.6-1.3
			c0.7-0.2,1.4-0.2,2,0c0.6,0.2,1.1,0.6,1.4,1.2c0.1,0.2,0.2,0.4,0.2,0.5l-1.1,0.7c0-0.1,0-0.1-0.1-0.2c0-0.1-0.1-0.2-0.2-0.3
			c-0.5-0.7-1-1.2-1.7-1.3C601.9,132.5,601.2,132.7,600.3,133.2z"/>
	</g>
</g>
<g>
	<g class="st5">
		<path class="st6" d="M598.9,139.4l7.6-4.2l0.6,1.1l-1.8,1l0,0.1l-5.8,3.2L598.9,139.4z M601.9,144.8l5-2.8
			c0.6-0.3,0.9-0.7,1.1-1.1c0.1-0.4,0-1-0.3-1.5c-0.3-0.5-0.6-0.9-1.1-1.1c-0.4-0.3-0.9-0.4-1.4-0.4c-0.5,0-1,0.1-1.5,0.4l1.7-1.2
			c0.7-0.1,1.4,0.1,2,0.4s1.1,0.9,1.5,1.5c0.4,0.8,0.6,1.6,0.4,2.3c-0.2,0.7-0.6,1.3-1.4,1.7l-5.3,2.9L601.9,144.8z"/>
	</g>
</g>
<g>
	<g class="st5">
		<path class="st6" d="M604.4,150.2c-0.4-0.8-0.5-1.5-0.3-2.2c0.2-0.7,0.6-1.2,1.3-1.5c0.7-0.3,1.3-0.3,1.9-0.1
			c0.6,0.3,1.2,0.8,1.8,1.7l1.8,2.5l-1,0.5l-1.6-2.4c-0.4-0.5-0.7-0.9-1.1-1.1c-0.4-0.2-0.7-0.2-1.1,0c-0.4,0.2-0.6,0.5-0.7,0.8
			c-0.1,0.4,0,0.8,0.3,1.4c0.3,0.7,0.7,1.2,1.3,1.5c0.5,0.3,1,0.3,1.5,0.1l-1,0.7c-0.6,0.1-1.2,0-1.7-0.4
			C605.1,151.4,604.7,150.9,604.4,150.2z M605.8,152.8c0.2-0.1,0.3-0.2,0.6-0.4c0.2-0.1,0.5-0.3,0.8-0.4l0-0.1l3.7-1.8
			c0.6-0.3,1-0.6,1.1-1s0.1-0.9-0.2-1.5c-0.3-0.6-0.6-1-1-1.2s-0.8-0.3-1.3-0.1l-0.6-1.2c0.8-0.3,1.5-0.3,2.2,0.1
			c0.7,0.4,1.3,1,1.7,2c0.5,1,0.6,1.8,0.3,2.5c-0.2,0.7-0.8,1.3-1.7,1.7l-3.8,1.8c-0.2,0.1-0.5,0.2-0.7,0.4
			c-0.2,0.1-0.5,0.3-0.7,0.5L605.8,152.8z"/>
	</g>
</g>
<g>
	<g class="st5">
		<path class="st6" d="M607.1,155.7l8-3.2l0.5,1.2l-1.9,0.8l0,0.1l-6.1,2.5L607.1,155.7z M609.5,161.5l5.3-2.1c0.6-0.2,1-0.6,1.2-1
			s0.2-0.9-0.1-1.5c-0.2-0.5-0.5-0.9-0.9-1.3c-0.4-0.3-0.8-0.5-1.3-0.6c-0.5-0.1-1,0-1.6,0.2l1.8-1c0.7,0,1.4,0.3,1.9,0.7
			c0.6,0.4,1,1,1.3,1.7c0.3,0.8,0.4,1.6,0.1,2.3c-0.3,0.7-0.8,1.2-1.6,1.5l-5.6,2.3L609.5,161.5z"/>
	</g>
</g>
<g>
	<g class="st5">
		<path class="st6" d="M611.6,168.2c-0.3-0.8-0.3-1.5-0.1-2.2c0.2-0.7,0.5-1.3,1.1-1.9c0.5-0.6,1.2-1,2-1.3c0.8-0.3,1.6-0.4,2.4-0.2
			c0.7,0.1,1.4,0.4,2,0.9c0.6,0.5,1,1.1,1.2,1.8c0.2,0.6,0.3,1.2,0.2,1.8c-0.1,0.6-0.3,1.1-0.6,1.5c-0.3,0.5-0.8,0.8-1.3,1.1
			l-0.4-1.2c0.5-0.3,0.8-0.7,1-1.2c0.2-0.5,0.2-1.1,0-1.7c-0.2-0.5-0.5-0.9-0.8-1.2c-0.4-0.3-0.9-0.5-1.4-0.5s-1.1,0-1.8,0.2
			c-0.6,0.2-1.2,0.5-1.6,0.9c-0.4,0.4-0.7,0.8-0.8,1.3c-0.1,0.5-0.1,1,0.1,1.5c0.2,0.6,0.5,1,1,1.3c0.5,0.3,1,0.4,1.5,0.3l0.4,1.2
			c-0.6,0.1-1.2,0.1-1.7-0.1c-0.5-0.2-1-0.5-1.4-0.9C612.1,169.3,611.8,168.8,611.6,168.2z"/>
	</g>
</g>
<g>
	<g class="st5">
		<path class="st6" d="M613.9,175.7c-0.2-0.8-0.2-1.6,0-2.3c0.2-0.7,0.6-1.3,1.2-1.9c0.6-0.5,1.3-0.9,2.1-1.1
			c0.9-0.2,1.6-0.3,2.4-0.1s1.4,0.5,1.9,1c0.5,0.5,0.9,1.2,1.1,2c0.2,0.8,0.2,1.5,0.1,2.2c-0.2,0.7-0.5,1.2-1.1,1.7
			c-0.5,0.5-1.2,0.8-2,1.1c-0.1,0-0.2,0.1-0.3,0.1s-0.2,0-0.3,0l-1.9-6.9l1.1-0.3l1.7,6.1l-0.7-0.3c1-0.3,1.7-0.7,2.1-1.3
			c0.4-0.6,0.5-1.3,0.3-2.1c-0.2-0.8-0.7-1.4-1.4-1.8c-0.7-0.3-1.6-0.4-2.5-0.1c-1,0.3-1.7,0.7-2.2,1.4c-0.5,0.7-0.6,1.4-0.3,2.3
			c0.1,0.5,0.4,1,0.7,1.3c0.3,0.3,0.8,0.5,1.3,0.6l0.3,1.2c-0.8-0.1-1.6-0.3-2.2-0.9C614.6,177.3,614.2,176.6,613.9,175.7z"/>
	</g>
</g>
<g>
	<g class="st5">
		<path class="st6" d="M550.5,342.6l-7-10.1l1.1-0.8l7,10.1L550.5,342.6z M551.1,342.2l-0.7-1l2.7-1.9c0.8-0.6,1.4-1.3,1.8-2
			c0.4-0.8,0.5-1.6,0.4-2.4c-0.1-0.8-0.4-1.7-1-2.5c-0.6-0.8-1.2-1.4-1.9-1.8c-0.7-0.4-1.5-0.5-2.3-0.4c-0.8,0.1-1.7,0.4-2.5,1
			l-2.7,1.9l-0.7-1l2.7-1.9c1.1-0.7,2.1-1.2,3.2-1.3c1.1-0.1,2.1,0,3,0.5c1,0.4,1.8,1.2,2.5,2.2c0.7,1,1.1,2,1.2,3.1
			c0.1,1.1-0.1,2.1-0.6,3c-0.5,1-1.2,1.8-2.3,2.5L551.1,342.2z"/>
	</g>
</g>
<g>
	<g class="st5">
		<path class="st6" d="M564.7,332.1c-0.2-0.1-0.3-0.3-0.5-0.5c-0.2-0.2-0.4-0.4-0.6-0.7l-0.1,0.1l-2.6-3.2c-0.4-0.5-0.8-0.8-1.3-0.9
			c-0.4-0.1-0.9,0.1-1.4,0.5c-0.5,0.4-0.8,0.8-1,1.3c-0.1,0.5-0.1,0.9,0.2,1.3l-1,0.8c-0.5-0.7-0.6-1.4-0.4-2.2
			c0.2-0.8,0.7-1.5,1.5-2.1c0.8-0.7,1.6-1,2.3-0.9s1.4,0.5,2,1.3l2.6,3.2c0.2,0.2,0.3,0.4,0.5,0.6c0.2,0.2,0.4,0.4,0.6,0.6
			L564.7,332.1z M562.5,334.1c-0.7,0.6-1.4,0.8-2.1,0.8c-0.7,0-1.3-0.3-1.7-0.9c-0.5-0.6-0.6-1.2-0.5-1.9c0.1-0.7,0.6-1.4,1.2-2.1
			l2-2.3l0.7,0.9l-1.9,2.1c-0.4,0.5-0.7,0.9-0.8,1.3c-0.1,0.4,0,0.8,0.3,1.1c0.3,0.3,0.6,0.5,1,0.5s0.8-0.2,1.3-0.6
			c0.6-0.5,1-1,1.1-1.6c0.2-0.6,0.1-1.1-0.3-1.5l0.9,0.8c0.2,0.6,0.2,1.1,0,1.7C563.5,333.1,563.1,333.6,562.5,334.1z"/>
	</g>
</g>
<g>
	<g class="st5">
		<path class="st6" d="M570.2,327.5c-0.7,0.6-1.4,1-2,0.9c-0.6,0-1.2-0.4-1.8-1l-5.6-6.2l0.7-1.3l5.9,6.5c0.3,0.4,0.7,0.5,1,0.5
			c0.3,0,0.7-0.2,1.1-0.6c0.2-0.2,0.3-0.3,0.4-0.4c0.1-0.1,0.2-0.2,0.2-0.3l0.8,0.9c-0.1,0.1-0.1,0.2-0.3,0.4
			S570.4,327.3,570.2,327.5z M561.7,324.8L561,324l4.2-3.8l0.8,0.9L561.7,324.8z"/>
	</g>
</g>
<g>
	<g class="st5">
		<path class="st6" d="M576,321.8c-0.2-0.1-0.3-0.2-0.5-0.4s-0.4-0.4-0.7-0.7l-0.1,0.1l-2.9-3c-0.5-0.5-0.9-0.7-1.3-0.7
			c-0.4,0-0.9,0.2-1.4,0.7c-0.5,0.5-0.8,0.9-0.8,1.4c-0.1,0.5,0,0.9,0.3,1.3l-0.9,0.9c-0.5-0.6-0.8-1.4-0.6-2.1
			c0.1-0.8,0.6-1.6,1.3-2.3c0.8-0.8,1.5-1.1,2.2-1.1c0.7,0,1.5,0.4,2.2,1.1l2.9,3c0.2,0.2,0.4,0.4,0.6,0.5c0.2,0.2,0.4,0.3,0.7,0.5
			L576,321.8z M574,324c-0.6,0.6-1.3,1-2,1c-0.7,0.1-1.3-0.2-1.8-0.7s-0.8-1.1-0.7-1.8c0.1-0.7,0.4-1.4,1-2.2l1.8-2.5l0.8,0.8
			l-1.7,2.3c-0.4,0.5-0.6,1-0.7,1.4c-0.1,0.4,0.1,0.8,0.4,1.1c0.3,0.3,0.7,0.4,1,0.4c0.4,0,0.8-0.3,1.2-0.7c0.5-0.5,0.9-1.1,1-1.7
			c0.1-0.6,0-1.1-0.4-1.5l1,0.7c0.3,0.5,0.3,1.1,0.2,1.7S574.5,323.5,574,324z"/>
	</g>
</g>
<g>
	<g class="st5">
		<path class="st6" d="M581.6,316l-9.5-7.8l1.4-1.7l11.9,4.1l-0.4,0.5l-6.3-10.9l1.4-1.7l9.5,7.8l-0.9,1.1l-8.9-7.3l0.1-0.1
			l6.2,10.6l-1.1,1.3l-11.5-3.9l0.1-0.1l8.8,7.2L581.6,316z"/>
	</g>
</g>
<g>
	<g class="st5">
		<path class="st6" d="M593.2,301.2c-0.5,0.7-1.1,1.2-1.8,1.5s-1.4,0.4-2.2,0.3s-1.5-0.4-2.2-0.9c-0.7-0.5-1.3-1.1-1.6-1.8
			c-0.3-0.7-0.5-1.4-0.5-2.1c0-0.7,0.3-1.5,0.8-2.2c0.5-0.7,1.1-1.2,1.8-1.5c0.7-0.3,1.4-0.4,2.2-0.3c0.8,0.1,1.5,0.4,2.2,0.9
			c0.7,0.5,1.2,1.1,1.6,1.8c0.4,0.7,0.5,1.4,0.5,2.2S593.7,300.5,593.2,301.2z M592.2,300.6c0.3-0.5,0.5-1,0.5-1.5
			c0-0.5-0.1-1-0.4-1.5c-0.3-0.5-0.7-0.9-1.3-1.3c-0.8-0.6-1.6-0.8-2.4-0.7c-0.8,0.1-1.4,0.5-1.9,1.2c-0.5,0.7-0.6,1.5-0.4,2.2
			c0.2,0.8,0.7,1.5,1.5,2c0.6,0.4,1.1,0.6,1.7,0.7c0.6,0.1,1.1,0,1.6-0.2C591.5,301.4,591.9,301,592.2,300.6z"/>
	</g>
</g>
<g>
	<g class="st5">
		<path class="st6" d="M600,290l-1.7-1l0.1-0.1c0.5,0.5,0.7,1.1,0.7,1.8c0,0.7-0.1,1.4-0.5,2.1c-0.4,0.7-0.9,1.2-1.5,1.5
			c-0.6,0.3-1.3,0.4-2,0.4c-0.7-0.1-1.5-0.3-2.3-0.8c-0.8-0.5-1.4-1-1.8-1.6c-0.4-0.6-0.6-1.3-0.7-2c0-0.7,0.2-1.4,0.6-2.1
			c0.4-0.7,0.9-1.2,1.6-1.5c0.6-0.3,1.3-0.3,2-0.1l-0.1,0.3l-4.9-2.9l0.7-1.2l10.6,6.2L600,290z M597.7,291.9
			c0.4-0.8,0.5-1.5,0.3-2.2c-0.3-0.7-0.8-1.4-1.7-1.9c-0.9-0.5-1.7-0.7-2.4-0.6c-0.8,0.1-1.4,0.6-1.8,1.3s-0.5,1.5-0.3,2.2
			c0.3,0.7,0.8,1.3,1.7,1.9c0.9,0.5,1.7,0.7,2.4,0.6C596.7,293.1,597.2,292.7,597.7,291.9z"/>
	</g>
</g>
<g>
	<g class="st5">
		<path class="st6" d="M603.8,283.1c-0.4,0.7-0.9,1.3-1.5,1.7c-0.6,0.4-1.3,0.6-2.1,0.6c-0.8,0-1.6-0.2-2.3-0.6
			c-0.8-0.4-1.4-0.9-1.8-1.5c-0.4-0.6-0.7-1.3-0.7-2.1c0-0.7,0.1-1.5,0.5-2.2c0.4-0.7,0.8-1.3,1.4-1.6c0.6-0.4,1.2-0.6,1.9-0.6
			c0.7,0,1.5,0.2,2.2,0.6c0.1,0.1,0.2,0.1,0.3,0.2c0.1,0.1,0.2,0.1,0.3,0.2l-3.2,6.4l-1-0.5l2.8-5.7l0.4,0.7
			c-0.9-0.5-1.8-0.6-2.5-0.5c-0.7,0.2-1.2,0.6-1.6,1.4c-0.4,0.8-0.4,1.5-0.1,2.3c0.3,0.7,0.9,1.3,1.8,1.8c0.9,0.5,1.8,0.6,2.6,0.4
			c0.8-0.2,1.4-0.7,1.8-1.5c0.2-0.5,0.4-1,0.3-1.5c0-0.5-0.2-0.9-0.5-1.3l0.6-1.2c0.6,0.6,0.9,1.3,1,2.1
			C604.4,281.5,604.2,282.3,603.8,283.1z"/>
	</g>
</g>
<g>
	<g class="st5">
		<path class="st6" d="M606.2,277.8l-11.2-5l0.6-1.2l11.2,5L606.2,277.8z"/>
	</g>
</g>
<g>
	<g class="st5">
		<path class="st6" d="M607.9,273.7l-11.3-4.6l0.5-1.3l11.3,4.6L607.9,273.7z"/>
	</g>
</g>
<g>
	<g class="st5">
		<path class="st6" d="M599.6,265.9l-1.5-0.6l0.5-1.5l1.5,0.6L599.6,265.9z M609.6,269.5l-8.1-3l0.5-1.3l8.1,3L609.6,269.5z"/>
	</g>
</g>
<g>
	<g class="st5">
		<path class="st6" d="M611.2,265.2l-8.3-2.6l0.4-1.2l1.9,0.6l0-0.1l6.3,2L611.2,265.2z M613.1,259.3l-5.4-1.7
			c-0.6-0.2-1.1-0.2-1.6,0c-0.4,0.2-0.7,0.6-0.9,1.2c-0.2,0.5-0.2,1.1-0.1,1.5c0.1,0.5,0.3,0.9,0.7,1.3c0.3,0.4,0.8,0.6,1.4,0.8
			l-2-0.4c-0.5-0.5-0.9-1.1-1-1.8s-0.1-1.4,0.1-2.1c0.3-0.9,0.7-1.5,1.4-1.8c0.7-0.4,1.4-0.4,2.2-0.2l5.8,1.8L613.1,259.3z"/>
	</g>
</g>
<g>
	<g class="st5">
		<path class="st6" d="M618.6,252.6c-0.2,1-0.7,1.8-1.3,2.3c-0.6,0.6-1.3,0.8-2.2,0.8l0.3-1.3c0.5,0,0.9-0.2,1.2-0.6
			s0.6-0.9,0.8-1.6c0.2-0.9,0.1-1.6-0.2-2.1c-0.4-0.6-1-0.9-1.9-1.2l-1.8-0.4l0.1-0.2c0.6,0.3,1,0.8,1.3,1.5
			c0.2,0.7,0.3,1.4,0.1,2.1c-0.2,0.7-0.5,1.3-1,1.8c-0.5,0.5-1.1,0.8-1.8,0.9c-0.7,0.2-1.5,0.1-2.3-0.1c-0.9-0.2-1.6-0.6-2.1-1
			c-0.6-0.5-1-1-1.2-1.7c-0.2-0.7-0.2-1.4,0-2.2c0.2-0.8,0.5-1.4,1.1-1.8s1.2-0.7,1.9-0.7l0,0.2l-2.1-0.5l0.3-1.2l8.1,2
			c1.2,0.3,2.1,0.9,2.6,1.8C618.8,250.3,619,251.4,618.6,252.6z M614,251.4c0.2-0.8,0.1-1.6-0.4-2.2c-0.5-0.6-1.2-1.1-2.2-1.3
			c-1-0.2-1.8-0.2-2.4,0.2c-0.7,0.3-1.1,0.9-1.3,1.8c-0.2,0.8-0.1,1.6,0.4,2.2c0.4,0.6,1.2,1,2.1,1.3c1,0.2,1.8,0.2,2.5-0.2
			C613.3,252.9,613.8,252.3,614,251.4z"/>
	</g>
</g>
<g>
	<g class="st5">
		<path class="st6" d="M384.4,341.4l6.5-10.4l1.2,0.7l-6.5,10.4L384.4,341.4z M385.1,341.8l0.6-1l2.8,1.7c0.9,0.5,1.7,0.8,2.6,0.9
			c0.8,0,1.6-0.2,2.4-0.6c0.7-0.4,1.4-1.1,1.9-1.9c0.5-0.8,0.8-1.7,0.8-2.5c0-0.8-0.1-1.6-0.5-2.3c-0.4-0.7-1.1-1.4-1.9-1.9
			l-2.8-1.7l0.6-1l2.8,1.7c1.1,0.7,1.9,1.5,2.4,2.4c0.5,0.9,0.8,1.9,0.8,3c0,1.1-0.4,2.1-1,3.1c-0.6,1-1.4,1.8-2.4,2.3
			c-0.9,0.5-1.9,0.7-3,0.7c-1.1-0.1-2.2-0.4-3.2-1.1L385.1,341.8z"/>
	</g>
</g>
<g>
	<g class="st5">
		<path class="st6" d="M397,349.1c-0.8-0.4-1.3-0.9-1.6-1.6c-0.3-0.6-0.2-1.3,0.1-2c0.4-0.7,0.9-1.1,1.5-1.2c0.7-0.1,1.5,0,2.4,0.3
			l2.9,1l-0.5,1l-2.7-0.9c-0.6-0.2-1.1-0.3-1.5-0.2c-0.4,0.1-0.7,0.3-0.9,0.7c-0.2,0.4-0.2,0.8-0.1,1.1s0.5,0.6,1,0.9
			c0.7,0.4,1.3,0.5,1.9,0.4c0.6-0.1,1-0.4,1.3-0.9l-0.4,1.2c-0.4,0.4-1,0.7-1.6,0.7C398.3,349.6,397.7,349.4,397,349.1z
			 M399.7,350.3c0-0.2,0.1-0.4,0.2-0.6c0.1-0.2,0.2-0.5,0.4-0.9l-0.1,0l1.9-3.7c0.3-0.6,0.4-1.1,0.3-1.5c-0.1-0.4-0.5-0.8-1.1-1.1
			c-0.6-0.3-1.1-0.4-1.6-0.4c-0.5,0.1-0.8,0.3-1.1,0.7l-1.2-0.6c0.4-0.7,1.1-1.1,1.9-1.3c0.8-0.1,1.7,0.1,2.6,0.6
			c1,0.5,1.5,1.1,1.8,1.8c0.2,0.7,0.1,1.5-0.4,2.4l-1.9,3.7c-0.1,0.2-0.2,0.5-0.3,0.7c-0.1,0.3-0.2,0.5-0.3,0.8L399.7,350.3z"/>
	</g>
</g>
<g>
	<g class="st5">
		<path class="st6" d="M406.1,353.5c-0.9-0.4-1.4-0.9-1.6-1.5c-0.2-0.6-0.2-1.2,0.2-2l3.4-7.5l1.4,0.1l-3.6,8
			c-0.2,0.4-0.2,0.8-0.1,1.1c0.1,0.3,0.5,0.6,1,0.8c0.2,0.1,0.4,0.2,0.6,0.2c0.2,0,0.3,0.1,0.4,0.1l-0.5,1.1c-0.1,0-0.3,0-0.5-0.1
			C406.6,353.7,406.4,353.6,406.1,353.5z M405.2,344.6l0.5-1.1l5.2,2.4l-0.5,1.1L405.2,344.6z"/>
	</g>
</g>
<g>
	<g class="st5">
		<path class="st6" d="M410.8,355.6c-0.8-0.3-1.4-0.8-1.7-1.4s-0.3-1.3-0.1-2c0.3-0.7,0.8-1.2,1.4-1.3c0.6-0.2,1.5-0.2,2.4,0l3,0.7
			l-0.4,1l-2.8-0.7c-0.6-0.1-1.1-0.2-1.5-0.1c-0.4,0.1-0.7,0.4-0.8,0.8c-0.2,0.4-0.2,0.8,0,1.1c0.2,0.3,0.6,0.6,1.1,0.8
			c0.7,0.3,1.3,0.4,1.9,0.2c0.6-0.1,1-0.5,1.2-1l-0.3,1.2c-0.4,0.5-0.9,0.7-1.5,0.8C412.2,355.9,411.5,355.9,410.8,355.6z
			 M413.7,356.5c0-0.2,0.1-0.4,0.2-0.7s0.2-0.5,0.3-0.9l-0.1,0l1.6-3.8c0.2-0.6,0.3-1.1,0.1-1.5c-0.2-0.4-0.6-0.7-1.2-1
			c-0.6-0.2-1.1-0.3-1.6-0.2c-0.5,0.1-0.8,0.4-1,0.8l-1.2-0.5c0.4-0.8,0.9-1.2,1.7-1.4c0.8-0.2,1.7-0.1,2.6,0.3
			c1,0.4,1.6,0.9,1.9,1.6c0.3,0.7,0.2,1.5-0.1,2.4l-1.6,3.9c-0.1,0.2-0.2,0.5-0.2,0.7c-0.1,0.3-0.1,0.5-0.2,0.8L413.7,356.5z"/>
	</g>
</g>
<g>
	<g class="st5">
		<path class="st6" d="M421.1,359.2l3.6-11.7l1.3,0.4l-3.6,11.7L421.1,359.2z M421.8,359.4l0.4-1.2l6.7,2.1l-0.4,1.2L421.8,359.4z"
			/>
	</g>
</g>
<g>
	<g class="st5">
		<path class="st6" d="M429.5,361.7l2.2-8.4l1.3,0.3l-2.2,8.4L429.5,361.7z M432.1,351.4l0.4-1.5l1.5,0.4l-0.4,1.5L432.1,351.4z"/>
	</g>
</g>
<g>
	<g class="st5">
		<path class="st6" d="M433.9,362.8l1.8-8.5l1.2,0.3l-0.4,2l0.1,0l-1.4,6.5L433.9,362.8z M440,364.1l1.2-5.6
			c0.1-0.6,0.1-1.2-0.2-1.6c-0.3-0.4-0.7-0.6-1.3-0.8c-0.6-0.1-1.1-0.1-1.5,0.1c-0.5,0.2-0.9,0.4-1.2,0.8c-0.3,0.4-0.6,0.9-0.7,1.4
			l0.2-2.1c0.4-0.6,1-1,1.6-1.2s1.4-0.3,2.1-0.1c0.9,0.2,1.5,0.6,2,1.2c0.4,0.6,0.6,1.3,0.4,2.2l-1.2,5.9L440,364.1z"/>
	</g>
</g>
<g>
	<g class="st5">
		<path class="st6" d="M447.7,365.5c-0.8-0.1-1.5-0.4-2.1-0.9c-0.6-0.5-1-1.1-1.3-1.8c-0.3-0.7-0.3-1.5-0.2-2.4s0.4-1.6,0.9-2.2
			c0.4-0.6,1-1.1,1.7-1.3c0.7-0.3,1.5-0.4,2.3-0.2c0.8,0.1,1.5,0.4,2,0.8c0.5,0.4,0.9,1,1.2,1.7c0.2,0.7,0.3,1.4,0.2,2.3
			c0,0.1,0,0.2-0.1,0.3c0,0.1,0,0.2-0.1,0.3l-7.1-1l0.2-1.1l6.3,0.9l-0.5,0.6c0.1-1,0-1.9-0.3-2.5c-0.4-0.6-1-1-1.8-1.1
			c-0.9-0.1-1.6,0.1-2.2,0.6s-1,1.3-1.1,2.3c-0.1,1,0,1.9,0.4,2.6c0.4,0.7,1.1,1.1,2,1.2c0.5,0.1,1,0,1.5-0.2
			c0.4-0.2,0.8-0.5,1.1-0.9l1.3,0.2c-0.4,0.7-0.9,1.3-1.7,1.7C449.4,365.5,448.6,365.7,447.7,365.5z"/>
	</g>
</g>
<g>
	<g class="st5">
		<path class="st6" d="M456,366.5c-0.9-0.1-1.6-0.3-2.1-0.8c-0.5-0.5-0.7-1.1-0.6-1.8s0.4-1.3,0.9-1.7c0.6-0.4,1.3-0.6,2.3-0.7
			l3.1-0.3l-0.1,1.1l-2.8,0.2c-0.6,0.1-1.1,0.2-1.5,0.4c-0.3,0.2-0.5,0.5-0.6,1c0,0.4,0.1,0.8,0.4,1c0.3,0.2,0.7,0.4,1.3,0.4
			c0.8,0.1,1.4-0.1,1.9-0.4c0.5-0.3,0.8-0.7,0.8-1.3l0.1,1.2c-0.2,0.6-0.6,1-1.2,1.3C457.4,366.4,456.7,366.5,456,366.5z
			 M458.9,366.5c0-0.2,0-0.4,0-0.7c0-0.2,0-0.6,0-1l-0.1,0l0.3-4.1c0.1-0.7-0.1-1.2-0.3-1.5c-0.3-0.3-0.7-0.5-1.4-0.6
			c-0.7-0.1-1.2,0-1.6,0.3c-0.4,0.2-0.7,0.6-0.7,1.1l-1.3-0.1c0.1-0.8,0.5-1.5,1.2-1.9c0.7-0.4,1.5-0.6,2.6-0.5
			c1.1,0.1,1.9,0.4,2.3,0.9c0.5,0.5,0.7,1.3,0.6,2.3l-0.3,4.2c0,0.2,0,0.5,0,0.8c0,0.3,0,0.6,0.1,0.9L458.9,366.5z"/>
	</g>
</g>
<g>
	<g class="st5">
		<path class="st6" d="M466.2,370.4c-1,0-1.9-0.3-2.6-0.8c-0.7-0.5-1.1-1.1-1.2-1.9l1.3,0c0.1,0.5,0.4,0.8,0.8,1.1
			c0.4,0.3,1,0.4,1.8,0.4c0.9,0,1.6-0.2,2-0.7c0.5-0.5,0.7-1.2,0.7-2.1l0-1.9l0.2,0c-0.2,0.7-0.6,1.2-1.2,1.6
			c-0.6,0.4-1.3,0.6-2.1,0.6c-0.8,0-1.4-0.2-2-0.6c-0.6-0.4-1-0.9-1.3-1.6c-0.3-0.7-0.5-1.4-0.4-2.3c0-0.9,0.2-1.7,0.5-2.3
			c0.3-0.7,0.8-1.2,1.4-1.5c0.6-0.4,1.3-0.5,2.1-0.5c0.8,0,1.5,0.2,2,0.6c0.5,0.4,0.9,1,1.1,1.7l-0.2,0l0-2.2l1.3,0l-0.1,8.3
			c0,1.2-0.4,2.2-1.1,2.9C468.5,370.1,467.5,370.4,466.2,370.4z M466.3,365.6c0.8,0,1.5-0.3,2-0.9c0.5-0.6,0.8-1.4,0.8-2.4
			c0-1-0.2-1.8-0.7-2.3c-0.5-0.6-1.2-0.9-2-0.9c-0.9,0-1.5,0.3-2,0.8s-0.8,1.4-0.8,2.4c0,1,0.2,1.8,0.7,2.4
			C464.8,365.3,465.5,365.6,466.3,365.6z"/>
	</g>
</g>
<g>
	<g class="st5">
		<path class="st6" d="M476.9,366.7c-0.8,0-1.6-0.1-2.2-0.5c-0.7-0.4-1.2-0.9-1.6-1.5c-0.4-0.7-0.6-1.4-0.7-2.3
			c0-0.9,0.1-1.7,0.4-2.4c0.3-0.7,0.8-1.2,1.4-1.7c0.6-0.4,1.4-0.6,2.2-0.7c0.8,0,1.5,0.1,2.1,0.4c0.6,0.3,1.1,0.8,1.5,1.4
			c0.4,0.6,0.6,1.4,0.6,2.2c0,0.1,0,0.2,0,0.3c0,0.1,0,0.2,0,0.3l-7.1,0.4l-0.1-1.1l6.3-0.3l-0.4,0.7c-0.1-1-0.3-1.8-0.8-2.4
			c-0.5-0.5-1.2-0.8-2-0.7c-0.9,0-1.5,0.4-2,1c-0.5,0.6-0.7,1.4-0.7,2.4c0.1,1,0.4,1.8,0.9,2.4c0.6,0.6,1.3,0.9,2.2,0.8
			c0.6,0,1-0.2,1.4-0.4c0.4-0.3,0.7-0.6,0.9-1.1l1.3-0.1c-0.2,0.8-0.7,1.5-1.3,2C478.5,366.4,477.8,366.7,476.9,366.7z"/>
	</g>
</g>
<linearGradient id="ab_00000082334345921513902400000011166388596193729160_" gradientUnits="userSpaceOnUse" x1="17.0014" y1="292.2912" x2="219.9511" y2="292.2912" gradientTransform="matrix(1 0 0 -1 0 428.1081)">
	<stop  offset="0" style="stop-color:#203567;stop-opacity:0"/>
	<stop  offset="9.000000e-02" style="stop-color:#2B3F6E;stop-opacity:5.000000e-02"/>
	<stop  offset="0.26" style="stop-color:#495A83;stop-opacity:0.19"/>
	<stop  offset="0.48" style="stop-color:#7A87A4;stop-opacity:0.41"/>
	<stop  offset="0.75" style="stop-color:#BDC3D2;stop-opacity:0.71"/>
	<stop  offset="1" style="stop-color:#FFFFFF"/>
</linearGradient>
<path id="ab" style="fill:none;stroke:url(#ab_00000082334345921513902400000011166388596193729160_);stroke-miterlimit:10;stroke-dasharray:0,0,3.9,3.9;" d="
	M17,53c61.2,1,123.2-2,184.2,1c9,4,17,11,17,21c2,48,1,96,0.8,144.4"/>
<linearGradient id="ab_00000179625135037019496200000015574087400769250461_" gradientUnits="userSpaceOnUse" x1="17.0014" y1="125.505" x2="219.9511" y2="125.505" gradientTransform="matrix(1 0 0 1 0 177.5964)">
	<stop  offset="0" style="stop-color:#203567;stop-opacity:0"/>
	<stop  offset="9.000000e-02" style="stop-color:#2B3F6E;stop-opacity:5.000000e-02"/>
	<stop  offset="0.26" style="stop-color:#495A83;stop-opacity:0.19"/>
	<stop  offset="0.48" style="stop-color:#7A87A4;stop-opacity:0.41"/>
	<stop  offset="0.75" style="stop-color:#BDC3D2;stop-opacity:0.71"/>
	<stop  offset="1" style="stop-color:#FFFFFF"/>
</linearGradient>
<path id="ab_00000128460599417678741550000005245252932185449117_" style="fill:none;stroke:url(#ab_00000179625135037019496200000015574087400769250461_);stroke-miterlimit:10;stroke-dasharray:0,0,3.9,3.9;" d="
	M17,385.9c61.2-1,123.2,2,184.2-1c9-4,17-11,17-21c2-48,1-96,0.8-144.4"/>
<linearGradient id="af_00000121982490024968019940000013291755373626909845_" gradientUnits="userSpaceOnUse" x1="17.0195" y1="208.0927" x2="218.6105" y2="208.0927" gradientTransform="matrix(1 0 0 1 0 11.9227)">
	<stop  offset="0" style="stop-color:#203567;stop-opacity:0.6"/>
	<stop  offset="0.56" style="stop-color:#FFFFFF"/>
	<stop  offset="1" style="stop-color:#203567;stop-opacity:0.9"/>
</linearGradient>
<path id="af" style="fill:none;stroke:url(#af_00000121982490024968019940000013291755373626909845_);stroke-miterlimit:10;stroke-dasharray:0,0,3.9,3.9;" d="
	M17,220c67.2-0.1,134.2-0.1,201.6,0"/>
<linearGradient id="ac_00000063608540634977693480000016312671357543642780_" gradientUnits="userSpaceOnUse" x1="188.91" y1="208.0927" x2="278.41" y2="208.0927" gradientTransform="matrix(1 0 0 1 0 11.9227)">
	<stop  offset="0" style="stop-color:#203567;stop-opacity:0.6"/>
	<stop  offset="0.56" style="stop-color:#FFFFFF"/>
	<stop  offset="1" style="stop-color:#203567;stop-opacity:0.9"/>
</linearGradient>
<path id="ac" style="fill:none;stroke:url(#ac_00000063608540634977693480000016312671357543642780_);stroke-miterlimit:10;stroke-dasharray:0,0,3.9,3.9;" d="
	M226.9,220c-9.7-0.1,19.3-0.1,49.5,0"/>
<linearGradient id="SVGID_00000148649141625409574250000006161136445157006750_" gradientUnits="userSpaceOnUse" x1="278.26" y1="208.1239" x2="340.55" y2="208.1239" gradientTransform="matrix(1 0 0 -1 0 428.1081)">
	<stop  offset="2.000000e-02" style="stop-color:#2666C4"/>
	<stop  offset="1" style="stop-color:#203567"/>
</linearGradient>
<path style="fill:url(#SVGID_00000148649141625409574250000006161136445157006750_);" d="M295,203.3h28.9c9.2,0,16.7,7.5,16.7,16.7
	l0,0c0,9.2-7.5,16.7-16.7,16.7H295c-9.2,0-16.7-7.5-16.7-16.7l0,0C278.3,210.8,285.7,203.3,295,203.3z"/>
<circle class="st12" cx="323.9" cy="220" r="13.4"/>
<linearGradient id="SVGID_00000137832014114473895300000010295576251138532001_" gradientUnits="userSpaceOnUse" x1="499.1301" y1="211.9058" x2="-279.5898" y2="224.4959" gradientTransform="matrix(1 0 0 -1 0 428.1081)">
	<stop  offset="0" style="stop-color:#000407;stop-opacity:0"/>
	<stop  offset="1" style="stop-color:#203567"/>
</linearGradient>
<circle style="fill:url(#SVGID_00000137832014114473895300000010295576251138532001_);" cx="468.6" cy="215.7" r="69.9"/>
<path class="st6" d="M438.7,222.1l26.3,15.1c2.3,1.3,5,1.3,7.3,0l26.1-15.1c2-1.2,2-4.1,0-5.3l-26.2-15.1c-2.3-1.3-5-1.3-7.3,0
	l-26.3,15.1C436.6,218,436.6,221,438.7,222.1z"/>
<linearGradient id="SVGID_00000149369085215184200540000016047706768891963573_" gradientUnits="userSpaceOnUse" x1="472.7903" y1="-46.2211" x2="459.2503" y2="-162.4811" gradientTransform="matrix(1 0 0 -1 0 130.1081)">
	<stop  offset="0" style="stop-color:#0E20D5"/>
	<stop  offset="1" style="stop-color:#FFFFFF"/>
</linearGradient>
<path style="fill:url(#SVGID_00000149369085215184200540000016047706768891963573_);" d="M438.7,214.7l26.3,15.1
	c2.3,1.3,5,1.3,7.3,0l26.3-15.1c2-1.2,2-4.1,0-5.3l-26.3-15.1c-2.3-1.3-5-1.3-7.3,0l-26.3,15.1C436.6,210.6,436.6,213.6,438.7,214.7
	z"/>
<radialGradient id="SVGID_00000122684811679660322500000005910736032831144084_" cx="118.04" cy="375.1089" r="8.21" gradientTransform="matrix(1 0 0 -1 0 428.1081)" gradientUnits="userSpaceOnUse">
	<stop  offset="0" style="stop-color:#E7E7E7"/>
	<stop  offset="1" style="stop-color:#CBCED5;stop-opacity:0"/>
</radialGradient>
<circle style="opacity:0.81;fill:url(#SVGID_00000122684811679660322500000005910736032831144084_);enable-background:new    ;" cx="118" cy="53" r="8.2"/>
<radialGradient id="SVGID_00000080887317085957810600000005110754650448554924_" cx="219.07" cy="91.999" r="8.21" gradientTransform="matrix(1 0 0 -1 0 428.1081)" gradientUnits="userSpaceOnUse">
	<stop  offset="0" style="stop-color:#E7E7E7"/>
	<stop  offset="1" style="stop-color:#CBCED5;stop-opacity:0"/>
</radialGradient>
<circle style="opacity:0.81;fill:url(#SVGID_00000080887317085957810600000005110754650448554924_);enable-background:new    ;" cx="219.1" cy="336.1" r="8.2"/>
<radialGradient id="SVGID_00000138573312637774604780000006158605739334932908_" cx="219.07" cy="91.999" r="8.21" gradientTransform="matrix(1 0 0 -1 0 428.1081)" gradientUnits="userSpaceOnUse">
	<stop  offset="0" style="stop-color:#E7E7E7"/>
	<stop  offset="1" style="stop-color:#CBCED5;stop-opacity:0"/>
</radialGradient>
<circle style="opacity:0.81;fill:url(#SVGID_00000138573312637774604780000006158605739334932908_);enable-background:new    ;" cx="219.1" cy="336.1" r="8.2"/>
</svg>
