<?xml version="1.0" encoding="UTF-8"?><svg xmlns="http://www.w3.org/2000/svg" xmlns:xlink="http://www.w3.org/1999/xlink" viewBox="0 0 636.46 746.31"><defs><style>.bc{stroke-width:2.5px;}.bc,.bd{stroke-linecap:round;stroke-linejoin:round;}.bc,.bd,.be{fill:none;stroke:#fff;}.bd{stroke-width:2.5px;}.be{stroke-miterlimit:10;}.bf{opacity:.62;}.bg,.bh,.bi,.bj,.bk,.bl,.bm,.bn,.bo,.bp,.bq,.br,.bs,.bt,.bu,.bv,.bw,.bx,.by,.bz,.ca,.cb,.cc,.cd,.ce,.cf,.cg,.ch,.ci,.cj,.ck,.cl,.cm,.cn,.co,.cp,.cq,.cr,.cs,.ct,.cu,.cv,.cw,.cx,.cy,.cz,.da,.db,.dc,.dd,.de,.df,.dg{stroke-width:0px;}.bh{fill:#10aa50;}.bi{fill:#12924f;}.bj{fill:#b8c4c2;}.bk{fill:#336791;}.bl{fill:#041527;}.bm{fill:#00a1e0;}.bn{fill:#fff;}.bo{fill:#000307;}.bp{fill:url(#ah);}.bq{fill:url(#ag);}.br{fill:url(#aa);}.bs{fill:url(#ao);}.bt{fill:url(#af);}.bu{fill:url(#ae);}.bv{fill:url(#ab);}.bw{fill:url(#aj);}.bx{fill:url(#ap);}.by{fill:url(#ai);}.bz{fill:url(#an);}.ca{fill:url(#am);}.cb{fill:url(#ac);}.cc{fill:url(#at);}.cd{fill:url(#as);}.ce{fill:url(#aw);}.cf{fill:url(#aq);}.cg{fill:url(#ax);}.ch{fill:url(#al);}.ci{fill:url(#au);}.cj{fill:url(#av);}.ck{fill:url(#b);}.cl{fill:url(#c);}.cm{fill:url(#e);}.cn{fill:url(#y);}.co{fill:url(#w);}.cp{fill:url(#x);}.cq{fill:url(#u);}.cr{fill:url(#t);}.cs{fill:url(#f);}.ct{fill:url(#d);}.cu{fill:url(#s);}.cv{fill:url(#j);}.cw{fill:url(#q);}.cx{fill:url(#r);}.cy{fill:url(#i);}.cz{fill:url(#h);}.da{fill:url(#m);}.db{fill:url(#g);}.dc{fill:url(#o);}.dd{fill:url(#p);}.de{fill:url(#k);}.df{fill:url(#n);}.dg{fill:url(#l);}</style><linearGradient id="b" x1="160.28" y1="-222.7" x2="636.46" y2="-222.7" gradientTransform="translate(0 444.11)" gradientUnits="userSpaceOnUse"><stop offset=".02" stop-color="#2666c4"/><stop offset="1" stop-color="#203567"/></linearGradient><linearGradient id="c" x1="160.87" y1="39.67" x2="397.46" y2="39.67" gradientTransform="translate(0 444.11)" gradientUnits="userSpaceOnUse"><stop offset=".02" stop-color="#2666c4"/><stop offset="1" stop-color="#203567"/></linearGradient><linearGradient id="d" x1="397.76" y1="-63.31" x2="632.71" y2="-63.31" gradientTransform="translate(0 444.11)" gradientUnits="userSpaceOnUse"><stop offset=".02" stop-color="#2666c4"/><stop offset="1" stop-color="#203567"/></linearGradient><linearGradient id="e" x1="396.71" y1="144.56" x2="631.67" y2="144.56" gradientTransform="translate(0 444.11)" gradientUnits="userSpaceOnUse"><stop offset=".02" stop-color="#2666c4"/><stop offset="1" stop-color="#203567"/></linearGradient><linearGradient id="f" x1="-2149.86" y1="-585.79" x2="-2130.06" y2="-499.99" gradientTransform="translate(-1905.8 717.06) rotate(-174.54) scale(1 -1)" gradientUnits="userSpaceOnUse"><stop offset="0" stop-color="#0e20d5"/><stop offset="1" stop-color="#fff"/></linearGradient><linearGradient id="g" x1="79.17" y1="37.01" x2="211.12" y2="37.01" gradientTransform="translate(0 444.11)" gradientUnits="userSpaceOnUse"><stop offset=".02" stop-color="#2666c4"/><stop offset="1" stop-color="#203567"/></linearGradient><linearGradient id="h" x1="108.21" y1="80.76" x2="211.12" y2="80.76" gradientTransform="translate(0 444.11)" gradientUnits="userSpaceOnUse"><stop offset=".02" stop-color="#2666c4"/><stop offset="1" stop-color="#203567"/></linearGradient><linearGradient id="i" x1="1.24" y1="136.44" x2="60.67" y2="136.44" gradientTransform="translate(0 444.11)" gradientUnits="userSpaceOnUse"><stop offset=".02" stop-color="#2666c4"/><stop offset="1" stop-color="#203567"/></linearGradient><linearGradient id="j" x1="60.6" y1="136.3" x2="120.02" y2="136.3" gradientTransform="translate(0 444.11)" gradientUnits="userSpaceOnUse"><stop offset=".02" stop-color="#2666c4"/><stop offset="1" stop-color="#203567"/></linearGradient><linearGradient id="k" x1="1.24" y1="81.78" x2="119.75" y2="81.78" gradientTransform="translate(0 444.11)" gradientUnits="userSpaceOnUse"><stop offset=".02" stop-color="#2666c4"/><stop offset="1" stop-color="#203567"/></linearGradient><linearGradient id="l" x1="154.19" y1="83.73" x2="286.14" y2="83.73" gradientTransform="translate(0 444.11)" gradientUnits="userSpaceOnUse"><stop offset=".02" stop-color="#2666c4"/><stop offset="1" stop-color="#203567"/></linearGradient><linearGradient id="m" x1="183.23" y1="127.49" x2="286.14" y2="127.49" gradientTransform="translate(0 444.11)" gradientUnits="userSpaceOnUse"><stop offset=".02" stop-color="#2666c4"/><stop offset="1" stop-color="#203567"/></linearGradient><linearGradient id="n" x1="76.26" y1="183.1" x2="135.69" y2="183.1" gradientTransform="translate(0 444.11)" gradientUnits="userSpaceOnUse"><stop offset=".02" stop-color="#2666c4"/><stop offset="1" stop-color="#203567"/></linearGradient><linearGradient id="o" x1="135.62" y1="182.56" x2="195.04" y2="182.56" gradientTransform="translate(0 444.11)" gradientUnits="userSpaceOnUse"><stop offset=".02" stop-color="#2666c4"/><stop offset="1" stop-color="#203567"/></linearGradient><linearGradient id="p" x1="75.93" y1="128.74" x2="195.04" y2="128.74" gradientTransform="translate(0 444.11)" gradientUnits="userSpaceOnUse"><stop offset=".02" stop-color="#2666c4"/><stop offset="1" stop-color="#203567"/></linearGradient><linearGradient id="q" x1="228" y1="125.6" x2="359.94" y2="125.6" gradientTransform="translate(0 444.11)" gradientUnits="userSpaceOnUse"><stop offset=".02" stop-color="#2666c4"/><stop offset="1" stop-color="#203567"/></linearGradient><linearGradient id="r" x1="257.03" y1="169.36" x2="359.94" y2="169.36" gradientTransform="translate(0 444.11)" gradientUnits="userSpaceOnUse"><stop offset=".02" stop-color="#2666c4"/><stop offset="1" stop-color="#203567"/></linearGradient><linearGradient id="s" x1="150.07" y1="224.97" x2="209.49" y2="224.97" gradientTransform="translate(0 444.11)" gradientUnits="userSpaceOnUse"><stop offset=".02" stop-color="#2666c4"/><stop offset="1" stop-color="#203567"/></linearGradient><linearGradient id="t" x1="209.43" y1="224.43" x2="268.85" y2="224.43" gradientTransform="translate(0 444.11)" gradientUnits="userSpaceOnUse"><stop offset=".02" stop-color="#2666c4"/><stop offset="1" stop-color="#203567"/></linearGradient><linearGradient id="u" x1="149.8" y1="170.61" x2="268.85" y2="170.61" gradientTransform="translate(0 444.11)" gradientUnits="userSpaceOnUse"><stop offset=".02" stop-color="#2666c4"/><stop offset="1" stop-color="#203567"/></linearGradient><linearGradient id="x" x1="2163.43" y1="-446.91" x2="2283.33" y2="-446.91" gradientTransform="translate(2283.33 966.44) rotate(-180) scale(1 -1)" gradientUnits="userSpaceOnUse"><stop offset="0" stop-color="#3a2aa4"/><stop offset=".22" stop-color="#5c32b6"/><stop offset=".57" stop-color="#7533b4"/><stop offset="1" stop-color="#81d9bf"/></linearGradient><linearGradient id="y" y1="-456.94" y2="-456.94" xlink:href="#x"/><linearGradient id="z" x1="2162.34" y1="-441.6" x2="2282.46" y2="-441.6" xlink:href="#x"/><linearGradient id="aa" x1="2150.94" y1="-369.81" x2="2271.67" y2="-526.9" gradientTransform="translate(2283.33 966.44) rotate(-180) scale(1 -1)" gradientUnits="userSpaceOnUse"><stop offset="0" stop-color="#fff" stop-opacity="0"/><stop offset="1" stop-color="#f6f6f6"/></linearGradient><linearGradient id="ab" x1="2186.88" y1="-425.38" x2="2199.96" y2="-450.96" gradientTransform="translate(2283.33 966.44) rotate(-180) scale(1 -1)" gradientUnits="userSpaceOnUse"><stop offset=".2" stop-color="#fff" stop-opacity="0"/><stop offset="1" stop-color="#f6f6f6"/></linearGradient><linearGradient id="ac" x1="2258.72" y1="-429.04" x2="2248.67" y2="-446.1" xlink:href="#ab"/><linearGradient id="ae" x1="2088.88" y1="-398.98" x2="2208.78" y2="-398.98" xlink:href="#x"/><linearGradient id="af" x1="2088.88" y1="-409.01" x2="2208.78" y2="-409.01" xlink:href="#x"/><linearGradient id="ag" x1="2087.79" y1="-393.67" x2="2207.91" y2="-393.67" xlink:href="#x"/><linearGradient id="ah" x1="2076.39" y1="-321.88" x2="2197.12" y2="-478.97" xlink:href="#aa"/><linearGradient id="ai" x1="2112.33" y1="-377.46" x2="2125.41" y2="-403.03" xlink:href="#ab"/><linearGradient id="aj" x1="2184.17" y1="-381.11" x2="2174.12" y2="-398.17" xlink:href="#ab"/><linearGradient id="al" x1="1656.1" y1="-763.38" x2="2126.71" y2="-763.38" xlink:href="#x"/><linearGradient id="am" x1="1656.1" y1="-802.77" x2="2126.71" y2="-802.77" xlink:href="#x"/><linearGradient id="an" x1="1651.81" y1="-742.55" x2="2123.28" y2="-742.55" xlink:href="#x"/><linearGradient id="ao" x1="1607.09" y1="-460.79" x2="2080.93" y2="-1077.34" xlink:href="#aa"/><linearGradient id="ap" x1="1748.13" y1="-678.92" x2="1799.47" y2="-779.28" xlink:href="#ab"/><linearGradient id="aq" x1="2030.1" y1="-693.25" x2="1990.67" y2="-760.23" xlink:href="#ab"/><linearGradient id="as" x1="2014.43" y1="-358.64" x2="2134.33" y2="-358.64" xlink:href="#x"/><linearGradient id="at" x1="2014.43" y1="-368.67" x2="2134.33" y2="-368.67" xlink:href="#x"/><linearGradient id="au" x1="2013.34" y1="-353.33" x2="2133.46" y2="-353.33" xlink:href="#x"/><linearGradient id="av" x1="2001.94" y1="-281.54" x2="2122.67" y2="-438.63" xlink:href="#aa"/><linearGradient id="aw" x1="2037.88" y1="-337.12" x2="2050.96" y2="-362.69" xlink:href="#ab"/><linearGradient id="ax" x1="2109.72" y1="-340.77" x2="2099.67" y2="-357.83" xlink:href="#ab"/></defs><g id="a"><polygon class="bl" points="602.22 419.32 631.52 431.35 367.03 584.02 367.03 554.87 602.22 419.32"/><polyline class="ck" points="636.46 221.11 397.86 358.87 160.28 221.72 398.89 83.96 636.26 221.72"/><polygon class="cl" points="397.46 745.42 160.87 608.85 160.87 222.13 397.46 358.71 397.46 745.42"/><polyline class="ct" points="397.76 443.44 397.76 359.13 632.71 223.5 632.71 307.74 632.71 318.16 632.71 402.4 397.76 538.1 397.76 453.79"/><polyline class="cm" points="396.71 650.97 396.71 566.66 631.67 431.03 631.67 515.27 631.67 526.36 631.67 610.61 396.71 746.31 396.71 661.99"/><path class="bn" d="m530.11,376.47c.61.88.88,2.16.88,3.77,0,1.21-.13,2.42-.47,3.64-.34,1.21-.81,2.36-1.41,3.5-.61,1.08-1.35,2.09-2.16,2.96-.81.88-1.75,1.62-2.76,2.22-1.01.61-1.89.88-2.76.94-.81.07-1.55-.07-2.16-.47-.61-.4-1.08-1.01-1.41-1.82s-.54-1.82-.54-3.03c0-1.62.27-3.17.88-4.78.61-1.62,1.41-3.03,2.42-4.31s2.22-2.36,3.5-3.1c1.35-.81,2.56-1.08,3.57-1.01,1.01.07,1.82.54,2.42,1.48Zm-1.41,8.55c.4-1.28.67-2.56.67-3.84s-.2-2.29-.67-3.03c-.4-.74-1.01-1.15-1.82-1.28s-1.68.13-2.69.74c-1.01.61-1.95,1.41-2.69,2.42s-1.35,2.09-1.82,3.37c-.4,1.21-.61,2.49-.61,3.77,0,1.35.2,2.36.67,3.1.4.74,1.01,1.21,1.82,1.35s1.68-.07,2.69-.67,1.95-1.41,2.69-2.42c.67-1.08,1.28-2.22,1.75-3.5"/><polygon class="bn" points="535.3 369.66 535.37 384.28 542.71 379.97 542.71 381.59 534.56 386.3 533.75 386.84 533.68 370.61 535.3 369.66"/><path class="bn" d="m551.74,360.23l5.59,13-1.68.94-1.68-3.97-6.53,3.77-1.62,5.86-1.55.88,5.52-19.4,1.41-.81.54-.27Zm-3.77,11.79l5.46-3.17-2.76-6.6-2.69,9.77"/><path class="bn" d="m569.65,352.02c.4.47.54,1.21.61,2.22s-.2,1.95-.54,2.9c-.4.94-.94,1.82-1.62,2.63-.74.81-1.62,1.48-2.63,2.09l-4.04,2.36v6.67l-1.62.94-.07-16.17,5.73-3.3c1.01-.61,1.89-.88,2.63-.94.67-.07,1.21.13,1.55.61Zm-1.89,5.99c.54-.88.81-1.82.81-2.83s-.27-1.62-.81-1.82-1.35,0-2.42.61l-4.04,2.29v6.26l4.04-2.29c1.08-.61,1.89-1.35,2.42-2.22"/><path class="bn" d="m526.34,579.12c.55.8.86,1.91.86,3.38s-.25,2.95-.86,4.37c-.55,1.48-1.35,2.77-2.34,4s-2.21,2.21-3.57,3.01l-3.51,2.03-.86.49-.06-14.76,1.48-.86,2.89-1.66c1.35-.8,2.58-1.17,3.57-1.17,1.05,0,1.85.43,2.4,1.17Zm-1.29,7.75c.43-1.17.62-2.34.62-3.51s-.25-2.09-.62-2.71c-.43-.62-1.05-.98-1.85-.98s-1.72.25-2.83.92l-2.89,1.66.06,11.81,2.89-1.66c1.11-.62,2.03-1.41,2.83-2.4.74-.92,1.35-1.97,1.78-3.14"/><path class="bn" d="m536.43,583.61c.06.31.06.62.12.92l-1.41.8c-.06-.18-.06-.43-.12-.74v-.8c-.18.62-.55,1.23-.98,1.78-.55.74-1.23,1.29-2.09,1.78-.98.55-1.72.74-2.28.55s-.86-.74-.86-1.66.25-1.78.86-2.64c.55-.8,1.35-1.66,2.46-2.46l2.83-2.15v-.49c0-.8-.18-1.29-.49-1.48-.31-.18-.86-.06-1.54.31-.68.43-1.29.92-1.66,1.48-.43.55-.68,1.17-.68,1.78l-1.41.8c.06-1.05.43-2.03,1.11-3.01.68-.98,1.6-1.78,2.71-2.4,1.17-.68,2.03-.86,2.58-.55s.86,1.05.86,2.28v5.04c-.06.25,0,.55,0,.86Zm-1.48-1.6v-1.66l-2.58,1.97c-.68.49-1.17,1.05-1.54,1.54s-.55.98-.55,1.54.18.86.49.92.8-.06,1.41-.43c.8-.49,1.48-1.05,1.97-1.78.55-.74.8-1.41.8-2.09"/><path class="bn" d="m541.1,568.36v3.08l2.77-1.6v1.41l-2.77,1.6v6.15c0,.62.12.92.43,1.05.25.12.74,0,1.29-.37.25-.12.43-.31.62-.43s.31-.25.43-.37v1.41c-.12.12-.31.25-.49.43-.25.18-.49.31-.74.49-1.05.62-1.78.74-2.28.49s-.68-.86-.68-1.91v-6.15l-1.91,1.11v-1.41l1.91-1.11v-2.46l1.41-1.41Z"/><path class="bn" d="m552.78,574.2c.06.31.06.62.12.92l-1.41.8c-.06-.18-.06-.43-.12-.74v-.8c-.18.62-.55,1.23-.98,1.78-.55.74-1.23,1.29-2.09,1.78-.98.55-1.72.74-2.28.55s-.86-.74-.86-1.66.25-1.78.86-2.64c.55-.8,1.35-1.66,2.46-2.46l2.83-2.15v-.49c0-.8-.18-1.29-.49-1.48-.31-.18-.86-.06-1.54.31-.68.43-1.29.92-1.66,1.48-.43.55-.68,1.17-.68,1.78l-1.41.8c.06-1.05.43-2.03,1.11-3.01.68-.98,1.6-1.78,2.71-2.4,1.17-.68,2.03-.86,2.58-.55s.86,1.05.86,2.28v5.04c-.06.25-.06.55,0,.86Zm-1.54-1.6v-1.66l-2.58,1.97c-.68.49-1.17,1.05-1.54,1.54s-.55.98-.55,1.54.18.86.49.92.8-.06,1.41-.43c.8-.49,1.48-1.05,1.97-1.78.55-.74.86-1.41.8-2.09"/><polygon class="bn" points="517.54 605.38 517.54 618.73 524.31 614.79 524.31 616.27 516.81 620.64 516.07 621.07 516.01 606.25 517.54 605.38"/><path class="bn" d="m533.17,610.18c.06.31.06.62.12.92l-1.41.8c-.06-.18-.06-.43-.12-.74v-.74c-.18.62-.55,1.23-.98,1.78-.55.74-1.23,1.29-2.09,1.78-.98.55-1.72.74-2.28.55s-.86-.74-.86-1.66.25-1.78.86-2.64c.55-.8,1.35-1.66,2.46-2.46l2.83-2.15v-.49c0-.8-.18-1.29-.49-1.48-.31-.18-.86-.06-1.54.31-.68.43-1.29.86-1.66,1.48-.43.55-.68,1.17-.68,1.78l-1.41.8c.06-1.05.43-2.03,1.11-3.01.68-.98,1.6-1.78,2.71-2.4,1.17-.68,2.03-.86,2.58-.55s.86,1.05.86,2.28v5.04c-.06.18-.06.49,0,.8Zm-1.48-1.6v-1.66l-2.58,1.97c-.68.49-1.17,1.05-1.54,1.54s-.55.98-.49,1.54c0,.55.18.86.49.92s.8-.06,1.41-.43c.8-.49,1.48-1.05,1.97-1.78.49-.74.74-1.41.74-2.09"/><polygon class="bn" points="537.29 593.58 537.35 602.99 541.78 595.73 543.74 594.56 538.95 602.37 543.99 604.95 541.96 606.12 537.35 603.66 537.35 608.77 535.87 609.57 535.87 594.44 537.29 593.58"/><path class="bn" d="m552.66,591.67c.37.55.55,1.35.55,2.4v.37c0,.12,0,.25-.06.43l-7.26,4.18c.06.92.37,1.6.86,1.97.55.43,1.35.37,2.28-.18.62-.37,1.11-.8,1.54-1.35s.8-1.17.98-1.85l1.35-.8c-.31,1.11-.8,2.15-1.54,3.14-.68.98-1.54,1.72-2.46,2.28-.86.49-1.66.74-2.34.68-.68-.06-1.23-.43-1.6-1.05s-.62-1.41-.62-2.52c0-1.05.18-2.09.55-3.14.37-1.05.92-1.97,1.6-2.83.68-.86,1.48-1.54,2.4-2.03.86-.49,1.6-.74,2.28-.68.61.12,1.11.43,1.48.98Zm-6.77,6.03l5.84-3.38c-.06-.86-.31-1.41-.74-1.72-.49-.37-1.17-.31-2.09.18-.92.55-1.66,1.29-2.21,2.34-.43.86-.74,1.72-.8,2.58"/><path class="bl" d="m245.03,381.63l1.74-58.82c.28-9.59,6.04-15.01,12.86-11.78l43.83,20.09c7.47,3.51,13.45,14.54,13.14,24.87l-1.86,62.57c-.3,10.27-6.65,15.25-14.21,11.16l-43.72-23.79c-6.85-3.75-12.08-14.5-11.79-24.31Z"/><path class="bn" d="m300.58,383.67l-16.82-26.9c-1.51-2.36-3.47-3.39-5.09-2.96l-18.96,4.83c-1.45.34-1.74,3.31-.51,5.33l15.97,26.4c1.5,2.46,3.45,3.65,5.07,3.22l19.8-4.33c1.61-.27,1.9-3.3.53-5.59Z"/><path class="cs" d="m301.3,376.15l-16.83-26.79c-1.51-2.36-3.47-3.39-5.09-2.96l-18.97,4.98c-1.45.34-1.74,3.31-.51,5.33l15.99,26.24c1.52,2.31,3.46,3.49,5.08,3.07l19.82-4.48c1.61-.32,1.91-3.45.51-5.38Z"/><path class="bc" d="m494.5,420.13l-24.15,13.95c-2.89,1.66-5.22-.12-5.22-3.93v-32.21c0-3.81,2.34-8.3,5.22-9.96l24.15-13.95c2.89-1.66,5.22.12,5.22,3.93v32.21c-.06,3.81-2.4,8.3-5.22,9.96Z"/><path class="bn" d="m481.96,409.13c-.86-.12-1.72-.25-2.52-.37-.31-.06-.68-.06-.98-.18-.06,0-.18-.12-.18-.25v-5.35h.25c1.04.18,2.09.31,3.2.49.18,0,.25.12.25.43,0,1.72,0,3.38,0,5.22Z"/><path class="bn" d="m478.28,409.8c.55.06,1.11.18,1.66.25.61.06,1.23.18,1.84.31.06,0,.18.12.18.25v5.41h-.18c-1.11-.18-2.15-.31-3.26-.49-.12,0-.25-.12-.25-.18v-5.53Z"/><path class="bn" d="m482.83,415.4v-5.22c0-.18.06-.43.18-.55,1.11-1.48,2.21-2.95,3.38-4.43l.12-.12v5.22c0,.12-.06.43-.18.55-1.11,1.48-2.21,2.89-3.32,4.3-.06.06-.12.12-.18.25Z"/><path class="bn" d="m482.76,408.57v-5.22c0-.12.06-.43.12-.49,1.11-1.48,2.27-2.95,3.38-4.43q.06-.06.12-.18v.43c0,1.54,0,3.13.06,4.67,0,.31-.06.55-.31.8-1.04,1.35-2.09,2.7-3.07,4.06-.06.12-.12.18-.31.37Z"/><path class="bn" d="m486.51,411.83v5.29c0,.12-.06.37-.12.49-1.11,1.48-2.27,2.95-3.44,4.43,0,.06-.06.06-.12.12v-5.22c0-.18.06-.43.18-.55,1.11-1.48,2.21-2.89,3.32-4.3.06-.06.12-.12.18-.25Z"/><path class="bn" d="m482.03,422.65c-.31-.06-.61-.06-.86-.12-.86-.12-1.72-.25-2.58-.37-.12,0-.25-.06-.25-.18v-5.29h.31c1.04.18,2.09.31,3.2.49.12,0,.25.12.25.31,0,1.66.06,3.26.06,4.92-.12.06-.12.12-.12.25Z"/><path class="bn" d="m474.4,402.37c.43.06.86.12,1.29.18.55.06,1.04.12,1.6.25.12,0,.18.12.18.31v5.35h-.25c-.86-.12-1.72-.25-2.58-.37-.12,0-.25-.12-.25-.25,0-1.84,0-3.63,0-5.47Z"/><path class="bn" d="m487.31,402.67v-5.41c0-.06.06-.25.12-.31.98-1.29,1.97-2.52,2.95-3.87v5.29c0,.12-.06.43-.12.49-.92,1.23-1.84,2.46-2.77,3.63l-.18.18Z"/><path class="bn" d="m474.4,409.19c.49.06.92.12,1.35.18.49.06.98.12,1.48.25.12,0,.18.12.18.25v5.41c-.31-.06-.61-.06-.86-.12-.68-.12-1.29-.18-1.97-.31-.12,0-.18-.12-.18-.25v-5.41Z"/><path class="bn" d="m491.18,411.34v-5.29c0-.18.06-.43.18-.55.86-1.17,1.78-2.34,2.7-3.5.06-.06.06-.12.18-.18v5.29c0,.12-.06.37-.12.49-.98,1.23-1.91,2.46-2.95,3.75Z"/><path class="bn" d="m490.38,406.79v5.22c0,.18-.06.43-.18.55-.92,1.23-1.84,2.4-2.77,3.63,0,.06-.06.06-.12.12v-5.16c0-.31.06-.49.25-.74.92-1.17,1.84-2.4,2.83-3.63Z"/><path class="bn" d="m470.53,401.75c.55.06,1.04.12,1.6.25.43.06.86.12,1.29.18.06,0,.18.06.18.18v5.41h-.25c-.86-.12-1.72-.25-2.58-.37-.12,0-.18-.18-.18-.31-.06-1.72-.06-3.5-.06-5.35Z"/><path class="bn" d="m490.38,400.03v5.29c0,.12-.06.31-.12.43-.92,1.23-1.91,2.46-2.83,3.69,0,0-.06,0-.12.06v-5.22c0-.12.06-.37.12-.49.92-1.23,1.91-2.46,2.83-3.69,0,0,.06,0,.12-.06Z"/><path class="bn" d="m477.48,422.03c-.98-.12-1.97-.31-2.95-.43-.06,0-.12-.12-.12-.25v-5.22l.06-.06c.43.06.8.12,1.23.18.55.06,1.04.12,1.6.25.12,0,.18.12.18.25,0,1.72.06,3.38.06,5.1,0,0-.06.06-.06.18Z"/><path class="bn" d="m478.95,401.81c1.17-1.48,2.21-2.89,3.32-4.24.06-.06.18-.18.25-.12,1.11.12,2.21.25,3.38.43-.8,1.04-1.54,2.03-2.27,3.01l-.18.18c-.31.43-.68,1.04-.98,1.23s-.68-.06-.98-.06c-.92-.18-1.66-.31-2.52-.43Z"/><path class="bn" d="m473.61,421.48c-.86-.12-1.66-.31-2.52-.31-.43,0-.55-.31-.55-.92.06-1.6,0-3.13,0-4.73h.18c.86.12,1.78.25,2.64.43.06,0,.18.12.18.25.06,1.72.06,3.44.06,5.29Z"/><path class="bn" d="m473.61,414.72c-.37-.06-.68-.12-.98-.12-.61-.06-1.17-.18-1.78-.31-.12,0-.18-.12-.18-.25v-5.41c.37.06.68.06.98.12.61.06,1.23.18,1.84.31.06,0,.18.12.18.18-.06,1.78-.06,3.56-.06,5.47Z"/><path class="bn" d="m494.2,388.11v5.41c0,.12-.06.25-.06.31-.92,1.23-1.91,2.52-2.89,3.81v-5.1c0-.31.06-.55.25-.8.86-1.04,1.66-2.15,2.52-3.26,0-.12.06-.18.18-.37Z"/><path class="bn" d="m491.18,404.46v-5.22c0-.25.06-.43.25-.68.92-1.17,1.78-2.34,2.77-3.63v5.22c0,.31-.06.49-.25.74-.86,1.04-1.66,2.15-2.52,3.26-.06.06-.12.18-.25.31Z"/><path class="bn" d="m490.02,392.35c-.43.61-.92,1.23-1.35,1.78-.61.74-1.17,1.54-1.78,2.27-.06.12-.25.25-.31.25-1.11-.12-2.21-.25-3.32-.43.55-.74,1.11-1.41,1.66-2.15.55-.68,1.04-1.35,1.6-2.03.12-.12.25-.25.31-.25,1.04.12,2.15.25,3.2.43q-.06.06,0,.12Z"/><path class="bn" d="m478.95,395.73c.55-.74,1.11-1.41,1.6-2.09.55-.68,1.11-1.41,1.66-2.09.06-.12.25-.18.31-.18,1.11.12,2.15.25,3.26.43-.06.12-.12.25-.18.31-.98,1.29-1.97,2.58-2.95,3.81-.12.12-.25.25-.31.25-1.17-.18-2.27-.31-3.38-.43Z"/><path class="bn" d="m474.71,401.2c.86-1.11,1.72-2.15,2.46-3.26.61-.92,1.11-1.23,1.72-1.04.68.18,1.48.25,2.21.31.06,0,.18,0,.31.06-.68.86-1.29,1.72-1.97,2.52-.43.55-.8,1.04-1.23,1.6-.12.12-.25.25-.31.25-.98-.12-2.03-.31-3.2-.43Z"/><path class="bn" d="m475.08,395.18c.92-1.23,1.84-2.4,2.77-3.69.43-.55.74-.74,1.11-.68.74.12,1.48.18,2.21.31.06,0,.18.06.31.06-.55.68-1.04,1.35-1.54,2.03-.55.68-1.11,1.41-1.66,2.09-.12.12-.25.25-.31.25-.92-.12-1.84-.25-2.77-.37-.06.06-.06,0-.12,0Z"/><path class="bn" d="m483.19,390.2c.98-1.29,1.97-2.52,2.89-3.75.06-.12.18-.18.31-.18,1.04.18,2.09.31,3.13.49,0,0,0,.06.06.06-.61.86-1.29,1.66-1.91,2.52-.31.43-.68.98-.98,1.17-.31.18-.68,0-.98-.06-.86-.06-1.66-.12-2.52-.25Z"/><path class="bn" d="m477.23,396.71c-.86,1.11-1.66,2.09-2.4,3.13-.68.98-1.23,1.29-1.91,1.11-.61-.18-1.29-.25-2.03-.31.86-1.17,1.72-2.21,2.52-3.32.55-.8.98-1.04,1.54-.92.74.18,1.48.18,2.27.31Z"/><path class="bn" d="m493.77,387.43c-.92,1.23-1.84,2.4-2.77,3.56-.06.06-.12.12-.18.12-1.11-.12-2.21-.25-3.32-.43.98-1.23,1.91-2.46,2.83-3.63.06-.12.18-.18.31-.12.98.18,2.03.31,3.13.49Z"/><path class="bn" d="m479.26,389.64c.49-.61.92-1.17,1.35-1.78.49-.68.98-1.29,1.48-1.97.12-.12.25-.31.37-.25.98.12,1.91.31,2.89.43-.06.12-.12.25-.18.31-.86,1.11-1.72,2.27-2.58,3.38-.12.12-.25.25-.37.25-.92-.12-1.84-.25-2.77-.37-.06.06-.12,0-.18,0Z"/><ellipse class="bd" cx="473.11" cy="609.04" rx="13.96" ry="5.1" transform="translate(-265.78 388.12) rotate(-35.51)"/><path class="bc" d="m473.08,625.57c-6.46,3.75-11.75,4.06-11.75.68"/><path class="bc" d="m473.08,636.15c-6.46,3.75-11.75,4.06-11.75.68"/><line class="bc" x1="484.82" y1="608.84" x2="484.82" y2="602.14"/><path class="bc" d="m461.33,615.73v31.18c0,3.38,5.23,3.08,11.75-.68,6.46-3.75,11.75-9.47,11.75-12.85"/><path class="bc" d="m475.29,617.51l1.6,2.15c.37.49,1.11,0,1.48-.86l.98-2.58c.31-.86,1.11-1.35,1.48-.86l1.17,1.48c.37.43,1.11,0,1.41-.86l.98-2.58c.37-.92,1.11-1.35,1.48-.86l.92,1.35c.37.49,1.11.06,1.48-.8l1.05-2.71c.37-.86,1.11-1.29,1.41-.86l1.17,1.48c.37.43,1.11,0,1.41-.86l1.72-4.49"/><path class="bc" d="m475.29,624.34l1.6,2.15c.37.49,1.11,0,1.48-.86l.98-2.58c.31-.86,1.11-1.35,1.48-.86l1.17,1.48c.37.43,1.11,0,1.41-.86l.98-2.58c.37-.92,1.11-1.35,1.48-.86l.92,1.35c.37.49,1.11.06,1.48-.8l1.05-2.71c.37-.86,1.11-1.29,1.41-.86l1.17,1.48c.37.43,1.11,0,1.41-.86l1.72-4.49"/><path class="bc" d="m475.29,631.23l1.6,2.15c.37.49,1.11,0,1.48-.86l.98-2.58c.31-.86,1.11-1.35,1.48-.86l1.17,1.48c.37.43,1.11,0,1.41-.86l.98-2.58c.37-.92,1.11-1.35,1.48-.86l.92,1.35c.37.49,1.11.06,1.48-.8l1.05-2.71c.37-.86,1.11-1.29,1.41-.86l1.17,1.48c.37.43,1.11,0,1.41-.86l1.72-4.49"/><ellipse class="bo" cx="194.37" cy="413.94" rx="5.4" ry="12.15" transform="translate(-227.83 238.24) rotate(-42.25)"/><ellipse class="bo" cx="269.07" cy="460.34" rx="5.4" ry="12.15" transform="translate(-239.62 300.52) rotate(-42.25)"/><polygon class="db" points="182.08 443.03 211.12 459.78 108.21 519.2 79.17 502.45 182.08 443.03"/><polyline class="cz" points="108.21 519.2 108.21 589.97 211.12 530.61 211.12 459.78 108.21 519.2"/><polygon class="cy" points="60.6 634.94 1.24 601.52 1.24 526.16 60.67 559.92 60.6 634.94"/><polygon class="cv" points="60.6 634.94 120.02 599.49 119.75 525.89 60.67 559.92 60.6 634.94"/><polygon class="de" points="60.6 560.53 119.75 525.89 60.6 491.25 1.24 526.16 60.6 560.53"/><polygon class="dg" points="257.1 489.76 286.14 506.51 183.23 565.93 154.19 549.18 257.1 489.76"/><polyline class="da" points="183.23 565.93 183.23 636.7 286.14 577.34 286.14 506.51 183.23 565.93"/><polygon class="df" points="135.62 681.6 76.26 648.18 76.26 572.82 135.69 606.58 135.62 681.6"/><polygon class="dc" points="135.62 681.6 195.04 646.15 195.04 571.74 135.69 606.58 135.62 681.6"/><polygon class="dd" points="135.62 607.12 195.04 571.74 135.62 538.58 75.93 572.68 135.62 607.12"/><ellipse class="bo" cx="344.1" cy="503.01" rx="5.4" ry="12.15" transform="translate(-248.82 362.06) rotate(-42.25)"/><polygon class="cw" points="330.91 531.63 359.94 548.37 257.03 607.8 228 591.05 330.91 531.63"/><polyline class="cx" points="257.03 607.8 257.03 678.56 359.94 619.21 359.94 548.37 257.03 607.8"/><polygon class="cu" points="209.43 723.47 150.07 690.04 150.07 614.68 209.49 648.45 209.43 723.47"/><polygon class="cr" points="209.43 723.47 268.85 688.02 268.85 613.6 209.49 648.45 209.43 723.47"/><polygon class="cq" points="209.49 648.99 268.85 613.6 209.49 580.45 149.8 614.55 209.49 648.99"/><path class="bh" d="m37.77,579.84c-2.5-16.07-7.7-23.03-8.98-26.54-.54-1.55-1.01-3.11-1.42-4.59-.07,1.28-.2,2.03-1.01,2.5-1.69,1.01-8.78,4.59-9.32,20.93-.54,15.19,8.58,30.05,9.79,31.74.95,1.15,2.03,1.22,2.63.95,4.19-1.49,10.2-8.71,8.31-24.98"/><path class="bj" d="m27.65,596.18c-.2,3.71-.41,5.87-.95,7.7,0,0,.41,3.85.68,7.9l.95.54c.2-2.57.54-5.13,1.01-7.5-1.22-1.49-1.62-5.27-1.69-8.64Z"/><path class="bi" d="m29.33,604.83h0c-1.22-1.49-1.62-5.27-1.69-8.64.34-5.33.41-10.8.27-16.41-.07-2.97,0-26.88-.54-30.66.41,1.42.81,2.84,1.35,4.25,1.35,3.51,6.55,10.4,8.98,26.54,1.96,16.14-3.98,23.43-8.37,24.92Z"/><g id="v"><path class="bg" d="m185.52,685.45c.27-2.57.14-2.97,1.69-1.69l.41.27c1.15.74,2.63,1.28,3.51,1.22,1.89-.07,3.04-1.42,1.15-1.96-4.25-1.28-4.59-3.38-4.59-3.38,4.52-6.35,6.42-16.61,4.79-20.33-4.46-10.13-12.15-11.01-12.29-11.01h-.07c-.88-.74-1.82-1.42-2.84-2.03-1.96-1.15-3.38-1.28-4.52-.81,0,0-13.71-15.46-13.1,1.96.14,3.71,3.92,29.64,8.37,25.05,1.62-1.69,3.24-2.97,3.24-2.97.81,1.15,1.76,2.03,2.7,2.5l.07-.07v1.01c-1.15,1.08-.81,1.55-3.11.88-2.36-.68-.95,1.22-.07,2.03,1.08,1.01,3.58,2.97,5.27.74l-.07.34c.47.74.41,3.71.47,5.87s.2,4.25.47,5.6c.34,1.35.74,4.59,3.71,5.47,2.63.81,4.59.88,4.79-8.71"/><path class="bg" d="m179.85,695.92c-.95-.54-1.96-1.49-2.84-3.04-.81-1.49-1.15-3.04-1.35-3.92,0-.14-.07-.27-.07-.34-.41-1.62-.54-3.71-.61-6.28v-2.09c-1.28,0-2.84-.74-4.46-2.23-.47-.41-.88-.95-1.28-1.49-.27-.41-.54-.81-.68-1.15-1.28.68-2.57-.2-3.24-.95-1.22-1.22-2.3-3.38-3.31-6.48-.74-2.23-1.42-4.93-2.03-8.17-1.15-5.54-1.82-11.14-1.89-12.9-.2-5.47.88-8.71,3.24-9.52,1.96-.68,4.59.27,7.9,2.9,1.42,1.08,2.63,2.3,3.38,3.04,1.35-.27,2.97.14,4.73,1.22.95.61,1.89,1.22,2.7,1.89.95.14,2.7.61,4.66,1.82,3.78,2.23,6.89,5.94,8.98,10.8.81,1.82,1.49,5.27.2,11.14-.81,3.65-2.16,7.23-3.92,10.06.47.27,1.08.54,1.89.74.47.14.88.34,1.22.61.74.61,1.35,1.55,1.55,2.57.68,2.97-2.09,3.31-2.97,3.38-1.08.07-2.84-.54-4.25-1.49l-.07-.07-.27-.2v.27c0,.14,0,.27-.07.41-.07,4.86-.61,7.7-1.76,9.18-1.15,1.55-2.77,1.22-4.19.81-.27-.07-.74-.27-1.22-.54Zm-2.77-19.72c.88,1.49,1.01,3.31,1.08,6.62v1.15c0,1.08.14,3.65.41,4.86.07.2.07.34.14.54.34,1.55.47,2.16,1.82,2.57,1.15.34,1.76.41,2.23-.2.68-.95,1.08-3.38,1.15-7.29l1.62.95-1.55-1.15c0-.14,0-.34.07-.47.14-1.49.27-2.7,1.08-2.97.54-.2,1.15.07,1.69.47-.41-.81-.54-1.49-.61-1.82l-.14-.95.41-.54c1.96-2.77,3.58-6.62,4.46-10.6.95-4.46.54-6.82.41-7.23-3.51-8.04-9.66-9.18-10.33-9.25h-.14l-.61-.2-.34-.27c-.74-.68-1.62-1.28-2.57-1.82-1.42-.88-2.57-1.08-3.51-.68l-.74.34-.81-.95c-1.62-1.82-6.48-6.42-8.98-5.54-1.42.54-2.03,2.77-1.89,6.62.07,1.35.74,6.69,1.82,12.09,1.55,7.43,2.84,9.99,3.24,10.4.07,0,.2,0,.47-.27,1.62-1.69,3.24-2.97,3.31-3.04l.95-.74,1.08,1.62c.41.54.81,1.01,1.22,1.28l2.63-1.49-.41,5v.47l.14,1.08-.47.47h0l1.22,1.49.47-.54Z"/><path class="bk" d="m192.21,683.36c-4.25-1.28-4.59-3.38-4.59-3.38,4.52-6.35,6.42-16.61,4.79-20.33-4.46-10.13-12.15-11.01-12.29-11.01h-.07c-.88-.74-1.82-1.42-2.84-2.03-1.96-1.15-3.38-1.28-4.52-.81,0,0-13.71-15.46-13.1,1.96.14,3.71,3.92,29.64,8.37,25.05,1.62-1.69,3.24-2.97,3.24-2.97.81,1.15,1.76,2.03,2.7,2.5l.07-.07v1.01c-1.15,1.08-.81,1.55-3.11.88-2.36-.68-.95,1.22-.07,2.03,1.08,1.01,3.58,2.97,5.27.74l-.07.34c.47.74.74,3.58.74,5.94-.07,2.36-.07,3.98.27,5.54.34,1.49.74,4.59,3.71,5.47,2.57.74,3.85-.41,4.05-3.38.14-2.16.41-1.62.47-3.65l.2-.81c.27-2.84.07-3.98,1.62-2.63l.41.27c1.15.74,2.63,1.28,3.51,1.22,2.03,0,3.11-1.35,1.22-1.89h0Z"/><path class="bn" d="m179.99,694.7c-2.57-1.49-3.38-4.66-3.71-5.94-.47-1.89-.61-7.97-.47-13.24,0-.41.27-.54.54-.41.27.2.54.61.54,1.01-.14,5.81.07,11.21.41,12.63.54,2.16,1.35,4.19,3.71,4.93,2.3.68,3.04.07,3.44-2.63.27-2.09.88-8.1.95-9.32,0-.41.27-.54.54-.34s.54.68.47,1.01c-.07,1.28-.68,7.29-.95,9.45-.47,3.17-1.62,4.12-4.25,3.31-.41-.07-.81-.27-1.22-.47Z"/><path class="bn" d="m166.28,673.77c-.27-.14-.47-.34-.68-.54-1.69-1.69-3.24-6.21-4.66-13.37-1.08-5.47-1.82-10.87-1.89-12.49-.2-4.93.74-7.83,2.77-8.58,1.69-.61,4.12.27,7.09,2.63,2.16,1.76,3.85,3.65,3.92,3.71.27.34.41.81.27,1.08-.14.27-.41.27-.68,0-.07-.07-6.48-7.23-10.06-5.94-1.69.61-2.5,3.17-2.36,7.63.07,1.42.68,6.69,1.82,12.15,1.28,6.35,2.77,10.74,3.98,12.02.2.2.81.81,1.62-.07,1.62-1.69,3.11-2.9,3.17-2.9.2-.14.54,0,.74.41s.2.81,0,1.01c0,0-1.49,1.22-3.11,2.84-.61.81-1.35.74-1.96.41Z"/><path class="bn" d="m187.62,680.59c-.14-.07-.2-.14-.27-.27-.27-.34-.34-.81-.14-1.08,4.52-6.42,6.14-16.34,4.79-19.45-1.69-3.92-4.12-6.89-7.23-8.71-2.3-1.35-4.12-1.62-4.39-1.69h-.07c-.34-.07-.54-.41-.68-.74-.14-.41,0-.74.2-.74.2-.07,2.3.27,4.79,1.76,3.44,2.03,6.28,5.4,8.17,9.79.47,1.08.74,2.57.68,4.39,0,1.62-.27,3.51-.68,5.47-.95,4.25-2.63,8.37-4.79,11.28-.07.07-.2.07-.41,0Z"/><path class="bn" d="m187.89,684.84c-.81-.47-1.49-1.01-1.89-1.62-.47-.61-.54-1.15-.54-1.42-.14-2.77.95-2.7,1.55-2.57-.07-.2-.2-.41-.27-.68-.34-.74-.81-1.82-1.15-3.17-.07-.2-.2-.74-.41-1.35-1.08-3.31-3.38-10.06-1.89-12.09.68-.88,2.03-.68,3.98.74-.27-1.22-.95-3.51-2.16-6.14-1.42-3.04-3.92-7.16-7.83-9.52-1.96-1.22-3.58-1.28-4.86-.41-2.77,2.09-2.63,8.85-2.63,8.91,0,.41-.2.61-.54.41-.27-.14-.54-.61-.54-1.01,0-.27-.14-7.43,2.97-9.79,1.42-1.08,3.31-.95,5.6.41,4.25,2.57,7.02,7.02,8.58,10.33,1.69,3.58,2.5,6.96,2.57,7.97.07.81-.41.68-.47.68l-.2-.14c-2.43-1.89-3.38-1.76-3.71-1.28-1.08,1.49,1.08,7.83,1.96,10.6.27.68.41,1.22.47,1.49.27,1.15.68,2.03,1.01,2.77.27.61.54,1.15.61,1.69.07.14.61,1.55,3.98,2.57.88.27,1.42.81,1.55,1.55.34,1.49-1.42,1.89-2.36,1.96-.81.27-2.23-.14-3.38-.88Zm-1.42-2.5c.14.2.68.74,1.76,1.28.95.47,2.03.81,2.63.81.74,0,1.22-.2,1.49-.41h0c-2.16-.68-3.71-1.62-4.59-2.9-.07-.07-.14-.14-.14-.2-.07,0-.14,0-.2-.07-.54-.14-1.01-.2-.95,1.49Z"/><path class="bn" d="m172.42,677.96c-.54-.34-1.08-.74-1.69-1.28-.14-.14-1.62-1.55-1.62-2.77,0-1.15,1.28-.74,1.69-.61,1.62.47,1.76.41,2.23-.2.14-.14.34-.41.61-.61.88-.74,1.62.14,1.96.54.54.61,1.01,1.55,1.15,2.57.14.88.07,1.55-.2,1.96-.95,1.28-2.43,1.42-4.12.41Zm-2.16-3.31c.14.2.41.54.68.81,1.42,1.28,3.38,2.43,4.73.74.14-.2.14-.61.07-.88-.07-.47-.34-1.01-.54-1.28-.27-.34-.47-.47-.81-.2h0c-.2.2-.41.41-.54.54-.68.74-.95.95-2.84.34-.34-.07-.61-.07-.74-.07Zm3.78-1.49h0Z"/><path class="bn" d="m173.98,673.84c-.27-.14-.47-.54-.54-.88v-.27c-1.22-.74-2.43-2.16-3.38-3.98-1.15-2.3-1.69-4.86-1.49-7.02.27-2.3.14-4.52.14-5.74v-.74c0-.2,0-.81,1.42-.95.47-.07,1.49-.07,2.57.41,1.82.81,2.97,2.57,3.31,4.93.95,6.42.07,8.51-.54,9.99-.14.27-.2.54-.34.81l-.07.27c-.34,1.01-.61,1.89-.54,2.7.07.41-.14.68-.47.54,0-.07-.07-.07-.07-.07Zm-4.19-17.89v.47c.07,1.28.14,3.58-.14,6.01-.2,1.76.2,3.78,1.15,5.67.74,1.49,1.69,2.57,2.7,3.17.14-.54.27-1.15.47-1.69l.07-.2c.14-.34.2-.61.34-.88.61-1.49,1.35-3.24.47-9.18-.2-1.15-.61-1.96-1.22-2.57-1.35-1.35-3.44-1.08-3.85-.81Z"/><path class="bn" d="m172.69,657.36c0,.2.34,1.01.74,1.35.47.34.81.07.88-.14,0-.2-.34-.68-.74-1.01-.47-.34-.88-.41-.88-.2h0Z"/><path class="bn" d="m173.57,659.05c-.07,0-.07-.07-.14-.07-.27-.2-.54-.61-.74-1.08-.07-.14-.2-.47-.14-.68,0-.07.07-.2.14-.2.2-.07.54.07.88.34.27.2.47.41.61.61.27.41.34.61.27.74,0,.2-.2.34-.34.41-.14.07-.34,0-.54-.07Zm-.68-1.55c0,.2.27.74.61,1.01s.61.07.68-.07c-.07-.07-.27-.41-.61-.68-.41-.27-.68-.27-.68-.27Z"/><path class="bn" d="m186.27,664.72c0,.27-.34.68-.74.47-.47-.2-.81-.88-.88-1.15,0-.27.34-.27.74-.14.47.2.81.54.88.81h0Z"/><path class="bn" d="m185.39,665.26c-.47-.27-.81-.95-.81-1.22-.07-.41.41-.41.81-.2.47.2.95.54.95.95h0c0,.14-.07.34-.2.47-.14.07-.34.2-.61.07-.07,0-.14-.07-.14-.07Zm.27-1.08c-.07-.07-.14-.07-.27-.14-.47-.2-.68-.07-.68.07s.34.81.74.95c.27.07.41,0,.47-.07.14-.14.2-.27.2-.34s-.14-.27-.47-.47Z"/><path class="bn" d="m186.87,678.43c-.14-.07-.2-.14-.27-.27-.27-.34-.34-.81-.14-1.08,1.01-1.49.88-3.71.68-5.81-.07-.95-.14-1.89-.14-2.7,0-.88.14-1.55.2-2.23.07-.81.2-1.55.14-2.5,0-.41.2-.61.47-.47s.54.61.54,1.01c.07,1.08-.07,1.96-.14,2.77-.07.61-.14,1.28-.2,2.09,0,.74.07,1.62.14,2.5.2,2.3.41,4.93-.81,6.69-.14.07-.27.07-.47,0Z"/></g><path class="bm" d="m99.09,606.38c1.15-.95,2.77-1.01,4.59,0,2.36,1.35,4.46,4.39,5.6,7.63.95,0,2.03.27,3.17.95,4.32,2.5,7.83,9.25,7.83,15.06s-3.51,8.51-7.83,6.01c-.54-.27-1.01-.68-1.55-1.08-1.01,1.76-2.84,2.3-5,1.01-.88-.54-1.76-1.28-2.5-2.23-1.01,2.57-3.31,3.38-6.01,1.82-2.84-1.62-5.2-5.4-6.14-9.25-.41-.14-.81-.27-1.22-.54-3.38-1.96-6.08-7.16-6.08-11.68,0-3.04,1.22-4.93,3.04-5.33-.41-1.35-.61-2.77-.61-4.05,0-5.2,3.17-7.56,7.02-5.33,2.36,1.42,4.39,4.05,5.67,7.02"/><path class="bn" d="m89.23,614.55v.14c.07.14.14.2.2.27.34.47.74.74,1.08.95.74.41,1.22.14,1.22-.68h0c0-.81-.54-1.35-1.01-1.89l-.07-.07c-.34-.41-.68-.68-.68-1.01h0c0-.27.2-.41.47-.2.34.2.68.54.95.88,0,0,.07.14.07,0,0-.07.14-.41.14-.47s0-.07-.07-.14c-.27-.41-.68-.74-1.08-1.01l-.07-.07c-.68-.41-1.15-.14-1.15.68h0c0,.81.54,1.42,1.01,1.89l.07.07c.34.34.68.68.68,1.01h0c0,.34-.2.41-.54.2-.14-.07-.54-.34-.95-.95-.07-.07-.07-.14-.14-.2,0,0-.07-.07-.07,0l-.07.61h0Zm10.87,6.35v.14c.07.14.14.2.2.27.34.47.74.74,1.08.95.74.41,1.22.14,1.22-.68h0c0-.81-.54-1.35-1.01-1.89l-.07-.07c-.34-.41-.68-.68-.68-1.01h0c0-.27.2-.41.47-.2.34.2.68.54.95.88,0,0,.07.14.07,0,0-.07.14-.41.14-.47s0-.07-.07-.14c-.27-.41-.68-.74-1.08-1.01l-.07-.07c-.68-.41-1.15-.14-1.15.68h0c0,.81.54,1.42,1.01,1.89l.07.07c.34.34.68.68.68,1.01h0c0,.34-.2.41-.54.2-.14-.07-.54-.34-.95-.95-.07-.07-.07-.14-.14-.2,0,0-.07-.07-.07,0l-.07.61h0Zm7.5,2.63c0,.47-.07.81-.2,1.01s-.34.2-.61.07-.47-.41-.61-.74-.2-.74-.2-1.22.07-.81.2-1.01c.14-.2.34-.2.61-.07s.47.41.61.74c.14.27.2.74.2,1.22m.61-.54c-.07-.34-.14-.61-.27-.88s-.27-.54-.47-.74c-.2-.2-.41-.41-.68-.54s-.47-.2-.68-.2-.34.07-.47.2-.2.34-.27.54c-.07.27-.07.54-.07.81,0,.34,0,.61.07.95s.14.61.27.88.27.54.47.74.41.41.68.54.47.2.68.2.34-.07.47-.2.2-.34.27-.54c.07-.27.07-.54.07-.81,0-.34,0-.68-.07-.95m5.06,5.2c0-.07-.07-.07-.07-.07-.07,0-.2,0-.27-.07-.14-.07-.2-.07-.34-.14-.27-.2-.54-.41-.74-.74-.2-.34-.27-.74-.27-1.28,0-.47.07-.74.27-.95.14-.2.41-.2.68,0,.27.14.47.27.68.47,0,0,.07.07.07,0,.07-.2.07-.27.14-.47,0-.07,0-.14-.07-.14-.07-.07-.27-.27-.41-.41-.14-.14-.27-.2-.47-.34-.27-.14-.47-.2-.68-.2s-.34.07-.47.2-.2.34-.27.54-.14.54-.14.81c0,.68.14,1.35.41,1.89s.68,1.01,1.22,1.35c.34.2.68.27.88.27,0,0,.07,0,0-.07l-.14-.68h0Zm1.15-1.22c0-.27.07-.47.2-.54.14-.2.34-.2.61-.07s.47.41.61.74c.07.2.14.47.14.74l-1.55-.88h0Zm2.09.61c-.07-.27-.2-.61-.27-.81-.14-.27-.27-.47-.41-.61-.2-.2-.41-.41-.61-.54-.27-.14-.47-.2-.68-.2s-.34.07-.47.2-.2.34-.27.54c-.07.27-.07.54-.07.81,0,.34,0,.68.07.95.07.34.14.61.34.88.14.27.34.54.54.74s.47.41.74.61c.61.34.95.34,1.08.34,0,0,.07,0,0-.14l-.14-.61c0-.07-.07-.07-.07-.07-.14,0-.34,0-.88-.27-.34-.2-.54-.47-.74-.74-.14-.27-.2-.61-.27-1.08l2.09,1.22s.07,0,.07-.07c0,.07.07-.41-.07-1.15m-18.97-10.33c0-.27.07-.47.2-.54.14-.2.34-.2.61-.07s.47.41.61.74c.07.2.14.47.14.74l-1.55-.88Zm2.09.61c-.07-.27-.2-.61-.27-.81-.14-.27-.27-.47-.41-.61-.2-.2-.41-.41-.61-.54-.27-.14-.47-.2-.68-.2s-.34.07-.47.2-.2.34-.27.54c-.07.27-.07.54-.07.81,0,.34,0,.68.07.95.07.34.14.61.34.88.14.27.34.54.54.74s.47.41.74.61c.61.34.95.34,1.08.34,0,0,.07,0,0-.14l-.14-.61c0-.07-.07-.07-.07-.07-.14,0-.34,0-.88-.27-.34-.2-.54-.47-.74-.74-.14-.27-.2-.61-.27-1.08l2.09,1.22s.07,0,.07-.07c0,.07.07-.41-.07-1.15m-6.62-1.42l-.14-.27c-.07-.14-.07-.27-.07-.41,0-.27.07-.41.2-.41,0,0,.2-.14.61.14l.54.41v1.28h0s-.27-.07-.54-.2c-.47-.2-.61-.54-.61-.54m.81-1.49c-.07-.07-.2-.14-.34-.2-.2-.14-.34-.2-.54-.2-.14-.07-.34,0-.47,0-.14.07-.2.14-.34.27-.07.14-.14.34-.14.61s0,.47.07.68.14.41.27.61c.14.2.27.34.41.47s.34.27.54.41c.2.14.41.2.61.27.2.07.47.14.54.2q.07,0,.14.07c.07,0,.07-.07.07-.07v-2.57c0-.54-.14-1.01-.34-1.42s-.54-.68-.95-.95c-.14-.07-.41-.2-.54-.27,0,0-.47-.14-.68-.07,0,0-.07,0,0,.07l.14.61c0,.07.07.07.07.07h.07c.41-.07.95.27.95.27.2.14.41.27.54.47s.2.41.2.74v.14c-.14-.07-.27-.2-.27-.2m16.95,8.37v-.14c-.07-.07-.2-.2-.34-.27-.27-.2-.41-.2-.54-.2s-.27.07-.34.14v-.34q0-.07-.07-.14l-.54-.34q-.07,0-.07.07v4.19c0,.07,0,.14.07.14l.54.34q.07,0,.07-.07v-2.09c0-.27,0-.54.07-.68s.14-.27.2-.34c.07-.07.14-.07.27-.07.07,0,.2.07.27.14.14.07.2.2.2.2h.07c.07-.14.14-.47.14-.54"/><path class="bn" d="m105.64,618.4c-.07-.07-.14-.14-.2-.2s-.2-.14-.27-.2c-.41-.2-.68-.27-.88-.07-.2.14-.34.54-.41,1.01v.2l-.47-.27s-.07-.07-.07.07l-.07.54q0,.07.07.14l.47.27-.47,3.24c-.07.27-.07.47-.14.61s-.07.27-.14.34-.14.07-.2.07-.14-.07-.27-.07c-.07,0-.14-.07-.14-.14q-.07-.07-.14-.14s-.07-.07-.07,0-.14.41-.14.47v.14c.07.07.14.14.2.2.14.14.2.14.34.2.2.14.34.2.54.2.14,0,.27-.07.41-.14.14-.14.2-.27.27-.47s.14-.47.2-.81l.47-3.31.68.41s.07.07.07-.07l.07-.54q0-.07-.07-.14l-.68-.41s.07-.34.14-.54c0-.14.07-.2.14-.2.07-.07.14-.07.2-.07s.14.07.2.07c.07.07.14.07.2.14q.07.07.14.07t.07,0l.14-.47c-.2-.07-.2-.14-.2-.14m-9.45.61q0,.07,0,0l-.61-.27c-.07,0-.07-.07-.07-.14v-6.01q0-.07.07-.07l.54.34c.07,0,.07.07.07.14v6.01Z"/><g id="w"><g class="bf"><polygon class="cp" points="59.59 553.64 119.9 519.79 59.95 485.43 0 519.64 59.59 553.64"/><polygon class="cn" points="59.59 543.6 119.9 509.76 59.95 475.4 0 509.61 59.59 543.6"/><polygon class="co" points="61.04 559.96 120.99 524.84 61.04 489.72 .87 525.1 61.04 559.96"/><polygon class="br" points="59.95 536.95 0 502.37 59.88 467.8 119.9 502.37 59.95 536.95"/><polygon class="bv" points="119.9 502.37 119.9 519.79 59.95 554.22 59.95 536.95 119.9 502.37"/><polygon class="cb" points="59.95 536.95 0 502.37 0 519.64 59.95 554.22 59.95 536.95"/></g></g><g id="ad"><g class="bf"><polygon class="bu" points="134.14 601.57 194.45 567.72 134.5 533.36 74.55 567.57 134.14 601.57"/><polygon class="bt" points="134.14 591.53 194.45 557.68 134.5 523.33 74.55 557.54 134.14 591.53"/><polygon class="bq" points="135.59 607.89 195.54 572.77 135.59 537.65 75.42 573.03 135.59 607.89"/><polygon class="bp" points="134.5 584.88 74.55 550.3 134.43 515.73 194.45 550.3 134.5 584.88"/><polygon class="by" points="194.45 550.3 194.45 567.72 134.5 602.15 134.5 584.88 194.45 550.3"/><polygon class="bw" points="134.5 584.88 74.55 550.3 74.55 567.57 134.5 602.15 134.5 584.88"/></g></g><g id="ak"><g class="bf"><polygon class="ch" points="390.5 336.91 627.24 204.06 391.93 69.2 156.62 203.48 390.5 336.91"/><polygon class="ca" points="390.5 297.52 627.24 164.67 391.93 29.83 156.62 164.1 390.5 297.52"/><polygon class="bz" points="396.21 361.73 631.52 223.89 396.21 86.04 160.05 224.89 396.21 361.73"/><polygon class="bs" points="391.93 271.41 156.62 135.7 391.64 0 627.24 135.7 391.93 271.41"/><polygon class="bx" points="627.24 135.7 627.24 204.06 391.93 339.19 391.93 271.41 627.24 135.7"/><polygon class="cf" points="391.93 271.41 156.62 135.7 156.62 203.48 391.93 339.19 391.93 271.41"/></g></g><g id="ar"><g class="bf"><polygon class="cd" points="208.59 641.9 268.9 608.06 208.95 573.7 149 607.91 208.59 641.9"/><polygon class="cc" points="208.59 631.87 268.9 598.02 208.95 563.67 149 597.88 208.59 631.87"/><polygon class="ci" points="210.04 648.23 269.99 613.11 210.04 577.99 149.87 613.36 210.04 648.23"/><polygon class="cj" points="208.95 625.22 149 590.64 208.88 556.07 268.9 590.64 208.95 625.22"/><polygon class="ce" points="268.9 590.64 268.9 608.06 208.95 642.48 208.95 625.22 268.9 590.64"/><polygon class="cg" points="208.95 625.22 149 590.64 149 607.91 208.95 642.48 208.95 625.22"/></g></g></g><g id="ay"><line class="be" x1="194.57" y1="420.75" x2="194.57" y2="422.1"/><path class="bn" d="m194.91,446.88h-.68v-2.5h.68v2.5Zm0-5h-.68v-2.43h.68v2.43Zm0-4.93h-.68v-2.5h.68v2.5Zm0-5h-.68v-2.5h.68v2.5Zm0-4.93h-.68v-2.5h.68v2.5Z"/><polygon class="bn" points="193.56 451.67 193.22 451.07 194.23 450.53 194.23 449.31 194.91 449.31 194.91 450.86 193.56 451.67"/><path class="bn" d="m89.3,511.03l-.34-.61,1.28-.74.34.61-1.28.74Zm3.58-2.09l-.34-.61,2.3-1.28.34.61-2.3,1.28Zm4.59-2.57l-.34-.61,2.3-1.28.34.61-2.3,1.28Zm4.59-2.63l-.34-.61,2.3-1.28.34.61-2.3,1.28Zm4.59-2.57l-.34-.61,2.3-1.28.34.61-2.3,1.28Zm4.52-2.63l-.34-.61,2.3-1.28.34.61-2.3,1.28Zm4.59-2.63l-.34-.61,2.3-1.28.34.61-2.3,1.28Zm4.59-2.57l-.34-.61,2.3-1.28.34.61-2.3,1.28Zm4.59-2.63l-.34-.61,2.3-1.28.34.61-2.3,1.28Zm4.52-2.57l-.34-.61,2.3-1.28.34.61-2.3,1.28Zm4.59-2.63l-.34-.61,2.3-1.28.34.61-2.3,1.28Zm4.59-2.57l-.34-.61,2.3-1.28.34.61-2.3,1.28Zm4.59-2.63l-.34-.61,2.3-1.28.34.61-2.3,1.28Zm4.52-2.63l-.34-.61,2.3-1.28.34.61-2.3,1.28Zm4.59-2.57l-.34-.61,2.3-1.28.34.61-2.3,1.28Zm4.59-2.63l-.34-.61,2.3-1.28.34.61-2.3,1.28Zm4.59-2.57l-.34-.61,2.3-1.28.34.61-2.3,1.28Zm4.52-2.63l-.34-.61,2.3-1.28.34.61-2.3,1.28Zm4.59-2.63l-.34-.61,2.3-1.28.34.61-2.3,1.28Zm4.59-2.57l-.34-.61,2.3-1.28.34.61-2.3,1.28Zm4.59-2.63l-.34-.61,2.3-1.28.34.61-2.3,1.28Zm4.59-2.57l-.34-.61,2.3-1.28.34.61-2.3,1.28Zm4.52-2.63l-.34-.61,2.3-1.28.34.61-2.3,1.28Z"/><line class="be" x1="108.75" y1="499.55" x2="107.6" y2="500.23"/></g><g id="az"><line class="be" x1="269.59" y1="467.48" x2="269.59" y2="468.83"/><path class="bn" d="m269.93,493.54h-.68v-2.5h.68v2.5Zm0-4.93h-.68v-2.5h.68v2.5Zm0-5h-.68v-2.5h.68v2.5Zm0-4.93h-.68v-2.5h.68v2.5Zm0-4.93h-.68v-2.5h.68v2.5Z"/><polygon class="bn" points="268.65 498.34 268.31 497.8 269.26 497.19 269.26 496.04 269.93 496.04 269.93 497.59 268.65 498.34"/><path class="bn" d="m172.49,553.03l-.34-.61,2.3-1.28.34.61-2.3,1.28Zm4.59-2.57l-.34-.61,2.3-1.28.34.61-2.3,1.28Zm4.59-2.63l-.34-.61,2.3-1.28.34.61-2.3,1.28Zm4.59-2.57l-.34-.61,2.3-1.28.34.61-2.3,1.28Zm4.59-2.63l-.34-.61,2.3-1.28.34.61-2.3,1.28Zm4.52-2.63l-.34-.61,2.3-1.28.34.61-2.3,1.28Zm4.59-2.57l-.34-.61,2.3-1.28.34.61-2.3,1.28Zm4.59-2.63l-.34-.61,2.3-1.28.34.61-2.3,1.28Zm4.59-2.57l-.34-.61,2.3-1.28.34.61-2.3,1.28Zm4.52-2.63l-.34-.61,2.3-1.28.34.61-2.3,1.28Zm4.59-2.63l-.34-.61,2.3-1.28.34.61-2.3,1.28Zm4.59-2.57l-.34-.61,2.3-1.28.34.61-2.3,1.28Zm4.59-2.63l-.34-.61,2.3-1.28.34.61-2.3,1.28Zm4.52-2.57l-.34-.61,2.3-1.28.34.61-2.3,1.28Zm4.59-2.63l-.34-.61,2.3-1.28.34.61-2.3,1.28Zm4.59-2.57l-.34-.61,2.3-1.28.34.61-2.3,1.28Zm4.59-2.63l-.34-.61,2.3-1.28.34.61-2.3,1.28Zm4.59-2.63l-.34-.61,2.3-1.28.34.61-2.3,1.28Zm4.52-2.57l-.34-.61,2.3-1.28.34.61-2.3,1.28Zm4.59-2.63l-.34-.61,2.3-1.28.34.61-2.3,1.28Zm4.59-2.57l-.34-.61,2.3-1.28.34.61-2.3,1.28Z"/><line class="be" x1="183.77" y1="546.28" x2="182.62" y2="546.95"/></g><g id="ba"><line class="be" x1="343.4" y1="509.34" x2="343.4" y2="510.69"/><path class="bn" d="m343.74,535.48h-.68v-2.5h.68v2.5Zm0-5h-.68v-2.5h.68v2.5Zm0-4.93h-.68v-2.5h.68v2.5Zm0-5h-.68v-2.5h.68v2.5Zm0-4.93h-.68v-2.5h.68v2.5Z"/><polygon class="bn" points="342.45 540.27 342.12 539.66 343.06 539.05 343.06 537.91 343.74 537.91 343.74 539.46 342.45 540.27"/><path class="bn" d="m243.66,596.45l-.34-.61.41-.2.34.61-.41.2Zm2.63-1.49l-.34-.61,2.3-1.28.34.61-2.3,1.28Zm4.59-2.63l-.34-.61,2.3-1.28.34.61-2.3,1.28Zm4.59-2.57l-.34-.61,2.3-1.28.34.61-2.3,1.28Zm4.59-2.63l-.34-.61,2.3-1.28.34.61-2.3,1.28Zm4.59-2.63l-.34-.61,2.3-1.28.34.61-2.3,1.28Zm4.52-2.57l-.34-.61,2.3-1.28.34.61-2.3,1.28Zm4.59-2.63l-.34-.61,2.3-1.28.34.61-2.3,1.28Zm4.59-2.57l-.34-.61,2.3-1.28.34.61-2.3,1.28Zm4.59-2.63l-.34-.61,2.3-1.28.34.61-2.3,1.28Zm4.52-2.63l-.34-.61,2.3-1.28.34.61-2.3,1.28Zm4.59-2.57l-.34-.61,2.3-1.28.34.61-2.3,1.28Zm4.59-2.63l-.34-.61,2.3-1.28.34.61-2.3,1.28Zm4.59-2.57l-.34-.61,2.3-1.28.34.61-2.3,1.28Zm4.52-2.63l-.34-.61,2.3-1.28.34.61-2.3,1.28Zm4.59-2.63l-.34-.61,2.3-1.28.34.61-2.3,1.28Zm4.59-2.57l-.34-.61,2.3-1.28.34.61-2.3,1.28Zm4.59-2.63l-.34-.61,2.3-1.28.34.61-2.3,1.28Zm4.59-2.57l-.34-.61,2.3-1.28.34.61-2.3,1.28Zm4.52-2.63l-.34-.61,2.3-1.28.34.61-2.3,1.28Zm4.59-2.57l-.34-.61,2.3-1.28.34.61-2.3,1.28Zm4.59-2.63l-.34-.61,2.3-1.28.34.61-2.3,1.28Z"/><line class="be" x1="257.57" y1="588.15" x2="256.43" y2="588.82"/></g></svg>