<?xml version="1.0" encoding="UTF-8"?>
<svg xmlns="http://www.w3.org/2000/svg" xmlns:xlink="http://www.w3.org/1999/xlink" viewBox="0 0 743.84 611.62">
  <defs>
    <style>
      .cls-1, .cls-2, .cls-3, .cls-4, .cls-5, .cls-6, .cls-7, .cls-8, .cls-9, .cls-10, .cls-11 {
        fill: none;
      }

      .cls-2 {
        opacity: .32;
      }

      .cls-3 {
        opacity: .31;
      }

      .cls-4 {
        opacity: .4;
      }

      .cls-5 {
        opacity: .69;
      }

      .cls-12 {
        font-family: Montserrat-Bold, Montserrat;
        font-size: 12px;
        font-weight: 700;
      }

      .cls-12, .cls-13, .cls-14, .cls-15 {
        fill: #fff;
      }

      .cls-6 {
        opacity: .62;
      }

      .cls-7 {
        opacity: .59;
      }

      .cls-8 {
        opacity: .8;
      }

      .cls-9 {
        opacity: .75;
      }

      .cls-10 {
        opacity: .72;
      }

      .cls-16 {
        letter-spacing: 0em;
      }

      .cls-17 {
        letter-spacing: -.01em;
      }

      .cls-18 {
        fill: #e9e9e9;
      }

      .cls-18, .cls-13 {
        font-family: InstrumentSans-Regular, 'Instrument Sans';
        font-size: 11.88px;
        font-variation-settings: 'wdth' 100, 'wght' 400;
      }

      .cls-19 {
        fill: url(#linear-gradient-8);
      }

      .cls-19, .cls-20 {
        opacity: .05;
      }

      .cls-20 {
        fill: url(#linear-gradient-9);
      }

      .cls-21 {
        fill: url(#linear-gradient);
      }

      .cls-11 {
        isolation: isolate;
      }

      .cls-22 {
        fill: #fefefe;
      }

      .cls-23 {
        fill: #b8c4c2;
      }

      .cls-24 {
        fill: #12924f;
      }

      .cls-25 {
        fill: #10aa50;
      }

      .cls-26 {
        fill: #1f5b98;
      }

      .cls-27 {
        fill: #1a476f;
      }

      .cls-28 {
        fill: #5294cf;
      }

      .cls-29 {
        fill: #3b2c56;
      }

      .cls-30 {
        fill: #2d72b8;
      }

      .cls-31 {
        fill: #4cd0e5;
      }

      .cls-32 {
        letter-spacing: -.02em;
      }

      .cls-33 {
        letter-spacing: 0em;
      }

      .cls-34 {
        fill: url(#Degradado_sin_nombre_5-3);
      }

      .cls-35 {
        fill: url(#Degradado_sin_nombre_5-2);
      }

      .cls-36 {
        fill: url(#Degradado_sin_nombre_5-4);
      }

      .cls-37 {
        letter-spacing: -.01em;
      }

      .cls-15 {
        opacity: .2;
      }

      .cls-38 {
        letter-spacing: -.02em;
      }

      .cls-39 {
        letter-spacing: 0em;
      }

      .cls-40 {
        letter-spacing: -.01em;
      }

      .cls-41 {
        letter-spacing: 0em;
      }

      .cls-42 {
        fill: url(#linear-gradient-2);
      }

      .cls-42, .cls-43 {
        opacity: .13;
      }

      .cls-43 {
        fill: url(#linear-gradient-3);
      }

      .cls-44 {
        fill: url(#linear-gradient-6);
      }

      .cls-44, .cls-45 {
        opacity: .16;
      }

      .cls-45 {
        fill: url(#linear-gradient-7);
      }

      .cls-46 {
        fill: url(#Degradado_sin_nombre_49);
      }

      .cls-47 {
        letter-spacing: .02em;
      }

      .cls-48 {
        fill: url(#Degradado_sin_nombre_5);
      }

      .cls-49 {
        letter-spacing: 0em;
      }

      .cls-50 {
        fill: url(#linear-gradient-14);
      }

      .cls-51 {
        fill: url(#linear-gradient-18);
      }

      .cls-52 {
        fill: url(#linear-gradient-20);
      }

      .cls-53 {
        fill: url(#linear-gradient-15);
      }

      .cls-54 {
        fill: url(#linear-gradient-19);
      }

      .cls-55 {
        fill: url(#linear-gradient-16);
      }

      .cls-56 {
        fill: url(#linear-gradient-17);
      }

      .cls-57 {
        fill: url(#linear-gradient-13);
      }

      .cls-58 {
        fill: url(#linear-gradient-12);
      }

      .cls-59 {
        fill: url(#linear-gradient-10);
      }

      .cls-60 {
        fill: url(#linear-gradient-11);
      }

      .cls-61 {
        fill: url(#Degradado_sin_nombre_4);
        mix-blend-mode: hard-light;
      }

      .cls-62 {
        fill: url(#Degradado_sin_nombre_49-2);
      }

      .cls-63 {
        fill: url(#linear-gradient-4);
      }

      .cls-63, .cls-64 {
        opacity: .36;
      }

      .cls-64 {
        fill: url(#linear-gradient-5);
      }

      .cls-65 {
        letter-spacing: -.04em;
      }

      .bb{
  animation: up-down linear infinite 20s;
  animation-iteration-count: infinite;
  transform-origin: 50% 50%;
  -webkit-animation: up-down linear 4s;
  -webkit-animation-iteration-count: infinite;
  -webkit-transform-origin: 50% 50%;
  -moz-animation: up-down linear 4s;
  -moz-animation-iteration-count: infinite;
  -moz-transform-origin: 50% 50%;
  -o-animation: up-down linear 4s;
  -o-animation-iteration-count: infinite;
  -o-transform-origin: 50% 50%;
  -ms-animation: up-down linear 4s;
  -ms-animation-iteration-count: infinite;
  -ms-transform-origin: 50% 50%;
}

@keyframes up-down{
  0% {
    transform:  translate(1px,0px)  ;
  }
  24% {
    transform:  translate(1px,-10px)  ;
  }
  50% {
    transform:  translate(1px,0px)  ;
  }
  74% {
    transform:  translate(1px,-10px)  ;
  }
  100% {
    transform:  translate(1px,0px)  ;
  }
}
    </style>
    <linearGradient id="linear-gradient" x1="234.11" y1="142.04" x2="207.69" y2="444.57" gradientUnits="userSpaceOnUse">
      <stop offset="0" stop-color="#4057a7"/>
      <stop offset=".09" stop-color="#39529b" stop-opacity=".9"/>
      <stop offset=".72" stop-color="#133454" stop-opacity=".26"/>
      <stop offset="1" stop-color="#042838" stop-opacity="0"/>
    </linearGradient>
    <linearGradient id="linear-gradient-2" x1="509.04" y1="99.5" x2="970.15" y2="224.35" gradientUnits="userSpaceOnUse">
      <stop offset="0" stop-color="#4057a7"/>
      <stop offset=".59" stop-color="#1b3a62"/>
      <stop offset="1" stop-color="#042838"/>
    </linearGradient>
    <linearGradient id="linear-gradient-3" x1="374.93" y1="140.45" x2="659.15" y2="55.58" xlink:href="#linear-gradient-2"/>
    <linearGradient id="linear-gradient-4" x1="421.82" y1="483.04" x2="660" y2="399.04" gradientUnits="userSpaceOnUse">
      <stop offset=".02" stop-color="#2666c4"/>
      <stop offset="1" stop-color="#203567" stop-opacity="0"/>
    </linearGradient>
    <linearGradient id="linear-gradient-5" x1="541.51" y1="469.82" x2="333.44" y2="403.43" xlink:href="#linear-gradient-4"/>
    <linearGradient id="linear-gradient-6" y1="528.04" y2="444.04" xlink:href="#linear-gradient-4"/>
    <linearGradient id="linear-gradient-7" x1="541.51" y1="514.82" x2="333.44" y2="448.43" xlink:href="#linear-gradient-4"/>
    <linearGradient id="linear-gradient-8" x1="421.82" y1="573.04" x2="660" y2="489.04" xlink:href="#linear-gradient-4"/>
    <linearGradient id="linear-gradient-9" x1="541.51" y1="559.82" x2="333.44" y2="493.43" xlink:href="#linear-gradient-4"/>
    <linearGradient id="linear-gradient-10" x1="677.42" y1="53.47" x2="76.57" y2="321.72" xlink:href="#linear-gradient"/>
    <linearGradient id="linear-gradient-11" x1="146.03" y1="313.44" x2="127.59" y2="320.7" xlink:href="#linear-gradient"/>
    <linearGradient id="Degradado_sin_nombre_5" data-name="Degradado sin nombre 5" x1="360.59" y1="124.83" x2="632.05" y2="124.83" gradientUnits="userSpaceOnUse">
      <stop offset="0" stop-color="#3a2aa4"/>
      <stop offset=".22" stop-color="#5c32b6"/>
      <stop offset=".57" stop-color="#7533b4"/>
      <stop offset="1" stop-color="#81d9bf"/>
    </linearGradient>
    <linearGradient id="Degradado_sin_nombre_5-2" data-name="Degradado sin nombre 5" x1="365.06" y1="109.94" x2="619.58" y2="109.94" xlink:href="#Degradado_sin_nombre_5"/>
    <linearGradient id="Degradado_sin_nombre_5-3" data-name="Degradado sin nombre 5" x1="365.06" y1="88.58" x2="619.58" y2="88.58" xlink:href="#Degradado_sin_nombre_5"/>
    <linearGradient id="Degradado_sin_nombre_5-4" data-name="Degradado sin nombre 5" x1="365.06" y1="120.62" x2="619.58" y2="120.62" xlink:href="#Degradado_sin_nombre_5"/>
    <linearGradient id="Degradado_sin_nombre_4" data-name="Degradado sin nombre 4" x1="338.5" y1="273.57" x2="594.83" y2="-59.98" gradientUnits="userSpaceOnUse">
      <stop offset="0" stop-color="#fff" stop-opacity="0"/>
      <stop offset="1" stop-color="#f6f6f6"/>
    </linearGradient>
    <linearGradient id="Degradado_sin_nombre_49" data-name="Degradado sin nombre 49" x1="414.84" y1="155.59" x2="442.61" y2="101.3" gradientUnits="userSpaceOnUse">
      <stop offset=".2" stop-color="#fff" stop-opacity="0"/>
      <stop offset="1" stop-color="#f6f6f6"/>
    </linearGradient>
    <linearGradient id="Degradado_sin_nombre_49-2" data-name="Degradado sin nombre 49" x1="567.34" y1="147.86" x2="546.01" y2="111.62" xlink:href="#Degradado_sin_nombre_49"/>
    <linearGradient id="linear-gradient-12" x1="420.7" y1="450.33" x2="698.35" y2="330.87" xlink:href="#linear-gradient"/>
    <linearGradient id="linear-gradient-13" x1="404.4" y1="416.02" x2="682.06" y2="296.56" xlink:href="#linear-gradient"/>
    <linearGradient id="linear-gradient-14" x1="388.11" y1="381.71" x2="665.77" y2="262.25" xlink:href="#linear-gradient"/>
    <linearGradient id="linear-gradient-15" x1="371.82" y1="347.4" x2="649.47" y2="227.94" xlink:href="#linear-gradient"/>
    <linearGradient id="linear-gradient-16" x1="355.53" y1="313.09" x2="633.18" y2="193.64" xlink:href="#linear-gradient"/>
    <linearGradient id="linear-gradient-17" x1="572.31" y1="350.24" x2="221.51" y2="241.64" xlink:href="#linear-gradient"/>
    <linearGradient id="linear-gradient-18" x1="421.82" y1="231.04" x2="660" y2="147.04" xlink:href="#linear-gradient-4"/>
    <linearGradient id="linear-gradient-19" x1="541.51" y1="217.82" x2="333.44" y2="151.43" xlink:href="#linear-gradient-4"/>
    <linearGradient id="linear-gradient-20" x1="139.63" y1="249.43" x2="481.8" y2="467.41" xlink:href="#linear-gradient"/>
  </defs>
  <g class="cls-11" transform="translate(0,10)">
    <g id="Layer_1" data-name="Layer 1">
      <rect class="cls-1" y="2.09" width="500" height="500"/>
      <polygon class="cls-21" points="144.12 244.78 144.12 489.8 277.12 577.25 277.12 319.57 144.12 244.78"/>
      <polyline class="cls-42" points="641.53 154.61 641.53 120.31 511.45 80.92 511.45 117.84"/>
      <polygon class="cls-43" points="363.32 162.67 511.45 117.84 511.45 80.92 363.32 127.94 363.32 162.67"/>
      <g class="cls-5">
        <text class="cls-18" transform="translate(189.8 359.11) rotate(30) scale(1 .87) skewX(26.56)"><tspan class="cls-41" x="0" y="0">S</tspan><tspan class="cls-40" x="7.2" y="0">c</tspan><tspan x="13.36" y="0">yllaDB</tspan></text>
        <text class="cls-13" transform="translate(189.8 359.11) rotate(30) scale(1 .87) skewX(26.56)"><tspan class="cls-41" x="0" y="0">S</tspan><tspan class="cls-40" x="7.2" y="0">c</tspan><tspan x="13.36" y="0">yllaDB</tspan></text>
      </g>
      <g class="cls-7">
        <text class="cls-18" transform="translate(187.5 402.78) rotate(30) scale(1 .87) skewX(26.56)"><tspan x="0" y="0">AI </tspan><tspan class="cls-38" x="14.04" y="0">A</tspan><tspan x="22.49" y="0">ge</tspan><tspan class="cls-37" x="36.39" y="0">n</tspan><tspan class="cls-39" x="43.34" y="0">t</tspan><tspan x="47.79" y="0">s</tspan><tspan x="-4.3" y="16.63">&amp; C</tspan><tspan class="cls-16" x="15.84" y="16.63">h</tspan><tspan class="cls-40" x="22.92" y="16.63">a</tspan><tspan x="29.08" y="16.63">tb</tspan><tspan class="cls-49" x="40.76" y="16.63">o</tspan><tspan class="cls-41" x="47.63" y="16.63">t</tspan><tspan x="52.09" y="16.63">s</tspan></text>
        <text class="cls-13" transform="translate(187.5 402.78) rotate(30) scale(1 .87) skewX(26.56)"><tspan x="0" y="0">AI </tspan><tspan class="cls-38" x="14.04" y="0">A</tspan><tspan x="22.49" y="0">ge</tspan><tspan class="cls-37" x="36.39" y="0">n</tspan><tspan class="cls-39" x="43.34" y="0">t</tspan><tspan x="47.79" y="0">s</tspan><tspan x="-4.3" y="16.63">&amp; C</tspan><tspan class="cls-16" x="15.84" y="16.63">h</tspan><tspan class="cls-40" x="22.92" y="16.63">a</tspan><tspan x="29.08" y="16.63">tb</tspan><tspan class="cls-49" x="40.76" y="16.63">o</tspan><tspan class="cls-41" x="47.63" y="16.63">t</tspan><tspan x="52.09" y="16.63">s</tspan></text>
      </g>
      <g class="cls-10">
        <text class="cls-18" transform="translate(185.59 311.68) rotate(30) scale(1 .87) skewX(26.56)"><tspan x="0" y="0">Mongo DB</tspan></text>
        <text class="cls-13" transform="translate(185.59 311.68) rotate(30) scale(1 .87) skewX(26.56)"><tspan x="0" y="0">Mongo DB</tspan></text>
      </g>
      <polygon class="cls-63" points="496.32 489.35 641.53 407.71 641.53 372.98 496.32 454.62 496.32 489.35"/>
      <polyline class="cls-64" points="363.32 415.44 496.32 489.84 496.32 455.6 363.32 378.52 363.32 415.44"/>
      <polygon class="cls-44" points="496.32 534.35 641.53 452.71 641.53 417.98 496.32 499.62 496.32 534.35"/>
      <polyline class="cls-45" points="363.32 460.44 496.32 534.84 496.32 500.6 363.32 423.52 363.32 460.44"/>
      <polygon class="cls-19" points="496.32 579.35 641.53 497.71 641.53 462.98 496.32 544.62 496.32 579.35"/>
      <polyline class="cls-20" points="363.32 505.44 496.32 579.84 496.32 545.6 363.32 468.52 363.32 505.44"/>
      <polygon class="cls-59" points="277.12 319.57 632.05 124.38 496.33 46.94 144.12 244.78 277.12 319.57"/>
      <line class="cls-60" x1="120.16" y1="254.59" x2="145.09" y2="382.85"/>
      <g class="cls-4">
        <path class="cls-27" d="m173.51,410.29l-1.81,2.2-.16-.34v-19.11s.16-.22.16-.22l1.81,3.76v13.72"/>
        <path class="cls-26" d="m171.7,412.49l-3.45.91-.14-.39v-23.88s.14-.19.14-.19l3.45,3.87v19.68"/>
        <path class="cls-30" d="m158.22,390.09l1.77-2.2.2.17-.04,19.11-.16.17-1.77-3.73v-13.52"/>
        <path class="cls-28" d="m163.38,411.25l-3.39-3.91v-19.46s3.4-.98,3.4-.98l.16.38v23.69s-.16.28-.16.28"/>
        <path class="cls-30" d="m168.25,388.94l-4.86-2.04v24.35s4.86,2.15,4.86,2.15v-24.46Z"/>
      </g>
      <g id="rG0xSf" class="cls-6">
        <g>
          <path class="cls-29" d="m167.5,363.24c-.29-.42-.59-.66-.88-.44l-.42-.21c-.21-.23-.43-.43-.59-.78-.04-.09-.09-.12-.13-.06-.14.18-.36.14-.53.22l-.41-.21c-.21-.23-.43-.44-.59-.77-.04-.09-.09-.12-.13-.07-.14.19-.36.14-.53.22l-.41-.21c-.13-.19-.29-.36-.43-.48-.17-.15-.33,0-.5.01l-1.18-.59s-.02-.06-.03-.07c-.53-.37-.8-.97-.91-1.76-.17-1.33-.36-2.66-.53-3.99-.4-3.13-.85-6.27-1.06-9.35-.23-3.39.59-5.67,2.55-6.45,2.32-.92,4.81.19,7.26,3.02,2.2,2.53,3.26,5.68,3.23,9.15-.01,1.24-.2,2.37-.35,3.53-.38,3.06-.85,6.05-1.32,9.04-.08.53-.32.83-.71.84-.04,0-.11-.04-.12.05l-1.3-.65Zm-6.88-5.76c-.12-.9-.16-1.79-.34-2.7-.02-.13,0-.21.06-.21.1,0,.16.1.18.26.07.48.14.96.2,1.43.11.82.21,1.65.32,2.47.07.51.4,1.04.74,1.18.12.05.25.09.34.02.11-.1-.03-.3-.05-.45-.12-.88-.14-1.73-.2-2.59-.04-.5-.05-.98-.08-1.47,0-.14-.02-.3.11-.24.13.05.1.19.11.31.08.96.16,1.91.24,2.87.03.38.03.75.12,1.14.19.86.9,1.41,1.28.99.07-.07.09-.18.07-.31-.09-.52-.05-.98-.06-1.46-.02-.8-.02-1.6-.03-2.39,0-.14-.03-.37.11-.29.13.06.13.25.13.41.03,1.15.06,2.31.09,3.46.02.61.25,1.08.68,1.43.27.22.61.11.77-.26.06-.13.06-.3.07-.47.04-1.07.07-2.15.1-3.22,0-.07,0-.15.01-.22.01-.09.02-.21.11-.17.1.05.12.19.12.3-.01,1.29,0,2.61-.07,3.87,0,.12,0,.21.06.33.19.42.42.71.73.76.34.05.55-.15.6-.62.11-1.08.21-2.16.31-3.24,0-.09.03-.17.05-.26.01-.08.05-.11.11-.06.08.06.09.14.08.23-.05.73-.11,1.45-.13,2.19-.01.36-.09.68-.06,1.07.02.3-.05.53-.15.73-.07.14-.03.21.08.36.37.48.93.39,1.05-.35.17-1.08.32-2.19.48-3.28.01-.09-.01-.23.1-.15.1.07.12.19.11.31-.07.69-.14,1.39-.23,2.07-.07.49-.1,1-.19,1.48-.04.22-.15.36-.21.55.36.24.76.01.83-.46.18-1.25.34-2.53.55-3.76.22-1.36.39-2.75.6-4.12.17-1.11.27-2.26.4-3.39.06-.5.14-.98.13-1.51-.06-2.37-.64-4.64-1.92-6.79-.97-1.61-2.08-2.73-3.3-3.56-.84-.57-1.67-.96-2.5-1.14-1-.21-1.94-.19-2.74.34-.66.44-1.22,1.05-1.57,2-.42,1.15-.59,2.48-.45,4.03.12,1.46.29,2.93.46,4.4.24,2.1.52,4.21.8,6.32.12.87.21,1.75.34,2.63.09.61.44,1.12.83,1.22-.3-.69-.28-1.34-.37-2Z"/>
          <path class="cls-22" d="m166.2,362.59c-.21-.23-.43-.43-.59-.78-.04-.09-.09-.12-.13-.06-.14.18-.36.14-.53.22l1.24.62Z"/>
          <path class="cls-22" d="m164.54,361.76c-.21-.23-.43-.44-.59-.77-.04-.09-.09-.12-.13-.07-.14.19-.36.14-.53.22l1.24.62Z"/>
          <path class="cls-22" d="m167.5,363.24c-.29-.42-.59-.66-.88-.44l.88.44Z"/>
          <path class="cls-22" d="m162.89,360.93c-.13-.19-.29-.36-.43-.48-.17-.15-.33,0-.5.01l.93.46Z"/>
          <path class="cls-31" d="m160.16,358.27c-.12-.88-.22-1.75-.34-2.63-.28-2.11-.56-4.22-.8-6.32-.17-1.47-.34-2.94-.46-4.4-.13-1.56.04-2.88.45-4.03.35-.95.91-1.56,1.57-2,.8-.53,1.74-.56,2.74-.34.83.17,1.66.57,2.5,1.14,1.22.83,2.33,1.95,3.3,3.56,1.29,2.15,1.86,4.42,1.92,6.79.01.53-.07,1.01-.13,1.51-.13,1.14-.23,2.28-.4,3.39-.21,1.37-.37,2.77-.6,4.12-.2,1.24-.37,2.51-.55,3.76-.07.48-.48.71-.83.46.07-.19.17-.33.21-.55.09-.47.12-.99.19-1.48.09-.68.16-1.38.23-2.07.01-.12-.02-.24-.11-.31-.11-.08-.09.06-.1.15-.16,1.1-.3,2.2-.48,3.28-.12.74-.68.83-1.05.35-.11-.15-.15-.22-.08-.36.1-.2.17-.43.15-.73-.03-.39.04-.71.06-1.07.02-.74.09-1.46.13-2.19,0-.09,0-.18-.08-.23-.06-.04-.1-.02-.11.06-.01.09-.04.17-.05.26-.11,1.08-.2,2.17-.31,3.24-.05.47-.26.67-.6.62-.3-.05-.53-.34-.73-.76-.06-.12-.06-.21-.06-.33.07-1.26.05-2.58.07-3.87,0-.11-.01-.25-.12-.3-.08-.04-.09.08-.11.17-.01.07,0,.14-.01.22-.03,1.07-.07,2.15-.1,3.22,0,.17,0,.34-.07.47-.16.36-.5.48-.77.26-.43-.35-.66-.82-.68-1.43-.04-1.16-.06-2.31-.09-3.46,0-.16,0-.35-.13-.41-.14-.07-.12.15-.11.29,0,.8,0,1.59.03,2.39.01.48-.03.94.06,1.46.02.13,0,.23-.07.31-.38.42-1.08-.13-1.28-.99-.09-.39-.09-.77-.12-1.14-.09-.96-.17-1.92-.24-2.87-.01-.12.03-.26-.11-.31-.13-.05-.12.1-.11.24.03.49.04.98.08,1.47.07.86.09,1.71.2,2.59.02.15.16.36.05.45-.09.08-.22.03-.34-.02-.33-.14-.67-.67-.74-1.18-.11-.82-.21-1.65-.32-2.47-.06-.48-.13-.96-.2-1.43-.02-.16-.08-.26-.18-.26-.07,0-.09.08-.06.21.17.92.21,1.8.34,2.7.09.66.07,1.32.37,2-.39-.1-.74-.6-.83-1.22Zm9.77-9.7c-.07-2.4-1.2-4.79-3.1-5.68-1.65-.77-2.97.45-2.94,2.95.03,2.44,1.34,4.94,3.06,5.74,1.75.89,3.05-.54,2.98-3Zm-6.18.51c.13.02.17-.12.15-.3-.02-.18-.13-.19-.21-.21-.34-.06-.62.2-.67.63-.01.11-.03.22.07.31.09.08.12-.02.13-.11.04-.23.11-.12.21.03.13.19.26.37.4.54.38.44.72.86.68,1.59-.02.26.14.59.29.86.25.45.77.75.92.14.12-.46.14-.44.51-.16.21.16.43.32.64.45.13.08.2.15.21.37.03.38.1.77.41,1,.28.22.6.17.71-.19.11-.38.29-.46.6-.25.11.08.21.04.19-.16-.02-.21-.12-.23-.22-.25-.43-.07-.89-.23-1.3-.5-1.18-.74-2.33-1.67-3.36-3.07-.18-.25-.4-.44-.57-.77.09-.04.15.04.21.04Z"/>
          <path class="cls-29" d="m163.89,345.84c-.03-2.5,1.29-3.72,2.94-2.95,1.9.89,3.03,3.28,3.1,5.68.07,2.46-1.22,3.89-2.98,3-1.72-.8-3.03-3.3-3.06-5.74Zm5,5.02c.43-.42.66-1.09.73-1.9.1-1.23-.23-2.5-.89-3.7-.55-1.01-1.21-1.68-1.96-1.98-1.54-.62-2.68.65-2.59,2.9.09,2.21,1.39,4.37,3.01,5.1.55.2,1.17.09,1.7-.42Z"/>
          <path class="cls-29" d="m164.12,349.81c1.03,1.4,2.18,2.33,3.36,3.07.42.26.87.43,1.3.5.1.02.2.04.22.25.01.2-.08.24-.19.16-.31-.21-.49-.13-.6.25-.11.36-.42.41-.71.19-.31-.23-.39-.62-.41-1-.02-.23-.08-.29-.21-.37-.21-.13-.43-.29-.64-.45-.37-.28-.39-.3-.51.16-.15.6-.67.31-.92-.14-.15-.27-.31-.6-.29-.86.04-.73-.3-1.15-.68-1.59-.14-.16-.27-.35-.4-.54-.1-.15-.18-.26-.21-.03-.01.09-.04.19-.13.11-.1-.09-.09-.2-.07-.31.06-.43.34-.7.67-.63.09.02.19.03.21.21.02.18-.02.31-.15.3-.06,0-.12-.09-.21-.04.17.33.39.52.57.77Zm.91,2.41c.1.16.22.29.32.18.11-.12.17-.31.17-.55,0-.03-.08-.11-.13-.16-.2-.2-.4-.39-.63-.62,0,.41.06.78.27,1.14Zm2.5,1.01c-.2-.13-.21-.03-.17.22.08.49.27.68.51.5.09-.06.15-.2.21-.45-.2-.1-.37-.16-.54-.27Z"/>
          <path class="cls-22" d="m164.19,346.18c-.09-2.24,1.05-3.51,2.59-2.9.74.3,1.41.97,1.96,1.98.66,1.2.99,2.47.89,3.7-.07.81-.3,1.48-.73,1.9-.52.51-1.15.61-1.7.42-1.62-.72-2.91-2.89-3.01-5.1Zm.91,1.78c.22.65.52,1.2.96,1.58.24.21.44.18.55-.09.13-.31.19-.68.15-1.11-.03-.41-.15-.78-.43-1.05-.06-.06-.12-.15-.18-.22-.07-.08-.16-.19-.16-.29,0-.11.1-.07.18-.07.63-.02.83-1.19.36-2.14-.18-.36-.43-.39-.64-.4-.61-.04-.84.57-.99,1.29-.04.21-.1.42-.04.67-.06.61.03,1.22.24,1.85Z"/>
          <path class="cls-22" d="m164.75,351.09c0,.41.06.78.27,1.14.1.16.22.29.32.18.11-.12.17-.31.17-.55,0-.03-.08-.11-.13-.16-.2-.2-.4-.39-.63-.62Z"/>
          <path class="cls-22" d="m168.06,353.52c-.2-.1-.37-.16-.54-.27-.2-.13-.21-.03-.17.22.08.49.27.68.51.5.09-.06.15-.2.21-.45Z"/>
          <path class="cls-29" d="m164.86,346.11c-.06.61.03,1.22.24,1.85.22.65.52,1.2.96,1.58.24.21.44.18.55-.09.13-.31.19-.68.15-1.11-.03-.41-.15-.78-.43-1.05-.06-.06-.12-.15-.18-.22-.07-.08-.16-.19-.16-.29,0-.11.1-.07.18-.07.63-.02.83-1.19.36-2.14-.18-.36-.43-.39-.64-.4-.61-.04-.84.57-.99,1.29-.04.21-.1.42-.04.67Z"/>
        </g>
      </g>
      <g class="cls-9">
        <path class="cls-25" d="m158.39,295.74c1.11-6.66,3.47-7.55,4.07-8.65.25-.49.47-1.02.67-1.59.03.66.09,1.09.47,1.75.77,1.32,4.09,6.65,4.38,15.18.26,7.97-4.02,10.58-4.57,10.78-.43.08-.94-.49-1.2-.89-2-3.02-4.68-9.62-3.82-16.59"/>
        <path class="cls-23" d="m162.95,308.89c.11,1.96.18,3.11.45,4.34,0,0-.18,1.73-.3,3.58l-.44-.23c-.1-1.41-.26-2.83-.48-4.27.56-.11.74-1.76.76-3.42Z"/>
        <path class="cls-24" d="m162.19,312.31h0c.57-.08.74-1.78.76-3.42-.14-2.81-.18-5.57-.12-8.28.03-1.42-.01-13.33.25-14.95-.18.51-.38,1-.61,1.45-.61,1.1-2.96,1.98-4.07,8.65-.86,6.96,1.81,13.54,3.8,16.57Z"/>
      </g>
      <path class="cls-15" d="m155.97,447.1c0,6.29,3.6,13.21,8.13,15.55,4.5,2.32,8.27-.99,8.29-7.34.01-6.45-3.69-13.44-8.29-15.68-4.46-2.17-8.12,1.21-8.13,7.47Zm4.43,1.18c.91.44,1.83.9,2.75,1.35.07.03.13.07.21.1,0-.14,0-.24,0-.33,0-1.27,0-2.53,0-3.79,0-.51.19-.8.5-.8.49,0,.98.73.99,1.49,0,1.29,0,2.58,0,3.88,0,.09,0,.19,0,.3.1.05.17.08.24.12.91.45,1.81.89,2.72,1.34.37.19.65.6.76,1.1.16.77-.19,1.26-.73,1.01-.92-.45-1.84-.91-2.76-1.36-.07-.03-.14-.07-.23-.11,0,.14,0,.24,0,.33,0,1.27,0,2.54,0,3.8,0,.52-.19.81-.51.79-.49-.03-.96-.75-.97-1.5,0-1.29,0-2.58,0-3.87,0-.09,0-.19,0-.3-.1-.05-.17-.08-.24-.12-.9-.45-1.8-.89-2.69-1.34-.36-.18-.63-.58-.74-1.06-.17-.77.18-1.28.71-1.03Z"/>
      <g class="cls-3">
        <text class="cls-18" transform="translate(196.1 467.17) rotate(30) scale(1 .87) skewX(26.56)"><tspan x="0" y="0">1</tspan><tspan class="cls-47" x="4.64" y="0">0</tspan><tspan x="12.73" y="0">0</tspan><tspan class="cls-41" x="-11.67" y="16.63">S</tspan><tspan x="-4.48" y="16.63">ou</tspan><tspan class="cls-32" x="9.45" y="16.63">r</tspan><tspan class="cls-41" x="13.69" y="16.63">c</tspan><tspan x="20" y="16.63">es</tspan></text>
        <text class="cls-18" transform="translate(196.1 467.17) rotate(30) scale(1 .87) skewX(26.56)"><tspan x="0" y="0">1</tspan><tspan class="cls-47" x="4.64" y="0">0</tspan><tspan x="12.73" y="0">0</tspan><tspan class="cls-41" x="-11.67" y="16.63">S</tspan><tspan x="-4.48" y="16.63">ou</tspan><tspan class="cls-32" x="9.45" y="16.63">r</tspan><tspan class="cls-41" x="13.69" y="16.63">c</tspan><tspan x="20" y="16.63">es</tspan></text>
      </g>
      <polygon class="cls-48" points="496.32 202.73 360.59 124.74 496.33 46.94 632.05 124.38 496.32 202.73"/>
      <g class="cls-2 bb">
        <polygon class="cls-35" points="493.07 182.34 365.06 110.49 492.33 37.55 619.58 110.16 493.07 182.34"/>
        <polygon class="cls-34" points="493.07 160.97 365.06 89.13 492.33 16.18 619.58 88.79 493.07 160.97"/>
        <polygon class="cls-36" points="493.07 193.02 365.06 121.17 492.33 48.23 619.58 120.84 493.07 193.02"/>
        <polygon class="cls-61" points="492.33 146.88 619.58 73.43 492.4 0 365.06 73.4 492.33 146.88"/>
        <polygon class="cls-46" points="365.06 73.4 365.06 110.49 492.33 183.6 492.33 146.88 365.06 73.4"/>
        <polygon class="cls-62" points="492.33 146.88 619.58 73.43 619.58 110.16 492.33 183.6 492.33 146.88"/>
      </g>
      <g>
        <g>
          <polygon class="cls-58" points="496.32 444.74 641.53 363.1 641.53 328.37 496.32 410 496.32 444.74"/>
          <polygon class="cls-57" points="496.32 403.42 641.53 321.78 641.53 287.05 496.32 368.69 496.32 403.42"/>
          <polygon class="cls-50" points="496.32 362.1 641.53 280.46 641.53 245.73 496.32 327.37 496.32 362.1"/>
          <polygon class="cls-53" points="496.32 320.78 641.53 239.14 641.53 204.41 496.32 286.05 496.32 320.78"/>
          <polygon class="cls-55" points="496.32 279.46 641.53 197.83 641.53 163.1 496.32 244.73 496.32 279.46"/>
          <g class="cls-8">
            <g>
              <path class="cls-14" d="m537.04,400.48c.61-.35,1.16-.53,1.65-.54.49-.01.9.14,1.22.45.31.31.51.78.57,1.41l-1.55.89c-.09-.56-.31-.89-.66-1-.35-.12-.75-.03-1.23.24-.42.24-.79.57-1.11.99-.32.41-.57.89-.74,1.42-.18.53-.27,1.1-.26,1.71s.09,1.1.28,1.44c.18.34.44.54.76.6.32.06.7-.04,1.11-.28.45-.26.85-.64,1.19-1.15.34-.5.57-1.1.67-1.77l1.57-.91c-.09.72-.29,1.42-.61,2.09-.31.68-.72,1.3-1.2,1.85-.49.55-1.03,1-1.64,1.35-.54.31-1.03.49-1.49.53-.46.05-.85-.03-1.19-.23-.33-.2-.6-.52-.78-.96-.19-.44-.28-.98-.29-1.61s.09-1.28.27-1.91c.18-.64.44-1.25.78-1.84.33-.58.73-1.11,1.18-1.58.45-.47.95-.86,1.5-1.18Z"/>
              <path class="cls-14" d="m542.92,397.21v3.54c.17-.4.38-.78.63-1.13.34-.46.75-.83,1.23-1.11.59-.34,1.03-.41,1.35-.21.31.2.47.61.47,1.24v4.09s-1.54.9-1.54.9v-3.75c-.01-.33-.09-.54-.24-.62-.15-.08-.36-.04-.65.12-.24.14-.45.33-.64.56-.19.24-.34.5-.45.78-.1.29-.16.58-.16.88v3.25s-1.54.89-1.54.89l-.02-8.55,1.55-.89Z"/>
              <path class="cls-14" d="m552.55,395.47c.22.32.33.8.33,1.4,0,.12,0,.24,0,.35,0,.11-.02.22-.03.33l-3.91,2.26c.05.34.15.57.31.69.22.17.56.13,1.01-.13.24-.14.46-.32.64-.52.18-.2.31-.43.4-.69l1.46-.84c-.17.69-.46,1.32-.88,1.9-.41.58-.95,1.06-1.61,1.44-.58.34-1.09.5-1.53.48-.43-.01-.77-.18-1.01-.53-.24-.34-.36-.81-.36-1.43s.12-1.24.35-1.85c.23-.61.57-1.17.99-1.68.43-.51.92-.93,1.49-1.26s1.02-.46,1.42-.44c.4.02.71.19.94.52Zm-3.59,3.14l2.36-1.36c-.03-.37-.13-.6-.3-.7-.2-.11-.48-.07-.83.13-.41.24-.72.57-.94,1.02-.13.27-.23.57-.28.9"/>
              <path class="cls-14" d="m556.19,391.93c.46-.27.87-.41,1.25-.43.36-.02.67.08.91.28s.39.52.46.93l-1.5.87c-.08-.25-.21-.39-.4-.43-.2-.04-.43.02-.69.17s-.47.34-.64.59c-.18.25-.32.53-.42.85-.1.31-.14.65-.14,1.01s.05.63.14.84c.1.21.24.33.42.37.18.04.4-.02.65-.16.26-.15.49-.36.69-.63.19-.26.32-.56.4-.9l1.5-.87c-.07.5-.22.99-.46,1.47-.24.47-.54.91-.9,1.32-.37.4-.78.75-1.24,1.01-.56.32-1.04.46-1.46.44-.42-.03-.76-.21-.99-.55-.24-.33-.36-.81-.36-1.42s.12-1.22.35-1.84c.23-.61.57-1.17.99-1.69.41-.51.9-.92,1.45-1.24Z"/>
              <polygon class="cls-14" points="561.15 386.68 561.17 391.59 562.93 388.15 564.72 387.12 562.47 391.29 564.84 393.11 563 394.17 561.17 392.61 561.18 395.23 559.62 396.12 559.6 387.58 561.15 386.68"/>
              <path class="cls-14" d="m570.82,384.96c.19.35.29.85.29,1.48s-.1,1.25-.3,1.85c-.2.58-.48,1.12-.83,1.58-.36.47-.78.85-1.27,1.13s-.91.38-1.21.29c-.21-.07-.36-.21-.46-.44v3.42s-1.54.9-1.54.9l-.02-8.49,1.52-.88v.97c.11-.34.28-.67.52-1,.34-.45.75-.82,1.25-1.11s.89-.38,1.23-.32c.35.05.62.26.81.62Zm-1.66,3.9c.23-.43.34-.93.34-1.48s-.12-.91-.35-1.07c-.23-.16-.53-.13-.9.08s-.65.52-.88.96c-.24.43-.35.92-.35,1.48s.12.91.35,1.07c.23.16.53.13.9-.08s.66-.53.89-.96"/>
              <path class="cls-14" d="m577.13,381.32c.24.33.37.8.37,1.43s-.12,1.24-.37,1.86c-.24.62-.58,1.19-1.02,1.71-.43.52-.94.95-1.52,1.28s-1.09.5-1.53.48c-.44,0-.78-.18-1.02-.53-.24-.34-.37-.81-.37-1.44s.12-1.25.37-1.86c.24-.6.58-1.16,1.02-1.68.43-.51.94-.93,1.52-1.27s1.09-.5,1.53-.5c.43.01.77.18,1.02.51Zm-1.42,3.4c.11-.33.17-.68.17-1.05,0-.54-.12-.9-.38-1.04-.25-.16-.56-.13-.92.08s-.68.54-.92.98c-.25.45-.37.94-.37,1.48,0,.37.06.66.18.85.12.19.28.31.47.34.2.03.42-.03.66-.17s.46-.34.65-.59c.2-.26.36-.56.47-.89"/>
              <polygon class="cls-14" points="578.31 385.33 578.29 379.28 579.85 378.39 579.86 384.44 578.31 385.33"/>
              <polygon class="cls-14" points="578.24 376.58 579.89 375.63 579.9 377.55 578.24 378.5 578.24 376.58"/>
              <path class="cls-14" d="m584.49,375.58c.59-.34,1.03-.41,1.34-.21.31.19.47.61.47,1.24v4.09s-1.54.9-1.54.9v-3.75c-.01-.33-.08-.54-.23-.62-.15-.07-.36-.04-.65.12-.24.14-.46.33-.65.57-.18.23-.33.49-.44.78-.11.29-.16.58-.16.88v3.25s-1.54.9-1.54.9l-.02-6.05,1.52-.88v1.11c.17-.43.38-.84.66-1.21.33-.46.74-.82,1.23-1.11Z"/>
              <path class="cls-14" d="m589.3,370.9v2.02s1.37-.79,1.37-.79v1.36s-1.36.79-1.36.79v2.61c0,.26.07.43.21.49.13.06.33.01.61-.14.1-.06.2-.13.29-.2.09-.07.18-.15.27-.24v1.36c-.09.1-.21.22-.37.35-.16.12-.34.24-.54.36-.67.39-1.18.49-1.5.3-.33-.19-.49-.66-.5-1.43v-2.55s-.98.56-.98.56v-1.36s.97-.56.97-.56v-1.35s1.55-1.56,1.55-1.56Z"/>
              <polygon class="cls-14" points="591.57 377.68 591.55 371.63 593.1 370.73 593.12 376.79 591.57 377.68"/>
              <polygon class="cls-14" points="591.49 368.93 593.14 367.97 593.15 369.9 591.5 370.85 591.49 368.93"/>
              <path class="cls-14" d="m597.75,367.93c.58-.34,1.03-.41,1.34-.21.31.19.47.61.47,1.24v4.09s-1.54.9-1.54.9v-3.75c-.01-.33-.08-.54-.24-.62-.15-.08-.36-.04-.65.12-.24.14-.45.33-.64.56-.19.24-.34.5-.44.78-.11.29-.16.58-.16.88v3.25s-1.54.89-1.54.89l-.02-6.05,1.52-.88v1.1c.16-.43.38-.83.65-1.2.34-.46.75-.83,1.24-1.11Z"/>
              <path class="cls-14" d="m604.44,364.19l1.52-.88.02,5.8c0,.87-.24,1.7-.75,2.5-.5.79-1.19,1.44-2.07,1.94-.73.42-1.32.59-1.78.49-.46-.09-.73-.42-.81-.98l1.47-.85c.06.11.17.16.36.14.18-.02.42-.12.7-.28.47-.27.81-.57,1.02-.9.22-.33.32-.71.32-1.15v-.95c-.1.34-.28.68-.52,1.01-.32.44-.73.81-1.22,1.09-.47.27-.88.38-1.23.33-.35-.04-.62-.24-.81-.58-.19-.34-.29-.81-.29-1.43s.09-1.21.3-1.79c.2-.57.48-1.09.84-1.55.36-.46.78-.83,1.26-1.11s.9-.39,1.21-.3c.23.07.39.22.48.47v-1.03Zm-.34,4.36c.23-.42.34-.9.34-1.44s-.12-.88-.35-1.04c-.23-.15-.53-.13-.9.09s-.65.52-.88.95c-.24.43-.35.91-.35,1.45s.12.88.35,1.03c.23.15.53.12.9-.09s.66-.52.89-.95"/>
            </g>
          </g>
          <g class="cls-8">
            <g>
              <path class="cls-14" d="m546.92,354.99c.35.44.51,1.1.52,1.97s-.17,1.73-.51,2.57c-.34.84-.82,1.61-1.43,2.32-.62.71-1.34,1.3-2.16,1.78l-1.9,1.09-.97.56-.02-8.54,1.6-.92,1.26-.73c.84-.48,1.56-.73,2.18-.74.62-.01,1.11.2,1.45.63Zm-1.38,4.54c.19-.54.29-1.1.29-1.67s-.1-.98-.3-1.29c-.19-.31-.47-.47-.85-.49-.38-.02-.84.13-1.38.44l-1.26.73.02,5.69,1.26-.73c.54-.31,1-.7,1.37-1.16.38-.47.66-.97.86-1.52"/>
              <path class="cls-14" d="m553.12,353.24c.22.32.33.79.34,1.4,0,.12,0,.25-.01.35,0,.11-.01.22-.03.33l-3.9,2.25c.05.34.15.58.31.69.22.17.56.13,1-.12.25-.14.46-.32.64-.52.18-.2.31-.42.4-.69l1.46-.84c-.17.69-.46,1.32-.88,1.9-.41.58-.95,1.06-1.6,1.43-.59.34-1.1.5-1.53.48-.43-.01-.77-.19-1.01-.53-.24-.34-.36-.81-.36-1.43s.11-1.24.35-1.85c.23-.61.57-1.17.99-1.68.43-.51.92-.93,1.49-1.26s1.02-.46,1.41-.43c.4.02.71.19.94.52Zm-3.59,3.14l2.35-1.36c-.03-.37-.12-.6-.3-.7-.2-.12-.48-.08-.83.13-.41.24-.72.57-.94,1.02-.14.27-.23.57-.28.91"/>
              <path class="cls-14" d="m558.04,346.58l1.55-.9.02,8.54-1.52.88v-.93c-.11.32-.28.64-.51.95-.34.46-.75.83-1.22,1.1s-.9.39-1.25.33c-.36-.05-.63-.25-.83-.61-.19-.36-.29-.85-.29-1.48s.1-1.25.3-1.85c.2-.59.48-1.12.84-1.59.36-.46.78-.84,1.26-1.12s.91-.4,1.23-.3c.2.06.34.18.44.37v-3.39Zm-.3,6.98c.23-.43.34-.93.34-1.48s-.12-.92-.35-1.07c-.23-.17-.53-.14-.9.07s-.65.53-.88.96c-.24.44-.35.93-.35,1.49s.12.91.35,1.07c.23.16.53.13.9-.09s.66-.53.89-.95"/>
              <path class="cls-14" d="m565.91,344.53l.02,6.05-1.52.88v-1.11c-.17.42-.38.83-.65,1.2-.33.46-.73.82-1.2,1.1-.37.21-.69.3-.95.27-.27-.04-.47-.17-.61-.4-.14-.23-.21-.55-.21-.93v-4.1s1.53-.89,1.53-.89v3.76c.01.33.09.54.23.62.15.08.35.04.61-.11.23-.13.44-.31.62-.54.18-.24.32-.49.43-.78.11-.29.16-.58.16-.87v-3.26s1.54-.9,1.54-.9Z"/>
              <path class="cls-14" d="m572.49,342.09c.19.35.29.85.29,1.48s-.1,1.25-.3,1.85c-.2.59-.48,1.12-.83,1.58-.36.47-.78.85-1.27,1.13s-.91.38-1.21.29c-.22-.07-.37-.22-.46-.46v3.44s-1.54.89-1.54.89l-.02-8.49,1.52-.88v.97c.11-.34.28-.67.52-1,.34-.45.75-.82,1.25-1.11s.89-.38,1.23-.32c.35.05.62.26.81.62Zm-1.66,3.9c.23-.43.34-.93.34-1.48s-.12-.91-.35-1.07c-.23-.16-.53-.13-.9.08s-.65.52-.89.96c-.23.43-.34.92-.34,1.48s.12.91.35,1.08c.24.16.54.13.91-.08s.66-.53.89-.96"/>
              <polygon class="cls-14" points="575.18 336.69 575.21 345.23 573.66 346.12 573.63 337.58 575.18 336.69"/>
              <polygon class="cls-14" points="576.45 344.51 576.43 338.46 577.97 337.57 577.99 343.62 576.45 344.51"/>
              <polygon class="cls-14" points="576.37 335.76 578.02 334.8 578.03 336.73 576.38 337.68 576.37 335.76"/>
              <path class="cls-14" d="m581.58,335.37c.46-.27.87-.41,1.25-.43.37-.02.67.08.91.28.24.2.4.51.46.93l-1.49.86c-.08-.25-.21-.39-.41-.42-.2-.04-.43.02-.69.17s-.46.34-.64.59c-.18.25-.32.53-.41.85-.1.31-.15.65-.14,1.01s.05.63.15.84c.1.21.24.33.42.37.19.03.4-.02.65-.16.26-.15.49-.36.69-.63.2-.26.33-.57.41-.9l1.49-.86c-.06.5-.21.98-.46,1.47-.24.47-.53.92-.9,1.32-.37.4-.78.75-1.24,1.01-.55.32-1.03.46-1.46.44-.42-.03-.75-.21-.99-.55-.24-.33-.35-.81-.36-1.42s.11-1.22.35-1.83c.24-.62.57-1.17.99-1.69.42-.51.91-.93,1.45-1.24Z"/>
              <path class="cls-14" d="m589.66,336.24c.03.19.07.38.12.58l-1.55.9c-.04-.15-.07-.32-.09-.51,0-.12-.02-.26-.02-.42-.14.41-.34.77-.59,1.11-.31.41-.69.74-1.14,1-.52.3-.94.39-1.25.26-.31-.12-.47-.44-.47-.94,0-.56.18-1.13.55-1.69.37-.56.88-1.07,1.54-1.56l1.3-.96v-.31c0-.25-.07-.4-.21-.46-.15-.05-.35,0-.63.16s-.47.32-.63.52c-.16.19-.25.4-.31.62l-1.47.85c.06-.58.31-1.18.72-1.77.42-.6.99-1.11,1.73-1.53s1.33-.57,1.73-.42c.4.16.6.6.6,1.33v2.68c0,.2.02.39.05.57Zm-1.59-.63v-.56s-1.05.78-1.05.78c-.27.21-.48.42-.61.61-.13.2-.2.42-.2.64,0,.2.06.32.19.35.13.03.29-.01.5-.13.33-.19.6-.45.82-.78.23-.33.34-.63.34-.9"/>
              <path class="cls-14" d="m592.49,327.17v2.02s1.37-.79,1.37-.79v1.36s-1.36.79-1.36.79v2.61c0,.26.07.43.2.49.13.06.34.01.61-.15.1-.06.2-.13.29-.2.09-.07.18-.15.27-.24v1.36c-.09.11-.21.22-.37.35-.16.12-.34.24-.54.36-.67.39-1.18.49-1.5.3-.33-.19-.49-.66-.5-1.43v-2.55s-.99.57-.99.57v-1.36s.98-.57.98-.57v-1.35s1.55-1.56,1.55-1.56Z"/>
              <path class="cls-14" d="m599.37,326.53c.22.32.33.79.34,1.4,0,.12,0,.24,0,.35-.01.12-.02.22-.03.33l-3.91,2.26c.05.34.15.57.31.69.22.17.56.13,1.01-.13.24-.14.46-.32.64-.52.18-.2.31-.42.4-.69l1.46-.84c-.17.69-.46,1.32-.88,1.9s-.95,1.06-1.61,1.44c-.59.34-1.09.5-1.53.48-.43-.01-.77-.18-1.01-.53s-.36-.81-.36-1.43.12-1.24.35-1.85.57-1.17.99-1.68c.43-.51.92-.93,1.49-1.26s1.02-.46,1.42-.44c.4.02.71.19.93.52Zm-3.59,3.14l2.36-1.36c-.03-.37-.13-.6-.3-.69-.2-.12-.48-.08-.83.13-.41.24-.72.57-.94,1.02-.13.27-.23.57-.28.9"/>
            </g>
          </g>
          <g class="cls-8">
            <g>
              <polygon class="cls-14" points="551.72 309.39 551.75 317.94 549.69 319.13 546.87 314.34 546.89 320.74 545.34 321.64 545.31 313.09 547.37 311.91 550.19 316.69 550.17 310.29 551.72 309.39"/>
              <path class="cls-14" d="m557.92,309.67c.24.33.36.81.36,1.44s-.12,1.24-.36,1.86c-.24.62-.58,1.19-1.02,1.71-.44.52-.94.94-1.52,1.28s-1.09.49-1.53.48c-.43-.02-.78-.19-1.02-.53-.24-.34-.37-.82-.37-1.44s.12-1.24.36-1.85c.24-.6.59-1.17,1.02-1.68.44-.52.94-.94,1.52-1.28s1.1-.5,1.53-.49c.44,0,.78.17,1.02.5Zm-1.42,3.41c.12-.33.18-.68.18-1.06,0-.54-.13-.89-.38-1.04-.26-.15-.56-.12-.93.09s-.67.54-.92.99c-.25.44-.37.94-.37,1.47,0,.37.06.66.18.85.12.2.28.31.47.35.2.03.42-.03.66-.17s.46-.34.66-.59c.19-.26.35-.55.46-.89"/>
              <path class="cls-14" d="m562.18,305.73c.13-.07.22-.11.29-.11v1.66s-.14.06-.14.06c-.06.03-.13.07-.22.12-.5.29-.86.6-1.1.94-.23.33-.35.75-.35,1.24v3.16s-1.54.89-1.54.89l-.02-6.06,1.52-.88v1.1c.13-.41.29-.78.51-1.11.28-.43.63-.77,1.05-1.01Z"/>
              <path class="cls-14" d="m570.07,301.17c.57-.33,1.01-.4,1.32-.21.31.2.46.59.46,1.18v4.18s-1.53.89-1.53.89v-3.85c-.01-.31-.08-.5-.23-.56-.14-.07-.34-.02-.59.12-.22.13-.42.3-.6.52-.18.22-.32.47-.43.73-.11.28-.16.55-.16.83v3.35s-1.54.89-1.54.89v-3.85c-.01-.31-.08-.5-.22-.56-.15-.06-.35-.02-.6.13-.22.13-.42.3-.6.52-.18.22-.32.47-.43.73-.11.28-.16.55-.16.83v3.35s-1.54.89-1.54.89l-.02-6.06,1.52-.88v1.1c.17-.42.38-.82.65-1.19.32-.45.72-.81,1.18-1.08.55-.32.98-.39,1.28-.21.16.09.28.24.36.43.16-.4.37-.78.64-1.14.34-.46.75-.83,1.23-1.11Z"/>
              <path class="cls-14" d="m577.66,302.33c.03.19.07.38.12.58l-1.55.9c-.04-.15-.07-.33-.09-.51,0-.12-.02-.26-.02-.41-.14.41-.34.77-.59,1.11-.31.4-.69.74-1.14,1-.52.3-.94.39-1.25.26-.31-.12-.46-.44-.46-.95,0-.56.18-1.12.55-1.68.37-.56.88-1.07,1.54-1.56l1.3-.96v-.31c0-.25-.07-.4-.21-.46s-.35,0-.63.16-.47.32-.63.52-.25.4-.31.62l-1.47.85c.07-.58.31-1.18.73-1.77.41-.6.99-1.11,1.72-1.53s1.33-.57,1.74-.42c.4.16.6.6.6,1.34v2.67c0,.2.02.39.05.57Zm-1.59-.63v-.56s-1.05.78-1.05.78c-.27.21-.48.42-.61.61-.13.2-.2.42-.2.64,0,.2.06.32.19.35.13.03.29-.02.5-.13.33-.19.6-.45.82-.78.23-.34.34-.64.34-.91"/>
              <polygon class="cls-14" points="580.33 292.87 580.36 301.42 578.81 302.31 578.79 293.76 580.33 292.87"/>
              <polygon class="cls-14" points="581.52 291.94 583.17 290.99 583.18 292.91 581.53 293.87 581.52 291.94"/>
              <polygon class="cls-14" points="581.6 300.7 581.58 294.64 583.13 293.75 583.15 299.81 581.6 300.7"/>
              <path class="cls-14" d="m586.35,291.77c.7-.4,1.25-.56,1.66-.47.42.08.65.39.69.94l-1.39.8c-.03-.19-.12-.3-.29-.3-.17-.01-.4.07-.7.24-.27.16-.48.32-.61.49-.13.17-.2.34-.2.5,0,.15.06.22.17.24.11.03.29,0,.55-.1l.95-.32c.53-.18.93-.18,1.2.01.28.19.41.51.41.98,0,.59-.19,1.17-.6,1.73-.41.56-.98,1.06-1.71,1.48-.77.45-1.39.62-1.84.53-.45-.1-.7-.44-.75-1.04l1.39-.8c.03.25.15.39.36.41.2.01.49-.07.84-.28.33-.19.56-.37.71-.57.15-.19.22-.38.22-.58,0-.15-.04-.25-.13-.28-.08-.03-.24-.01-.47.06l-.85.28c-.63.21-1.09.26-1.39.12-.29-.13-.44-.44-.44-.93,0-.59.19-1.15.58-1.71.39-.55.94-1.03,1.64-1.44Z"/>
              <path class="cls-14" d="m594.51,288.5c.22.32.33.8.33,1.4,0,.12,0,.24,0,.35,0,.11-.02.22-.03.33l-3.91,2.26c.05.34.15.57.31.69.22.18.56.13,1.01-.13.24-.14.46-.31.64-.51.18-.2.31-.43.4-.7l1.46-.84c-.17.69-.46,1.32-.88,1.9-.41.58-.95,1.06-1.61,1.44-.58.34-1.09.5-1.53.48-.43-.02-.77-.19-1.01-.53-.24-.33-.36-.81-.36-1.43s.12-1.24.35-1.85c.23-.61.57-1.16.99-1.68.43-.51.92-.93,1.49-1.26s1.02-.46,1.42-.44c.4.03.71.2.94.52Zm-3.6,3.15l2.36-1.36c-.03-.37-.13-.6-.3-.7-.2-.12-.48-.08-.83.13-.41.24-.72.57-.94,1.02-.13.27-.23.57-.28.91"/>
            </g>
          </g>
          <g class="cls-8">
            <g>
              <path class="cls-14" d="m543.11,275.15c.61-.35,1.17-.54,1.66-.55.49-.01.9.14,1.21.46.31.31.51.78.58,1.41l-1.55.9c-.09-.56-.3-.9-.65-1.01-.35-.11-.76-.03-1.23.24-.42.24-.79.57-1.11.99-.32.42-.57.89-.74,1.42-.18.54-.27,1.11-.26,1.72s.09,1.1.28,1.44c.18.34.44.54.76.6.32.06.69-.04,1.11-.28.45-.26.84-.64,1.19-1.15.34-.51.57-1.1.67-1.77l1.57-.91c-.09.72-.28,1.41-.6,2.09-.32.68-.72,1.3-1.2,1.84-.49.56-1.04,1-1.65,1.35-.54.31-1.03.49-1.49.54-.45.04-.85-.04-1.18-.24-.33-.2-.6-.52-.78-.95-.19-.44-.28-.97-.29-1.61s.09-1.28.27-1.92c.18-.64.44-1.24.78-1.83.33-.58.73-1.11,1.18-1.58.45-.47.95-.86,1.49-1.18Z"/>
              <path class="cls-14" d="m552.48,273.72c.24.33.37.8.37,1.43s-.12,1.25-.36,1.87c-.25.62-.58,1.19-1.02,1.71-.43.51-.94.94-1.52,1.27s-1.09.49-1.53.48c-.44,0-.78-.19-1.02-.53-.24-.34-.37-.81-.38-1.44s.12-1.24.37-1.85c.24-.6.58-1.16,1.02-1.68.44-.51.94-.93,1.52-1.27s1.09-.5,1.53-.5c.43.01.78.18,1.02.51Zm-1.42,3.4c.11-.33.18-.69.18-1.06,0-.55-.13-.89-.38-1.05-.26-.15-.56-.12-.93.09s-.68.54-.92.98c-.25.44-.37.94-.37,1.48,0,.37.06.66.18.85.12.19.28.31.47.34.2.03.42-.02.66-.16s.46-.34.65-.6c.2-.25.36-.55.47-.88"/>
              <path class="cls-14" d="m560.53,267.59c.57-.33,1.01-.4,1.32-.21.31.19.46.59.46,1.18v4.17s-1.54.9-1.54.9v-3.84c-.01-.31-.08-.5-.22-.56s-.34-.02-.59.12c-.22.13-.42.3-.61.53-.18.21-.32.46-.43.73-.1.26-.15.54-.15.83v3.35s-1.54.9-1.54.9v-3.84c-.01-.31-.08-.5-.22-.56s-.34-.02-.59.12c-.22.13-.42.3-.61.53-.18.21-.32.46-.43.73-.1.26-.15.54-.15.83v3.35s-1.54.9-1.54.9l-.02-6.05,1.52-.88v1.11c.17-.43.38-.83.65-1.2.33-.46.72-.81,1.19-1.08.55-.32.98-.39,1.28-.21.16.09.28.24.36.43.16-.4.37-.79.63-1.14.34-.46.75-.83,1.24-1.11Z"/>
              <path class="cls-14" d="m568.82,264.28c.19.36.29.85.29,1.48s-.1,1.26-.3,1.85c-.2.59-.48,1.12-.83,1.59-.36.47-.78.84-1.27,1.12s-.91.39-1.21.3c-.21-.06-.36-.21-.46-.45v3.43s-1.54.9-1.54.9l-.02-8.49,1.52-.88v.98c.11-.35.28-.69.53-1.03.34-.45.75-.82,1.25-1.1s.88-.38,1.23-.33c.35.07.61.27.81.62Zm-1.66,3.91c.22-.43.34-.92.33-1.48s-.12-.91-.35-1.07c-.23-.16-.53-.13-.91.08s-.65.52-.88.96c-.23.43-.34.92-.34,1.48s.12.91.35,1.08c.23.16.53.13.91-.08s.66-.53.89-.96"/>
              <path class="cls-14" d="m574.71,264.94c.02.19.07.38.12.58l-1.55.89c-.05-.15-.07-.32-.09-.51-.01-.12-.02-.26-.02-.42-.15.41-.34.78-.59,1.11-.31.41-.69.74-1.14.99-.52.3-.95.4-1.25.27-.31-.12-.47-.44-.47-.95,0-.56.18-1.12.55-1.68.36-.55.88-1.07,1.54-1.56l1.3-.96v-.32c0-.24-.07-.39-.21-.45-.14-.06-.35,0-.63.16s-.47.32-.63.52c-.15.19-.25.4-.3.62l-1.48.86c.07-.58.31-1.18.73-1.77.42-.6.99-1.11,1.72-1.53s1.34-.58,1.74-.42c.4.16.6.6.6,1.33v2.67c0,.2.02.4.05.58Zm-1.59-.63v-.57s-1.04.79-1.04.79c-.27.21-.48.41-.61.61-.13.2-.2.42-.2.64,0,.2.06.31.19.34.12.03.29-.01.5-.13.32-.18.59-.44.82-.78.23-.33.34-.63.34-.9"/>
              <path class="cls-14" d="m578.1,257.45c.47-.27.88-.41,1.25-.43.37-.02.68.07.92.28.24.2.39.52.46.93l-1.5.87c-.08-.25-.21-.39-.41-.42-.19-.04-.42.02-.68.17s-.47.34-.64.59c-.18.25-.32.53-.42.84-.1.32-.15.66-.14,1.02s.05.63.15.84c.1.2.24.33.42.36.18.04.4,0,.65-.15.26-.15.49-.36.68-.62.2-.27.33-.57.41-.9l1.5-.87c-.07.5-.22.99-.46,1.47-.24.47-.54.91-.91,1.33-.36.4-.78.74-1.24,1-.55.32-1.03.47-1.46.44-.42-.02-.75-.21-.99-.55-.24-.33-.36-.81-.36-1.41s.12-1.22.35-1.84c.23-.61.57-1.17.98-1.68.42-.51.91-.93,1.45-1.24Z"/>
              <path class="cls-14" d="m583.51,252.42v2.02s1.37-.79,1.37-.79v1.35s-1.36.79-1.36.79v2.61c0,.27.07.44.2.5.13.05.34.01.61-.15.1-.06.2-.13.29-.2.09-.08.18-.15.27-.24v1.36c-.09.1-.21.22-.37.34-.16.13-.34.25-.54.36-.67.39-1.18.49-1.5.3-.33-.19-.49-.66-.5-1.43v-2.55s-.99.57-.99.57v-1.35s.98-.57.98-.57v-1.35s1.55-1.56,1.55-1.56Z"/>
              <g class="cls-11">
                <polygon class="cls-14" points="585.77 259.2 585.75 253.15 587.3 252.25 587.31 258.31 585.77 259.2"/>
                <polygon class="cls-14" points="585.69 250.45 587.35 249.49 587.35 251.41 585.7 252.37 585.69 250.45"/>
              </g>
              <path class="cls-14" d="m593.58,249.99c.24.33.36.81.36,1.43s-.12,1.25-.36,1.87c-.24.62-.58,1.19-1.02,1.71-.44.52-.94.94-1.52,1.28s-1.09.49-1.53.48c-.43-.01-.78-.19-1.02-.53-.24-.34-.37-.82-.37-1.45s.12-1.24.36-1.85c.24-.6.59-1.17,1.02-1.68.44-.51.94-.93,1.52-1.27s1.1-.5,1.53-.5c.44,0,.78.18,1.02.5Zm-1.42,3.41c.12-.33.18-.69.18-1.06,0-.55-.13-.89-.38-1.05-.26-.15-.56-.12-.93.09s-.68.54-.92.98c-.25.44-.37.94-.37,1.48,0,.37.06.66.18.85.12.2.27.31.47.34.2.03.42-.02.66-.16s.46-.34.66-.6c.19-.25.35-.55.46-.88"/>
              <path class="cls-14" d="m598.17,245.86c.58-.34,1.03-.41,1.34-.21.31.2.47.61.47,1.24v4.09s-1.54.9-1.54.9v-3.75c-.01-.33-.09-.54-.24-.62-.15-.08-.36-.04-.65.12-.24.14-.45.33-.64.56-.19.24-.34.5-.45.78-.1.28-.16.58-.16.88v3.25s-1.54.89-1.54.89l-.02-6.05,1.52-.88v1.1c.17-.43.38-.83.65-1.2.34-.46.75-.83,1.24-1.11Z"/>
            </g>
          </g>
          <g class="cls-8">
            <g>
              <polygon class="cls-14" points="549.07 232.16 549.07 233.56 545.25 235.77 545.26 237.86 548.84 235.79 548.84 237.16 545.26 239.23 545.27 241.51 549.21 239.23 549.22 240.63 544.42 243.4 543.68 243.83 543.65 235.29 545.25 234.36 549.07 232.16"/>
              <path class="cls-14" d="m553.64,231.9c.59-.34,1.03-.41,1.35-.22.31.2.47.61.47,1.25v4.09s-1.54.9-1.54.9v-3.75c-.01-.34-.09-.54-.24-.62-.15-.08-.36-.04-.65.12-.24.14-.46.32-.64.56-.19.24-.34.5-.45.78-.11.28-.16.58-.16.88v3.25s-1.54.9-1.54.9l-.02-6.05,1.52-.88v1.11c.17-.43.39-.84.66-1.21.33-.46.75-.83,1.23-1.11Z"/>
              <path class="cls-14" d="m559.01,228.8c.46-.27.87-.41,1.25-.43.36-.01.67.08.91.28.24.21.39.52.46.94l-1.5.87c-.07-.25-.21-.39-.4-.44-.2-.03-.43.03-.69.18s-.47.34-.64.59c-.18.25-.32.53-.42.84-.1.32-.14.65-.14,1.01s.05.64.14.85c.1.2.24.33.42.36.18.04.4-.02.65-.16.26-.15.49-.36.69-.63.19-.26.33-.56.4-.89l1.5-.87c-.07.5-.22.99-.46,1.46-.24.48-.54.92-.9,1.33-.37.4-.78.74-1.24,1-.56.32-1.04.47-1.46.44-.42-.03-.76-.2-.99-.54-.24-.34-.36-.81-.36-1.42s.12-1.22.35-1.83c.23-.61.57-1.18.99-1.69.41-.51.9-.92,1.45-1.24Z"/>
              <path class="cls-14" d="m565.51,225.05c.13-.08.23-.12.29-.13v1.67s-.14.06-.14.06c-.06.03-.14.07-.23.13-.49.28-.86.59-1.09.93-.24.33-.35.75-.35,1.24v3.15s-1.54.9-1.54.9l-.02-6.05,1.52-.88v1.11c.12-.42.29-.79.51-1.11.29-.44.64-.77,1.05-1.01Z"/>
              <polygon class="cls-14" points="571.75 221.56 568.58 231.89 567.03 232.79 568.09 229.46 566.1 224.82 567.77 223.86 568.92 226.91 570.1 222.52 571.75 221.56"/>
              <path class="cls-14" d="m577.69,219.49c.19.36.29.85.29,1.48s-.1,1.26-.3,1.85c-.2.59-.48,1.12-.83,1.59-.36.46-.78.84-1.27,1.12s-.91.39-1.21.3c-.21-.07-.36-.22-.46-.45v3.44s-1.54.89-1.54.89l-.02-8.49,1.51-.87v.98c.11-.35.28-.69.53-1.02.34-.45.75-.82,1.25-1.1s.89-.39,1.23-.33.62.27.81.62Zm-1.66,3.9c.22-.43.34-.92.33-1.47s-.12-.91-.35-1.07c-.23-.16-.53-.13-.9.08s-.66.53-.89.95c-.23.43-.34.93-.34,1.48s.12.92.35,1.08c.23.17.54.14.91-.08s.66-.53.89-.97"/>
              <path class="cls-14" d="m580.74,214.35v2.02s1.37-.79,1.37-.79v1.35s-1.36.79-1.36.79v2.61c0,.27.07.43.21.49.13.06.33,0,.61-.15.1-.06.2-.12.29-.21.09-.07.18-.15.27-.24v1.35c-.09.11-.21.23-.38.35-.16.13-.34.25-.54.36-.68.39-1.18.49-1.51.31-.33-.19-.49-.66-.5-1.43v-2.55s-.98.56-.98.56v-1.35s.97-.56.97-.56v-1.36s1.55-1.56,1.55-1.56Z"/>
              <path class="cls-14" d="m590.77,209.34c.22.28.33.68.33,1.21s-.11,1.06-.33,1.59c-.22.53-.52,1.02-.92,1.47-.4.46-.87.84-1.41,1.15l-1.94,1.12v3.22s-1.59.92-1.59.92l-.02-8.55,3.54-2.04c.55-.32,1.02-.48,1.42-.49.4,0,.7.13.92.39Zm-1.56,3.23c.2-.35.3-.72.3-1.1s-.1-.62-.31-.73-.49-.06-.85.15l-1.86,1.07v2.53s1.87-1.07,1.87-1.07c.36-.21.64-.49.85-.84"/>
              <polygon class="cls-14" points="593.43 206.55 593.45 215.09 591.86 216.01 591.84 207.46 593.43 206.55"/>
              <polygon class="cls-14" points="596.05 205.03 596.07 213.58 594.48 214.5 594.46 205.95 596.05 205.03"/>
            </g>
          </g>
        </g>
        <g>
          <polygon class="cls-56" points="363.32 168.02 363.32 204.94 363.32 332.92 363.32 357.94 363.32 369.83 496.32 444.24 496.32 414.34 496.32 410 496.32 245.1 363.32 168.02"/>
          <g class="cls-8">
            <text class="cls-12" transform="translate(402.27 294.78) rotate(30) scale(1.02 .87) skewX(26.14)"><tspan class="cls-33" x="0" y="0">C</tspan><tspan x="8.72" y="0">UR</tspan><tspan class="cls-65" x="27" y="0">A</tspan><tspan x="35.77" y="0">TE</tspan></text>
          </g>
        </g>
      </g>
      <g>
        <polygon class="cls-51" points="496.32 237.35 641.53 155.71 641.53 120.98 496.32 202.62 496.32 237.35"/>
        <polyline class="cls-54" points="363.32 163.44 496.32 237.84 496.32 203.6 363.32 126.52 363.32 163.44"/>
        <text class="cls-12" transform="translate(404.63 171.45) rotate(30) scale(1.02 .87) skewX(26.14)"><tspan x="0" y="0">INGE</tspan><tspan class="cls-17" x="30.94" y="0">S</tspan><tspan x="38.47" y="0">T</tspan></text>
        <g class="cls-8">
          <g>
            <path class="cls-14" d="m536.17,196.82c.22.27.33.67.33,1.2s-.11,1.06-.33,1.59c-.22.53-.53,1.02-.92,1.48-.4.45-.87.84-1.41,1.15l-1.94,1.12v3.21s-1.58.92-1.58.92l-.02-8.55,3.53-2.04c.56-.32,1.03-.48,1.42-.48.4,0,.7.12.92.39Zm-1.56,3.23c.2-.35.3-.72.3-1.09s-.1-.63-.31-.74c-.2-.11-.49-.06-.86.15l-1.86,1.07v2.53s1.87-1.07,1.87-1.07c.37-.21.65-.49.85-.85"/>
            <path class="cls-14" d="m542.27,194.53l.02,6.05-1.52.88v-1.1c-.17.42-.38.82-.65,1.18-.33.46-.73.83-1.2,1.1-.37.21-.69.31-.96.27-.26-.03-.47-.16-.6-.4-.14-.23-.21-.54-.21-.93v-4.09s1.54-.9,1.54-.9v3.75c.01.34.08.55.23.62.14.09.35.05.61-.1.24-.14.44-.31.62-.55.18-.23.32-.49.43-.78.11-.28.16-.58.16-.87v-3.25s1.54-.89,1.54-.89Z"/>
            <polygon class="cls-14" points="545.05 190.43 545.07 198.97 543.52 199.87 543.5 191.32 545.05 190.43"/>
            <polygon class="cls-14" points="547.84 188.82 547.86 197.36 546.31 198.26 546.29 189.71 547.84 188.82"/>
            <polygon class="cls-14" points="552.8 185.36 550.09 197.03 548.75 197.81 551.45 186.14 552.8 185.36"/>
            <path class="cls-14" d="m559.45,183.38c.22.27.33.67.33,1.2s-.11,1.06-.33,1.59c-.22.53-.53,1.02-.92,1.48-.4.45-.87.84-1.41,1.15l-1.94,1.12v3.21s-1.58.92-1.58.92l-.02-8.55,3.53-2.04c.55-.32,1.03-.48,1.42-.48.4,0,.7.12.92.39Zm-1.56,3.23c.2-.35.3-.72.3-1.09s-.1-.63-.3-.74c-.2-.11-.49-.06-.86.15l-1.86,1.07v2.53s1.87-1.07,1.87-1.07c.37-.21.65-.49.85-.85"/>
            <path class="cls-14" d="m565.55,181.09l.02,6.05-1.52.88v-1.11c-.17.43-.38.83-.65,1.2-.32.46-.73.82-1.19,1.09-.38.22-.69.31-.96.27-.27-.03-.47-.16-.61-.4-.13-.23-.21-.54-.21-.93v-4.09s1.54-.9,1.54-.9v3.75c.01.34.08.55.23.62.14.09.35.05.61-.1.24-.14.44-.31.62-.55.18-.23.32-.49.43-.78.11-.28.16-.58.16-.87v-3.25s1.54-.9,1.54-.9Z"/>
            <path class="cls-14" d="m568.73,179.13c.7-.4,1.25-.56,1.67-.49.42.08.64.4.69.94l-1.39.8c-.03-.19-.13-.29-.29-.3-.17-.01-.4.07-.7.24-.28.16-.49.32-.62.49-.13.17-.2.33-.2.5,0,.14.05.23.17.24.11.02.29-.02.55-.1l.95-.32c.53-.18.93-.18,1.21,0,.27.19.41.51.41.98,0,.59-.2,1.17-.6,1.73s-.97,1.05-1.71,1.48-1.39.62-1.84.53c-.45-.1-.7-.45-.74-1.05l1.39-.8c.03.25.15.38.35.41.2.02.49-.07.84-.27.33-.19.56-.38.71-.57.15-.19.22-.39.22-.59,0-.15-.05-.24-.13-.27-.09-.04-.24-.01-.47.06l-.85.29c-.63.21-1.09.25-1.38.11-.3-.13-.45-.44-.45-.92,0-.59.19-1.16.58-1.71.39-.56.94-1.03,1.64-1.44Z"/>
            <path class="cls-14" d="m573.47,174.02v3.54c.17-.4.38-.78.63-1.13.33-.46.75-.83,1.23-1.11.59-.34,1.03-.41,1.35-.21.31.2.46.62.46,1.25v4.09s-1.53.89-1.53.89v-3.75c-.01-.33-.09-.54-.24-.62s-.36-.04-.65.12c-.24.14-.46.33-.64.56-.19.24-.34.5-.45.78-.11.28-.16.58-.16.88v3.25s-1.54.9-1.54.9l-.02-8.55,1.55-.9Z"/>
            <path class="cls-14" d="m585.79,171.92c.19.24.28.59.28,1.06s-.09.93-.28,1.4c-.18.46-.45.89-.79,1.26-.34.39-.74.71-1.21.98l-2.29,1.32-1.3.75-.02-8.55,1.59-.92,1.87-1.08c.66-.38,1.19-.49,1.6-.35.41.15.61.57.61,1.23,0,.42-.08.83-.25,1.23-.17.4-.4.76-.69,1.09-.07.08-.15.16-.23.23.12-.03.24-.04.35-.04.31.01.56.13.75.37Zm-1.59,2.84c.18-.32.26-.67.26-1.06s-.09-.66-.28-.78c-.19-.12-.46-.08-.81.12l-1.58.91v2.52s1.64-.94,1.64-.94c.34-.2.61-.46.78-.77m-2.43-4.22v2.11s1.51-.87,1.51-.87c.33-.19.57-.42.74-.69.17-.27.25-.58.25-.94s-.08-.56-.24-.64c-.16-.09-.4-.04-.72.14l-1.53.88"/>
            <path class="cls-14" d="m591.64,171.44c.03.19.07.38.12.58l-1.55.9c-.04-.15-.07-.32-.09-.51,0-.13-.02-.26-.02-.42-.14.41-.34.78-.59,1.1-.31.42-.69.74-1.14,1-.52.3-.94.4-1.25.27-.31-.12-.47-.44-.47-.95,0-.56.18-1.12.55-1.68.37-.56.88-1.07,1.54-1.56l1.3-.96v-.32c0-.24-.07-.39-.21-.45-.15-.05-.35,0-.63.16s-.47.32-.63.52c-.15.19-.25.4-.31.62l-1.47.85c.07-.58.31-1.18.73-1.77.41-.6.99-1.11,1.72-1.53s1.33-.58,1.74-.42c.4.16.6.6.6,1.33v2.67c0,.2.02.4.05.58Zm-1.59-.63v-.57s-1.05.79-1.05.79c-.27.21-.48.41-.61.61-.13.2-.2.42-.2.64,0,.2.06.31.19.34.13.03.29-.01.5-.13.33-.19.6-.44.82-.78.23-.33.34-.64.34-.9"/>
            <path class="cls-14" d="m594.64,164.18c.7-.4,1.25-.56,1.67-.49.42.08.64.4.69.94l-1.39.8c-.03-.19-.13-.29-.29-.3-.17-.01-.4.07-.7.24-.28.16-.49.32-.62.49-.13.17-.2.33-.2.5,0,.14.05.23.17.24.11.02.29-.01.54-.09l.95-.32c.53-.18.93-.18,1.21,0,.27.19.41.51.41.98,0,.59-.2,1.17-.6,1.73-.4.56-.97,1.05-1.71,1.48s-1.39.62-1.84.53c-.45-.1-.7-.45-.74-1.05l1.38-.8c.04.25.16.38.36.4.2.02.49-.07.84-.27.33-.19.56-.38.71-.57.15-.19.22-.39.22-.59,0-.15-.05-.24-.13-.27-.09-.04-.24-.01-.47.06l-.85.29c-.63.21-1.09.25-1.39.12-.29-.14-.44-.44-.44-.93,0-.59.19-1.16.58-1.71.39-.56.94-1.03,1.64-1.44Z"/>
            <path class="cls-14" d="m602.8,160.91c.22.32.33.78.34,1.39,0,.13,0,.25-.01.36,0,.11-.02.22-.03.32l-3.91,2.25c.05.35.15.58.31.7.23.17.56.13,1.01-.13.25-.14.46-.32.64-.52.18-.2.31-.43.41-.7l1.46-.84c-.17.69-.46,1.32-.88,1.9-.41.57-.95,1.05-1.6,1.42-.59.34-1.1.5-1.53.49s-.77-.19-1.01-.53c-.24-.34-.36-.81-.36-1.43s.11-1.24.35-1.86c.23-.61.57-1.16.99-1.68.43-.51.92-.93,1.49-1.26s1.02-.46,1.41-.43c.4.02.71.19.94.52Zm-3.59,3.14l2.35-1.36c-.03-.36-.13-.6-.3-.7-.2-.12-.48-.07-.84.14-.4.23-.71.57-.94,1.02-.13.27-.23.57-.28.91"/>
            <path class="cls-14" d="m607.72,154.24l1.55-.9.02,8.55-1.52.88v-.94c-.11.32-.27.64-.51.96-.34.46-.75.82-1.22,1.1s-.9.4-1.25.34c-.36-.05-.63-.26-.83-.61-.19-.36-.29-.85-.29-1.48s.1-1.26.3-1.85c.2-.59.48-1.12.84-1.59.36-.46.78-.84,1.26-1.12s.91-.39,1.22-.3c.2.05.35.18.44.37v-3.41Zm-.3,6.99c.23-.43.34-.93.34-1.48s-.12-.92-.35-1.07c-.23-.17-.53-.14-.9.07s-.65.52-.88.96c-.24.44-.35.94-.35,1.49s.12.91.35,1.07c.23.16.53.13.9-.08s.66-.53.89-.95"/>
          </g>
        </g>
      </g>
      <polygon class="cls-52" points="277.12 319.57 277.12 611.62 493.78 476.16 494.52 200.92 277.12 319.57"/>
      <g class="cls-8">
        <g>
          <path class="cls-14" d="m291.16,384.62c.96-.56,1.74-.73,2.31-.53.58.21.9.76.99,1.63l-1.51.87c-.09-.51-.3-.79-.61-.88-.31-.08-.74.03-1.27.33-.47.27-.84.59-1.11.96-.27.37-.41.75-.41,1.11,0,.31.08.52.25.63.17.12.47.12.93.02l1.59-.37c.8-.19,1.38-.16,1.74.1.37.25.55.74.55,1.45,0,.94-.28,1.83-.84,2.67-.57.83-1.36,1.55-2.38,2.14-1.09.63-1.97.84-2.61.63-.65-.2-1.03-.8-1.15-1.78l1.51-.87c.08.56.32.91.72,1.01.4.11.93-.03,1.58-.41.54-.31.94-.66,1.23-1.06.29-.39.43-.79.43-1.19,0-.36-.08-.61-.26-.72-.18-.12-.47-.13-.9-.03l-1.57.36c-.8.18-1.38.16-1.76-.08-.37-.24-.56-.7-.57-1.39,0-.57.12-1.14.39-1.72.25-.57.62-1.11,1.09-1.61.47-.5,1.02-.93,1.65-1.3Z"/>
          <path class="cls-14" d="m301.11,383.47c.25.38.38.93.38,1.63,0,.12,0,.25-.01.37,0,.11-.02.23-.04.35l-4.64,2.68c.06.48.2.81.43.99.3.22.73.18,1.28-.14.33-.19.61-.42.84-.69.24-.28.42-.6.53-.95l1.43-.83c-.2.77-.53,1.5-1.01,2.16-.48.67-1.08,1.2-1.81,1.62-.65.38-1.22.55-1.71.51-.49-.03-.87-.25-1.14-.65-.27-.4-.41-.96-.41-1.68s.13-1.43.4-2.14c.27-.71.64-1.36,1.13-1.94.48-.59,1.05-1.07,1.69-1.44.61-.35,1.14-.52,1.59-.49.45.04.8.24,1.05.62Zm-4.29,3.8l3.12-1.8c-.04-.48-.17-.79-.39-.95-.27-.18-.64-.13-1.11.14-.52.3-.93.74-1.22,1.32-.2.39-.34.82-.4,1.29"/>
          <polygon class="cls-14" points="304.13 377.29 304.16 387.27 302.64 388.15 302.61 378.16 304.13 377.29"/>
          <path class="cls-14" d="m311.14,377.68c.25.38.38.93.38,1.63,0,.12,0,.25-.01.37,0,.11-.02.23-.04.35l-4.64,2.68c.06.48.2.81.43.99.3.22.73.18,1.29-.14.32-.18.6-.42.84-.69.24-.28.42-.6.53-.94l1.44-.83c-.2.77-.53,1.5-1.01,2.16-.48.67-1.08,1.21-1.81,1.62-.65.38-1.22.55-1.71.52-.49-.04-.86-.25-1.13-.65-.27-.4-.41-.96-.41-1.68s.13-1.43.4-2.14c.27-.71.64-1.36,1.13-1.94.48-.58,1.04-1.06,1.68-1.44s1.14-.52,1.6-.49c.45.04.8.24,1.05.62Zm-4.29,3.8l3.12-1.8c-.04-.48-.17-.79-.39-.94-.26-.18-.63-.13-1.11.14-.51.29-.92.74-1.22,1.31-.2.39-.34.82-.4,1.29"/>
          <path class="cls-14" d="m315.4,373.56c.51-.29.97-.46,1.38-.47.41-.02.75.09,1.02.33.26.24.44.59.51,1.07l-1.46.84c-.09-.33-.26-.53-.51-.6-.25-.07-.55,0-.91.21-.33.19-.61.44-.85.76-.24.33-.42.7-.55,1.11-.13.42-.19.85-.19,1.31s.07.82.19,1.09c.13.27.31.43.56.48.24.05.52-.02.84-.2.36-.21.66-.49.91-.85.25-.36.41-.75.5-1.18l1.46-.84c-.07.56-.24,1.12-.51,1.66-.27.55-.6,1.05-1.01,1.5-.41.46-.86.82-1.37,1.12-.62.36-1.16.52-1.64.47-.47-.05-.84-.27-1.11-.66-.27-.41-.41-.96-.41-1.68s.13-1.42.4-2.13c.27-.71.64-1.36,1.11-1.94.47-.59,1.01-1.06,1.63-1.41Z"/>
          <path class="cls-14" d="m321.42,367.95v2.26s1.68-.97,1.68-.97v1.38s-1.67.97-1.67.97v3.41c.01.34.09.55.25.63.17.07.42,0,.76-.19.14-.08.26-.17.37-.25.11-.08.21-.17.31-.26v1.36c-.09.11-.23.23-.4.37-.18.13-.37.26-.59.39-.75.43-1.31.55-1.67.35s-.54-.72-.54-1.54v-3.37s-1.2.69-1.2.69v-1.38s1.18-.69,1.18-.69v-1.61s1.53-1.54,1.53-1.54Z"/>
          <path class="cls-14" d="m331.98,361.05c.97-.56,1.74-.73,2.31-.53.58.21.91.75.99,1.63l-1.51.87c-.09-.51-.29-.8-.6-.88-.31-.08-.74.03-1.27.34-.47.27-.84.59-1.11.96-.27.37-.41.74-.41,1.11,0,.31.08.52.25.63.17.12.47.12.92.03l1.6-.37c.8-.19,1.38-.16,1.74.1.37.25.55.74.55,1.45,0,.94-.28,1.83-.84,2.67-.57.83-1.36,1.55-2.38,2.14-1.1.63-1.97.84-2.62.64-.65-.2-1.03-.8-1.14-1.79l1.51-.87c.07.57.32.91.71,1.01.41.1.93-.03,1.58-.41.54-.31.95-.67,1.24-1.06.29-.39.43-.79.43-1.19,0-.36-.09-.6-.26-.72-.18-.12-.48-.13-.9-.03l-1.57.36c-.8.18-1.39.16-1.76-.08-.38-.24-.56-.7-.57-1.39,0-.57.12-1.14.38-1.72.26-.58.62-1.12,1.09-1.61.47-.5,1.02-.93,1.65-1.3Z"/>
          <path class="cls-14" d="m342.23,359.82c.28.38.42.93.42,1.66s-.14,1.44-.42,2.17c-.27.72-.65,1.37-1.15,1.97-.49.6-1.06,1.08-1.71,1.46s-1.23.55-1.73.53c-.49-.03-.88-.24-1.15-.64-.28-.41-.42-.96-.42-1.68s.14-1.44.41-2.14c.27-.71.65-1.36,1.15-1.95.5-.6,1.06-1.08,1.72-1.46s1.23-.56,1.73-.53c.49.02.88.23,1.15.62Zm-1.39,3.92c.15-.43.21-.88.21-1.35,0-.7-.16-1.15-.48-1.36-.31-.22-.72-.18-1.21.1s-.9.72-1.22,1.3c-.32.58-.48,1.22-.48,1.92,0,.47.08.84.23,1.1.15.26.35.41.6.46.26.04.55-.03.88-.22s.61-.45.87-.79c.25-.34.46-.73.6-1.15"/>
          <path class="cls-14" d="m349.43,354.04l.02,7.08-1.49.86v-1.32c-.2.51-.46.99-.79,1.44-.4.54-.87.96-1.41,1.28-.42.24-.79.35-1.11.33-.31-.03-.54-.18-.71-.44-.17-.26-.25-.63-.25-1.08v-4.83s1.51-.88,1.51-.88v4.47c.01.43.11.71.3.82.19.12.45.08.8-.12.31-.18.59-.43.83-.73.24-.31.43-.65.57-1.03s.21-.76.21-1.14v-3.82s1.52-.88,1.52-.88Z"/>
          <path class="cls-14" d="m354.39,351.04c.17-.1.29-.15.36-.16v1.65s-.1.03-.17.06c-.07.04-.16.08-.27.15-.59.34-1.02.74-1.31,1.21-.29.46-.43,1.02-.43,1.67v3.69s-1.51.88-1.51.88l-.02-7.08,1.49-.86v1.31c.15-.49.35-.93.61-1.32.34-.51.76-.91,1.24-1.19Z"/>
          <path class="cls-14" d="m358.29,348.79c.51-.29.97-.46,1.38-.47.41-.02.75.09,1.01.33.27.23.44.59.51,1.07l-1.46.84c-.09-.33-.26-.53-.51-.6-.25-.07-.55,0-.91.21-.33.19-.61.44-.85.76-.24.33-.42.7-.55,1.11-.13.42-.2.86-.19,1.31s.07.82.2,1.09c.13.27.31.43.56.48.24.05.52-.02.84-.2.36-.21.66-.49.91-.85s.41-.75.5-1.18l1.46-.84c-.07.56-.24,1.12-.51,1.66-.27.55-.6,1.05-1.01,1.5-.41.46-.86.82-1.37,1.12-.62.36-1.16.52-1.64.47s-.84-.27-1.11-.66c-.27-.41-.41-.96-.41-1.68s.13-1.42.4-2.13c.27-.71.64-1.35,1.11-1.94s1.01-1.06,1.63-1.41Z"/>
          <path class="cls-14" d="m367.63,345.06c.25.38.38.93.38,1.63,0,.12,0,.25-.01.37,0,.11-.02.23-.04.35l-4.64,2.68c.06.48.2.81.43.99.3.22.73.18,1.29-.14.32-.18.61-.42.84-.69.24-.28.42-.6.53-.95l1.44-.83c-.2.78-.54,1.5-1.02,2.17-.48.67-1.08,1.2-1.81,1.62-.65.38-1.22.55-1.71.51s-.87-.25-1.14-.65c-.27-.4-.41-.96-.41-1.68s.13-1.43.4-2.14c.27-.71.64-1.36,1.13-1.94.48-.58,1.04-1.06,1.68-1.44s1.14-.52,1.6-.49c.45.04.8.24,1.05.62Zm-4.29,3.8l3.12-1.8c-.04-.48-.17-.79-.39-.95-.27-.18-.64-.13-1.11.14-.52.3-.93.74-1.22,1.32-.2.39-.33.82-.4,1.29"/>
          <path class="cls-14" d="m380.46,341.28l1.66.98-1.97,1.14-.68-.43c-.38.52-.8,1-1.25,1.42-.47.45-.98.82-1.52,1.13-.67.39-1.25.6-1.76.64s-.9-.08-1.18-.35c-.29-.27-.42-.71-.43-1.29,0-.78.22-1.56.68-2.36.34-.59.8-1.19,1.37-1.78-.17-.13-.31-.25-.42-.38-.15-.17-.26-.36-.33-.55-.06-.2-.1-.42-.1-.67,0-.43.1-.87.3-1.34.2-.47.48-.9.85-1.32.36-.41.78-.75,1.26-1.03s.87-.41,1.25-.43c.37-.02.67.09.88.32.22.23.32.59.32,1.08,0,.56-.18,1.19-.55,1.87-.3.55-.71,1.1-1.24,1.66l1.9,1.11c.07-.19.13-.39.18-.59.16-.6.24-1.27.24-1.99l1.46-.84c0,.66-.07,1.31-.22,1.97-.15.65-.36,1.29-.64,1.9-.02.04-.04.08-.05.12Zm-2.45,1.81c.2-.21.4-.43.58-.68l-2.38-1.49c-.22.23-.42.45-.58.66-.27.35-.46.69-.59.99-.12.31-.18.61-.18.9,0,.52.17.83.51.92.34.11.82-.03,1.44-.39.42-.24.81-.55,1.18-.92m-1.76-6.03c-.17.3-.26.61-.26.89,0,.15.03.3.09.44.05.14.17.28.35.44.1.08.21.16.35.26.38-.39.67-.75.87-1.1.25-.44.38-.84.38-1.19,0-.32-.1-.52-.29-.61-.19-.09-.44-.05-.77.14s-.56.42-.73.72"/>
          <path class="cls-14" d="m388.49,328.43c.97-.56,1.74-.73,2.31-.53.58.21.91.75,1,1.63l-1.51.87c-.08-.51-.29-.8-.6-.88-.31-.08-.74.03-1.27.34-.47.27-.84.59-1.11.96-.27.37-.41.74-.41,1.11,0,.31.08.52.25.63.17.12.47.12.93.02l1.59-.37c.8-.19,1.38-.16,1.74.1.37.25.55.74.55,1.45,0,.94-.28,1.83-.84,2.67-.57.83-1.36,1.55-2.38,2.14-1.1.63-1.97.84-2.62.64-.65-.2-1.03-.8-1.14-1.79l1.51-.87c.07.57.32.91.72,1.01.4.11.93-.03,1.58-.4.54-.31.95-.67,1.24-1.06.29-.39.43-.79.43-1.19,0-.36-.09-.6-.26-.72-.18-.12-.48-.13-.9-.03l-1.57.36c-.8.18-1.39.16-1.76-.08-.38-.24-.56-.7-.57-1.39,0-.57.12-1.14.38-1.72.26-.58.62-1.12,1.09-1.61.47-.5,1.02-.93,1.65-1.3Z"/>
          <polygon class="cls-14" points="394.58 325.06 394.61 333.61 398.88 331.15 398.88 332.58 393.79 335.52 393.04 335.95 393.01 325.97 394.58 325.06"/>
          <path class="cls-14" d="m404.61,319.27l3.21,8.15-1.62.93-.75-2.06-3.52,2.03-.74,2.92-1.55.89,3.17-11.83,1.35-.78.43-.25Zm-2.24,7.36l2.65-1.53-1.34-3.65-1.32,5.18"/>
        </g>
      </g>
      <g class="cls-8">
        <g class="bb">
          <path class="cls-14" d="m464.63,69.28c.22.3.33.74.34,1.31s-.11,1.12-.35,1.68c-.24.57-.56,1.09-.99,1.57-.43.48-.92.88-1.48,1.21l-2.96,1.71-1,.58-.03-10.57,1.35-.78,2.44-1.41c.84-.48,1.5-.63,1.99-.45.49.18.74.67.75,1.47,0,.51-.1,1.01-.3,1.52-.2.5-.47.96-.82,1.37-.1.11-.2.22-.3.32.16-.03.31-.04.45-.03.38.03.67.2.9.5Zm-1.48,3.5c.29-.49.44-1.02.44-1.57,0-.59-.16-.97-.47-1.14-.31-.17-.74-.1-1.27.21l-2.31,1.33v3.74s2.4-1.38,2.4-1.38c.52-.3.93-.7,1.22-1.19m-3.63-5.59v3.24s2.19-1.26,2.19-1.26c.52-.3.92-.68,1.21-1.13.29-.45.43-.95.42-1.49,0-.51-.14-.82-.41-.93-.27-.12-.67-.02-1.18.28l-2.23,1.29"/>
          <polygon class="cls-14" points="467.65 61.29 467.68 71.85 466.35 72.62 466.32 62.06 467.65 61.29"/>
          <path class="cls-14" d="m475.29,61.67c.28.42.42,1.01.42,1.77s-.14,1.5-.41,2.26c-.27.75-.66,1.44-1.16,2.07s-1.09,1.14-1.76,1.52-1.25.55-1.75.5-.9-.28-1.18-.72c-.28-.43-.42-1.02-.43-1.77s.14-1.51.42-2.26c.29-.75.67-1.42,1.17-2.04.5-.62,1.08-1.11,1.74-1.5s1.26-.56,1.76-.53c.51.04.9.26,1.17.68Zm-1.18,4.09c.17-.5.25-1.02.25-1.56,0-.8-.19-1.33-.56-1.58-.37-.25-.85-.21-1.44.13s-1.05.84-1.42,1.53c-.37.68-.55,1.42-.55,2.21,0,.54.09.96.25,1.26.17.31.4.48.7.53.3.05.65-.03,1.03-.26.4-.23.75-.54,1.04-.94.29-.4.52-.84.69-1.34"/>
          <path class="cls-14" d="m483.16,57.11c.24.44.35,1.05.36,1.82s-.12,1.54-.36,2.27c-.25.73-.59,1.38-1.03,1.96-.44.58-.96,1.04-1.56,1.38s-1.12.48-1.53.38c-.3-.08-.53-.27-.68-.58v1.35s-1.26.73-1.26.73l-.03-10.57,1.33-.77v4.34c.17-.47.41-.91.72-1.33.42-.57.93-1.02,1.52-1.37s1.1-.47,1.53-.4.76.33,1,.77Zm-1.5,4.84c.34-.66.51-1.41.51-2.23s-.18-1.35-.52-1.61c-.34-.26-.81-.22-1.39.12s-1.04.84-1.38,1.5c-.34.66-.51,1.41-.51,2.23s.18,1.34.52,1.6c.35.26.81.23,1.4-.11s1.04-.84,1.38-1.5"/>
          <path class="cls-14" d="m493.02,46.48c.97-.56,1.74-.73,2.33-.5.58.23.92.81,1.01,1.76l-1.32.76c-.1-.61-.33-.96-.67-1.08-.35-.11-.81,0-1.41.35-.56.32-1,.7-1.31,1.14s-.47.88-.47,1.34c0,.37.1.62.32.75.21.13.56.14,1.04.04l1.67-.35c.77-.16,1.35-.11,1.72.17.37.28.56.79.56,1.53,0,.94-.28,1.83-.84,2.67-.56.84-1.35,1.55-2.37,2.14-1.1.64-1.99.85-2.66.62-.67-.23-1.06-.87-1.17-1.93l1.32-.76c.08.69.34,1.1.77,1.23s1.02-.02,1.76-.45c.62-.36,1.09-.76,1.41-1.21.32-.45.48-.91.48-1.41,0-.44-.11-.73-.32-.86-.21-.14-.55-.15-1.01-.06l-1.6.33c-.82.17-1.42.14-1.8-.1-.38-.24-.58-.71-.58-1.41,0-.59.12-1.18.39-1.77s.62-1.12,1.1-1.64c.47-.51,1.02-.95,1.65-1.31Z"/>
          <path class="cls-14" d="m499.74,43.55v2.29s1.86-1.07,1.86-1.07v1.22s-1.85,1.07-1.85,1.07v4.02c.01.39.1.63.28.71.18.08.47,0,.87-.22.15-.09.29-.18.41-.28.12-.1.22-.2.31-.28v1.23c-.09.11-.23.22-.39.35-.17.13-.36.25-.57.38-.76.44-1.32.55-1.67.35s-.53-.7-.53-1.49v-4.01s-1.31.75-1.31.75v-1.22s1.3-.75,1.3-.75v-1.72s1.31-1.33,1.31-1.33Z"/>
          <path class="cls-14" d="m508.45,42.52c.28.42.42,1.01.42,1.77s-.14,1.5-.41,2.26c-.27.75-.66,1.44-1.16,2.07s-1.09,1.14-1.76,1.52-1.25.55-1.75.5c-.51-.05-.9-.28-1.18-.72s-.42-1.02-.43-1.77.14-1.51.42-2.26c.29-.75.67-1.42,1.17-2.04.5-.62,1.08-1.11,1.74-1.5s1.26-.56,1.76-.53c.51.04.9.26,1.17.68Zm-1.18,4.09c.17-.5.25-1.02.25-1.56,0-.8-.19-1.33-.56-1.58-.37-.25-.85-.21-1.44.13s-1.05.84-1.42,1.53c-.37.68-.55,1.42-.55,2.21,0,.54.09.96.25,1.26s.4.48.7.53c.3.05.65-.03,1.03-.26s.75-.54,1.04-.94c.29-.4.52-.84.69-1.34"/>
          <path class="cls-14" d="m513.53,37.74c.2-.11.33-.17.41-.18v1.44s-.1.03-.17.07c-.08.04-.17.09-.28.15-.64.37-1.12.84-1.43,1.4-.32.57-.48,1.22-.47,1.98v3.9s-1.32.77-1.32.77l-.02-7.48,1.26-.73v1.45c.16-.56.39-1.05.69-1.5.37-.54.82-.97,1.34-1.27Z"/>
          <path class="cls-14" d="m520.15,40.81c.03.22.07.45.12.68l-1.29.74c-.05-.16-.07-.35-.08-.57,0-.16-.02-.34-.02-.56-.16.48-.4.92-.71,1.33-.4.51-.87.92-1.43,1.24-.66.38-1.19.5-1.58.35-.4-.15-.59-.55-.59-1.19s.2-1.31.61-1.94c.41-.63,1.01-1.23,1.78-1.81l1.85-1.41v-.35c0-.48-.11-.78-.32-.9-.21-.12-.54-.05-.99.21s-.78.55-1.04.89c-.26.35-.41.72-.45,1.1l-1.26.73c.06-.74.33-1.46.83-2.17s1.15-1.3,1.98-1.77,1.49-.63,1.92-.42c.42.21.64.75.64,1.63v3.51c.01.23.02.45.05.67Zm-1.35-1.03v-1.03s-1.65,1.25-1.65,1.25c-.43.33-.76.65-.98.96-.22.31-.32.64-.32,1s.1.54.3.6c.2.05.49-.03.88-.25.51-.29.93-.68,1.27-1.16.34-.48.5-.93.5-1.36"/>
          <path class="cls-14" d="m526.54,30.37l1.26-.73.02,7.18c0,1.08-.28,2.09-.85,3.04-.57.95-1.36,1.71-2.37,2.29-.82.47-1.49.65-2.03.53-.53-.12-.86-.5-.97-1.14l1.25-.72c.08.27.28.42.57.43.29.01.69-.12,1.18-.4.64-.37,1.12-.83,1.43-1.37.31-.54.47-1.18.47-1.89v-1.21c-.15.48-.39.94-.72,1.38-.43.58-.94,1.03-1.53,1.38s-1.07.47-1.51.4c-.44-.06-.77-.3-1.01-.73-.24-.43-.36-1.01-.36-1.77s.12-1.5.36-2.22c.25-.72.59-1.36,1.04-1.94.45-.57.97-1.03,1.56-1.37s1.12-.48,1.53-.37c.31.08.53.29.67.63v-1.39Zm-.51,5.82c.34-.66.51-1.39.51-2.19s-.18-1.3-.52-1.55c-.35-.25-.81-.21-1.39.12s-1.04.83-1.38,1.48c-.34.65-.51,1.38-.51,2.18s.18,1.3.52,1.56c.35.26.81.22,1.39-.12s1.03-.82,1.37-1.48"/>
          <path class="cls-14" d="m535.18,26.99c.25.41.38.98.38,1.73,0,.12,0,.23,0,.33,0,.11-.01.21-.03.33l-5,2.89c.06.6.22,1.01.51,1.23.35.27.84.23,1.48-.13.38-.22.71-.5,1-.85.28-.35.49-.73.62-1.16l1.25-.72c-.21.83-.57,1.59-1.07,2.28-.5.69-1.12,1.25-1.82,1.65-.66.38-1.23.54-1.73.5-.5-.04-.89-.28-1.17-.7-.28-.42-.42-1.02-.43-1.78s.14-1.53.41-2.27c.27-.74.66-1.42,1.16-2.03.5-.61,1.07-1.1,1.72-1.48s1.18-.52,1.64-.49c.46.04.82.26,1.08.66Zm-4.63,4.13l3.69-2.13c-.05-.55-.21-.93-.46-1.12-.31-.24-.76-.2-1.32.13-.61.35-1.08.86-1.43,1.54-.25.49-.41,1.01-.48,1.58"/>
          <path class="cls-14" d="m447.97,93.72c.97-.56,1.75-.73,2.33-.5.58.23.92.81,1.01,1.76l-1.32.76c-.1-.61-.33-.96-.67-1.08s-.81,0-1.41.35c-.56.32-1,.7-1.31,1.14s-.47.88-.47,1.34c0,.37.1.62.32.75.21.13.56.14,1.04.04l1.67-.35c.77-.16,1.35-.11,1.72.17.37.28.56.79.56,1.53,0,.94-.28,1.83-.84,2.67-.56.84-1.35,1.55-2.37,2.14-1.1.64-1.99.85-2.66.62-.67-.23-1.06-.87-1.17-1.93l1.32-.76c.08.69.34,1.1.77,1.23.44.13,1.02-.02,1.76-.45.62-.36,1.09-.76,1.41-1.21.32-.45.48-.91.48-1.41,0-.44-.11-.73-.32-.86s-.55-.15-1.01-.06l-1.6.33c-.82.17-1.42.14-1.8-.1-.38-.24-.58-.71-.58-1.41,0-.59.12-1.18.39-1.77s.62-1.12,1.1-1.64c.47-.51,1.02-.95,1.65-1.31Z"/>
          <path class="cls-14" d="m455.69,89.28c.59-.34,1.1-.52,1.54-.55.44-.03.78.1,1.02.38s.37.71.37,1.27c0,.49-.09.98-.29,1.48s-.45.94-.77,1.33c-.09.11-.18.21-.27.31.16-.03.3-.04.44-.02.36.04.64.22.84.53.2.31.3.74.3,1.29,0,.61-.13,1.21-.4,1.82-.27.61-.64,1.18-1.1,1.69-.47.52-1,.95-1.61,1.3s-1.19.55-1.67.57c-.48.01-.87-.14-1.17-.48-.3-.34-.48-.84-.55-1.53l1.39-.8c.08.65.3,1.05.63,1.22.33.17.77.09,1.33-.23.51-.29.92-.69,1.22-1.19s.46-1.04.46-1.6-.15-.96-.45-1.15c-.3-.19-.72-.13-1.28.19l-1.03.6v-1.25s.99-.58.99-.58c.49-.28.87-.66,1.15-1.12.27-.46.41-.94.41-1.44s-.14-.83-.4-.97c-.26-.13-.65-.06-1.14.22-.46.27-.86.65-1.18,1.15s-.52,1.07-.59,1.71l-1.39.8c.06-.67.23-1.32.5-1.94.27-.62.64-1.19,1.11-1.72.47-.53.99-.96,1.59-1.3Z"/>
          <polygon class="cls-14" points="463.84 84.18 460.59 98.16 459.44 98.82 462.69 84.84 463.84 84.18"/>
          <path class="cls-14" d="m468.81,81.7c.7-.4,1.33-.62,1.9-.65.57-.03,1.03.12,1.4.44s.58.81.65,1.46l-1.35.78c-.08-.63-.36-1-.82-1.13-.46-.13-1.04,0-1.73.4-.63.36-1.18.85-1.65,1.46-.47.61-.83,1.3-1.09,2.07-.26.77-.39,1.57-.38,2.41s.14,1.51.4,1.97c.26.46.65.7,1.16.74.51.04,1.12-.15,1.83-.57.51-.29.96-.64,1.35-1.03.37-.38.7-.8.98-1.26v-2.26s-2.36,1.36-2.36,1.36v-1.29s3.7-2.14,3.7-2.14v4.08c-.47.84-1.01,1.59-1.63,2.23-.62.64-1.33,1.2-2.13,1.66-.96.56-1.79.82-2.49.77-.7-.05-1.24-.36-1.62-.94-.38-.58-.57-1.42-.58-2.5s.19-2.14.56-3.18c.37-1.05.9-2,1.57-2.85.67-.85,1.45-1.53,2.32-2.04Z"/>
          <path class="cls-14" d="m477.55,76.64c.97-.56,1.75-.73,2.33-.5.58.23.92.81,1.01,1.76l-1.32.76c-.1-.61-.33-.96-.67-1.08s-.81,0-1.41.35c-.56.32-1,.7-1.31,1.14s-.47.88-.47,1.34c0,.37.1.62.32.75.21.13.56.14,1.04.04l1.67-.35c.77-.16,1.35-.11,1.72.17.37.28.56.79.56,1.53,0,.94-.28,1.83-.84,2.67-.56.84-1.35,1.55-2.37,2.14-1.1.64-1.99.85-2.66.62-.67-.23-1.06-.87-1.17-1.93l1.32-.76c.08.69.34,1.1.77,1.23.44.13,1.02-.02,1.76-.45.62-.36,1.09-.76,1.41-1.21.32-.45.48-.91.48-1.41,0-.44-.11-.73-.32-.86s-.55-.15-1.01-.06l-1.6.33c-.82.17-1.42.14-1.8-.1-.38-.24-.58-.71-.58-1.41,0-.59.12-1.18.39-1.77s.62-1.12,1.1-1.64c.47-.51,1.02-.95,1.65-1.31Z"/>
          <path class="cls-14" d="m490.53,69.31l3.5,8.56-1.4.81-.92-2.39-3.96,2.28-.91,3.45-1.33.77,3.43-12.56,1.17-.68.41-.24Zm-2.38,7.74l3.15-1.82-1.59-4.12-1.56,5.94"/>
          <polygon class="cls-14" points="486.02 71.37 482.77 85.35 481.62 86.02 484.87 72.03 486.02 71.37"/>
          <polygon class="cls-14" points="500.09 66.88 500.09 67.95 496.66 75.13 500.21 73.08 500.21 74.3 494.98 77.32 494.97 76.25 498.39 69.07 495.07 70.99 495.07 69.77 500.09 66.88"/>
          <path class="cls-14" d="m507.25,62.74l.02,7.48-1.26.73v-1.39c-.21.55-.5,1.06-.86,1.55-.44.58-.94,1.03-1.5,1.36-.43.25-.82.37-1.15.35-.33-.02-.59-.16-.77-.43-.19-.27-.28-.64-.28-1.12v-5.17s1.31-.77,1.31-.77v4.81c.02.52.12.84.35.97s.54.07.95-.16c.36-.21.69-.49.98-.86.29-.36.51-.76.67-1.21.17-.44.25-.89.25-1.35v-4.04s1.3-.76,1.3-.76Z"/>
          <path class="cls-14" d="m512.41,59.61c.2-.11.33-.17.41-.18v1.44s-.1.03-.17.07c-.08.04-.17.09-.28.15-.64.37-1.12.84-1.43,1.4-.32.57-.48,1.22-.47,1.98v3.9s-1.32.77-1.32.77l-.02-7.48,1.26-.73v1.45c.16-.56.39-1.05.69-1.5.38-.55.82-.97,1.34-1.27Z"/>
          <path class="cls-14" d="m519.33,57.37c.25.41.38.98.38,1.73,0,.12,0,.23,0,.33,0,.11-.01.21-.03.33l-5,2.89c.06.6.23,1.01.51,1.23.35.27.84.23,1.48-.13.38-.22.71-.5,1-.85.28-.35.49-.73.62-1.16l1.25-.72c-.21.83-.57,1.59-1.07,2.28-.5.69-1.11,1.24-1.82,1.65-.66.38-1.23.54-1.73.5-.5-.04-.89-.28-1.17-.7-.28-.42-.42-1.02-.43-1.78s.14-1.53.41-2.27c.27-.74.66-1.42,1.16-2.03s1.08-1.11,1.72-1.48,1.18-.52,1.64-.49c.47.04.83.26,1.08.66Zm-4.63,4.13l3.69-2.13c-.05-.55-.21-.93-.46-1.12-.31-.24-.76-.2-1.32.13-.61.35-1.08.86-1.43,1.54-.25.49-.41,1.01-.48,1.58"/>
          <path class="cls-14" d="m530.04,52.74c.22.3.33.74.34,1.31s-.12,1.12-.35,1.68c-.24.57-.57,1.09-.99,1.57-.43.48-.92.88-1.48,1.21l-2.96,1.71-1,.58-.03-10.56,1.35-.78,2.44-1.41c.83-.48,1.5-.63,1.99-.45.49.18.74.67.75,1.47,0,.51-.1,1.01-.3,1.52-.2.51-.48.96-.82,1.37-.1.11-.2.22-.3.32.16-.03.31-.04.45-.03.37.04.67.2.9.5Zm-1.48,3.5c.29-.49.44-1.02.44-1.57,0-.59-.16-.96-.47-1.14-.31-.17-.74-.1-1.27.21l-2.31,1.33v3.74s2.4-1.38,2.4-1.38c.52-.3.93-.7,1.22-1.19m-3.63-5.59v3.24s2.19-1.26,2.19-1.26c.52-.3.92-.68,1.21-1.13.29-.45.43-.95.42-1.49,0-.51-.14-.82-.41-.93-.27-.12-.67-.02-1.18.28l-2.23,1.29"/>
          <polygon class="cls-14" points="533.06 44.75 533.09 55.32 531.76 56.08 531.73 45.52 533.06 44.75"/>
          <path class="cls-14" d="m540.71,45.13c.28.42.42,1.01.42,1.77s-.14,1.5-.41,2.26c-.28.76-.67,1.44-1.16,2.07-.5.63-1.09,1.14-1.76,1.52s-1.25.55-1.75.5-.9-.28-1.18-.72-.42-1.02-.43-1.77.14-1.51.42-2.26c.29-.75.67-1.42,1.17-2.04.5-.62,1.08-1.11,1.74-1.5s1.26-.56,1.76-.53c.5.04.89.27,1.17.68Zm-1.18,4.09c.16-.5.25-1.02.25-1.56,0-.8-.19-1.33-.56-1.58-.37-.25-.85-.21-1.44.13s-1.05.84-1.42,1.53c-.37.68-.55,1.42-.55,2.21,0,.54.09.96.25,1.26.17.31.4.48.7.53.3.05.65-.03,1.03-.26.4-.23.75-.54,1.04-.94.29-.4.52-.84.69-1.34"/>
          <path class="cls-14" d="m548.57,40.57c.24.44.35,1.05.36,1.82s-.12,1.54-.36,2.27c-.25.73-.59,1.38-1.03,1.96-.45.58-.96,1.04-1.56,1.38s-1.12.48-1.53.38c-.3-.08-.53-.27-.68-.58v1.35s-1.26.73-1.26.73l-.03-10.56,1.33-.77v4.34c.17-.46.41-.91.72-1.33.42-.57.93-1.02,1.52-1.37s1.1-.47,1.53-.4c.43.08.76.33,1,.77Zm-1.5,4.84c.34-.66.51-1.41.51-2.23s-.18-1.35-.52-1.61c-.35-.26-.81-.22-1.39.12s-1.04.84-1.38,1.5c-.34.66-.51,1.41-.51,2.23s.18,1.34.52,1.6c.35.26.81.23,1.4-.11s1.03-.83,1.38-1.5"/>
        </g>
      </g>
    </g>
  </g>
</svg>