<?xml version="1.0" encoding="UTF-8"?><svg xmlns="http://www.w3.org/2000/svg" xmlns:xlink="http://www.w3.org/1999/xlink" viewBox="0 0 763.13 794.37"><defs><style>.av{stroke-width:2.5px;}.av,.aw{stroke-linecap:round;stroke-linejoin:round;}.av,.aw,.ax{fill:none;stroke:#fff;}.aw{stroke-width:2.5px;}.ax{stroke-miterlimit:10;}.ay{opacity:.62;}.az,.ba,.bb,.bc,.bd,.be,.bf,.bg,.bh,.bi,.bj,.bk,.bl,.bm,.bn,.bo,.bp,.bq,.br,.bs,.bt,.bu,.bv,.bw,.bx,.by,.bz,.ca,.cb,.cc,.cd,.ce,.cf,.cg,.ch,.ci,.cj,.ck,.cl,.cm,.cn,.co,.cp,.cq,.cr,.cs,.ct{stroke-width:0px;}.ba{fill:#10aa50;}.bb{fill:#12924f;}.bc{fill:#b8c4c2;}.bd{fill:#336791;}.be{fill:#041527;}.bf{fill:#00a1e0;}.bg{fill:#fff;}.bh{fill:#000307;}.bi{fill:url(#ah);}.bj{fill:url(#ag);}.bk{fill:url(#aa);}.bl{fill:url(#ao);}.bm{fill:url(#af);}.bn{fill:url(#ae);}.bo{fill:url(#ab);}.bp{fill:url(#aj);}.bq{fill:url(#ap);}.br{fill:url(#ai);}.bs{fill:url(#an);}.bt{fill:url(#am);}.bu{fill:url(#ac);}.bv{fill:url(#aq);}.bw{fill:url(#al);}.bx{fill:url(#b);}.by{fill:url(#c);}.bz{fill:url(#e);}.ca{fill:url(#y);}.cb{fill:url(#w);}.cc{fill:url(#x);}.cd{fill:url(#u);}.ce{fill:url(#t);}.cf{fill:url(#f);}.cg{fill:url(#d);}.ch{fill:url(#s);}.ci{fill:url(#j);}.cj{fill:url(#q);}.ck{fill:url(#r);}.cl{fill:url(#i);}.cm{fill:url(#h);}.cn{fill:url(#m);}.co{fill:url(#g);}.cp{fill:url(#o);}.cq{fill:url(#p);}.cr{fill:url(#k);}.cs{fill:url(#n);}.ct{fill:url(#l);}</style><linearGradient id="b" x1="192.03" y1="-279.26" x2="763.13" y2="-279.26" gradientTransform="translate(0 444.11)" gradientUnits="userSpaceOnUse"><stop offset=".02" stop-color="#2666c4"/><stop offset="1" stop-color="#203567"/></linearGradient><linearGradient id="c" x1="192.73" y1="35.4" x2="476.48" y2="35.4" gradientTransform="translate(0 444.11)" gradientUnits="userSpaceOnUse"><stop offset=".02" stop-color="#2666c4"/><stop offset="1" stop-color="#203567"/></linearGradient><linearGradient id="d" x1="476.84" y1="-88.11" x2="758.63" y2="-88.11" gradientTransform="translate(0 444.11)" gradientUnits="userSpaceOnUse"><stop offset=".02" stop-color="#2666c4"/><stop offset="1" stop-color="#203567"/></linearGradient><linearGradient id="e" x1="475.58" y1="161.19" x2="757.37" y2="161.19" gradientTransform="translate(0 444.11)" gradientUnits="userSpaceOnUse"><stop offset=".02" stop-color="#2666c4"/><stop offset="1" stop-color="#203567"/></linearGradient><linearGradient id="f" x1="-1970.87" y1="-409.02" x2="-1931.5" y2="-238.41" gradientTransform="translate(-258.37 2002.61) rotate(122.11) scale(1 -1)" gradientUnits="userSpaceOnUse"><stop offset="0" stop-color="#0e20d5"/><stop offset="1" stop-color="#fff"/></linearGradient><linearGradient id="g" x1="94.75" y1="32.21" x2="252.99" y2="32.21" gradientTransform="translate(0 444.11)" gradientUnits="userSpaceOnUse"><stop offset=".02" stop-color="#2666c4"/><stop offset="1" stop-color="#203567"/></linearGradient><linearGradient id="h" x1="129.57" y1="84.69" x2="252.99" y2="84.69" gradientTransform="translate(0 444.11)" gradientUnits="userSpaceOnUse"><stop offset=".02" stop-color="#2666c4"/><stop offset="1" stop-color="#203567"/></linearGradient><linearGradient id="i" x1="1.29" y1="151.46" x2="72.56" y2="151.46" gradientTransform="translate(0 444.11)" gradientUnits="userSpaceOnUse"><stop offset=".02" stop-color="#2666c4"/><stop offset="1" stop-color="#203567"/></linearGradient><linearGradient id="j" x1="72.48" y1="151.3" x2="143.74" y2="151.3" gradientTransform="translate(0 444.11)" gradientUnits="userSpaceOnUse"><stop offset=".02" stop-color="#2666c4"/><stop offset="1" stop-color="#203567"/></linearGradient><linearGradient id="k" x1="1.29" y1="85.9" x2="143.42" y2="85.9" gradientTransform="translate(0 444.11)" gradientUnits="userSpaceOnUse"><stop offset=".02" stop-color="#2666c4"/><stop offset="1" stop-color="#203567"/></linearGradient><linearGradient id="l" x1="184.72" y1="88.25" x2="342.97" y2="88.25" gradientTransform="translate(0 444.11)" gradientUnits="userSpaceOnUse"><stop offset=".02" stop-color="#2666c4"/><stop offset="1" stop-color="#203567"/></linearGradient><linearGradient id="m" x1="219.55" y1="140.73" x2="342.97" y2="140.73" gradientTransform="translate(0 444.11)" gradientUnits="userSpaceOnUse"><stop offset=".02" stop-color="#2666c4"/><stop offset="1" stop-color="#203567"/></linearGradient><linearGradient id="n" x1="91.26" y1="207.42" x2="162.53" y2="207.42" gradientTransform="translate(0 444.11)" gradientUnits="userSpaceOnUse"><stop offset=".02" stop-color="#2666c4"/><stop offset="1" stop-color="#203567"/></linearGradient><linearGradient id="o" x1="162.45" y1="206.77" x2="233.72" y2="206.77" gradientTransform="translate(0 444.11)" gradientUnits="userSpaceOnUse"><stop offset=".02" stop-color="#2666c4"/><stop offset="1" stop-color="#203567"/></linearGradient><linearGradient id="p" x1="90.86" y1="142.23" x2="233.72" y2="142.23" gradientTransform="translate(0 444.11)" gradientUnits="userSpaceOnUse"><stop offset=".02" stop-color="#2666c4"/><stop offset="1" stop-color="#203567"/></linearGradient><linearGradient id="q" x1="273.24" y1="138.46" x2="431.49" y2="138.46" gradientTransform="translate(0 444.11)" gradientUnits="userSpaceOnUse"><stop offset=".02" stop-color="#2666c4"/><stop offset="1" stop-color="#203567"/></linearGradient><linearGradient id="r" x1="308.06" y1="190.94" x2="431.49" y2="190.94" gradientTransform="translate(0 444.11)" gradientUnits="userSpaceOnUse"><stop offset=".02" stop-color="#2666c4"/><stop offset="1" stop-color="#203567"/></linearGradient><linearGradient id="s" x1="179.78" y1="257.63" x2="251.05" y2="257.63" gradientTransform="translate(0 444.11)" gradientUnits="userSpaceOnUse"><stop offset=".02" stop-color="#2666c4"/><stop offset="1" stop-color="#203567"/></linearGradient><linearGradient id="t" x1="250.97" y1="256.98" x2="322.24" y2="256.98" gradientTransform="translate(0 444.11)" gradientUnits="userSpaceOnUse"><stop offset=".02" stop-color="#2666c4"/><stop offset="1" stop-color="#203567"/></linearGradient><linearGradient id="u" x1="179.46" y1="192.44" x2="322.24" y2="192.44" gradientTransform="translate(0 444.11)" gradientUnits="userSpaceOnUse"><stop offset=".02" stop-color="#2666c4"/><stop offset="1" stop-color="#203567"/></linearGradient><linearGradient id="x" x1="2240.81" y1="-444.96" x2="2384.61" y2="-444.96" gradientTransform="translate(2384.61 966.44) rotate(-180) scale(1 -1)" gradientUnits="userSpaceOnUse"><stop offset="0" stop-color="#3a2aa4"/><stop offset=".22" stop-color="#5c32b6"/><stop offset=".57" stop-color="#7533b4"/><stop offset="1" stop-color="#81d9bf"/></linearGradient><linearGradient id="y" y1="-456.99" y2="-456.99" xlink:href="#x"/><linearGradient id="z" x1="2239.5" y1="-438.59" x2="2383.56" y2="-438.59" xlink:href="#x"/><linearGradient id="aa" x1="2225.83" y1="-352.49" x2="2370.62" y2="-540.89" gradientTransform="translate(2384.61 966.44) rotate(-180) scale(1 -1)" gradientUnits="userSpaceOnUse"><stop offset="0" stop-color="#fff" stop-opacity="0"/><stop offset="1" stop-color="#f6f6f6"/></linearGradient><linearGradient id="ab" x1="2268.93" y1="-419.15" x2="2284.62" y2="-449.81" gradientTransform="translate(2384.61 966.44) rotate(-180) scale(1 -1)" gradientUnits="userSpaceOnUse"><stop offset=".2" stop-color="#fff" stop-opacity="0"/><stop offset="1" stop-color="#f6f6f6"/></linearGradient><linearGradient id="ac" x1="2355.09" y1="-423.52" x2="2343.04" y2="-443.99" xlink:href="#ab"/><linearGradient id="ae" x1="2150.83" y1="-388.1" x2="2294.64" y2="-388.1" xlink:href="#x"/><linearGradient id="af" x1="2150.83" y1="-400.14" x2="2294.64" y2="-400.14" xlink:href="#x"/><linearGradient id="ag" x1="2149.52" y1="-381.74" x2="2293.59" y2="-381.74" xlink:href="#x"/><linearGradient id="ah" x1="2135.86" y1="-295.64" x2="2280.65" y2="-484.04" xlink:href="#aa"/><linearGradient id="ai" x1="2178.96" y1="-362.29" x2="2194.64" y2="-392.96" xlink:href="#ab"/><linearGradient id="aj" x1="2265.11" y1="-366.67" x2="2253.07" y2="-387.14" xlink:href="#ab"/><linearGradient id="al" x1="2061.54" y1="-335.66" x2="2205.35" y2="-335.66" xlink:href="#x"/><linearGradient id="am" x1="2061.54" y1="-347.7" x2="2205.35" y2="-347.7" xlink:href="#x"/><linearGradient id="an" x1="2060.24" y1="-329.3" x2="2204.3" y2="-329.3" xlink:href="#x"/><linearGradient id="ao" x1="2046.57" y1="-243.2" x2="2191.36" y2="-431.6" xlink:href="#aa"/><linearGradient id="ap" x1="2089.67" y1="-309.85" x2="2105.36" y2="-340.52" xlink:href="#ab"/><linearGradient id="aq" x1="2175.83" y1="-314.23" x2="2163.78" y2="-334.7" xlink:href="#ab"/></defs><g id="a"><polygon class="be" points="722.05 402.2 757.19 416.63 439.99 599.74 439.99 564.78 722.05 402.2"/><polyline class="bx" points="763.13 164.48 476.96 329.7 192.03 165.22 478.19 0 762.88 165.22"/><polygon class="by" points="476.48 793.31 192.73 629.51 192.73 165.71 476.48 329.51 476.48 793.31"/><polyline class="cg" points="476.84 431.14 476.84 330.02 758.63 167.35 758.63 268.39 758.63 280.87 758.63 381.91 476.84 544.66 476.84 443.54"/><polyline class="bz" points="475.58 680.03 475.58 578.91 757.37 416.24 757.37 517.28 757.37 530.58 757.37 631.62 475.58 794.37 475.58 693.25"/><path class="bg" d="m625.58,360.81c.73,1.05,1.05,2.59,1.05,4.52,0,1.45-.16,2.91-.57,4.36-.4,1.45-.97,2.83-1.7,4.2-.73,1.29-1.62,2.5-2.59,3.55-.97,1.05-2.1,1.94-3.31,2.67-1.21.73-2.26,1.05-3.31,1.13-.97.08-1.86-.08-2.59-.57-.73-.48-1.29-1.21-1.7-2.18s-.65-2.18-.65-3.64c0-1.94.32-3.8,1.05-5.74.73-1.94,1.7-3.64,2.91-5.17s2.67-2.83,4.2-3.72c1.62-.97,3.07-1.29,4.28-1.21,1.21.08,2.18.65,2.91,1.78Zm-1.7,10.26c.48-1.53.81-3.07.81-4.6s-.24-2.75-.81-3.64c-.48-.89-1.21-1.37-2.18-1.53s-2.02.16-3.23.89c-1.21.73-2.34,1.7-3.23,2.91s-1.62,2.5-2.18,4.04c-.48,1.45-.73,2.99-.73,4.52,0,1.62.24,2.83.81,3.72.48.89,1.21,1.45,2.18,1.62s2.02-.08,3.23-.81,2.34-1.7,3.23-2.91c.81-1.29,1.53-2.67,2.1-4.2"/><polygon class="bg" points="631.8 352.65 631.88 370.18 640.68 365.01 640.68 366.95 630.91 372.6 629.94 373.25 629.86 353.78 631.8 352.65"/><path class="bg" d="m651.51,341.34l6.7,15.59-2.02,1.13-2.02-4.77-7.84,4.52-1.94,7.03-1.86,1.05,6.62-23.27,1.7-.97.65-.32Zm-4.52,14.14l6.54-3.8-3.31-7.92-3.23,11.71"/><path class="bg" d="m673,331.48c.48.57.65,1.45.73,2.67s-.24,2.34-.65,3.47c-.48,1.13-1.13,2.18-1.94,3.15-.89.97-1.94,1.78-3.15,2.5l-4.85,2.83v8l-1.94,1.13-.08-19.39,6.87-3.96c1.21-.73,2.26-1.05,3.15-1.13.81-.08,1.45.16,1.86.73Zm-2.26,7.19c.65-1.05.97-2.18.97-3.39s-.32-1.94-.97-2.18-1.62,0-2.91.73l-4.85,2.75v7.51l4.85-2.75c1.29-.73,2.26-1.62,2.91-2.67"/><path class="bg" d="m651.05,573.86c.66.96,1.03,2.29,1.03,4.06s-.3,3.54-1.03,5.24c-.66,1.77-1.62,3.32-2.8,4.79s-2.66,2.66-4.28,3.61l-4.2,2.43-1.03.59-.07-17.7,1.77-1.03,3.47-1.99c1.62-.96,3.1-1.4,4.28-1.4,1.25,0,2.21.52,2.88,1.4Zm-1.55,9.29c.52-1.4.74-2.8.74-4.2s-.3-2.51-.74-3.25c-.52-.74-1.25-1.18-2.21-1.18s-2.07.3-3.39,1.11l-3.47,1.99.07,14.16,3.47-1.99c1.33-.74,2.43-1.7,3.39-2.88.89-1.11,1.62-2.36,2.14-3.76"/><path class="bg" d="m663.15,579.24c.07.37.07.74.15,1.11l-1.7.96c-.07-.22-.07-.52-.15-.89v-.96c-.22.74-.66,1.48-1.18,2.14-.66.89-1.48,1.55-2.51,2.14-1.18.66-2.07.89-2.73.66s-1.03-.89-1.03-1.99.3-2.14,1.03-3.17c.66-.96,1.62-1.99,2.95-2.95l3.39-2.58v-.59c0-.96-.22-1.55-.59-1.77-.37-.22-1.03-.07-1.84.37-.81.52-1.55,1.11-1.99,1.77-.52.66-.81,1.4-.81,2.14l-1.7.96c.07-1.25.52-2.43,1.33-3.61.81-1.18,1.92-2.14,3.25-2.88,1.4-.81,2.43-1.03,3.1-.66s1.03,1.25,1.03,2.73v6.05c-.07.3,0,.66,0,1.03Zm-1.77-1.92v-1.99l-3.1,2.36c-.81.59-1.4,1.25-1.84,1.84s-.66,1.18-.66,1.84.22,1.03.59,1.11.96-.07,1.7-.52c.96-.59,1.77-1.25,2.36-2.14.66-.89.96-1.7.96-2.51"/><path class="bg" d="m668.75,560.95v3.69l3.32-1.92v1.7l-3.32,1.92v7.38c0,.74.15,1.11.52,1.25.3.15.89,0,1.55-.44.3-.15.52-.37.74-.52s.37-.3.52-.44v1.7c-.15.15-.37.3-.59.52-.3.22-.59.37-.89.59-1.25.74-2.14.89-2.73.59s-.81-1.03-.81-2.29v-7.38l-2.29,1.33v-1.7l2.29-1.33v-2.95l1.7-1.7Z"/><path class="bg" d="m682.77,567.96c.07.37.07.74.15,1.11l-1.7.96c-.07-.22-.07-.52-.15-.89v-.96c-.22.74-.66,1.48-1.18,2.14-.66.89-1.48,1.55-2.51,2.14-1.18.66-2.07.89-2.73.66s-1.03-.89-1.03-1.99.3-2.14,1.03-3.17c.66-.96,1.62-1.99,2.95-2.95l3.39-2.58v-.59c0-.96-.22-1.55-.59-1.77-.37-.22-1.03-.07-1.84.37-.81.52-1.55,1.11-1.99,1.77-.52.66-.81,1.4-.81,2.14l-1.7.96c.07-1.25.52-2.43,1.33-3.61.81-1.18,1.92-2.14,3.25-2.88,1.4-.81,2.43-1.03,3.1-.66s1.03,1.25,1.03,2.73v6.05c-.07.3-.07.66,0,1.03Zm-1.84-1.92v-1.99l-3.1,2.36c-.81.59-1.4,1.25-1.84,1.84s-.66,1.18-.66,1.84.22,1.03.59,1.11.96-.07,1.7-.52c.96-.59,1.77-1.25,2.36-2.14.66-.89,1.03-1.7.96-2.51"/><polygon class="bg" points="640.5 605.35 640.5 621.36 648.61 616.64 648.61 618.41 639.62 623.65 638.73 624.16 638.66 606.39 640.5 605.35"/><path class="bg" d="m659.24,611.11c.07.37.07.74.15,1.11l-1.7.96c-.07-.22-.07-.52-.15-.89v-.89c-.22.74-.66,1.48-1.18,2.14-.66.89-1.48,1.55-2.51,2.14-1.18.66-2.07.89-2.73.66s-1.03-.89-1.03-1.99.3-2.14,1.03-3.17c.66-.96,1.62-1.99,2.95-2.95l3.39-2.58v-.59c0-.96-.22-1.55-.59-1.77-.37-.22-1.03-.07-1.84.37-.81.52-1.55,1.03-1.99,1.77-.52.66-.81,1.4-.81,2.14l-1.7.96c.07-1.25.52-2.43,1.33-3.61.81-1.18,1.92-2.14,3.25-2.88,1.4-.81,2.43-1.03,3.1-.66s1.03,1.25,1.03,2.73v6.05c-.07.22-.07.59,0,.96Zm-1.77-1.92v-1.99l-3.1,2.36c-.81.59-1.4,1.25-1.84,1.84s-.66,1.18-.59,1.84c0,.66.22,1.03.59,1.11s.96-.07,1.7-.52c.96-.59,1.77-1.25,2.36-2.14.59-.89.89-1.7.89-2.51"/><polygon class="bg" points="664.18 591.19 664.25 602.48 669.56 593.77 671.92 592.37 666.17 601.74 672.22 604.84 669.78 606.24 664.25 603.29 664.25 609.41 662.48 610.37 662.48 592.23 664.18 591.19"/><path class="bg" d="m682.62,588.91c.44.66.66,1.62.66,2.88v.44c0,.15,0,.3-.07.52l-8.7,5.02c.07,1.11.44,1.92,1.03,2.36.66.52,1.62.44,2.73-.22.74-.44,1.33-.96,1.84-1.62s.96-1.4,1.18-2.21l1.62-.96c-.37,1.33-.96,2.58-1.84,3.76-.81,1.18-1.84,2.07-2.95,2.73-1.03.59-1.99.89-2.8.81-.81-.07-1.48-.52-1.92-1.25s-.74-1.7-.74-3.02c0-1.25.22-2.51.66-3.76.44-1.25,1.11-2.36,1.92-3.39.81-1.03,1.77-1.84,2.88-2.43,1.03-.59,1.92-.89,2.73-.81.74.15,1.33.52,1.77,1.18Zm-8.11,7.23l7.01-4.06c-.07-1.03-.37-1.7-.89-2.07-.59-.44-1.4-.37-2.51.22-1.11.66-1.99,1.55-2.66,2.8-.52,1.03-.89,2.07-.96,3.1"/><path class="be" d="m475.42,233.8l-99.66-62.54c-16.26-10.2-20.05-25.15-7.94-33.06l76.71-51.6c13.22-8.7,37.97-7.33,55.46,3.65l106.02,66.53c17.4,10.92,19.89,26.39,5.59,34.66l-82.99,47.67c-13.05,7.45-36.58,5.12-53.19-5.3Z"/><path class="bg" d="m532.72,137.43l-62.81,5.9c-5.54.59-9.12,3.15-9.81,6.41l-8.33,38c-.7,2.88,4.33,6.04,9.01,5.66l61.16-4.84c5.72-.48,9.56-2.87,10.25-6.13l9.98-39.05c.96-3.09-4.17-6.31-9.45-5.93Z"/><path class="cf" d="m520,129.45l-62.63,6.01c-5.54.59-9.12,3.15-9.81,6.41l-8.06,38.16c-.7,2.88,4.33,6.04,9.01,5.66l60.9-5.01c5.45-.64,9.29-3.03,9.98-6.29l9.71-39.22c.87-3.15-4.43-6.48-9.1-5.71Z"/><path class="av" d="m582.87,413.17l-28.97,16.73c-3.46,1.99-6.27-.15-6.27-4.72v-38.63c0-4.57,2.8-9.95,6.27-11.94l28.97-16.73c3.46-1.99,6.27.15,6.27,4.72v38.63c-.07,4.57-2.87,9.95-6.27,11.94Z"/><path class="bg" d="m567.83,399.98c-1.03-.15-2.06-.29-3.02-.44-.37-.07-.81-.07-1.18-.22-.07,0-.22-.15-.22-.29v-6.41h.29c1.25.22,2.51.37,3.83.59.22,0,.29.15.29.52,0,2.06,0,4.05,0,6.27Z"/><path class="bg" d="m563.41,400.79c.66.07,1.33.22,1.99.29.74.07,1.47.22,2.21.37.07,0,.22.15.22.29v6.49h-.22c-1.33-.22-2.58-.37-3.91-.59-.15,0-.29-.15-.29-.22v-6.63Z"/><path class="bg" d="m568.86,407.5v-6.27c0-.22.07-.52.22-.66,1.33-1.77,2.65-3.54,4.05-5.31l.15-.15v6.27c0,.15-.07.52-.22.66-1.33,1.77-2.65,3.46-3.98,5.16-.07.07-.15.15-.22.29Z"/><path class="bg" d="m568.79,399.32v-6.27c0-.15.07-.52.15-.59,1.33-1.77,2.73-3.54,4.05-5.31q.07-.07.15-.22v.52c0,1.84,0,3.76.07,5.6,0,.37-.07.66-.37.96-1.25,1.62-2.51,3.24-3.69,4.86-.07.15-.15.22-.37.44Z"/><path class="bg" d="m573.28,403.22v6.34c0,.15-.07.44-.15.59-1.33,1.77-2.73,3.54-4.13,5.31,0,.07-.07.07-.15.15v-6.27c0-.22.07-.52.22-.66,1.33-1.77,2.65-3.46,3.98-5.16.07-.07.15-.15.22-.29Z"/><path class="bg" d="m567.9,416.2c-.37-.07-.74-.07-1.03-.15-1.03-.15-2.06-.29-3.1-.44-.15,0-.29-.07-.29-.22v-6.34h.37c1.25.22,2.51.37,3.83.59.15,0,.29.15.29.37,0,1.99.07,3.91.07,5.9-.15.07-.15.15-.15.29Z"/><path class="bg" d="m558.76,391.87c.52.07,1.03.15,1.55.22.66.07,1.25.15,1.92.29.15,0,.22.15.22.37v6.41h-.29c-1.03-.15-2.06-.29-3.1-.44-.15,0-.29-.15-.29-.29,0-2.21,0-4.35,0-6.56Z"/><path class="bg" d="m574.24,392.24v-6.49c0-.07.07-.29.15-.37,1.18-1.55,2.36-3.02,3.54-4.64v6.34c0,.15-.07.52-.15.59-1.11,1.47-2.21,2.95-3.32,4.35l-.22.22Z"/><path class="bg" d="m558.76,400.05c.59.07,1.11.15,1.62.22.59.07,1.18.15,1.77.29.15,0,.22.15.22.29v6.49c-.37-.07-.74-.07-1.03-.15-.81-.15-1.55-.22-2.36-.37-.15,0-.22-.15-.22-.29v-6.49Z"/><path class="bg" d="m578.89,402.63v-6.34c0-.22.07-.52.22-.66,1.03-1.4,2.14-2.8,3.24-4.2.07-.07.07-.15.22-.22v6.34c0,.15-.07.44-.15.59-1.18,1.47-2.29,2.95-3.54,4.5Z"/><path class="bg" d="m577.93,397.18v6.27c0,.22-.07.52-.22.66-1.11,1.47-2.21,2.87-3.32,4.35,0,.07-.07.07-.15.15v-6.19c0-.37.07-.59.29-.88,1.11-1.4,2.21-2.87,3.39-4.35Z"/><path class="bg" d="m554.12,391.13c.66.07,1.25.15,1.92.29.52.07,1.03.15,1.55.22.07,0,.22.07.22.22v6.49h-.29c-1.03-.15-2.06-.29-3.1-.44-.15,0-.22-.22-.22-.37-.07-2.06-.07-4.2-.07-6.41Z"/><path class="bg" d="m577.93,389.07v6.34c0,.15-.07.37-.15.52-1.11,1.47-2.29,2.95-3.39,4.42,0,0-.07,0-.15.07v-6.27c0-.15.07-.44.15-.59,1.11-1.47,2.29-2.95,3.39-4.42,0,0,.07,0,.15-.07Z"/><path class="bg" d="m562.45,415.46c-1.18-.15-2.36-.37-3.54-.52-.07,0-.15-.15-.15-.29v-6.27l.07-.07c.52.07.96.15,1.47.22.66.07,1.25.15,1.92.29.15,0,.22.15.22.29,0,2.06.07,4.05.07,6.12,0,0-.07.07-.07.22Z"/><path class="bg" d="m564.22,391.21c1.4-1.77,2.65-3.46,3.98-5.09.07-.07.22-.22.29-.15,1.33.15,2.65.29,4.05.52-.96,1.25-1.84,2.43-2.73,3.61l-.22.22c-.37.52-.81,1.25-1.18,1.47s-.81-.07-1.18-.07c-1.11-.22-1.99-.37-3.02-.52Z"/><path class="bg" d="m557.81,414.79c-1.03-.15-1.99-.37-3.02-.37-.52,0-.66-.37-.66-1.11.07-1.92,0-3.76,0-5.68h.22c1.03.15,2.14.29,3.17.52.07,0,.22.15.22.29.07,2.06.07,4.13.07,6.34Z"/><path class="bg" d="m557.81,406.69c-.44-.07-.81-.15-1.18-.15-.74-.07-1.4-.22-2.14-.37-.15,0-.22-.15-.22-.29v-6.49c.44.07.81.07,1.18.15.74.07,1.47.22,2.21.37.07,0,.22.15.22.22-.07,2.14-.07,4.28-.07,6.56Z"/><path class="bg" d="m582.5,374.77v6.49c0,.15-.07.29-.07.37-1.11,1.47-2.29,3.02-3.46,4.57v-6.12c0-.37.07-.66.29-.96,1.03-1.25,1.99-2.58,3.02-3.91,0-.15.07-.22.22-.44Z"/><path class="bg" d="m578.89,394.38v-6.27c0-.29.07-.52.29-.81,1.11-1.4,2.14-2.8,3.32-4.35v6.27c0,.37-.07.59-.29.88-1.03,1.25-1.99,2.58-3.02,3.91-.07.07-.15.22-.29.37Z"/><path class="bg" d="m577.49,379.86c-.52.74-1.11,1.47-1.62,2.14-.74.88-1.4,1.84-2.14,2.73-.07.15-.29.29-.37.29-1.33-.15-2.65-.29-3.98-.52.66-.88,1.33-1.7,1.99-2.58.66-.81,1.25-1.62,1.92-2.43.15-.15.29-.29.37-.29,1.25.15,2.58.29,3.83.52q-.07.07,0,.15Z"/><path class="bg" d="m564.22,383.91c.66-.88,1.33-1.7,1.92-2.51.66-.81,1.33-1.7,1.99-2.51.07-.15.29-.22.37-.22,1.33.15,2.58.29,3.91.52-.07.15-.15.29-.22.37-1.18,1.55-2.36,3.1-3.54,4.57-.15.15-.29.29-.37.29-1.4-.22-2.73-.37-4.05-.52Z"/><path class="bg" d="m559.13,390.47c1.03-1.33,2.06-2.58,2.95-3.91.74-1.11,1.33-1.47,2.06-1.25.81.22,1.77.29,2.65.37.07,0,.22,0,.37.07-.81,1.03-1.55,2.06-2.36,3.02-.52.66-.96,1.25-1.47,1.92-.15.15-.29.29-.37.29-1.18-.15-2.43-.37-3.83-.52Z"/><path class="bg" d="m559.57,383.25c1.11-1.47,2.21-2.87,3.32-4.42.52-.66.88-.88,1.33-.81.88.15,1.77.22,2.65.37.07,0,.22.07.37.07-.66.81-1.25,1.62-1.84,2.43-.66.81-1.33,1.7-1.99,2.51-.15.15-.29.29-.37.29-1.11-.15-2.21-.29-3.32-.44-.07.07-.07,0-.15,0Z"/><path class="bg" d="m569.3,377.28c1.18-1.55,2.36-3.02,3.46-4.5.07-.15.22-.22.37-.22,1.25.22,2.51.37,3.76.59,0,0,0,.07.07.07-.74,1.03-1.55,1.99-2.29,3.02-.37.52-.81,1.18-1.18,1.4-.37.22-.81,0-1.18-.07-1.03-.07-1.99-.15-3.02-.29Z"/><path class="bg" d="m562.15,385.09c-1.03,1.33-1.99,2.51-2.87,3.76-.81,1.18-1.47,1.55-2.29,1.33-.74-.22-1.55-.29-2.43-.37,1.03-1.4,2.06-2.65,3.02-3.98.66-.96,1.18-1.25,1.84-1.11.88.22,1.77.22,2.73.37Z"/><path class="bg" d="m581.98,373.96c-1.11,1.47-2.21,2.87-3.32,4.28-.07.07-.15.15-.22.15-1.33-.15-2.65-.29-3.98-.52,1.18-1.47,2.29-2.95,3.39-4.35.07-.15.22-.22.37-.15,1.18.22,2.43.37,3.76.59Z"/><path class="bg" d="m564.59,376.61c.59-.74,1.11-1.4,1.62-2.14.59-.81,1.18-1.55,1.77-2.36.15-.15.29-.37.44-.29,1.18.15,2.29.37,3.46.52-.07.15-.15.29-.22.37-1.03,1.33-2.06,2.73-3.1,4.05-.15.15-.29.29-.44.29-1.11-.15-2.21-.29-3.32-.44-.07.07-.15,0-.22,0Z"/><ellipse class="aw" cx="587.21" cy="609.74" rx="16.74" ry="6.12" transform="translate(-244.96 454.53) rotate(-35.51)"/><path class="av" d="m587.17,629.57c-7.74,4.5-14.09,4.87-14.09.81"/><path class="av" d="m587.17,642.25c-7.74,4.5-14.09,4.87-14.09.81"/><line class="av" x1="601.26" y1="609.5" x2="601.26" y2="601.46"/><path class="av" d="m573.08,617.76v37.4c0,4.06,6.27,3.69,14.09-.81,7.74-4.5,14.09-11.36,14.09-15.42"/><path class="av" d="m589.83,619.9l1.92,2.58c.44.59,1.33,0,1.77-1.03l1.18-3.1c.37-1.03,1.33-1.62,1.77-1.03l1.4,1.77c.44.52,1.33,0,1.7-1.03l1.18-3.1c.44-1.11,1.33-1.62,1.77-1.03l1.11,1.62c.44.59,1.33.07,1.77-.96l1.25-3.25c.44-1.03,1.33-1.55,1.7-1.03l1.4,1.77c.44.52,1.33,0,1.7-1.03l2.07-5.38"/><path class="av" d="m589.83,628.09l1.92,2.58c.44.59,1.33,0,1.77-1.03l1.18-3.1c.37-1.03,1.33-1.62,1.77-1.03l1.4,1.77c.44.52,1.33,0,1.7-1.03l1.18-3.1c.44-1.11,1.33-1.62,1.77-1.03l1.11,1.62c.44.59,1.33.07,1.77-.96l1.25-3.25c.44-1.03,1.33-1.55,1.7-1.03l1.4,1.77c.44.52,1.33,0,1.7-1.03l2.07-5.38"/><path class="av" d="m589.83,636.35l1.92,2.58c.44.59,1.33,0,1.77-1.03l1.18-3.1c.37-1.03,1.33-1.62,1.77-1.03l1.4,1.77c.44.52,1.33,0,1.7-1.03l1.18-3.1c.44-1.11,1.33-1.62,1.77-1.03l1.11,1.62c.44.59,1.33.07,1.77-.96l1.25-3.25c.44-1.03,1.33-1.55,1.7-1.03l1.4,1.77c.44.52,1.33,0,1.7-1.03l2.07-5.38"/><ellipse class="bh" cx="232.92" cy="395.75" rx="6.48" ry="14.58" transform="translate(-205.59 259.43) rotate(-42.25)"/><ellipse class="bh" cx="322.5" cy="451.4" rx="6.48" ry="14.58" transform="translate(-219.73 334.12) rotate(-42.25)"/><polygon class="co" points="218.17 430.64 252.99 450.73 129.57 521.99 94.75 501.91 218.17 430.64"/><polyline class="cm" points="129.57 521.99 129.57 606.87 252.99 535.68 252.99 450.73 129.57 521.99"/><polygon class="cl" points="72.48 660.8 1.29 620.72 1.29 530.34 72.56 570.83 72.48 660.8"/><polygon class="ci" points="72.48 660.8 143.74 618.29 143.42 530.01 72.56 570.83 72.48 660.8"/><polygon class="cr" points="72.48 571.56 143.42 530.01 72.48 488.47 1.29 530.34 72.48 571.56"/><polygon class="ct" points="308.15 486.68 342.97 506.77 219.55 578.04 184.72 557.95 308.15 486.68"/><polyline class="cn" points="219.55 578.04 219.55 662.91 342.97 591.72 342.97 506.77 219.55 578.04"/><polygon class="cs" points="162.45 716.77 91.26 676.68 91.26 586.3 162.53 626.79 162.45 716.77"/><polygon class="cp" points="162.45 716.77 233.72 674.25 233.72 585 162.53 626.79 162.45 716.77"/><polygon class="cq" points="162.45 627.44 233.72 585 162.45 545.24 90.86 586.13 162.45 627.44"/><ellipse class="bh" cx="412.49" cy="502.57" rx="6.48" ry="14.58" transform="translate(-230.76 407.92) rotate(-42.25)"/><polygon class="cj" points="396.66 536.9 431.49 556.98 308.06 628.25 273.24 608.16 396.66 536.9"/><polyline class="ck" points="308.06 628.25 308.06 713.12 431.49 641.93 431.49 556.98 308.06 628.25"/><polygon class="ch" points="250.97 766.98 179.78 726.89 179.78 636.51 251.05 677 250.97 766.98"/><polygon class="ce" points="250.97 766.98 322.24 724.46 322.24 635.21 251.05 677 250.97 766.98"/><polygon class="cd" points="251.05 677.65 322.24 635.21 251.05 595.45 179.46 636.35 251.05 677.65"/><path class="ba" d="m45.1,594.72c-3-19.27-9.23-27.62-10.77-31.83-.65-1.86-1.21-3.73-1.7-5.51-.08,1.54-.24,2.43-1.21,3-2.02,1.21-10.53,5.51-11.18,25.11-.65,18.22,10.29,36.04,11.74,38.06,1.13,1.38,2.43,1.46,3.16,1.13,5.02-1.78,12.23-10.45,9.96-29.97"/><path class="bc" d="m32.95,614.32c-.24,4.45-.49,7.05-1.13,9.23,0,0,.49,4.62.81,9.48l1.13.65c.24-3.08.65-6.15,1.21-8.99-1.46-1.78-1.94-6.32-2.02-10.37Z"/><path class="bb" d="m34.98,624.68h0c-1.46-1.78-1.94-6.32-2.02-10.37.4-6.4.49-12.96.32-19.68-.08-3.56,0-32.23-.65-36.77.49,1.7.97,3.4,1.62,5.1,1.62,4.21,7.86,12.47,10.77,31.83,2.35,19.36-4.78,28.1-10.04,29.88Z"/><g id="v"><path class="az" d="m222.3,721.38c.32-3.08.16-3.56,2.02-2.02l.49.32c1.38.89,3.16,1.54,4.21,1.46,2.27-.08,3.64-1.7,1.38-2.35-5.1-1.54-5.51-4.05-5.51-4.05,5.43-7.61,7.69-19.92,5.75-24.38-5.35-12.15-14.58-13.2-14.74-13.2h-.08c-1.05-.89-2.19-1.7-3.4-2.43-2.35-1.38-4.05-1.54-5.43-.97,0,0-16.44-18.55-15.71,2.35.16,4.45,4.7,35.55,10.04,30.05,1.94-2.02,3.89-3.56,3.89-3.56.97,1.38,2.11,2.43,3.24,3l.08-.08v1.21c-1.38,1.3-.97,1.86-3.73,1.05-2.83-.81-1.13,1.46-.08,2.43,1.3,1.21,4.29,3.56,6.32.89l-.08.4c.57.89.49,4.45.57,7.05s.24,5.1.57,6.72c.4,1.62.89,5.51,4.45,6.56,3.16.97,5.51,1.05,5.75-10.45"/><path class="az" d="m215.5,733.94c-1.13-.65-2.35-1.78-3.4-3.64-.97-1.78-1.38-3.64-1.62-4.7,0-.16-.08-.32-.08-.4-.49-1.94-.65-4.45-.73-7.53v-2.51c-1.54,0-3.4-.89-5.35-2.67-.57-.49-1.05-1.13-1.54-1.78-.32-.49-.65-.97-.81-1.38-1.54.81-3.08-.24-3.89-1.13-1.46-1.46-2.75-4.05-3.97-7.77-.89-2.67-1.7-5.91-2.43-9.8-1.38-6.64-2.19-13.36-2.27-15.47-.24-6.56,1.05-10.45,3.89-11.42,2.35-.81,5.51.32,9.48,3.48,1.7,1.3,3.16,2.75,4.05,3.64,1.62-.32,3.56.16,5.67,1.46,1.13.73,2.27,1.46,3.24,2.27,1.13.16,3.24.73,5.59,2.19,4.54,2.67,8.26,7.13,10.77,12.96.97,2.19,1.78,6.32.24,13.36-.97,4.37-2.59,8.67-4.7,12.07.57.32,1.3.65,2.27.89.57.16,1.05.4,1.46.73.89.73,1.62,1.86,1.86,3.08.81,3.56-2.51,3.97-3.56,4.05-1.3.08-3.4-.65-5.1-1.78l-.08-.08-.32-.24v.32c0,.16,0,.32-.08.49-.08,5.83-.73,9.23-2.11,11.01-1.38,1.86-3.32,1.46-5.02.97-.32-.08-.89-.32-1.46-.65Zm-3.32-23.65c1.05,1.78,1.21,3.97,1.3,7.94v1.38c0,1.3.16,4.37.49,5.83.08.24.08.4.16.65.4,1.86.57,2.59,2.19,3.08,1.38.4,2.11.49,2.67-.24.81-1.13,1.3-4.05,1.38-8.75l1.94,1.13-1.86-1.38c0-.16,0-.4.08-.57.16-1.78.32-3.24,1.3-3.56.65-.24,1.38.08,2.02.57-.49-.97-.65-1.78-.73-2.19l-.16-1.13.49-.65c2.35-3.32,4.29-7.94,5.35-12.71,1.13-5.35.65-8.18.49-8.67-4.21-9.64-11.58-11.01-12.39-11.1h-.16l-.73-.24-.4-.32c-.89-.81-1.94-1.54-3.08-2.19-1.7-1.05-3.08-1.3-4.21-.81l-.89.4-.97-1.13c-1.94-2.19-7.77-7.69-10.77-6.64-1.7.65-2.43,3.32-2.27,7.94.08,1.62.89,8.02,2.19,14.5,1.86,8.91,3.4,11.99,3.89,12.47.08,0,.24,0,.57-.32,1.94-2.02,3.89-3.56,3.97-3.64l1.13-.89,1.3,1.94c.49.65.97,1.21,1.46,1.54l3.16-1.78-.49,5.99v.57l.16,1.3-.57.57h0l1.46,1.78.57-.65Z"/><path class="bd" d="m230.32,718.87c-5.1-1.54-5.51-4.05-5.51-4.05,5.43-7.61,7.69-19.92,5.75-24.38-5.35-12.15-14.58-13.2-14.74-13.2h-.08c-1.05-.89-2.19-1.7-3.4-2.43-2.35-1.38-4.05-1.54-5.43-.97,0,0-16.44-18.55-15.71,2.35.16,4.45,4.7,35.55,10.04,30.05,1.94-2.02,3.89-3.56,3.89-3.56.97,1.38,2.11,2.43,3.24,3l.08-.08v1.21c-1.38,1.3-.97,1.86-3.73,1.05-2.83-.81-1.13,1.46-.08,2.43,1.3,1.21,4.29,3.56,6.32.89l-.08.4c.57.89.89,4.29.89,7.13-.08,2.83-.08,4.78.32,6.64.4,1.78.89,5.51,4.45,6.56,3.08.89,4.62-.49,4.86-4.05.16-2.59.49-1.94.57-4.37l.24-.97c.32-3.4.08-4.78,1.94-3.16l.49.32c1.38.89,3.16,1.54,4.21,1.46,2.43,0,3.73-1.62,1.46-2.27h0Z"/><path class="bg" d="m215.66,732.48c-3.08-1.78-4.05-5.59-4.45-7.13-.57-2.27-.73-9.56-.57-15.87,0-.49.32-.65.65-.49.32.24.65.73.65,1.21-.16,6.96.08,13.44.49,15.14.65,2.59,1.62,5.02,4.45,5.91,2.75.81,3.64.08,4.13-3.16.32-2.51,1.05-9.72,1.13-11.18,0-.49.32-.65.65-.4s.65.81.57,1.21c-.08,1.54-.81,8.75-1.13,11.34-.57,3.81-1.94,4.94-5.1,3.97-.49-.08-.97-.32-1.46-.57Z"/><path class="bg" d="m199.22,707.37c-.32-.16-.57-.4-.81-.65-2.02-2.02-3.89-7.45-5.59-16.04-1.3-6.56-2.19-13.04-2.27-14.98-.24-5.91.89-9.39,3.32-10.29,2.02-.73,4.94.32,8.5,3.16,2.59,2.11,4.62,4.37,4.7,4.45.32.4.49.97.32,1.3-.16.32-.49.32-.81,0-.08-.08-7.77-8.67-12.07-7.13-2.02.73-3,3.81-2.83,9.15.08,1.7.81,8.02,2.19,14.58,1.54,7.61,3.32,12.88,4.78,14.42.24.24.97.97,1.94-.08,1.94-2.02,3.73-3.48,3.81-3.48.24-.16.65,0,.89.49s.24.97,0,1.21c0,0-1.78,1.46-3.73,3.4-.73.97-1.62.89-2.35.49Z"/><path class="bg" d="m224.81,715.55c-.16-.08-.24-.16-.32-.32-.32-.4-.4-.97-.16-1.3,5.43-7.69,7.37-19.6,5.75-23.32-2.02-4.7-4.94-8.26-8.67-10.45-2.75-1.62-4.94-1.94-5.26-2.02h-.08c-.4-.08-.65-.49-.81-.89-.16-.49,0-.89.24-.89.24-.08,2.75.32,5.75,2.11,4.13,2.43,7.53,6.48,9.8,11.74.57,1.3.89,3.08.81,5.26,0,1.94-.32,4.21-.81,6.56-1.13,5.1-3.16,10.04-5.75,13.52-.08.08-.24.08-.49,0Z"/><path class="bg" d="m225.13,720.65c-.97-.57-1.78-1.21-2.27-1.94-.57-.73-.65-1.38-.65-1.7-.16-3.32,1.13-3.24,1.86-3.08-.08-.24-.24-.49-.32-.81-.4-.89-.97-2.19-1.38-3.81-.08-.24-.24-.89-.49-1.62-1.3-3.97-4.05-12.07-2.27-14.5.81-1.05,2.43-.81,4.78.89-.32-1.46-1.13-4.21-2.59-7.37-1.7-3.64-4.7-8.58-9.39-11.42-2.35-1.46-4.29-1.54-5.83-.49-3.32,2.51-3.16,10.61-3.16,10.69,0,.49-.24.73-.65.49-.32-.16-.65-.73-.65-1.21,0-.32-.16-8.91,3.56-11.74,1.7-1.3,3.97-1.13,6.72.49,5.1,3.08,8.42,8.42,10.29,12.39,2.02,4.29,3,8.34,3.08,9.56.08.97-.49.81-.57.81l-.24-.16c-2.92-2.27-4.05-2.11-4.45-1.54-1.3,1.78,1.3,9.39,2.35,12.71.32.81.49,1.46.57,1.78.32,1.38.81,2.43,1.21,3.32.32.73.65,1.38.73,2.02.08.16.73,1.86,4.78,3.08,1.05.32,1.7.97,1.86,1.86.4,1.78-1.7,2.27-2.83,2.35-.97.32-2.67-.16-4.05-1.05Zm-1.7-3c.16.24.81.89,2.11,1.54,1.13.57,2.43.97,3.16.97.89,0,1.46-.24,1.78-.49h0c-2.59-.81-4.45-1.94-5.51-3.48-.08-.08-.16-.16-.16-.24-.08,0-.16,0-.24-.08-.65-.16-1.21-.24-1.13,1.78Z"/><path class="bg" d="m206.59,712.39c-.65-.4-1.3-.89-2.02-1.54-.16-.16-1.94-1.86-1.94-3.32,0-1.38,1.54-.89,2.02-.73,1.94.57,2.11.49,2.67-.24.16-.16.4-.49.73-.73,1.05-.89,1.94.16,2.35.65.65.73,1.21,1.86,1.38,3.08.16,1.05.08,1.86-.24,2.35-1.13,1.54-2.92,1.7-4.94.49Zm-2.59-3.97c.16.24.49.65.81.97,1.7,1.54,4.05,2.92,5.67.89.16-.24.16-.73.08-1.05-.08-.57-.4-1.21-.65-1.54-.32-.4-.57-.57-.97-.24h0c-.24.24-.49.49-.65.65-.81.89-1.13,1.13-3.4.4-.4-.08-.73-.08-.89-.08Zm4.54-1.78h0Z"/><path class="bg" d="m208.45,707.45c-.32-.16-.57-.65-.65-1.05v-.32c-1.46-.89-2.92-2.59-4.05-4.78-1.38-2.75-2.02-5.83-1.78-8.42.32-2.75.16-5.43.16-6.88v-.89c0-.24,0-.97,1.7-1.13.57-.08,1.78-.08,3.08.49,2.19.97,3.56,3.08,3.97,5.91,1.13,7.69.08,10.2-.65,11.99-.16.32-.24.65-.4.97l-.08.32c-.4,1.21-.73,2.27-.65,3.24.08.49-.16.81-.57.65,0-.08-.08-.08-.08-.08Zm-5.02-21.46v.57c.08,1.54.16,4.29-.16,7.21-.24,2.11.24,4.54,1.38,6.8.89,1.78,2.02,3.08,3.24,3.81.16-.65.32-1.38.57-2.02l.08-.24c.16-.4.24-.73.4-1.05.73-1.78,1.62-3.89.57-11.01-.24-1.38-.73-2.35-1.46-3.08-1.62-1.62-4.13-1.3-4.62-.97Z"/><path class="bg" d="m206.91,687.69c0,.24.4,1.21.89,1.62.57.4.97.08,1.05-.16,0-.24-.4-.81-.89-1.21-.57-.4-1.05-.49-1.05-.24h0Z"/><path class="bg" d="m207.97,689.72c-.08,0-.08-.08-.16-.08-.32-.24-.65-.73-.89-1.3-.08-.16-.24-.57-.16-.81,0-.08.08-.24.16-.24.24-.08.65.08,1.05.4.32.24.57.49.73.73.32.49.4.73.32.89,0,.24-.24.4-.4.49-.16.08-.4,0-.65-.08Zm-.81-1.86c0,.24.32.89.73,1.21s.73.08.81-.08c-.08-.08-.32-.49-.73-.81-.49-.32-.81-.32-.81-.32Z"/><path class="bg" d="m223.19,696.52c0,.32-.4.81-.89.57-.57-.24-.97-1.05-1.05-1.38,0-.32.4-.32.89-.16.57.24.97.65,1.05.97h0Z"/><path class="bg" d="m222.14,697.17c-.57-.32-.97-1.13-.97-1.46-.08-.49.49-.49.97-.24.57.24,1.13.65,1.13,1.13h0c0,.16-.08.4-.24.57-.16.08-.4.24-.73.08-.08,0-.16-.08-.16-.08Zm.32-1.3c-.08-.08-.16-.08-.32-.16-.57-.24-.81-.08-.81.08s.4.97.89,1.13c.32.08.49,0,.57-.08.16-.16.24-.32.24-.4s-.16-.32-.57-.57Z"/><path class="bg" d="m223.92,712.96c-.16-.08-.24-.16-.32-.32-.32-.4-.4-.97-.16-1.3,1.21-1.78,1.05-4.45.81-6.96-.08-1.13-.16-2.27-.16-3.24,0-1.05.16-1.86.24-2.67.08-.97.24-1.86.16-3,0-.49.24-.73.57-.57s.65.73.65,1.21c.08,1.3-.08,2.35-.16,3.32-.08.73-.16,1.54-.24,2.51,0,.89.08,1.94.16,3,.24,2.75.49,5.91-.97,8.02-.16.08-.32.08-.57,0Z"/></g><path class="bf" d="m118.64,626.55c1.38-1.13,3.32-1.21,5.51,0,2.83,1.62,5.35,5.26,6.72,9.15,1.13,0,2.43.32,3.81,1.13,5.18,3,9.39,11.1,9.39,18.06s-4.21,10.2-9.39,7.21c-.65-.32-1.21-.81-1.86-1.3-1.21,2.11-3.4,2.75-5.99,1.21-1.05-.65-2.11-1.54-3-2.67-1.21,3.08-3.97,4.05-7.21,2.19-3.4-1.94-6.24-6.48-7.37-11.1-.49-.16-.97-.32-1.46-.65-4.05-2.35-7.29-8.58-7.29-14.01,0-3.64,1.46-5.91,3.64-6.4-.49-1.62-.73-3.32-.73-4.86,0-6.24,3.81-9.07,8.42-6.4,2.83,1.7,5.26,4.86,6.8,8.42"/><path class="bg" d="m106.81,636.35v.16c.08.16.16.24.24.32.4.57.89.89,1.3,1.13.89.49,1.46.16,1.46-.81h0c0-.97-.65-1.62-1.21-2.27l-.08-.08c-.4-.49-.81-.81-.81-1.21h0c0-.32.24-.49.57-.24.4.24.81.65,1.13,1.05,0,0,.08.16.08,0,0-.08.16-.49.16-.57s0-.08-.08-.16c-.32-.49-.81-.89-1.3-1.21l-.08-.08c-.81-.49-1.38-.16-1.38.81h0c0,.97.65,1.7,1.21,2.27l.08.08c.4.4.81.81.81,1.21h0c0,.4-.24.49-.65.24-.16-.08-.65-.4-1.13-1.13-.08-.08-.08-.16-.16-.24,0,0-.08-.08-.08,0l-.08.73h0Zm13.04,7.61v.16c.08.16.16.24.24.32.4.57.89.89,1.3,1.13.89.49,1.46.16,1.46-.81h0c0-.97-.65-1.62-1.21-2.27l-.08-.08c-.4-.49-.81-.81-.81-1.21h0c0-.32.24-.49.57-.24.4.24.81.65,1.13,1.05,0,0,.08.16.08,0,0-.08.16-.49.16-.57s0-.08-.08-.16c-.32-.49-.81-.89-1.3-1.21l-.08-.08c-.81-.49-1.38-.16-1.38.81h0c0,.97.65,1.7,1.21,2.27l.08.08c.4.4.81.81.81,1.21h0c0,.4-.24.49-.65.24-.16-.08-.65-.4-1.13-1.13-.08-.08-.08-.16-.16-.24,0,0-.08-.08-.08,0l-.08.73h0Zm8.99,3.16c0,.57-.08.97-.24,1.21s-.4.24-.73.08-.57-.49-.73-.89-.24-.89-.24-1.46.08-.97.24-1.21c.16-.24.4-.24.73-.08s.57.49.73.89c.16.32.24.89.24,1.46m.73-.65c-.08-.4-.16-.73-.32-1.05s-.32-.65-.57-.89c-.24-.24-.49-.49-.81-.65s-.57-.24-.81-.24-.4.08-.57.24-.24.4-.32.65c-.08.32-.08.65-.08.97,0,.4,0,.73.08,1.13s.16.73.32,1.05.32.65.57.89.49.49.81.65.57.24.81.24.4-.08.57-.24.24-.4.32-.65c.08-.32.08-.65.08-.97,0-.4,0-.81-.08-1.13m6.07,6.24c0-.08-.08-.08-.08-.08-.08,0-.24,0-.32-.08-.16-.08-.24-.08-.4-.16-.32-.24-.65-.49-.89-.89-.24-.4-.32-.89-.32-1.54,0-.57.08-.89.32-1.13.16-.24.49-.24.81,0,.32.16.57.32.81.57,0,0,.08.08.08,0,.08-.24.08-.32.16-.57,0-.08,0-.16-.08-.16-.08-.08-.32-.32-.49-.49-.16-.16-.32-.24-.57-.4-.32-.16-.57-.24-.81-.24s-.4.08-.57.24-.24.4-.32.65-.16.65-.16.97c0,.81.16,1.62.49,2.27s.81,1.21,1.46,1.62c.4.24.81.32,1.05.32,0,0,.08,0,0-.08l-.16-.81h0Zm1.38-1.46c0-.32.08-.57.24-.65.16-.24.4-.24.73-.08s.57.49.73.89c.08.24.16.57.16.89l-1.86-1.05h0Zm2.51.73c-.08-.32-.24-.73-.32-.97-.16-.32-.32-.57-.49-.73-.24-.24-.49-.49-.73-.65-.32-.16-.57-.24-.81-.24s-.4.08-.57.24-.24.4-.32.65c-.08.32-.08.65-.08.97,0,.4,0,.81.08,1.13.08.4.16.73.4,1.05.16.32.4.65.65.89s.57.49.89.73c.73.4,1.13.4,1.3.4,0,0,.08,0,0-.16l-.16-.73c0-.08-.08-.08-.08-.08-.16,0-.4,0-1.05-.32-.4-.24-.65-.57-.89-.89-.16-.32-.24-.73-.32-1.3l2.51,1.46s.08,0,.08-.08c0,.08.08-.49-.08-1.38m-22.76-12.39c0-.32.08-.57.24-.65.16-.24.4-.24.73-.08s.57.49.73.89c.08.24.16.57.16.89l-1.86-1.05Zm2.51.73c-.08-.32-.24-.73-.32-.97-.16-.32-.32-.57-.49-.73-.24-.24-.49-.49-.73-.65-.32-.16-.57-.24-.81-.24s-.4.08-.57.24-.24.4-.32.65c-.08.32-.08.65-.08.97,0,.4,0,.81.08,1.13.08.4.16.73.4,1.05.16.32.4.65.65.89s.57.49.89.73c.73.4,1.13.4,1.3.4,0,0,.08,0,0-.16l-.16-.73c0-.08-.08-.08-.08-.08-.16,0-.4,0-1.05-.32-.4-.24-.65-.57-.89-.89-.16-.32-.24-.73-.32-1.3l2.51,1.46s.08,0,.08-.08c0,.08.08-.49-.08-1.38m-7.94-1.7l-.16-.32c-.08-.16-.08-.32-.08-.49,0-.32.08-.49.24-.49,0,0,.24-.16.73.16l.65.49v1.54h0s-.32-.08-.65-.24c-.57-.24-.73-.65-.73-.65m.97-1.78c-.08-.08-.24-.16-.4-.24-.24-.16-.4-.24-.65-.24-.16-.08-.4,0-.57,0-.16.08-.24.16-.4.32-.08.16-.16.4-.16.73s0,.57.08.81.16.49.32.73c.16.24.32.4.49.57s.4.32.65.49c.24.16.49.24.73.32.24.08.57.16.65.24q.08,0,.16.08c.08,0,.08-.08.08-.08v-3.08c0-.65-.16-1.21-.4-1.7s-.65-.81-1.13-1.13c-.16-.08-.49-.24-.65-.32,0,0-.57-.16-.81-.08,0,0-.08,0,0,.08l.16.73c0,.08.08.08.08.08h.08c.49-.08,1.13.32,1.13.32.24.16.49.32.65.57s.24.49.24.89v.16c-.16-.08-.32-.24-.32-.24m20.33,10.04v-.16c-.08-.08-.24-.24-.4-.32-.32-.24-.49-.24-.65-.24s-.32.08-.4.16v-.4q0-.08-.08-.16l-.65-.4q-.08,0-.08.08v5.02c0,.08,0,.16.08.16l.65.4q.08,0,.08-.08v-2.51c0-.32,0-.65.08-.81s.16-.32.24-.4c.08-.08.16-.08.32-.08.08,0,.24.08.32.16.16.08.24.24.24.24h.08c.08-.16.16-.57.16-.65"/><path class="bg" d="m126.49,640.96c-.08-.08-.16-.16-.24-.24s-.24-.16-.32-.24c-.49-.24-.81-.32-1.05-.08-.24.16-.4.65-.49,1.21v.24l-.57-.32s-.08-.08-.08.08l-.08.65q0,.08.08.16l.57.32-.57,3.89c-.08.32-.08.57-.16.73s-.08.32-.16.4-.16.08-.24.08-.16-.08-.32-.08c-.08,0-.16-.08-.16-.16q-.08-.08-.16-.16s-.08-.08-.08,0-.16.49-.16.57v.16c.08.08.16.16.24.24.16.16.24.16.4.24.24.16.4.24.65.24.16,0,.32-.08.49-.16.16-.16.24-.32.32-.57s.16-.57.24-.97l.57-3.97.81.49s.08.08.08-.08l.08-.65q0-.08-.08-.16l-.81-.49s.08-.4.16-.65c0-.16.08-.24.16-.24.08-.08.16-.08.24-.08s.16.08.24.08c.08.08.16.08.24.16q.08.08.16.08t.08,0l.16-.57c-.24-.08-.24-.16-.24-.16m-11.34.73q0,.08,0,0l-.73-.32c-.08,0-.08-.08-.08-.16v-7.21q0-.08.08-.08l.65.4c.08,0,.08.08.08.16v7.21Z"/><g id="w"><g class="ay"><polygon class="cc" points="71.47 562.39 143.8 521.79 71.9 480.58 0 521.62 71.47 562.39"/><polygon class="ca" points="71.47 550.35 143.8 509.76 71.9 468.55 0 509.58 71.47 550.35"/><polygon class="cb" points="73.21 569.97 145.11 527.85 73.21 485.73 1.05 528.16 73.21 569.97"/><polygon class="bk" points="71.9 542.37 0 500.9 71.81 459.44 143.8 500.9 71.9 542.37"/><polygon class="bo" points="143.8 500.9 143.8 521.79 71.9 563.08 71.9 542.37 143.8 500.9"/><polygon class="bu" points="71.9 542.37 0 500.9 0 521.62 71.9 563.08 71.9 542.37"/></g></g><g id="ad"><g class="ay"><polygon class="bn" points="161.44 619.24 233.78 578.64 161.88 537.44 89.98 578.47 161.44 619.24"/><polygon class="bm" points="161.44 607.2 233.78 566.61 161.88 525.4 89.98 566.44 161.44 607.2"/><polygon class="bj" points="163.19 626.82 235.09 584.7 163.19 542.58 91.02 585.01 163.19 626.82"/><polygon class="bi" points="161.88 599.22 89.98 557.76 161.79 516.29 233.78 557.76 161.88 599.22"/><polygon class="br" points="233.78 557.76 233.78 578.64 161.88 619.93 161.88 599.22 233.78 557.76"/><polygon class="bp" points="161.88 599.22 89.98 557.76 89.98 578.47 161.88 619.93 161.88 599.22"/></g></g><g id="ak"><g class="ay"><polygon class="bw" points="250.73 671.68 323.07 631.08 251.17 589.88 179.26 630.91 250.73 671.68"/><polygon class="bt" points="250.73 659.64 323.07 619.05 251.17 577.84 179.26 618.87 250.73 659.64"/><polygon class="bs" points="252.47 679.26 324.38 637.14 252.47 595.02 180.31 637.45 252.47 679.26"/><polygon class="bl" points="251.17 651.66 179.26 610.2 251.08 568.73 323.07 610.2 251.17 651.66"/><polygon class="bq" points="323.07 610.2 323.07 631.08 251.17 672.37 251.17 651.66 323.07 610.2"/><polygon class="bv" points="251.17 651.66 179.26 610.2 179.26 630.91 251.17 672.37 251.17 651.66"/></g></g></g><g id="ar"><line class="ax" x1="233.15" y1="403.92" x2="233.15" y2="405.54"/><path class="bg" d="m233.56,435.26h-.81v-3h.81v3Zm0-5.99h-.81v-2.92h.81v2.92Zm0-5.91h-.81v-3h.81v3Zm0-5.99h-.81v-3h.81v3Zm0-5.91h-.81v-3h.81v3Z"/><polygon class="bg" points="231.94 441.01 231.53 440.28 232.75 439.63 232.75 438.17 233.56 438.17 233.56 440.04 231.94 441.01"/><path class="bg" d="m106.89,512.19l-.4-.73,1.54-.89.4.73-1.54.89Zm4.29-2.51l-.4-.73,2.75-1.54.4.73-2.75,1.54Zm5.51-3.08l-.4-.73,2.75-1.54.4.73-2.75,1.54Zm5.51-3.16l-.4-.73,2.75-1.54.4.73-2.75,1.54Zm5.51-3.08l-.4-.73,2.75-1.54.4.73-2.75,1.54Zm5.43-3.16l-.4-.73,2.75-1.54.4.73-2.75,1.54Zm5.51-3.16l-.4-.73,2.75-1.54.4.73-2.75,1.54Zm5.51-3.08l-.4-.73,2.75-1.54.4.73-2.75,1.54Zm5.51-3.16l-.4-.73,2.75-1.54.4.73-2.75,1.54Zm5.43-3.08l-.4-.73,2.75-1.54.4.73-2.75,1.54Zm5.51-3.16l-.4-.73,2.75-1.54.4.73-2.75,1.54Zm5.51-3.08l-.4-.73,2.75-1.54.4.73-2.75,1.54Zm5.51-3.16l-.4-.73,2.75-1.54.4.73-2.75,1.54Zm5.43-3.16l-.4-.73,2.75-1.54.4.73-2.75,1.54Zm5.51-3.08l-.4-.73,2.75-1.54.4.73-2.75,1.54Zm5.51-3.16l-.4-.73,2.75-1.54.4.73-2.75,1.54Zm5.51-3.08l-.4-.73,2.75-1.54.4.73-2.75,1.54Zm5.43-3.16l-.4-.73,2.75-1.54.4.73-2.75,1.54Zm5.51-3.16l-.4-.73,2.75-1.54.4.73-2.75,1.54Zm5.51-3.08l-.4-.73,2.75-1.54.4.73-2.75,1.54Zm5.51-3.16l-.4-.73,2.75-1.54.4.73-2.75,1.54Zm5.51-3.08l-.4-.73,2.75-1.54.4.73-2.75,1.54Zm5.43-3.16l-.4-.73,2.75-1.54.4.73-2.75,1.54Z"/><line class="ax" x1="130.22" y1="498.43" x2="128.84" y2="499.24"/></g><g id="as"><line class="ax" x1="323.13" y1="459.96" x2="323.13" y2="461.58"/><path class="bg" d="m323.53,491.22h-.81v-3h.81v3Zm0-5.91h-.81v-3h.81v3Zm0-5.99h-.81v-3h.81v3Zm0-5.91h-.81v-3h.81v3Zm0-5.91h-.81v-3h.81v3Z"/><polygon class="bg" points="321.99 496.97 321.59 496.32 322.72 495.59 322.72 494.22 323.53 494.22 323.53 496.08 321.99 496.97"/><path class="bg" d="m206.67,562.57l-.4-.73,2.75-1.54.4.73-2.75,1.54Zm5.51-3.08l-.4-.73,2.75-1.54.4.73-2.75,1.54Zm5.51-3.16l-.4-.73,2.75-1.54.4.73-2.75,1.54Zm5.51-3.08l-.4-.73,2.75-1.54.4.73-2.75,1.54Zm5.51-3.16l-.4-.73,2.75-1.54.4.73-2.75,1.54Zm5.43-3.16l-.4-.73,2.75-1.54.4.73-2.75,1.54Zm5.51-3.08l-.4-.73,2.75-1.54.4.73-2.75,1.54Zm5.51-3.16l-.4-.73,2.75-1.54.4.73-2.75,1.54Zm5.51-3.08l-.4-.73,2.75-1.54.4.73-2.75,1.54Zm5.43-3.16l-.4-.73,2.75-1.54.4.73-2.75,1.54Zm5.51-3.16l-.4-.73,2.75-1.54.4.73-2.75,1.54Zm5.51-3.08l-.4-.73,2.75-1.54.4.73-2.75,1.54Zm5.51-3.16l-.4-.73,2.75-1.54.4.73-2.75,1.54Zm5.43-3.08l-.4-.73,2.75-1.54.4.73-2.75,1.54Zm5.51-3.16l-.4-.73,2.75-1.54.4.73-2.75,1.54Zm5.51-3.08l-.4-.73,2.75-1.54.4.73-2.75,1.54Zm5.51-3.16l-.4-.73,2.75-1.54.4.73-2.75,1.54Zm5.51-3.16l-.4-.73,2.75-1.54.4.73-2.75,1.54Zm5.43-3.08l-.4-.73,2.75-1.54.4.73-2.75,1.54Zm5.51-3.16l-.4-.73,2.75-1.54.4.73-2.75,1.54Zm5.51-3.08l-.4-.73,2.75-1.54.4.73-2.75,1.54Z"/><line class="ax" x1="220.19" y1="554.47" x2="218.82" y2="555.28"/></g><g id="at"><line class="ax" x1="411.65" y1="510.17" x2="411.65" y2="511.79"/><path class="bg" d="m412.05,541.51h-.81v-3h.81v3Zm0-5.99h-.81v-3h.81v3Zm0-5.91h-.81v-3h.81v3Zm0-5.99h-.81v-3h.81v3Zm0-5.91h-.81v-3h.81v3Z"/><polygon class="bg" points="410.51 547.26 410.11 546.53 411.24 545.8 411.24 544.43 412.05 544.43 412.05 546.29 410.51 547.26"/><path class="bg" d="m292.03,614.64l-.4-.73.49-.24.4.73-.49.24Zm3.16-1.78l-.4-.73,2.75-1.54.4.73-2.75,1.54Zm5.51-3.16l-.4-.73,2.75-1.54.4.73-2.75,1.54Zm5.51-3.08l-.4-.73,2.75-1.54.4.73-2.75,1.54Zm5.51-3.16l-.4-.73,2.75-1.54.4.73-2.75,1.54Zm5.51-3.16l-.4-.73,2.75-1.54.4.73-2.75,1.54Zm5.43-3.08l-.4-.73,2.75-1.54.4.73-2.75,1.54Zm5.51-3.16l-.4-.73,2.75-1.54.4.73-2.75,1.54Zm5.51-3.08l-.4-.73,2.75-1.54.4.73-2.75,1.54Zm5.51-3.16l-.4-.73,2.75-1.54.4.73-2.75,1.54Zm5.43-3.16l-.4-.73,2.75-1.54.4.73-2.75,1.54Zm5.51-3.08l-.4-.73,2.75-1.54.4.73-2.75,1.54Zm5.51-3.16l-.4-.73,2.75-1.54.4.73-2.75,1.54Zm5.51-3.08l-.4-.73,2.75-1.54.4.73-2.75,1.54Zm5.43-3.16l-.4-.73,2.75-1.54.4.73-2.75,1.54Zm5.51-3.16l-.4-.73,2.75-1.54.4.73-2.75,1.54Zm5.51-3.08l-.4-.73,2.75-1.54.4.73-2.75,1.54Zm5.51-3.16l-.4-.73,2.75-1.54.4.73-2.75,1.54Zm5.51-3.08l-.4-.73,2.75-1.54.4.73-2.75,1.54Zm5.43-3.16l-.4-.73,2.75-1.54.4.73-2.75,1.54Zm5.51-3.08l-.4-.73,2.75-1.54.4.73-2.75,1.54Zm5.51-3.16l-.4-.73,2.75-1.54.4.73-2.75,1.54Z"/><line class="ax" x1="308.71" y1="604.68" x2="307.34" y2="605.49"/></g></svg>