<?xml version="1.0" encoding="UTF-8"?><svg xmlns="http://www.w3.org/2000/svg" xmlns:xlink="http://www.w3.org/1999/xlink" viewBox="0 0 919.8 1019.4"><defs><style>.aa{stroke-width:2.5px;}.aa,.ab{stroke-linecap:round;stroke-linejoin:round;}.aa,.ab,.ac{fill:none;stroke:#fff;}.ab{stroke-width:2.5px;}.ac{stroke-miterlimit:10;}.ad,.ae,.af,.ag,.ah,.ai,.aj,.ak,.al,.am,.an,.ao,.ap,.aq,.ar,.as,.at,.au,.av,.aw,.ax,.ay,.az,.ba,.bb,.bc,.bd,.be,.bf{stroke-width:0px;}.ae{fill:#10aa50;}.af{fill:#12924f;}.ag{fill:#b8c4c2;}.ah{fill:#336791;}.ai{fill:#041527;}.aj{fill:#00a1e0;}.ak{fill:#fff;}.al{fill:#000307;}.am{fill:url(#b);}.an{fill:url(#c);}.ao{fill:url(#e);}.ap{fill:url(#u);}.aq{fill:url(#t);}.ar{fill:url(#f);}.as{fill:url(#d);}.at{fill:url(#s);}.au{fill:url(#j);}.av{fill:url(#q);}.aw{fill:url(#r);}.ax{fill:url(#i);}.ay{fill:url(#h);}.az{fill:url(#m);}.ba{fill:url(#g);}.bb{fill:url(#o);}.bc{fill:url(#p);}.bd{fill:url(#k);}.be{fill:url(#n);}.bf{fill:url(#l);}</style><linearGradient id="b" x1="223.3" y1="-243.06" x2="919.8" y2="-243.06" gradientTransform="translate(0 444.11)" gradientUnits="userSpaceOnUse"><stop offset=".02" stop-color="#2666c4"/><stop offset="1" stop-color="#203567"/></linearGradient><linearGradient id="c" x1="224" y1="141.39" x2="571.5" y2="141.39" gradientTransform="translate(0 444.11)" gradientUnits="userSpaceOnUse"><stop offset=".02" stop-color="#2666c4"/><stop offset="1" stop-color="#203567"/></linearGradient><linearGradient id="d" x1="571.1" y1="-10.36" x2="918.6" y2="-10.36" gradientTransform="translate(0 444.11)" gradientUnits="userSpaceOnUse"><stop offset=".02" stop-color="#2666c4"/><stop offset="1" stop-color="#203567"/></linearGradient><linearGradient id="e" x1="571.1" y1="293.14" x2="918.6" y2="293.14" gradientTransform="translate(0 444.11)" gradientUnits="userSpaceOnUse"><stop offset=".02" stop-color="#2666c4"/><stop offset="1" stop-color="#203567"/></linearGradient><linearGradient id="f" x1="-1823.87" y1="-34.45" x2="-1786.12" y2="129.13" gradientTransform="translate(-1407.33 444.11) rotate(-180) scale(1 -1)" gradientUnits="userSpaceOnUse"><stop offset="0" stop-color="#0e20d5"/><stop offset="1" stop-color="#fff"/></linearGradient><linearGradient id="g" x1="115.4" y1="216.39" x2="310.8" y2="216.39" gradientTransform="translate(0 444.11)" gradientUnits="userSpaceOnUse"><stop offset=".02" stop-color="#2666c4"/><stop offset="1" stop-color="#203567"/></linearGradient><linearGradient id="h" x1="158.4" y1="281.19" x2="310.8" y2="281.19" gradientTransform="translate(0 444.11)" gradientUnits="userSpaceOnUse"><stop offset=".02" stop-color="#2666c4"/><stop offset="1" stop-color="#203567"/></linearGradient><linearGradient id="i" x1="0" y1="363.64" x2="88" y2="363.64" gradientTransform="translate(0 444.11)" gradientUnits="userSpaceOnUse"><stop offset=".02" stop-color="#2666c4"/><stop offset="1" stop-color="#203567"/></linearGradient><linearGradient id="j" x1="87.9" y1="363.44" x2="175.9" y2="363.44" gradientTransform="translate(0 444.11)" gradientUnits="userSpaceOnUse"><stop offset=".02" stop-color="#2666c4"/><stop offset="1" stop-color="#203567"/></linearGradient><linearGradient id="k" x1="0" y1="282.69" x2="175.5" y2="282.69" gradientTransform="translate(0 444.11)" gradientUnits="userSpaceOnUse"><stop offset=".02" stop-color="#2666c4"/><stop offset="1" stop-color="#203567"/></linearGradient><linearGradient id="l" x1="226.5" y1="285.59" x2="421.9" y2="285.59" gradientTransform="translate(0 444.11)" gradientUnits="userSpaceOnUse"><stop offset=".02" stop-color="#2666c4"/><stop offset="1" stop-color="#203567"/></linearGradient><linearGradient id="m" x1="269.5" y1="350.39" x2="421.9" y2="350.39" gradientTransform="translate(0 444.11)" gradientUnits="userSpaceOnUse"><stop offset=".02" stop-color="#2666c4"/><stop offset="1" stop-color="#203567"/></linearGradient><linearGradient id="n" x1="111.1" y1="432.74" x2="199.1" y2="432.74" gradientTransform="translate(0 444.11)" gradientUnits="userSpaceOnUse"><stop offset=".02" stop-color="#2666c4"/><stop offset="1" stop-color="#203567"/></linearGradient><linearGradient id="o" x1="199" y1="431.94" x2="287" y2="431.94" gradientTransform="translate(0 444.11)" gradientUnits="userSpaceOnUse"><stop offset=".02" stop-color="#2666c4"/><stop offset="1" stop-color="#203567"/></linearGradient><linearGradient id="p" x1="110.6" y1="352.24" x2="287" y2="352.24" gradientTransform="translate(0 444.11)" gradientUnits="userSpaceOnUse"><stop offset=".02" stop-color="#2666c4"/><stop offset="1" stop-color="#203567"/></linearGradient><linearGradient id="q" x1="335.8" y1="347.59" x2="531.2" y2="347.59" gradientTransform="translate(0 444.11)" gradientUnits="userSpaceOnUse"><stop offset=".02" stop-color="#2666c4"/><stop offset="1" stop-color="#203567"/></linearGradient><linearGradient id="r" x1="378.8" y1="412.39" x2="531.2" y2="412.39" gradientTransform="translate(0 444.11)" gradientUnits="userSpaceOnUse"><stop offset=".02" stop-color="#2666c4"/><stop offset="1" stop-color="#203567"/></linearGradient><linearGradient id="s" x1="220.4" y1="494.74" x2="308.4" y2="494.74" gradientTransform="translate(0 444.11)" gradientUnits="userSpaceOnUse"><stop offset=".02" stop-color="#2666c4"/><stop offset="1" stop-color="#203567"/></linearGradient><linearGradient id="t" x1="308.3" y1="493.94" x2="396.3" y2="493.94" gradientTransform="translate(0 444.11)" gradientUnits="userSpaceOnUse"><stop offset=".02" stop-color="#2666c4"/><stop offset="1" stop-color="#203567"/></linearGradient><linearGradient id="u" x1="220" y1="414.24" x2="396.3" y2="414.24" gradientTransform="translate(0 444.11)" gradientUnits="userSpaceOnUse"><stop offset=".02" stop-color="#2666c4"/><stop offset="1" stop-color="#203567"/></linearGradient></defs><g id="a"><polyline class="am" points="919.8 200.6 570.8 402.1 223.3 201.5 572.3 0 919.5 201.5"/><polygon class="an" points="571.5 969.8 224 769.2 224 201.2 571.5 401.8 571.5 969.8"/><polyline class="as" points="571.1 526.4 571.1 401.7 918.6 201.1 918.6 325.7 918.6 341.1 918.6 465.7 571.1 666.4 571.1 541.7"/><polyline class="ao" points="571.1 829.4 571.1 704.7 918.6 504.1 918.6 628.7 918.6 645.1 918.6 769.7 571.1 970.4 571.1 845.7"/><path class="ak" d="m772.5,420c.9,1.3,1.3,3.2,1.3,5.6,0,1.8-.2,3.6-.7,5.4-.5,1.8-1.2,3.5-2.1,5.2-.9,1.6-2,3.1-3.2,4.4-1.2,1.3-2.6,2.4-4.1,3.3-1.5.9-2.8,1.3-4.1,1.4-1.2.1-2.3-.1-3.2-.7-.9-.6-1.6-1.5-2.1-2.7s-.8-2.7-.8-4.5c0-2.4.4-4.7,1.3-7.1.9-2.4,2.1-4.5,3.6-6.4s3.3-3.5,5.2-4.6c2-1.2,3.8-1.6,5.3-1.5,1.5.1,2.7.8,3.6,2.2Zm-2.1,12.7c.6-1.9,1-3.8,1-5.7s-.3-3.4-1-4.5c-.6-1.1-1.5-1.7-2.7-1.9s-2.5.2-4,1.1c-1.5.9-2.9,2.1-4,3.6s-2,3.1-2.7,5c-.6,1.8-.9,3.7-.9,5.6,0,2,.3,3.5,1,4.6.6,1.1,1.5,1.8,2.7,2s2.5-.1,4-1,2.9-2.1,4-3.6c1-1.6,1.9-3.3,2.6-5.2"/><polygon class="ak" points="780.2 409.9 780.3 431.6 791.2 425.2 791.2 427.6 779.1 434.6 777.9 435.4 777.8 411.3 780.2 409.9"/><path class="ak" d="m804.6,395.9l8.3,19.3-2.5,1.4-2.5-5.9-9.7,5.6-2.4,8.7-2.3,1.3,8.2-28.8,2.1-1.2.8-.4Zm-5.6,17.5l8.1-4.7-4.1-9.8-4,14.5"/><path class="ak" d="m831.2,383.7c.6.7.8,1.8.9,3.3s-.3,2.9-.8,4.3c-.6,1.4-1.4,2.7-2.4,3.9-1.1,1.2-2.4,2.2-3.9,3.1l-6,3.5v9.9l-2.4,1.4-.1-24,8.5-4.9c1.5-.9,2.8-1.3,3.9-1.4,1-.1,1.8.2,2.3.9Zm-2.8,8.9c.8-1.3,1.2-2.7,1.2-4.2s-.4-2.4-1.2-2.7-2,0-3.6.9l-6,3.4v9.3l6-3.4c1.6-.9,2.8-2,3.6-3.3"/><path class="ak" d="m777.6,689.4c.9,1.3,1.4,3.1,1.4,5.5s-.4,4.8-1.4,7.1c-.9,2.4-2.2,4.5-3.8,6.5s-3.6,3.6-5.8,4.9l-5.7,3.3-1.4.8-.1-24,2.4-1.4,4.7-2.7c2.2-1.3,4.2-1.9,5.8-1.9,1.7,0,3,.7,3.9,1.9Zm-2.1,12.6c.7-1.9,1-3.8,1-5.7s-.4-3.4-1-4.4c-.7-1-1.7-1.6-3-1.6s-2.8.4-4.6,1.5l-4.7,2.7.1,19.2,4.7-2.7c1.8-1,3.3-2.3,4.6-3.9,1.2-1.5,2.2-3.2,2.9-5.1"/><path class="ak" d="m794,696.7c.1.5.1,1,.2,1.5l-2.3,1.3c-.1-.3-.1-.7-.2-1.2v-1.3c-.3,1-.9,2-1.6,2.9-.9,1.2-2,2.1-3.4,2.9-1.6.9-2.8,1.2-3.7.9s-1.4-1.2-1.4-2.7.4-2.9,1.4-4.3c.9-1.3,2.2-2.7,4-4l4.6-3.5v-.8c0-1.3-.3-2.1-.8-2.4-.5-.3-1.4-.1-2.5.5-1.1.7-2.1,1.5-2.7,2.4-.7.9-1.1,1.9-1.1,2.9l-2.3,1.3c.1-1.7.7-3.3,1.8-4.9,1.1-1.6,2.6-2.9,4.4-3.9,1.9-1.1,3.3-1.4,4.2-.9s1.4,1.7,1.4,3.7v8.2c-.1.4,0,.9,0,1.4Zm-2.4-2.6v-2.7l-4.2,3.2c-1.1.8-1.9,1.7-2.5,2.5s-.9,1.6-.9,2.5.3,1.4.8,1.5,1.3-.1,2.3-.7c1.3-.8,2.4-1.7,3.2-2.9.9-1.2,1.3-2.3,1.3-3.4"/><path class="ak" d="m801.6,671.9v5l4.5-2.6v2.3l-4.5,2.6v10c0,1,.2,1.5.7,1.7.4.2,1.2,0,2.1-.6.4-.2.7-.5,1-.7s.5-.4.7-.6v2.3c-.2.2-.5.4-.8.7-.4.3-.8.5-1.2.8-1.7,1-2.9,1.2-3.7.8s-1.1-1.4-1.1-3.1v-10l-3.1,1.8v-2.3l3.1-1.8v-4l2.3-2.3Z"/><path class="ak" d="m820.6,681.4c.1.5.1,1,.2,1.5l-2.3,1.3c-.1-.3-.1-.7-.2-1.2v-1.3c-.3,1-.9,2-1.6,2.9-.9,1.2-2,2.1-3.4,2.9-1.6.9-2.8,1.2-3.7.9s-1.4-1.2-1.4-2.7.4-2.9,1.4-4.3c.9-1.3,2.2-2.7,4-4l4.6-3.5v-.8c0-1.3-.3-2.1-.8-2.4-.5-.3-1.4-.1-2.5.5-1.1.7-2.1,1.5-2.7,2.4-.7.9-1.1,1.9-1.1,2.9l-2.3,1.3c.1-1.7.7-3.3,1.8-4.9,1.1-1.6,2.6-2.9,4.4-3.9,1.9-1.1,3.3-1.4,4.2-.9s1.4,1.7,1.4,3.7v8.2c-.1.4-.1.9,0,1.4Zm-2.5-2.6v-2.7l-4.2,3.2c-1.1.8-1.9,1.7-2.5,2.5s-.9,1.6-.9,2.5.3,1.4.8,1.5,1.3-.1,2.3-.7c1.3-.8,2.4-1.7,3.2-2.9.9-1.2,1.4-2.3,1.3-3.4"/><polygon class="ak" points="763.3 732.1 763.3 753.8 774.3 747.4 774.3 749.8 762.1 756.9 760.9 757.6 760.8 733.5 763.3 732.1"/><path class="ak" d="m788.7,739.9c.1.5.1,1,.2,1.5l-2.3,1.3c-.1-.3-.1-.7-.2-1.2v-1.2c-.3,1-.9,2-1.6,2.9-.9,1.2-2,2.1-3.4,2.9-1.6.9-2.8,1.2-3.7.9s-1.4-1.2-1.4-2.7.4-2.9,1.4-4.3c.9-1.3,2.2-2.7,4-4l4.6-3.5v-.8c0-1.3-.3-2.1-.8-2.4-.5-.3-1.4-.1-2.5.5-1.1.7-2.1,1.4-2.7,2.4-.7.9-1.1,1.9-1.1,2.9l-2.3,1.3c.1-1.7.7-3.3,1.8-4.9,1.1-1.6,2.6-2.9,4.4-3.9,1.9-1.1,3.3-1.4,4.2-.9s1.4,1.7,1.4,3.7v8.2c-.1.3-.1.8,0,1.3Zm-2.4-2.6v-2.7l-4.2,3.2c-1.1.8-1.9,1.7-2.5,2.5s-.9,1.6-.8,2.5c0,.9.3,1.4.8,1.5s1.3-.1,2.3-.7c1.3-.8,2.4-1.7,3.2-2.9.8-1.2,1.2-2.3,1.2-3.4"/><polygon class="ak" points="795.4 712.9 795.5 728.2 802.7 716.4 805.9 714.5 798.1 727.2 806.3 731.4 803 733.3 795.5 729.3 795.5 737.6 793.1 738.9 793.1 714.3 795.4 712.9"/><path class="ak" d="m820.4,709.8c.6.9.9,2.2.9,3.9v.6c0,.2,0,.4-.1.7l-11.8,6.8c.1,1.5.6,2.6,1.4,3.2.9.7,2.2.6,3.7-.3,1-.6,1.8-1.3,2.5-2.2s1.3-1.9,1.6-3l2.2-1.3c-.5,1.8-1.3,3.5-2.5,5.1-1.1,1.6-2.5,2.8-4,3.7-1.4.8-2.7,1.2-3.8,1.1-1.1-.1-2-.7-2.6-1.7s-1-2.3-1-4.1c0-1.7.3-3.4.9-5.1.6-1.7,1.5-3.2,2.6-4.6,1.1-1.4,2.4-2.5,3.9-3.3,1.4-.8,2.6-1.2,3.7-1.1,1,.2,1.8.7,2.4,1.6Zm-11,9.8l9.5-5.5c-.1-1.4-.5-2.3-1.2-2.8-.8-.6-1.9-.5-3.4.3-1.5.9-2.7,2.1-3.6,3.8-.7,1.4-1.2,2.8-1.3,4.2"/><path class="ai" d="m340.5,497.71v-112.8c0-18.4,10.2-29.1,22.8-23.3l81,36c13.8,6.3,25.3,27.1,25.3,46.9v120c0,19.7-11.3,29.6-25.3,22.2l-81-43.1c-12.7-6.8-22.8-27.1-22.8-45.9Z"/><path class="ak" d="m444.8,493.71l-36.8-48c-3.3-4.2-7.2-5.8-10.2-4.7l-35.1,12.6c-2.7.9-2.7,6.6,0,10.2l35.1,47.2c3.3,4.4,7.2,6.3,10.2,5.2l36.8-11.8c3-.8,3-6.6,0-10.7Z"/><path class="ar" d="m444.8,479.31l-36.8-47.8c-3.3-4.2-7.2-5.8-10.2-4.7l-35.1,12.9c-2.7.9-2.7,6.6,0,10.2l35.1,46.9c3.3,4.1,7.2,6,10.2,4.9l36.8-12.1c3-.9,3-6.9,0-10.3Z"/><polygon class="ai" points="880.1 488.3 918.6 504.1 571.1 704.7 571.1 666.4 880.1 488.3"/><path class="aa" d="m716.3,500.7l-39.3,22.7c-4.7,2.7-8.5-.2-8.5-6.4v-52.4c0-6.2,3.8-13.5,8.5-16.2l39.3-22.7c4.7-2.7,8.5.2,8.5,6.4v52.4c-.1,6.2-3.9,13.5-8.5,16.2Z"/><path class="ak" d="m695.9,482.8c-1.4-.2-2.8-.4-4.1-.6-.5-.1-1.1-.1-1.6-.3-.1,0-.3-.2-.3-.4v-8.7h.4c1.7.3,3.4.5,5.2.8.3,0,.4.2.4.7,0,2.8,0,5.5,0,8.5Z"/><path class="ak" d="m689.9,483.9c.9.1,1.8.3,2.7.4,1,.1,2,.3,3,.5.1,0,.3.2.3.4v8.8h-.3c-1.8-.3-3.5-.5-5.3-.8-.2,0-.4-.2-.4-.3v-9Z"/><path class="ak" d="m697.3,493v-8.5c0-.3.1-.7.3-.9,1.8-2.4,3.6-4.8,5.5-7.2l.2-.2v8.5c0,.2-.1.7-.3.9-1.8,2.4-3.6,4.7-5.4,7-.1.1-.2.2-.3.4Z"/><path class="ak" d="m697.2,481.9v-8.5c0-.2.1-.7.2-.8,1.8-2.4,3.7-4.8,5.5-7.2q.1-.1.2-.3v.7c0,2.5,0,5.1.1,7.6,0,.5-.1.9-.5,1.3-1.7,2.2-3.4,4.4-5,6.6-.1.2-.2.3-.5.6Z"/><path class="ak" d="m703.3,487.2v8.6c0,.2-.1.6-.2.8-1.8,2.4-3.7,4.8-5.6,7.2,0,.1-.1.1-.2.2v-8.5c0-.3.1-.7.3-.9,1.8-2.4,3.6-4.7,5.4-7,.1-.1.2-.2.3-.4Z"/><path class="ak" d="m696,504.8c-.5-.1-1-.1-1.4-.2-1.4-.2-2.8-.4-4.2-.6-.2,0-.4-.1-.4-.3v-8.6h.5c1.7.3,3.4.5,5.2.8.2,0,.4.2.4.5,0,2.7.1,5.3.1,8-.2.1-.2.2-.2.4Z"/><path class="ak" d="m683.6,471.8c.7.1,1.4.2,2.1.3.9.1,1.7.2,2.6.4.2,0,.3.2.3.5v8.7h-.4c-1.4-.2-2.8-.4-4.2-.6-.2,0-.4-.2-.4-.4,0-3,0-5.9,0-8.9Z"/><path class="ak" d="m704.6,472.3v-8.8c0-.1.1-.4.2-.5,1.6-2.1,3.2-4.1,4.8-6.3v8.6c0,.2-.1.7-.2.8-1.5,2-3,4-4.5,5.9l-.3.3Z"/><path class="ak" d="m683.6,482.9c.8.1,1.5.2,2.2.3.8.1,1.6.2,2.4.4.2,0,.3.2.3.4v8.8c-.5-.1-1-.1-1.4-.2-1.1-.2-2.1-.3-3.2-.5-.2,0-.3-.2-.3-.4v-8.8Z"/><path class="ak" d="m710.9,486.4v-8.6c0-.3.1-.7.3-.9,1.4-1.9,2.9-3.8,4.4-5.7.1-.1.1-.2.3-.3v8.6c0,.2-.1.6-.2.8-1.6,2-3.1,4-4.8,6.1Z"/><path class="ak" d="m709.6,479v8.5c0,.3-.1.7-.3.9-1.5,2-3,3.9-4.5,5.9,0,.1-.1.1-.2.2v-8.4c0-.5.1-.8.4-1.2,1.5-1.9,3-3.9,4.6-5.9Z"/><path class="ak" d="m677.3,470.8c.9.1,1.7.2,2.6.4.7.1,1.4.2,2.1.3.1,0,.3.1.3.3v8.8h-.4c-1.4-.2-2.8-.4-4.2-.6-.2,0-.3-.3-.3-.5-.1-2.8-.1-5.7-.1-8.7Z"/><path class="ak" d="m709.6,468v8.6c0,.2-.1.5-.2.7-1.5,2-3.1,4-4.6,6,0,0-.1,0-.2.1v-8.5c0-.2.1-.6.2-.8,1.5-2,3.1-4,4.6-6,0,0,.1,0,.2-.1Z"/><path class="ak" d="m688.6,503.8c-1.6-.2-3.2-.5-4.8-.7-.1,0-.2-.2-.2-.4v-8.5l.1-.1c.7.1,1.3.2,2,.3.9.1,1.7.2,2.6.4.2,0,.3.2.3.4,0,2.8.1,5.5.1,8.3,0,0-.1.1-.1.3Z"/><path class="ak" d="m691,470.9c1.9-2.4,3.6-4.7,5.4-6.9.1-.1.3-.3.4-.2,1.8.2,3.6.4,5.5.7-1.3,1.7-2.5,3.3-3.7,4.9l-.3.3c-.5.7-1.1,1.7-1.6,2s-1.1-.1-1.6-.1c-1.5-.3-2.7-.5-4.1-.7Z"/><path class="ak" d="m682.3,502.9c-1.4-.2-2.7-.5-4.1-.5-.7,0-.9-.5-.9-1.5.1-2.6,0-5.1,0-7.7h.3c1.4.2,2.9.4,4.3.7.1,0,.3.2.3.4.1,2.8.1,5.6.1,8.6Z"/><path class="ak" d="m682.3,491.9c-.6-.1-1.1-.2-1.6-.2-1-.1-1.9-.3-2.9-.5-.2,0-.3-.2-.3-.4v-8.8c.6.1,1.1.1,1.6.2,1,.1,2,.3,3,.5.1,0,.3.2.3.3-.1,2.9-.1,5.8-.1,8.9Z"/><path class="ak" d="m715.8,448.6v8.8c0,.2-.1.4-.1.5-1.5,2-3.1,4.1-4.7,6.2v-8.3c0-.5.1-.9.4-1.3,1.4-1.7,2.7-3.5,4.1-5.3,0-.2.1-.3.3-.6Z"/><path class="ak" d="m710.9,475.2v-8.5c0-.4.1-.7.4-1.1,1.5-1.9,2.9-3.8,4.5-5.9v8.5c0,.5-.1.8-.4,1.2-1.4,1.7-2.7,3.5-4.1,5.3-.1.1-.2.3-.4.5Z"/><path class="ak" d="m709,455.5c-.7,1-1.5,2-2.2,2.9-1,1.2-1.9,2.5-2.9,3.7-.1.2-.4.4-.5.4-1.8-.2-3.6-.4-5.4-.7.9-1.2,1.8-2.3,2.7-3.5.9-1.1,1.7-2.2,2.6-3.3.2-.2.4-.4.5-.4,1.7.2,3.5.4,5.2.7q-.1.1,0,.2Z"/><path class="ak" d="m691,461c.9-1.2,1.8-2.3,2.6-3.4.9-1.1,1.8-2.3,2.7-3.4.1-.2.4-.3.5-.3,1.8.2,3.5.4,5.3.7-.1.2-.2.4-.3.5-1.6,2.1-3.2,4.2-4.8,6.2-.2.2-.4.4-.5.4-1.9-.3-3.7-.5-5.5-.7Z"/><path class="ak" d="m684.1,469.9c1.4-1.8,2.8-3.5,4-5.3,1-1.5,1.8-2,2.8-1.7,1.1.3,2.4.4,3.6.5.1,0,.3,0,.5.1-1.1,1.4-2.1,2.8-3.2,4.1-.7.9-1.3,1.7-2,2.6-.2.2-.4.4-.5.4-1.6-.2-3.3-.5-5.2-.7Z"/><path class="ak" d="m684.7,460.1c1.5-2,3-3.9,4.5-6,.7-.9,1.2-1.2,1.8-1.1,1.2.2,2.4.3,3.6.5.1,0,.3.1.5.1-.9,1.1-1.7,2.2-2.5,3.3-.9,1.1-1.8,2.3-2.7,3.4-.2.2-.4.4-.5.4-1.5-.2-3-.4-4.5-.6-.1.1-.1,0-.2,0Z"/><path class="ak" d="m697.9,452c1.6-2.1,3.2-4.1,4.7-6.1.1-.2.3-.3.5-.3,1.7.3,3.4.5,5.1.8,0,0,0,.1.1.1-1,1.4-2.1,2.7-3.1,4.1-.5.7-1.1,1.6-1.6,1.9-.5.3-1.1,0-1.6-.1-1.4-.1-2.7-.2-4.1-.4Z"/><path class="ak" d="m688.2,462.6c-1.4,1.8-2.7,3.4-3.9,5.1-1.1,1.6-2,2.1-3.1,1.8-1-.3-2.1-.4-3.3-.5,1.4-1.9,2.8-3.6,4.1-5.4.9-1.3,1.6-1.7,2.5-1.5,1.2.3,2.4.3,3.7.5Z"/><path class="ak" d="m715.1,447.5c-1.5,2-3,3.9-4.5,5.8-.1.1-.2.2-.3.2-1.8-.2-3.6-.4-5.4-.7,1.6-2,3.1-4,4.6-5.9.1-.2.3-.3.5-.2,1.6.3,3.3.5,5.1.8Z"/><path class="ak" d="m691.5,451.1c.8-1,1.5-1.9,2.2-2.9.8-1.1,1.6-2.1,2.4-3.2.2-.2.4-.5.6-.4,1.6.2,3.1.5,4.7.7-.1.2-.2.4-.3.5-1.4,1.8-2.8,3.7-4.2,5.5-.2.2-.4.4-.6.4-1.5-.2-3-.4-4.5-.6-.1.1-.2,0-.3,0Z"/><ellipse class="ab" cx="687.96" cy="752.22" rx="22.7" ry="8.3" transform="translate(-308.98 539.55) rotate(-35.51)"/><path class="aa" d="m687.9,779.1c-10.5,6.1-19.1,6.6-19.1,1.1"/><path class="aa" d="m687.9,796.3c-10.5,6.1-19.1,6.6-19.1,1.1"/><line class="aa" x1="707" y1="751.9" x2="707" y2="741"/><path class="aa" d="m668.8,763.1v50.7c0,5.5,8.5,5,19.1-1.1,10.5-6.1,19.1-15.4,19.1-20.9"/><path class="aa" d="m691.5,766l2.6,3.5c.6.8,1.8,0,2.4-1.4l1.6-4.2c.5-1.4,1.8-2.2,2.4-1.4l1.9,2.4c.6.7,1.8,0,2.3-1.4l1.6-4.2c.6-1.5,1.8-2.2,2.4-1.4l1.5,2.2c.6.8,1.8.1,2.4-1.3l1.7-4.4c.6-1.4,1.8-2.1,2.3-1.4l1.9,2.4c.6.7,1.8,0,2.3-1.4l2.8-7.3"/><path class="aa" d="m691.5,777.1l2.6,3.5c.6.8,1.8,0,2.4-1.4l1.6-4.2c.5-1.4,1.8-2.2,2.4-1.4l1.9,2.4c.6.7,1.8,0,2.3-1.4l1.6-4.2c.6-1.5,1.8-2.2,2.4-1.4l1.5,2.2c.6.8,1.8.1,2.4-1.3l1.7-4.4c.6-1.4,1.8-2.1,2.3-1.4l1.9,2.4c.6.7,1.8,0,2.3-1.4l2.8-7.3"/><path class="aa" d="m691.5,788.3l2.6,3.5c.6.8,1.8,0,2.4-1.4l1.6-4.2c.5-1.4,1.8-2.2,2.4-1.4l1.9,2.4c.6.7,1.8,0,2.3-1.4l1.6-4.2c.6-1.5,1.8-2.2,2.4-1.4l1.5,2.2c.6.8,1.8.1,2.4-1.3l1.7-4.4c.6-1.4,1.8-2.1,2.3-1.4l1.9,2.4c.6.7,1.8,0,2.3-1.4l2.8-7.3"/><ellipse class="al" cx="286.01" cy="561.02" rx="8" ry="18" transform="translate(-302.92 338.07) rotate(-42.25)"/><ellipse class="al" cx="396.62" cy="629.73" rx="8" ry="18" transform="translate(-320.38 430.29) rotate(-42.25)"/><polygon class="ba" points="267.8 604.1 310.8 628.9 158.4 716.9 115.4 692.1 267.8 604.1"/><polyline class="ay" points="158.4 716.9 158.4 821.7 310.8 733.8 310.8 628.9 158.4 716.9"/><polygon class="ax" points="87.9 888.3 0 838.8 0 727.2 88 777.2 87.9 888.3"/><polygon class="au" points="87.9 888.3 175.9 835.8 175.5 726.8 88 777.2 87.9 888.3"/><polygon class="bd" points="87.9 778.1 175.5 726.8 87.9 675.5 0 727.2 87.9 778.1"/><polygon class="bf" points="378.9 673.3 421.9 698.1 269.5 786.1 226.5 761.3 378.9 673.3"/><polyline class="az" points="269.5 786.1 269.5 890.9 421.9 803 421.9 698.1 269.5 786.1"/><polygon class="be" points="199 957.4 111.1 907.9 111.1 796.3 199.1 846.3 199 957.4"/><polygon class="bb" points="199 957.4 287 904.9 287 794.7 199.1 846.3 199 957.4"/><polygon class="bc" points="199 847.1 287 794.7 199 745.6 110.6 796.1 199 847.1"/><ellipse class="al" cx="507.74" cy="692.92" rx="8" ry="18" transform="translate(-334 521.42) rotate(-42.25)"/><polygon class="av" points="488.2 735.3 531.2 760.1 378.8 848.1 335.8 823.3 488.2 735.3"/><polyline class="aw" points="378.8 848.1 378.8 952.9 531.2 865 531.2 760.1 378.8 848.1"/><polygon class="at" points="308.3 1019.4 220.4 969.9 220.4 858.3 308.4 908.3 308.3 1019.4"/><polygon class="aq" points="308.3 1019.4 396.3 966.9 396.3 856.7 308.4 908.3 308.3 1019.4"/><polygon class="ap" points="308.4 909.1 396.3 856.7 308.4 807.6 220 858.1 308.4 909.1"/><path class="ae" d="m54.1,806.7c-3.7-23.8-11.4-34.1-13.3-39.3-.8-2.3-1.5-4.6-2.1-6.8-.1,1.9-.3,3-1.5,3.7-2.5,1.5-13,6.8-13.8,31-.8,22.5,12.7,44.5,14.5,47,1.4,1.7,3,1.8,3.9,1.4,6.2-2.2,15.1-12.9,12.3-37"/><path class="ag" d="m39.1,830.9c-.3,5.5-.6,8.7-1.4,11.4,0,0,.6,5.7,1,11.7l1.4.8c.3-3.8.8-7.6,1.5-11.1-1.8-2.2-2.4-7.8-2.5-12.8Z"/><path class="af" d="m41.6,843.7h0c-1.8-2.2-2.4-7.8-2.5-12.8.5-7.9.6-16,.4-24.3-.1-4.4,0-39.8-.8-45.4.6,2.1,1.2,4.2,2,6.3,2,5.2,9.7,15.4,13.3,39.3,2.9,23.9-5.9,34.7-12.4,36.9Z"/><g id="v"><path class="ad" d="m272.9,963.1c.4-3.8.2-4.4,2.5-2.5l.6.4c1.7,1.1,3.9,1.9,5.2,1.8,2.8-.1,4.5-2.1,1.7-2.9-6.3-1.9-6.8-5-6.8-5,6.7-9.4,9.5-24.6,7.1-30.1-6.6-15-18-16.3-18.2-16.3h-.1c-1.3-1.1-2.7-2.1-4.2-3-2.9-1.7-5-1.9-6.7-1.2,0,0-20.3-22.9-19.4,2.9.2,5.5,5.8,43.9,12.4,37.1,2.4-2.5,4.8-4.4,4.8-4.4,1.2,1.7,2.6,3,4,3.7l.1-.1v1.5c-1.7,1.6-1.2,2.3-4.6,1.3-3.5-1-1.4,1.8-.1,3,1.6,1.5,5.3,4.4,7.8,1.1l-.1.5c.7,1.1.6,5.5.7,8.7s.3,6.3.7,8.3c.5,2,1.1,6.8,5.5,8.1,3.9,1.2,6.8,1.3,7.1-12.9"/><path class="ad" d="m264.5,978.6c-1.4-.8-2.9-2.2-4.2-4.5-1.2-2.2-1.7-4.5-2-5.8,0-.2-.1-.4-.1-.5-.6-2.4-.8-5.5-.9-9.3v-3.1c-1.9,0-4.2-1.1-6.6-3.3-.7-.6-1.3-1.4-1.9-2.2-.4-.6-.8-1.2-1-1.7-1.9,1-3.8-.3-4.8-1.4-1.8-1.8-3.4-5-4.9-9.6-1.1-3.3-2.1-7.3-3-12.1-1.7-8.2-2.7-16.5-2.8-19.1-.3-8.1,1.3-12.9,4.8-14.1,2.9-1,6.8.4,11.7,4.3,2.1,1.6,3.9,3.4,5,4.5,2-.4,4.4.2,7,1.8,1.4.9,2.8,1.8,4,2.8,1.4.2,4,.9,6.9,2.7,5.6,3.3,10.2,8.8,13.3,16,1.2,2.7,2.2,7.8.3,16.5-1.2,5.4-3.2,10.7-5.8,14.9.7.4,1.6.8,2.8,1.1.7.2,1.3.5,1.8.9,1.1.9,2,2.3,2.3,3.8,1,4.4-3.1,4.9-4.4,5-1.6.1-4.2-.8-6.3-2.2l-.1-.1-.4-.3v.4c0,.2,0,.4-.1.6-.1,7.2-.9,11.4-2.6,13.6-1.7,2.3-4.1,1.8-6.2,1.2-.4-.1-1.1-.4-1.8-.8Zm-4.1-29.2c1.3,2.2,1.5,4.9,1.6,9.8v1.7c0,1.6.2,5.4.6,7.2.1.3.1.5.2.8.5,2.3.7,3.2,2.7,3.8,1.7.5,2.6.6,3.3-.3,1-1.4,1.6-5,1.7-10.8l2.4,1.4-2.3-1.7c0-.2,0-.5.1-.7.2-2.2.4-4,1.6-4.4.8-.3,1.7.1,2.5.7-.6-1.2-.8-2.2-.9-2.7l-.2-1.4.6-.8c2.9-4.1,5.3-9.8,6.6-15.7,1.4-6.6.8-10.1.6-10.7-5.2-11.9-14.3-13.6-15.3-13.7h-.2l-.9-.3-.5-.4c-1.1-1-2.4-1.9-3.8-2.7-2.1-1.3-3.8-1.6-5.2-1l-1.1.5-1.2-1.4c-2.4-2.7-9.6-9.5-13.3-8.2-2.1.8-3,4.1-2.8,9.8.1,2,1.1,9.9,2.7,17.9,2.3,11,4.2,14.8,4.8,15.4.1,0,.3,0,.7-.4,2.4-2.5,4.8-4.4,4.9-4.5l1.4-1.1,1.6,2.4c.6.8,1.2,1.5,1.8,1.9l3.9-2.2-.6,7.4v.7l.2,1.6-.7.7h0l1.8,2.2.7-.8Z"/><path class="ah" d="m282.8,960c-6.3-1.9-6.8-5-6.8-5,6.7-9.4,9.5-24.6,7.1-30.1-6.6-15-18-16.3-18.2-16.3h-.1c-1.3-1.1-2.7-2.1-4.2-3-2.9-1.7-5-1.9-6.7-1.2,0,0-20.3-22.9-19.4,2.9.2,5.5,5.8,43.9,12.4,37.1,2.4-2.5,4.8-4.4,4.8-4.4,1.2,1.7,2.6,3,4,3.7l.1-.1v1.5c-1.7,1.6-1.2,2.3-4.6,1.3-3.5-1-1.4,1.8-.1,3,1.6,1.5,5.3,4.4,7.8,1.1l-.1.5c.7,1.1,1.1,5.3,1.1,8.8-.1,3.5-.1,5.9.4,8.2.5,2.2,1.1,6.8,5.5,8.1,3.8,1.1,5.7-.6,6-5,.2-3.2.6-2.4.7-5.4l.3-1.2c.4-4.2.1-5.9,2.4-3.9l.6.4c1.7,1.1,3.9,1.9,5.2,1.8,3,0,4.6-2,1.8-2.8h0Z"/><path class="ak" d="m264.7,976.8c-3.8-2.2-5-6.9-5.5-8.8-.7-2.8-.9-11.8-.7-19.6,0-.6.4-.8.8-.6.4.3.8.9.8,1.5-.2,8.6.1,16.6.6,18.7.8,3.2,2,6.2,5.5,7.3,3.4,1,4.5.1,5.1-3.9.4-3.1,1.3-12,1.4-13.8,0-.6.4-.8.8-.5s.8,1,.7,1.5c-.1,1.9-1,10.8-1.4,14-.7,4.7-2.4,6.1-6.3,4.9-.6-.1-1.2-.4-1.8-.7Z"/><path class="ak" d="m244.4,945.8c-.4-.2-.7-.5-1-.8-2.5-2.5-4.8-9.2-6.9-19.8-1.6-8.1-2.7-16.1-2.8-18.5-.3-7.3,1.1-11.6,4.1-12.7,2.5-.9,6.1.4,10.5,3.9,3.2,2.6,5.7,5.4,5.8,5.5.4.5.6,1.2.4,1.6-.2.4-.6.4-1,0-.1-.1-9.6-10.7-14.9-8.8-2.5.9-3.7,4.7-3.5,11.3.1,2.1,1,9.9,2.7,18,1.9,9.4,4.1,15.9,5.9,17.8.3.3,1.2,1.2,2.4-.1,2.4-2.5,4.6-4.3,4.7-4.3.3-.2.8,0,1.1.6s.3,1.2,0,1.5c0,0-2.2,1.8-4.6,4.2-.9,1.2-2,1.1-2.9.6Z"/><path class="ak" d="m276,955.9c-.2-.1-.3-.2-.4-.4-.4-.5-.5-1.2-.2-1.6,6.7-9.5,9.1-24.2,7.1-28.8-2.5-5.8-6.1-10.2-10.7-12.9-3.4-2-6.1-2.4-6.5-2.5h-.1c-.5-.1-.8-.6-1-1.1-.2-.6,0-1.1.3-1.1.3-.1,3.4.4,7.1,2.6,5.1,3,9.3,8,12.1,14.5.7,1.6,1.1,3.8,1,6.5,0,2.4-.4,5.2-1,8.1-1.4,6.3-3.9,12.4-7.1,16.7-.1.1-.3.1-.6,0Z"/><path class="ak" d="m276.4,962.2c-1.2-.7-2.2-1.5-2.8-2.4-.7-.9-.8-1.7-.8-2.1-.2-4.1,1.4-4,2.3-3.8-.1-.3-.3-.6-.4-1-.5-1.1-1.2-2.7-1.7-4.7-.1-.3-.3-1.1-.6-2-1.6-4.9-5-14.9-2.8-17.9,1-1.3,3-1,5.9,1.1-.4-1.8-1.4-5.2-3.2-9.1-2.1-4.5-5.8-10.6-11.6-14.1-2.9-1.8-5.3-1.9-7.2-.6-4.1,3.1-3.9,13.1-3.9,13.2,0,.6-.3.9-.8.6-.4-.2-.8-.9-.8-1.5,0-.4-.2-11,4.4-14.5,2.1-1.6,4.9-1.4,8.3.6,6.3,3.8,10.4,10.4,12.7,15.3,2.5,5.3,3.7,10.3,3.8,11.8.1,1.2-.6,1-.7,1l-.3-.2c-3.6-2.8-5-2.6-5.5-1.9-1.6,2.2,1.6,11.6,2.9,15.7.4,1,.6,1.8.7,2.2.4,1.7,1,3,1.5,4.1.4.9.8,1.7.9,2.5.1.2.9,2.3,5.9,3.8,1.3.4,2.1,1.2,2.3,2.3.5,2.2-2.1,2.8-3.5,2.9-1.2.4-3.3-.2-5-1.3Zm-2.1-3.7c.2.3,1,1.1,2.6,1.9,1.4.7,3,1.2,3.9,1.2,1.1,0,1.8-.3,2.2-.6h0c-3.2-1-5.5-2.4-6.8-4.3-.1-.1-.2-.2-.2-.3-.1,0-.2,0-.3-.1-.8-.2-1.5-.3-1.4,2.2Z"/><path class="ak" d="m253.5,952c-.8-.5-1.6-1.1-2.5-1.9-.2-.2-2.4-2.3-2.4-4.1,0-1.7,1.9-1.1,2.5-.9,2.4.7,2.6.6,3.3-.3.2-.2.5-.6.9-.9,1.3-1.1,2.4.2,2.9.8.8.9,1.5,2.3,1.7,3.8.2,1.3.1,2.3-.3,2.9-1.4,1.9-3.6,2.1-6.1.6Zm-3.2-4.9c.2.3.6.8,1,1.2,2.1,1.9,5,3.6,7,1.1.2-.3.2-.9.1-1.3-.1-.7-.5-1.5-.8-1.9-.4-.5-.7-.7-1.2-.3h0c-.3.3-.6.6-.8.8-1,1.1-1.4,1.4-4.2.5-.5-.1-.9-.1-1.1-.1Zm5.6-2.2h0Z"/><path class="ak" d="m255.8,945.9c-.4-.2-.7-.8-.8-1.3v-.4c-1.8-1.1-3.6-3.2-5-5.9-1.7-3.4-2.5-7.2-2.2-10.4.4-3.4.2-6.7.2-8.5v-1.1c0-.3,0-1.2,2.1-1.4.7-.1,2.2-.1,3.8.6,2.7,1.2,4.4,3.8,4.9,7.3,1.4,9.5.1,12.6-.8,14.8-.2.4-.3.8-.5,1.2l-.1.4c-.5,1.5-.9,2.8-.8,4,.1.6-.2,1-.7.8,0-.1-.1-.1-.1-.1Zm-6.2-26.5v.7c.1,1.9.2,5.3-.2,8.9-.3,2.6.3,5.6,1.7,8.4,1.1,2.2,2.5,3.8,4,4.7.2-.8.4-1.7.7-2.5l.1-.3c.2-.5.3-.9.5-1.3.9-2.2,2-4.8.7-13.6-.3-1.7-.9-2.9-1.8-3.8-2-2-5.1-1.6-5.7-1.2Z"/><path class="ak" d="m253.9,921.5c0,.3.5,1.5,1.1,2,.7.5,1.2.1,1.3-.2,0-.3-.5-1-1.1-1.5-.7-.5-1.3-.6-1.3-.3h0Z"/><path class="ak" d="m255.2,924c-.1,0-.1-.1-.2-.1-.4-.3-.8-.9-1.1-1.6-.1-.2-.3-.7-.2-1,0-.1.1-.3.2-.3.3-.1.8.1,1.3.5.4.3.7.6.9.9.4.6.5.9.4,1.1,0,.3-.3.5-.5.6-.2.1-.5,0-.8-.1Zm-1-2.3c0,.3.4,1.1.9,1.5s.9.1,1-.1c-.1-.1-.4-.6-.9-1-.6-.4-1-.4-1-.4Z"/><path class="ak" d="m274,932.4c0,.4-.5,1-1.1.7-.7-.3-1.2-1.3-1.3-1.7,0-.4.5-.4,1.1-.2.7.3,1.2.8,1.3,1.2h0Z"/><path class="ak" d="m272.7,933.2c-.7-.4-1.2-1.4-1.2-1.8-.1-.6.6-.6,1.2-.3.7.3,1.4.8,1.4,1.4h0c0,.2-.1.5-.3.7-.2.1-.5.3-.9.1-.1,0-.2-.1-.2-.1Zm.4-1.6c-.1-.1-.2-.1-.4-.2-.7-.3-1-.1-1,.1s.5,1.2,1.1,1.4c.4.1.6,0,.7-.1.2-.2.3-.4.3-.5s-.2-.4-.7-.7Z"/><path class="ak" d="m274.9,952.7c-.2-.1-.3-.2-.4-.4-.4-.5-.5-1.2-.2-1.6,1.5-2.2,1.3-5.5,1-8.6-.1-1.4-.2-2.8-.2-4,0-1.3.2-2.3.3-3.3.1-1.2.3-2.3.2-3.7,0-.6.3-.9.7-.7s.8.9.8,1.5c.1,1.6-.1,2.9-.2,4.1-.1.9-.2,1.9-.3,3.1,0,1.1.1,2.4.2,3.7.3,3.4.6,7.3-1.2,9.9-.2.1-.4.1-.7,0Z"/></g><path class="aj" d="m144.9,846c1.7-1.4,4.1-1.5,6.8,0,3.5,2,6.6,6.5,8.3,11.3,1.4,0,3,.4,4.7,1.4,6.4,3.7,11.6,13.7,11.6,22.3s-5.2,12.6-11.6,8.9c-.8-.4-1.5-1-2.3-1.6-1.5,2.6-4.2,3.4-7.4,1.5-1.3-.8-2.6-1.9-3.7-3.3-1.5,3.8-4.9,5-8.9,2.7-4.2-2.4-7.7-8-9.1-13.7-.6-.2-1.2-.4-1.8-.8-5-2.9-9-10.6-9-17.3,0-4.5,1.8-7.3,4.5-7.9-.6-2-.9-4.1-.9-6,0-7.7,4.7-11.2,10.4-7.9,3.5,2.1,6.5,6,8.4,10.4"/><path class="ak" d="m130.3,858.1v.2c.1.2.2.3.3.4.5.7,1.1,1.1,1.6,1.4,1.1.6,1.8.2,1.8-1h0c0-1.2-.8-2-1.5-2.8l-.1-.1c-.5-.6-1-1-1-1.5h0c0-.4.3-.6.7-.3.5.3,1,.8,1.4,1.3,0,0,.1.2.1,0,0-.1.2-.6.2-.7s0-.1-.1-.2c-.4-.6-1-1.1-1.6-1.5l-.1-.1c-1-.6-1.7-.2-1.7,1h0c0,1.2.8,2.1,1.5,2.8l.1.1c.5.5,1,1,1,1.5h0c0,.5-.3.6-.8.3-.2-.1-.8-.5-1.4-1.4-.1-.1-.1-.2-.2-.3,0,0-.1-.1-.1,0l-.1.9h0Zm16.1,9.4v.2c.1.2.2.3.3.4.5.7,1.1,1.1,1.6,1.4,1.1.6,1.8.2,1.8-1h0c0-1.2-.8-2-1.5-2.8l-.1-.1c-.5-.6-1-1-1-1.5h0c0-.4.3-.6.7-.3.5.3,1,.8,1.4,1.3,0,0,.1.2.1,0,0-.1.2-.6.2-.7s0-.1-.1-.2c-.4-.6-1-1.1-1.6-1.5l-.1-.1c-1-.6-1.7-.2-1.7,1h0c0,1.2.8,2.1,1.5,2.8l.1.1c.5.5,1,1,1,1.5h0c0,.5-.3.6-.8.3-.2-.1-.8-.5-1.4-1.4-.1-.1-.1-.2-.2-.3,0,0-.1-.1-.1,0l-.1.9h0Zm11.1,3.9c0,.7-.1,1.2-.3,1.5s-.5.3-.9.1-.7-.6-.9-1.1-.3-1.1-.3-1.8.1-1.2.3-1.5c.2-.3.5-.3.9-.1s.7.6.9,1.1c.2.4.3,1.1.3,1.8m.9-.8c-.1-.5-.2-.9-.4-1.3s-.4-.8-.7-1.1c-.3-.3-.6-.6-1-.8s-.7-.3-1-.3-.5.1-.7.3-.3.5-.4.8c-.1.4-.1.8-.1,1.2,0,.5,0,.9.1,1.4s.2.9.4,1.3.4.8.7,1.1.6.6,1,.8.7.3,1,.3.5-.1.7-.3.3-.5.4-.8c.1-.4.1-.8.1-1.2,0-.5,0-1-.1-1.4m7.5,7.7c0-.1-.1-.1-.1-.1-.1,0-.3,0-.4-.1-.2-.1-.3-.1-.5-.2-.4-.3-.8-.6-1.1-1.1-.3-.5-.4-1.1-.4-1.9,0-.7.1-1.1.4-1.4.2-.3.6-.3,1,0,.4.2.7.4,1,.7,0,0,.1.1.1,0,.1-.3.1-.4.2-.7,0-.1,0-.2-.1-.2-.1-.1-.4-.4-.6-.6-.2-.2-.4-.3-.7-.5-.4-.2-.7-.3-1-.3s-.5.1-.7.3-.3.5-.4.8-.2.8-.2,1.2c0,1,.2,2,.6,2.8s1,1.5,1.8,2c.5.3,1,.4,1.3.4,0,0,.1,0,0-.1l-.2-1h0Zm1.7-1.8c0-.4.1-.7.3-.8.2-.3.5-.3.9-.1s.7.6.9,1.1c.1.3.2.7.2,1.1l-2.3-1.3h0Zm3.1.9c-.1-.4-.3-.9-.4-1.2-.2-.4-.4-.7-.6-.9-.3-.3-.6-.6-.9-.8-.4-.2-.7-.3-1-.3s-.5.1-.7.3-.3.5-.4.8c-.1.4-.1.8-.1,1.2,0,.5,0,1,.1,1.4.1.5.2.9.5,1.3.2.4.5.8.8,1.1s.7.6,1.1.9c.9.5,1.4.5,1.6.5,0,0,.1,0,0-.2l-.2-.9c0-.1-.1-.1-.1-.1-.2,0-.5,0-1.3-.4-.5-.3-.8-.7-1.1-1.1-.2-.4-.3-.9-.4-1.6l3.1,1.8s.1,0,.1-.1c0,.1.1-.6-.1-1.7m-28.1-15.3c0-.4.1-.7.3-.8.2-.3.5-.3.9-.1s.7.6.9,1.1c.1.3.2.7.2,1.1l-2.3-1.3Zm3.1.9c-.1-.4-.3-.9-.4-1.2-.2-.4-.4-.7-.6-.9-.3-.3-.6-.6-.9-.8-.4-.2-.7-.3-1-.3s-.5.1-.7.3-.3.5-.4.8c-.1.4-.1.8-.1,1.2,0,.5,0,1,.1,1.4.1.5.2.9.5,1.3.2.4.5.8.8,1.1s.7.6,1.1.9c.9.5,1.4.5,1.6.5,0,0,.1,0,0-.2l-.2-.9c0-.1-.1-.1-.1-.1-.2,0-.5,0-1.3-.4-.5-.3-.8-.7-1.1-1.1-.2-.4-.3-.9-.4-1.6l3.1,1.8s.1,0,.1-.1c0,.1.1-.6-.1-1.7m-9.8-2.1l-.2-.4c-.1-.2-.1-.4-.1-.6,0-.4.1-.6.3-.6,0,0,.3-.2.9.2l.8.6v1.9h0s-.4-.1-.8-.3c-.7-.3-.9-.8-.9-.8m1.2-2.2c-.1-.1-.3-.2-.5-.3-.3-.2-.5-.3-.8-.3-.2-.1-.5,0-.7,0-.2.1-.3.2-.5.4-.1.2-.2.5-.2.9s0,.7.1,1,.2.6.4.9c.2.3.4.5.6.7s.5.4.8.6c.3.2.6.3.9.4.3.1.7.2.8.3q.1,0,.2.1c.1,0,.1-.1.1-.1v-3.8c0-.8-.2-1.5-.5-2.1s-.8-1-1.4-1.4c-.2-.1-.6-.3-.8-.4,0,0-.7-.2-1-.1,0,0-.1,0,0,.1l.2.9c0,.1.1.1.1.1h.1c.6-.1,1.4.4,1.4.4.3.2.6.4.8.7s.3.6.3,1.1v.2c-.2-.1-.4-.3-.4-.3m25.1,12.4v-.2c-.1-.1-.3-.3-.5-.4-.4-.3-.6-.3-.8-.3s-.4.1-.5.2v-.5q0-.1-.1-.2l-.8-.5q-.1,0-.1.1v6.2c0,.1,0,.2.1.2l.8.5q.1,0,.1-.1v-3.1c0-.4,0-.8.1-1s.2-.4.3-.5c.1-.1.2-.1.4-.1.1,0,.3.1.4.2.2.1.3.3.3.3h.1c.1-.2.2-.7.2-.8"/><path class="ak" d="m154.6,863.8c-.1-.1-.2-.2-.3-.3s-.3-.2-.4-.3c-.6-.3-1-.4-1.3-.1-.3.2-.5.8-.6,1.5v.3l-.7-.4s-.1-.1-.1.1l-.1.8q0,.1.1.2l.7.4-.7,4.8c-.1.4-.1.7-.2.9s-.1.4-.2.5-.2.1-.3.1-.2-.1-.4-.1c-.1,0-.2-.1-.2-.2q-.1-.1-.2-.2s-.1-.1-.1,0-.2.6-.2.7v.2c.1.1.2.2.3.3.2.2.3.2.5.3.3.2.5.3.8.3.2,0,.4-.1.6-.2.2-.2.3-.4.4-.7s.2-.7.3-1.2l.7-4.9,1,.6s.1.1.1-.1l.1-.8q0-.1-.1-.2l-1-.6s.1-.5.2-.8c0-.2.1-.3.2-.3.1-.1.2-.1.3-.1s.2.1.3.1c.1.1.2.1.3.2q.1.1.2.1t.1,0l.2-.7c-.3-.1-.3-.2-.3-.2m-14,.9q0,.1,0,0l-.9-.4c-.1,0-.1-.1-.1-.2v-8.9q0-.1.1-.1l.8.5c.1,0,.1.1.1.2v8.9Z"/></g><g id="w"><line class="ac" x1="286.3" y1="571.1" x2="286.3" y2="573.1"/><path class="ak" d="m286.8,609.8h-1v-3.7h1v3.7Zm0-7.4h-1v-3.6h1v3.6Zm0-7.3h-1v-3.7h1v3.7Zm0-7.4h-1v-3.7h1v3.7Zm0-7.3h-1v-3.7h1v3.7Z"/><polygon class="ak" points="284.8 616.9 284.3 616 285.8 615.2 285.8 613.4 286.8 613.4 286.8 615.7 284.8 616.9"/><path class="ak" d="m130.4,704.8l-.5-.9,1.9-1.1.5.9-1.9,1.1Zm5.3-3.1l-.5-.9,3.4-1.9.5.9-3.4,1.9Zm6.8-3.8l-.5-.9,3.4-1.9.5.9-3.4,1.9Zm6.8-3.9l-.5-.9,3.4-1.9.5.9-3.4,1.9Zm6.8-3.8l-.5-.9,3.4-1.9.5.9-3.4,1.9Zm6.7-3.9l-.5-.9,3.4-1.9.5.9-3.4,1.9Zm6.8-3.9l-.5-.9,3.4-1.9.5.9-3.4,1.9Zm6.8-3.8l-.5-.9,3.4-1.9.5.9-3.4,1.9Zm6.8-3.9l-.5-.9,3.4-1.9.5.9-3.4,1.9Zm6.7-3.8l-.5-.9,3.4-1.9.5.9-3.4,1.9Zm6.8-3.9l-.5-.9,3.4-1.9.5.9-3.4,1.9Zm6.8-3.8l-.5-.9,3.4-1.9.5.9-3.4,1.9Zm6.8-3.9l-.5-.9,3.4-1.9.5.9-3.4,1.9Zm6.7-3.9l-.5-.9,3.4-1.9.5.9-3.4,1.9Zm6.8-3.8l-.5-.9,3.4-1.9.5.9-3.4,1.9Zm6.8-3.9l-.5-.9,3.4-1.9.5.9-3.4,1.9Zm6.8-3.8l-.5-.9,3.4-1.9.5.9-3.4,1.9Zm6.7-3.9l-.5-.9,3.4-1.9.5.9-3.4,1.9Zm6.8-3.9l-.5-.9,3.4-1.9.5.9-3.4,1.9Zm6.8-3.8l-.5-.9,3.4-1.9.5.9-3.4,1.9Zm6.8-3.9l-.5-.9,3.4-1.9.5.9-3.4,1.9Zm6.8-3.8l-.5-.9,3.4-1.9.5.9-3.4,1.9Zm6.7-3.9l-.5-.9,3.4-1.9.5.9-3.4,1.9Z"/><line class="ac" x1="159.2" y1="687.8" x2="157.5" y2="688.8"/></g><g id="x"><line class="ac" x1="397.4" y1="640.3" x2="397.4" y2="642.3"/><path class="ak" d="m397.9,678.9h-1v-3.7h1v3.7Zm0-7.3h-1v-3.7h1v3.7Zm0-7.4h-1v-3.7h1v3.7Zm0-7.3h-1v-3.7h1v3.7Zm0-7.3h-1v-3.7h1v3.7Z"/><polygon class="ak" points="396 686 395.5 685.2 396.9 684.3 396.9 682.6 397.9 682.6 397.9 684.9 396 686"/><path class="ak" d="m253.6,767l-.5-.9,3.4-1.9.5.9-3.4,1.9Zm6.8-3.8l-.5-.9,3.4-1.9.5.9-3.4,1.9Zm6.8-3.9l-.5-.9,3.4-1.9.5.9-3.4,1.9Zm6.8-3.8l-.5-.9,3.4-1.9.5.9-3.4,1.9Zm6.8-3.9l-.5-.9,3.4-1.9.5.9-3.4,1.9Zm6.7-3.9l-.5-.9,3.4-1.9.5.9-3.4,1.9Zm6.8-3.8l-.5-.9,3.4-1.9.5.9-3.4,1.9Zm6.8-3.9l-.5-.9,3.4-1.9.5.9-3.4,1.9Zm6.8-3.8l-.5-.9,3.4-1.9.5.9-3.4,1.9Zm6.7-3.9l-.5-.9,3.4-1.9.5.9-3.4,1.9Zm6.8-3.9l-.5-.9,3.4-1.9.5.9-3.4,1.9Zm6.8-3.8l-.5-.9,3.4-1.9.5.9-3.4,1.9Zm6.8-3.9l-.5-.9,3.4-1.9.5.9-3.4,1.9Zm6.7-3.8l-.5-.9,3.4-1.9.5.9-3.4,1.9Zm6.8-3.9l-.5-.9,3.4-1.9.5.9-3.4,1.9Zm6.8-3.8l-.5-.9,3.4-1.9.5.9-3.4,1.9Zm6.8-3.9l-.5-.9,3.4-1.9.5.9-3.4,1.9Zm6.8-3.9l-.5-.9,3.4-1.9.5.9-3.4,1.9Zm6.7-3.8l-.5-.9,3.4-1.9.5.9-3.4,1.9Zm6.8-3.9l-.5-.9,3.4-1.9.5.9-3.4,1.9Zm6.8-3.8l-.5-.9,3.4-1.9.5.9-3.4,1.9Z"/><line class="ac" x1="270.3" y1="757" x2="268.6" y2="758"/></g><g id="y"><line class="ac" x1="506.7" y1="702.3" x2="506.7" y2="704.3"/><path class="ak" d="m507.2,741h-1v-3.7h1v3.7Zm0-7.4h-1v-3.7h1v3.7Zm0-7.3h-1v-3.7h1v3.7Zm0-7.4h-1v-3.7h1v3.7Zm0-7.3h-1v-3.7h1v3.7Z"/><polygon class="ak" points="505.3 748.1 504.8 747.2 506.2 746.3 506.2 744.6 507.2 744.6 507.2 746.9 505.3 748.1"/><path class="ak" d="m359,831.3l-.5-.9.6-.3.5.9-.6.3Zm3.9-2.2l-.5-.9,3.4-1.9.5.9-3.4,1.9Zm6.8-3.9l-.5-.9,3.4-1.9.5.9-3.4,1.9Zm6.8-3.8l-.5-.9,3.4-1.9.5.9-3.4,1.9Zm6.8-3.9l-.5-.9,3.4-1.9.5.9-3.4,1.9Zm6.8-3.9l-.5-.9,3.4-1.9.5.9-3.4,1.9Zm6.7-3.8l-.5-.9,3.4-1.9.5.9-3.4,1.9Zm6.8-3.9l-.5-.9,3.4-1.9.5.9-3.4,1.9Zm6.8-3.8l-.5-.9,3.4-1.9.5.9-3.4,1.9Zm6.8-3.9l-.5-.9,3.4-1.9.5.9-3.4,1.9Zm6.7-3.9l-.5-.9,3.4-1.9.5.9-3.4,1.9Zm6.8-3.8l-.5-.9,3.4-1.9.5.9-3.4,1.9Zm6.8-3.9l-.5-.9,3.4-1.9.5.9-3.4,1.9Zm6.8-3.8l-.5-.9,3.4-1.9.5.9-3.4,1.9Zm6.7-3.9l-.5-.9,3.4-1.9.5.9-3.4,1.9Zm6.8-3.9l-.5-.9,3.4-1.9.5.9-3.4,1.9Zm6.8-3.8l-.5-.9,3.4-1.9.5.9-3.4,1.9Zm6.8-3.9l-.5-.9,3.4-1.9.5.9-3.4,1.9Zm6.8-3.8l-.5-.9,3.4-1.9.5.9-3.4,1.9Zm6.7-3.9l-.5-.9,3.4-1.9.5.9-3.4,1.9Zm6.8-3.8l-.5-.9,3.4-1.9.5.9-3.4,1.9Zm6.8-3.9l-.5-.9,3.4-1.9.5.9-3.4,1.9Z"/><line class="ac" x1="379.6" y1="819" x2="377.9" y2="820"/></g></svg>