<?xml version="1.0" encoding="UTF-8"?>
<svg xmlns="http://www.w3.org/2000/svg" xmlns:xlink="http://www.w3.org/1999/xlink"
    viewBox="0 0 922.1 1152.02">
    <defs>
        <style>
            .ag {
                stroke-width: 2.5px;
            }

            .ag,
            .ah {
                stroke-linecap: round;
                stroke-linejoin: round;
            }

            .ag,
            .ah,
            .ai {
                fill: none;
                stroke: #fff;
            }

            .ah {
                stroke-width: 2.5px;
            }

            .ai {
                stroke-miterlimit: 10;
            }

            .aj {
                opacity: .62;
            }

            .ak,
            .al,
            .am,
            .an,
            .ao,
            .ap,
            .aq,
            .ar,
            .as,
            .at,
            .au,
            .av,
            .aw,
            .ax,
            .ay,
            .az,
            .ba,
            .bb,
            .bc,
            .bd,
            .be,
            .bf,
            .bg,
            .bh,
            .bi,
            .bj,
            .bk,
            .bl,
            .bm,
            .bn,
            .bo,
            .bp,
            .bq,
            .br,
            .bs {
                stroke-width: 0px;
            }

            .al {
                fill: #10aa50;
            }

            .am {
                fill: #12924f;
            }

            .an {
                fill: #b8c4c2;
            }

            .ao {
                fill: #336791;
            }

            .ap {
                fill: #041527;
            }

            .aq {
                fill: #00a1e0;
            }

            .ar {
                fill: #fff;
            }

            .as {
                fill: #000307;
            }

            .at {
                fill: url(#aa);
            }

            .au {
                fill: url(#af);
            }

            .av {
                fill: url(#ae);
            }

            .aw {
                fill: url(#ab);
            }

            .ax {
                fill: url(#ad);
            }

            .ay {
                fill: url(#ac);
            }

            .az {
                fill: url(#b);
            }

            .ba {
                fill: url(#c);
            }

            .bb {
                fill: url(#e);
            }

            .bc {
                fill: url(#u);
            }

            .bd {
                fill: url(#t);
            }

            .be {
                fill: url(#f);
            }

            .bf {
                fill: url(#d);
            }

            .bg {
                fill: url(#s);
            }

            .bh {
                fill: url(#j);
            }

            .bi {
                fill: url(#q);
            }

            .bj {
                fill: url(#r);
            }

            .bk {
                fill: url(#i);
            }

            .bl {
                fill: url(#h);
            }

            .bm {
                fill: url(#m);
            }

            .bn {
                fill: url(#g);
            }

            .bo {
                fill: url(#o);
            }

            .bp {
                fill: url(#p);
            }

            .bq {
                fill: url(#k);
            }

            .br {
                fill: url(#n);
            }

            .bs {
                fill: url(#l);
            }
        </style>
        <linearGradient id="b" x1="223.3" y1="-110.44" x2="919.8" y2="-110.44" gradientTransform="translate(0 444.11)"
            gradientUnits="userSpaceOnUse">
            <stop offset=".02" stop-color="#2666c4" />
            <stop offset="1" stop-color="#203567" />
        </linearGradient>
        <linearGradient id="c" x1="224" y1="274.01" x2="571.5" y2="274.01" gradientTransform="translate(0 444.11)"
            gradientUnits="userSpaceOnUse">
            <stop offset=".02" stop-color="#2666c4" />
            <stop offset="1" stop-color="#203567" />
        </linearGradient>
        <linearGradient id="d" x1="571.1" y1="122.26" x2="918.6" y2="122.26" gradientTransform="translate(0 444.11)"
            gradientUnits="userSpaceOnUse">
            <stop offset=".02" stop-color="#2666c4" />
            <stop offset="1" stop-color="#203567" />
        </linearGradient>
        <linearGradient id="e" x1="571.1" y1="425.76" x2="918.6" y2="425.76" gradientTransform="translate(0 444.11)"
            gradientUnits="userSpaceOnUse">
            <stop offset=".02" stop-color="#2666c4" />
            <stop offset="1" stop-color="#203567" />
        </linearGradient>
        <linearGradient id="f" x1="-1823.87" y1="98.18" x2="-1786.12" y2="261.75"
            gradientTransform="translate(-1407.33 444.11) rotate(-180) scale(1 -1)" gradientUnits="userSpaceOnUse">
            <stop offset="0" stop-color="#0e20d5" />
            <stop offset="1" stop-color="#fff" />
        </linearGradient>
        <linearGradient id="g" x1="115.4" y1="349.01" x2="310.8" y2="349.01" gradientTransform="translate(0 444.11)"
            gradientUnits="userSpaceOnUse">
            <stop offset=".02" stop-color="#2666c4" />
            <stop offset="1" stop-color="#203567" />
        </linearGradient>
        <linearGradient id="h" x1="158.4" y1="413.81" x2="310.8" y2="413.81" gradientTransform="translate(0 444.11)"
            gradientUnits="userSpaceOnUse">
            <stop offset=".02" stop-color="#2666c4" />
            <stop offset="1" stop-color="#203567" />
        </linearGradient>
        <linearGradient id="i" x1="0" y1="496.26" x2="88" y2="496.26" gradientTransform="translate(0 444.11)"
            gradientUnits="userSpaceOnUse">
            <stop offset=".02" stop-color="#2666c4" />
            <stop offset="1" stop-color="#203567" />
        </linearGradient>
        <linearGradient id="j" x1="87.9" y1="496.06" x2="175.9" y2="496.06" gradientTransform="translate(0 444.11)"
            gradientUnits="userSpaceOnUse">
            <stop offset=".02" stop-color="#2666c4" />
            <stop offset="1" stop-color="#203567" />
        </linearGradient>
        <linearGradient id="k" x1="0" y1="415.31" x2="175.5" y2="415.31" gradientTransform="translate(0 444.11)"
            gradientUnits="userSpaceOnUse">
            <stop offset=".02" stop-color="#2666c4" />
            <stop offset="1" stop-color="#203567" />
        </linearGradient>
        <linearGradient id="l" x1="226.5" y1="418.21" x2="421.9" y2="418.21" gradientTransform="translate(0 444.11)"
            gradientUnits="userSpaceOnUse">
            <stop offset=".02" stop-color="#2666c4" />
            <stop offset="1" stop-color="#203567" />
        </linearGradient>
        <linearGradient id="m" x1="269.5" y1="483.01" x2="421.9" y2="483.01" gradientTransform="translate(0 444.11)"
            gradientUnits="userSpaceOnUse">
            <stop offset=".02" stop-color="#2666c4" />
            <stop offset="1" stop-color="#203567" />
        </linearGradient>
        <linearGradient id="n" x1="111.1" y1="565.36" x2="199.1" y2="565.36" gradientTransform="translate(0 444.11)"
            gradientUnits="userSpaceOnUse">
            <stop offset=".02" stop-color="#2666c4" />
            <stop offset="1" stop-color="#203567" />
        </linearGradient>
        <linearGradient id="o" x1="199" y1="564.56" x2="287" y2="564.56" gradientTransform="translate(0 444.11)"
            gradientUnits="userSpaceOnUse">
            <stop offset=".02" stop-color="#2666c4" />
            <stop offset="1" stop-color="#203567" />
        </linearGradient>
        <linearGradient id="p" x1="110.6" y1="484.86" x2="287" y2="484.86" gradientTransform="translate(0 444.11)"
            gradientUnits="userSpaceOnUse">
            <stop offset=".02" stop-color="#2666c4" />
            <stop offset="1" stop-color="#203567" />
        </linearGradient>
        <linearGradient id="q" x1="335.8" y1="480.21" x2="531.2" y2="480.21" gradientTransform="translate(0 444.11)"
            gradientUnits="userSpaceOnUse">
            <stop offset=".02" stop-color="#2666c4" />
            <stop offset="1" stop-color="#203567" />
        </linearGradient>
        <linearGradient id="r" x1="378.8" y1="545.01" x2="531.2" y2="545.01" gradientTransform="translate(0 444.11)"
            gradientUnits="userSpaceOnUse">
            <stop offset=".02" stop-color="#2666c4" />
            <stop offset="1" stop-color="#203567" />
        </linearGradient>
        <linearGradient id="s" x1="220.4" y1="627.36" x2="308.4" y2="627.36" gradientTransform="translate(0 444.11)"
            gradientUnits="userSpaceOnUse">
            <stop offset=".02" stop-color="#2666c4" />
            <stop offset="1" stop-color="#203567" />
        </linearGradient>
        <linearGradient id="t" x1="308.3" y1="626.56" x2="396.3" y2="626.56" gradientTransform="translate(0 444.11)"
            gradientUnits="userSpaceOnUse">
            <stop offset=".02" stop-color="#2666c4" />
            <stop offset="1" stop-color="#203567" />
        </linearGradient>
        <linearGradient id="u" x1="220" y1="546.86" x2="396.3" y2="546.86" gradientTransform="translate(0 444.11)"
            gradientUnits="userSpaceOnUse">
            <stop offset=".02" stop-color="#2666c4" />
            <stop offset="1" stop-color="#203567" />
        </linearGradient>
        <linearGradient id="aa" x1="1209.78" y1="1508.17" x2="1905.44" y2="1508.17"
            gradientTransform="translate(2125.55 1808.33) rotate(-180)" gradientUnits="userSpaceOnUse">
            <stop offset="0" stop-color="#3a2aa4" />
            <stop offset=".22" stop-color="#5c32b6" />
            <stop offset=".57" stop-color="#7533b4" />
            <stop offset="1" stop-color="#81d9bf" />
        </linearGradient>
        <linearGradient id="ab" x1="1209.78" y1="1566.39" x2="1905.44" y2="1566.39"
            gradientTransform="translate(2125.55 1808.33) rotate(-180)" gradientUnits="userSpaceOnUse">
            <stop offset="0" stop-color="#3a2aa4" />
            <stop offset=".22" stop-color="#5c32b6" />
            <stop offset=".57" stop-color="#7533b4" />
            <stop offset="1" stop-color="#81d9bf" />
        </linearGradient>
        <linearGradient id="ac" x1="1203.45" y1="1477.37" x2="1900.38" y2="1477.37"
            gradientTransform="translate(2125.55 1808.33) rotate(-180)" gradientUnits="userSpaceOnUse">
            <stop offset="0" stop-color="#3a2aa4" />
            <stop offset=".22" stop-color="#5c32b6" />
            <stop offset=".57" stop-color="#7533b4" />
            <stop offset="1" stop-color="#81d9bf" />
        </linearGradient>
        <linearGradient id="ad" x1="1137.34" y1="1060.87" x2="1837.77" y2="1972.27"
            gradientTransform="translate(2125.55 1808.33) rotate(-180)" gradientUnits="userSpaceOnUse">
            <stop offset="0" stop-color="#fff" stop-opacity="0" />
            <stop offset="1" stop-color="#f6f6f6" />
        </linearGradient>
        <linearGradient id="ae" x1="1345.83" y1="1383.31" x2="1421.72" y2="1531.67"
            gradientTransform="translate(2125.55 1808.33) rotate(-180)" gradientUnits="userSpaceOnUse">
            <stop offset=".2" stop-color="#fff" stop-opacity="0" />
            <stop offset="1" stop-color="#f6f6f6" />
        </linearGradient>
        <linearGradient id="af" x1="1762.63" y1="1404.49" x2="1704.35" y2="1503.5"
            gradientTransform="translate(2125.55 1808.33) rotate(-180)" gradientUnits="userSpaceOnUse">
            <stop offset=".2" stop-color="#fff" stop-opacity="0" />
            <stop offset="1" stop-color="#f6f6f6" />
        </linearGradient>
    </defs>
    <g id="a">
        <polyline class="az" points="919.8 333.22 570.8 534.72 223.3 334.12 572.3 132.62 919.5 334.12" />
        <polygon class="ba" points="571.5 1102.42 224 901.82 224 333.82 571.5 534.42 571.5 1102.42" />
        <polyline class="bf"
            points="571.1 659.02 571.1 534.32 918.6 333.72 918.6 458.32 918.6 473.72 918.6 598.32 571.1 799.02 571.1 674.32" />
        <polyline class="bb"
            points="571.1 962.02 571.1 837.32 918.6 636.72 918.6 761.32 918.6 777.72 918.6 902.32 571.1 1103.02 571.1 978.32" />
        <path class="ar"
            d="m772.5,552.62c.9,1.3,1.3,3.2,1.3,5.6,0,1.8-.2,3.6-.7,5.4-.5,1.8-1.2,3.5-2.1,5.2-.9,1.6-2,3.1-3.2,4.4-1.2,1.3-2.6,2.4-4.1,3.3-1.5.9-2.8,1.3-4.1,1.4-1.2.1-2.3-.1-3.2-.7-.9-.6-1.6-1.5-2.1-2.7s-.8-2.7-.8-4.5c0-2.4.4-4.7,1.3-7.1.9-2.4,2.1-4.5,3.6-6.4s3.3-3.5,5.2-4.6c2-1.2,3.8-1.6,5.3-1.5,1.5.1,2.7.8,3.6,2.2Zm-2.1,12.7c.6-1.9,1-3.8,1-5.7s-.3-3.4-1-4.5c-.6-1.1-1.5-1.7-2.7-1.9s-2.5.2-4,1.1c-1.5.9-2.9,2.1-4,3.6s-2,3.1-2.7,5c-.6,1.8-.9,3.7-.9,5.6,0,2,.3,3.5,1,4.6.6,1.1,1.5,1.8,2.7,2s2.5-.1,4-1,2.9-2.1,4-3.6c1-1.6,1.9-3.3,2.6-5.2" />
        <polygon class="ar"
            points="780.2 542.52 780.3 564.22 791.2 557.82 791.2 560.22 779.1 567.22 777.9 568.02 777.8 543.92 780.2 542.52" />
        <path class="ar"
            d="m804.6,528.52l8.3,19.3-2.5,1.4-2.5-5.9-9.7,5.6-2.4,8.7-2.3,1.3,8.2-28.8,2.1-1.2.8-.4Zm-5.6,17.5l8.1-4.7-4.1-9.8-4,14.5" />
        <path class="ar"
            d="m831.2,516.32c.6.7.8,1.8.9,3.3s-.3,2.9-.8,4.3c-.6,1.4-1.4,2.7-2.4,3.9-1.1,1.2-2.4,2.2-3.9,3.1l-6,3.5v9.9l-2.4,1.4-.1-24,8.5-4.9c1.5-.9,2.8-1.3,3.9-1.4,1-.1,1.8.2,2.3.9Zm-2.8,8.9c.8-1.3,1.2-2.7,1.2-4.2s-.4-2.4-1.2-2.7-2,0-3.6.9l-6,3.4v9.3l6-3.4c1.6-.9,2.8-2,3.6-3.3" />
        <path class="ar"
            d="m777.6,822.02c.9,1.3,1.4,3.1,1.4,5.5s-.4,4.8-1.4,7.1c-.9,2.4-2.2,4.5-3.8,6.5s-3.6,3.6-5.8,4.9l-5.7,3.3-1.4.8-.1-24,2.4-1.4,4.7-2.7c2.2-1.3,4.2-1.9,5.8-1.9,1.7,0,3,.7,3.9,1.9Zm-2.1,12.6c.7-1.9,1-3.8,1-5.7s-.4-3.4-1-4.4c-.7-1-1.7-1.6-3-1.6s-2.8.4-4.6,1.5l-4.7,2.7.1,19.2,4.7-2.7c1.8-1,3.3-2.3,4.6-3.9,1.2-1.5,2.2-3.2,2.9-5.1" />
        <path class="ar"
            d="m794,829.32c.1.5.1,1,.2,1.5l-2.3,1.3c-.1-.3-.1-.7-.2-1.2v-1.3c-.3,1-.9,2-1.6,2.9-.9,1.2-2,2.1-3.4,2.9-1.6.9-2.8,1.2-3.7.9s-1.4-1.2-1.4-2.7.4-2.9,1.4-4.3c.9-1.3,2.2-2.7,4-4l4.6-3.5v-.8c0-1.3-.3-2.1-.8-2.4-.5-.3-1.4-.1-2.5.5-1.1.7-2.1,1.5-2.7,2.4-.7.9-1.1,1.9-1.1,2.9l-2.3,1.3c.1-1.7.7-3.3,1.8-4.9,1.1-1.6,2.6-2.9,4.4-3.9,1.9-1.1,3.3-1.4,4.2-.9s1.4,1.7,1.4,3.7v8.2c-.1.4,0,.9,0,1.4Zm-2.4-2.6v-2.7l-4.2,3.2c-1.1.8-1.9,1.7-2.5,2.5s-.9,1.6-.9,2.5.3,1.4.8,1.5,1.3-.1,2.3-.7c1.3-.8,2.4-1.7,3.2-2.9.9-1.2,1.3-2.3,1.3-3.4" />
        <path class="ar"
            d="m801.6,804.52v5l4.5-2.6v2.3l-4.5,2.6v10c0,1,.2,1.5.7,1.7.4.2,1.2,0,2.1-.6.4-.2.7-.5,1-.7s.5-.4.7-.6v2.3c-.2.2-.5.4-.8.7-.4.3-.8.5-1.2.8-1.7,1-2.9,1.2-3.7.8s-1.1-1.4-1.1-3.1v-10l-3.1,1.8v-2.3l3.1-1.8v-4l2.3-2.3Z" />
        <path class="ar"
            d="m820.6,814.02c.1.5.1,1,.2,1.5l-2.3,1.3c-.1-.3-.1-.7-.2-1.2v-1.3c-.3,1-.9,2-1.6,2.9-.9,1.2-2,2.1-3.4,2.9-1.6.9-2.8,1.2-3.7.9s-1.4-1.2-1.4-2.7.4-2.9,1.4-4.3c.9-1.3,2.2-2.7,4-4l4.6-3.5v-.8c0-1.3-.3-2.1-.8-2.4-.5-.3-1.4-.1-2.5.5-1.1.7-2.1,1.5-2.7,2.4-.7.9-1.1,1.9-1.1,2.9l-2.3,1.3c.1-1.7.7-3.3,1.8-4.9,1.1-1.6,2.6-2.9,4.4-3.9,1.9-1.1,3.3-1.4,4.2-.9s1.4,1.7,1.4,3.7v8.2c-.1.4-.1.9,0,1.4Zm-2.5-2.6v-2.7l-4.2,3.2c-1.1.8-1.9,1.7-2.5,2.5s-.9,1.6-.9,2.5.3,1.4.8,1.5,1.3-.1,2.3-.7c1.3-.8,2.4-1.7,3.2-2.9.9-1.2,1.4-2.3,1.3-3.4" />
        <polygon class="ar"
            points="763.3 864.72 763.3 886.42 774.3 880.02 774.3 882.42 762.1 889.52 760.9 890.22 760.8 866.12 763.3 864.72" />
        <path class="ar"
            d="m788.7,872.52c.1.5.1,1,.2,1.5l-2.3,1.3c-.1-.3-.1-.7-.2-1.2v-1.2c-.3,1-.9,2-1.6,2.9-.9,1.2-2,2.1-3.4,2.9-1.6.9-2.8,1.2-3.7.9s-1.4-1.2-1.4-2.7.4-2.9,1.4-4.3c.9-1.3,2.2-2.7,4-4l4.6-3.5v-.8c0-1.3-.3-2.1-.8-2.4-.5-.3-1.4-.1-2.5.5-1.1.7-2.1,1.4-2.7,2.4-.7.9-1.1,1.9-1.1,2.9l-2.3,1.3c.1-1.7.7-3.3,1.8-4.9,1.1-1.6,2.6-2.9,4.4-3.9,1.9-1.1,3.3-1.4,4.2-.9s1.4,1.7,1.4,3.7v8.2c-.1.3-.1.8,0,1.3Zm-2.4-2.6v-2.7l-4.2,3.2c-1.1.8-1.9,1.7-2.5,2.5s-.9,1.6-.8,2.5c0,.9.3,1.4.8,1.5s1.3-.1,2.3-.7c1.3-.8,2.4-1.7,3.2-2.9.8-1.2,1.2-2.3,1.2-3.4" />
        <polygon class="ar"
            points="795.4 845.52 795.5 860.82 802.7 849.02 805.9 847.12 798.1 859.82 806.3 864.02 803 865.92 795.5 861.92 795.5 870.22 793.1 871.52 793.1 846.92 795.4 845.52" />
        <path class="ar"
            d="m820.4,842.42c.6.9.9,2.2.9,3.9v.6c0,.2,0,.4-.1.7l-11.8,6.8c.1,1.5.6,2.6,1.4,3.2.9.7,2.2.6,3.7-.3,1-.6,1.8-1.3,2.5-2.2s1.3-1.9,1.6-3l2.2-1.3c-.5,1.8-1.3,3.5-2.5,5.1-1.1,1.6-2.5,2.8-4,3.7-1.4.8-2.7,1.2-3.8,1.1-1.1-.1-2-.7-2.6-1.7s-1-2.3-1-4.1c0-1.7.3-3.4.9-5.1.6-1.7,1.5-3.2,2.6-4.6,1.1-1.4,2.4-2.5,3.9-3.3,1.4-.8,2.6-1.2,3.7-1.1,1,.2,1.8.7,2.4,1.6Zm-11,9.8l9.5-5.5c-.1-1.4-.5-2.3-1.2-2.8-.8-.6-1.9-.5-3.4.3-1.5.9-2.7,2.1-3.6,3.8-.7,1.4-1.2,2.8-1.3,4.2" />
        <path class="ap"
            d="m340.5,630.34v-112.8c0-18.4,10.2-29.1,22.8-23.3l81,36c13.8,6.3,25.3,27.1,25.3,46.9v120c0,19.7-11.3,29.6-25.3,22.2l-81-43.1c-12.7-6.8-22.8-27.1-22.8-45.9Z" />
        <path class="ar"
            d="m444.8,626.34l-36.8-48c-3.3-4.2-7.2-5.8-10.2-4.7l-35.1,12.6c-2.7.9-2.7,6.6,0,10.2l35.1,47.2c3.3,4.4,7.2,6.3,10.2,5.2l36.8-11.8c3-.8,3-6.6,0-10.7Z" />
        <path class="be"
            d="m444.8,611.94l-36.8-47.8c-3.3-4.2-7.2-5.8-10.2-4.7l-35.1,12.9c-2.7.9-2.7,6.6,0,10.2l35.1,46.9c3.3,4.1,7.2,6,10.2,4.9l36.8-12.1c3-.9,3-6.9,0-10.3Z" />
        <polygon class="ap" points="880.1 620.92 918.6 636.72 571.1 837.32 571.1 799.02 880.1 620.92" />
        <path class="ag"
            d="m716.3,633.32l-39.3,22.7c-4.7,2.7-8.5-.2-8.5-6.4v-52.4c0-6.2,3.8-13.5,8.5-16.2l39.3-22.7c4.7-2.7,8.5.2,8.5,6.4v52.4c-.1,6.2-3.9,13.5-8.5,16.2Z" />
        <path class="ar"
            d="m695.9,615.42c-1.4-.2-2.8-.4-4.1-.6-.5-.1-1.1-.1-1.6-.3-.1,0-.3-.2-.3-.4v-8.7h.4c1.7.3,3.4.5,5.2.8.3,0,.4.2.4.7,0,2.8,0,5.5,0,8.5Z" />
        <path class="ar"
            d="m689.9,616.52c.9.1,1.8.3,2.7.4,1,.1,2,.3,3,.5.1,0,.3.2.3.4v8.8h-.3c-1.8-.3-3.5-.5-5.3-.8-.2,0-.4-.2-.4-.3v-9Z" />
        <path class="ar"
            d="m697.3,625.62v-8.5c0-.3.1-.7.3-.9,1.8-2.4,3.6-4.8,5.5-7.2l.2-.2v8.5c0,.2-.1.7-.3.9-1.8,2.4-3.6,4.7-5.4,7-.1.1-.2.2-.3.4Z" />
        <path class="ar"
            d="m697.2,614.52v-8.5c0-.2.1-.7.2-.8,1.8-2.4,3.7-4.8,5.5-7.2q.1-.1.2-.3v.7c0,2.5,0,5.1.1,7.6,0,.5-.1.9-.5,1.3-1.7,2.2-3.4,4.4-5,6.6-.1.2-.2.3-.5.6Z" />
        <path class="ar"
            d="m703.3,619.82v8.6c0,.2-.1.6-.2.8-1.8,2.4-3.7,4.8-5.6,7.2,0,.1-.1.1-.2.2v-8.5c0-.3.1-.7.3-.9,1.8-2.4,3.6-4.7,5.4-7,.1-.1.2-.2.3-.4Z" />
        <path class="ar"
            d="m696,637.42c-.5-.1-1-.1-1.4-.2-1.4-.2-2.8-.4-4.2-.6-.2,0-.4-.1-.4-.3v-8.6h.5c1.7.3,3.4.5,5.2.8.2,0,.4.2.4.5,0,2.7.1,5.3.1,8-.2.1-.2.2-.2.4Z" />
        <path class="ar"
            d="m683.6,604.42c.7.1,1.4.2,2.1.3.9.1,1.7.2,2.6.4.2,0,.3.2.3.5v8.7h-.4c-1.4-.2-2.8-.4-4.2-.6-.2,0-.4-.2-.4-.4,0-3,0-5.9,0-8.9Z" />
        <path class="ar"
            d="m704.6,604.92v-8.8c0-.1.1-.4.2-.5,1.6-2.1,3.2-4.1,4.8-6.3v8.6c0,.2-.1.7-.2.8-1.5,2-3,4-4.5,5.9l-.3.3Z" />
        <path class="ar"
            d="m683.6,615.52c.8.1,1.5.2,2.2.3.8.1,1.6.2,2.4.4.2,0,.3.2.3.4v8.8c-.5-.1-1-.1-1.4-.2-1.1-.2-2.1-.3-3.2-.5-.2,0-.3-.2-.3-.4v-8.8Z" />
        <path class="ar"
            d="m710.9,619.02v-8.6c0-.3.1-.7.3-.9,1.4-1.9,2.9-3.8,4.4-5.7.1-.1.1-.2.3-.3v8.6c0,.2-.1.6-.2.8-1.6,2-3.1,4-4.8,6.1Z" />
        <path class="ar"
            d="m709.6,611.62v8.5c0,.3-.1.7-.3.9-1.5,2-3,3.9-4.5,5.9,0,.1-.1.1-.2.2v-8.4c0-.5.1-.8.4-1.2,1.5-1.9,3-3.9,4.6-5.9Z" />
        <path class="ar"
            d="m677.3,603.42c.9.1,1.7.2,2.6.4.7.1,1.4.2,2.1.3.1,0,.3.1.3.3v8.8h-.4c-1.4-.2-2.8-.4-4.2-.6-.2,0-.3-.3-.3-.5-.1-2.8-.1-5.7-.1-8.7Z" />
        <path class="ar"
            d="m709.6,600.62v8.6c0,.2-.1.5-.2.7-1.5,2-3.1,4-4.6,6,0,0-.1,0-.2.1v-8.5c0-.2.1-.6.2-.8,1.5-2,3.1-4,4.6-6,0,0,.1,0,.2-.1Z" />
        <path class="ar"
            d="m688.6,636.42c-1.6-.2-3.2-.5-4.8-.7-.1,0-.2-.2-.2-.4v-8.5l.1-.1c.7.1,1.3.2,2,.3.9.1,1.7.2,2.6.4.2,0,.3.2.3.4,0,2.8.1,5.5.1,8.3,0,0-.1.1-.1.3Z" />
        <path class="ar"
            d="m691,603.52c1.9-2.4,3.6-4.7,5.4-6.9.1-.1.3-.3.4-.2,1.8.2,3.6.4,5.5.7-1.3,1.7-2.5,3.3-3.7,4.9l-.3.3c-.5.7-1.1,1.7-1.6,2s-1.1-.1-1.6-.1c-1.5-.3-2.7-.5-4.1-.7Z" />
        <path class="ar"
            d="m682.3,635.52c-1.4-.2-2.7-.5-4.1-.5-.7,0-.9-.5-.9-1.5.1-2.6,0-5.1,0-7.7h.3c1.4.2,2.9.4,4.3.7.1,0,.3.2.3.4.1,2.8.1,5.6.1,8.6Z" />
        <path class="ar"
            d="m682.3,624.52c-.6-.1-1.1-.2-1.6-.2-1-.1-1.9-.3-2.9-.5-.2,0-.3-.2-.3-.4v-8.8c.6.1,1.1.1,1.6.2,1,.1,2,.3,3,.5.1,0,.3.2.3.3-.1,2.9-.1,5.8-.1,8.9Z" />
        <path class="ar"
            d="m715.8,581.22v8.8c0,.2-.1.4-.1.5-1.5,2-3.1,4.1-4.7,6.2v-8.3c0-.5.1-.9.4-1.3,1.4-1.7,2.7-3.5,4.1-5.3,0-.2.1-.3.3-.6Z" />
        <path class="ar"
            d="m710.9,607.82v-8.5c0-.4.1-.7.4-1.1,1.5-1.9,2.9-3.8,4.5-5.9v8.5c0,.5-.1.8-.4,1.2-1.4,1.7-2.7,3.5-4.1,5.3-.1.1-.2.3-.4.5Z" />
        <path class="ar"
            d="m709,588.12c-.7,1-1.5,2-2.2,2.9-1,1.2-1.9,2.5-2.9,3.7-.1.2-.4.4-.5.4-1.8-.2-3.6-.4-5.4-.7.9-1.2,1.8-2.3,2.7-3.5.9-1.1,1.7-2.2,2.6-3.3.2-.2.4-.4.5-.4,1.7.2,3.5.4,5.2.7q-.1.1,0,.2Z" />
        <path class="ar"
            d="m691,593.62c.9-1.2,1.8-2.3,2.6-3.4.9-1.1,1.8-2.3,2.7-3.4.1-.2.4-.3.5-.3,1.8.2,3.5.4,5.3.7-.1.2-.2.4-.3.5-1.6,2.1-3.2,4.2-4.8,6.2-.2.2-.4.4-.5.4-1.9-.3-3.7-.5-5.5-.7Z" />
        <path class="ar"
            d="m684.1,602.52c1.4-1.8,2.8-3.5,4-5.3,1-1.5,1.8-2,2.8-1.7,1.1.3,2.4.4,3.6.5.1,0,.3,0,.5.1-1.1,1.4-2.1,2.8-3.2,4.1-.7.9-1.3,1.7-2,2.6-.2.2-.4.4-.5.4-1.6-.2-3.3-.5-5.2-.7Z" />
        <path class="ar"
            d="m684.7,592.72c1.5-2,3-3.9,4.5-6,.7-.9,1.2-1.2,1.8-1.1,1.2.2,2.4.3,3.6.5.1,0,.3.1.5.1-.9,1.1-1.7,2.2-2.5,3.3-.9,1.1-1.8,2.3-2.7,3.4-.2.2-.4.4-.5.4-1.5-.2-3-.4-4.5-.6-.1.1-.1,0-.2,0Z" />
        <path class="ar"
            d="m697.9,584.62c1.6-2.1,3.2-4.1,4.7-6.1.1-.2.3-.3.5-.3,1.7.3,3.4.5,5.1.8,0,0,0,.1.1.1-1,1.4-2.1,2.7-3.1,4.1-.5.7-1.1,1.6-1.6,1.9-.5.3-1.1,0-1.6-.1-1.4-.1-2.7-.2-4.1-.4Z" />
        <path class="ar"
            d="m688.2,595.22c-1.4,1.8-2.7,3.4-3.9,5.1-1.1,1.6-2,2.1-3.1,1.8-1-.3-2.1-.4-3.3-.5,1.4-1.9,2.8-3.6,4.1-5.4.9-1.3,1.6-1.7,2.5-1.5,1.2.3,2.4.3,3.7.5Z" />
        <path class="ar"
            d="m715.1,580.12c-1.5,2-3,3.9-4.5,5.8-.1.1-.2.2-.3.2-1.8-.2-3.6-.4-5.4-.7,1.6-2,3.1-4,4.6-5.9.1-.2.3-.3.5-.2,1.6.3,3.3.5,5.1.8Z" />
        <path class="ar"
            d="m691.5,583.72c.8-1,1.5-1.9,2.2-2.9.8-1.1,1.6-2.1,2.4-3.2.2-.2.4-.5.6-.4,1.6.2,3.1.5,4.7.7-.1.2-.2.4-.3.5-1.4,1.8-2.8,3.7-4.2,5.5-.2.2-.4.4-.6.4-1.5-.2-3-.4-4.5-.6-.1.1-.2,0-.3,0Z" />
        <ellipse class="ah" cx="687.96" cy="884.84" rx="22.7" ry="8.3"
            transform="translate(-386.02 564.22) rotate(-35.51)" />
        <path class="ag" d="m687.9,911.72c-10.5,6.1-19.1,6.6-19.1,1.1" />
        <path class="ag" d="m687.9,928.92c-10.5,6.1-19.1,6.6-19.1,1.1" />
        <line class="ag" x1="707" y1="884.52" x2="707" y2="873.62" />
        <path class="ag" d="m668.8,895.72v50.7c0,5.5,8.5,5,19.1-1.1,10.5-6.1,19.1-15.4,19.1-20.9" />
        <path class="ag"
            d="m691.5,898.62l2.6,3.5c.6.8,1.8,0,2.4-1.4l1.6-4.2c.5-1.4,1.8-2.2,2.4-1.4l1.9,2.4c.6.7,1.8,0,2.3-1.4l1.6-4.2c.6-1.5,1.8-2.2,2.4-1.4l1.5,2.2c.6.8,1.8.1,2.4-1.3l1.7-4.4c.6-1.4,1.8-2.1,2.3-1.4l1.9,2.4c.6.7,1.8,0,2.3-1.4l2.8-7.3" />
        <path class="ag"
            d="m691.5,909.72l2.6,3.5c.6.8,1.8,0,2.4-1.4l1.6-4.2c.5-1.4,1.8-2.2,2.4-1.4l1.9,2.4c.6.7,1.8,0,2.3-1.4l1.6-4.2c.6-1.5,1.8-2.2,2.4-1.4l1.5,2.2c.6.8,1.8.1,2.4-1.3l1.7-4.4c.6-1.4,1.8-2.1,2.3-1.4l1.9,2.4c.6.7,1.8,0,2.3-1.4l2.8-7.3" />
        <path class="ag"
            d="m691.5,920.92l2.6,3.5c.6.8,1.8,0,2.4-1.4l1.6-4.2c.5-1.4,1.8-2.2,2.4-1.4l1.9,2.4c.6.7,1.8,0,2.3-1.4l1.6-4.2c.6-1.5,1.8-2.2,2.4-1.4l1.5,2.2c.6.8,1.8.1,2.4-1.3l1.7-4.4c.6-1.4,1.8-2.1,2.3-1.4l1.9,2.4c.6.7,1.8,0,2.3-1.4l2.8-7.3" />
        <ellipse class="as" cx="286.01" cy="693.64" rx="8" ry="18"
            transform="translate(-392.09 372.52) rotate(-42.25)" />
        <ellipse class="as" cx="396.62" cy="762.35" rx="8" ry="18"
            transform="translate(-409.55 464.75) rotate(-42.25)" />
        <polygon class="bn" points="267.8 736.72 310.8 761.52 158.4 849.52 115.4 824.72 267.8 736.72" />
        <polyline class="bl" points="158.4 849.52 158.4 954.32 310.8 866.42 310.8 761.52 158.4 849.52" />
        <polygon class="bk" points="87.9 1020.92 0 971.42 0 859.82 88 909.82 87.9 1020.92" />
        <polygon class="bh" points="87.9 1020.92 175.9 968.42 175.5 859.42 88 909.82 87.9 1020.92" />
        <polygon class="bq" points="87.9 910.72 175.5 859.42 87.9 808.12 0 859.82 87.9 910.72" />
        <polygon class="bs" points="378.9 805.92 421.9 830.72 269.5 918.72 226.5 893.92 378.9 805.92" />
        <polyline class="bm" points="269.5 918.72 269.5 1023.52 421.9 935.62 421.9 830.72 269.5 918.72" />
        <polygon class="br" points="199 1090.02 111.1 1040.52 111.1 928.92 199.1 978.92 199 1090.02" />
        <polygon class="bo" points="199 1090.02 287 1037.52 287 927.32 199.1 978.92 199 1090.02" />
        <polygon class="bp" points="199 979.72 287 927.32 199 878.22 110.6 928.72 199 979.72" />
        <ellipse class="as" cx="507.74" cy="825.54" rx="8" ry="18"
            transform="translate(-423.17 555.88) rotate(-42.25)" />
        <polygon class="bi" points="488.2 867.92 531.2 892.72 378.8 980.72 335.8 955.92 488.2 867.92" />
        <polyline class="bj" points="378.8 980.72 378.8 1085.52 531.2 997.62 531.2 892.72 378.8 980.72" />
        <polygon class="bg" points="308.3 1152.02 220.4 1102.52 220.4 990.92 308.4 1040.92 308.3 1152.02" />
        <polygon class="bd" points="308.3 1152.02 396.3 1099.52 396.3 989.32 308.4 1040.92 308.3 1152.02" />
        <polygon class="bc" points="308.4 1041.72 396.3 989.32 308.4 940.22 220 990.72 308.4 1041.72" />
        <path class="al"
            d="m54.1,939.32c-3.7-23.8-11.4-34.1-13.3-39.3-.8-2.3-1.5-4.6-2.1-6.8-.1,1.9-.3,3-1.5,3.7-2.5,1.5-13,6.8-13.8,31-.8,22.5,12.7,44.5,14.5,47,1.4,1.7,3,1.8,3.9,1.4,6.2-2.2,15.1-12.9,12.3-37" />
        <path class="an"
            d="m39.1,963.52c-.3,5.5-.6,8.7-1.4,11.4,0,0,.6,5.7,1,11.7l1.4.8c.3-3.8.8-7.6,1.5-11.1-1.8-2.2-2.4-7.8-2.5-12.8Z" />
        <path class="am"
            d="m41.6,976.32h0c-1.8-2.2-2.4-7.8-2.5-12.8.5-7.9.6-16,.4-24.3-.1-4.4,0-39.8-.8-45.4.6,2.1,1.2,4.2,2,6.3,2,5.2,9.7,15.4,13.3,39.3,2.9,23.9-5.9,34.7-12.4,36.9Z" />
        <g id="v">
            <path class="ak"
                d="m272.9,1095.72c.4-3.8.2-4.4,2.5-2.5l.6.4c1.7,1.1,3.9,1.9,5.2,1.8,2.8-.1,4.5-2.1,1.7-2.9-6.3-1.9-6.8-5-6.8-5,6.7-9.4,9.5-24.6,7.1-30.1-6.6-15-18-16.3-18.2-16.3h-.1c-1.3-1.1-2.7-2.1-4.2-3-2.9-1.7-5-1.9-6.7-1.2,0,0-20.3-22.9-19.4,2.9.2,5.5,5.8,43.9,12.4,37.1,2.4-2.5,4.8-4.4,4.8-4.4,1.2,1.7,2.6,3,4,3.7l.1-.1v1.5c-1.7,1.6-1.2,2.3-4.6,1.3-3.5-1-1.4,1.8-.1,3,1.6,1.5,5.3,4.4,7.8,1.1l-.1.5c.7,1.1.6,5.5.7,8.7s.3,6.3.7,8.3c.5,2,1.1,6.8,5.5,8.1,3.9,1.2,6.8,1.3,7.1-12.9" />
            <path class="ak"
                d="m264.5,1111.22c-1.4-.8-2.9-2.2-4.2-4.5-1.2-2.2-1.7-4.5-2-5.8,0-.2-.1-.4-.1-.5-.6-2.4-.8-5.5-.9-9.3v-3.1c-1.9,0-4.2-1.1-6.6-3.3-.7-.6-1.3-1.4-1.9-2.2-.4-.6-.8-1.2-1-1.7-1.9,1-3.8-.3-4.8-1.4-1.8-1.8-3.4-5-4.9-9.6-1.1-3.3-2.1-7.3-3-12.1-1.7-8.2-2.7-16.5-2.8-19.1-.3-8.1,1.3-12.9,4.8-14.1,2.9-1,6.8.4,11.7,4.3,2.1,1.6,3.9,3.4,5,4.5,2-.4,4.4.2,7,1.8,1.4.9,2.8,1.8,4,2.8,1.4.2,4,.9,6.9,2.7,5.6,3.3,10.2,8.8,13.3,16,1.2,2.7,2.2,7.8.3,16.5-1.2,5.4-3.2,10.7-5.8,14.9.7.4,1.6.8,2.8,1.1.7.2,1.3.5,1.8.9,1.1.9,2,2.3,2.3,3.8,1,4.4-3.1,4.9-4.4,5-1.6.1-4.2-.8-6.3-2.2l-.1-.1-.4-.3v.4c0,.2,0,.4-.1.6-.1,7.2-.9,11.4-2.6,13.6-1.7,2.3-4.1,1.8-6.2,1.2-.4-.1-1.1-.4-1.8-.8Zm-4.1-29.2c1.3,2.2,1.5,4.9,1.6,9.8v1.7c0,1.6.2,5.4.6,7.2.1.3.1.5.2.8.5,2.3.7,3.2,2.7,3.8,1.7.5,2.6.6,3.3-.3,1-1.4,1.6-5,1.7-10.8l2.4,1.4-2.3-1.7c0-.2,0-.5.1-.7.2-2.2.4-4,1.6-4.4.8-.3,1.7.1,2.5.7-.6-1.2-.8-2.2-.9-2.7l-.2-1.4.6-.8c2.9-4.1,5.3-9.8,6.6-15.7,1.4-6.6.8-10.1.6-10.7-5.2-11.9-14.3-13.6-15.3-13.7h-.2l-.9-.3-.5-.4c-1.1-1-2.4-1.9-3.8-2.7-2.1-1.3-3.8-1.6-5.2-1l-1.1.5-1.2-1.4c-2.4-2.7-9.6-9.5-13.3-8.2-2.1.8-3,4.1-2.8,9.8.1,2,1.1,9.9,2.7,17.9,2.3,11,4.2,14.8,4.8,15.4.1,0,.3,0,.7-.4,2.4-2.5,4.8-4.4,4.9-4.5l1.4-1.1,1.6,2.4c.6.8,1.2,1.5,1.8,1.9l3.9-2.2-.6,7.4v.7l.2,1.6-.7.7h0l1.8,2.2.7-.8Z" />
            <path class="ao"
                d="m282.8,1092.62c-6.3-1.9-6.8-5-6.8-5,6.7-9.4,9.5-24.6,7.1-30.1-6.6-15-18-16.3-18.2-16.3h-.1c-1.3-1.1-2.7-2.1-4.2-3-2.9-1.7-5-1.9-6.7-1.2,0,0-20.3-22.9-19.4,2.9.2,5.5,5.8,43.9,12.4,37.1,2.4-2.5,4.8-4.4,4.8-4.4,1.2,1.7,2.6,3,4,3.7l.1-.1v1.5c-1.7,1.6-1.2,2.3-4.6,1.3-3.5-1-1.4,1.8-.1,3,1.6,1.5,5.3,4.4,7.8,1.1l-.1.5c.7,1.1,1.1,5.3,1.1,8.8-.1,3.5-.1,5.9.4,8.2.5,2.2,1.1,6.8,5.5,8.1,3.8,1.1,5.7-.6,6-5,.2-3.2.6-2.4.7-5.4l.3-1.2c.4-4.2.1-5.9,2.4-3.9l.6.4c1.7,1.1,3.9,1.9,5.2,1.8,3,0,4.6-2,1.8-2.8h0Z" />
            <path class="ar"
                d="m264.7,1109.42c-3.8-2.2-5-6.9-5.5-8.8-.7-2.8-.9-11.8-.7-19.6,0-.6.4-.8.8-.6.4.3.8.9.8,1.5-.2,8.6.1,16.6.6,18.7.8,3.2,2,6.2,5.5,7.3,3.4,1,4.5.1,5.1-3.9.4-3.1,1.3-12,1.4-13.8,0-.6.4-.8.8-.5s.8,1,.7,1.5c-.1,1.9-1,10.8-1.4,14-.7,4.7-2.4,6.1-6.3,4.9-.6-.1-1.2-.4-1.8-.7Z" />
            <path class="ar"
                d="m244.4,1078.42c-.4-.2-.7-.5-1-.8-2.5-2.5-4.8-9.2-6.9-19.8-1.6-8.1-2.7-16.1-2.8-18.5-.3-7.3,1.1-11.6,4.1-12.7,2.5-.9,6.1.4,10.5,3.9,3.2,2.6,5.7,5.4,5.8,5.5.4.5.6,1.2.4,1.6-.2.4-.6.4-1,0-.1-.1-9.6-10.7-14.9-8.8-2.5.9-3.7,4.7-3.5,11.3.1,2.1,1,9.9,2.7,18,1.9,9.4,4.1,15.9,5.9,17.8.3.3,1.2,1.2,2.4-.1,2.4-2.5,4.6-4.3,4.7-4.3.3-.2.8,0,1.1.6s.3,1.2,0,1.5c0,0-2.2,1.8-4.6,4.2-.9,1.2-2,1.1-2.9.6Z" />
            <path class="ar"
                d="m276,1088.52c-.2-.1-.3-.2-.4-.4-.4-.5-.5-1.2-.2-1.6,6.7-9.5,9.1-24.2,7.1-28.8-2.5-5.8-6.1-10.2-10.7-12.9-3.4-2-6.1-2.4-6.5-2.5h-.1c-.5-.1-.8-.6-1-1.1-.2-.6,0-1.1.3-1.1.3-.1,3.4.4,7.1,2.6,5.1,3,9.3,8,12.1,14.5.7,1.6,1.1,3.8,1,6.5,0,2.4-.4,5.2-1,8.1-1.4,6.3-3.9,12.4-7.1,16.7-.1.1-.3.1-.6,0Z" />
            <path class="ar"
                d="m276.4,1094.82c-1.2-.7-2.2-1.5-2.8-2.4-.7-.9-.8-1.7-.8-2.1-.2-4.1,1.4-4,2.3-3.8-.1-.3-.3-.6-.4-1-.5-1.1-1.2-2.7-1.7-4.7-.1-.3-.3-1.1-.6-2-1.6-4.9-5-14.9-2.8-17.9,1-1.3,3-1,5.9,1.1-.4-1.8-1.4-5.2-3.2-9.1-2.1-4.5-5.8-10.6-11.6-14.1-2.9-1.8-5.3-1.9-7.2-.6-4.1,3.1-3.9,13.1-3.9,13.2,0,.6-.3.9-.8.6-.4-.2-.8-.9-.8-1.5,0-.4-.2-11,4.4-14.5,2.1-1.6,4.9-1.4,8.3.6,6.3,3.8,10.4,10.4,12.7,15.3,2.5,5.3,3.7,10.3,3.8,11.8.1,1.2-.6,1-.7,1l-.3-.2c-3.6-2.8-5-2.6-5.5-1.9-1.6,2.2,1.6,11.6,2.9,15.7.4,1,.6,1.8.7,2.2.4,1.7,1,3,1.5,4.1.4.9.8,1.7.9,2.5.1.2.9,2.3,5.9,3.8,1.3.4,2.1,1.2,2.3,2.3.5,2.2-2.1,2.8-3.5,2.9-1.2.4-3.3-.2-5-1.3Zm-2.1-3.7c.2.3,1,1.1,2.6,1.9,1.4.7,3,1.2,3.9,1.2,1.1,0,1.8-.3,2.2-.6h0c-3.2-1-5.5-2.4-6.8-4.3-.1-.1-.2-.2-.2-.3-.1,0-.2,0-.3-.1-.8-.2-1.5-.3-1.4,2.2Z" />
            <path class="ar"
                d="m253.5,1084.62c-.8-.5-1.6-1.1-2.5-1.9-.2-.2-2.4-2.3-2.4-4.1,0-1.7,1.9-1.1,2.5-.9,2.4.7,2.6.6,3.3-.3.2-.2.5-.6.9-.9,1.3-1.1,2.4.2,2.9.8.8.9,1.5,2.3,1.7,3.8.2,1.3.1,2.3-.3,2.9-1.4,1.9-3.6,2.1-6.1.6Zm-3.2-4.9c.2.3.6.8,1,1.2,2.1,1.9,5,3.6,7,1.1.2-.3.2-.9.1-1.3-.1-.7-.5-1.5-.8-1.9-.4-.5-.7-.7-1.2-.3h0c-.3.3-.6.6-.8.8-1,1.1-1.4,1.4-4.2.5-.5-.1-.9-.1-1.1-.1Zm5.6-2.2h0Z" />
            <path class="ar"
                d="m255.8,1078.52c-.4-.2-.7-.8-.8-1.3v-.4c-1.8-1.1-3.6-3.2-5-5.9-1.7-3.4-2.5-7.2-2.2-10.4.4-3.4.2-6.7.2-8.5v-1.1c0-.3,0-1.2,2.1-1.4.7-.1,2.2-.1,3.8.6,2.7,1.2,4.4,3.8,4.9,7.3,1.4,9.5.1,12.6-.8,14.8-.2.4-.3.8-.5,1.2l-.1.4c-.5,1.5-.9,2.8-.8,4,.1.6-.2,1-.7.8,0-.1-.1-.1-.1-.1Zm-6.2-26.5v.7c.1,1.9.2,5.3-.2,8.9-.3,2.6.3,5.6,1.7,8.4,1.1,2.2,2.5,3.8,4,4.7.2-.8.4-1.7.7-2.5l.1-.3c.2-.5.3-.9.5-1.3.9-2.2,2-4.8.7-13.6-.3-1.7-.9-2.9-1.8-3.8-2-2-5.1-1.6-5.7-1.2Z" />
            <path class="ar"
                d="m253.9,1054.12c0,.3.5,1.5,1.1,2,.7.5,1.2.1,1.3-.2,0-.3-.5-1-1.1-1.5-.7-.5-1.3-.6-1.3-.3h0Z" />
            <path class="ar"
                d="m255.2,1056.62c-.1,0-.1-.1-.2-.1-.4-.3-.8-.9-1.1-1.6-.1-.2-.3-.7-.2-1,0-.1.1-.3.2-.3.3-.1.8.1,1.3.5.4.3.7.6.9.9.4.6.5.9.4,1.1,0,.3-.3.5-.5.6-.2.1-.5,0-.8-.1Zm-1-2.3c0,.3.4,1.1.9,1.5s.9.1,1-.1c-.1-.1-.4-.6-.9-1-.6-.4-1-.4-1-.4Z" />
            <path class="ar"
                d="m274,1065.02c0,.4-.5,1-1.1.7-.7-.3-1.2-1.3-1.3-1.7,0-.4.5-.4,1.1-.2.7.3,1.2.8,1.3,1.2h0Z" />
            <path class="ar"
                d="m272.7,1065.82c-.7-.4-1.2-1.4-1.2-1.8-.1-.6.6-.6,1.2-.3.7.3,1.4.8,1.4,1.4h0c0,.2-.1.5-.3.7-.2.1-.5.3-.9.1-.1,0-.2-.1-.2-.1Zm.4-1.6c-.1-.1-.2-.1-.4-.2-.7-.3-1-.1-1,.1s.5,1.2,1.1,1.4c.4.1.6,0,.7-.1.2-.2.3-.4.3-.5s-.2-.4-.7-.7Z" />
            <path class="ar"
                d="m274.9,1085.32c-.2-.1-.3-.2-.4-.4-.4-.5-.5-1.2-.2-1.6,1.5-2.2,1.3-5.5,1-8.6-.1-1.4-.2-2.8-.2-4,0-1.3.2-2.3.3-3.3.1-1.2.3-2.3.2-3.7,0-.6.3-.9.7-.7s.8.9.8,1.5c.1,1.6-.1,2.9-.2,4.1-.1.9-.2,1.9-.3,3.1,0,1.1.1,2.4.2,3.7.3,3.4.6,7.3-1.2,9.9-.2.1-.4.1-.7,0Z" />
        </g>
        <path class="aq"
            d="m144.9,978.62c1.7-1.4,4.1-1.5,6.8,0,3.5,2,6.6,6.5,8.3,11.3,1.4,0,3,.4,4.7,1.4,6.4,3.7,11.6,13.7,11.6,22.3s-5.2,12.6-11.6,8.9c-.8-.4-1.5-1-2.3-1.6-1.5,2.6-4.2,3.4-7.4,1.5-1.3-.8-2.6-1.9-3.7-3.3-1.5,3.8-4.9,5-8.9,2.7-4.2-2.4-7.7-8-9.1-13.7-.6-.2-1.2-.4-1.8-.8-5-2.9-9-10.6-9-17.3,0-4.5,1.8-7.3,4.5-7.9-.6-2-.9-4.1-.9-6,0-7.7,4.7-11.2,10.4-7.9,3.5,2.1,6.5,6,8.4,10.4" />
        <path class="ar"
            d="m130.3,990.72v.2c.1.2.2.3.3.4.5.7,1.1,1.1,1.6,1.4,1.1.6,1.8.2,1.8-1h0c0-1.2-.8-2-1.5-2.8l-.1-.1c-.5-.6-1-1-1-1.5h0c0-.4.3-.6.7-.3.5.3,1,.8,1.4,1.3,0,0,.1.2.1,0,0-.1.2-.6.2-.7s0-.1-.1-.2c-.4-.6-1-1.1-1.6-1.5l-.1-.1c-1-.6-1.7-.2-1.7,1h0c0,1.2.8,2.1,1.5,2.8l.1.1c.5.5,1,1,1,1.5h0c0,.5-.3.6-.8.3-.2-.1-.8-.5-1.4-1.4-.1-.1-.1-.2-.2-.3,0,0-.1-.1-.1,0l-.1.9h0Zm16.1,9.4v.2c.1.2.2.3.3.4.5.7,1.1,1.1,1.6,1.4,1.1.6,1.8.2,1.8-1h0c0-1.2-.8-2-1.5-2.8l-.1-.1c-.5-.6-1-1-1-1.5h0c0-.4.3-.6.7-.3.5.3,1,.8,1.4,1.3,0,0,.1.2.1,0,0-.1.2-.6.2-.7s0-.1-.1-.2c-.4-.6-1-1.1-1.6-1.5l-.1-.1c-1-.6-1.7-.2-1.7,1h0c0,1.2.8,2.1,1.5,2.8l.1.1c.5.5,1,1,1,1.5h0c0,.5-.3.6-.8.3-.2-.1-.8-.5-1.4-1.4-.1-.1-.1-.2-.2-.3,0,0-.1-.1-.1,0l-.1.9h0Zm11.1,3.9c0,.7-.1,1.2-.3,1.5s-.5.3-.9.1-.7-.6-.9-1.1-.3-1.1-.3-1.8.1-1.2.3-1.5c.2-.3.5-.3.9-.1s.7.6.9,1.1c.2.4.3,1.1.3,1.8m.9-.8c-.1-.5-.2-.9-.4-1.3s-.4-.8-.7-1.1c-.3-.3-.6-.6-1-.8s-.7-.3-1-.3-.5.1-.7.3-.3.5-.4.8c-.1.4-.1.8-.1,1.2,0,.5,0,.9.1,1.4s.2.9.4,1.3.4.8.7,1.1.6.6,1,.8.7.3,1,.3.5-.1.7-.3.3-.5.4-.8c.1-.4.1-.8.1-1.2,0-.5,0-1-.1-1.4m7.5,7.7c0-.1-.1-.1-.1-.1-.1,0-.3,0-.4-.1-.2-.1-.3-.1-.5-.2-.4-.3-.8-.6-1.1-1.1-.3-.5-.4-1.1-.4-1.9,0-.7.1-1.1.4-1.4.2-.3.6-.3,1,0,.4.2.7.4,1,.7,0,0,.1.1.1,0,.1-.3.1-.4.2-.7,0-.1,0-.2-.1-.2-.1-.1-.4-.4-.6-.6-.2-.2-.4-.3-.7-.5-.4-.2-.7-.3-1-.3s-.5.1-.7.3-.3.5-.4.8-.2.8-.2,1.2c0,1,.2,2,.6,2.8s1,1.5,1.8,2c.5.3,1,.4,1.3.4,0,0,.1,0,0-.1l-.2-1h0Zm1.7-1.8c0-.4.1-.7.3-.8.2-.3.5-.3.9-.1s.7.6.9,1.1c.1.3.2.7.2,1.1l-2.3-1.3h0Zm3.1.9c-.1-.4-.3-.9-.4-1.2-.2-.4-.4-.7-.6-.9-.3-.3-.6-.6-.9-.8-.4-.2-.7-.3-1-.3s-.5.1-.7.3-.3.5-.4.8c-.1.4-.1.8-.1,1.2,0,.5,0,1,.1,1.4.1.5.2.9.5,1.3.2.4.5.8.8,1.1s.7.6,1.1.9c.9.5,1.4.5,1.6.5,0,0,.1,0,0-.2l-.2-.9c0-.1-.1-.1-.1-.1-.2,0-.5,0-1.3-.4-.5-.3-.8-.7-1.1-1.1-.2-.4-.3-.9-.4-1.6l3.1,1.8s.1,0,.1-.1c0,.1.1-.6-.1-1.7m-28.1-15.3c0-.4.1-.7.3-.8.2-.3.5-.3.9-.1s.7.6.9,1.1c.1.3.2.7.2,1.1l-2.3-1.3Zm3.1.9c-.1-.4-.3-.9-.4-1.2-.2-.4-.4-.7-.6-.9-.3-.3-.6-.6-.9-.8-.4-.2-.7-.3-1-.3s-.5.1-.7.3-.3.5-.4.8c-.1.4-.1.8-.1,1.2,0,.5,0,1,.1,1.4.1.5.2.9.5,1.3.2.4.5.8.8,1.1s.7.6,1.1.9c.9.5,1.4.5,1.6.5,0,0,.1,0,0-.2l-.2-.9c0-.1-.1-.1-.1-.1-.2,0-.5,0-1.3-.4-.5-.3-.8-.7-1.1-1.1-.2-.4-.3-.9-.4-1.6l3.1,1.8s.1,0,.1-.1c0,.1.1-.6-.1-1.7m-9.8-2.1l-.2-.4c-.1-.2-.1-.4-.1-.6,0-.4.1-.6.3-.6,0,0,.3-.2.9.2l.8.6v1.9h0s-.4-.1-.8-.3c-.7-.3-.9-.8-.9-.8m1.2-2.2c-.1-.1-.3-.2-.5-.3-.3-.2-.5-.3-.8-.3-.2-.1-.5,0-.7,0-.2.1-.3.2-.5.4-.1.2-.2.5-.2.9s0,.7.1,1,.2.6.4.9c.2.3.4.5.6.7s.5.4.8.6c.3.2.6.3.9.4.3.1.7.2.8.3q.1,0,.2.1c.1,0,.1-.1.1-.1v-3.8c0-.8-.2-1.5-.5-2.1s-.8-1-1.4-1.4c-.2-.1-.6-.3-.8-.4,0,0-.7-.2-1-.1,0,0-.1,0,0,.1l.2.9c0,.1.1.1.1.1h.1c.6-.1,1.4.4,1.4.4.3.2.6.4.8.7s.3.6.3,1.1v.2c-.2-.1-.4-.3-.4-.3m25.1,12.4v-.2c-.1-.1-.3-.3-.5-.4-.4-.3-.6-.3-.8-.3s-.4.1-.5.2v-.5q0-.1-.1-.2l-.8-.5q-.1,0-.1.1v6.2c0,.1,0,.2.1.2l.8.5q.1,0,.1-.1v-3.1c0-.4,0-.8.1-1s.2-.4.3-.5c.1-.1.2-.1.4-.1.1,0,.3.1.4.2.2.1.3.3.3.3h.1c.1-.2.2-.7.2-.8" />
        <path class="ar"
            d="m154.6,996.42c-.1-.1-.2-.2-.3-.3s-.3-.2-.4-.3c-.6-.3-1-.4-1.3-.1-.3.2-.5.8-.6,1.5v.3l-.7-.4s-.1-.1-.1.1l-.1.8q0,.1.1.2l.7.4-.7,4.8c-.1.4-.1.7-.2.9s-.1.4-.2.5-.2.1-.3.1-.2-.1-.4-.1c-.1,0-.2-.1-.2-.2q-.1-.1-.2-.2s-.1-.1-.1,0-.2.6-.2.7v.2c.1.1.2.2.3.3.2.2.3.2.5.3.3.2.5.3.8.3.2,0,.4-.1.6-.2.2-.2.3-.4.4-.7s.2-.7.3-1.2l.7-4.9,1,.6s.1.1.1-.1l.1-.8q0-.1-.1-.2l-1-.6s.1-.5.2-.8c0-.2.1-.3.2-.3.1-.1.2-.1.3-.1s.2.1.3.1c.1.1.2.1.3.2q.1.1.2.1t.1,0l.2-.7c-.3-.1-.3-.2-.3-.2m-14,.9q0,.1,0,0l-.9-.4c-.1,0-.1-.1-.1-.2v-8.9q0-.1.1-.1l.8.5c.1,0,.1.1.1.2v8.9Z" />
    </g>
    <g id="w">
        <line class="ai" x1="286.3" y1="703.72" x2="286.3" y2="705.72" />
        <path class="ar"
            d="m286.8,742.42h-1v-3.7h1v3.7Zm0-7.4h-1v-3.6h1v3.6Zm0-7.3h-1v-3.7h1v3.7Zm0-7.4h-1v-3.7h1v3.7Zm0-7.3h-1v-3.7h1v3.7Z" />
        <polygon class="ar"
            points="284.8 749.52 284.3 748.62 285.8 747.82 285.8 746.02 286.8 746.02 286.8 748.32 284.8 749.52" />
        <path class="ar"
            d="m130.4,837.42l-.5-.9,1.9-1.1.5.9-1.9,1.1Zm5.3-3.1l-.5-.9,3.4-1.9.5.9-3.4,1.9Zm6.8-3.8l-.5-.9,3.4-1.9.5.9-3.4,1.9Zm6.8-3.9l-.5-.9,3.4-1.9.5.9-3.4,1.9Zm6.8-3.8l-.5-.9,3.4-1.9.5.9-3.4,1.9Zm6.7-3.9l-.5-.9,3.4-1.9.5.9-3.4,1.9Zm6.8-3.9l-.5-.9,3.4-1.9.5.9-3.4,1.9Zm6.8-3.8l-.5-.9,3.4-1.9.5.9-3.4,1.9Zm6.8-3.9l-.5-.9,3.4-1.9.5.9-3.4,1.9Zm6.7-3.8l-.5-.9,3.4-1.9.5.9-3.4,1.9Zm6.8-3.9l-.5-.9,3.4-1.9.5.9-3.4,1.9Zm6.8-3.8l-.5-.9,3.4-1.9.5.9-3.4,1.9Zm6.8-3.9l-.5-.9,3.4-1.9.5.9-3.4,1.9Zm6.7-3.9l-.5-.9,3.4-1.9.5.9-3.4,1.9Zm6.8-3.8l-.5-.9,3.4-1.9.5.9-3.4,1.9Zm6.8-3.9l-.5-.9,3.4-1.9.5.9-3.4,1.9Zm6.8-3.8l-.5-.9,3.4-1.9.5.9-3.4,1.9Zm6.7-3.9l-.5-.9,3.4-1.9.5.9-3.4,1.9Zm6.8-3.9l-.5-.9,3.4-1.9.5.9-3.4,1.9Zm6.8-3.8l-.5-.9,3.4-1.9.5.9-3.4,1.9Zm6.8-3.9l-.5-.9,3.4-1.9.5.9-3.4,1.9Zm6.8-3.8l-.5-.9,3.4-1.9.5.9-3.4,1.9Zm6.7-3.9l-.5-.9,3.4-1.9.5.9-3.4,1.9Z" />
        <line class="ai" x1="159.2" y1="820.42" x2="157.5" y2="821.42" />
    </g>
    <g id="x">
        <line class="ai" x1="397.4" y1="772.92" x2="397.4" y2="774.92" />
        <path class="ar"
            d="m397.9,811.52h-1v-3.7h1v3.7Zm0-7.3h-1v-3.7h1v3.7Zm0-7.4h-1v-3.7h1v3.7Zm0-7.3h-1v-3.7h1v3.7Zm0-7.3h-1v-3.7h1v3.7Z" />
        <polygon class="ar"
            points="396 818.62 395.5 817.82 396.9 816.92 396.9 815.22 397.9 815.22 397.9 817.52 396 818.62" />
        <path class="ar"
            d="m253.6,899.62l-.5-.9,3.4-1.9.5.9-3.4,1.9Zm6.8-3.8l-.5-.9,3.4-1.9.5.9-3.4,1.9Zm6.8-3.9l-.5-.9,3.4-1.9.5.9-3.4,1.9Zm6.8-3.8l-.5-.9,3.4-1.9.5.9-3.4,1.9Zm6.8-3.9l-.5-.9,3.4-1.9.5.9-3.4,1.9Zm6.7-3.9l-.5-.9,3.4-1.9.5.9-3.4,1.9Zm6.8-3.8l-.5-.9,3.4-1.9.5.9-3.4,1.9Zm6.8-3.9l-.5-.9,3.4-1.9.5.9-3.4,1.9Zm6.8-3.8l-.5-.9,3.4-1.9.5.9-3.4,1.9Zm6.7-3.9l-.5-.9,3.4-1.9.5.9-3.4,1.9Zm6.8-3.9l-.5-.9,3.4-1.9.5.9-3.4,1.9Zm6.8-3.8l-.5-.9,3.4-1.9.5.9-3.4,1.9Zm6.8-3.9l-.5-.9,3.4-1.9.5.9-3.4,1.9Zm6.7-3.8l-.5-.9,3.4-1.9.5.9-3.4,1.9Zm6.8-3.9l-.5-.9,3.4-1.9.5.9-3.4,1.9Zm6.8-3.8l-.5-.9,3.4-1.9.5.9-3.4,1.9Zm6.8-3.9l-.5-.9,3.4-1.9.5.9-3.4,1.9Zm6.8-3.9l-.5-.9,3.4-1.9.5.9-3.4,1.9Zm6.7-3.8l-.5-.9,3.4-1.9.5.9-3.4,1.9Zm6.8-3.9l-.5-.9,3.4-1.9.5.9-3.4,1.9Zm6.8-3.8l-.5-.9,3.4-1.9.5.9-3.4,1.9Z" />
        <line class="ai" x1="270.3" y1="889.62" x2="268.6" y2="890.62" />
    </g>
    <g id="y">
        <line class="ai" x1="506.7" y1="834.92" x2="506.7" y2="836.92" />
        <path class="ar"
            d="m507.2,873.62h-1v-3.7h1v3.7Zm0-7.4h-1v-3.7h1v3.7Zm0-7.3h-1v-3.7h1v3.7Zm0-7.4h-1v-3.7h1v3.7Zm0-7.3h-1v-3.7h1v3.7Z" />
        <polygon class="ar"
            points="505.3 880.72 504.8 879.82 506.2 878.92 506.2 877.22 507.2 877.22 507.2 879.52 505.3 880.72" />
        <path class="ar"
            d="m359,963.92l-.5-.9.6-.3.5.9-.6.3Zm3.9-2.2l-.5-.9,3.4-1.9.5.9-3.4,1.9Zm6.8-3.9l-.5-.9,3.4-1.9.5.9-3.4,1.9Zm6.8-3.8l-.5-.9,3.4-1.9.5.9-3.4,1.9Zm6.8-3.9l-.5-.9,3.4-1.9.5.9-3.4,1.9Zm6.8-3.9l-.5-.9,3.4-1.9.5.9-3.4,1.9Zm6.7-3.8l-.5-.9,3.4-1.9.5.9-3.4,1.9Zm6.8-3.9l-.5-.9,3.4-1.9.5.9-3.4,1.9Zm6.8-3.8l-.5-.9,3.4-1.9.5.9-3.4,1.9Zm6.8-3.9l-.5-.9,3.4-1.9.5.9-3.4,1.9Zm6.7-3.9l-.5-.9,3.4-1.9.5.9-3.4,1.9Zm6.8-3.8l-.5-.9,3.4-1.9.5.9-3.4,1.9Zm6.8-3.9l-.5-.9,3.4-1.9.5.9-3.4,1.9Zm6.8-3.8l-.5-.9,3.4-1.9.5.9-3.4,1.9Zm6.7-3.9l-.5-.9,3.4-1.9.5.9-3.4,1.9Zm6.8-3.9l-.5-.9,3.4-1.9.5.9-3.4,1.9Zm6.8-3.8l-.5-.9,3.4-1.9.5.9-3.4,1.9Zm6.8-3.9l-.5-.9,3.4-1.9.5.9-3.4,1.9Zm6.8-3.8l-.5-.9,3.4-1.9.5.9-3.4,1.9Zm6.7-3.9l-.5-.9,3.4-1.9.5.9-3.4,1.9Zm6.8-3.8l-.5-.9,3.4-1.9.5.9-3.4,1.9Zm6.8-3.9l-.5-.9,3.4-1.9.5.9-3.4,1.9Z" />
        <line class="ai" x1="379.6" y1="951.62" x2="377.9" y2="952.62" />
    </g>
    <!-- <g id="z">
        <g class="aj">
            <polygon class="at" points="565.83 498.02 915.77 301.64 567.94 102.3 220.1 300.79 565.83 498.02" />
            <polygon class="aw" points="565.83 439.8 915.77 243.42 567.94 44.09 220.1 242.58 565.83 439.8" />
            <polygon class="ay" points="574.26 534.72 922.1 330.96 574.26 127.19 225.17 332.43 574.26 534.72" />
            <polygon class="ax" points="567.94 401.2 220.1 200.6 567.51 0 915.77 200.6 567.94 401.2" />
            <polygon class="av" points="915.77 200.6 915.77 301.64 567.94 501.39 567.94 401.2 915.77 200.6" />
            <polygon class="au" points="567.94 401.2 220.1 200.6 220.1 300.79 567.94 501.39 567.94 401.2" />
        </g>
    </g> -->
</svg>