<?xml version="1.0" encoding="UTF-8"?>
<svg id="Layer_1" data-name="Layer 1" xmlns="http://www.w3.org/2000/svg" xmlns:xlink="http://www.w3.org/1999/xlink" viewBox="0 0 300.2 510">
  <defs>
    <style>
      .cls-1 {
        opacity: .47;
      }

      .cls-1, .cls-2, .cls-3, .cls-4, .cls-5, .cls-6, .cls-7 {
        fill: none;
      }

      .cls-2, .cls-8, .cls-9, .cls-10 {
        opacity: .54;
      }

      .cls-3 {
        opacity: .49;
      }

      .cls-4 {
        opacity: .66;
      }

      .cls-5, .cls-6, .cls-11 {
        opacity: .63;
      }

      .cls-12 {
        fill: url(#linear-gradient-5);
      }

      .cls-12, .cls-13, .cls-14 {
        opacity: .55;
      }

      .cls-12, .cls-13, .cls-14, .cls-8, .cls-9, .cls-6, .cls-15, .cls-16, .cls-17, .cls-18, .cls-19, .cls-20, .cls-11, .cls-21, .cls-22, .cls-23, .cls-24, .cls-25, .cls-26, .cls-27, .cls-10, .cls-7 {
        isolation: isolate;
      }

      .cls-13 {
        fill: url(#linear-gradient-9);
      }

      .cls-14 {
        fill: url(#linear-gradient-7);
      }

      .cls-8 {
        fill: url(#linear-gradient-6);
      }

      .cls-9 {
        fill: url(#linear-gradient-8);
      }

      .cls-28 {
        fill: url(#linear-gradient);
      }

      .cls-29 {
        fill: #f9d8d2;
      }

      .cls-30 {
        fill: #e9e9e9;
      }

      .cls-31, .cls-19 {
        fill: #fcfcfc;
      }

      .cls-32, .cls-11 {
        fill: #fff;
      }

      .cls-33 {
        fill: #e5e5e5;
      }

      .cls-34, .cls-20 {
        fill: #32678f;
      }

      .cls-35 {
        fill: #dd00a1;
      }

      .cls-36 {
        fill: #1f68ac;
      }

      .cls-37 {
        fill: #15518b;
      }

      .cls-38 {
        fill: #10110e;
      }

      .cls-39 {
        fill: #4388c6;
      }

      .cls-40 {
        fill: #4383f7;
      }

      .cls-41 {
        fill: #29b2e5;
      }

      .cls-42 {
        fill: #3c79de;
      }

      .cls-43 {
        fill: #515151;
      }

      .cls-15 {
        fill: #b9b4fc;
      }

      .cls-15, .cls-16 {
        opacity: .33;
      }

      .cls-16, .cls-17, .cls-21 {
        fill: #fafafc;
      }

      .cls-17 {
        opacity: .18;
      }

      .cls-18 {
        fill: #8accce;
        opacity: .2;
      }

      .cls-19 {
        opacity: .22;
      }

      .cls-20 {
        opacity: .65;
      }

      .cls-21 {
        opacity: .51;
      }

      .cls-22 {
        fill: #fd0000;
      }

      .cls-22, .cls-23 {
        opacity: .6;
      }

      .cls-23 {
        fill: #fdcb02;
      }

      .cls-24 {
        fill: #e5e5ec;
        opacity: .41;
      }

      .cls-25 {
        fill: #fc351f;
        opacity: .42;
      }

      .cls-26 {
        fill: url(#linear-gradient-12);
      }

      .cls-26, .cls-27 {
        opacity: .44;
      }

      .cls-27 {
        fill: url(#linear-gradient-11);
      }

      .cls-10 {
        fill: url(#linear-gradient-10);
      }

      .cls-44 {
        fill: url(#linear-gradient-3);
      }

      .cls-45 {
        fill: url(#linear-gradient-4);
      }

      .cls-46 {
        fill: url(#linear-gradient-2);
      }

      .cls-7 {
        opacity: .25;
        stroke: #fff;
        stroke-dasharray: 0 0 4 5.6;
        stroke-linecap: round;
        stroke-linejoin: round;
      }

      .cls-47 {
        fill: url(#linear-gradient-14);
      }

      .cls-48 {
        fill: url(#linear-gradient-18);
      }

      .cls-49 {
        fill: url(#linear-gradient-22);
      }

      .cls-50 {
        fill: url(#linear-gradient-20);
      }

      .cls-51 {
        fill: url(#linear-gradient-21);
      }

      .cls-52 {
        fill: url(#linear-gradient-15);
      }

      .cls-53 {
        fill: url(#linear-gradient-19);
      }

      .cls-54 {
        fill: url(#linear-gradient-16);
      }

      .cls-55 {
        fill: url(#linear-gradient-17);
      }

      .cls-56 {
        fill: url(#linear-gradient-13);
      }
    </style>
    <linearGradient id="linear-gradient" x1="-854.87" y1="832.58" x2="-919.1" y2="829.66" gradientTransform="translate(-732.35 -840.82) rotate(-90)" gradientUnits="userSpaceOnUse">
      <stop offset="0" stop-color="#213567"/>
      <stop offset="1" stop-color="#0a193d" stop-opacity="0"/>
    </linearGradient>
    <linearGradient id="linear-gradient-2" x1="-854.87" y1="970.28" x2="-919.1" y2="967.36" gradientTransform="translate(-732.35 -840.82) rotate(-90)" gradientUnits="userSpaceOnUse">
      <stop offset="0" stop-color="#213567"/>
      <stop offset="1" stop-color="#0a193d" stop-opacity="0"/>
    </linearGradient>
    <linearGradient id="linear-gradient-3" x1="29.21" y1="452.33" x2="14.47" y2="239.07" gradientTransform="translate(0 511) scale(1 -1)" gradientUnits="userSpaceOnUse">
      <stop offset="0" stop-color="#2c4577"/>
      <stop offset="1" stop-color="#0a193d" stop-opacity="0"/>
    </linearGradient>
    <linearGradient id="linear-gradient-4" x1="269.11" y1="463.71" x2="254.37" y2="250.44" gradientTransform="translate(0 511) scale(1 -1)" gradientUnits="userSpaceOnUse">
      <stop offset="0" stop-color="#2c4577"/>
      <stop offset="1" stop-color="#0a193d" stop-opacity="0"/>
    </linearGradient>
    <linearGradient id="linear-gradient-5" x1="108.6" y1="774.2" x2="191.6" y2="774.2" gradientTransform="translate(0 -278)" gradientUnits="userSpaceOnUse">
      <stop offset="0" stop-color="#163270"/>
      <stop offset="1" stop-color="#2f4d97"/>
    </linearGradient>
    <linearGradient id="linear-gradient-6" x1="95.92" y1="762.62" x2="144.67" y2="782.52" gradientTransform="translate(0 -278)" gradientUnits="userSpaceOnUse">
      <stop offset="0" stop-color="#264087"/>
      <stop offset="1" stop-color="#2f4d97"/>
    </linearGradient>
    <linearGradient id="linear-gradient-7" x1="0" y1="774.2" x2="83" y2="774.2" gradientTransform="translate(0 -278)" gradientUnits="userSpaceOnUse">
      <stop offset="0" stop-color="#163270"/>
      <stop offset="1" stop-color="#2f4d97"/>
    </linearGradient>
    <linearGradient id="linear-gradient-8" x1="-12.68" y1="762.62" x2="36.07" y2="782.52" gradientTransform="translate(0 -278)" gradientUnits="userSpaceOnUse">
      <stop offset="0" stop-color="#264087"/>
      <stop offset="1" stop-color="#2f4d97"/>
    </linearGradient>
    <linearGradient id="linear-gradient-9" x1="217.2" y1="774.2" x2="300.2" y2="774.2" gradientTransform="translate(0 -278)" gradientUnits="userSpaceOnUse">
      <stop offset="0" stop-color="#163270"/>
      <stop offset="1" stop-color="#2f4d97"/>
    </linearGradient>
    <linearGradient id="linear-gradient-10" x1="204.52" y1="762.62" x2="253.27" y2="782.52" gradientTransform="translate(0 -278)" gradientUnits="userSpaceOnUse">
      <stop offset="0" stop-color="#264087"/>
      <stop offset="1" stop-color="#2f4d97"/>
    </linearGradient>
    <linearGradient id="linear-gradient-11" x1="218.6" y1="773.9" x2="244.4" y2="773.9" gradientTransform="translate(0 -278)" gradientUnits="userSpaceOnUse">
      <stop offset="0" stop-color="#5d5a5b" stop-opacity="0"/>
      <stop offset=".49" stop-color="#fafafc"/>
      <stop offset="1" stop-color="#000" stop-opacity="0"/>
    </linearGradient>
    <linearGradient id="linear-gradient-12" x1="231.13" y1="785.12" x2="231.88" y2="762.37" gradientTransform="translate(0 -278)" gradientUnits="userSpaceOnUse">
      <stop offset="0" stop-color="#5d5a5b" stop-opacity="0"/>
      <stop offset=".49" stop-color="#fafafc"/>
      <stop offset="1" stop-color="#000" stop-opacity="0"/>
    </linearGradient>
    <linearGradient id="linear-gradient-13" x1="144.57" y1="509.72" x2="141.93" y2="299.66" gradientTransform="translate(0 511) scale(1 -1)" gradientUnits="userSpaceOnUse">
      <stop offset="0" stop-color="#fff" stop-opacity="0"/>
      <stop offset="1" stop-color="#fff" stop-opacity=".75"/>
    </linearGradient>
    <linearGradient id="linear-gradient-14" x1="191.04" y1="502.83" x2="188.52" y2="301.8" gradientTransform="translate(0 511) scale(1 -1)" gradientUnits="userSpaceOnUse">
      <stop offset="0" stop-color="#fff" stop-opacity="0"/>
      <stop offset="1" stop-color="#fff" stop-opacity=".75"/>
    </linearGradient>
    <linearGradient id="linear-gradient-15" x1="121.74" y1="491.71" x2="119.6" y2="321.5" gradientTransform="translate(0 511) scale(1 -1)" gradientUnits="userSpaceOnUse">
      <stop offset="0" stop-color="#fff" stop-opacity="0"/>
      <stop offset="1" stop-color="#fff" stop-opacity=".75"/>
    </linearGradient>
    <linearGradient id="linear-gradient-16" x1="167.15" y1="509.44" x2="164.51" y2="299.38" gradientTransform="translate(0 511) scale(1 -1)" gradientUnits="userSpaceOnUse">
      <stop offset="0" stop-color="#fff" stop-opacity="0"/>
      <stop offset="1" stop-color="#fff" stop-opacity=".75"/>
    </linearGradient>
    <linearGradient id="linear-gradient-17" x1="101.73" y1="510.26" x2="99.09" y2="300.2" gradientTransform="translate(0 511) scale(1 -1)" gradientUnits="userSpaceOnUse">
      <stop offset="0" stop-color="#fff" stop-opacity="0"/>
      <stop offset="1" stop-color="#fff" stop-opacity=".75"/>
    </linearGradient>
    <linearGradient id="linear-gradient-18" x1="93.14" y1="510.37" x2="90.49" y2="300.31" gradientTransform="translate(0 511) scale(1 -1)" gradientUnits="userSpaceOnUse">
      <stop offset="0" stop-color="#fff" stop-opacity="0"/>
      <stop offset="1" stop-color="#fff" stop-opacity=".75"/>
    </linearGradient>
    <linearGradient id="linear-gradient-19" x1="212.36" y1="508.87" x2="209.72" y2="298.81" gradientTransform="translate(0 511) scale(1 -1)" gradientUnits="userSpaceOnUse">
      <stop offset="0" stop-color="#fff" stop-opacity="0"/>
      <stop offset="1" stop-color="#fff" stop-opacity=".75"/>
    </linearGradient>
    <linearGradient id="linear-gradient-20" x1="-854.87" y1="876.38" x2="-919.1" y2="873.46" gradientTransform="translate(-732.35 -840.82) rotate(-90)" gradientUnits="userSpaceOnUse">
      <stop offset="0" stop-color="#213567"/>
      <stop offset="1" stop-color="#0a193d" stop-opacity="0"/>
    </linearGradient>
    <linearGradient id="linear-gradient-21" x1="-854.87" y1="916.28" x2="-919.1" y2="913.36" gradientTransform="translate(-732.35 -840.82) rotate(-90)" gradientUnits="userSpaceOnUse">
      <stop offset="0" stop-color="#213567"/>
      <stop offset="1" stop-color="#0a193d" stop-opacity="0"/>
    </linearGradient>
    <linearGradient id="linear-gradient-22" x1="-854.87" y1="791.28" x2="-919.1" y2="788.36" gradientTransform="translate(-732.35 -840.82) rotate(-90)" gradientUnits="userSpaceOnUse">
      <stop offset="0" stop-color="#213567"/>
      <stop offset="1" stop-color="#0a193d" stop-opacity="0"/>
    </linearGradient>
  </defs>
  <path class="cls-7" d="m152.66,400.81v82.19m20.93-82.19v40.54c0,4.81,5.72,9.07,14.14,10.6l55.23,10.09c8.5,1.53,14.14,5.79,14.14,10.6v10.35m-125.29-82.19v40.54c0,4.81-5.72,9.07-14.21,10.6l-55.15,10.01c-8.5,1.53-14.21,5.79-14.21,10.6v10.43"/>
  <path class="cls-28" d="m115.8,16.3v27.5c0,9-7.3,16.3-16.3,16.3h0c-9,0-16.3-7.3-16.3-16.3v-27.5c0-9,7.3-16.3,16.3-16.3h0c8.9,0,16.3,7.3,16.3,16.3Z"/>
  <path class="cls-46" d="m253.5,16.3v27.5c0,9-7.3,16.3-16.3,16.3h0c-9,0-16.3-7.3-16.3-16.3v-27.5c0-9,7.3-16.3,16.3-16.3h0c9,0,16.3,7.3,16.3,16.3Z"/>
  <g class="cls-2">
    <path class="cls-11" d="m241.1,187.8h-50.3v.9h50.3c9,0,16.2,7.3,16.2,16.2v170.7c0,9-7.3,16.2-16.2,16.2h-47.7v.9h47.7c9.4,0,17.2-7.7,17.2-17.2v-170.5c-.1-9.4-7.7-17.2-17.2-17.2Z"/>
    <path class="cls-11" d="m101.8,392h-47.7c-9,0-16.2-7.3-16.2-16.2v-170.8c0-9,7.3-16.2,16.2-16.2h50.3v-.9h-50.3c-9.4,0-17.2,7.7-17.2,17.2v170.7c0,9.4,7.7,17.2,17.2,17.2h47.7v-1Z"/>
  </g>
  <g>
    <path class="cls-32" d="m114.8,395.6c-.9,0-1.6-.2-2.1-.6s-.8-1-.9-1.8h.8c.1.6.3,1,.7,1.3.4.3.9.4,1.5.4.5,0,.9-.1,1.2-.3.3-.2.4-.5.4-.9s-.1-.6-.3-.8c-.2-.2-.5-.4-.9-.5l-1.2-.4c-.6-.2-1.1-.5-1.4-.8s-.5-.7-.5-1.2c0-.4.1-.7.3-1,.2-.3.5-.5.8-.7.4-.2.8-.3,1.3-.3.7,0,1.3.2,1.8.6s.7.9.8,1.7h-.8c-.1-.5-.3-.9-.6-1.1-.3-.3-.7-.4-1.2-.4s-.9.1-1.1.3c-.3.2-.4.5-.4.8s.1.6.3.7c.2.2.5.4.9.5l1.3.5c.6.2,1,.5,1.3.8.3.4.4.8.4,1.3,0,.6-.2,1.1-.6,1.5-.3.2-1,.4-1.8.4Z"/>
    <path class="cls-32" d="m120.8,395.6c-.5,0-.9-.1-1.3-.4s-.7-.6-.9-1c-.3-.4-.3-.9-.3-1.5s.1-1,.3-1.5c.2-.4.5-.7.9-1,.4-.2.8-.4,1.3-.4s.9.1,1.3.3c.4.2.6.5.8.9s.3.8.3,1.3v.4h-4.4v-.7h3.8l-.3.4c0-.6-.2-1.1-.4-1.5-.3-.4-.7-.5-1.2-.5s-.9.2-1.2.5c-.3.4-.5.8-.5,1.5,0,.6.2,1.1.5,1.5s.7.6,1.3.6c.4,0,.6-.1.9-.2.3-.2.5-.4.6-.6h.8c-.2.5-.5.9-.9,1.1s-.9.8-1.4.8Z"/>
    <path class="cls-32" d="m124.4,395.5v-5.3h.8v1.2h.1v4h-.9v.1Zm3.6,0v-3.5c0-.4-.1-.7-.3-.9-.2-.2-.4-.3-.8-.3-.3,0-.6.1-.9.2-.3.2-.5.4-.6.6-.2.3-.2.6-.2.9l-.2-1.2c.2-.4.5-.7.8-.9.4-.2.7-.4,1.2-.4s.9.2,1.2.5.5.7.5,1.2v3.7l-.7.1h0Zm3.6,0v-3.5c0-.4-.1-.7-.3-.9-.2-.2-.4-.3-.8-.3-.3,0-.6.1-.9.2-.3.2-.5.4-.6.6-.2.3-.2.6-.2.9l-.2-1.2c.2-.4.5-.7.8-.9.4-.2.8-.4,1.2-.4.5,0,.9.2,1.2.5s.5.7.5,1.2v3.7l-.7.1h0Z"/>
    <path class="cls-32" d="m136.2,395.6c-.5,0-.9-.1-1.3-.4-.4-.3-.7-.6-.9-1s-.3-.9-.3-1.5.1-1,.3-1.5c.2-.4.5-.7.9-1,.4-.2.8-.4,1.3-.4s.9.1,1.3.3c.4.2.6.5.8.9s.3.8.3,1.3v.4h-4.4v-.7h3.8l-.3.4c0-.6-.2-1.1-.4-1.5-.3-.4-.7-.5-1.2-.5s-.9.2-1.3.5c-.4.4-.5.8-.5,1.5,0,.6.2,1.1.5,1.5s.8.6,1.3.6c.4,0,.6-.1.9-.2.3-.2.5-.4.6-.6h.8c-.2.5-.5.9-.9,1.1-.3.6-.8.8-1.3.8Z"/>
    <path class="cls-32" d="m139.9,395.5v-5.3h.8v1.2h.1v4h-.9v.1Zm3.7,0v-3.5c0-.4-.1-.7-.3-.9-.2-.2-.5-.3-.9-.3s-.7.1-.9.2c-.3.2-.5.4-.6.6-.2.3-.2.6-.2.9l-.2-1.2c.2-.4.5-.7.8-.9.4-.2.8-.4,1.2-.4.6,0,1,.2,1.3.5s.5.7.5,1.2v3.7l-.7.1h0Z"/>
    <path class="cls-32" d="m145.4,390.8v-.7h3.5v.7h-3.5Zm2.8,4.8c-.6,0-1-.2-1.3-.4s-.4-.7-.4-1.1v-5.1l.8-.3v5.3c0,.3.1.5.2.7s.4.2.7.2c.2,0,.3,0,.4-.1.1,0,.2-.1.3-.1v.7c-.1.1-.2.1-.3.1-.1.1-.3.1-.4.1Z"/>
    <path class="cls-32" d="m149.9,389v-1h.9v1h-.9Zm.1,6.5v-5.3h.8v5.3h-.8Z"/>
    <path class="cls-32" d="m154.5,395.6c-.5,0-.9-.1-1.3-.4-.4-.3-.7-.6-.9-1s-.3-.9-.3-1.5c0-.5.1-1,.3-1.4s.5-.7.9-1,.8-.4,1.3-.4c.4,0,.7.1,1,.2.3.2.6.4.8.6s.3.6.4,1h-.8c-.1-.4-.2-.6-.5-.8-.3-.2-.6-.3-1-.3s-.6.1-.9.3c-.3.2-.5.4-.6.7-.2.3-.2.7-.2,1.1s.1.8.2,1.1c.2.3.3.6.6.7.3.2.6.3.9.3.4,0,.7-.1.9-.3.3-.2.4-.5.5-.8h.8c-.1.4-.2.7-.4,1s-.5.5-.8.6c-.1.2-.4.3-.9.3Z"/>
    <path class="cls-32" d="m160.1,395.5v-7.5h.8v7.5h-.8Zm.5,0v-.7h4.3v.7h-4.3Z"/>
    <path class="cls-32" d="m167.6,395.6c-.6,0-1-.2-1.3-.4-.3-.3-.5-.6-.5-1.1s.2-.8.5-1.1c.3-.3.8-.4,1.4-.5l1.9-.3v.7l-1.7.3c-.4.1-.7.2-.9.3s-.3.4-.3.6.1.5.3.6c.2.2.5.2.8.2.5,0,.8-.1,1.1-.3.3-.2.5-.5.5-.8l.2.7c-.1.4-.3.6-.6.8-.4.2-.9.3-1.4.3Zm1.8-.1c-.1-.1-.1-.3-.1-.4v-.6h-.1v-2.5c0-.4-.1-.7-.3-.9-.2-.2-.5-.3-.9-.3s-.7.1-1,.3-.4.4-.4.7h-.8c.1-.5.3-.9.6-1.2.4-.3.9-.4,1.6-.4s1.1.2,1.5.5c.3.3.5.8.5,1.4v2.5c0,.2,0,.3.1.5,0,.2.1.3.1.5l-.8-.1h0Z"/>
    <path class="cls-32" d="m173.4,395.5l-2.4-5.3h.9l2,4.8-.5.5Zm-1.2,2.1l1.2-2.7.2-.3,1.7-4.4h.8l-3.1,7.4h-.8Z"/>
    <path class="cls-32" d="m179.3,395.6c-.5,0-.9-.1-1.3-.4-.4-.3-.7-.6-.9-1s-.3-.9-.3-1.5.1-1,.3-1.5c.2-.4.5-.7.9-1,.4-.2.8-.4,1.3-.4s.9.1,1.3.3c.4.2.6.5.8.9s.3.8.3,1.3v.4h-4.4v-.7h3.8l-.3.4c0-.6-.2-1.1-.4-1.5s-.7-.5-1.2-.5-.9.2-1.3.5-.5.8-.5,1.5c0,.6.2,1.1.5,1.5s.8.6,1.3.6c.4,0,.6-.1.9-.2.3-.2.5-.4.6-.6h.8c-.2.5-.5.9-.9,1.1-.3.6-.7.8-1.3.8Z"/>
    <path class="cls-32" d="m183,395.5v-5.3h.8v1.3h.1v3.9l-.9.1h0Zm.8-2.8l-.2-1.2c.1-.5.4-.8.7-1,.3-.3.7-.4,1.1-.4.2,0,.3,0,.4.1v.8h-.4c-.5,0-.9.2-1.2.5-.2.2-.4.6-.4,1.2Z"/>
  </g>
  <g>
    <path class="cls-32" d="m116.5,190.3v-7.5h.8v7.5h-.8Zm.4-6.7v-.7h4.3v.7h-4.3Zm0,3.5v-.7h4v.7h-4Z"/>
    <path class="cls-32" d="m122.6,183.8v-1h.9v1h-.9Zm.1,6.5v-5.3h.8v5.3h-.8Z"/>
    <path class="cls-32" d="m127.8,190.4c-.5,0-.9-.1-1.2-.4-.3-.3-.6-.6-.7-1h.1v1.3h-.8v-7.5h.8v3.4l-.1-.1c.2-.4.4-.7.7-1,.4-.2.8-.4,1.2-.4s.9.1,1.2.4c.4.2.6.6.8.9.2.4.3.9.3,1.5s-.1,1-.3,1.5-.5.7-.8,1c-.3.3-.7.4-1.2.4Zm-.1-.7c.5,0,.9-.2,1.2-.5.3-.4.5-.9.5-1.5s-.2-1.1-.5-1.5-.7-.5-1.2-.5-.9.2-1.2.5c-.3.4-.5.9-.5,1.5s.2,1.1.5,1.5c.2.3.6.5,1.2.5Z"/>
    <path class="cls-32" d="m133.6,190.4c-.5,0-.9-.1-1.3-.4-.4-.3-.7-.6-.9-1-.3-.4-.3-.9-.3-1.5s.1-1,.3-1.5c.2-.4.5-.7.9-1,.4-.2.8-.4,1.3-.4s.9.1,1.3.3c.4.2.6.5.8.9s.3.8.3,1.3v.2c0,.1,0,.2-.1.2h-4.4v-.6h3.8l-.3.4c0-.6-.2-1.1-.4-1.5-.3-.3-.7-.5-1.2-.5s-.9.2-1.2.5c-.3.4-.5.8-.5,1.5,0,.6.2,1.1.5,1.5s.7.6,1.3.6c.4,0,.6-.1.9-.2.3-.2.5-.4.6-.6h.8c-.2.5-.5.9-.9,1.1-.3.6-.8.7-1.3.7Z"/>
    <path class="cls-32" d="m137.3,190.3v-5.3h.8v1.3h.1v3.9h-.9v.1Zm.8-2.7l-.2-1.2c.1-.5.4-.8.7-1s.7-.4,1.1-.4c.2,0,.3,0,.4.1v.8h-.4c-.5,0-.9.2-1.2.5-.2.1-.4.6-.4,1.2Z"/>
    <path class="cls-32" d="m143.1,186.8v-.7h4.3v.7h-4.3Zm1.7,1.9v-4.5h.7v4.5h-.7Z"/>
    <path class="cls-32" d="m150.4,190.3l2.9-7.5h.7l-2.8,7.5h-.8Zm1.4-3h3.9v.7h-3.9v-.7Zm4.6,3l-2.8-7.5h.8l2.9,7.5h-.9Z"/>
    <path class="cls-32" d="m162.2,192.5v-3.4l.2.1c-.2.4-.4.7-.7.9-.4.3-.8.4-1.2.4-.5,0-.9-.1-1.2-.4-.4-.2-.6-.5-.8-.9s-.3-.9-.3-1.5.1-1,.3-1.5c.2-.4.5-.7.8-1,.4-.2.8-.4,1.2-.4.5,0,.9.1,1.2.4.3.3.6.6.7,1h-.1v-1.3h.8v7.4l-.9.2h0Zm-1.6-2.8c.5,0,.9-.2,1.2-.5.3-.4.5-.9.5-1.5s-.2-1.1-.5-1.5-.7-.5-1.2-.5-.9.2-1.2.5c-.3.4-.5.9-.5,1.5s.2,1.1.5,1.5c.2.3.6.5,1.2.5Z"/>
    <path class="cls-32" d="m166.4,190.4c-.4,0-.7-.1-.9-.2-.3-.2-.5-.4-.6-.6-.2-.3-.2-.6-.2-.9v-3.7h.8v3.5c0,.4.1.7.3.9s.5.3.8.3.6-.1.9-.2c.3-.2.5-.4.6-.6s.2-.6.2-.9l.2,1.2c-.2.4-.5.7-.8.9s-.8.3-1.3.3Zm2-.1v-1.2h-.1v-4h.8v5.3h-.7v-.1Z"/>
    <path class="cls-32" d="m172.2,190.4c-.6,0-1-.2-1.3-.4-.3-.3-.5-.6-.5-1.1s.2-.8.5-1.1.8-.4,1.4-.5l1.9-.3v.7l-1.7.3c-.4.1-.7.2-.9.3s-.3.4-.3.6.1.5.3.6c.2.2.5.2.8.2.5,0,.8-.1,1.1-.3s.4-.5.4-.8l.2.7c-.1.4-.3.6-.6.8-.3.2-.8.3-1.3.3Zm1.8-.1c-.1-.1-.1-.3-.1-.4v-.6h-.1v-2.5c0-.4-.1-.7-.3-.9s-.5-.3-.9-.3-.7.1-.9.3c-.3.2-.4.4-.4.7h-.8c.1-.5.3-.9.6-1.2.4-.3.9-.4,1.6-.4s1.1.2,1.5.5c.3.3.5.8.5,1.4v2.5c0,.2,0,.3.1.5,0,.2.1.3.1.5l-.9-.1h0Z"/>
  </g>
  <path class="cls-44" d="m39,139.1v27.5c0,9-7.3,16.3-16.3,16.3h0c-9,0-16.3-7.3-16.3-16.3v-27.5c0-9,7.3-16.3,16.3-16.3h0c8.9-.1,16.3,7.2,16.3,16.3Z"/>
  <path class="cls-45" d="m278.9,127.7v27.5c0,9-7.3,16.3-16.3,16.3h0c-9,0-16.3-7.3-16.3-16.3v-27.5c0-9,7.3-16.3,16.3-16.3h0c9-.1,16.3,7.3,16.3,16.3Z"/>
  <g class="cls-4">
    <path class="cls-40" d="m26.6,144.8h-7.8c-.4,0-.8.2-1,.6l-3.9,6.8c-.2.4-.2.8,0,1.2l3.9,6.8c.2.4.6.6,1,.6h7.8c.4,0,.8-.2,1-.6l3.9-6.8c.2-.4.2-.8,0-1.2l-3.9-6.8c-.2-.4-.6-.6-1-.6Z"/>
    <path class="cls-42" d="m26,160.8h.6c.4,0,.8-.2,1-.6l2.6-4.5-5.3-5.2.6,2.4-.6,1.3-1.3.9-1.7.5-1-.2,5.1,5.4Z"/>
    <path class="cls-31" d="m25.2,150.9c.4.6.6,1.2.6,1.9s-.2,1.3-.6,1.9c-.1.1-.1.2,0,.2.4.4.7.7,1.1,1.1.2.2.2.3,0,.4-.1.1-.2.2-.2.2q-.2.2-.4,0c-.4-.4-.7-.7-1.1-1.1q-.1-.1-.2,0c-1.1.7-2.3.8-3.5.2q-.1-.1-.2-.1c-.3-.2-.5-.4-.7-.6-.8-1-1.1-2.1-.7-3.3s1.3-2,2.5-2.2c1.3-.2,2.3.2,3.2,1.2q.2.1.2.2Z"/>
    <path class="cls-40" d="m22.5,150.3c1.3,0,2.5,1.1,2.5,2.4s-1.1,2.5-2.4,2.5-2.5-1.1-2.5-2.5c0-1.3,1.1-2.4,2.4-2.4Z"/>
    <path class="cls-31" d="m20.9,153.6c.2.3.4.6.7.7v-1.7h-.7v1Z"/>
    <path class="cls-31" d="m22.2,154.5c.1,0,.2.1.3.1.2,0,.3,0,.4-.1v-2.7h-.7v2.7h0Z"/>
    <path class="cls-19" d="m23.5,154.3c.3-.2.5-.5.7-.8v-.4h-.7v1.2Z"/>
  </g>
  <path class="cls-25" d="m270.2,138.1c-.7.4-1.3.7-2,1.1-1.8,1-3.5,2-5.3,3-.2.1-.3.1-.4,0-2.6-1.5-5.2-2.9-7.8-4.4-.3-.2-.3-.5.1-.6,2.5-1.3,4.9-2.7,7.4-4.1l.6-.3c1.5.8,3,1.7,4.5,2.5.5.3.9.5,1.5.8.2.1.3.3.2.5-.1.2-.5.3-.6.2-.8-.5-1.6-.9-2.4-1.3-1-.6-2-1.1-3-1.6-.1-.1-.3-.1-.4-.1-2.3,1.3-4.7,2.6-7,3.9.3.2.6.4.9.5,2,1.1,3.9,2.2,5.9,3.3.2.2.4.2.6,0,2.2-1.2,4.5-2.5,6.7-3.8.2-.1.4-.3.6-.4.3-.2.5,0,.5.3v2.5c0,.2-.1.3-.2.4-1.6.9-3.3,1.8-4.9,2.7-.9.5-1.9,1-2.9,1.6-.2.1-.3.1-.5,0-2.3-1.2-4.6-2.5-6.8-3.8-.1-.1-.2-.1-.4-.2v1.7c0,.1.1.2.2.2,2.3,1.3,4.7,2.6,7.1,3.9.2.1.3.1.5,0,2.4-1.3,4.8-2.7,7.3-4,.1-.1.3-.2.4-.2.2,0,.3.1.3.4v2.6c0,.2-.1.3-.2.3-2.6,1.4-5.1,2.9-7.7,4.3-.1.1-.2.1-.3.2-1.6-.9-3.1-1.7-4.7-2.6-1.1-.6-2.2-1.2-3.3-1.8-.3-.2-.4-.4-.3-.6.2-.2.4-.2.6-.1,2,1.1,3.9,2.2,5.9,3.3.5.3,1,.6,1.6.9.1.1.2.1.3,0,2.3-1.3,4.7-2.6,7.1-3.9.2-.1.3-.2.3-.5v-1.5c-.1.1-.2.1-.3.1-2.3,1.3-4.6,2.5-7,3.8-.2.1-.3.2-.5.1-2.5-1.5-5.1-2.9-7.7-4.3-.2-.1-.3-.3-.3-.5v-2.5c0-.3.3-.5.5-.3,2.5,1.4,5,2.8,7.5,4.2.1.1.3.1.3,0,2.4-1.3,4.7-2.6,7.1-3.9.2-.1.3-.2.2-.4.1-.5.2-1,.2-1.6Z"/>
  <g>
    <g>
      <g>
        <g class="cls-1">
          <path class="cls-15" d="m124.2,492.3h-.8c-.3,0-.6-.3-.6-.6s.3-.6.6-.6h.8c.3,0,.6.3.6.6,0,.3-.3.6-.6.6Z"/>
        </g>
        <g>
          <g class="cls-1">
            <path class="cls-16" d="m121.3,492.3h-.8c-.3,0-.6-.3-.6-.6s.3-.6.6-.6h.8c.3,0,.6.3.6.6s-.3.6-.6.6Z"/>
          </g>
          <g class="cls-1">
            <path class="cls-15" d="m127.1,492.3h-.8c-.3,0-.6-.3-.6-.6s.3-.6.6-.6h.8c.3,0,.6.3.6.6s-.2.6-.6.6Z"/>
          </g>
        </g>
      </g>
      <path class="cls-12" d="m177.9,510h-55.6c-7.5,0-13.7-6.1-13.7-13.7v-.2c0-7.5,6.1-13.7,13.7-13.7h55.6c7.5,0,13.7,6.1,13.7,13.7v.2c0,7.6-6.1,13.7-13.7,13.7Z"/>
      <path class="cls-8" d="m125.4,509.8h-2.7c-7.5,0-13.7-6.1-13.7-13.7h0c0-7.5,6.1-13.7,13.7-13.7h2.7c7.5,0,13.7,6.1,13.7,13.7h0c-.1,7.6-6.2,13.7-13.7,13.7Z"/>
      <g>
        <path class="cls-17" d="m123.7,505c-4.7,0-8.6-3.8-8.6-8.6s3.8-8.6,8.6-8.6,8.6,3.8,8.6,8.6c-.1,4.8-3.9,8.6-8.6,8.6Zm0-13.9c-3,0-5.4,2.4-5.4,5.4s2.4,5.4,5.4,5.4,5.4-2.4,5.4-5.4c-.1-3-2.4-5.4-5.4-5.4Z"/>
        <path class="cls-24" d="m129.9,502.3l-2.3-2.2c.9-1,1.5-2.3,1.5-3.7,0-3-2.4-5.4-5.4-5.4v-3.2c4.7,0,8.6,3.8,8.6,8.6-.1,2.2-.9,4.3-2.4,5.9Z"/>
      </g>
      <g>
        <path class="cls-30" d="m147.5,498.3v-5.6h.6v5.6h-.6Zm.4,0v-.5h1.8c.4,0,.6-.1.8-.3s.3-.4.3-.8-.1-.6-.3-.8-.5-.3-.9-.3h-1.7v-.5h1.7c.4,0,.6-.1.8-.3s.3-.4.3-.7-.1-.5-.3-.7-.5-.3-.8-.3h-1.7v-.5h1.8c.5,0,.9.1,1.2.4s.5.6.5,1c0,.3-.1.5-.2.7-.1.2-.3.4-.5.5s-.5.2-.7.2l.1-.2c.3,0,.5.1.8.2.3.2.4.3.5.6s.2.5.2.8-.1.6-.2.8c-.2.2-.4.4-.6.5-.3.1-.6.2-.9.2h-2Z"/>
        <path class="cls-30" d="m152.4,498.3v-5.6h.6v5.6h-.6Z"/>
        <path class="cls-30" d="m155.4,494.9v-.5h2.6v.5h-2.6Zm2.1,3.5c-.4,0-.8-.1-1-.3s-.3-.5-.3-.9v-3.7l.6-.3v4c0,.2.1.4.2.5.1.1.3.2.6.2h.3c.1,0,.2-.1.2-.1v.5c-.1,0-.1.1-.2.1h-.4Z"/>
        <path class="cls-30" d="m160.5,498.4c-.4,0-.7-.1-1-.3s-.5-.4-.7-.7-.3-.7-.3-1c0-.4.1-.7.3-1s.4-.6.7-.7c.3-.2.6-.3,1-.3s.7.1,1,.3.5.4.7.7.3.7.3,1c0,.4-.1.7-.3,1s-.4.6-.7.7c-.3.2-.6.3-1,.3Zm0-.5c.3,0,.5-.1.7-.2.2-.2.4-.3.5-.6s.2-.5.2-.8c0-.5-.1-.8-.4-1.1-.3-.3-.6-.4-1-.4s-.7.2-.9.4c-.3.3-.4.6-.4,1.1,0,.3.1.6.2.8.1.2.3.4.5.6.1.1.4.2.6.2Z"/>
        <path class="cls-30" d="m165,498.4c-.4,0-.7-.1-1-.3s-.5-.4-.7-.7-.3-.7-.3-1c0-.4.1-.7.3-1s.4-.6.7-.7c.3-.2.6-.3,1-.3s.7.1,1,.3.5.4.7.7.3.7.3,1c0,.4-.1.7-.3,1s-.4.6-.7.7-.6.3-1,.3Zm0-.5c.3,0,.5-.1.7-.2s.4-.3.5-.6.2-.5.2-.8c0-.5-.1-.8-.4-1.1s-.6-.4-1-.4-.7.2-.9.4c-.3.3-.4.6-.4,1.1,0,.3.1.6.2.8.1.2.3.4.5.6.2.1.4.2.6.2Z"/>
        <path class="cls-30" d="m167.9,498.3v-5.6h.6v5.6h-.6Z"/>
        <path class="cls-30" d="m171.1,498.4c-.5,0-.9-.1-1.1-.4-.3-.2-.5-.6-.5-1h.6c.1.3.2.5.3.6.2.2.4.2.7.2s.5-.1.6-.2c.2-.1.2-.3.2-.5s-.1-.3-.2-.4c-.1-.1-.3-.2-.5-.3l-.6-.2c-.4-.1-.6-.3-.8-.4-.2-.2-.3-.4-.3-.7,0-.4.1-.6.4-.8.3-.2.6-.3,1-.3s.8.1,1,.3c.3.2.4.5.5.9h-.6c-.1-.2-.2-.4-.3-.5-.2-.1-.4-.2-.6-.2s-.5.1-.6.2c-.2.1-.2.2-.2.4s.1.3.2.4c.1.1.3.2.5.3l.6.2c.4.1.6.3.8.5s.3.5.3.7c0,.4-.2.6-.4.8-.1.3-.5.4-1,.4Z"/>
      </g>
    </g>
    <g>
      <g>
        <g>
          <g class="cls-1">
            <path class="cls-15" d="m15.6,492.3h-.8c-.3,0-.6-.3-.6-.6s.3-.6.6-.6h.8c.3,0,.6.3.6.6s-.3.6-.6.6Z"/>
          </g>
          <g>
            <g class="cls-1">
              <path class="cls-16" d="m12.7,492.3h-.8c-.3,0-.6-.3-.6-.6s.3-.6.6-.6h.8c.3,0,.6.3.6.6s-.3.6-.6.6Z"/>
            </g>
            <g class="cls-1">
              <path class="cls-15" d="m18.5,492.3h-.8c-.3,0-.6-.3-.6-.6s.3-.6.6-.6h.8c.3,0,.6.3.6.6s-.2.6-.6.6Z"/>
            </g>
          </g>
        </g>
        <g>
          <path class="cls-14" d="m69.3,510H13.7c-7.5,0-13.7-6.1-13.7-13.7v-.2c0-7.5,6.1-13.7,13.7-13.7h55.6c7.5,0,13.7,6.1,13.7,13.7v.2c0,7.6-6.1,13.7-13.7,13.7Z"/>
          <path class="cls-9" d="m16.8,509.8h-2.7c-7.5,0-13.7-6.1-13.7-13.7H.4c0-7.5,6.1-13.7,13.7-13.7h2.7c7.5,0,13.7,6.1,13.7,13.7h0c-.1,7.6-6.2,13.7-13.7,13.7Z"/>
          <path class="cls-15" d="m22.1,491.3v10.9c0,.8-.7,1.5-1.5,1.5h-12.2c-.8,0-1.5-.7-1.5-1.5v-7.7l3.8,1.1,3.8-1,3.9,3.4,3.7-6.7Z"/>
        </g>
        <g>
          <path class="cls-30" d="m33.2,494v-5.6h.6v5.6h-.6Zm.3-5v-.6h3.4v.6h-3.4Zm0,2.4v-.6h3.2v.6h-3.2Zm0,2.6v-.5h3.4v.6h-3.4v-.1Z"/>
          <path class="cls-30" d="m38.1,494v-4h.6v.9h.1v3l-.7.1h0Zm2.7,0v-2.6c0-.3-.1-.5-.2-.7-.2-.2-.3-.2-.6-.2s-.5.1-.6.2c-.2.1-.4.3-.5.5s-.2.4-.2.7l-.1-.9c.2-.3.4-.5.6-.7s.6-.3.9-.3c.4,0,.7.1.9.4.3.2.4.5.4.9v2.8l-.6-.1h0Zm2.7,0v-2.6c0-.3-.1-.5-.2-.7s-.3-.2-.6-.2-.5.1-.6.2c-.2.1-.4.3-.5.5s-.2.4-.2.7l-.2-.9c.2-.3.4-.5.6-.7s.6-.3.9-.3c.4,0,.7.1.9.4.3.2.4.5.4.9v2.8l-.5-.1h0Z"/>
          <path class="cls-30" d="m47.3,494.1c-.4,0-.7-.1-.9-.3-.3-.2-.4-.4-.5-.8h.1v1h-.6v-5.6h.6v2.5h-.1c.1-.3.3-.6.5-.7.3-.2.6-.3.9-.3.4,0,.7.1.9.3s.5.4.6.7c.2.3.2.7.2,1.1s-.1.8-.2,1.1-.4.6-.6.7c-.3.2-.6.3-.9.3Zm-.1-.5c.4,0,.7-.2.9-.4s.3-.6.3-1.1-.1-.8-.3-1.1-.5-.4-.9-.4-.7.2-.9.4-.4.6-.4,1.1.1.8.4,1.1c.1.2.5.4.9.4Z"/>
          <path class="cls-30" d="m51.6,494.1c-.4,0-.7-.1-1-.3s-.5-.4-.7-.7c-.2-.3-.3-.7-.3-1.1s.1-.8.3-1.1.4-.6.7-.7.6-.3,1-.3.7.1,1,.3c.3.2.5.4.6.7.2.3.2.6.2,1v.4h-3.3v-.5h3l-.2.3c0-.5-.1-.8-.3-1.1s-.5-.4-.9-.4-.7.2-.9.4c-.3.3-.4.6-.4,1.1s.1.8.4,1.1.6.4,1,.4c.3,0,.5-.1.7-.2s.3-.3.4-.5h.6c-.1.4-.4.7-.7.9-.4.2-.8.3-1.2.3Z"/>
          <path class="cls-30" d="m57.3,494v-.9h.1c-.1.3-.3.5-.5.7-.3.2-.6.3-.9.3-.4,0-.7-.1-.9-.3-.3-.2-.5-.4-.6-.7-.2-.3-.2-.7-.2-1.1s.1-.8.2-1.1c.2-.3.4-.6.6-.7.3-.2.6-.3.9-.3.4,0,.7.1.9.3.3.2.4.4.5.8h-.1v-2.6h.6v5.6h-.6Zm-1.3-.4c.4,0,.7-.2.9-.4.2-.2.4-.6.4-1.1s-.1-.8-.4-1.1c-.2-.3-.5-.4-.9-.4s-.7.2-.9.4-.3.6-.3,1.1.1.8.3,1.1.5.4.9.4Z"/>
          <path class="cls-30" d="m62,494v-.9h.1c-.1.3-.3.5-.5.7-.3.2-.6.3-.9.3-.4,0-.7-.1-.9-.3-.3-.2-.5-.4-.6-.7-.2-.3-.2-.7-.2-1.1s.1-.8.2-1.1c.2-.3.4-.6.6-.7.3-.2.6-.3.9-.3.4,0,.7.1.9.3.3.2.4.4.5.8h-.1v-2.6h.6v5.6h-.6Zm-1.3-.4c.4,0,.7-.2.9-.4s.4-.6.4-1.1-.1-.8-.4-1.1c-.2-.3-.5-.4-.9-.4s-.7.2-.9.4-.3.6-.3,1.1.1.8.3,1.1.5.4.9.4Z"/>
          <path class="cls-30" d="m65.4,494.1c-.4,0-.7-.1-1-.3s-.5-.4-.7-.7c-.2-.3-.3-.7-.3-1.1s.1-.8.3-1.1c.2-.3.4-.6.7-.7.3-.2.6-.3,1-.3s.7.1,1,.3.5.4.6.7c.2.3.2.6.2,1v.4h-3.3v-.5h2.9l-.2.3c0-.5-.1-.8-.3-1.1s-.5-.4-.9-.4-.7.2-.9.4c-.3.3-.4.6-.4,1.1s.1.8.4,1.1c.3.3.6.4,1,.4.3,0,.5-.1.7-.2s.3-.3.4-.5h.6c-.1.4-.4.7-.7.9s-.7.3-1.1.3Z"/>
          <path class="cls-30" d="m71.1,494v-.9h0c-.1.3-.3.5-.5.7-.3.2-.6.3-.9.3-.4,0-.7-.1-.9-.3-.3-.2-.5-.4-.6-.7-.2-.3-.2-.7-.2-1.1s.1-.8.2-1.1c.2-.3.4-.6.6-.7.3-.2.6-.3.9-.3.4,0,.7.1.9.3.3.2.4.4.5.8h-.1v-2.6h.6v5.6h-.5Zm-1.3-.4c.4,0,.7-.2.9-.4s.4-.6.4-1.1-.1-.8-.4-1.1c-.2-.3-.5-.4-.9-.4s-.7.2-.9.4-.3.6-.3,1.1.1.8.3,1.1.5.4.9.4Z"/>
          <path class="cls-30" d="m38.4,505c-.4,0-.7-.1-1-.3s-.4-.5-.4-.8.1-.6.4-.8.6-.3,1-.4l1.4-.3v.5l-1.3.2c-.3.1-.5.1-.7.3s-.2.3-.2.5.1.4.2.5.4.2.6.2c.4,0,.6-.1.8-.3s.3-.4.3-.6l.1.6c-.1.3-.3.5-.5.6-.1,0-.4.1-.7.1Zm1.3-.1c0-.1-.1-.2-.1-.3v-.4h-.1v-1.9c0-.3-.1-.5-.2-.7s-.4-.2-.7-.2-.5.1-.7.2c-.2.1-.3.3-.3.5h-.5c0-.4.2-.7.5-.9s.7-.3,1.1-.3c.5,0,.9.1,1.1.4s.4.6.4,1v2.3c0,.1.1.3.1.4l-.6-.1h0Z"/>
          <path class="cls-30" d="m41.4,504.9v-4h.6v.9h.1v3l-.7.1h0Zm2.9,0v-2.6c0-.3-.1-.5-.2-.7-.2-.2-.4-.2-.7-.2s-.5.1-.7.2-.4.3-.5.5-.2.4-.2.7l-.1-.9c.2-.3.4-.5.6-.7s.6-.3.9-.3c.4,0,.7.1,1,.4s.4.6.4.9v2.7h-.5Z"/>
          <path class="cls-30" d="m47.2,505c-.4,0-.7-.1-1-.3s-.4-.5-.4-.8.1-.6.4-.8c.3-.2.6-.3,1-.4l1.4-.3v.5l-1.3.2c-.3.1-.5.1-.7.3-.2.1-.2.3-.2.5s.1.4.2.5.4.2.6.2c.4,0,.6-.1.8-.3s.3-.4.3-.6l.1.6c-.1.3-.3.5-.5.6-.1,0-.4.1-.7.1Zm1.3-.1c0-.1-.1-.2-.1-.3v-.4h-.1v-1.9c0-.3-.1-.5-.2-.7s-.4-.2-.7-.2-.5.1-.7.2c-.2.1-.3.3-.3.5h-.6c0-.4.2-.7.5-.9s.7-.3,1.1-.3c.5,0,.9.1,1.1.4.2.3.4.6.4,1v2.3c0,.1.1.3.1.4l-.5-.1h0Z"/>
          <path class="cls-30" d="m50.2,504.9v-5.6h.6v5.6h-.6Z"/>
          <path class="cls-30" d="m53.4,505l-1.8-4h.7l1.6,3.6-.5.4Zm-.9,1.5l.9-2.1.2-.2,1.3-3.3h.6l-2.4,5.6h-.6Z"/>
          <path class="cls-30" d="m55.7,501.5v-.5h2.6v.5h-2.6Zm2.1,3.5c-.5,0-.8-.1-1-.3s-.3-.5-.3-.9v-3.8l.6-.3v4c0,.2.1.4.2.5s.3.2.6.2h.3c.1,0,.2-.1.2-.1v.5c-.1,0-.1.1-.2.1-.2.1-.3.1-.4.1Z"/>
          <path class="cls-30" d="m59.1,500.1v-.7h.7v.7h-.7Zm0,4.8v-4h.6v4h-.6Z"/>
          <path class="cls-30" d="m62.5,505c-.4,0-.7-.1-1-.3s-.5-.4-.7-.7-.3-.7-.3-1.1.1-.7.3-1c.2-.3.4-.6.7-.7.3-.2.6-.3,1-.3.3,0,.6.1.8.2.2.1.4.3.6.5s.3.5.3.7h-.6c-.1-.3-.2-.5-.4-.6-.2-.2-.4-.3-.7-.3s-.5.1-.7.2c-.2.2-.3.3-.4.5s-.2.5-.2.8.1.6.2.8c.1.3.3.4.4.5.2.1.4.2.7.2s.5-.1.7-.3.3-.4.4-.6h.6c-.1.3-.2.5-.3.7-.2.2-.4.4-.6.5s-.5.3-.8.3Z"/>
          <path class="cls-30" d="m66.5,505c-.5,0-.9-.1-1.1-.4-.3-.2-.5-.6-.5-1h.6c.1.3.2.5.3.6.2.2.4.2.7.2s.5-.1.6-.2c.2-.1.3-.3.3-.5s-.1-.3-.2-.4c-.1-.1-.3-.2-.5-.3l-.6-.2c-.4-.1-.6-.3-.8-.4s-.3-.4-.3-.7c0-.4.1-.6.4-.8s.6-.3,1-.3.8.1,1,.3c.3.2.4.5.5.9h-.6c-.1-.2-.2-.4-.3-.5-.2-.1-.4-.2-.6-.2-.3,0-.5.1-.6.2-.2.1-.2.2-.2.4s.1.3.2.4c.1.1.3.2.5.3l.6.2c.4.1.6.3.8.5.2.2.3.5.3.7,0,.4-.2.6-.4.8-.4.4-.7.4-1.1.4Z"/>
        </g>
      </g>
      <g>
        <g>
          <g class="cls-1">
            <path class="cls-15" d="m232.8,492.3h-.8c-.3,0-.6-.3-.6-.6s.3-.6.6-.6h.8c.3,0,.6.3.6.6s-.3.6-.6.6Z"/>
          </g>
          <g>
            <g class="cls-1">
              <path class="cls-16" d="m229.9,492.3h-.8c-.3,0-.6-.3-.6-.6s.3-.6.6-.6h.8c.3,0,.6.3.6.6,0,.3-.3.6-.6.6Z"/>
            </g>
            <g class="cls-1">
              <path class="cls-15" d="m235.7,492.3h-.8c-.3,0-.6-.3-.6-.6s.3-.6.6-.6h.8c.3,0,.6.3.6.6,0,.3-.2.6-.6.6Z"/>
            </g>
          </g>
        </g>
        <path class="cls-13" d="m286.5,510h-55.6c-7.5,0-13.7-6.1-13.7-13.7v-.2c0-7.5,6.1-13.7,13.7-13.7h55.6c7.5,0,13.7,6.1,13.7,13.7v.2c0,7.6-6.1,13.7-13.7,13.7Z"/>
        <path class="cls-10" d="m234,509.8h-2.7c-7.5,0-13.7-6.1-13.7-13.7h0c0-7.5,6.1-13.7,13.7-13.7h2.7c7.5,0,13.7,6.1,13.7,13.7h0c-.1,7.6-6.2,13.7-13.7,13.7Z"/>
        <g>
          <circle class="cls-21" cx="232.6" cy="488.6" r=".5"/>
          <circle class="cls-21" cx="237.4" cy="490.4" r=".5"/>
          <circle class="cls-21" cx="239.4" cy="488.6" r=".5"/>
          <circle class="cls-21" cx="238.1" cy="492.1" r=".5"/>
          <circle class="cls-21" cx="239.4" cy="493.5" r=".5"/>
          <circle class="cls-21" cx="234.6" cy="492.8" r=".5"/>
          <circle class="cls-21" cx="236" cy="494.2" r=".5"/>
          <circle class="cls-21" cx="237.4" cy="495.5" r=".5"/>
          <circle class="cls-21" cx="238.1" cy="497.3" r=".5"/>
          <circle class="cls-21" cx="237.4" cy="499.7" r=".5"/>
          <circle class="cls-21" cx="235.7" cy="496.6" r=".5"/>
          <circle class="cls-21" cx="233.6" cy="495.5" r=".5"/>
          <circle class="cls-21" cx="231.2" cy="497.3" r=".5"/>
          <circle class="cls-21" cx="229.8" cy="495.5" r=".5"/>
          <circle class="cls-21" cx="221.9" cy="490.4" r=".5"/>
          <circle class="cls-21" cx="227.4" cy="499.3" r=".5"/>
          <circle class="cls-21" cx="229.5" cy="497.9" r=".5"/>
          <circle class="cls-21" cx="229.5" cy="500" r=".5"/>
          <circle class="cls-21" cx="232.2" cy="500.7" r=".5"/>
          <circle class="cls-21" cx="233.6" cy="498.3" r=".5"/>
          <circle class="cls-21" cx="235.7" cy="499.7" r=".5"/>
          <circle class="cls-21" cx="233.9" cy="502.4" r=".5"/>
          <circle class="cls-21" cx="237.4" cy="505.5" r=".5"/>
          <circle class="cls-21" cx="230.1" cy="502.4" r=".5"/>
          <circle class="cls-21" cx="229.5" cy="504.8" r=".5"/>
          <circle class="cls-21" cx="228.1" cy="502.4" r=".5"/>
          <circle class="cls-21" cx="226.7" cy="504.1" r=".5"/>
          <circle class="cls-21" cx="225.3" cy="503.1" r=".5"/>
          <circle class="cls-21" cx="222.5" cy="504.5" r=".5"/>
          <circle class="cls-21" cx="225" cy="505.5" r=".5"/>
          <rect class="cls-27" x="218.6" y="495.7" width="25.8" height=".4"/>
          <polygon class="cls-26" points="231.7 483 231.7 508.8 231.3 508.8 231.3 483 231.7 483"/>
        </g>
        <g>
          <path class="cls-30" d="m254.6,492.9l2.2-5.6h.6l-2.1,5.6h-.7Zm1.1-2.2h2.9v.6h-2.9v-.6Zm3.4,2.2l-2.1-5.6h.6l2.2,5.6h-.7Z"/>
          <path class="cls-30" d="m260.7,492.9v-5.6h.6v5.6h-.6Z"/>
          <path class="cls-30" d="m263.8,492.9l2.2-5.6h.6l-2.1,5.6h-.7Zm1.1-2.2h2.9v.6h-2.9v-.6Zm3.4,2.2l-2.1-5.6h.6l2.2,5.6h-.7Z"/>
          <path class="cls-30" d="m271.4,494.6c-.5,0-.9-.1-1.2-.3-.3-.2-.5-.5-.6-.9h.6c.1.2.2.4.4.5.2.1.5.2.8.2.4,0,.7-.1.9-.3.2-.2.3-.5.3-1v-.8h.1c-.1.3-.3.5-.5.7-.3.2-.6.3-.9.3-.4,0-.7-.1-.9-.3-.3-.2-.5-.4-.6-.7-.2-.3-.2-.7-.2-1,0-.4.1-.8.2-1.1.2-.3.4-.5.6-.7.3-.2.6-.3.9-.3.4,0,.7.1.9.3s.4.4.5.8h-.1v-1h.6v3.8c0,.6-.2,1-.5,1.3-.2.3-.7.5-1.3.5Zm0-2.2c.4,0,.7-.2.9-.4.2-.3.4-.6.4-1.1s-.1-.8-.4-1.1c-.2-.3-.5-.4-.9-.4s-.7.2-.9.4c-.2.3-.4.6-.4,1.1s.1.8.4,1.1c.3.3.6.4.9.4Z"/>
          <path class="cls-30" d="m276.2,493c-.4,0-.7-.1-1-.3-.3-.2-.5-.4-.7-.7-.2-.3-.3-.7-.3-1.1s.1-.8.3-1.1c.2-.3.4-.6.7-.7.3-.2.6-.3,1-.3s.7.1,1,.3.5.4.6.7c.2.3.2.6.2,1v.4h-3.3v-.5h2.9l-.2.3c0-.5-.1-.8-.3-1.1-.2-.3-.5-.4-.9-.4s-.7.2-.9.4c-.3.3-.4.6-.4,1.1s.1.8.4,1.1.6.4,1,.4c.3,0,.5-.1.7-.2s.3-.3.4-.5h.6c-.1.4-.4.7-.7.9-.4.2-.7.3-1.1.3Z"/>
          <path class="cls-30" d="m278.9,492.9v-4h.6v.9h.1v3l-.7.1h0Zm2.9,0v-2.6c0-.3-.1-.5-.2-.7s-.4-.2-.7-.2-.5.1-.7.2-.4.3-.5.5-.2.4-.2.7l-.1-.9c.2-.3.4-.5.6-.7.3-.2.6-.3.9-.3.4,0,.7.1,1,.4s.4.6.4.9v2.7h-.5Z"/>
          <path class="cls-30" d="m283.1,489.5v-.5h2.6v.5h-2.6Zm2.1,3.5c-.4,0-.8-.1-1-.3-.2-.2-.3-.5-.3-.9v-3.8l.6-.3v4c0,.2.1.4.2.5s.3.2.6.2h.3c.1,0,.2-.1.2-.1v.5c-.1,0-.1.1-.2.1-.2.1-.3.1-.4.1Z"/>
          <path class="cls-30" d="m287.9,493c-.5,0-.9-.1-1.1-.4-.3-.2-.5-.6-.5-1h.6c.1.3.2.5.3.6.2.2.4.2.7.2s.5-.1.6-.2c.2-.1.3-.3.3-.5s-.1-.3-.2-.4-.3-.2-.5-.3l-.6-.2c-.4-.1-.6-.3-.8-.4-.2-.2-.3-.4-.3-.7,0-.4.1-.6.4-.8s.6-.3,1-.3.8.1,1,.3c.3.2.4.5.5.9h-.6c-.1-.2-.2-.4-.3-.5-.2-.1-.4-.2-.6-.2s-.5.1-.6.2c-.2.1-.2.2-.2.4s.1.3.2.4.3.2.5.3l.6.2c.4.1.6.3.8.5.2.2.3.5.3.7,0,.4-.2.6-.4.8-.3.3-.6.4-1.1.4Z"/>
          <path class="cls-30" d="m254,503.9c-.4,0-.8-.1-1.1-.2-.3-.2-.5-.4-.7-.6-.2-.3-.3-.6-.3-.9,0-.4.2-.8.4-1.1.3-.3.7-.5,1.2-.6l.4.4c-.3.1-.5.2-.7.3s-.4.3-.5.4c-.1.2-.2.4-.2.6,0,.4.1.7.4.9s.6.3,1,.3c.3,0,.6-.1.9-.2s.5-.3.6-.5c.2-.2.3-.5.4-.8s.2-.7.2-1.1h.6c0,.4-.1.7-.1,1-.1.3-.2.6-.4.9-.2.3-.4.5-.6.6-.2.2-.5.3-.7.4-.2.2-.5.2-.8.2Zm2.4-.1l-3-3.1c-.2-.2-.3-.4-.4-.5s-.2-.3-.3-.4c-.1-.2-.1-.3-.1-.4,0-.3.1-.5.2-.6.1-.2.3-.3.5-.4.2-.1.5-.2.7-.2s.5.1.7.2c.2.1.4.3.5.4.1.2.2.4.2.7s-.1.6-.4.8-.6.5-1.1.6l-.3-.4c.4-.1.7-.3.9-.4.2-.2.3-.4.3-.6s-.1-.4-.3-.5c-.2-.1-.4-.2-.6-.2s-.4.1-.6.2c-.2.2-.2.3-.2.5,0,.1,0,.2.1.3s.1.2.2.4.3.3.5.5l3.2,3.3-.7-.2h0Z"/>
          <path class="cls-30" d="m262,503.9c-.4,0-.7-.1-1-.2-.3-.2-.6-.4-.8-.6-.3-.3-.4-.6-.6-.9-.1-.4-.2-.7-.2-1.1s.1-.8.2-1.1c.1-.4.3-.7.6-.9s.5-.5.8-.6c.3-.2.7-.2,1-.2.4,0,.8.1,1.1.3.4.2.6.4.8.7.2.3.4.7.4,1.1h-.6c-.1-.5-.3-.8-.6-1.1-.3-.3-.7-.4-1.1-.4s-.7.1-1,.3-.5.5-.7.8-.3.7-.3,1.2.1.9.3,1.2c.2.4.4.6.7.8.3.2.6.3,1,.3.5,0,.9-.2,1.2-.4.3-.3.5-.6.6-1.1h.6c-.1.4-.2.8-.4,1.1-.2.3-.5.6-.8.7-.4,0-.7.1-1.2.1Z"/>
          <path class="cls-30" d="m265.4,503.8v-5.6h.6v5.6h-.6Zm2.8,0v-2.6c0-.3-.1-.5-.2-.7s-.4-.2-.7-.2-.5.1-.7.2c-.2.1-.4.3-.5.5s-.2.4-.2.7l-.1-.9c.2-.3.4-.5.6-.7s.6-.3.9-.3c.4,0,.7.1,1,.4s.4.6.4.9v2.7h-.5Z"/>
          <path class="cls-30" d="m271.1,503.9c-.4,0-.7-.1-1-.3s-.4-.5-.4-.8.1-.6.4-.8.6-.3,1-.4l1.4-.3v.5l-1.3.2c-.3.1-.5.1-.7.3s-.2.3-.2.5.1.4.2.5.4.2.6.2c.4,0,.6-.1.8-.3.2-.2.3-.4.3-.6l.1.6c-.1.3-.3.5-.5.6-.1,0-.4.1-.7.1Zm1.4-.1c0-.1-.1-.2-.1-.3v-.4h-.1v-1.9c0-.3-.1-.5-.2-.7-.2-.2-.4-.2-.7-.2s-.5.1-.7.2c-.2.1-.3.3-.3.5h-.6c0-.4.2-.7.5-.9s.7-.3,1.1-.3c.5,0,.9.1,1.1.4.2.3.4.6.4,1v2.3c0,.1.1.3.1.4l-.5-.1h0Z"/>
          <path class="cls-30" d="m273.7,500.4v-.5h2.6v.5h-2.6Zm2.1,3.5c-.4,0-.8-.1-1-.3s-.3-.5-.3-.9v-3.8l.6-.3v4c0,.2.1.4.2.5s.3.2.6.2h.3c.1,0,.2-.1.2-.1v.5c-.1,0-.1.1-.2.1-.2.1-.3.1-.4.1Z"/>
          <path class="cls-30" d="m279.1,503.9c-.4,0-.7-.1-.9-.3-.3-.2-.4-.4-.5-.8h.1v1h-.7v-5.6h.6v2.5h-.1c.1-.3.3-.6.5-.7s.6-.3.9-.3c.4,0,.7.1.9.3s.5.4.6.7c.2.3.2.7.2,1.1s-.1.8-.2,1.1c-.2.3-.4.6-.6.7-.2.2-.5.3-.8.3Zm-.1-.5c.4,0,.7-.2.9-.4.2-.3.3-.6.3-1.1s-.1-.8-.3-1.1c-.2-.3-.5-.4-.9-.4s-.7.2-.9.4c-.2.3-.4.6-.4,1.1s.1.8.4,1.1c.2.2.5.4.9.4Z"/>
          <path class="cls-30" d="m283.5,503.9c-.4,0-.7-.1-1-.3s-.5-.4-.7-.7-.3-.7-.3-1c0-.4.1-.7.3-1,.2-.3.4-.6.7-.7.3-.2.6-.3,1-.3s.7.1,1,.3.5.4.7.7.3.7.3,1c0,.4-.1.7-.3,1s-.4.6-.7.7c-.3.2-.6.3-1,.3Zm0-.5c.3,0,.5-.1.7-.2.2-.2.4-.3.5-.6s.2-.5.2-.8c0-.5-.1-.8-.4-1.1s-.6-.4-1-.4-.7.2-.9.4c-.3.3-.4.6-.4,1.1,0,.3.1.6.2.8s.3.4.5.6c.1.1.3.2.6.2Z"/>
          <path class="cls-30" d="m285.9,500.4v-.5h2.6v.5h-2.6Zm2.1,3.5c-.4,0-.8-.1-1-.3s-.3-.5-.3-.9v-3.8l.6-.3v4c0,.2.1.4.2.5s.3.2.6.2h.3c.1,0,.2-.1.2-.1v.5c-.1,0-.1.1-.2.1-.2.1-.3.1-.4.1Z"/>
          <path class="cls-30" d="m290.7,503.9c-.5,0-.9-.1-1.1-.4-.3-.2-.5-.6-.5-1h.6c.1.3.2.5.3.6.2.2.4.2.7.2s.5-.1.6-.2c.2-.1.3-.3.3-.5s-.1-.3-.2-.4c-.1-.1-.3-.2-.5-.3l-.6-.2c-.4-.1-.6-.3-.8-.4-.2-.2-.3-.4-.3-.7,0-.4.1-.6.4-.8s.6-.3,1-.3.8.1,1,.3.4.5.5.9h-.6c-.1-.2-.2-.4-.3-.5-.2-.1-.4-.2-.6-.2s-.5.1-.6.2c-.2.1-.2.2-.2.4s.1.3.2.4c.1.1.3.2.5.3l.6.2c.4.1.6.3.8.5.2.2.3.5.3.7,0,.4-.2.6-.4.8-.3.4-.6.4-1.1.4Z"/>
        </g>
      </g>
    </g>
  </g>
  <g>
    <g class="cls-6">
      <path class="cls-56" d="m143.3,183.5h-.5v-2h.5v2Zm0-4h-.5v-2h.5v2Zm0-4h-.5v-2h.5v2Zm0-4h-.5v-2h.5v2Zm0-4h-.5v-2h.5v2Zm0-4h-.5v-2h.5v2Zm0-4h-.5v-2h.5v2Zm0-4h-.5v-2h.5v2Zm0-4h-.5v-2h.5v2Zm0-4h-.5v-2h.5v2Zm0-4h-.5v-2h.5v2Zm0-4h-.5v-2h.5v2Zm0-4h-.5v-2h.5v2Zm0-4h-.5v-2h.5v2Zm0-4h-.5v-2h.5v2Zm0-4h-.5v-2h.5v2Zm0-4h-.5v-2h.5v2Zm0-4h-.5v-2h.5v2Zm0-4h-.5v-2h.5v2Zm0-4h-.5v-2h.5v2Zm0-4h-.5v-2h.5v2Zm0-4h-.5v-2h.5v2Zm0-4h-.5v-2h.5v2Zm0-4h-.5v-2h.5v2Zm0-4h-.5v-2h.5v2Zm0-4h-.5v-2h.5v2Zm0-4h-.5v-2h.5v2Zm0-4h-.5v-2h.5v2Zm0-4h-.5v-2h.5v2Zm0-4h-.5v-2h.5v2Zm0-4h-.5v-2h.5v2Z"/>
    </g>
    <g class="cls-6">
      <path class="cls-47" d="m143.9,148h-.5c0-.6.1-1.2.3-1.8l.5.1c-.3.6-.3,1.1-.3,1.7Zm1-3.3l-.4-.3c.4-.6.9-1.1,1.5-1.5l.3.4c-.6.4-1,.8-1.4,1.4Zm3.1-2.2l-.1-.5c.6-.2,1.2-.3,1.8-.3h.3v.5h-.3c-.7.1-1.2.1-1.7.3Zm29.9-.2h-2v-.5h2v.5Zm-4,0h-2v-.5h2v.5Zm-4,0h-2v-.5h2v.5Zm-4,0h-2v-.5h2v.5Zm-4,0h-2v-.5h2v.5Zm-4,0h-2v-.5h2v.5Zm-4,0h-2v-.5h2v.5Zm26-.2l-.1-.5c.6-.1,1.2-.4,1.8-.7l.3.4c-.6.4-1.3.7-2,.8Zm3.5-2.1l-.4-.3c.4-.5.7-1.1,1-1.7l.5.2c-.3.6-.6,1.2-1.1,1.8Zm1.4-3.9h-.5v-2h.5v2Zm.1-4h-.5v-2h.5v2Zm0-4h-.5v-2h.5v2Zm0-4h-.5v-2h.5v2Zm0-4h-.5v-2h.5v2Zm0-4h-.5v-2h.5v2Zm0-4h-.5v-2h.5v2Zm0-4h-.5v-2h.5v2Zm0-4h-.5v-.1c0-.6.1-1.3.3-1.9l.5.2c-.2.6-.3,1.2-.3,1.8h0Zm1.1-3.5l-.4-.3c.4-.6.9-1,1.5-1.4l.3.4c-.6.3-1,.7-1.4,1.3Zm3.1-2.2l-.1-.5c.5-.1,1.1-.2,1.6-.2h.4v.5h-.4c-.5.1-1,.1-1.5.2Zm40.5-.1h-.6v-.5h.6c.5,0,.9-.1,1.4-.2l.1.5c-.5.1-1,.1-1.5.2Zm-2.6,0h-2v-.5h2v.5Zm-4,0h-2v-.5h2v.5Zm-4,0h-2v-.5h2v.5Zm-4,0h-2v-.5h2v.5Zm-4,0h-2v-.5h2v.5Zm-4,0h-2v-.5h2v.5Zm-4,0h-2v-.5h2v.5Zm-4,0h-2v-.5h2v.5Zm-4,0h-2v-.5h2v.5Zm38-1l-.3-.4c.5-.3,1-.8,1.4-1.3l.4.3c-.4.5-.9,1-1.5,1.4Zm2.5-3.3l-.5-.2c.2-.6.3-1.2.3-1.9h.5c.1.8-.1,1.5-.3,2.1Zm.4-4h-.5v-2h.5v2Zm0-4h-.5v-2h.5v2Zm0-4h-.5v-2h.5v2Zm0-4h-.5v-2h.5v2Zm0-4h-.5v-2h.5v2Zm0-4h-.5v-2h.5v2Zm0-4h-.5v-2h.5v2Zm0-4h-.5v-2h.5v2Z"/>
    </g>
    <g class="cls-6">
      <path class="cls-52" d="m137.3,97.3h-2v-.5h2v.5Zm-4,0h-2v-.5h2v.5Zm-4,0h-2v-.5h2v.5Zm-4,0h-2v-.5h2v.5Zm-4,0h-2v-.5h2v.5Zm-4,0h-2v-.5h2v.5Zm-4,0h-2v-.5h2v.5Zm-4,0h-2v-.5h2v.5Zm-4,0h-.6c-.5,0-1-.1-1.5-.2l.1-.5c.4.1.9.2,1.4.2h.6v.5Zm34-.3l-.1-.5c.6-.2,1.2-.5,1.7-.8l.3.4c-.6.4-1.2.7-1.9.9Zm-38-.7c-.6-.4-1.1-.8-1.5-1.4l.4-.3c.4.5.9.9,1.4,1.3l-.3.4Zm41.4-1.6l-.4-.3c.4-.5.7-1.1.8-1.7l.5.1c-.2.7-.5,1.3-.9,1.9Zm-43.9-1.7c-.2-.7-.3-1.3-.3-2h.5c0,.6.1,1.3.3,1.9l-.5.1Zm.1-4h-.5v-2h.5v2Zm0-4h-.5v-2h.5v2Zm0-4h-.5v-2h.5v2Zm0-4h-.5v-2h.5v2Zm0-4h-.5v-2h.5v2Zm0-4h-.5v-2h.5v2Zm0-4h-.5v-2h.5v2Z"/>
    </g>
    <g class="cls-6">
      <path class="cls-54" d="m182,87.3h-2v-.5h2v.5Zm-4,0h-2v-.5h2v.5Zm-4,0h-2v-.5h2v.5Zm-4,0h-2v-.5h2v.5Zm-4,0h-2v-.5h2v.5Zm-4,0h-2v-.5h2v.5Zm-4,0h-2v-.5h2v.5Zm-4,0h-2v-.5h2v.5Zm-4,0h-.3c-.6,0-1.2-.1-1.7-.2l.1-.5c.5.1,1,.2,1.6.2h.3v.5h0Zm34.1-.2l-.1-.5c.6-.1,1.2-.4,1.8-.8l.3.4c-.7.4-1.4.7-2,.9Zm-38-1c-.6-.4-1.1-.9-1.5-1.5l.4-.3c.4.5.8,1,1.4,1.3l-.3.5Zm41.4-1.2l-.4-.3c.4-.5.7-1.1.9-1.7l.5.2c-.2.6-.6,1.2-1,1.8Zm-43.8-2.1c-.2-.6-.3-1.2-.3-1.8v-.1h.5v.1c0,.6.1,1.1.2,1.7l-.4.1Zm45.2-1.8h-.5v-2h.5v2Zm0-4h-.5v-2h.5v2Zm0-4h-.5v-2h.5v2Zm0-4h-.5v-2h.5v2Zm0-4h-.5v-2h.5v2Z"/>
    </g>
    <g class="cls-6">
      <path class="cls-55" d="m143.3,125.2c-.1-.6-.3-1.2-.6-1.8l.4-.2c.3.6.5,1.3.6,2h-.4Zm-1.7-3.4c-.5-.4-1-.8-1.6-1.1l.2-.5c.6.3,1.2.7,1.7,1.2l-.3.4Zm-3.5-1.5h-1.9v-.5h2l-.1.5Zm-3.9,0h-2v-.5h2v.5Zm-4,0h-2v-.5h2v.5Zm-4,0h-2v-.5h2v.5Zm-4,0h-2v-.5h2v.5Zm-4,0h-2v-.5h2v.5Zm-4,0h-2v-.5h2v.5Zm-4,0h-2v-.5h2v.5Zm-4,0h-2v-.5h2v.5Zm-4,0h-2v-.5h2v.5Zm-4,0h-2v-.5h2v.5Zm-4,0h-2v-.5h2v.5Zm-4,0h-2v-.5h2v.5Zm-4,0h-2v-.5h2v.5Zm-4,0h-2v-.5h2v.5Zm-4,0h-2v-.5h2v.5Zm-4,0h-2v-.5h2v.5Zm-4,0h-2v-.5h2v.5Zm-4,0h-2v-.5h2v.5Zm-4.1-.2c-.7-.2-1.3-.4-1.9-.8l.3-.4c.5.3,1.1.6,1.8.8l-.2.4Zm-3.4-2.2c-.4-.5-.8-1.2-1-1.8l.5-.2c.2.6.5,1.2.9,1.7l-.4.3Zm-.8-3.9h-.5v-2h.5v2Zm0-4h-.5v-2h.5v2Zm0-4h-.5v-2h.5v2Zm0-4h-.5v-2h.5v2Zm0-4h-.5v-2h.5v2Zm0-4h-.5v-2h.5v2Zm0-4h-.5v-2h.5v2Zm0-4h-.5v-2h.5v2Zm0-4h-.5v-2h.5v2Zm0-4h-.5v-2h.5v2Zm0-4h-.5v-2h.5v2Zm0-4h-.5v-2h.5v2Zm0-4h-.5v-2h.5v2Z"/>
    </g>
    <g class="cls-6">
      <path class="cls-48" d="m142.3,153.6c0-.6-.2-1.3-.4-1.9l.5-.2c.3.6.4,1.3.5,2l-.6.1Zm-1.4-3.5c-.4-.5-.9-.9-1.5-1.2l.2-.4c.6.3,1.2.8,1.6,1.3l-.3.3Zm-3.3-1.8c-.3-.1-.6-.1-1-.1h-1v-.5h1c.3,0,.7,0,1,.1v.5Zm-4,0h-2v-.5h2v.5Zm-4,0h-2v-.5h2v.5Zm-4,0h-2v-.5h2v.5Zm-4,0h-2v-.5h2v.5Zm-4,0h-2v-.5h2v.5Zm-4,0h-2v-.5h2v.5Zm-4,0h-2v-.5h2v.5Zm-4,0h-2v-.5h2v.5Zm-4,0h-2v-.5h2v.5Zm-4,0h-2v-.5h2v.5Zm-4,0h-2v-.5h2v.5Zm-4,0h-2v-.5h2v.5Zm-4,0h-2v-.5h2v.5Zm-4,0h-2v-.5h2v.5Zm-4,0h-2v-.5h2v.5Zm-4,0h-2v-.5h2v.5Zm-4,0h-2v-.5h2v.5Zm-4,0h-2v-.5h2v.5Zm-4,0h-2v-.5h2v.5Zm-4,0h-2v-.5h2v.5Zm-4,0h-2v-.5h2v.5Zm-4,0h-2v-.5h2v.5Zm-4,0h-2v-.5h2v.5Zm-4,0h-2v-.5h2v.5Z"/>
    </g>
    <g class="cls-6">
      <path class="cls-53" d="m245.6,142.3h-2v-.5h2v.5Zm-4,0h-2v-.5h2v.5Zm-4,0h-2v-.5h2v.5Zm-4,0h-2v-.5h2v.5Zm-4,0h-2v-.5h2v.5Zm-4,0h-2v-.5h2v.5Zm-4,0h-2v-.5h2v.5Zm-4,0h-2v-.5h2v.5Zm-4,0h-2v-.5h2v.5Zm-4,0h-2v-.5h2v.5Zm-4,0h-2v-.5h2v.5Zm-4,0h-2v-.5h2v.5Zm-4,0h-2v-.5h2v.5Zm-4,0h-2v-.5h2v.5Zm-4,0h-2v-.5h2v.5Zm-4,0h-2v-.5h2v.5Zm-4,0h-2v-.5h2v.5Zm-4,0h-2v-.5h2v.5Z"/>
    </g>
  </g>
  <g>
    <path class="cls-50" d="m159.6,16.3v27.5c0,9-7.3,16.3-16.3,16.3h0c-9,0-16.3-7.3-16.3-16.3v-27.5c0-9,7.3-16.3,16.3-16.3h0c8.9,0,16.3,7.3,16.3,16.3Z"/>
    <g>
      <path class="cls-41" d="m135,31.8v-.1c.1-.5.5-.8.9-.8h4.1c.5,0,.8.2.9.6.2.3.2.6,0,.8-.1.2-.2.4-.3.6-.3.5-.6,1.1-.9,1.6-.3.5-.6,1-.8,1.5-.2.3-.5.5-.9.5s-.7-.2-.9-.6c-.2-.4-.2-.7.1-1,.4-.6.7-1.3,1.1-1.9v-.1h-2.3c-.4,0-.7-.2-.9-.5-.1-.1-.1-.2-.1-.4v-.1c0,.1,0,0,0-.1Z"/>
      <path class="cls-41" d="m135,28q0-.1.1-.1c.1-.4.4-.7.8-.8h2.4v-.1c-.4-.6-.7-1.2-1.1-1.9-.1-.1-.1-.3-.2-.4-.1-.4.1-.8.4-1,.2-.2.4-.2.6-.2.4,0,.7.2.9.5.4.6.7,1.2,1,1.8.3.5.6,1,.8,1.5.1.2.2.3.3.5.2.6-.2,1.3-.9,1.4h-4.2c-.5,0-.9-.4-1-.8v-.1c.1-.1.1-.2.1-.3Z"/>
      <path class="cls-41" d="m148.6,30.9h2c.4,0,.7.2.9.5.3.4.2,1-.2,1.3-.2.2-.4.3-.7.3h-2.2q-.1,0-.1.1c.4.6.7,1.2,1,1.8.1.2.2.4.2.6,0,.1,0,.2-.1.3-.1.4-.4.7-.8.8s-.8-.1-1-.5-.4-.7-.6-1c-.5-.8-.9-1.6-1.3-2.3-.1-.2-.2-.3-.2-.5-.2-.6.3-1.2.9-1.3h.2c.7-.1,1.3-.1,2-.1Z"/>
      <path class="cls-41" d="m148.3,27.1h2.2c.3,0,.5.1.7.3s.3.4.4.7c.1.4-.1.6-.3.9-.2.2-.5.3-.7.3h-4c-.1,0-.3,0-.4-.1-.4-.2-.6-.5-.7-.9-.1-.3.1-.5.2-.7.4-.6.7-1.3,1.1-1.9.3-.5.6-1,.9-1.5.2-.4.6-.6,1-.5.5.1.7.3.9.7.1.1.1.2.1.3,0,.2-.1.4-.2.5-.5.6-.8,1.3-1.2,1.9h0Z"/>
      <path class="cls-41" d="m141.1,21.8c.2,0,.4,0,.6.1.2.1.4.3.5.5.4.6.7,1.2,1,1.8,0,.1.1.1.1.1.1,0,.1-.1.1-.1.3-.5.6-1,.9-1.5.1-.2.2-.3.3-.4.2-.3.5-.4.8-.4h.1c.4.1.7.3.9.6s.1.7-.1,1c-.4.7-.8,1.3-1.2,2-.3.5-.6,1-.9,1.5-.2.3-.5.5-.8.5-.4,0-.7-.2-.9-.5s-.4-.7-.6-1c-.3-.5-.6-1-.8-1.5-.2-.4-.4-.7-.6-1-.4-.6-.1-1.3.6-1.6-.1-.1,0-.1,0-.1Z"/>
      <path class="cls-41" d="m141.4,38.4h-.2c-.4-.1-.7-.3-.8-.6-.2-.4-.1-.7.1-1,.5-.8.9-1.6,1.4-2.4.2-.4.4-.7.6-1,.2-.3.4-.5.7-.5.4-.1.8.1,1,.5.3.4.5.8.7,1.2.5.8.9,1.6,1.3,2.3.1.2.2.3.2.5.1.5-.3.9-.7,1.1-.1,0-.2.1-.2.1h-.2c-.4-.1-.6-.2-.8-.5-.4-.6-.7-1.3-1.1-1.9h0l-.1.1c-.4.6-.7,1.3-1.1,1.9-.3,0-.5.2-.8.2Z"/>
      <path class="cls-41" d="m145.2,30.1v.2c0,.1-.1.1-.1.2-.5.5-.9.9-1.4,1.5q-.1.1-.2.1h-.4c-.1,0-.2-.1-.2-.1-.5-.5-.9-.9-1.4-1.4-.1-.1-.1-.2-.1-.3v-.3c0-.1.1-.2.1-.3.5-.5.9-.9,1.3-1.4.1-.1.2-.1.3-.1h.2q.3,0,.5.2c.5.5.9.9,1.3,1.3q.1.1.1.2s0,.1,0,.2Zm-1.9-.7c-.1,0-.2,0-.2.1-.2.2-.3.3-.4.4-.1.1-.1.3,0,.4.2.2.3.3.4.4.1.1.3.1.4,0,.2-.2.3-.3.4-.4.1-.1.1-.3,0-.4-.2-.2-.3-.3-.4-.4-.1-.1-.2-.1-.2-.1Z"/>
    </g>
  </g>
  <path class="cls-51" d="m199.5,16.3v27.5c0,9-7.3,16.3-16.3,16.3h0c-9,0-16.3-7.3-16.3-16.3v-27.5c0-9,7.3-16.3,16.3-16.3h0c9,0,16.3,7.3,16.3,16.3Z"/>
  <g class="cls-5">
    <rect class="cls-23" x="89.3" y="20.6" width="2.3" height="16.7"/>
    <rect class="cls-23" x="93.7" y="20.6" width="2.3" height="19"/>
    <rect class="cls-23" x="98.3" y="20.6" width="2.3" height="19"/>
    <rect class="cls-23" x="102.7" y="20.6" width="2.3" height="19"/>
    <rect class="cls-23" x="107.3" y="28.4" width="2.3" height="3.5"/>
    <rect class="cls-22" x="89.3" y="37.3" width="2.3" height="2.3"/>
  </g>
  <path class="cls-49" d="m74.5,16.3v27.5c0,9-7.3,16.3-16.3,16.3h0c-9,0-16.3-7.3-16.3-16.3v-27.5C41.9,7.3,49.2,0,58.2,0h0c8.9,0,16.3,7.3,16.3,16.3Z"/>
  <g class="cls-3">
    <rect class="cls-36" x="56.1" y="20" width="4" height="20.1"/>
    <polygon class="cls-37" points="56.1 20 53.2 21.5 53.2 38.7 56.1 40.2 56.1 20"/>
    <polygon class="cls-39" points="60.2 20 63.1 21.5 63.1 38.7 60.2 40.2 60.2 20"/>
    <polygon class="cls-37" points="65.8 22.9 63.1 23.6 63.1 36.6 65.8 37.4 65.8 22.9"/>
    <polygon class="cls-39" points="65.8 37.3 67.4 36.6 67.4 23.7 65.8 22.9 65.8 37.3"/>
    <polygon class="cls-39" points="50.4 22.9 53.2 23.6 53.2 36.6 50.4 37.4 50.4 22.9"/>
    <polygon class="cls-37" points="50.4 37.3 48.9 36.6 48.9 23.7 50.4 22.9 50.4 37.3"/>
  </g>
  <g class="cls-4">
    <path d="m247.3,32.7c-.2.6-.7,1-1.2,1.3-.7.4-1.4.6-2.1.6h-.8c0,.1,0,.2-.1.3-.1.6-.1,1.3-.2,1.9-.1.6-.2,1.1-.5,1.7-.4.9-1.1,1.5-2.1,1.7-.5.1-.9.2-1.4.2-.9-.1-1.6-.5-2-1.4-.3-.6-.5-1.3-.5-2-.1-.6-.1-1.1-.1-1.7v-.2c-.2.1-.4.2-.6.2-.8.2-1.6.1-2.4-.3-.2-.1-.4-.3-.6-.4v-.1q-.1.1-.2.1c-.7.5-1.6.5-2.2-.1-.5-.4-.8-.9-1.1-1.4-.5-.8-.8-1.7-1.1-2.6-.5-1.5-.9-3.1-1.1-4.7-.2-1.1-.1-2.2.2-3.3.5-1.5,1.5-2.3,2.9-2.7.7-.2,1.5-.2,2.2-.2.8.1,1.7.3,2.5.5h.1c.9-.5,1.9-.7,2.9-.6.4,0,.7.1,1.1.1h.1c.6-.2,1.3-.3,1.9-.3h1c.3.1.5.1.7.1,1.3.2,2.4.8,3.4,1.7.4.4.7.8.8,1.5.1.5.1.9.1,1.3-.1.8-.2,1.5-.4,2.2-.5,1.8-1.1,3.4-2.1,5,0,.1-.1.1-.1.2.3-.1.6-.1.8-.1.3-.1.6-.1.8-.1s.4.1.6.3c.2.2.3.3.4.5.4.5.4.7.4.8Zm-3.5-.7c0-.1.1-.1.1-.1,1.2-2,2.2-4.1,2.6-6.4.2-.7.3-1.5.2-2.2-.1-.4-.1-.7-.4-1-.3-.3-.5-.6-.8-.8-.9-.8-2.1-1.2-3.3-1.2-1-.1-2,.1-3,.4h-.1c-.4-.1-.8-.2-1.2-.2-.9-.1-1.9.1-2.7.6h-.1c-.8-.3-1.6-.5-2.5-.6-.7-.1-1.5-.1-2.2.2-1,.3-1.8.9-2.3,1.9-.3.7-.4,1.5-.4,2.2s.1,1.3.2,2c.3,1.5.6,2.9,1.1,4.3.3.8.6,1.5,1,2.2.2.4.5.8.8,1,.3.3.7.4,1.1.3.3-.1.6-.3.8-.5.4-.4.7-.8,1-1.2.2-.3.5-.5.7-.7.4.2.7.3,1.2.3-.1.2-.2.3-.3.4-.1.2-.3.3-.5.3-.3.1-.5.1-.7.2-.2.1-.5.1-.6.3-.3.2-.3.5-.1.8.1.1.2.2.3.2.3.2.7.3,1,.3.8.1,1.5-.1,2.1-.6l.1-.1v.2c0,1,0,2.1.1,3.1.1.5.2,1,.4,1.5.4.6.9,1,1.6,1,.7.1,1.3-.2,1.9-.4.5-.2.8-.6,1-1,.1-.2.2-.5.2-.7.2-1.1.3-2.1.5-3.2.1-.2.1-.4.1-.6.1,0,.2.1.3.1.4.1.8.1,1.2,0,.7-.1,1.4-.4,2-.8.2-.2.4-.3.4-.5.1-.3,0-.6-.3-.6-.2-.1-.3,0-.5,0-.5.1-1,.2-1.5.2-.1-.4-.3-.4-.5-.6Z"/>
    <path class="cls-32" d="m243.8,32c.2.2.4.2.7.2.5,0,1-.1,1.5-.2.2-.1.3-.1.5,0,.3.1.4.3.3.6-.1.2-.3.4-.4.5-.6.5-1.2.7-2,.8-.4.1-.8.1-1.2,0-.1,0-.2-.1-.3-.1,0,.2-.1.4-.1.6-.2,1.1-.3,2.1-.5,3.2-.1.3-.1.5-.2.7-.2.5-.5.8-1,1-.6.3-1.2.5-1.9.4s-1.2-.4-1.6-1c-.3-.5-.4-.9-.4-1.5-.1-1-.1-2.1-.1-3.1v-.2c-.1,0-.1.1-.1.1-.6.5-1.3.7-2.1.6-.4-.1-.7-.1-1-.3-.1-.1-.2-.2-.3-.2-.3-.3-.2-.6.1-.8.2-.2.4-.2.6-.3.3-.1.5-.1.7-.2.2-.1.4-.2.5-.3s.2-.3.3-.4c-.4,0-.8-.1-1.2-.3-.2.3-.5.5-.7.7-.4.4-.7.8-1,1.2-.2.3-.5.5-.8.5-.4.1-.8-.1-1.1-.3-.4-.3-.6-.7-.8-1-.4-.7-.7-1.5-1-2.2-.5-1.4-.8-2.8-1.1-4.3-.1-.6-.2-1.3-.2-2,0-.8.1-1.5.4-2.2.5-1,1.2-1.6,2.3-1.9.7-.2,1.5-.2,2.2-.2.8.1,1.7.3,2.5.6h.1c.8-.5,1.7-.7,2.7-.6.4.1.8.1,1.2.2h.1c1-.3,2-.4,3-.4,1.2.1,2.3.5,3.3,1.2.3.3.6.5.8.8s.3.6.4,1c.1.8,0,1.5-.2,2.2-.5,2.3-1.4,4.4-2.6,6.4-.3.4-.3.5-.3.5Zm-7.6-.1h.3c.5.1.8.4.9.8.1.2.1.5.1.7,0,1.3-.1,2.7.1,4.1.1.4.2.7.3,1,.3.5.7.7,1.3.7.4,0,.7-.1,1.1-.2.7-.2,1.1-.6,1.2-1.3.1-.6.2-1.1.3-1.7.1-.4.1-.8.2-1.2.1-.4.1-.8.1-1.1.1-.3.1-.6.1-.9.1-.5.3-.8.7-.9.1,0,.1-.1.1-.1q-.1-.1-.1-.2c-.2-.3-.5-.6-.6-.9-.1-.2-.2-.4-.3-.6-.4-.7-.8-1.4-1-2.1-.2-.6-.4-1.1-.3-1.7.1-.5.3-.8.7-1,.5-.3,1-.3,1.5-.3h.3c0-.1-.1-.1-.1-.2-.4-1-1-1.9-1.9-2.6-1.2-1-2.7-1.5-4.3-1.2-.9.1-1.6.6-2.1,1.2-.4.6-.7,1.2-.9,1.8-.2.5-.2,1-.3,1.5.2-.1.4-.2.5-.3.5-.2,1-.3,1.6-.3.6.1,1.1.5,1.3,1.1.2.8.3,1.6.3,2.4,0,.5-.1,1-.3,1.5s-.4.9-.6,1.4c-.1.3-.1.5-.2.6Zm-2.3-.1c-.2-.2-.4-.4-.5-.7-.4-.6-.5-1.2-.5-1.9.1-.5.1-1,.1-1.6,0-.4,0-.7-.1-1.1-.1-.9.1-1.7.3-2.5.3-.9.6-1.7,1.3-2.4v-.1h-.1c-.7-.2-1.4-.4-2.1-.4-.6-.1-1.2-.1-1.8.1-1,.2-1.7.8-2.1,1.8-.2.5-.3.9-.3,1.4-.1.5-.1,1,.1,1.5.2.8.3,1.6.5,2.4.3,1.2.7,2.4,1.1,3.6.3.6.5,1.1.9,1.6.2.2.3.3.5.4.2.1.4.1.6,0,.1-.1.3-.2.3-.3.3-.4.6-.7.9-1,.5-.3.7-.6.9-.8Zm9.5-.4c0-.1.1-.1.1-.1,1.1-1.8,1.9-3.7,2.4-5.8.2-.7.3-1.5.2-2.2-.1-.3-.1-.5-.3-.7-.3-.3-.5-.6-.8-.8-.9-.7-2-1-3.1-1-.4,0-.7.1-1.1.1-.2,0-.3.1-.5.1l.1.1c1.6.8,2.7,2.1,3.4,3.7.1.2.2.4.2.6.1.4,0,.8-.1,1.2-.1.6-.1,1.2-.1,1.8.1.4.1.9.1,1.3,0,.6-.2,1.1-.4,1.6-.2.1-.1.1-.1.1Zm-6.7-3c0-.7-.1-1.2-.2-1.9-.1-.4-.3-.6-.6-.7-.2-.1-.3-.1-.5-.1-.6.1-1.1.3-1.7.6q-.1.1-.1.2c0,.5.1.9.1,1.3s-.1.7-.1,1-.1.5,0,.8c.1.6.3,1,.6,1.4.4.4.8.6,1.4.6q.1,0,.1-.1c.2-.5.4-1,.6-1.5.2-.3.4-1,.4-1.6Zm6.2,2.4h0l.1-.1c.1-.3.2-.6.2-.9,0-.5-.1-1.1-.1-1.6-.1-.5,0-.9.1-1.3.1-.3.1-.7.1-1q0-.1-.1-.1c-.4-.1-.7-.1-1.1,0-.4.1-.7.3-.8.8-.1.3,0,.6.1.8.2.6.4,1.2.7,1.8.3.5.5,1,.8,1.6h0Zm-9,3.2h0c.1.1.2.1.2.2.3.1.6.2.9.2.7,0,1.2-.3,1.7-.8.2-.3.1-.6-.2-.8-.2-.1-.3-.1-.4.1-.2.2-.3.3-.4.5-.2.3-.5.5-.9.6-.2.1-.3.1-.4.1-.1-.2-.3-.1-.5-.1Zm12-1.3h0c-.6.1-1.1.2-1.7.1-.3-.1-.5-.1-.8-.3-.1,0-.1-.1-.2,0-.1,0-.1.1-.2.1-.2.1-.3.2-.3.4,0,.1-.1.1-.1.2,0,.3-.1.3.2.3q.1,0,.2.1c.6.1,1.1,0,1.7-.2.5-.3.9-.5,1.2-.7Z"/>
    <path class="cls-34" d="m236.2,31.9c.1-.2.1-.3.2-.5.2-.5.4-.9.6-1.4.2-.5.3-.9.3-1.5.1-.8-.1-1.6-.3-2.4-.2-.6-.6-1-1.3-1.1-.5-.1-1,.1-1.6.3-.2.1-.4.2-.5.3.1-.5.1-1,.3-1.5.2-.7.5-1.3.9-1.8.5-.7,1.2-1.1,2.1-1.2,1.6-.2,3.1.2,4.3,1.2.8.7,1.5,1.6,1.9,2.6,0,.1.1.1.1.2h-.3c-.5-.1-1,0-1.5.3-.4.3-.6.6-.7,1-.1.6.1,1.1.3,1.7.3.7.6,1.5,1,2.1.1.2.2.4.3.6.2.3.4.6.6.9q.1.1.1.2c-.1,0-.1.1-.1.1-.4.2-.7.5-.7.9-.1.3-.1.6-.1.9-.1.4-.1.8-.1,1.1-.1.4-.1.8-.2,1.2-.1.6-.2,1.1-.3,1.7-.2.7-.6,1.1-1.2,1.3-.4.1-.7.2-1.1.2-.6,0-1-.3-1.3-.7-.2-.3-.3-.7-.3-1-.2-1.3-.1-2.7-.1-4.1,0-.2.1-.5-.1-.7-.2-.5-.5-.7-.9-.8,0-.1-.2-.1-.3-.1Z"/>
    <path class="cls-34" d="m233.9,31.8c-.2.3-.5.5-.7.7-.3.4-.6.7-.9,1-.1.1-.2.2-.3.3-.2.2-.4.2-.6,0-.2-.1-.4-.3-.5-.4-.4-.5-.6-1-.9-1.6-.5-1.2-.9-2.4-1.1-3.6-.2-.8-.4-1.6-.5-2.4-.1-.5-.1-1-.1-1.5.1-.5.1-.9.3-1.4.4-1,1.1-1.6,2.1-1.8.6-.2,1.1-.2,1.8-.1.7.1,1.4.2,2.1.4h.1v.1c-.7.7-1,1.5-1.3,2.4-.2.8-.4,1.7-.3,2.5,0,.4.1.7.1,1.1,0,.5-.1,1-.1,1.6-.1.7.1,1.3.5,1.9-.1.4.2.6.3.8Z"/>
    <path class="cls-34" d="m243.4,31.4q-.1-.1-.1-.2c.3-.5.4-1,.4-1.6,0-.4-.1-.9-.1-1.3-.1-.6-.1-1.2.1-1.8.1-.4.1-.8.1-1.2,0-.2-.1-.4-.2-.6-.7-1.7-1.8-3-3.4-3.7l-.1-.1c.2-.1.4-.1.5-.1.4-.1.7-.1,1.1-.1,1.1,0,2.2.3,3.1,1,.3.3.6.5.8.8.2.2.2.4.3.7.1.7,0,1.5-.2,2.2-.3,2.2-1.1,4.2-2.3,6q.1,0,0,0Z"/>
    <path class="cls-34" d="m236.7,28.4c0,.6-.2,1.2-.4,1.9-.2.5-.4,1-.6,1.5,0,.1-.1.1-.1.1-.6-.1-1-.3-1.4-.6-.4-.4-.6-.9-.6-1.4v-.8c0-.4.1-.7.1-1,0-.5,0-.9-.1-1.3,0-.1,0-.2.1-.2.5-.3,1-.5,1.7-.6.2,0,.3,0,.5.1.4.1.5.4.6.7.1.4.2.9.2,1.6Zm-1.2-2.3c-.1,0-.2.1-.3.1-.1.1-.2.2-.1.3.2.4.6.6,1,.2.2-.2.2-.3-.1-.4-.1-.2-.3-.2-.5-.2Z"/>
    <path class="cls-20" d="m242.9,30.8h0c-.3-.6-.6-1.1-.9-1.6-.3-.6-.6-1.1-.7-1.8-.1-.3-.1-.6-.1-.8.1-.6.4-.7.8-.8.4-.1.7-.1,1.1,0,.1,0,.1.1.1.1-.1.3-.1.7-.1,1-.1.5-.1.9-.1,1.3.1.5.1,1.1.1,1.6,0,.3-.1.6-.2,1,.1-.1.1,0,0,0h0Zm-.7-4.2c.2,0,.4-.2.5-.4.1-.1.1-.2-.1-.3-.3-.1-.6-.1-.8.1-.1.1-.1.2-.1.3.1.2.3.3.5.3Z"/>
    <path class="cls-34" d="m233.9,34c.2-.1.4-.1.6-.2.2-.1.3-.1.4-.1.4-.1.7-.3.9-.6.1-.2.3-.3.4-.5.2-.2.3-.2.4-.1.3.2.4.6.2.8-.4.6-1,.8-1.7.8-.3,0-.6-.1-.9-.2-.1.2-.2.2-.3.1h0Z"/>
    <path class="cls-34" d="m245.9,32.7c-.3.3-.7.5-1.1.6-.5.2-1.1.2-1.7.2q-.1,0-.2-.1c-.3-.1-.2-.1-.2-.3q0-.1.1-.2c.1-.2.2-.3.3-.4.1,0,.1-.1.2-.1h.2c.3.2.5.2.8.3.5.1,1,0,1.6,0-.1,0,0,0,0,0Z"/>
    <path class="cls-32" d="m235.5,26.1c.2,0,.4.1.5.2.2.1.2.3.1.4-.4.4-.8.2-1-.2-.1-.1,0-.2.1-.3.1-.1.2-.1.3-.1Z"/>
    <path class="cls-32" d="m242.2,26.6c-.2,0-.3-.1-.4-.2-.1-.1-.1-.2.1-.3.3-.2.5-.2.8-.1.1.1.2.2.1.3-.2.1-.4.3-.6.3Z"/>
  </g>
  <path class="cls-32" d="m180.75,39.23c.44-.29-.71-.18-.81-.38-.46-.04-.91-.12-1.35-.24-.83-.21-2.78-1.53-2.99-2.77s0-3.65.87-5.07c.56-.87,1.28-1.62,2.11-2.22,0,0-1.7-4.05-1.85-7.11s.07-8.54,2.1-8.64,1.67,5,1.35,8.32c-.21,2.2-.24,4.42-.1,6.63.85-.27,1.74-.42,2.63-.44.79-.02,1.57.06,2.34.22,0,0,.63-4.71,2.74-7.64,2.11-2.93,4.3-5.95,5.73-5.09s-.39,3.91-1.65,5.5-3.46,3.98-4.19,5.25c-.48.85-.9,1.73-1.27,2.63,1.3.67,2.37,1.72,3.06,3.02.99,2.04,1.08,4.58.55,5.65-.56,1-1.55,1.7-2.68,1.91-.63.05-3.3.71-3.3.71l-3.29-.23Z"/>
  <path class="cls-35" d="m185.41,27.57s1.59-4.15,3.02-6.49c1.43-2.34,3.34-4.1,3.94-3.74s-1.23,2.55-2.83,4.69c-1.31,1.89-2.5,3.86-3.55,5.91l-.58-.36Zm-6.38.72l.45-.36s-.06-4.15,0-6.68.2-5.69-.65-5.65-1.43,2.46-1.1,5.91c.24,2.29.68,4.56,1.3,6.78Z"/>
  <circle class="cls-29" cx="177.6" cy="36.28" r=".93"/>
  <circle class="cls-29" cx="188.55" cy="36.28" r=".93"/>
  <path class="cls-38" d="m184.61,36.19s-.09-.03-.12,0c0,0-.27.48-.67.51-.27,0-.53-.13-.72-.33v-.65c.26-.14.67-.57.67-.72-.07-.33-.38-.55-.72-.52-.48,0-.81.31-.81.57s.53.59.67.69v.69c-.15.2-.37.32-.62.33-.38,0-.67-.52-.67-.52-.02-.04-.08-.06-.12-.04-.04.02-.06.07-.04.11,0,.03.34.62.83.62.28,0,.54-.13.72-.34.2.21.47.33.76.35h.07c.35-.07.65-.29.82-.6.03-.03.03-.09,0-.12-.01-.01-.03-.02-.05-.02Z"/>
  <path class="cls-33" d="m178.6,28.56s-1.3-3.34-1.58-5.11-.48-4.67-.14-6.61c.13-.9.32-1.79.57-2.67,0,0-.63,4.53-.39,6.51s1.55,7.88,1.55,7.88Zm6.46-1.03s.95-5.06,2.34-7.05,3.13-4.39,3.99-5l.87-.61s-3.5,3.66-4.86,6.68-2.34,5.97-2.34,5.97Z"/>
  <path class="cls-38" d="m179.49,33.26c-.4,0-.73.32-.73.73s.32.73.73.73.73-.32.73-.73c0-.4-.32-.72-.72-.73h0Zm.19.67c-.11,0-.2-.09-.2-.2s.09-.2.2-.2.2.09.2.2h0c0,.11-.08.2-.2.21,0,0,0,0,0,0h0Zm6.95-.67c-.4,0-.73.32-.73.72s.32.73.72.73c.4,0,.73-.32.73-.72,0-.4-.32-.73-.72-.73h0Zm.21.67c-.11,0-.2-.08-.21-.2h0c0-.11.09-.2.2-.21.11,0,.2.08.21.2h0c0,.11-.08.2-.19.2,0,0,0,0,0,0h0Z"/>
  <ellipse class="cls-18" cx="183.19" cy="34.26" rx="6.73" ry="4.85"/>
  <path class="cls-32" d="m191.34,31.56v-3.21c.52-.12.89-.57.91-1.09-.07-.69-.7-1.2-1.39-1.12-.59.06-1.06.53-1.12,1.12.03.53.4.98.92,1.09v3.13h-.1c-.95-3.31-3.78-5.39-7.46-5.39s-6.52,2.05-7.46,5.39h-.32c-.72-.03-1.33.52-1.37,1.23v2.45c.04.72.65,1.27,1.37,1.24h.43c.36.94.95,1.78,1.71,2.44l-.62.56c-.16.13-.18.37-.04.52,0,0,0,0,0,0,1.4,1.69,3.69,2.67,6.27,2.67s4.87-.95,6.27-2.67c.13-.16.11-.4-.04-.53l-.62-.57c.76-.66,1.35-1.49,1.71-2.43h.48c.72.04,1.33-.52,1.37-1.24v-2.45c-.02-.54-.39-1.01-.91-1.15Zm-8.24-1.91c3.41,0,6.18,2.24,6.18,5,0,2.98-3.11,4.3-6.18,4.3s-6.18-1.32-6.18-4.32c0-2.73,2.75-5,6.18-5v.02Z"/>
  <path class="cls-43" d="m191.57,34.36h-.91v-.48c0-.61-.06-1.21-.19-1.81h.39c.35-.02.66.24.69.6l.02,1.69Zm-.69,1.44h-.48c.09-.34.16-.69.2-1.04h.95v.41c0,.35-.3.64-.65.63,0,0,0,0,0,0h-.03,0Zm-7.78,6.17c-2.29,0-4.33-.82-5.6-2.28l.62-.58c1.47.98,3.2,1.48,4.97,1.43,1.76.05,3.5-.45,4.97-1.43l.64.58c-1.27,1.46-3.28,2.28-5.59,2.28Zm-7.78-9.87h.41c-.12.6-.18,1.2-.18,1.81,0,.16,0,.32,0,.48h-.89v-1.67c0-.33.26-.61.59-.62h.07Z"/>
  <path d="m183.1,29.22c-.77,0-1.54.12-2.29.33v-2.5c.74-.21,1.51-.31,2.29-.31.77,0,1.55.1,2.29.31v2.51c-.74-.23-1.51-.35-2.29-.34Z"/>
  <path class="cls-43" d="m174.64,34.76h.95c.05.35.12.69.21,1.03h-.48c-.35.02-.66-.24-.69-.6v-.43h0Z"/>
  <ellipse class="cls-43" cx="191" cy="27.26" rx=".57" ry=".52"/>
</svg>