<svg width="16" height="16" viewBox="0 0 16 16" fill="none" xmlns="http://www.w3.org/2000/svg">
<path d="M15.5469 13.954C15.7582 14.1654 15.8769 14.452 15.8769 14.7509C15.8769 15.0498 15.7582 15.3364 15.5469 15.5478C15.3355 15.7591 15.0489 15.8779 14.75 15.8779C14.4511 15.8779 14.1645 15.7591 13.9531 15.5478L8.00094 9.59373L2.04687 15.5459C1.83553 15.7573 1.54888 15.876 1.25 15.876C0.951112 15.876 0.664468 15.7573 0.453123 15.5459C0.241779 15.3346 0.123047 15.0479 0.123047 14.749C0.123047 14.4502 0.241779 14.1635 0.453123 13.9522L6.40719 7.99998L0.454998 2.04592C0.243654 1.83457 0.124922 1.54793 0.124922 1.24904C0.124922 0.950158 0.243654 0.663513 0.454998 0.452169C0.666342 0.240824 0.952987 0.122092 1.25187 0.122092C1.55076 0.122092 1.8374 0.240824 2.04875 0.452169L8.00094 6.40623L13.955 0.451231C14.1663 0.239887 14.453 0.121155 14.7519 0.121155C15.0508 0.121155 15.3374 0.239887 15.5487 0.451231C15.7601 0.662575 15.8788 0.94922 15.8788 1.24811C15.8788 1.54699 15.7601 1.83364 15.5487 2.04498L9.59469 7.99998L15.5469 13.954Z" fill="white"/>
</svg>
