
<svg id="a" xmlns="http://www.w3.org/2000/svg"
    xmlns:xlink="http://www.w3.org/1999/xlink" viewBox="0 0 349.59 515.4">
    <defs>
        <style>
            .m {
                fill: url(#g);
            }

            .n,
            .o,
            .p,
            .q {
                fill: #fff;
            }

            .n,
            .o,
            .q,
            .r {
                stroke: #3b2e55;
                stroke-linejoin: round;
            }

            .n,
            .o,
            .r {
                stroke-width: 1.17px;
            }

            .n,
            .q,
            .r {
                stroke-linecap: round;
            }

            .s {
                fill: #010101;
            }

            .t,
            .u {
                fill: #fdfeff;
            }

            .v,
            .w {
                fill: #336890;
            }

            .x {
                fill: #c3bfbf;
            }

            .y {
                fill: #3fb870;
            }

            .z {
                fill: #6dac46;
            }

            .aa {
                fill: #54a2d9;
            }

            .ab {
                fill: #557bbe;
            }

            .ac {
                fill: #3b2e55;
            }

            .ad {
                fill: #599642;
            }

            .ae,
            .r {
                fill: #60c9df;
            }

            .af {
                fill: #4c76ba;
            }

            .u {
                opacity: .22;
            }

            .u,
            .ag,
            .ah,
            .ai,
            .aj,
            .ak,
            .al,
            .w {
                isolation: isolate;
            }

            .am {
                fill: none;
                stroke: url(#i);
                stroke-dasharray: 0 0 4 5.6;
                stroke-miterlimit: 10;
                stroke-width: 2px;
            }

            .ag {
                fill: url(#f);
            }

            .ag,
            .ah {
                opacity: .75;
            }

            .ah {
                fill: url(#e);
            }

            .ai {
                fill: url(#b);
            }

            .ai,
            .aj,
            .ak,
            .al {
                opacity: .54;
            }

            .aj {
                fill: url(#h);
            }

            .ak {
                fill: url(#d);
            }

            .al {
                fill: url(#c);
            }

            .q {
                stroke-width: .98px;
            }

            .w {
                opacity: .65;
            }

            .an {
                fill: #0b9cbf;
                fill-rule: evenodd;
            }

              @keyframes moveDottedLine {
  0% {
    stroke-dashoffset: 0;
  }
  100% {
    stroke-dashoffset: -300;
  }
}

.am {
  animation: moveDottedLine 10s linear infinite;
  opacity: 0.7;
}

        </style>
        <linearGradient id="b" x1="301.77" y1="277.85" x2="171.66" y2="271.94" gradientTransform="translate(0 -243.38)"
            gradientUnits="userSpaceOnUse">
            <stop offset="0" stop-color="#203668" />
            <stop offset="1" stop-color="#0a1a3d" stop-opacity="0" />
        </linearGradient>
        <linearGradient id="c" x1="88.9" y1="319.39" x2="-34.92" y2="313.76" gradientTransform="translate(0 -243.38)"
            gradientUnits="userSpaceOnUse">
            <stop offset="0" stop-color="#203668" />
            <stop offset="1" stop-color="#0a1a3d" stop-opacity="0" />
        </linearGradient>
        <linearGradient id="d" x1="88.9" y1="665.69" x2="-34.92" y2="660.06" gradientTransform="translate(0 -243.38)"
            gradientUnits="userSpaceOnUse">
            <stop offset="0" stop-color="#203668" />
            <stop offset="1" stop-color="#0a1a3d" stop-opacity="0" />
        </linearGradient>
        <linearGradient id="e" x1="88.9" y1="577.39" x2="-34.92" y2="571.76" gradientTransform="translate(0 -243.38)"
            gradientUnits="userSpaceOnUse">
            <stop offset="0" stop-color="#203668" />
            <stop offset="1" stop-color="#0a1a3d" stop-opacity="0" />
        </linearGradient>
        <linearGradient id="f" x1="88.9" y1="413.69" x2="-34.92" y2="408.06" gradientTransform="translate(0 -243.38)"
            gradientUnits="userSpaceOnUse">
            <stop offset="0" stop-color="#203668" />
            <stop offset="1" stop-color="#0a1a3d" stop-opacity="0" />
        </linearGradient>
        <linearGradient id="g" x1="88.9" y1="491.29" x2="-34.92" y2="485.66" gradientTransform="translate(0 -243.38)"
            gradientUnits="userSpaceOnUse">
            <stop offset="0" stop-color="#203668" />
            <stop offset="1" stop-color="#0a1a3d" stop-opacity="0" />
        </linearGradient>
        <linearGradient id="h" x1="320.14" y1="728.78" x2="196.33" y2="723.15" gradientTransform="translate(0 -243.38)"
            gradientUnits="userSpaceOnUse">
            <stop offset="0" stop-color="#203668" />
            <stop offset="1" stop-color="#0a1a3d" stop-opacity="0" />
        </linearGradient>
        <linearGradient id="i" x1="113.59" y1="261.3" x2="349.59" y2="261.3" gradientUnits="userSpaceOnUse">
            <stop offset="0" stop-color="#fff" stop-opacity="0" />
            <stop offset="0" stop-color="#fff" stop-opacity=".5" />
            <stop offset=".32" stop-color="#fff" stop-opacity=".49" />
            <stop offset=".49" stop-color="#fff" stop-opacity=".46" />
            <stop offset=".62" stop-color="#fff" stop-opacity=".41" />
            <stop offset=".74" stop-color="#fff" stop-opacity=".33" />
            <stop offset=".84" stop-color="#fff" stop-opacity=".23" />
            <stop offset=".94" stop-color="#fff" stop-opacity=".11" />
            <stop offset="1" stop-color="#fff" stop-opacity=".02" />
            <stop offset="1" stop-color="#fff" stop-opacity=".05" />
        </linearGradient>
    </defs>
    <path class="ai"
        d="m241.4,0h55.8c18.2,0,33,14.8,33,33h0c0,18.2-14.8,33-33,33h-55.8c-18.2,0-33-14.8-33-33h0c0-18.2,14.7-33,33-33h0Z" />
    <path class="al"
        d="m31.4,43.2h53.1c17.4,0,31.4,14.1,31.4,31.4h0c0,17.4-14.1,31.4-31.4,31.4H31.4c-17.4,0-31.4-14.1-31.4-31.4h0c0-17.3,14.1-31.4,31.4-31.4Z" />
    <path class="ak"
        d="m31.4,389.5h53.1c17.4,0,31.4,14.1,31.4,31.4h0c0,17.4-14.1,31.4-31.4,31.4H31.4c-17.4,0-31.4-14.1-31.4-31.4h0c0-17.3,14.1-31.4,31.4-31.4Z" />
    <path class="ab"
        d="m65.6,405.5h-15.2c-.8,0-1.6.5-2,1.2l-7.6,13.1c-.4.7-.4,1.6,0,2.4l7.6,13.1c.4.7,1.2,1.2,2,1.2h15.2c.8,0,1.6-.5,2-1.2l7.6-13.1c.4-.7.4-1.6,0-2.4l-7.6-13.1c-.4-.8-1.2-1.2-2-1.2Z" />
    <path class="af"
        d="m64.5,436.4h1.1c.8,0,1.6-.5,2-1.2l5-8.6-10.2-10,1.2,4.7-1.2,2.5-2.5,1.8-3.3.8-2-.3,9.9,10.3h0Z" />
    <path class="t"
        d="m63,417.2c.7,1.1,1.2,2.3,1.2,3.6,0,1.4-.4,2.6-1.2,3.7-.1.2-.1.3,0,.4.7.7,1.4,1.4,2.1,2.1.3.3.3.5,0,.8-.1.1-.3.3-.4.4-.3.3-.4.3-.7,0-.7-.7-1.4-1.4-2.1-2.1-.1-.2-.2-.2-.4,0-2.1,1.4-4.4,1.6-6.7.4-.1-.1-.2-.1-.3-.2-.5-.3-.9-.7-1.3-1.1-1.6-1.9-2.1-4-1.3-6.4.8-2.3,2.5-3.8,4.9-4.2,2.5-.4,4.5.5,6.1,2.4,0,.07.03.13.1.2h0Z" />
    <path class="ab" d="m57.8,416.1c2.6,0,4.8,2.1,4.8,4.7s-2.1,4.8-4.7,4.8-4.8-2.1-4.8-4.8,2.1-4.7,4.7-4.7h0Z" />
    <path class="t" d="m54.7,422.4c.3.6.7,1.1,1.3,1.4v-3.2h-1.3v1.8h0Z" />
    <path class="t" d="m57.1,424.2c.2,0,.4.1.6.1.3,0,.5,0,.8-.1v-5.2h-1.4v5.2h0Z" />
    <path class="u" d="m59.6,423.8c.6-.4,1-.9,1.3-1.5v-.8h-1.3v2.3Z" />
    <path class="ah"
        d="m31.4,301.2h53.1c17.4,0,31.4,14.1,31.4,31.4h0c0,17.4-14.1,31.4-31.4,31.4H31.4c-17.4,0-31.4-14.1-31.4-31.4h0c0-17.3,14.1-31.4,31.4-31.4Z" />
    <path class="s"
        d="m77.4,337.7c-.4,1.2-1.4,1.9-2.4,2.5-1.3.8-2.7,1.1-4.1,1.2h-1.5c0,.2,0,.4-.1.6-.1,1.2-.2,2.5-.3,3.7-.1,1.1-.4,2.2-.9,3.3-.8,1.7-2.1,2.8-4,3.3-.9.2-1.8.5-2.7.4-1.8-.1-3.1-1-3.9-2.7-.5-1.2-.9-2.5-.9-3.8-.1-1.1-.1-2.2-.2-3.2v-.4c-.4.1-.8.3-1.2.3-1.6.3-3.1.2-4.6-.5-.4-.2-.7-.5-1.1-.7v-.1c-.1.1-.2.1-.3.2-1.3,1-3,.9-4.3-.1-.9-.7-1.6-1.7-2.2-2.7-.9-1.6-1.5-3.3-2.1-5-.9-2.9-1.7-5.9-2.1-9-.3-2.1-.2-4.3.4-6.3.9-2.8,2.8-4.5,5.6-5.2,1.4-.4,2.8-.4,4.3-.3,1.6.2,3.2.5,4.8,1h.2c1.7-1,3.6-1.3,5.6-1.2.7,0,1.4.2,2.1.2h.2c1.2-.3,2.5-.6,3.7-.6h1.8c.5,0,1,.1,1.4.2,2.5.4,4.7,1.5,6.5,3.3.8.8,1.4,1.6,1.6,2.8.2.9.2,1.7.1,2.6-.1,1.5-.4,2.9-.7,4.3-.9,3.4-2.2,6.6-4,9.7,0,.1-.1.1-.1.3.6-.1,1.1-.1,1.6-.2.6-.1,1.1-.2,1.6-.2.4,0,.8.2,1.2.5.3.3.5.6.7,1l.3.8h0Zm-6.8-1.4c0-.1.1-.1.1-.2,2.4-3.8,4.2-7.9,5.1-12.3.3-1.4.5-2.8.3-4.3-.1-.7-.2-1.3-.7-1.9s-1-1.1-1.6-1.6c-1.8-1.5-4-2.3-6.3-2.4-1.9-.1-3.9.1-5.7.7h-.2c-.8-.1-1.5-.3-2.3-.3-1.9-.1-3.6.2-5.2,1.2h-.2c-1.6-.5-3.1-.9-4.8-1.1-1.4-.2-2.9-.1-4.3.2-2,.5-3.5,1.8-4.4,3.7-.6,1.4-.8,2.8-.8,4.3,0,1.3.2,2.5.4,3.8.5,2.8,1.2,5.5,2.2,8.2.5,1.5,1.1,2.9,1.9,4.2.4.8.9,1.5,1.6,2,.6.5,1.3.7,2.1.5.6-.2,1.1-.5,1.6-1,.7-.8,1.3-1.5,2-2.3.4-.5.9-1,1.3-1.4.7.4,1.4.6,2.3.6-.2.3-.4.5-.6.8-.2.3-.5.5-.9.6-.5.1-.9.2-1.4.4-.4.1-.9.2-1.2.5-.5.4-.6,1-.1,1.5.2.2.4.3.6.4.6.3,1.3.5,2,.5,1.5.1,2.9-.2,4-1.2,0,0,.1,0,.1-.1v.3c0,2,0,4,.2,6,.1,1,.3,2,.8,2.8.7,1.2,1.7,1.9,3.1,2,1.3.1,2.6-.3,3.7-.8.9-.4,1.5-1.1,1.9-2,.2-.4.4-.9.4-1.4.3-2.1.6-4.1.9-6.2.1-.4.1-.7.1-1.1.2,0,.4.1.6.1.8.1,1.6.1,2.4,0,1.4-.2,2.7-.7,3.8-1.6.3-.3.7-.6.8-1,.2-.5,0-1.1-.6-1.2h-.9c-.9.2-1.9.3-2.8.3-.5.1-.9.1-1.3-.2h0Z" />
    <path class="p"
        d="m70.6,336.4c.4.3.8.3,1.3.3,1,0,1.9-.1,2.8-.3.3,0,.6-.1.9,0,.6.1.8.6.6,1.2-.2.4-.5.7-.8,1-1.1.9-2.4,1.4-3.8,1.6-.8.1-1.6.2-2.4,0-.2,0-.4-.1-.6-.1,0,.4-.1.8-.1,1.1-.3,2.1-.6,4.1-.9,6.2-.1.5-.2.9-.4,1.4-.4.9-1,1.6-1.9,2-1.2.6-2.4.9-3.7.8-1.4-.1-2.4-.8-3.1-2-.5-.9-.7-1.8-.8-2.8-.2-2-.2-4-.2-6v-.3c-.1,0-.1.1-.1.1-1.2,1-2.5,1.3-4,1.2-.7-.1-1.4-.2-2-.5-.2-.1-.4-.3-.6-.4-.5-.5-.4-1.1.1-1.5.4-.3.8-.4,1.2-.5.5-.1.9-.2,1.4-.4.4-.1.7-.3.9-.6.2-.2.4-.5.6-.8-.8,0-1.6-.2-2.3-.6-.4.5-.9,1-1.3,1.4-.7.8-1.3,1.5-2,2.3-.4.5-.9.8-1.6,1-.8.2-1.5-.1-2.1-.5-.7-.5-1.2-1.2-1.6-2-.8-1.3-1.4-2.8-1.9-4.2-.9-2.7-1.6-5.5-2.2-8.2-.2-1.2-.4-2.5-.4-3.8,0-1.5.2-2.9.8-4.3.9-1.9,2.3-3.1,4.4-3.7,1.4-.4,2.8-.4,4.3-.2,1.6.2,3.2.6,4.8,1.1h.2c1.6-1,3.3-1.4,5.2-1.2.8,0,1.5.2,2.3.3h.2c1.9-.6,3.8-.8,5.7-.7,2.4.2,4.5.9,6.3,2.4.6.5,1.1,1,1.6,1.6.4.6.6,1.2.7,1.9.2,1.5,0,2.9-.3,4.3-.9,4.4-2.7,8.5-5.1,12.3,0,0-.1,0-.1.1h0Zm-14.5-.2h.6c.9.2,1.5.7,1.8,1.6.1.4.1.9.1,1.3,0,2.6-.1,5.3.2,7.9.1.7.3,1.4.6,2,.6,1,1.4,1.5,2.5,1.4.7,0,1.4-.2,2.1-.4,1.2-.4,2.1-1.2,2.4-2.5.2-1.1.4-2.2.6-3.3.1-.8.2-1.6.3-2.3s.2-1.5.2-2.2c.1-.6.1-1.1.1-1.7.1-.9.6-1.5,1.4-1.8.07,0,.13-.03.2-.1-.1-.1-.1-.2-.2-.3-.4-.5-.9-1.1-1.2-1.8-.2-.4-.4-.8-.6-1.2-.7-1.3-1.5-2.7-2-4.1-.4-1.1-.7-2.2-.5-3.3.1-.9.5-1.6,1.3-2,.9-.5,1.9-.6,2.9-.5h.5c0-.1-.1-.2-.1-.3-.8-2-2-3.7-3.6-5-2.4-2-5.2-2.8-8.4-2.4-1.7.2-3.1,1.1-4.1,2.4-.8,1.1-1.3,2.3-1.7,3.5-.2.9-.4,1.9-.5,2.8.4-.2.7-.3,1-.5,1-.4,1.9-.6,3-.5,1.2.1,2.1.9,2.4,2.1.4,1.5.6,3,.5,4.6-.1,1-.2,1.9-.6,2.8-.4.9-.7,1.8-1.1,2.7.1.5,0,.8-.1,1.1h0Zm-4.5-.3c-.4-.4-.7-.8-1-1.3-.8-1.1-1.1-2.4-.9-3.7.1-1,.2-2,.2-3,0-.7-.1-1.4-.1-2.1-.1-1.7.2-3.3.6-4.9.5-1.7,1.2-3.3,2.5-4.6v-.1h-.1c-1.3-.4-2.7-.7-4.1-.8-1.1-.1-2.2-.1-3.4.2-2,.5-3.3,1.6-4.1,3.5-.3.9-.5,1.8-.6,2.7-.1,1-.1,1.9.1,2.9.3,1.5.6,3.1.9,4.6.6,2.4,1.3,4.7,2.2,7,.4,1,1,2.1,1.7,3,.3.3.6.6.9.8.4.2.8.2,1.2,0,.2-.2.4-.4.6-.6.6-.7,1.2-1.4,1.8-2,.8-.6,1.2-1.1,1.6-1.6h0Zm18.3-.7c0-.1.1-.1.1-.2,2.1-3.5,3.7-7.2,4.6-11.2.3-1.4.5-2.8.3-4.2-.1-.5-.2-.9-.4-1.3-.5-.6-1-1.1-1.6-1.6-1.8-1.3-3.8-1.9-6-2-.7,0-1.4.1-2.1.1-.3,0-.6.1-1,.2.07.07.13.1.2.1,3.1,1.5,5.2,4,6.5,7.2.1.3.3.7.3,1.1.1.8,0,1.6-.2,2.4-.2,1.2-.2,2.3-.1,3.5.1.8.2,1.7.2,2.5,0,1.1-.2,2.1-.8,3-.1.2-.1.3,0,.4h0Zm-13-5.8c0-1.3-.2-2.4-.4-3.6-.1-.7-.5-1.2-1.2-1.4-.3-.1-.6-.1-.9-.1-1.2.1-2.2.5-3.2,1.1-.1.1-.2.2-.2.4,0,.9.1,1.7.1,2.6,0,.7-.1,1.3-.1,2,0,.5-.1,1,0,1.5.1,1.1.5,2,1.2,2.7.7.8,1.6,1.2,2.7,1.2.1,0,.2,0,.2-.1.4-1,.7-1.9,1.1-2.8.4-1.1.7-2.3.7-3.5h0Zm12.1,4.5h0c.07-.07.1-.13.1-.2.2-.6.4-1.2.4-1.8,0-1-.1-2-.2-3.1-.1-.9-.1-1.8.1-2.6.1-.6.2-1.3.2-1.9,0-.1,0-.2-.1-.2-.7-.1-1.4-.1-2.1,0-.7.2-1.4.5-1.5,1.5-.1.6,0,1.1.2,1.6.3,1.2.8,2.3,1.4,3.4.5,1,1.1,2,1.6,3-.2.3-.1.3-.1.3h0Zm-17.4,6.2s0,.1,0,0c.1.1.3.2.4.2.6.2,1.2.3,1.9.3,1.4,0,2.4-.5,3.3-1.6.4-.5.2-1.2-.3-1.6-.4-.2-.6-.2-.8.1-.3.3-.5.6-.7.9-.4.6-1,1-1.7,1.2-.3.1-.5.1-.8.2-.5.2-.9.3-1.3.3h0Zm23.1-2.5h-.1c-1.1.2-2.1.3-3.2.2-.5-.1-1-.2-1.5-.5h-.2c-.1,0-.2.1-.3.1-.3.1-.5.3-.6.7,0,.1-.1.2-.1.4,0,.5-.1.5.4.6.1,0,.2,0,.4.1,1.1.1,2.1,0,3.2-.3.7-.4,1.4-.8,2-1.3h0Z" />
    <path class="v"
        d="m56.1,336.2c.1-.3.2-.6.3-.9.4-.9.7-1.8,1.1-2.7.4-.9.5-1.8.6-2.8.1-1.6-.1-3.1-.5-4.6-.3-1.2-1.2-1.9-2.4-2.1-1-.1-2,.1-3,.5-.3.1-.7.3-1,.5.1-1,.2-1.9.5-2.8.4-1.3.9-2.5,1.7-3.5,1.1-1.3,2.4-2.2,4.1-2.4,3.1-.4,5.9.4,8.4,2.4,1.6,1.4,2.8,3.1,3.6,5,0,.1.1.2.1.3h-.5c-1,0-2,0-2.9.5-.8.5-1.2,1.2-1.3,2-.2,1.2.1,2.2.5,3.3.5,1.4,1.2,2.8,2,4.1.2.4.4.8.6,1.2.3.6.7,1.2,1.2,1.8.1.1.1.2.2.3-.1,0-.1.1-.2.1-.9.3-1.3.9-1.4,1.8-.1.6-.1,1.1-.1,1.7-.1.7-.2,1.5-.2,2.2-.1.8-.2,1.6-.3,2.3-.2,1.1-.3,2.2-.6,3.3-.3,1.3-1.1,2.1-2.4,2.5-.7.2-1.4.4-2.1.4-1.1,0-1.9-.5-2.5-1.4-.4-.6-.6-1.3-.6-2-.3-2.6-.2-5.3-.2-7.9,0-.4.1-.9-.1-1.3-.3-.9-.9-1.5-1.8-1.6-.4-.2-.6-.2-.8-.2h0Z" />
    <path class="v"
        d="m51.6,335.9c-.4.5-.9.9-1.3,1.4-.6.7-1.2,1.4-1.8,2-.2.2-.4.4-.6.6-.4.3-.8.3-1.2,0-.4-.2-.7-.5-.9-.8-.7-.9-1.2-1.9-1.7-3-1-2.3-1.7-4.6-2.2-7-.4-1.5-.7-3.1-.9-4.6-.2-1-.2-1.9-.1-2.9.1-.9.2-1.8.6-2.7.7-1.9,2.1-3,4.1-3.5,1.1-.2,2.2-.3,3.4-.2,1.4.1,2.7.4,4.1.8h.1v.1c-1.3,1.3-2,2.9-2.5,4.6-.4,1.6-.7,3.2-.6,4.9,0,.7.1,1.4.1,2.1,0,1-.1,2-.2,3-.1,1.3.2,2.6.9,3.7,0,.7.4,1.1.7,1.5h0Z" />
    <path class="v"
        d="m69.9,335.2c-.1-.1-.2-.2-.1-.3.5-.9.8-1.9.8-3,0-.8-.1-1.7-.2-2.5-.1-1.2-.1-2.3.1-3.5.1-.8.2-1.6.2-2.4,0-.4-.1-.7-.3-1.1-1.3-3.2-3.4-5.7-6.5-7.2-.07,0-.13-.03-.2-.1.4-.1.7-.1,1-.2.7-.1,1.4-.1,2.1-.1,2.2,0,4.2.6,6,2,.6.5,1.1,1,1.6,1.6.3.4.4.8.4,1.3.2,1.4,0,2.8-.3,4.2-.8,4-2.4,7.8-4.6,11.3.1-.1,0,0,0,0h0Z" />
    <path class="v"
        d="m56.9,329.4c0,1.2-.3,2.4-.8,3.6-.4.9-.7,1.9-1.1,2.8,0,.1-.1.2-.2.1-1.1,0-1.9-.5-2.7-1.2-.7-.8-1.2-1.7-1.2-2.7v-1.5c0-.7.1-1.3.1-2,0-.9,0-1.7-.1-2.6,0-.2,0-.3.2-.4,1-.6,2-1,3.2-1.1.3,0,.6,0,.9.1.7.2,1,.7,1.2,1.4.3,1,.5,2.2.5,3.5h0Zm-2.2-4.5c-.2,0-.4.1-.6.1-.2.1-.3.3-.2.5.3.7,1.2,1.1,1.9.4.3-.3.2-.6-.1-.8-.3-.1-.7-.2-1-.2h0Z" />
    <path class="w"
        d="m69,333.9l-.1-.1c-.5-1-1.1-2-1.6-3-.6-1.1-1.1-2.2-1.4-3.4-.1-.5-.2-1.1-.2-1.6.1-1,.8-1.4,1.5-1.5.7-.2,1.4-.1,2.1,0,.1,0,.1.1.1.2-.1.6-.1,1.3-.2,1.9-.1.9-.2,1.8-.1,2.6.1,1,.2,2,.2,3.1,0,.6-.1,1.2-.3,1.8.1-.1,0,0,0,0h0Zm-1.5-8.1c.4,0,.8-.3,1-.7.1-.2.1-.4-.2-.5-.6-.2-1.1-.1-1.6.2-.2.1-.2.3-.1.5.3.4.6.5.9.5h0Z" />
    <path class="v"
        d="m51.6,340.1c.4-.1.8-.2,1.1-.3s.5-.1.8-.2c.7-.2,1.3-.6,1.7-1.2.2-.3.5-.6.7-.9.3-.3.5-.3.8-.1.5.3.7,1.1.3,1.6-.8,1.1-1.9,1.6-3.3,1.6-.6,0-1.2-.1-1.9-.3,0,.1-.1,0-.2-.2q0,.07,0,0h0Z" />
    <path class="v"
        d="m74.7,337.6c-.6.5-1.3,1-2.1,1.2-1,.3-2.1.4-3.2.3-.1,0-.2,0-.4-.1-.5-.1-.4-.1-.4-.6,0-.1,0-.2.1-.4.1-.3.3-.6.6-.7.1,0,.2-.1.3-.1h.2c.4.3,1,.4,1.5.5,1.1.1,2.1,0,3.2-.2.1.1.2.1.2.1h0Z" />
    <path class="p" d="m54.7,324.9c.4,0,.7.1,1,.3.4.2.4.5.1.8-.7.7-1.6.3-1.9-.4-.1-.2,0-.4.2-.5s.4-.2.6-.2h0Z" />
    <path class="p"
        d="m67.5,325.8c-.3,0-.6-.2-.8-.4-.1-.2-.1-.4.1-.5.5-.3,1-.4,1.6-.2.2.1.3.2.2.5-.3.4-.7.6-1.1.6h0Z" />
    <path class="ag"
        d="m31.4,137.5h53.1c17.4,0,31.4,14.1,31.4,31.4h0c0,17.4-14.1,31.4-31.4,31.4H31.4c-17.4,0-31.4-14.1-31.4-31.4h0c0-17.4,14.1-31.4,31.4-31.4Z" />
    <path class="m"
        d="m31.4,215.1h53.1c17.4,0,31.4,14.1,31.4,31.4h0c0,17.4-14.1,31.4-31.4,31.4H31.4c-17.4,0-31.4-14.1-31.4-31.4h0c0-17.3,14.1-31.4,31.4-31.4Z" />
    <path class="aj"
        d="m262.7,452.6h53.1c17.4,0,31.4,14.1,31.4,31.4h0c0,17.4-14.1,31.4-31.4,31.4h-53.1c-17.4,0-31.4-14.1-31.4-31.4h0c-.1-17.3,14-31.4,31.4-31.4h0Z" />
    <path class="am"
        d="m113.59,245.2h236m-79.8-173.8v160.4s-1.91,12.9,8.95,12.9m-163.15-86.3l33.77.12c3.57-.44,5.72.39,7.04,1.28,3.35,2.26,5.31,7.55,5.31,7.55h0v71.27c-.22,1.08-.05,1.85.13,2.34.9,2.4,4.4,3.85,8.69,3.39m-52.54,89.45h52s8.8,1.4,10.6-10.4,1.8-63.8,1.8-63.8c-.07-.74-.51-6.74,4.1-10.99,3.3-3.05,7.19-3.36,8.34-3.41m-77.34,168.4h97.1s12.4-1,12.4-17-1.5-136-1.5-136c0-.4-.05-9.46,7.09-13.66,3.73-2.19,7.51-1.93,9.01-1.74m39.92,206c0-21.76-2.04-184.99-2.04-184.99,0-.54-.06-12.87,9.67-18.58,5.08-2.98,10.23-2.63,12.28-2.37M117.99,73.43l54,.07s10.03-1.07,11.55,13.42v74.69s-.25,8.23,9.25,9.99h67.86s9.14,3.86,9.14,9" />
    <path class="ad"
        d="m59.13,142.29l1.43,2.68c.32.49.67.93,1.08,1.34,1.2,1.2,2.33,2.45,3.35,3.79,2.42,3.18,4.05,6.7,5.22,10.52.7,2.33,1.08,4.72,1.11,7.14.12,7.23-2.36,13.43-7.36,18.59-.82.82-1.69,1.57-2.63,2.24-.49,0-.73-.38-.93-.73-.38-.64-.61-1.37-.73-2.1-.18-.87-.29-1.75-.23-2.65v-.41c-.04-.09-.48-40.22-.3-40.42h-.01Z" />
    <path class="z"
        d="m59.13,142.2c-.06-.12-.12-.03-.18.03.03.59-.18,1.11-.49,1.61-.35.49-.82.87-1.28,1.28-2.59,2.24-4.63,4.95-6.27,7.99-2.17,4.08-3.29,8.45-3.61,13.06-.15,1.66.53,7.52,1.05,9.21,1.43,4.49,3.99,8.25,7.32,11.51.82.79,1.69,1.51,2.59,2.22.26,0,.29-.23.35-.41.12-.37.2-.75.26-1.14l.59-4.37-.32-40.98h0Z" />
    <path class="x"
        d="m60.56,190.38c.06-.67.38-1.22.73-1.78-.35-.15-.61-.43-.82-.76-.18-.29-.32-.64-.43-.96-.41-1.22-.49-2.51-.61-3.76v-.76c-.15.12-.18,1.11-.18,1.25-.09,1.32-.26,2.64-.53,3.93-.09.53-.15,1.05-.47,1.51,0,.06,0,.12.03.2.53,1.54.67,3.12.76,4.72v.59c0,.7-.03.55.55.79.23.09.49.12.73.29.18,0,.2-.15.2-.26l-.09-.96v-2.68c-.03-.47.06-.93.12-1.37h.01Z" />
    <path class="r"
        d="m50.72,266.34c.25,1.33-.57,2.59-1.9,2.91-1.33.25-2.59-.57-2.91-1.9,0,0-4.49-21.05-4.49-25.35,0-8.98,7.14-15.36,17.2-15.36s17.2,6.32,17.2,15.3c0,4.3-4.49,25.35-4.49,25.35-.25,1.33-1.52,2.21-2.85,1.96s-2.21-1.52-1.96-2.85" />
    <path class="ae" d="m70.26,260.33l-1.2,6.83c-.19,1.33-1.45,2.28-2.78,2.09s-2.28-1.45-2.09-2.78" />
    <path class="ac"
        d="m70.51,260.33l-.57,3.6-.32,1.77-.13.95-.19.95c-.44,1.52-2.02,2.34-3.54,1.9-.63-.19-1.14-.57-1.52-1.07-.38-.57-.57-1.33-.44-2.02,0-.19.25-.38.44-.32.19,0,.38.25.32.44-.13,1.07.57,2.02,1.64,2.21,1.01.19,2.09-.38,2.4-1.39.06-.19.13-.57.19-.82l.19-.89.32-1.77.7-3.54c.06-.12.18-.19.32-.19.13,0,.19.13.19.19h0Z" />
    <circle class="o" cx="52.81" cy="240.35" r="7.65" />
    <path class="ac"
        d="m54.39,235.29c-1.33.25-1.58,3.16-.82,3.98.51.51,1.58.7,1.58,1.07s-1.07.57-1.58,1.07c-.82.82-.51,3.73.82,3.98,1.58.32,3.98-1.58,3.98-5.06s-2.4-5.37-3.98-5.06v.02Z" />
    <path class="q" d="m49.14,250.66c.25.82,1.07,2.09,2.15,1.83.51-.13.82-.82.82-1.83" />
    <path class="n" d="m55.97,250.15c.25,1.07.51,1.83,1.33,1.83s1.83-1.07,1.58-2.91" />
    <path class="ac"
        d="m47.56,250.09c5.12.76,10.31-.51,14.54-3.41.19-.06.44,0,.51.19.06.13.06.32-.06.44-4.43,3.03-9.8,4.24-15.11,3.48-.19-.06-.25-.25-.19-.44.13-.19.19-.25.32-.25h0Zm15.17-2.21c-.15-.71-.73-1.24-1.45-1.33-.19.06-.44-.06-.44-.32-.06-.19.06-.44.32-.44h.25c1.01.19,1.77,1.01,1.9,2.02,0,.13-.13.25-.25.25-.19.06-.32-.06-.32-.19h-.01Z" />
    <path class="ae" d="m53.06,266.46c.19,1.33-.7,2.59-2.09,2.78-1.33.19-2.59-.7-2.78-2.09l-1.14-6.83" />
    <path class="ac"
        d="m53.5,266.4c.19,1.58-.95,2.97-2.47,3.16-1.39.19-2.66-.7-3.03-1.96l-.19-.95-.38-2.66c-.32-1.26-.51-2.47-.7-3.67,0-.13.13-.25.25-.25s.25.06.25.19l.7,3.54.57,2.66.19.82c.32,1.01,1.33,1.64,2.4,1.39,1.01-.25,1.71-1.2,1.58-2.21,0-.19.13-.44.32-.44.25-.06.44.13.51.38h0Z" />
    <path class="ae" d="m56.6,266.59c.06,1.33-.95,2.53-2.34,2.59-1.26.06-2.4-.89-2.53-2.15l-.76-6.83" />
    <path class="ac"
        d="m57.04,266.59c.06,1.58-1.14,2.91-2.72,2.97-1.39.06-2.59-.82-2.91-2.15-.06-.32-.13-.63-.13-.95l-.06-.89-.19-1.77-.32-3.6c0-.13.13-.25.25-.25s.25.06.25.19l.76,5.37.13.89c.06.32.06.63.13.82.25,1.01,1.26,1.71,2.28,1.52,1.03-.2,1.78-1.1,1.77-2.15,0-.19.19-.38.44-.38.13.06.25.19.32.38Z" />
    <path class="ae" d="m66.27,260.14l-.76,6.89c-.13,1.33-1.26,2.34-2.66,2.21-1.33-.13-2.34-1.26-2.21-2.66" />
    <path class="ac"
        d="m66.59,260.14l-.32,3.6-.19,1.77-.06.89c0,.32-.06.63-.13.95-.19.7-.57,1.26-1.2,1.71-1.33.89-3.03.57-3.92-.76-.38-.51-.51-1.14-.51-1.77.06-.19.25-.38.44-.32.19,0,.32.19.32.38-.06,1.07.7,1.96,1.77,2.15,1.01.13,2.02-.51,2.28-1.52l.13-.82.38-2.66.51-3.6c.06-.13.19-.25.32-.19.06,0,.13.06.19.19h-.01Z" />
    <path class="ae" d="m61.28,259.89l-.19,6.89c0,1.33-1.07,2.47-2.47,2.47s-2.47-1.07-2.47-2.47l-.19-6.89" />
    <path class="ac"
        d="m61.53,259.95l-.06,5.31v1.33c0,.51-.06,1.01-.32,1.45-.7,1.39-2.47,1.96-3.86,1.2-.76-.38-1.33-1.14-1.45-1.96-.06-.25-.06-.51-.06-.76v-1.33l-.06-5.31c0-.13.13-.25.25-.25s.25.13.25.25l.32,6.64c0,.19,0,.38.06.57l.19.51c.57,1.01,1.77,1.39,2.78.82.38-.19.63-.51.82-.82l.19-.51c.06-.19.06-.38.06-.57l.32-6.64c0-.13.13-.25.25-.25.25,0,.32.13.32.32h0Z" />
    <path class="an"
        d="m75.03,84.04c-1.92-.05-3.42.14-4.67.67-.36.14-.94.14-.99.6.19.19.22.5.38.77.29.48.79,1.12,1.25,1.46l1.54,1.1c.94.57,2,.91,2.91,1.48.53.34,1.06.77,1.59,1.12.27.19.43.5.77.62v-.07c-.17-.21-.22-.53-.38-.77l-.72-.69c-.7-.93-1.56-1.75-2.5-2.42-.77-.53-2.45-1.24-2.77-2.13l-.05-.05c.53-.05,1.15-.24,1.66-.38.82-.21,1.56-.17,2.41-.38l1.16-.34v-.21c-.43-.43-.75-1-1.2-1.41-1.23-1.05-2.58-2.08-3.97-2.94-.75-.48-1.71-.79-2.5-1.2-.29-.14-.77-.22-.94-.45-.43-.53-.67-1.22-.99-1.84l-1.97-4.16c-.43-.93-.7-1.87-1.23-2.73-2.48-4.07-5.18-6.53-9.31-8.95-.89-.5-1.95-.72-3.07-.98l-1.8-.1c-.39-.17-.77-.62-1.11-.84-1.37-.86-4.91-2.73-5.92-.27-.65,1.55.96,3.09,1.51,3.87.41.55.94,1.17,1.23,1.79.16.41.22.84.38,1.27.38,1.05.75,2.22,1.25,3.21.27.5.55,1.03.89,1.48.19.27.53.38.6.81-.34.48-.36,1.2-.55,1.79-.87,2.7-.53,6.05.7,8.04.39.6,1.29,1.91,2.53,1.41,1.08-.43.84-1.79,1.15-2.99.07-.29.02-.48.17-.67v.05l.99,1.99c.75,1.17,2.05,2.39,3.13,3.21.58.43,1.03,1.17,1.76,1.44v-.07h-.05c-.14-.21-.36-.31-.55-.48-.43-.43-.91-.96-1.25-1.44-1.01-1.34-1.9-2.82-2.69-4.35-.39-.74-.72-1.55-1.03-2.3-.15-.29-.15-.72-.39-.86-.36.53-.89.98-1.16,1.63-.46,1.03-.5,2.3-.67,3.61-.1.02-.05,0-.1.05-.77-.19-1.03-.98-1.32-1.65-.72-1.7-.84-4.42-.22-6.39.17-.5.89-2.08.6-2.56-.15-.45-.63-.72-.89-1.08-.31-.45-.65-1.03-.87-1.53-.58-1.34-.87-2.82-1.49-4.16-.29-.62-.79-1.27-1.2-1.84-.46-.65-.96-1.1-1.32-1.87-.12-.27-.29-.69-.1-.98.05-.19.14-.27.34-.31.31-.27,1.2.07,1.52.21.89.36,1.64.69,2.38,1.2.34.24.7.69,1.13.81h.51c.77.17,1.64.05,2.36.27,1.28.41,2.43,1,3.47,1.65,3.15,1.99,5.75,4.81,7.51,8.18.29.55.41,1.05.67,1.63.51,1.17,1.13,2.37,1.64,3.52.51,1.12.99,2.27,1.71,3.21.36.5,1.8.76,2.45,1.03.48.21,1.23.41,1.66.67.82.5,1.64,1.08,2.41,1.63.38.29,1.59.88,1.66,1.36h-.04Zm-24.54-20.78c-.33,0-.66.04-.99.12v.05h.05c.19.38.53.65.77.98l.55,1.15.05-.05c.34-.24.51-.62.51-1.2-.14-.17-.17-.34-.29-.5-.14-.24-.46-.36-.65-.55h0Z" />
    <path class="y"
        d="m270.14,12.28h15.57c2.86-.02,5.2,2.28,5.22,5.14v15.65c0,11.41-9.25,20.66-20.66,20.66h-.12c-11.41,0-20.66-9.23-20.67-20.63v-.02c0-11.44,9.23-20.68,20.66-20.79h0Z" />
    <path class="p"
        d="m270.14,21.51c-5.24,0-9.49,4.25-9.49,9.49v6.45c.04,1.73,1.43,3.12,3.16,3.16h2.68v-7.41h-3.63v-2.07c.22-3.9,3.45-6.95,7.36-6.95s7.13,3.05,7.35,6.95v2.07h-3.68v7.42h2.43v.12c-.03,1.6-1.32,2.89-2.91,2.91h-2.9c-.24,0-.49.12-.49.35.01.27.23.48.49.49h2.91c2.08,0,3.75-1.69,3.77-3.77v-.24c1.43-.32,2.44-1.6,2.43-3.06v-6.3c.12-5.35-4.12-9.61-9.49-9.61,0,0,.01,0,.01,0Z" />
    <g id="j">
        <path id="k" class="aa"
            d="m284.62,504.93h0c-11.55,0-20.86-9.34-20.86-20.93h0c0-11.59,9.34-20.93,20.86-20.93h15.71c2.93,0,5.29,2.35,5.29,5.29v15.64c-.04,11.59-9.34,20.93-21,20.93h0Z" />
        <path id="l" class="p"
            d="m291.21,475.38h-10.46c-2.97,0-5.29,2.35-5.29,5.29v8.98c0,.62.51,1.12,1.12,1.12h14.52c2.97,0,5.29-2.35,5.29-5.29v-4.82c-.04-2.93-2.35-5.29-5.18-5.29h0Zm-3.84,11.19h-7.64c-.62,0-.98-.51-.98-.98s.51-.98.98-.98h7.64c.62,0,.98.51.98.98s-.36.98-.98.98Zm4.67-4.92h-12.31c-.62,0-.98-.51-.98-.98,0-.62.51-.98.98-.98h12.31c.62,0,.98.51.98.98s-.47.98-.98.98Z" />
    </g>
</svg>