<?xml version="1.0" encoding="UTF-8"?>
<svg id="a" xmlns="http://www.w3.org/2000/svg"
    xmlns:xlink="http://www.w3.org/1999/xlink" viewBox="0 0 386.57 334">
    <defs>
        <style>
            .k {
                fill: url(#i);
            }

            .l {
                fill: url(#f);
            }

            .m {
                fill: url(#d);
            }

            .n {
                opacity: .47;
            }

            .n,
            .o {
                fill: none;
            }

            .o {
                opacity: .4;
                stroke: url(#j);
                stroke-dasharray: 0 0 4 5.6;
                stroke-linecap: round;
                stroke-linejoin: round;
                stroke-width: 2px;
            }

            .o,
            .p,
            .q,
            .r,
            .s,
            .t,
            .u,
            .v,
            .w,
            .x,
            .y {
                isolation: isolate;
            }

            .z {
                fill: #e9e8e9;
            }

            .p {
                fill: #bab3d9;
            }

            .p,
            .q {
                opacity: .33;
            }

            .q,
            .r,
            .x {
                fill: #fafafd;
            }

            .r {
                opacity: .18;
            }

            .s {
                fill: url(#c);
            }

            .s,
            .t,
            .u {
                opacity: .8;
            }

            .t {
                fill: url(#e);
            }

            .u {
                fill: url(#b);
            }

            .v {
                fill: url(#g);
            }

            .v,
            .w {
                opacity: .44;
            }

            .w {
                fill: url(#h);
            }

            .x {
                opacity: .51;
            }

            .y {
                fill: #e5e5ec;
                opacity: .41;
            }
             @keyframes moveDottedLine {
                0% {
                    stroke-dashoffset: 0;
                }

                100% {
                    stroke-dashoffset: -250;
                }
            }
            .o {
                animation: moveDottedLine 7s linear infinite;
            }
        </style>
        <linearGradient id="b" x1="60.28" y1="240.7" x2="404.11" y2="256.64"
            gradientTransform="translate(0 417.11) scale(1 -1)" gradientUnits="userSpaceOnUse">
            <stop offset="0" stop-color="#23366e" />
            <stop offset="1" stop-color="#304e97" />
        </linearGradient>
        <linearGradient id="c" x1="161.37" y1="380.61" x2="386.57" y2="380.61" xlink:href="#b" />
        <linearGradient id="d" x1="127.39" y1="411.13" x2="256.85" y2="358.29"
            gradientTransform="translate(0 417.11) scale(1 -1)" gradientUnits="userSpaceOnUse">
            <stop offset="0" stop-color="#264287" />
            <stop offset="1" stop-color="#304e97" />
        </linearGradient>
        <linearGradient id="e" x1="60.28" y1="109.7" x2="404.11" y2="125.64" xlink:href="#b" />
        <linearGradient id="f" x1="127.39" y1="150.13" x2="256.85" y2="97.29" xlink:href="#b" />
        <linearGradient id="g" x1="166.17" y1="120.01" x2="237.87" y2="120.01"
            gradientTransform="translate(0 417.11) scale(1 -1)" gradientUnits="userSpaceOnUse">
            <stop offset="0" stop-color="#5d5b5c" stop-opacity="0" />
            <stop offset=".49" stop-color="#fafafd" />
            <stop offset="1" stop-color="#010101" stop-opacity="0" />
        </linearGradient>
        <linearGradient id="h" x1="201.02" y1="88.81" x2="203.13" y2="152" xlink:href="#g" />
        <linearGradient id="i" x1="127.39" y1="281.13" x2="256.85" y2="228.29" xlink:href="#b" />
        <linearGradient id="j" x1="0" y1="171" x2="162.07" y2="171" gradientUnits="userSpaceOnUse">
            <stop offset="0" stop-color="#231f20" stop-opacity="0" />
            <stop offset=".02" stop-color="#2e2b2c" stop-opacity=".06" />
            <stop offset=".07" stop-color="#524f50" stop-opacity=".26" />
            <stop offset=".12" stop-color="#737172" stop-opacity=".44" />
            <stop offset=".18" stop-color="#908e8e" stop-opacity=".59" />
            <stop offset=".25" stop-color="#a7a6a6" stop-opacity=".72" />
            <stop offset=".33" stop-color="#bbbaba" stop-opacity=".82" />
            <stop offset=".41" stop-color="#c9c9c9" stop-opacity=".9" />
            <stop offset=".52" stop-color="#d4d4d4" stop-opacity=".96" />
            <stop offset=".66" stop-color="#dadada" stop-opacity=".99" />
            <stop offset="1" stop-color="#dcdcdc" />
        </linearGradient>
    </defs>
    <path class="u"
        d="m197.67,130h152.6c20,0,36.3,16.2,36.3,36.3v.4c0,20-16.2,36.3-36.3,36.3h-152.6c-20,0-36.3-16.2-36.3-36.3v-.4c0-20,16.3-36.3,36.3-36.3Z" />
    <path class="z"
        d="m267.97,170.5v-10.8h1.2v10.8h-1.2Zm.8,0v-1h3.4c.7,0,1.2-.2,1.6-.5.4-.4.6-.8.6-1.5s-.2-1.2-.6-1.6c-.4-.4-1-.6-1.7-.6h-3.3v-1h3.2c.7,0,1.2-.2,1.6-.5s.6-.8.6-1.4-.2-1-.5-1.3c-.4-.3-.9-.5-1.6-.5h-3.3v-1h3.4c1,0,1.8.2,2.3.7s.9,1.1.9,1.9c0,.5-.1,1-.3,1.4-.2.4-.5.7-.9.9s-.9.3-1.4.3l.1-.3c.5,0,1,.1,1.5.4s.8.6,1,1.1.4,1,.4,1.5-.1,1.1-.4,1.5-.7.8-1.2,1-1.1.4-1.7.4l-3.7.1h0Zm8.7,0v-10.8h1.2v10.8h-1.2Zm5.8-6.6v-1h5.1v1h-5.1Zm4,6.8c-.8,0-1.5-.2-1.9-.6s-.6-.9-.6-1.7v-7.3l1.2-.5v7.8c0,.4.1.7.3.9s.6.3,1.1.3h.5c.1,0,.3-.1.4-.1v1c-.1,0-.2.1-.4.1-.2.1-.4.1-.6.1Zm5.6,0c-.8,0-1.4-.2-2-.5s-1-.8-1.3-1.4c-.3-.6-.5-1.3-.5-2,0-.8.2-1.4.5-2s.8-1.1,1.3-1.4c.6-.3,1.2-.5,2-.5s1.4.2,2,.5,1,.8,1.3,1.4c.3.6.5,1.3.5,2,0,.8-.2,1.4-.5,2s-.8,1.1-1.3,1.4c-.6.3-1.3.5-2,.5Zm0-1c.5,0,1-.1,1.3-.4.4-.3.7-.6.9-1.1.2-.5.3-1,.3-1.6,0-.9-.2-1.6-.7-2.1s-1.1-.8-1.9-.8-1.4.3-1.8.8c-.5.5-.7,1.2-.7,2.1,0,.6.1,1.1.3,1.6.2.4.5.8.9,1.1.4.2.9.4,1.4.4Zm8.7,1c-.8,0-1.4-.2-2-.5s-1-.8-1.3-1.4c-.3-.6-.5-1.3-.5-2,0-.8.2-1.4.5-2s.8-1.1,1.3-1.4c.6-.3,1.2-.5,2-.5s1.4.2,2,.5,1,.8,1.3,1.4c.3.6.5,1.3.5,2,0,.8-.2,1.4-.5,2s-.8,1.1-1.3,1.4c-.5.3-1.2.5-2,.5Zm0-1c.5,0,1-.1,1.3-.4.4-.3.7-.6.9-1.1.2-.5.3-1,.3-1.6,0-.9-.2-1.6-.7-2.1s-1.1-.8-1.9-.8-1.4.3-1.8.8c-.5.5-.7,1.2-.7,2.1,0,.6.1,1.1.3,1.6.2.4.5.8.9,1.1.5.2.9.4,1.4.4Zm5.6.8v-10.8h1.2v10.8h-1.2Zm6.2.2c-.9,0-1.7-.2-2.2-.7-.6-.4-.9-1.1-1-1.9h1.2c.1.5.3.9.6,1.1.4.3.8.4,1.4.4.5,0,.9-.1,1.2-.3s.5-.5.5-.9c0-.3-.1-.5-.3-.7-.2-.2-.5-.4-1-.5l-1.2-.3c-.7-.2-1.2-.5-1.6-.8-.4-.4-.5-.8-.5-1.3,0-.7.2-1.2.7-1.6.5-.4,1.2-.6,2-.6s1.5.2,2,.6c.5.4.8,1,.9,1.7h-1.2c-.1-.4-.3-.7-.6-.9-.3-.2-.7-.3-1.2-.3s-.9.1-1.1.3c-.3.2-.4.4-.4.8,0,.3.1.5.3.7.2.2.5.4,1,.5l1.2.3c.7.2,1.2.5,1.6.9s.5.9.5,1.4c0,.7-.3,1.2-.8,1.6s-1.1.5-2,.5Z" />
    <path class="s"
        d="m197.67,0h152.6c20,0,36.3,16.2,36.3,36.3v.4c0,20-16.2,36.3-36.3,36.3h-152.6c-20,0-36.3-16.2-36.3-36.3v-.4c0-20,16.3-36.3,36.3-36.3Z" />
    <path class="m"
        d="m198.27.1h7.3c20,0,36.3,16.2,36.3,36.3h0c0,20-16.2,36.3-36.3,36.3h-7.3c-20,0-36.3-16.2-36.3-36.3h0C162.07,16.3,178.27.1,198.27.1Z" />
    <path class="p"
        d="m219.97,23.3v28.9c0,2.2-1.8,4-4,4h-32.6c-2.2,0-4-1.8-4-4v-20.5l10.1,2.9,10.2-2.6,10.2,8.9,10.1-17.6h0Z" />
    <g class="n">
        <path class="p"
            d="m191.27,18.8h-1.6c-.7,0-1.2-.5-1.2-1.2,0-.6.5-1.1,1.2-1.1h1.6c.7,0,1.2.5,1.2,1.2,0,.6-.5,1.1-1.2,1.1Z" />
    </g>
    <g class="n">
        <path class="q"
            d="m185.77,18.8h-1.6c-.7,0-1.2-.5-1.2-1.2,0-.6.5-1.1,1.2-1.1h1.6c.7,0,1.2.5,1.2,1.2,0,.6-.6,1.1-1.2,1.1Z" />
    </g>
    <g class="n">
        <path class="p"
            d="m196.87,18.8h-1.6c-.7,0-1.2-.5-1.2-1.2,0-.6.5-1.1,1.2-1.1h1.6c.7,0,1.2.5,1.2,1.2,0,.6-.5,1.1-1.2,1.1Z" />
    </g>
    <path class="z"
        d="m254.67,30.1v-10.8h1.2v10.8h-1.2Zm.6-9.7v-1.1h6.5v1.1h-6.5Zm0,4.6v-1.1h6.1v1.1h-6.1Zm0,5.1v-1.1h6.6v1.1h-6.6Zm8.8,0v-7.7h1.1v1.8h.1v5.8h-1.2v.1Zm5.2,0v-5.1c0-.6-.1-1-.4-1.3s-.6-.4-1.1-.4-.9.1-1.2.3c-.4.2-.7.5-.9.9s-.3.8-.3,1.4l-.2-1.8c.3-.6.7-1,1.2-1.3s1.1-.5,1.7-.5c.7,0,1.3.2,1.8.7s.7,1,.7,1.8v5.4h-1.3v-.1h0Zm5.2,0v-5.1c0-.6-.1-1-.4-1.3s-.6-.4-1.1-.4-.9.1-1.2.3c-.4.2-.7.5-.9.9s-.3.8-.3,1.4l-.3-1.8c.3-.6.7-1,1.2-1.3s1.1-.5,1.7-.5c.7,0,1.3.2,1.8.7.5.4.7,1,.7,1.8v5.4h-1.2v-.1h0Zm7.3.1c-.7,0-1.3-.2-1.8-.5-.5-.4-.8-.8-1-1.5h.2v1.9h-1.1v-10.8h1.2v4.9h-.2c.2-.6.5-1.1,1-1.4s1.1-.5,1.8-.5,1.3.2,1.8.5.9.8,1.2,1.4.4,1.3.4,2.1-.1,1.5-.4,2.1-.7,1.1-1.2,1.4c-.6.3-1.3.4-1.9.4Zm-.2-1c.8,0,1.4-.3,1.8-.8s.6-1.2.6-2.2c0-.9-.2-1.6-.6-2.1s-1-.8-1.8-.8-1.4.3-1.8.8-.7,1.2-.7,2.2c0,.9.2,1.6.7,2.1.4.5,1,.8,1.8.8Zm8.6,1.1c-.7,0-1.4-.2-1.9-.5-.6-.3-1-.8-1.3-1.4s-.5-1.3-.5-2.1.2-1.5.5-2.1.8-1.1,1.3-1.4,1.2-.5,2-.5c.7,0,1.3.2,1.9.5.5.3.9.7,1.2,1.3.3.6.4,1.2.4,2v.6h-6.3v-1h5.6l-.4.6c0-.9-.2-1.6-.6-2.1s-1-.7-1.7-.7c-.8,0-1.4.3-1.8.8-.5.5-.7,1.2-.7,2.1s.2,1.6.7,2.2,1.1.8,1.9.8c.5,0,.9-.1,1.3-.3.4-.2.6-.5.8-.9h1.1c-.2.7-.7,1.3-1.3,1.7-.7.1-1.4.4-2.2.4Zm10.9-.2v-1.8h.2c-.2.6-.5,1-1,1.4-.5.3-1.1.5-1.8.5s-1.3-.2-1.8-.5-.9-.8-1.2-1.4-.4-1.3-.4-2.1.1-1.5.4-2.1.7-1.1,1.2-1.4,1.1-.5,1.8-.5,1.3.2,1.8.5.8.8,1,1.5h-.2v-5.1h1.2v10.8h-1.2v.2Zm-2.5-.9c.8,0,1.4-.3,1.8-.8s.7-1.2.7-2.2c0-.9-.2-1.6-.7-2.1-.4-.5-1-.8-1.8-.8s-1.4.3-1.8.8-.6,1.2-.6,2.2c0,.9.2,1.6.6,2.1.5.5,1.1.8,1.8.8Zm11.6.9v-1.8h.2c-.2.6-.5,1-1,1.4-.5.3-1.1.5-1.8.5s-1.3-.2-1.8-.5-.9-.8-1.2-1.4c-.3-.6-.4-1.3-.4-2.1s.1-1.5.4-2.1.7-1.1,1.2-1.4,1.1-.5,1.8-.5,1.3.2,1.8.5.8.8,1,1.5h-.2v-5.1h1.2v10.8h-1.2v.2Zm-2.5-.9c.8,0,1.4-.3,1.8-.8s.7-1.2.7-2.2c0-.9-.2-1.6-.7-2.1-.4-.5-1-.8-1.8-.8s-1.4.3-1.8.8-.6,1.2-.6,2.2c0,.9.2,1.6.6,2.1s1,.8,1.8.8Zm9.1,1.1c-.7,0-1.4-.2-1.9-.5-.6-.3-1-.8-1.3-1.4s-.5-1.3-.5-2.1.2-1.5.5-2.1.8-1.1,1.3-1.4,1.2-.5,2-.5c.7,0,1.3.2,1.9.5.5.3.9.7,1.2,1.3.3.6.4,1.2.4,2v.6h-6.3v-1h5.6l-.4.6c0-.9-.2-1.6-.6-2.1s-1-.7-1.7-.7c-.8,0-1.4.3-1.8.8-.5.5-.7,1.2-.7,2.1s.2,1.6.7,2.2c.5.5,1.1.8,1.9.8.5,0,.9-.1,1.3-.3.4-.2.6-.5.8-.9h1.1c-.2.7-.7,1.3-1.3,1.7-.7.1-1.4.4-2.2.4Zm10.9-.2v-1.8h.1c-.2.6-.5,1-1,1.4-.5.3-1.1.5-1.8.5s-1.3-.2-1.8-.5-.9-.8-1.2-1.4-.4-1.3-.4-2.1.1-1.5.4-2.1.7-1.1,1.2-1.4,1.1-.5,1.8-.5,1.3.2,1.8.5.8.8,1,1.5h-.2v-5.1h1.2v10.8h-1.1v.2Zm-2.5-.9c.8,0,1.4-.3,1.8-.8s.7-1.2.7-2.2c0-.9-.2-1.6-.7-2.1-.4-.5-1-.8-1.8-.8s-1.4.3-1.8.8-.6,1.2-.6,2.2c0,.9.2,1.6.6,2.1.5.5,1.1.8,1.8.8Zm-60.7,22.1c-.8,0-1.4-.2-1.9-.6s-.7-.9-.7-1.6.2-1.2.7-1.6,1.1-.6,2-.8l2.7-.5v1l-2.5.4c-.6.1-1,.2-1.3.5s-.4.5-.4.9.1.7.4.9c.3.2.7.3,1.2.3.7,0,1.2-.2,1.6-.5s.6-.7.6-1.2l.2,1.1c-.2.5-.5.9-.9,1.2-.5.3-1,.5-1.7.5Zm2.6-.2c0-.2-.1-.4-.1-.6v-.8h-.1v-3.7c0-.6-.1-1-.4-1.3s-.7-.4-1.3-.4-1,.1-1.4.4c-.3.2-.5.6-.6,1h-1.2c0-.7.4-1.3.9-1.7.6-.4,1.3-.6,2.2-.6,1,0,1.7.2,2.1.7s.7,1.1.7,2v4.4c0,.2.1.5.1.7h-.9v-.1h0Zm3.3,0v-7.7h1.1v1.8h.1v5.8h-1.2v.1Zm5.5,0v-5c0-.6-.1-1-.4-1.3s-.7-.4-1.3-.4c-.5,0-.9.1-1.3.3-.4.2-.7.5-.9.9s-.3.8-.3,1.4l-.2-1.8c.3-.6.7-1,1.2-1.3s1.1-.5,1.8-.5c.8,0,1.4.2,1.9.7s.7,1.1.7,1.8v5.3h-1.2v-.1h0Zm5.5.2c-.8,0-1.4-.2-1.9-.6s-.7-.9-.7-1.6.2-1.2.7-1.6,1.1-.6,2-.8l2.7-.5v1l-2.5.4c-.6.1-1,.2-1.3.5s-.4.5-.4.9.1.7.4.9c.3.2.7.3,1.2.3.7,0,1.2-.2,1.6-.5s.6-.7.6-1.2l.2,1.1c-.2.5-.5.9-.9,1.2-.4.3-1,.5-1.7.5Zm2.7-.2c0-.2-.1-.4-.1-.6v-.8h-.1v-3.7c0-.6-.1-1-.4-1.3s-.7-.4-1.3-.4-1,.1-1.4.4c-.3.2-.5.6-.6,1h-1.2c0-.7.4-1.3.9-1.7s1.3-.6,2.2-.6,1.7.2,2.1.7.7,1.1.7,2v4.4c0,.2.1.5.1.7h-.9v-.1h0Zm3.3,0v-10.8h1.2v10.8h-1.2Zm6.1.1l-3.4-7.7h1.3l3,6.9-.9.8Zm-1.9,3l1.7-4,.3-.4,2.5-6.3h1.2l-4.4,10.7h-1.3Zm6.5-9.7v-1h5.1v1h-5.1Zm4,6.7c-.8,0-1.5-.2-1.9-.6s-.6-.9-.6-1.7v-7.3l1.2-.5v7.8c0,.4.1.7.3.9s.6.3,1.1.3h.5c.1,0,.3-.1.4-.1v1c-.1,0-.2.1-.4.1-.1.1-.3.1-.6.1Zm2.5-9.5v-1.4h1.4v1.4h-1.4Zm.1,9.4v-7.7h1.2v7.7h-1.2Zm6.6.2c-.7,0-1.3-.2-1.9-.5-.5-.3-1-.8-1.3-1.4s-.5-1.3-.5-2.1.2-1.4.5-2,.7-1.1,1.3-1.4,1.2-.5,1.9-.5c.6,0,1.1.1,1.5.3s.8.5,1.1.9c.3.4.5.9.6,1.4h-1.1c-.1-.5-.3-.9-.7-1.2-.4-.3-.8-.5-1.4-.5-.5,0-.9.1-1.3.4s-.6.6-.8,1c-.2.4-.3,1-.3,1.5,0,.6.1,1.1.3,1.6s.5.8.8,1c.4.2.8.4,1.3.4s1-.2,1.4-.5.6-.7.7-1.2h1.1c-.1.5-.3,1-.6,1.4-.3.4-.7.7-1.1.9s-.9.5-1.5.5Zm7.6,0c-.9,0-1.7-.2-2.2-.7-.6-.4-.9-1.1-1-1.9h1.2c.1.5.3.9.6,1.1.4.3.8.4,1.4.4.5,0,.9-.1,1.2-.3s.5-.5.5-.9c0-.3-.1-.5-.3-.7-.2-.2-.5-.4-1-.5l-1.2-.3c-.7-.2-1.2-.5-1.6-.8-.4-.4-.5-.8-.5-1.3,0-.7.2-1.2.7-1.6s1.2-.6,2-.6,1.5.2,2,.6.8,1,.9,1.7h-1.2c-.1-.4-.3-.7-.6-.9-.3-.2-.7-.3-1.2-.3s-.9.1-1.1.3c-.3.2-.4.4-.4.8,0,.3.1.5.3.7.2.2.5.4,1,.5l1.2.3c.7.2,1.2.5,1.6.9s.5.9.5,1.4c0,.7-.3,1.2-.8,1.6s-1.1.5-2,.5Z" />
    <path class="t"
        d="m197.67,261h152.6c20,0,36.3,16.2,36.3,36.3v.4c0,20-16.2,36.3-36.3,36.3h-152.6c-20,0-36.3-16.2-36.3-36.3v-.4c0-20,16.3-36.3,36.3-36.3Z" />
    <path class="l"
        d="m198.27,261.1h7.3c20,0,36.3,16.2,36.3,36.3h0c0,20-16.2,36.3-36.3,36.3h-7.3c-20,0-36.3-16.2-36.3-36.3h0c.1-20.1,16.3-36.3,36.3-36.3Z" />
    <path class="z"
        d="m258.47,291.1l4.2-10.8h1.1l-4.1,10.8h-1.2Zm2.1-4.4h5.6v1.1h-5.6v-1.1Zm6.5,4.4l-4.1-10.8h1.2l4.2,10.8h-1.3Zm3.1,0v-10.8h1.2v10.8h-1.2Zm6.1,0l4.2-10.8h1.1l-4.1,10.8h-1.2Zm2-4.4h5.6v1.1h-5.6v-1.1Zm6.5,4.4l-4.1-10.8h1.2l4.2,10.8h-1.3Zm5.8,3.2c-.9,0-1.7-.2-2.3-.6-.6-.4-1-1-1.1-1.7h1.1c.1.4.4.7.7,1,.4.2.9.4,1.6.4.8,0,1.4-.2,1.8-.6.4-.4.6-1,.6-1.9v-1.7h.1c-.2.6-.5,1-1,1.4s-1.1.5-1.8.5-1.3-.2-1.8-.5-.9-.8-1.2-1.4c-.3-.6-.4-1.3-.4-2,0-.8.1-1.5.4-2.1s.7-1,1.2-1.4c.5-.3,1.1-.5,1.8-.5s1.3.2,1.8.5.8.8,1,1.5h-.1v-1.9h1.1v7.4c0,1.1-.3,2-1,2.6s-1.3,1-2.5,1Zm.1-4.2c.8,0,1.3-.3,1.8-.8.4-.5.7-1.2.7-2.1s-.2-1.6-.7-2.1c-.4-.5-1-.8-1.8-.8s-1.4.3-1.8.8-.7,1.2-.7,2.1.2,1.6.7,2.1c.5.5,1.1.8,1.8.8Zm9.1,1.2c-.7,0-1.4-.2-1.9-.5-.6-.3-1-.8-1.3-1.4-.3-.6-.5-1.3-.5-2.1s.2-1.5.5-2.1.8-1.1,1.3-1.4,1.2-.5,2-.5c.7,0,1.3.2,1.9.5s.9.7,1.2,1.3c.3.6.4,1.2.4,2v.6h-6.3v-1h5.6l-.4.6c0-.9-.2-1.6-.6-2.1s-1-.7-1.7-.7c-.8,0-1.4.3-1.8.8-.5.5-.7,1.2-.7,2.1s.2,1.6.7,2.2c.5.5,1.1.8,1.9.8.5,0,.9-.1,1.3-.3s.6-.5.8-.9h1.1c-.2.7-.7,1.3-1.3,1.7-.7.1-1.4.4-2.2.4Zm5.3-.2v-7.7h1.1v1.8h.1v5.8h-1.2v.1Zm5.5,0v-5c0-.6-.1-1-.4-1.3s-.7-.4-1.3-.4c-.5,0-.9.1-1.3.3s-.7.5-.9.9-.3.8-.3,1.4l-.2-1.8c.3-.6.7-1,1.2-1.3s1.1-.5,1.8-.5c.8,0,1.4.2,1.9.7s.7,1.1.7,1.8v5.3h-1.2v-.1h0Zm2.4-6.6v-1h5.1v1h-5.1Zm4,6.7c-.8,0-1.5-.2-1.9-.6s-.6-.9-.6-1.7v-7.3l1.2-.5v7.8c0,.4.1.7.3.9.2.2.6.3,1.1.3h.5c.1,0,.3-.1.4-.1v1c-.1,0-.2.1-.4.1-.2.1-.4.1-.6.1Zm5.1.1c-.9,0-1.7-.2-2.2-.7-.6-.4-.9-1.1-1-1.9h1.2c.1.5.3.9.6,1.1.4.3.8.4,1.4.4.5,0,.9-.1,1.2-.3.3-.2.4-.5.4-.9,0-.3-.1-.5-.3-.7-.2-.2-.5-.4-1-.5l-1.2-.3c-.7-.2-1.2-.5-1.6-.8-.3-.4-.5-.8-.5-1.3,0-.7.2-1.2.7-1.6.5-.4,1.2-.6,2-.6s1.5.2,2,.6c.5.4.8,1,.9,1.7h-1.2c-.1-.4-.3-.7-.6-.9-.3-.2-.7-.3-1.2-.3s-.9.1-1.1.3c-.3.2-.4.4-.4.8,0,.3.1.5.3.7.2.2.5.4,1,.5l1.2.3c.7.2,1.2.5,1.6.9s.5.9.5,1.4c0,.7-.3,1.2-.8,1.6s-1,.5-1.9.5Zm-64.9,21c-.8,0-1.5-.1-2.1-.4-.6-.3-1-.7-1.4-1.1-.3-.5-.5-1.1-.5-1.7,0-.8.3-1.5.8-2.1.6-.6,1.3-1,2.3-1.2l.7.8c-.6.1-1,.3-1.4.5s-.7.5-.9.8c-.2.3-.3.7-.3,1.1,0,.7.2,1.3.7,1.7s1.2.6,2,.6c.6,0,1.2-.1,1.7-.3s.9-.5,1.2-1,.6-.9.8-1.6c.2-.6.3-1.3.3-2.1h1.2c0,.7-.1,1.4-.2,2-.2.6-.4,1.2-.7,1.7-.3.5-.7.9-1.1,1.2s-.9.6-1.4.8-1.1.3-1.7.3Zm4.7-.2l-5.8-6c-.3-.3-.6-.7-.8-1s-.4-.6-.5-.8c-.1-.3-.2-.5-.2-.8,0-.5.1-.9.4-1.2.2-.4.6-.6,1-.8s.9-.3,1.4-.3,1,.1,1.4.3.8.5,1,.8.4.8.4,1.3c0,.6-.2,1.1-.7,1.6s-1.2.9-2.2,1.2l-.6-.8c.8-.2,1.4-.5,1.7-.8.4-.3.6-.7.6-1.2,0-.4-.2-.8-.5-1s-.7-.4-1.2-.4c-.4,0-.8.1-1.1.4s-.4.6-.4,1c0,.2,0,.4.1.6.1.2.2.4.4.7.2.3.5.6.9,1l6.1,6.3-1.4-.1h0Zm10.9.2c-.7,0-1.4-.1-2-.4-.6-.3-1.2-.7-1.6-1.2-.5-.5-.8-1.1-1.1-1.8-.2-.7-.4-1.4-.4-2.2s.1-1.6.4-2.2c.2-.7.6-1.3,1.1-1.8s1-.9,1.6-1.2,1.3-.4,2-.4c.8,0,1.5.2,2.2.5s1.2.8,1.6,1.4c.4.6.7,1.3.8,2.1h-1.2c-.1-.9-.5-1.6-1.1-2.1s-1.3-.8-2.2-.8c-.8,0-1.4.2-2,.6s-1,.9-1.3,1.6c-.3.7-.5,1.4-.5,2.3s.2,1.7.5,2.3c.3.7.8,1.2,1.3,1.6s1.2.6,2,.6c.9,0,1.7-.3,2.3-.8.6-.5.9-1.2,1.1-2.1h1.2c-.1.8-.4,1.5-.8,2.1s-.9,1.1-1.6,1.4c-.8.3-1.5.5-2.3.5Zm6.4-.2v-10.8h1.2v10.8h-1.2Zm5.5,0v-5c0-.6-.1-1-.4-1.3s-.7-.4-1.3-.4c-.5,0-.9.1-1.3.3s-.7.5-.9.9c-.2.4-.3.8-.3,1.4l-.2-1.8c.3-.6.7-1,1.2-1.3s1.1-.5,1.8-.5c.8,0,1.4.2,1.9.7s.7,1.1.7,1.8v5.3h-1.2v-.1h0Zm5.5.2c-.8,0-1.4-.2-1.9-.6-.5-.4-.7-.9-.7-1.6s.2-1.2.7-1.6c.5-.4,1.1-.6,2-.8l2.7-.5v1l-2.5.4c-.6.1-1,.2-1.3.5s-.4.5-.4.9.1.7.4.9.7.3,1.2.3c.7,0,1.2-.2,1.6-.5s.6-.7.6-1.2l.2,1.1c-.2.5-.5.9-.9,1.2-.5.3-1,.5-1.7.5Zm2.6-.2c0-.2-.1-.4-.1-.6v-.8h-.1v-3.7c0-.6-.1-1-.4-1.3s-.7-.4-1.3-.4-1,.1-1.4.4c-.3.2-.5.6-.6,1h-1.2c0-.7.4-1.3.9-1.7.6-.4,1.3-.6,2.2-.6,1,0,1.7.2,2.1.7s.7,1.1.7,2v4.4c0,.2.1.5.1.7h-.9v-.1h0Zm2.2-6.6v-1h5.1v1h-5.1Zm4,6.7c-.8,0-1.5-.2-1.9-.6s-.6-.9-.6-1.7v-7.3l1.2-.5v7.8c0,.4.1.7.3.9.2.2.6.3,1.1.3h.5c.1,0,.3-.1.4-.1v1c-.1,0-.2.1-.4.1-.2.1-.4.1-.6.1Zm6.4,0c-.7,0-1.3-.2-1.8-.5-.5-.4-.8-.8-1-1.5h.2v1.9h-1.1v-10.8h1.2v4.9h-.2c.2-.6.5-1.1,1-1.4.5-.3,1.1-.5,1.8-.5s1.3.2,1.8.5.9.8,1.2,1.4.4,1.3.4,2.1-.1,1.5-.4,2.1-.7,1.1-1.2,1.4c-.6.3-1.2.4-1.9.4Zm-.2-1c.8,0,1.4-.3,1.8-.8s.6-1.2.6-2.2c0-.9-.2-1.6-.6-2.1s-1-.8-1.8-.8-1.4.3-1.8.8-.7,1.2-.7,2.2c0,.9.2,1.6.7,2.1.4.5,1,.8,1.8.8Zm8.7,1.1c-.8,0-1.4-.2-2-.5s-1-.8-1.3-1.4c-.3-.6-.5-1.3-.5-2,0-.8.2-1.4.5-2s.8-1.1,1.3-1.4c.6-.3,1.2-.5,2-.5s1.4.2,2,.5,1,.8,1.3,1.4c.3.6.5,1.3.5,2,0,.8-.2,1.4-.5,2s-.8,1.1-1.3,1.4c-.6.3-1.3.5-2,.5Zm0-1.1c.5,0,1-.1,1.3-.4.4-.3.7-.6.9-1.1.2-.5.3-1,.3-1.6,0-.9-.2-1.6-.7-2.1s-1.1-.8-1.9-.8-1.4.3-1.8.8c-.5.5-.7,1.2-.7,2.1,0,.6.1,1.1.3,1.6.2.4.5.8.9,1.1.4.3.8.4,1.4.4Zm4.5-5.7v-1h5.1v1h-5.1Zm4,6.7c-.8,0-1.5-.2-1.9-.6-.4-.4-.6-.9-.6-1.7v-7.3l1.2-.5v7.8c0,.4.1.7.3.9s.6.3,1.1.3h.5c.1,0,.3-.1.4-.1v1c-.1,0-.2.1-.4.1-.2.1-.4.1-.6.1Zm5.2.1c-.9,0-1.7-.2-2.2-.7-.6-.4-.9-1.1-1-1.9h1.2c.1.5.3.9.6,1.1.4.3.8.4,1.4.4.5,0,.9-.1,1.2-.3s.5-.5.5-.9c0-.3-.1-.5-.3-.7-.2-.2-.5-.4-1-.5l-1.2-.3c-.7-.2-1.2-.5-1.6-.8-.4-.4-.5-.8-.5-1.3,0-.7.2-1.2.7-1.6.5-.4,1.2-.6,2-.6s1.5.2,2,.6c.5.4.8,1,.9,1.7h-1.2c-.1-.4-.3-.7-.6-.9-.3-.2-.7-.3-1.2-.3s-.9.1-1.1.3c-.3.2-.4.4-.4.8,0,.3.1.5.3.7.2.2.5.4,1,.5l1.2.3c.7.2,1.2.5,1.6.9s.5.9.5,1.4c0,.7-.3,1.2-.8,1.6s-1.1.5-2,.5Z" />
    <circle class="x" cx="204.97" cy="277" r="1.4" />
    <circle class="x" cx="218.27" cy="281.8" r="1.4" />
    <circle class="x" cx="224.07" cy="277" r="1.4" />
    <circle class="x" cx="220.27" cy="286.5" r="1.4" />
    <circle class="x" cx="224.07" cy="290.4" r="1.4" />
    <circle class="x" cx="210.67" cy="288.5" r="1.4" />
    <circle class="x" cx="214.47" cy="292.3" r="1.4" />
    <circle class="x" cx="218.27" cy="296.1" r="1.4" />
    <circle class="x" cx="220.27" cy="300.9" r="1.4" />
    <circle class="x" cx="218.27" cy="307.6" r="1.4" />
    <circle class="x" cx="213.57" cy="299" r="1.4" />
    <circle class="x" cx="207.77" cy="296.1" r="1.4" />
    <circle class="x" cx="201.07" cy="300.9" r="1.4" />
    <circle class="x" cx="197.27" cy="296.1" r="1.4" />
    <circle class="x" cx="175.27" cy="281.8" r="1.4" />
    <circle class="x" cx="190.57" cy="306.6" r="1.4" />
    <circle class="x" cx="196.27" cy="302.8" r="1.4" />
    <circle class="x" cx="196.27" cy="308.5" r="1.4" />
    <circle class="x" cx="203.97" cy="310.5" r="1.4" />
    <circle class="x" cx="207.77" cy="303.8" r="1.4" />
    <circle class="x" cx="213.57" cy="307.6" r="1.4" />
    <circle class="x" cx="208.77" cy="315.2" r="1.4" />
    <circle class="x" cx="218.27" cy="323.9" r="1.4" />
    <circle class="x" cx="198.27" cy="315.2" r="1.4" />
    <circle class="x" cx="196.27" cy="321.9" r="1.4" />
    <circle class="x" cx="192.47" cy="315.2" r="1.4" />
    <circle class="x" cx="188.67" cy="320" r="1.4" />
    <circle class="x" cx="184.87" cy="317.2" r="1.4" />
    <circle class="x" cx="177.17" cy="321" r="1.4" />
    <circle class="x" cx="183.87" cy="323.9" r="1.4" />
    <rect class="v" x="166.17" y="296.6" width="71.7" height="1" />
    <rect class="w" x="201.57" y="261.2" width="1" height="71.7" />
    <path class="k"
        d="m198.27,130.1h7.3c20,0,36.3,16.2,36.3,36.3h0c0,20-16.2,36.3-36.3,36.3h-7.3c-20,0-36.3-16.2-36.3-36.3h0c.1-20.1,16.3-36.3,36.3-36.3Z" />
    <path class="r"
        d="m202.77,183.3c-9.1,0-16.5-7.4-16.5-16.5s7.4-16.5,16.5-16.5,16.5,7.4,16.5,16.5-7.5,16.5-16.5,16.5Zm0-26.8c-5.7,0-10.4,4.7-10.4,10.4s4.7,10.4,10.4,10.4,10.4-4.7,10.4-10.4-4.7-10.4-10.4-10.4Z" />
    <path class="y"
        d="m214.67,178.2l-4.4-4.2c1.8-1.9,2.8-4.5,2.8-7.1,0-5.7-4.7-10.4-10.4-10.4v-6.1c9.1,0,16.5,7.4,16.5,16.5,0,4.2-1.6,8.2-4.5,11.3h0Z" />
    <path class="o"
        d="m1,171h160.07M1,143.9h78.96c9.37,0,17.67-7.4,20.65-18.3l19.66-71.5c2.99-11,11.28-18.3,20.65-18.3h20.15M1,198h78.96c9.37,0,17.67,7.4,20.65,18.4l19.49,71.4c2.99,11,11.28,18.4,20.65,18.4h20.32" />
</svg>