<?xml version="1.0" encoding="UTF-8"?>
<svg id="a" xmlns="http://www.w3.org/2000/svg"
    xmlns:xlink="http://www.w3.org/1999/xlink" viewBox="0 0 269.66 183.14">
    <defs>
        <style>
            .m {
                fill: url(#g);
            }

            .n,
            .o,
            .p,
            .q {
                fill: #fff;
            }

            .n,
            .o,
            .q,
            .r {
                stroke: #3b2e55;
                stroke-linejoin: round;
            }

            .n,
            .o,
            .r {
                stroke-width: 1.17px;
            }

            .n,
            .q,
            .r {
                stroke-linecap: round;
            }

            .s {
                fill: #010101;
            }

            .t,
            .u {
                fill: #fdfeff;
            }

            .v,
            .w {
                fill: #336890;
            }

            .x {
                fill: #c3bfbf;
            }

            .y {
                fill: #3fb870;
            }

            .z {
                fill: #6dac46;
            }

            .aa {
                fill: #54a2d9;
            }

            .ab {
                fill: #557bbe;
            }

            .ac {
                fill: #3b2e55;
            }

            .ad {
                fill: #599642;
            }

            .ae,
            .r {
                fill: #60c9df;
            }

            .af {
                fill: #4c76ba;
            }

            .u {
                opacity: .22;
            }

            .u,
            .ag,
            .ah,
            .ai,
            .aj,
            .ak,
            .al,
            .w {
                isolation: isolate;
            }

            .am {
                fill: none;
                stroke: url(#i);
                stroke-dasharray: 0 0 4 5.6;
                stroke-miterlimit: 10;
                stroke-width: 1px;
            }

            .ag {
                fill: url(#f);
            }

            .ag,
            .ah {
                opacity: .75;
            }

            .ah {
                fill: url(#e);
            }

            .ai {
                fill: url(#b);
            }

            .ai,
            .aj,
            .ak,
            .al {
                opacity: .54;
            }

            .aj {
                fill: url(#h);
            }

            .ak {
                fill: url(#d);
            }

            .al {
                fill: url(#c);
            }

            .q {
                stroke-width: .98px;
            }

            .w {
                opacity: .65;
            }

            .an {
                fill: #0b9cbf;
                fill-rule: evenodd;
            }

               @keyframes moveDottedLine {
                0% {
                    stroke-dashoffset: 0;
                }

                100% {
                    stroke-dashoffset: -250;
                }
            }

            .am {
                animation: moveDottedLine 7s linear infinite;
                opacity: 0.8;
                background: linear-gradient(to right,
                        rgba(0, 0, 0, 1) 0%,
                        rgba(0, 0, 0, 1) 75%,
                        rgba(0, 0, 0, 0) 100%) !important;
            }
        </style>
        <linearGradient id="b" x1="-1.74" y1=".92" x2="-69.78" y2="-2.17"
            gradientTransform="translate(252.44 160.25) rotate(90.2)" gradientUnits="userSpaceOnUse">
            <stop offset="0" stop-color="#203668" />
            <stop offset="1" stop-color="#0a1a3d" stop-opacity="0" />
        </linearGradient>
        <linearGradient id="c" x1="-113.06" y1="22.64" x2="-177.81" y2="19.69" xlink:href="#b" />
        <linearGradient id="d" x1="-113.06" y1="203.73" x2="-177.81" y2="200.79" xlink:href="#b" />
        <linearGradient id="e" x1="-113.06" y1="157.56" x2="-177.81" y2="154.61" xlink:href="#b" />
        <linearGradient id="f" x1="-113.06" y1="71.95" x2="-177.81" y2="69.01" xlink:href="#b" />
        <linearGradient id="g" x1="-113.06" y1="112.53" x2="-177.81" y2="109.59" xlink:href="#b" />
        <linearGradient id="h" x1="7.87" y1="236.73" x2="-56.88" y2="233.79" xlink:href="#b" />
        <linearGradient id="i" x1="-100.15" y1="-123.84" x2="23.27" y2="-123.84"
            gradientTransform="translate(9.06 159.41) rotate(90.2)" gradientUnits="userSpaceOnUse">
            <stop offset="0" stop-color="#fff" stop-opacity="0" />
            <stop offset="0" stop-color="#fff" stop-opacity=".5" />
            <stop offset=".32" stop-color="#fff" stop-opacity=".49" />
            <stop offset=".49" stop-color="#fff" stop-opacity=".46" />
            <stop offset=".62" stop-color="#fff" stop-opacity=".41" />
            <stop offset=".74" stop-color="#fff" stop-opacity=".33" />
            <stop offset=".84" stop-color="#fff" stop-opacity=".23" />
            <stop offset=".94" stop-color="#fff" stop-opacity=".11" />
            <stop offset="1" stop-color="#fff" stop-opacity=".02" />
            <stop offset="1" stop-color="#fff" stop-opacity=".05" />
        </linearGradient>
    </defs>
    <path class="ai"
        d="m269.66,127l-.1,29.18c-.03,9.52-7.8,17.23-17.32,17.2h0c-9.52-.03-17.23-7.8-17.2-17.32l.1-29.18c.03-9.52,7.8-17.23,17.32-17.2h0c9.52.03,17.23,7.75,17.2,17.32h0Z" />
    <path class="al"
        d="m247.45,17.11l-.1,27.77c-.03,9.1-7.43,16.39-16.48,16.36h0c-9.1-.03-16.39-7.43-16.36-16.48l.1-27.77c.03-9.1,7.43-16.39,16.48-16.36h0c9.05.03,16.39,7.43,16.36,16.48Z" />
    <path class="ak"
        d="m66.36,16.48l-.1,27.77c-.03,9.1-7.43,16.39-16.48,16.36h0c-9.1-.03-16.39-7.43-16.36-16.48l.1-27.77C33.55,7.26,40.94-.03,49.99,0h0c9.05.03,16.39,7.43,16.36,16.48Z" />
    <path class="ab"
        d="m53.69,22.17l-7.95.11c-.42,0-.83.27-1.04.64l-3.88,6.91c-.2.37-.2.84.02,1.25l4.07,6.79c.21.36.64.62,1.05.61l7.95-.11c.42,0,.83-.27,1.04-.64l3.88-6.91c.2-.37.2-.84-.02-1.25l-4.07-6.79c-.22-.42-.64-.62-1.05-.61Z" />
    <path class="af"
        d="m53.35,38.33h.58c.42-.01.83-.28,1.04-.65l2.55-4.53-5.41-5.15.66,2.45-.61,1.32-1.29.96-1.72.44-1.05-.14,5.25,5.31h0Z" />
    <path class="t"
        d="m52.42,28.31c.37.57.64,1.19.65,1.87.01.73-.19,1.36-.6,1.94-.05.11-.05.16,0,.21.37.36.74.72,1.11,1.08.16.15.16.26,0,.42-.05.05-.15.16-.21.21-.15.16-.21.16-.37,0-.37-.36-.74-.72-1.11-1.08-.05-.1-.11-.1-.21,0-1.09.75-2.29.87-3.5.26-.05-.05-.11-.05-.16-.1-.26-.15-.48-.36-.69-.57-.85-.98-1.13-2.08-.73-3.34.4-1.21,1.28-2.01,2.53-2.23,1.3-.23,2.36.23,3.21,1.21,0,.03.02.07.05.1h0Z" />
    <path class="ab"
        d="m49.69,27.77c1.36-.02,2.53,1.06,2.54,2.42s-1.06,2.53-2.42,2.54-2.53-1.06-2.55-2.47,1.06-2.47,2.42-2.49h0Z" />
    <path class="t" d="m48.12,31.09c.16.31.37.57.69.72l-.02-1.67h-.68s.01.95.01.95h0Z" />
    <path class="t" d="m49.39,32.01c.1,0,.21.05.31.05.16,0,.26,0,.42-.06l-.04-2.72h-.73s.04,2.73.04,2.73h0Z" />
    <path class="u" d="m50.69,31.78c.31-.21.52-.48.67-.79v-.42s-.69,0-.69,0l.02,1.2Z" />
    <path class="ah"
        d="m112.53,16.64l-.1,27.77c-.03,9.1-7.43,16.39-16.48,16.36h0c-9.1-.03-16.39-7.43-16.36-16.48l.1-27.77c.03-9.1,7.43-16.39,16.48-16.36h0c9.05.03,16.39,7.43,16.36,16.48Z" />
    <path class="s"
        d="m106.28,32.93c-.2.63-.72,1-1.24,1.32-.67.43-1.4.59-2.14.65h-.78c0,.11,0,.22-.05.32-.04.63-.09,1.31-.13,1.94-.05.58-.19,1.15-.45,1.73-.41.89-1.08,1.48-2.07,1.75-.47.11-.94.27-1.41.23-.94-.04-1.63-.5-2.06-1.39-.27-.62-.49-1.3-.5-1.98-.06-.57-.07-1.15-.13-1.67v-.21c-.21.05-.42.16-.63.16-.83.17-1.62.13-2.41-.23-.21-.1-.37-.26-.58-.36v-.05c-.05.05-.1.05-.16.11-.67.53-1.56.49-2.25-.02-.48-.36-.85-.88-1.17-1.4-.48-.83-.81-1.72-1.13-2.6-.49-1.51-.93-3.07-1.16-4.69-.17-1.1-.13-2.25.17-3.3.45-1.47,1.43-2.37,2.89-2.76.73-.22,1.46-.23,2.25-.19.84.09,1.68.24,2.52.49h.1c.88-.54,1.87-.7,2.92-.67.37,0,.73.1,1.1.09h.1c.63-.17,1.3-.33,1.93-.34h.94c.26-.02.52.03.73.08,1.31.19,2.47.75,3.42,1.68.42.41.74.83.86,1.45.11.47.12.89.07,1.36-.04.79-.19,1.52-.34,2.25-.45,1.78-1.11,3.47-2.03,5.1,0,.05-.05.05-.05.16.31-.06.57-.06.84-.12.31-.06.57-.11.84-.12.21,0,.42.1.63.25.16.15.27.31.37.52l.16.42h0Zm-3.57-.69c0-.05.05-.05.05-.11,1.23-2,2.14-4.16,2.59-6.47.15-.73.24-1.47.13-2.25-.06-.37-.11-.68-.38-.99s-.53-.57-.85-.83c-.95-.77-2.11-1.18-3.31-1.21-.99-.04-2.04.08-2.98.4h-.1c-.42-.05-.79-.15-1.2-.14-.99-.04-1.88.13-2.71.66h-.1c-.84-.25-1.63-.45-2.52-.54-.73-.1-1.52-.03-2.25.13-1.04.27-1.82.96-2.28,1.96-.3.74-.4,1.47-.39,2.25,0,.68.12,1.31.23,1.98.28,1.46.66,2.87,1.2,4.27.27.78.59,1.51,1.02,2.18.21.42.48.78.85,1.04.32.26.68.36,1.1.25.31-.11.57-.27.83-.53.36-.42.67-.79,1.03-1.22.21-.26.46-.53.67-.74.37.2.74.3,1.21.3-.1.16-.21.26-.31.42-.1.16-.26.26-.47.32-.26.06-.47.11-.73.22-.21.05-.47.11-.62.27-.26.21-.31.53-.04.79.11.1.21.15.32.21.32.15.68.25,1.05.25.79.04,1.52-.12,2.08-.65,0,0,.05,0,.05-.05v.16c.02,1.05.03,2.09.15,3.14.06.52.17,1.04.44,1.46.37.62.9.98,1.63,1.03.68.04,1.36-.17,1.93-.44.47-.22.78-.59.98-1.06.1-.21.2-.47.2-.73.14-1.1.29-2.15.43-3.25.05-.21.05-.37.05-.58.1,0,.21.05.31.05.42.05.84.04,1.25-.02.73-.11,1.41-.38,1.98-.86.15-.16.36-.32.41-.53.1-.26,0-.58-.32-.62h-.47c-.47.12-.99.18-1.46.18-.26.06-.47.06-.68-.1h0Z" />
    <path class="p"
        d="m102.71,32.29c.21.15.42.15.68.15.52,0,.99-.06,1.46-.18.16,0,.31-.06.47,0,.31.05.42.31.32.62-.1.21-.26.37-.41.53-.57.48-1.25.75-1.98.86-.42.06-.84.12-1.25.02-.1,0-.21-.05-.31-.05,0,.21-.05.42-.05.58-.14,1.1-.29,2.15-.43,3.25-.05.26-.1.47-.2.73-.2.47-.51.84-.98,1.06-.62.32-1.25.49-1.93.44-.73-.04-1.26-.4-1.63-1.03-.27-.47-.38-.94-.44-1.46-.12-1.04-.13-2.09-.14-3.14v-.16c-.05,0-.05.05-.05.05-.62.53-1.3.7-2.08.65-.37-.05-.73-.1-1.05-.25-.11-.05-.21-.15-.32-.21-.26-.26-.22-.57.04-.79.21-.16.42-.21.62-.27.26-.06.47-.11.73-.22.21-.05.36-.16.47-.32.1-.11.21-.26.31-.42-.42,0-.84-.09-1.21-.3-.21.26-.46.53-.67.74-.36.42-.67.79-1.03,1.22-.21.26-.47.42-.83.53-.42.11-.79-.04-1.1-.25-.37-.26-.64-.62-.85-1.04-.43-.67-.75-1.45-1.02-2.18-.49-1.41-.87-2.87-1.2-4.27-.11-.63-.23-1.3-.23-1.98,0-.78.09-1.52.39-2.25.46-1,1.18-1.64,2.28-1.96.73-.22,1.46-.23,2.25-.13.84.09,1.68.29,2.52.54h.1c.83-.53,1.72-.76,2.71-.66.42,0,.79.09,1.2.14h.1c.99-.33,1.98-.44,2.98-.41,1.26.09,2.36.44,3.31,1.21.32.26.58.52.85.83.21.31.32.62.38.99.11.78.02,1.52-.13,2.25-.44,2.31-1.36,4.46-2.59,6.47,0,0-.05,0-.05.05h0Zm-7.58,0h.31c.47.09.79.35.95.82.05.21.06.47.06.68.02,1.36-.02,2.77.16,4.13.06.37.17.73.33,1.04.32.52.74.78,1.32.72.37,0,.73-.11,1.1-.22.62-.22,1.09-.64,1.24-1.32.1-.58.19-1.15.29-1.73.05-.42.09-.84.14-1.2s.09-.79.09-1.15c.05-.31.05-.58.04-.89.05-.47.3-.79.72-.95.03,0,.07-.02.1-.05-.05-.05-.05-.1-.11-.16-.21-.26-.48-.57-.64-.93-.11-.21-.21-.42-.32-.62-.37-.68-.8-1.4-1.07-2.13-.22-.57-.38-1.15-.28-1.72.05-.47.25-.84.67-1.05.47-.27.99-.33,1.51-.28h.26c0-.06-.05-.11-.05-.16-.43-1.04-1.07-1.92-1.92-2.59-1.27-1.03-2.74-1.43-4.41-1.2-.89.12-1.61.6-2.13,1.28-.41.58-.66,1.21-.87,1.84-.1.47-.2,1-.24,1.47.21-.11.36-.16.52-.27.52-.22.99-.33,1.57-.28.63.04,1.1.46,1.27,1.08.22.78.33,1.56.29,2.4-.05.52-.09.99-.3,1.47-.2.47-.35.95-.56,1.42.06.26,0,.42-.05.58h0Zm-2.36-.13c-.21-.21-.37-.41-.53-.67-.43-.57-.59-1.25-.5-1.93.05-.52.09-1.05.08-1.57,0-.37-.06-.73-.07-1.1-.06-.89.08-1.73.28-2.57.25-.89.61-1.73,1.28-2.42v-.05s-.05,0-.05,0c-.68-.2-1.42-.35-2.15-.39-.58-.05-1.15-.04-1.78.13-1.04.27-1.72.86-2.12,1.86-.15.47-.25.94-.3,1.42-.05.52-.04.99.07,1.52.17.78.33,1.62.5,2.4.33,1.25.71,2.45,1.2,3.65.22.52.54,1.09.91,1.56.16.15.32.31.48.41.21.1.42.1.63,0,.1-.11.21-.21.31-.32.31-.37.62-.74.93-1.06.41-.32.62-.58.83-.85h0Zm9.56-.49c0-.05.05-.05.05-.11,1.07-1.84,1.89-3.79,2.33-5.89.15-.73.24-1.47.13-2.2-.06-.26-.11-.47-.22-.68-.27-.31-.53-.57-.85-.83-.95-.67-2-.97-3.15-1.01-.37,0-.73.06-1.1.07-.16,0-.31.06-.52.11.04.03.07.05.11.05,1.63.76,2.75,2.06,3.45,3.72.05.16.16.36.16.57.06.42.01.84-.09,1.26-.1.63-.09,1.2-.03,1.83.06.42.12.89.12,1.31,0,.58-.09,1.1-.4,1.57-.05.11-.05.16,0,.21h0Zm-6.84-2.95c0-.68-.12-1.25-.23-1.88-.06-.37-.27-.62-.64-.72-.16-.05-.31-.05-.47-.05-.63.06-1.15.28-1.67.6-.05.05-.1.11-.1.21,0,.47.06.89.07,1.36,0,.37-.04.68-.04,1.05,0,.26-.05.52,0,.78.06.57.27,1.04.65,1.4.37.41.84.62,1.42.61.05,0,.1,0,.1-.05.2-.53.35-1,.56-1.47.2-.58.35-1.21.34-1.83h0Zm6.36,2.27h0s.05-.07.05-.11c.1-.32.2-.63.2-.94,0-.52-.07-1.05-.13-1.62-.06-.47-.06-.94.04-1.36.05-.31.1-.68.09-.99,0-.05,0-.1-.05-.1-.37-.05-.73-.04-1.1.01-.36.11-.73.27-.77.79-.05.31,0,.58.12.84.16.63.43,1.2.75,1.77.27.52.59,1.04.86,1.56-.1.16-.05.16-.05.16h0Zm-9.06,3.36s0,.05,0,0c.05.05.16.1.21.1.32.1.63.15,1,.14.73,0,1.25-.28,1.72-.86.21-.26.1-.63-.17-.83-.21-.1-.32-.1-.42.06-.15.16-.26.32-.36.48-.21.32-.52.53-.88.64-.16.05-.26.06-.42.11-.26.11-.47.16-.68.17h0Zm12.06-1.46h-.05c-.57.11-1.1.17-1.67.13-.26-.05-.52-.1-.79-.25h-.1c-.05,0-.1.05-.16.06-.16.05-.26.16-.31.37,0,.05-.05.11-.05.21,0,.26-.05.26.21.31.05,0,.1,0,.21.05.58.05,1.1-.01,1.67-.18.36-.21.73-.43,1.04-.69h0Z" />
    <path class="v"
        d="m95.13,32.29c.05-.16.1-.32.15-.47.2-.47.35-.95.56-1.42.2-.47.25-.94.3-1.47.04-.84-.07-1.62-.29-2.4-.16-.63-.64-.99-1.27-1.08-.52-.05-1.05.07-1.57.28-.16.05-.36.16-.52.27.05-.52.09-.99.24-1.47.2-.68.45-1.31.87-1.84.57-.69,1.24-1.17,2.13-1.28,1.62-.23,3.09.17,4.41,1.2.85.72,1.48,1.6,1.92,2.59,0,.05.05.1.05.16h-.26c-.52,0-1.05.02-1.51.28-.42.27-.62.64-.67,1.05-.1.63.07,1.15.28,1.72.27.73.65,1.46,1.07,2.13.11.21.21.42.32.62.16.31.37.62.64.93.05.05.05.1.11.16-.05,0-.05.05-.1.05-.47.16-.67.48-.72.95-.05.31-.05.58-.04.89-.05.37-.09.79-.09,1.15-.05.42-.09.84-.14,1.2-.1.58-.14,1.15-.29,1.73-.15.68-.56,1.11-1.24,1.32-.36.11-.73.22-1.1.22-.58,0-1-.25-1.32-.72-.21-.31-.32-.68-.33-1.04-.17-1.36-.14-2.77-.16-4.13,0-.21.05-.47-.06-.68-.16-.47-.48-.78-.95-.82-.21-.1-.32-.1-.42-.1h0Z" />
    <path class="v"
        d="m92.78,32.16c-.21.26-.46.48-.67.74-.31.37-.62.74-.93,1.06-.1.11-.21.21-.31.32-.21.16-.42.16-.63,0-.21-.1-.37-.26-.48-.41-.37-.47-.64-.99-.91-1.56-.54-1.2-.92-2.39-1.2-3.65-.22-.78-.39-1.62-.5-2.4-.11-.52-.12-.99-.07-1.52.05-.47.09-.94.3-1.42.35-1,1.08-1.58,2.12-1.86.57-.11,1.15-.17,1.78-.13.73.04,1.41.19,2.15.39h.05s0,.05,0,.05c-.67.69-1.03,1.53-1.28,2.42-.2.84-.34,1.68-.28,2.57,0,.37.06.73.07,1.1,0,.52-.04,1.05-.08,1.57-.04.68.12,1.36.5,1.93,0,.37.22.57.38.78h0Z" />
    <path class="v"
        d="m102.34,31.67c-.05-.05-.11-.1-.05-.16.26-.47.41-1,.4-1.57,0-.42-.06-.89-.12-1.31-.06-.63-.07-1.2.03-1.83.05-.42.09-.84.09-1.26,0-.21-.06-.37-.16-.57-.7-1.66-1.82-2.96-3.45-3.72-.03,0-.07-.02-.11-.05.21-.05.37-.06.52-.11.37-.06.73-.06,1.1-.07,1.15-.01,2.2.29,3.15,1.01.32.26.58.52.85.83.16.21.21.42.22.68.11.73.02,1.46-.13,2.2-.39,2.1-1.2,4.09-2.33,5.94.05-.05,0,0,0,0h0Z" />
    <path class="v"
        d="m95.5,28.72c0,.63-.14,1.26-.39,1.89-.2.47-.35,1-.56,1.47,0,.05-.05.11-.1.05-.58,0-1-.25-1.42-.61-.37-.41-.64-.88-.65-1.4v-.78c-.01-.37.03-.68.03-1.05,0-.47-.01-.89-.07-1.36,0-.1,0-.16.1-.21.52-.32,1.04-.54,1.67-.6.16,0,.31,0,.47.05.37.1.53.36.64.72.16.52.28,1.15.28,1.83h0Zm-1.18-2.34c-.1,0-.21.05-.31.06-.1.05-.15.16-.1.26.16.36.63.57,1,.2.15-.16.1-.32-.06-.42-.16-.05-.37-.1-.52-.1h0Z" />
    <path class="w"
        d="m101.86,31l-.05-.05c-.27-.52-.59-1.04-.86-1.56-.32-.57-.59-1.14-.75-1.77-.06-.26-.11-.57-.12-.84.05-.52.41-.74.77-.79.36-.11.73-.06,1.1-.01.05,0,.05.05.05.1-.05.31-.04.68-.09.99-.05.47-.09.94-.04,1.36.06.52.12,1.04.13,1.62,0,.31-.04.63-.14.94.05-.05,0,0,0,0h0Zm-.84-4.23c.21,0,.42-.16.52-.37.05-.11.05-.21-.11-.26-.32-.1-.58-.05-.84.12-.1.05-.1.16-.05.26.16.21.32.26.47.26h0Z" />
    <path class="v"
        d="m92.8,34.35c.21-.05.42-.11.57-.16s.26-.06.42-.11c.36-.11.68-.32.88-.64.1-.16.26-.32.36-.48.15-.16.26-.16.42-.06.26.15.37.57.17.83-.41.58-.98.85-1.72.86-.31,0-.63-.04-1-.14,0,.05-.05,0-.11-.1t0,0h0Z" />
    <path class="v"
        d="m104.87,32.89c-.31.27-.67.53-1.09.64-.52.16-1.1.22-1.67.18-.05,0-.1,0-.21-.05-.26-.05-.21-.05-.21-.31,0-.05,0-.1.05-.21.05-.16.15-.32.31-.37.05,0,.1-.05.16-.05h.1c.21.15.53.2.79.25.58.05,1.1-.01,1.67-.13.05.05.11.05.11.05h0Z" />
    <path class="p"
        d="m94.32,26.39c.21,0,.37.05.52.15.21.1.21.26.06.42-.36.37-.83.17-1-.2-.05-.1,0-.21.1-.26s.21-.11.31-.11h0Z" />
    <path class="p"
        d="m101.02,26.77c-.16,0-.32-.1-.42-.2-.05-.1-.05-.21.05-.26.26-.16.52-.22.84-.12.11.05.16.1.11.26-.15.21-.36.32-.57.32h0Z" />
    <path class="ag"
        d="m198.14,16.93l-.1,27.77c-.03,9.1-7.43,16.39-16.48,16.36h0c-9.1-.03-16.39-7.43-16.36-16.48l.1-27.77c.03-9.1,7.43-16.39,16.48-16.36h0c9.1.03,16.39,7.43,16.36,16.48Z" />
    <path class="m"
        d="m157.56,16.79l-.1,27.77c-.03,9.1-7.43,16.39-16.48,16.36h0c-9.1-.03-16.39-7.43-16.36-16.48l.1-27.77c.03-9.1,7.43-16.39,16.48-16.36h0c9.05.03,16.39,7.43,16.36,16.48Z" />
    <path class="aj"
        d="m32.94,137.32l-.1,27.77c-.03,9.1-7.43,16.39-16.48,16.36h0C7.26,181.42-.03,174.02,0,164.98l.1-27.77c.03-9.1,7.43-16.39,16.48-16.36h0c9.05-.02,16.4,7.38,16.36,16.48h0Z" />
    <path class="am"
        d="m141.67,59.72l-.43,123.42m91.03-41.42l-83.88-.29s-6.74-1.02-6.76,4.66m45.43-85.16l-.12,17.66c.22,1.87-.21,2.99-.68,3.68-1.19,1.75-3.96,2.76-3.96,2.76h0l-37.27-.13c-.56-.12-.97-.03-1.22.06-1.26.47-2.02,2.29-1.79,4.54m-46.68-27.64l-.09,27.19s-.75,4.6,5.42,5.56,33.36,1.06,33.36,1.06c.39-.04,3.53-.25,5.74,2.16,1.59,1.73,1.74,3.77,1.77,4.37M53.6,61.45l-.18,50.78s.5,6.49,8.87,6.52c8.37.03,71.12-.54,71.12-.54.21,0,4.95,0,7.13,3.73,1.14,1.95,1,3.93.89,4.71m-107.8,20.5c11.38.04,96.74-.73,96.74-.73.28,0,6.73,0,9.7,5.09,1.55,2.66,1.36,5.35,1.22,6.43m90.19-95.61l-.14,28.24s.54,5.25-7.04,6.02l-39.06-.14s-4.31-.15-5.24,4.82l-.12,35.49s-2.03,4.77-4.72,4.76" />
    <path class="ad"
        d="m181.6,17.56l.75,1.4c.17.26.35.49.56.7.63.63,1.22,1.28,1.75,1.98,1.26,1.66,2.11,3.51,2.72,5.5.36,1.22.56,2.47.58,3.73.06,3.78-1.24,7.02-3.86,9.72-.43.43-.88.82-1.38,1.17-.26,0-.38-.2-.49-.38-.2-.33-.32-.72-.38-1.1-.09-.46-.15-.92-.12-1.39v-.21s-.23-21.03-.14-21.14h0Z" />
    <path class="z"
        d="m181.6,17.51c-.03-.06-.06-.02-.09.02.02.31-.09.58-.26.84-.18.26-.43.45-.67.67-1.36,1.17-2.42,2.59-3.28,4.18-1.14,2.13-1.72,4.42-1.89,6.83-.08.87.27,3.93.54,4.82.75,2.35,2.08,4.32,3.82,6.02.43.41.88.79,1.35,1.16.14,0,.15-.12.18-.21.06-.19.1-.39.14-.6l.31-2.29-.15-21.43h0Z" />
    <path class="x"
        d="m182.32,42.71c.03-.35.2-.64.38-.93-.18-.08-.32-.23-.43-.4-.09-.15-.17-.33-.22-.5-.21-.64-.26-1.31-.32-1.97v-.4c-.08.06-.09.58-.09.65-.05.69-.14,1.38-.28,2.05-.05.28-.08.55-.25.79,0,.03,0,.06.02.1.28.81.35,1.63.4,2.47v.31c0,.37-.02.29.29.41.12.05.26.06.38.15.09,0,.1-.08.1-.14l-.05-.5v-1.4c-.01-.25.03-.49.06-.72h0Z" />
    <path class="r"
        d="m136.19,40.53c.14.69-.29,1.36-.98,1.53-.69.14-1.36-.29-1.53-.98,0,0-2.45-10.99-2.47-13.24-.04-4.7,3.66-8.07,8.92-8.11,5.26-.05,9.02,3.22,9.07,7.92.02,2.25-2.23,13.28-2.23,13.28-.12.7-.78,1.16-1.48,1.04s-1.16-.78-1.04-1.48" />
    <path class="ae" d="m146.38,37.29l-.6,3.58c-.09.7-.75,1.2-1.44,1.11s-1.2-.75-1.11-1.44" />
    <path class="ac"
        d="m146.51,37.29l-.28,1.89-.16.93-.06.5-.09.5c-.22.8-1.05,1.23-1.84,1.01-.33-.1-.6-.29-.8-.55-.2-.3-.3-.69-.24-1.05,0-.1.13-.2.23-.17.1,0,.2.13.17.23-.06.56.31,1.05.87,1.15.53.09,1.09-.21,1.25-.74.03-.1.07-.3.1-.43l.1-.47.16-.93.35-1.85c.03-.06.09-.1.17-.1.07,0,.1.07.1.1h0Z" />
    <circle class="o" cx="137.16" cy="26.93" r="4" />
    <path class="ac"
        d="m137.96,24.27c-.69.14-.81,1.66-.41,2.09.27.26.83.36.83.55s-.56.3-.82.57c-.42.43-.25,1.95.45,2.08.83.16,2.07-.84,2.06-2.66s-1.28-2.8-2.1-2.63h0Z" />
    <path class="q" d="m135.29,32.34c.13.43.57,1.09,1.13.95.27-.07.42-.43.42-.96" />
    <path class="n" d="m138.86,32.04c.14.56.28.95.7.95s.95-.57.81-1.53" />
    <path class="ac"
        d="m134.46,32.05c2.68.37,5.39-.31,7.59-1.85.1-.03.23,0,.27.1.03.07.03.17-.03.23-2.3,1.61-5.1,2.26-7.89,1.89-.1-.03-.13-.13-.1-.23.07-.1.1-.13.17-.13h0Zm7.92-1.23c-.08-.37-.39-.65-.76-.69-.1.03-.23-.03-.23-.17-.03-.1.03-.23.17-.23h.13c.53.09.93.52,1,1.05,0,.07-.07.13-.13.13-.1.03-.17-.03-.17-.1h0Z" />
    <path class="ae" d="m137.41,40.58c.11.69-.35,1.36-1.08,1.46-.69.11-1.36-.35-1.46-1.08l-.63-3.57" />
    <path class="ac"
        d="m137.64,40.55c.11.83-.48,1.56-1.28,1.66-.73.11-1.39-.35-1.59-1.01l-.1-.5-.21-1.39c-.17-.66-.28-1.29-.38-1.92,0-.07.07-.13.13-.13s.13.03.13.1l.38,1.85.31,1.39.1.43c.17.53.7.85,1.26.72.53-.14.89-.64.82-1.16,0-.1.07-.23.17-.23.13-.03.23.07.27.2h0Z" />
    <path class="ae" d="m139.27,40.63c.04.7-.48,1.33-1.21,1.37-.66.04-1.26-.45-1.33-1.11l-.43-3.57" />
    <path class="ac"
        d="m139.5,40.63c.04.83-.58,1.53-1.41,1.57-.73.04-1.36-.42-1.53-1.11-.03-.17-.07-.33-.07-.5l-.04-.47-.11-.92-.18-1.88c0-.07.07-.13.13-.13s.13.03.13.1l.42,2.8.07.46c.03.17.03.33.07.43.14.53.67.89,1.2.78.54-.11.93-.58.92-1.13,0-.1.1-.2.23-.2.07.03.13.1.17.2Z" />
    <path class="ae" d="m144.29,37.21l-.37,3.61c-.06.7-.65,1.23-1.38,1.17-.7-.06-1.23-.65-1.17-1.38" />
    <path class="ac"
        d="m144.46,37.21l-.15,1.88-.09.93-.03.47c0,.17-.03.33-.06.5-.1.37-.29.66-.62.9-.69.47-1.58.31-2.05-.38-.2-.26-.27-.59-.27-.92.03-.1.13-.2.23-.17.1,0,.17.1.17.2-.03.56.38,1.02.94,1.12.53.06,1.05-.28,1.19-.81l.06-.43.19-1.39.25-1.88c.03-.07.1-.13.17-.1.03,0,.07.03.1.1h0Z" />
    <path class="ae" d="m141.68,37.11l-.07,3.6c0,.7-.55,1.3-1.28,1.3s-1.3-.55-1.3-1.28l-.13-3.6" />
    <path class="ac"
        d="m141.81,37.14v2.78s0,.7,0,.7c0,.27-.03.53-.16.76-.36.73-1.28,1.04-2.01.65-.4-.2-.7-.59-.77-1.02-.03-.13-.03-.27-.03-.4v-.7s-.06-2.78-.06-2.78c0-.07.07-.13.13-.13s.13.07.13.13l.2,3.47c0,.1,0,.2.03.3l.1.27c.3.53.93.72,1.46.42.2-.1.33-.27.42-.43l.1-.27c.03-.1.03-.2.03-.3l.14-3.47c0-.07.07-.13.13-.13.13,0,.17.07.17.17h0Z" />
    <path class="an"
        d="m238.74,37.07c-1-.03-1.79.06-2.44.33-.19.07-.49.07-.52.31.1.1.11.26.2.4.15.25.41.59.65.77l.8.58c.49.3,1.04.48,1.52.78.28.18.55.41.83.59.14.1.22.26.4.33v-.04c-.09-.11-.11-.28-.2-.4l-.37-.36c-.36-.49-.81-.92-1.3-1.27-.4-.28-1.28-.66-1.44-1.12l-.03-.03c.28-.02.6-.12.87-.19.43-.11.82-.08,1.26-.19l.61-.17v-.11c-.22-.23-.39-.53-.62-.74-.64-.55-1.34-1.1-2.07-1.55-.39-.25-.89-.42-1.3-.64-.15-.07-.4-.12-.49-.24-.22-.28-.35-.64-.51-.97l-1.02-2.18c-.22-.49-.36-.98-.63-1.43-1.28-2.14-2.69-3.43-4.84-4.71-.46-.26-1.02-.38-1.6-.52l-.94-.06c-.2-.09-.4-.33-.58-.44-.71-.45-2.56-1.44-3.09-.16-.35.81.49,1.62.78,2.03.21.29.49.62.64.94.08.21.11.44.19.67.2.55.38,1.16.64,1.68.14.26.28.54.46.78.1.14.28.2.31.43-.18.25-.19.63-.29.93-.46,1.41-.3,3.16.34,4.21.2.32.67,1,1.32.75.57-.22.45-.93.61-1.56.04-.15.01-.25.09-.35v.03s.51,1.04.51,1.04c.39.61,1.06,1.26,1.63,1.69.3.23.53.62.92.76v-.04s-.03,0-.03,0c-.07-.11-.19-.16-.29-.25-.22-.23-.47-.51-.65-.76-.52-.7-.98-1.48-1.39-2.28-.2-.39-.37-.81-.53-1.21-.08-.15-.08-.38-.2-.45-.19.28-.47.51-.61.85-.24.54-.27,1.2-.36,1.89-.05.01-.03,0-.05.03-.4-.1-.54-.52-.68-.87-.37-.89-.42-2.31-.09-3.34.09-.26.47-1.08.32-1.34-.08-.24-.33-.38-.46-.57-.16-.24-.34-.54-.45-.8-.3-.7-.45-1.48-.76-2.18-.15-.33-.41-.67-.62-.97-.24-.34-.5-.58-.68-.98-.06-.14-.15-.36-.05-.51.03-.1.07-.14.18-.16.16-.14.63.04.79.12.46.19.86.37,1.24.64.18.13.36.36.59.43h.27c.4.09.86.03,1.23.15.67.22,1.27.53,1.81.87,1.64,1.05,2.99,2.54,3.9,4.3.15.29.21.55.34.85.26.61.58,1.24.85,1.85.26.59.51,1.19.88,1.68.19.26.94.4,1.28.55.25.11.64.22.87.36.43.26.85.57,1.25.86.2.15.83.47.86.72h-.02Zm-12.76-10.95c-.17,0-.35.02-.52.06v.03s.03,0,.03,0c.1.2.27.34.4.52l.28.6.03-.03c.18-.12.27-.32.27-.63-.07-.09-.09-.18-.15-.26-.07-.13-.24-.19-.34-.29h0Z" />
    <path class="y"
        d="m252.27,131.17l8.14-.04c1.5-.02,2.72,1.18,2.74,2.68v.05s.04,8.14.04,8.14c.03,5.97-4.79,10.83-10.75,10.85h-.06c-5.97.03-10.83-4.78-10.86-10.74h0c-.03-5.99,4.78-10.85,10.75-10.93h0Z" />
    <path class="p"
        d="m252.29,136c-2.74.01-4.95,2.25-4.94,4.99l.02,3.37c.03.9.76,1.63,1.66,1.64h1.4s-.02-3.88-.02-3.88h-1.9s0-1.07,0-1.07c.11-2.04,1.79-3.64,3.83-3.65s3.74,1.58,3.86,3.62v1.08s-1.92,0-1.92,0l.02,3.88h1.27s0,.06,0,.06c-.01.84-.68,1.51-1.51,1.53h-1.52c-.13,0-.26.07-.26.19,0,.14.12.25.26.26h1.52c1.09-.02,1.96-.9,1.96-1.99v-.13c.75-.17,1.27-.84,1.26-1.61v-3.29c.04-2.8-2.19-5.02-5-5,0,0,0,0,0,0Z" />
    <g id="j">
        <path id="k" class="aa"
            d="m16.63,159.71h0c-6.04.1-10.99-4.7-11.09-10.76h0c-.1-6.06,4.7-11.03,10.72-11.13l8.21-.14c1.53-.03,2.79,1.18,2.81,2.72l.14,8.18c.08,6.06-4.7,11.03-10.79,11.13h0Z" />
        <path id="l" class="p"
            d="m19.81,144.2l-5.47.09c-1.55.03-2.74,1.28-2.72,2.81l.08,4.7c0,.32.28.58.6.58l7.59-.13c1.55-.03,2.74-1.28,2.72-2.81l-.04-2.52c-.05-1.53-1.28-2.74-2.76-2.72h0Zm-1.91,5.89l-3.99.07c-.32,0-.52-.26-.52-.5s.26-.52.5-.52l3.99-.07c.32,0,.52.26.52.5s-.18.52-.5.52Zm2.4-2.61l-6.44.11c-.32,0-.52-.26-.52-.5,0-.32.26-.52.5-.52l6.44-.11c.32,0,.52.26.52.5s-.24.52-.5.52Z" />
    </g>
</svg>