<svg width="1440" height="155" viewBox="0 0 1440 155" fill="none" xmlns="http://www.w3.org/2000/svg">
<mask id="mask0_349_60" style="mask-type:alpha" maskUnits="userSpaceOnUse" x="0" y="0" width="1440" height="155">
<rect width="1440" height="155" fill="white"/>
</mask>
<g mask="url(#mask0_349_60)">
<line x1="0.210937" y1="-0.499756" x2="1440.21" y2="-0.499882" stroke="white" stroke-opacity="0.1"/>
<line x1="0.210937" y1="79.5002" x2="1440.21" y2="79.5001" stroke="white" stroke-opacity="0.1"/>
<line x1="0.710938" y1="2.18557e-08" x2="0.71093" y2="174.375" stroke="white" stroke-opacity="0.1"/>
<line x1="80.7109" y1="2.18557e-08" x2="80.7109" y2="174.375" stroke="white" stroke-opacity="0.1"/>
<line x1="160.711" y1="2.18557e-08" x2="160.711" y2="174.375" stroke="white" stroke-opacity="0.1"/>
<line x1="240.711" y1="2.18557e-08" x2="240.711" y2="174.375" stroke="white" stroke-opacity="0.1"/>
<line x1="320.711" y1="2.18557e-08" x2="320.711" y2="174.375" stroke="white" stroke-opacity="0.1"/>
<line x1="400.711" y1="2.18557e-08" x2="400.711" y2="174.375" stroke="white" stroke-opacity="0.1"/>
<line x1="480.711" y1="2.18557e-08" x2="480.711" y2="174.375" stroke="white" stroke-opacity="0.1"/>
<line x1="560.711" y1="2.18557e-08" x2="560.711" y2="174.375" stroke="white" stroke-opacity="0.1"/>
<line x1="640.711" y1="2.18557e-08" x2="640.711" y2="174.375" stroke="white" stroke-opacity="0.1"/>
<line x1="720.711" y1="2.18557e-08" x2="720.711" y2="174.375" stroke="white" stroke-opacity="0.1"/>
<line x1="800.711" y1="2.18557e-08" x2="800.711" y2="174.375" stroke="white" stroke-opacity="0.1"/>
<line x1="880.711" y1="2.18557e-08" x2="880.711" y2="174.375" stroke="white" stroke-opacity="0.1"/>
<line x1="960.711" y1="2.18557e-08" x2="960.711" y2="174.375" stroke="white" stroke-opacity="0.1"/>
<line x1="1040.71" y1="2.18557e-08" x2="1040.71" y2="174.375" stroke="white" stroke-opacity="0.1"/>
<line x1="1120.71" y1="2.18557e-08" x2="1120.71" y2="174.375" stroke="white" stroke-opacity="0.1"/>
<line x1="1200.71" y1="2.18557e-08" x2="1200.71" y2="174.375" stroke="white" stroke-opacity="0.1"/>
<line x1="1280.71" y1="2.18557e-08" x2="1280.71" y2="174.375" stroke="white" stroke-opacity="0.1"/>
<line x1="1360.71" y1="2.18557e-08" x2="1360.71" y2="174.375" stroke="white" stroke-opacity="0.1"/>
</g>
</svg>
