<?xml version="1.0" encoding="UTF-8"?><svg id="a" xmlns="http://www.w3.org/2000/svg" viewBox="0 0 1149.8 1006.29"><defs><style>.b{fill:#f2f2f2;}.b,.c,.d,.e,.f,.g,.h,.i,.j{stroke-width:0px;}.c{fill:#2f2e41;}.d{fill:#3f3d56;}.e{fill:#ccc;}.f{fill:#6c63ff;}.g{fill:#fff;}.h{fill:#e4e4e4;}.i{fill:#ffb6b6;}.j{fill:#e6e6e6;}</style></defs><path class="b" d="m55.49,342.91L.05,311.69c-.75-33.41,6.67-66.49,21.61-96.39,12.78,58.01,80.05,85.62,111.08,136.27,19.36,32.15,23.05,71.37,10.03,106.56l3.65,44.98c-57.99-17.37-105.46-59.26-129.92-114.63-6.63-15.42-11.29-31.61-13.87-48.19,25.85,2.75,52.85,2.62,52.85,2.62Z"/><path class="b" d="m1052.11,910.99l1.7-38.22c17.72-9.47,37.49-14.48,57.58-14.58-27.66,22.61-24.2,66.2-42.95,96.6-11.99,19.12-32.03,31.75-54.45,34.32l-23.14,14.17c-6.43-35.83,3.16-72.68,26.23-100.83,6.47-7.74,13.89-14.64,22.09-20.52,5.54,14.62,12.95,29.07,12.95,29.07Z"/><polygon class="i" points="992.48 983.61 971.52 983.61 961.56 902.78 992.49 902.78 992.48 983.61"/><path class="c" d="m997.83,1003.92h-67.57v-.86c0-14.52,11.78-26.3,26.3-26.3h0l12.34-9.36,23.03,9.37h5.9s0,27.16,0,27.16Z"/><polygon class="i" points="895.12 983.61 874.17 983.61 864.2 902.78 895.13 902.78 895.12 983.61"/><path class="c" d="m900.47,1003.92h-67.57v-.86c0-14.52,11.78-26.3,26.3-26.3h0l12.34-9.36,23.03,9.37h5.9s0,27.16,0,27.16Z"/><path class="c" d="m886.05,541.7l136.31,3.41c25.89,14.06,26.28,44.49,17.8,80.63,0,0,2.86,21.48-2.86,27.2s-8.59,5.73-5.73,15.75-12.27,26.39-10.43,28.23,6.13,11.86,6.13,11.86l-14.32,81.61s-10.02,141.74-12.89,144.61c-2.86,2.86-5.73,0-2.86,7.16,2.86,7.16,5.73,4.3,2.86,7.16-2.54,2.73-4.93,5.6-7.16,8.59h-34.62s-2.61-14.32-2.61-15.75-2.86-10.02-2.86-11.45,2.53-3.96,2.53-3.96c.87-2.91,1.47-5.9,1.76-8.92,0-2.86,8.59-113.11,8.59-113.11l-17.18-143.17-41.52,140.31s0,123.13-2.86,125.99c-2.86,2.86-2.86,1.43-1.43,7.16,1.43,5.73,7.16,4.3,2.86,8.59s-5.73-2.86-4.3,4.3l1.43,7.16-42.95.61s-5.73-12.07-2.86-16.36c2.86-4.3,2.69-3.12-.8-10.15-3.49-7.03-4.93-8.46-3.49-9.89,1.43-1.43,1.43-9.05,1.43-9.05l7.16-136.99s1.43-144.61,1.43-148.9c.11-2.21-.3-4.42-1.19-6.44v-5.83l5.48-20.66,19.13-49.67Z"/><circle class="i" cx="967.93" cy="215.92" r="42.35"/><path class="j" d="m946.76,286.26c-9.12,5.42-14.58,15.39-17.72,25.53-5.8,18.78-9.29,38.19-10.4,57.81l-3.31,58.74-40.99,125.08c35.52,30.06,169.04,6.83,169.04,6.83,0,0,4.1-1.37,0-5.46-4.1-4.1-8.09-.47-3.99-4.57s1.27.47-.09-3.63c-1.37-4.1,0-1.37,1.37-2.73,1.37-1.37-10.58-13.66-10.58-13.66l10.93-71.79,13.66-144.81c-16.39-20.49-49.36-32.57-49.36-32.57l-8.52-15.33-42.6,3.41-7.45,17.18Z"/><path class="c" d="m940.95,191.07c1.64.01,3.27.23,4.86.64,3.13.75,6.3,1.28,9.51,1.59,20.18,1.9,36.45,17.32,39.44,37.36,2.46-2.15,8.06-6.09,12.65-2.42h0c.07.06.11.09.27.01,3.05-1.45,8.46-19.24,8.62-34.92.09-8.32-1.22-18.94-7.95-22.3l-.35-.18-.09-.39c-.45-1.87-5.47-5.06-14.2-7.55-15.86-4.52-39.5-13.32-52.82-.37-1.01,4.37-4.29,13.71-7.6,14.77-3.67,1.17-6.83,2.18-7.33,6.68-.42,6.4-.39,12.82.09,19.22,1.24-3.91,3.68-7.34,6.97-9.79,2.34-1.58,5.11-2.4,7.93-2.35Z"/><path class="i" d="m862.12,425.08l69.18-44.31-34.84-46.32-34.41,42.32-107.2,6.57c-8.02-7.93-20.96-7.86-28.89.17-7.93,8.02-7.86,20.96.17,28.89,7.53,7.45,19.51,7.9,27.58,1.05l108.42,11.62Z"/><path class="j" d="m995.51,318.93c4.02,24.3-71.81,70.7-71.81,70.7,0-5.7-45.26,37.35-47.3,32.62-5.81-13.44-9.89-45.29-18-50.38-4.64-2.91,27.94-30.3,27.94-30.3,0,0,17.05-17.18,39.44-38.85,12.63-12.69,30.88-18.03,48.36-14.14,0,0,17.36,6.04,21.37,30.34Z"/><path class="i" d="m1138.11,436.71l-45.76-68.23-45.57,35.82,43.04,33.5,8.84,107.04c-7.76,8.19-7.41,21.12.78,28.88,8.19,7.76,21.12,7.41,28.88-.78,7.28-7.69,7.49-19.67.46-27.6l9.32-108.64Z"/><path class="j" d="m1029.16,305.59c24.21-4.53,72.21,70.3,72.21,70.3-5.7.12,38.3,44.46,33.62,46.6-13.32,6.09-45.07,10.84-49.99,19.06-2.82,4.7-30.88-27.29-30.88-27.29,0,0-17.54-16.69-39.68-38.6-12.96-12.36-18.68-30.49-15.16-48.05,0,0,5.67-17.48,29.88-22.01Z"/><path class="e" d="m1149.8,1004.26c0,1.12-.9,2.02-2.02,2.03h-477.58c-1.12,0-2.03-.91-2.03-2.03s.91-2.03,2.03-2.03h477.57c1.12,0,2.02.9,2.03,2.02h0Z"/><path class="f" d="m707.38,389.83H127.79c-18.85.02-34.13,15.3-34.15,34.15v360.85c.02,18.85,15.3,34.13,34.15,34.15h579.6c18.85-.02,34.13-15.3,34.16-34.15v-360.85c-.02-18.85-15.3-34.13-34.15-34.15Z"/><path class="d" d="m707.38,389.83H127.79c-18.85.02-34.13,15.3-34.15,34.15v360.85c.02,18.85,15.3,34.13,34.15,34.15h579.6c18.85-.02,34.13-15.3,34.16-34.15v-360.85c-.02-18.85-15.3-34.13-34.15-34.15Zm11.21,259.21c-.29,76.42-61.64,138.57-138.04,139.86-58.81.77,32.54,1.06-38.39,1.06-162.19,0-331.32-1.55-394.42-2.55-17.27-.36-31.1-14.42-31.16-31.69v-331.7c0-6.19,5.02-11.21,11.21-11.23h579.58c6.19,0,11.21,5.01,11.23,11.2v225.05Z"/><path class="d" d="m636.03,182.03H194.44c-8.01.01-15.14,5.04-17.84,12.58l-68.2,191.34c-3.51,9.85,1.63,20.69,11.48,24.2,2.03.72,4.17,1.1,6.33,1.1l592.25,1.05h.03c10.46,0,18.94-8.48,18.94-18.94,0-2.56-.52-5.1-1.53-7.46l-1.03.44,1.03-.44-82.45-192.39c-2.98-6.97-9.83-11.49-17.41-11.48Z"/><path class="d" d="m737.43,390.06c0,2.57-.52,5.1-1.53,7.46l-82.45,148.1c-3,6.95-9.84,11.46-17.41,11.47H194.45c-8.01,0-15.15-5.04-17.86-12.57l-68.19-147.04c-3.51-9.85,1.62-20.68,11.47-24.19,0,0,.01,0,.02,0,2.03-.73,4.17-1.11,6.32-1.11l72.35-.14,29.53-.05,388.54-.68,29.54-.05,72.29-.14h.02c10.46,0,18.95,8.48,18.95,18.95Z"/><path class="d" d="m171.24,660.51c8.76,0,129,7.35,129,16.11s-120.25,15.6-129,15.6-15.86-7.1-15.86-15.86,7.1-15.86,15.86-15.86Z"/><path class="j" d="m608.54,65.63H236.19c-20.78.02-37.61,16.86-37.64,37.64v453.82h437.48c3.59.01,7.11-1.01,10.14-2.95V103.27c-.02-20.78-16.86-37.61-37.64-37.64Z"/><path class="g" d="m466.42,96.15h-204.05c-18.92.02-34.25,15.35-34.28,34.26v426.68h388.54V246.36c-.1-82.92-67.29-150.12-150.21-150.21Z"/><path class="h" d="m550.43,519.2h-256.16c-4.61,0-8.35,3.72-8.36,8.34,0,4.61,3.72,8.35,8.34,8.36h256.18c4.61,0,8.35-3.72,8.36-8.34,0-4.61-3.72-8.35-8.34-8.36h-.03Z"/><path class="h" d="m550.43,486.18h-256.16c-4.62,0-8.35,3.75-8.35,8.36,0,4.61,3.74,8.35,8.35,8.35h256.16c4.62,0,8.36-3.74,8.36-8.35,0-4.62-3.74-8.36-8.35-8.36h-.01Z"/><path class="h" d="m405.32,453.17h-111.04c-4.61,0-8.35,3.72-8.36,8.34,0,4.61,3.72,8.35,8.34,8.36h111.07c4.61,0,8.35-3.72,8.36-8.34,0-4.61-3.72-8.35-8.34-8.36h-.03,0Z"/><path class="h" d="m550.43,384.03h-256.16c-4.62,0-8.35,3.75-8.35,8.36,0,4.61,3.74,8.35,8.35,8.35h256.16c4.62,0,8.36-3.74,8.36-8.35,0-4.62-3.74-8.36-8.35-8.36h-.01Z"/><path class="h" d="m550.43,351.03h-256.16c-4.61,0-8.35,3.72-8.36,8.34,0,4.61,3.72,8.35,8.34,8.36h256.18c4.61,0,8.35-3.72,8.36-8.34,0-4.61-3.72-8.35-8.34-8.36h-.03Z"/><path class="h" d="m405.32,318.01h-111.04c-4.62,0-8.35,3.75-8.35,8.36,0,4.61,3.74,8.35,8.35,8.35h111.04c4.62,0,8.36-3.74,8.36-8.35s-3.74-8.36-8.35-8.36h-.01,0Z"/><path class="f" d="m550.43,248.86h-256.16c-4.62,0-8.35,3.75-8.35,8.36,0,4.61,3.74,8.35,8.35,8.35h256.16c4.62,0,8.36-3.74,8.36-8.35,0-4.62-3.74-8.36-8.35-8.36h-.01Z"/><path class="f" d="m550.43,215.86h-256.16c-4.62,0-8.35,3.75-8.35,8.36,0,4.61,3.74,8.35,8.35,8.35h256.16c4.62,0,8.36-3.74,8.36-8.35,0-4.62-3.74-8.36-8.35-8.36h-.01Z"/><path class="f" d="m405.32,182.84h-111.04c-4.62,0-8.35,3.75-8.35,8.36,0,4.61,3.74,8.35,8.35,8.35h111.04c4.62,0,8.36-3.74,8.36-8.35s-3.74-8.36-8.35-8.36h-.01,0Z"/><circle class="f" cx="632.21" cy="65.02" r="65.02"/><path class="g" d="m623.34,98.87c-2.28,0-4.42-1.07-5.79-2.89l-17.74-23.65c-2.41-3.19-1.78-7.72,1.41-10.13,3.19-2.41,7.72-1.78,10.13,1.41,0,.01.02.03.03.04l11.61,15.47,29.81-44.71c2.22-3.32,6.71-4.22,10.03-2.01,3.32,2.22,4.22,6.71,2.01,10.03l-35.48,53.22c-1.3,1.95-3.47,3.15-5.82,3.22-.07,0-.13,0-.2,0Z"/></svg>